<svg xmlns="http://www.w3.org/2000/svg" width="17.862" height="15.003" xmlns:v="https://vecta.io/nano"><path d="M17.863 14.831c-.079.124-.222.192-.368.176q-8.564-.005-17.128 0H.315c-.2 0-.313-.1-.314-.27s.111-.274.311-.277h1.012.21v-.229q0-1.8 0-3.593c0-.3.077-.381.38-.381h2.285c.285 0 .37.086.37.376q0 1.805 0 3.611v.2h.909v-.2q0-2.59 0-5.18c0-.309.069-.379.378-.379h2.233c.34 0 .411.07.411.406q0 2.555 0 5.111v.24h.9v-.211q0-2.363 0-4.727c0-.358.074-.433.426-.433h2.215c.322 0 .405.082.406.4q0 2.372 0 4.744v.218h.9v-.229q0-3.689 0-7.378a1.65 1.65 0 0 1 0-.174c0-.077.032-.151.089-.203s.134-.077.211-.069q1.212 0 2.424 0c.214 0 .3.106.3.357q0 3.741 0 7.483v.225h1.162c.136-.014.267.051.339.167zm-2.06-.383v-7.5h-1.9v7.5zM6.034 9.231v5.214h1.907V9.231zm5.825 5.214v-4.8H9.954v4.8zm-7.859 0v-3.621H2.089v3.621zm.914-11.997c.003.993-.593 1.89-1.51 2.273S1.43 4.895.727 4.194-.189 2.438.189 1.519 1.463.001 2.456 0a2.43 2.43 0 0 1 2.458 2.448zm-.547.019a1.912 1.912 0 1 0-3.824-.035 1.91 1.91 0 0 0 1.893 1.93 1.9 1.9 0 0 0 1.927-1.896zm6.509 2.92a1.17 1.17 0 0 1-.176.253L7.942 7.83a.38.38 0 0 1-.421.043L4.244 6.509c-.101-.055-.226-.041-.313.034Q2.248 7.755.557 8.956l-.114.08a.26.26 0 0 1-.4-.051.28.28 0 0 1 .093-.394l.936-.669 2.722-1.947a.41.41 0 0 1 .449-.054L7.5 7.282a.25.25 0 0 0 .3-.041l2.534-2.024a.3.3 0 0 1 .352-.063c.073.043.119.139.19.233z"/><text font-size="4" font-family="SegoeUI-Semibold, Segoe UI" font-weight="600"><tspan x="1.48" y="4">₹</tspan></text></svg>