<svg xmlns="http://www.w3.org/2000/svg" width="12.609" height="12.609" xmlns:v="https://vecta.io/nano"><path d="M6.3 1.576c.638-.002 1.214.381 1.459.97s.111 1.267-.339 1.719-1.129.587-1.718.343-.974-.819-.974-1.456A1.58 1.58 0 0 1 6.3 1.576m0 7.88c2.128 0 4.571 1.017 4.728 1.576H1.576c.181-.567 2.608-1.576 4.728-1.576M6.3 0C4.559 0 3.148 1.411 3.148 3.152S4.559 6.304 6.3 6.304s3.152-1.411 3.152-3.152A3.15 3.15 0 0 0 6.3 0zm0 7.88C4.2 7.88 0 8.936 0 11.032v1.576h12.609v-1.575c0-2.097-4.201-3.153-6.309-3.153z"/></svg>