<svg xmlns="http://www.w3.org/2000/svg" width="18.127" height="15.006" viewBox="0 0 18.127 15.006">
  <g id="_7.Upload" data-name="7.Upload" transform="translate(0 0)">
    <path id="Path_5961" data-name="Path 5961" d="M13.258,15.632h-2.65V14.118h2.65a3.408,3.408,0,1,0-.943-6.679l-1.007.29.041-1.047a1.425,1.425,0,0,1,.015-.151,3.029,3.029,0,0,0-6-.544l-.1.53-.53.08a3.786,3.786,0,0,0,.572,7.522h.757v1.514H5.307A5.3,5.3,0,0,1,4,5.2a4.543,4.543,0,0,1,8.819.606,4.922,4.922,0,1,1,.438,9.826Z" transform="translate(-0.027 -2.01)" fill="#fff"/>
    <path id="Path_5962" data-name="Path 5962" d="M11.836,14.464,10.1,12.727,8.364,14.464,7.293,13.393,10.1,10.586l2.807,2.807Z" transform="translate(-1.791 -4.092)" fill="#fff"/>
    <rect id="Rectangle_2228" data-name="Rectangle 2228" width="1.652" height="7.434" transform="translate(7.518 7.573)" fill="#fff"/>
  </g>
</svg>
