<svg xmlns="http://www.w3.org/2000/svg" width="358" height="77.486" viewBox="0 0 358 77.486">
  <g id="Group_6415" data-name="Group 6415" transform="translate(-985 -384.001)">
    <path id="Path_5940" data-name="Path 5940" d="M0,0H358V77.486H0Z" transform="translate(985 384.001)" fill="#ffd181"/>
    <g id="Group_6022" data-name="Group 6022" transform="translate(958 -284)">
      <rect id="Rectangle_1729" data-name="Rectangle 1729" width="109" height="27" rx="13.5" transform="translate(258 709)" fill="#008084"/>
      <text id="Subscribe_Now_" data-name="Subscribe Now!" transform="translate(271 728)" fill="#fff" font-size="12" font-family="SegoeUI, Segoe UI"><tspan x="0" y="0">Subscribe Now!</tspan></text>
    </g>
    <text id="Subscribe_to_our_GROWTH_Plan_start_talking_to_our_experts_for" data-name="Subscribe to our GROWTH Plan &amp; 
start talking to our experts for" transform="translate(998 403)" font-size="12" font-family="ProductSans-Regular, Product Sans"><tspan x="0" y="0">Subscribe to our </tspan><tspan y="0" fill="#ff5757" font-family="ProductSans-Bold, Product Sans" font-weight="700">GROWTH</tspan><tspan y="0" xml:space="preserve"> Plan &amp; </tspan><tspan x="0" y="14">start talking to our experts for</tspan></text>
    <text id="Financial_Health_Assessment_FHA_" data-name="Financial Health Assessment (FHA)" transform="translate(1010 432)" font-size="8" font-family="ProductSans-Regular, Product Sans"><tspan x="0" y="0">Financial Health Assessment (FHA)</tspan></text>
    <text id="Existing_Portfolio_Analysis" data-name="Existing Portfolio Analysis" transform="translate(1010 442)" font-size="8" font-family="ProductSans-Regular, Product Sans"><tspan x="0" y="0">Existing Portfolio Analysis</tspan></text>
    <text id="and_many_more_benefits..." data-name="and many more benefits..." transform="translate(1010 452)" font-size="8" font-family="ProductSans-Regular, Product Sans"><tspan x="0" y="0">and many more benefits...</tspan></text>
    <path id="Path_6033" data-name="Path 6033" d="M4,13.77a18.824,18.824,0,0,1,1.991,4.2c.516-.811.959-2.213,4.941-5.974a26.761,26.761,0,0,0-4.794,3.54A15.877,15.877,0,0,0,4,13.77" transform="translate(994.534 424.818)" fill="#ff5757"/>
    <path id="Path_6035" data-name="Path 6035" d="M4,13.77a18.824,18.824,0,0,1,1.991,4.2c.516-.811.959-2.213,4.941-5.974a26.761,26.761,0,0,0-4.794,3.54A15.877,15.877,0,0,0,4,13.77" transform="translate(994.534 434.818)" fill="#ff5757"/>
    <path id="Path_6034" data-name="Path 6034" d="M4,13.77a18.824,18.824,0,0,1,1.991,4.2c.516-.811.959-2.213,4.941-5.974a26.761,26.761,0,0,0-4.794,3.54A15.877,15.877,0,0,0,4,13.77" transform="translate(994.534 414.818)" fill="#ff5757"/>
    <text id="FREE" transform="translate(1257 403)" font-size="14" font-family="ProductSans-Regular, Product Sans"><tspan x="0" y="0">FREE</tspan></text>
    <text id="_1_333_-" data-name="₹ 1,333/-" transform="translate(1249.883 417)" fill="#ff5757" font-size="12" font-family="SegoeUI, Segoe UI"><tspan x="0" y="0">₹</tspan><tspan y="0" xml:space="preserve" font-family="ProductSans-Regular, Product Sans"> 1,333/-</tspan></text>
    <path id="Path_6036" data-name="Path 6036" d="M1257.233,418.023l49.583-11.341" transform="translate(-10.117)" fill="none" stroke="#fff" stroke-width="1"/>
  </g>
</svg>
