<svg xmlns="http://www.w3.org/2000/svg" width="20.275" height="17.972" viewBox="0 0 20.275 17.972">
  <g id="Group_5177" data-name="Group 5177" transform="translate(0)">
    <g id="Group_5176" data-name="Group 5176" transform="translate(0)">
      <path id="Path_805" data-name="Path 805" d="M653.932,758.723H638.958a2.654,2.654,0,0,1-2.651-2.651V747.2a2.654,2.654,0,0,1,2.651-2.651h14.974a2.654,2.654,0,0,1,2.65,2.651v8.871A2.654,2.654,0,0,1,653.932,758.723Zm-14.974-12.657a1.136,1.136,0,0,0-1.135,1.135v8.871a1.136,1.136,0,0,0,1.135,1.135h14.974a1.136,1.136,0,0,0,1.134-1.135V747.2a1.136,1.136,0,0,0-1.134-1.135Z" transform="translate(-636.307 -740.752)" fill="#303030"/>
      <path id="Path_806" data-name="Path 806" d="M651.248,757.917h-1.277v-13.8a1.844,1.844,0,0,0-1.842-1.842h-4.022a1.845,1.845,0,0,0-1.842,1.842v13.8h-1.277v-13.8a3.123,3.123,0,0,1,3.12-3.12h4.022a3.123,3.123,0,0,1,3.12,3.12Z" transform="translate(-635.98 -741)" fill="#303030"/>
    </g>
  </g>
</svg>
