<svg xmlns="http://www.w3.org/2000/svg" width="78.697" height="50.66" viewBox="0 0 78.697 50.66">
  <g id="Group_6039" data-name="Group 6039" transform="translate(-266.404 -722)">
    <ellipse id="freepik--path--inject-2" cx="37.722" cy="2.202" rx="37.722" ry="2.202" transform="translate(268.469 768.256)" fill="#f5f5f5"/>
    <path id="Path_4640" data-name="Path 4640" d="M56.932,34.346l.988-15.731a10.147,10.147,0,0,0-9.49-10.764h0c-.213-.013-.425-.021-.636-.019h0a10.149,10.149,0,0,0-10.131,9.576L36.63,35.779H55.4A1.531,1.531,0,0,0,56.932,34.346Z" transform="translate(284.346 725.843)" fill="#008083"/>
    <path id="Path_4641" data-name="Path 4641" d="M56.966,33.779l.953-15.162A10.149,10.149,0,0,0,48.428,7.853c-.213-.013-.425-.021-.636-.019h0a10.149,10.149,0,0,0-10.131,9.576L36.63,35.783H54.838A2.14,2.14,0,0,0,56.966,33.779Z" transform="translate(284.346 725.844)" opacity="0.1" style="mix-blend-mode: normal;isolation: isolate"/>
    <path id="Path_4642" data-name="Path 4642" d="M54.862,35.78l1.077-17.166a10.15,10.15,0,0,0-9.5-10.764c-.21-.013-.422-.019-.633-.019h0a10.147,10.147,0,0,0-10.131,9.576L34.636,35.781Z" transform="translate(283.369 725.843)" fill="#008083"/>
    <path id="Path_4643" data-name="Path 4643" d="M48.644,29.546H48.9a.3.3,0,0,0,.276-.262l.389-2.691H47.991l.389,2.691A.3.3,0,0,0,48.644,29.546Z" transform="translate(289.91 735.032)" fill="#008083"/>
    <path id="Path_4644" data-name="Path 4644" d="M48.644,29.546H48.9a.3.3,0,0,0,.276-.262l.389-2.691H47.991l.389,2.691A.3.3,0,0,0,48.644,29.546Z" transform="translate(289.91 735.032)" fill="#fff" opacity="0.7" style="mix-blend-mode: normal;isolation: isolate"/>
    <path id="Path_4645" data-name="Path 4645" d="M31.564,29.546H31.8a.279.279,0,0,0,.25-.262l.352-2.691H30.968l.349,2.691A.28.28,0,0,0,31.564,29.546Z" transform="translate(281.572 735.032)" fill="#008083"/>
    <path id="Path_4646" data-name="Path 4646" d="M31.564,29.546H31.8a.279.279,0,0,0,.25-.262l.352-2.691H30.968l.349,2.691A.28.28,0,0,0,31.564,29.546Z" transform="translate(281.572 735.032)" fill="#fff" opacity="0.5" style="mix-blend-mode: normal;isolation: isolate"/>
    <path id="Path_4647" data-name="Path 4647" d="M36.476,29.546h.235a.279.279,0,0,0,.25-.262l.346-2.691h-1.43l.343,2.691A.281.281,0,0,0,36.476,29.546Z" transform="translate(283.977 735.032)" fill="#008083"/>
    <path id="Path_4648" data-name="Path 4648" d="M36.476,29.546h.235a.279.279,0,0,0,.25-.262l.346-2.691h-1.43l.343,2.691A.281.281,0,0,0,36.476,29.546Z" transform="translate(283.977 735.032)" fill="#fff" opacity="0.7" style="mix-blend-mode: normal;isolation: isolate"/>
    <path id="Path_4649" data-name="Path 4649" d="M43.354,29.546h.259a.3.3,0,0,0,.279-.262l.389-2.691H42.7l.389,2.691A.3.3,0,0,0,43.354,29.546Z" transform="translate(287.32 735.032)" fill="#008083"/>
    <path id="Path_4650" data-name="Path 4650" d="M43.354,29.546h.259a.3.3,0,0,0,.279-.262l.389-2.691H42.7l.389,2.691A.3.3,0,0,0,43.354,29.546Z" transform="translate(287.32 735.032)" fill="#fff" opacity="0.5" style="mix-blend-mode: normal;isolation: isolate"/>
    <path id="Path_4651" data-name="Path 4651" d="M40.956,26.268H34.038L33.58,19.6l-.1-1.432h0l-.045-.66a4.282,4.282,0,0,0-.069-.515.6.6,0,0,0-.024-.115.389.389,0,0,0-.021-.082,3.988,3.988,0,0,0-1.052-1.788,3.4,3.4,0,0,0-2.162-.973h6.722a3.376,3.376,0,0,1,2.355.973,3.994,3.994,0,0,1,1.055,1.788.389.389,0,0,1,.021.082,4.282,4.282,0,0,1,.091.63l.045.66h0Z" transform="translate(281.152 728.881)" fill="#008083"/>
    <path id="Path_4652" data-name="Path 4652" d="M40.956,26.268H34.038L33.58,19.6l-.1-1.432h0l-.045-.66a4.282,4.282,0,0,0-.069-.515.6.6,0,0,0-.024-.115.389.389,0,0,0-.021-.082,3.988,3.988,0,0,0-1.052-1.788,3.4,3.4,0,0,0-2.162-.973h6.722a3.376,3.376,0,0,1,2.355.973,3.994,3.994,0,0,1,1.055,1.788.389.389,0,0,1,.021.082,4.282,4.282,0,0,1,.091.63l.045.66h0Z" transform="translate(281.152 728.881)" opacity="0.1" style="mix-blend-mode: normal;isolation: isolate"/>
    <g id="Group_5143" data-name="Group 5143" transform="translate(327.59 751.582)" opacity="0.1">
      <path id="Path_4653" data-name="Path 4653" d="M41.07,19.858h2.778a1.116,1.116,0,0,1,1.223.955v1.639a1.112,1.112,0,0,1-1.223.955H41.07Z" transform="translate(-41.07 -19.852)"/>
    </g>
    <path id="Rectangle_1902" data-name="Rectangle 1902" d="M34.525,19.855H45.317a1.777,1.777,0,0,1,1.777,1.777h0a1.777,1.777,0,0,1-1.777,1.777H34.525a1.777,1.777,0,0,1-1.777-1.777h0A1.777,1.777,0,0,1,34.525,19.855Z" transform="translate(282.444 731.732)" fill="#008083"/>
    <path id="Path_4654" data-name="Path 4654" d="M57.085,17.964a3.942,3.942,0,0,1-3.278,3.891L53.1,31.336a1.447,1.447,0,0,1-1.341,1.423H44.125a1.446,1.446,0,0,0,1.341-1.423l.389-5.065.329-4.428a3.924,3.924,0,0,0,2.831-2.074,1.848,1.848,0,0,0,.1-.212,3.889,3.889,0,0,0,.338-1.6,4.035,4.035,0,0,0-.082-.8c-.021-.106-.049-.21-.077-.313a4.006,4.006,0,0,0-.654-1.283h0a3.949,3.949,0,0,0-3.129-1.545h7.631a3.937,3.937,0,0,1,3.123,1.539h0A3.935,3.935,0,0,1,57.085,17.964Z" transform="translate(288.017 728.872)" fill="#008083"/>
    <path id="Path_4655" data-name="Path 4655" d="M57.085,17.964a3.942,3.942,0,0,1-3.278,3.891L53.1,31.336a1.447,1.447,0,0,1-1.341,1.423H44.125a1.446,1.446,0,0,0,1.341-1.423l.389-5.065.329-4.428a3.924,3.924,0,0,0,2.831-2.074,1.848,1.848,0,0,0,.1-.212,3.889,3.889,0,0,0,.338-1.6,4.035,4.035,0,0,0-.082-.8c-.021-.106-.049-.21-.077-.313a4.006,4.006,0,0,0-.654-1.283h0a3.949,3.949,0,0,0-3.129-1.545h7.631a3.937,3.937,0,0,1,3.123,1.539h0A3.935,3.935,0,0,1,57.085,17.964Z" transform="translate(288.017 728.872)" opacity="0.1" style="mix-blend-mode: normal;isolation: isolate"/>
    <path id="Path_4656" data-name="Path 4656" d="M57.563,17.964A3.874,3.874,0,0,1,54.6,21.855l-.65,9.478a1.389,1.389,0,0,1-1.222,1.424H32.35a1.39,1.39,0,0,1-1.222-1.424l-.651-9.5a3.854,3.854,0,0,1-2.9-3.873,4.194,4.194,0,0,1,.66-2.278,3.694,3.694,0,0,1,1.317-1.247,3.256,3.256,0,0,1,1.6-.419,3.392,3.392,0,0,1,2.358.973,3.988,3.988,0,0,1,1.052,1.788.441.441,0,0,1,.021.085,4.261,4.261,0,0,1,.091.629l.046.66h0l.554,8.113H49.792l.6-8.754a3.43,3.43,0,0,1,1.526-2.756,3.309,3.309,0,0,1,1.85-.718,2.069,2.069,0,0,1,.215-.01,3.243,3.243,0,0,1,1.557.389l.043.024a3.668,3.668,0,0,1,1.238,1.123h0A4.206,4.206,0,0,1,57.563,17.964Z" transform="translate(279.912 728.874)" fill="#008083"/>
    <path id="Path_4657" data-name="Path 4657" d="M49.466,32.753H32.345a1.39,1.39,0,0,1-1.222-1.424l-.651-9.5a3.854,3.854,0,0,1-2.9-3.873,4.181,4.181,0,0,1,.66-2.278,3.694,3.694,0,0,1,1.317-1.247,3.256,3.256,0,0,1,1.6-.419,3.394,3.394,0,0,1,2.358.973,3.988,3.988,0,0,1,1.052,1.788.441.441,0,0,1,.021.085,4.262,4.262,0,0,1,.091.629l.046.66h0l.562,8.118H49.8Z" transform="translate(279.91 728.872)" fill="#fff" opacity="0.1" style="mix-blend-mode: normal;isolation: isolate"/>
    <path id="Path_4658" data-name="Path 4658" d="M45.973,9.3c-.338.2-.648.356-.973.521s-.644.317-.973.469c-.654.3-1.315.584-2,.831s-1.386.477-2.093.661a13.41,13.41,0,0,1-2.25.4l-.161.015h-.076a17.964,17.964,0,0,1-1.907-.331c-.611-.136-1.216-.271-1.815-.425s-1.192-.311-1.788-.483-1.192-.349-1.774-.548l.271-1.35c1.223.077,2.445.2,3.656.32l1.807.18c.6.058,1.2.109,1.737.128H37.4a12.909,12.909,0,0,0,1.8-.456c.609-.2,1.219-.416,1.826-.676s1.213-.529,1.812-.815c.307-.14.6-.288.894-.434s.6-.3.87-.447Z" transform="translate(281.181 725.368)" fill="#263238"/>
    <path id="Path_4659" data-name="Path 4659" d="M45.973,9.3c-.338.2-.648.356-.973.521s-.644.317-.973.469c-.654.3-1.315.584-2,.831s-1.386.477-2.093.661a13.41,13.41,0,0,1-2.25.4l-.161.015h-.076a17.964,17.964,0,0,1-1.907-.331c-.611-.136-1.216-.271-1.815-.425s-1.192-.311-1.788-.483-1.192-.349-1.774-.548l.271-1.35c1.223.077,2.445.2,3.656.32l1.807.18c.6.058,1.2.109,1.737.128H37.4a12.909,12.909,0,0,0,1.8-.456c.609-.2,1.219-.416,1.826-.676s1.213-.529,1.812-.815c.307-.14.6-.288.894-.434s.6-.3.87-.447Z" transform="translate(281.181 725.368)" opacity="0.1" style="mix-blend-mode: normal;isolation: isolate"/>
    <path id="Path_4660" data-name="Path 4660" d="M30.658,7.993a3.347,3.347,0,0,0-.942-.459l-.5,1.967,1.509.635.171-.21a1.34,1.34,0,0,0-.179-1.888Z" transform="translate(280.713 725.697)" fill="#ffc3bd"/>
    <path id="Path_4661" data-name="Path 4661" d="M29.65,9.753l.5-1.967-1.408-.769L28.321,8.4Z" transform="translate(280.276 725.444)" fill="#ffc3bd"/>
    <path id="Path_4662" data-name="Path 4662" d="M37.6,10.8h.077A7.9,7.9,0,0,0,42.184,8.8,1.537,1.537,0,0,0,41.23,7.9C40.141,7.7,38.806,8.483,37.6,10.8Z" transform="translate(284.82 725.864)" opacity="0.2" style="mix-blend-mode: normal;isolation: isolate"/>
    <path id="Path_4663" data-name="Path 4663" d="M38.458,21.785c1.864-5.033.638-9.661.872-12.216a2.917,2.917,0,0,1,2.361-2.6c1.272-.246,2.846-.521,4.346-.724a2.934,2.934,0,0,1,3.307,2.5,2.821,2.821,0,0,1,.027.448,32.644,32.644,0,0,1-2.562,12.6l-3.93-.018Z" transform="translate(285.241 725.051)" fill="#008083"/>
    <path id="Path_4664" data-name="Path 4664" d="M38.458,21.785c1.864-5.033.638-9.661.872-12.216a2.917,2.917,0,0,1,2.361-2.6c1.272-.246,2.846-.521,4.346-.724a2.934,2.934,0,0,1,3.307,2.5,2.821,2.821,0,0,1,.027.448,32.644,32.644,0,0,1-2.562,12.6l-3.93-.018Z" transform="translate(285.241 725.051)" fill="#fff" opacity="0.8" style="mix-blend-mode: normal;isolation: isolate"/>
    <g id="freepik--character-2--inject-102--inject-2" transform="translate(304.494 745.648)">
      <path id="Path_4665" data-name="Path 4665" d="M28.614,28.193l-.5,3.278H29.7l1.043-3.278Z" transform="translate(-24.319 -9.833)" fill="#ffc3bd"/>
      <path id="Path_4666" data-name="Path 4666" d="M29.16,29.917l2.116-.051a.119.119,0,0,1,.131.1v1.569a.356.356,0,0,1-.349.317c-.736,0-1.086-.027-2.016,0a23.711,23.711,0,0,1-2.962-.2c-.752-.128-.548-.834-.209-.846a5.2,5.2,0,0,0,2.95-.778A.571.571,0,0,1,29.16,29.917Z" transform="translate(-25.567 -9.013)" fill="#263238"/>
      <path id="Path_4667" data-name="Path 4667" d="M28.316,29.506l.2-1.313H30.64l-.51,1.639Z" transform="translate(-24.221 -9.833)" opacity="0.2" style="mix-blend-mode: normal;isolation: isolate"/>
      <path id="Path_4668" data-name="Path 4668" d="M42.523,15.876s-12.869.128-13.07,4.2c-.285,5.859-1.274,14.786-1.274,14.786l2.425.667s3.462-8.858,3.6-13.435c3.62-.72,12.926,0,14.019-2.384a6.374,6.374,0,0,0,.41-3.847Z" transform="translate(-24.288 -15.869)" fill="#008083"/>
      <path id="Path_4669" data-name="Path 4669" d="M42.523,15.876s-12.869.128-13.07,4.2c-.285,5.859-1.274,14.786-1.274,14.786l2.425.667s3.462-8.858,3.6-13.435c3.62-.72,12.926,0,14.019-2.384a6.374,6.374,0,0,0,.41-3.847Z" transform="translate(-24.288 -15.869)" opacity="0.6" style="mix-blend-mode: normal;isolation: isolate"/>
      <path id="Path_4670" data-name="Path 4670" d="M36.05,29.081l.858,2.221h1.734l-.6-2.336Z" transform="translate(-20.433 -9.454)" fill="#ffc3bd"/>
      <path id="Path_4671" data-name="Path 4671" d="M38.331,29.951l-.337-1.71-2.193.273L36.363,30Z" transform="translate(-20.555 -9.809)" opacity="0.2" style="mix-blend-mode: normal;isolation: isolate"/>
      <path id="Path_4672" data-name="Path 4672" d="M37.4,30.04h2.215a.136.136,0,0,1,.149.121v0h0l.107,1.66a.343.343,0,0,1-.344.335c-.778-.013-1.14-.057-2.114-.057-.6,0-1.807.058-2.634.058s-.8-.778-.456-.839a5.769,5.769,0,0,0,2.74-1.168A.58.58,0,0,1,37.4,30.04Z" transform="translate(-21.391 -8.928)" fill="#263238"/>
      <path id="Path_4673" data-name="Path 4673" d="M43.874,15.874s-11.673.791-11.385,4.864c.313,4.459,4.988,14.8,4.988,14.8h2.352s-1.557-9.386-2.272-13.927c3.292,0,10.92.5,12.017-1.888a6.381,6.381,0,0,0,.408-3.853Z" transform="translate(-22.179 -15.868)" fill="#008083"/>
      <path id="Path_4674" data-name="Path 4674" d="M43.874,15.874s-11.673.791-11.385,4.864c.313,4.459,4.988,14.8,4.988,14.8h2.352s-1.557-9.386-2.272-13.927c3.292,0,10.92.5,12.017-1.888a6.381,6.381,0,0,0,.408-3.853Z" transform="translate(-22.179 -15.868)" opacity="0.5" style="mix-blend-mode: normal;isolation: isolate"/>
    </g>
    <path id="Path_4675" data-name="Path 4675" d="M41.771,5.636c.268,1.043.352,2.335-1.1,2.869-.4.642-.6,1.318.952,1.077a4.767,4.767,0,0,0,3.129-1.77C43.824,7,43.994,4.505,44.229,3.1Z" transform="translate(286.186 723.525)" fill="#ffc3bd"/>
    <path id="Path_4676" data-name="Path 4676" d="M42.7,6.071a4.334,4.334,0,0,0-3.015,2.475,8.891,8.891,0,0,0-.718,3.954c.012,1.353.165,2.7.128,4.049a11.981,11.981,0,0,1-.953,4.127c0,.349.527.545.973.636a13.569,13.569,0,0,0,1.476-6.2,27.287,27.287,0,0,1,.2-5.065c.265-1.6,2.174-3.678,2.086-3.967Z" transform="translate(285.086 724.98)" fill="#263238"/>
    <path id="Path_4677" data-name="Path 4677" d="M42.417,5.918a1.292,1.292,0,0,1-.985.237,4.422,4.422,0,0,0-.055-.755l1.61-1.323a3.594,3.594,0,0,1,.069.521A1.477,1.477,0,0,1,42.417,5.918Z" transform="translate(286.671 724.004)" opacity="0.3" style="mix-blend-mode: normal;isolation: isolate"/>
    <path id="Path_4678" data-name="Path 4678" d="M40.951.8c-1.7.962-1.719,3.684-1.192,5.253a2.359,2.359,0,0,0,4.13.693c.833-1.052.712-2.114.672-3.944a2.355,2.355,0,0,0-3.61-2Z" transform="translate(285.729 722.22)" fill="#ffc3bd"/>
    <path id="Path_4679" data-name="Path 4679" d="M41.387,4.608a3.623,3.623,0,0,1-1.7.475,2.355,2.355,0,0,0,4.085.584,3.294,3.294,0,0,0,.7-3.02A6.606,6.606,0,0,1,41.387,4.608Z" transform="translate(285.841 723.303)" opacity="0.2" style="mix-blend-mode: normal;isolation: isolate"/>
    <path id="Path_4680" data-name="Path 4680" d="M42.008,1.33a1.555,1.555,0,0,0,.173,1.862c.149.161.343.286.49.447a1.329,1.329,0,0,1,.335.946.972.972,0,0,1,.924-.822L43.237,5.9a2.96,2.96,0,0,0,1.688-2.335C45.074,2.19,43.37-.769,42.008,1.33Z" transform="translate(286.867 722.301)" fill="#263238"/>
    <path id="Path_4681" data-name="Path 4681" d="M39.359,1.716a1.2,1.2,0,0,0-.27.508.471.471,0,0,0,.2.5.706.706,0,0,0,.463.024L41.3,2.478c.894-.149,1.788-.31,2.661-.521a1.33,1.33,0,0,0,.994-.617C45.463.124,43.311-.034,42.592,0A4.672,4.672,0,0,0,39.359,1.716Z" transform="translate(285.544 722.005)" fill="#263238"/>
    <path id="Path_4682" data-name="Path 4682" d="M43.3,2.522c-.51.115-.727.848-.714,1.318,0,.535.389.883.84.56a1.646,1.646,0,0,0,.638-1.028C44.156,2.87,43.812,2.407,43.3,2.522Z" transform="translate(287.263 723.233)" fill="#ffc3bd"/>
    <path id="Path_4683" data-name="Path 4683" d="M40.827,4.094a.634.634,0,0,1-.532.08,2.087,2.087,0,0,0,.231-1.088Z" transform="translate(286.141 723.519)" fill="#ed847e"/>
    <path id="Path_4684" data-name="Path 4684" d="M41.532,2.26a1.038,1.038,0,0,0-.761-.2h0a.085.085,0,0,1-.1-.07.1.1,0,0,1,.074-.1,1.191,1.191,0,0,1,.91.246h0a.088.088,0,0,1,0,.122.1.1,0,0,1-.039.025A.087.087,0,0,1,41.532,2.26Z" transform="translate(286.327 722.927)" fill="#263238"/>
    <path id="Path_4685" data-name="Path 4685" d="M39.573,2.568h0a.084.084,0,0,1-.024-.116.906.906,0,0,1,.667-.457h0a.081.081,0,0,1,.082.077h0a.091.091,0,0,1-.083.1.735.735,0,0,0-.526.368.091.091,0,0,1-.07.045A.072.072,0,0,1,39.573,2.568Z" transform="translate(285.769 722.983)" fill="#263238"/>
    <path id="Path_4686" data-name="Path 4686" d="M40.548,4.565a7.122,7.122,0,0,1,.515.745l.121-.051c.548-.237.7-.568.712-.861a1.255,1.255,0,0,0-.209-.656,2.355,2.355,0,0,1-.955.736C40.618,4.537,40.548,4.565,40.548,4.565Z" transform="translate(286.265 723.84)" fill="#2e353a"/>
    <path id="Path_4687" data-name="Path 4687" d="M40.669,4.478l.08.109a.164.164,0,0,0,.2.052,1.588,1.588,0,0,0,.778-.609.159.159,0,0,0,0-.133,1.359,1.359,0,0,0-.089-.149A2.45,2.45,0,0,1,40.669,4.478Z" transform="translate(286.324 723.843)" fill="#fff"/>
    <path id="Path_4688" data-name="Path 4688" d="M40.972,5.047c.548-.237.7-.568.712-.863a1.6,1.6,0,0,0-.542.411A.777.777,0,0,0,40.972,5.047Z" transform="translate(286.473 724.056)" fill="#de5753"/>
    <path id="Path_4689" data-name="Path 4689" d="M40.022,2.788c-.1.018-.149.149-.121.3s.13.25.225.231.149-.149.121-.3A.26.26,0,0,0,40.022,2.788Z" transform="translate(285.944 723.372)" fill="#263238"/>
    <path id="Path_4690" data-name="Path 4690" d="M41.142,2.608c-.1.018-.149.149-.121.3s.13.25.225.231.149-.149.121-.3S41.238,2.591,41.142,2.608Z" transform="translate(286.493 723.283)" fill="#263238"/>
    <path id="Path_4691" data-name="Path 4691" d="M39.486,3.409l1.228-.276.021.521-1.143.273Z" transform="translate(285.745 723.541)" fill="#fff" opacity="0.9" style="mix-blend-mode: normal;isolation: isolate"/>
    <g id="Group_5144" data-name="Group 5144" transform="translate(326.832 726.18)" opacity="0.8">
      <path id="Path_4692" data-name="Path 4692" d="M40.561,3.214l.149.478,1.576-.338L42.192,2.8Z" transform="translate(-40.561 -2.801)" fill="#fff" opacity="0.9" style="mix-blend-mode: normal;isolation: isolate"/>
    </g>
    <path id="Path_4693" data-name="Path 4693" d="M40.317,3.348l-.007-.192.374-.082.055.18Z" transform="translate(286.148 723.512)" fill="#263238"/>
    <path id="Path_4694" data-name="Path 4694" d="M40.015,21.68s2.215.858,2.723,1.025a6.39,6.39,0,0,0,1.824.419,2.234,2.234,0,0,0,1.725-.644,4.261,4.261,0,0,0,.833-2.224q.606-3.538,1.217-7.078A31,31,0,0,0,49,9.6a4.1,4.1,0,0,0-2.846-3.468,1.773,1.773,0,0,0-2.184.584,6.523,6.523,0,0,0-1.8,3.547,37.573,37.573,0,0,0-.547,5.214A14.4,14.4,0,0,1,40.015,21.68Z" transform="translate(286.004 724.932)" fill="#263238"/>
    <path id="Path_4695" data-name="Path 4695" d="M49.367,8.283a27.147,27.147,0,0,1-1.126,7.531c-.93,3-3.485,1.381-3.854,1.242a20.029,20.029,0,0,1-1.913-1.012,29.073,29.073,0,0,1-3.427-1.8l.623-1.229c1.213.413,4.642,1.3,5.214,1.438.246.064,1.2.565,1.192-.1.134-.22.32-4.5.731-6.016a1.281,1.281,0,0,1,.24-.465l.037-.046a1.311,1.311,0,0,1,2.284.447Z" transform="translate(285.529 725.601)" fill="#263238"/>
    <path id="Path_4696" data-name="Path 4696" d="M49.367,8.283a27.147,27.147,0,0,1-1.126,7.531c-.93,3-3.485,1.381-3.854,1.242a20.029,20.029,0,0,1-1.913-1.012,29.073,29.073,0,0,1-3.427-1.8l.623-1.229c1.213.413,4.642,1.3,5.214,1.438.246.064,1.2.565,1.192-.1.134-.22.32-4.5.731-6.016a1.281,1.281,0,0,1,.24-.465l.037-.046a1.311,1.311,0,0,1,2.284.447Z" transform="translate(285.529 725.601)" fill="#fff" opacity="0.1" style="mix-blend-mode: normal;isolation: isolate"/>
    <path id="Path_4697" data-name="Path 4697" d="M41.253,15.639H35.492l-.657-7.513h5.758Z" transform="translate(283.466 725.987)" fill="#263238"/>
    <path id="Path_4698" data-name="Path 4698" d="M41.253,15.639H35.492l-.657-7.513h5.758Z" transform="translate(283.466 725.987)" fill="#fff" opacity="0.5" style="mix-blend-mode: normal;isolation: isolate"/>
    <path id="Path_4699" data-name="Path 4699" d="M41.115,15.615H35.357L34.7,8.1h5.758Z" transform="translate(283.4 725.975)" fill="#008083"/>
    <path id="Path_4700" data-name="Path 4700" d="M41.115,15.615H35.357L34.7,8.1h5.758Z" transform="translate(283.4 725.975)" fill="#fff" opacity="0.8" style="mix-blend-mode: normal;isolation: isolate"/>
    <path id="Path_4701" data-name="Path 4701" d="M38.3,8.725H35.874l-.082-.94h2.413Z" transform="translate(283.935 725.82)" fill="#008083"/>
    <path id="Path_4702" data-name="Path 4702" d="M35.792,7.808l.237-.082h2.507l.034.4-.186.216-.012.326-.077.08-.083-.94Z" transform="translate(283.935 725.791)" fill="#008083"/>
    <path id="Path_4703" data-name="Path 4703" d="M35.792,7.808l.237-.082h2.507l.034.4-.186.216-.012.326-.077.08-.083-.94Z" transform="translate(283.935 725.791)" opacity="0.5" style="mix-blend-mode: normal;isolation: isolate"/>
    <path id="Path_4704" data-name="Path 4704" d="M40.423,11.677l.13.7c-.311.812-2.095.6-2.095.6V10.9l1.573.366A.523.523,0,0,1,40.423,11.677Z" transform="translate(285.241 727.346)" fill="#ffc3bd"/>
    <path id="Path_4705" data-name="Path 4705" d="M39.092,10.9l.007,2.086-1.579.039L37.158,11.2Z" transform="translate(284.604 727.346)" fill="#ffc3bd"/>
    <path id="Path_4706" data-name="Path 4706" d="M42.611,26.264l.6-8.754a3.429,3.429,0,0,1,1.526-2.756,3.309,3.309,0,0,1,1.85-.718,1.722,1.722,0,0,1,.215-.009,3.243,3.243,0,0,1,1.557.389.244.244,0,0,1,.043.024,3.668,3.668,0,0,1,1.238,1.123h0a4.21,4.21,0,0,1,.745,2.4,3.874,3.874,0,0,1-2.965,3.891l-.651,9.471a1.389,1.389,0,0,1-1.222,1.424H42.268Z" transform="translate(287.107 728.877)" fill="#008083"/>
    <path id="Path_4707" data-name="Path 4707" d="M42.611,26.264l.6-8.754a3.429,3.429,0,0,1,1.526-2.756,3.309,3.309,0,0,1,1.85-.718,1.722,1.722,0,0,1,.215-.009,3.243,3.243,0,0,1,1.557.389.244.244,0,0,1,.043.024,3.668,3.668,0,0,1,1.238,1.123h0a4.21,4.21,0,0,1,.745,2.4,3.874,3.874,0,0,1-2.965,3.891l-.651,9.471a1.389,1.389,0,0,1-1.222,1.424H42.268Z" transform="translate(287.107 728.877)" fill="#fff" opacity="0.1" style="mix-blend-mode: normal;isolation: isolate"/>
    <path id="Path_4708" data-name="Path 4708" d="M12.783,20.486H9.941a1.14,1.14,0,0,0-1.253.973V23.14a1.136,1.136,0,0,0,1.253.973h2.843Z" transform="translate(270.66 732.038)" fill="#008083"/>
    <path id="Path_4709" data-name="Path 4709" d="M2.9,34.516,1.914,18.785A10.146,10.146,0,0,1,11.4,8.022h0c.213-.013.425-.021.636-.019h0A10.147,10.147,0,0,1,22.171,17.58L23.2,35.95H4.423A1.531,1.531,0,0,1,2.9,34.516Z" transform="translate(267.332 725.927)" fill="#008083"/>
    <path id="Path_4710" data-name="Path 4710" d="M2.866,33.946,1.913,18.784A10.146,10.146,0,0,1,11.4,8.021h0c.213-.013.425-.021.636-.019h0A10.147,10.147,0,0,1,22.17,17.579L23.2,35.951H5.007A2.14,2.14,0,0,1,2.866,33.946Z" transform="translate(267.331 725.926)" opacity="0.1" style="mix-blend-mode: normal;isolation: isolate"/>
    <path id="Path_4711" data-name="Path 4711" d="M4.976,35.951,3.9,18.784A10.146,10.146,0,0,1,13.387,8.021h0c.213-.013.426-.021.639-.019h0a10.149,10.149,0,0,1,10.131,9.576L25.2,35.952Z" transform="translate(268.304 725.926)" fill="#008083"/>
    <path id="Path_4712" data-name="Path 4712" d="M4.7,29.718H4.444a.3.3,0,0,1-.279-.265l-.389-2.691H5.355l-.389,2.691A.3.3,0,0,1,4.7,29.718Z" transform="translate(268.254 735.115)" fill="#008083"/>
    <path id="Path_4713" data-name="Path 4713" d="M4.7,29.718H4.444a.3.3,0,0,1-.279-.265l-.389-2.691H5.355l-.389,2.691A.3.3,0,0,1,4.7,29.718Z" transform="translate(268.254 735.115)" fill="#fff" opacity="0.7" style="mix-blend-mode: normal;isolation: isolate"/>
    <path id="Path_4714" data-name="Path 4714" d="M21.733,29.718H21.5a.282.282,0,0,1-.25-.265L20.9,26.762h1.43l-.346,2.691A.281.281,0,0,1,21.733,29.718Z" transform="translate(276.642 735.115)" fill="#008083"/>
    <path id="Path_4715" data-name="Path 4715" d="M21.733,29.718H21.5a.282.282,0,0,1-.25-.265L20.9,26.762h1.43l-.346,2.691A.281.281,0,0,1,21.733,29.718Z" transform="translate(276.642 735.115)" fill="#fff" opacity="0.5" style="mix-blend-mode: normal;isolation: isolate"/>
    <path id="Path_4716" data-name="Path 4716" d="M16.824,29.718h-.237a.282.282,0,0,1-.25-.265l-.349-2.691H17.42l-.346,2.691A.285.285,0,0,1,16.824,29.718Z" transform="translate(274.235 735.115)" fill="#008083"/>
    <path id="Path_4717" data-name="Path 4717" d="M16.824,29.718h-.237a.282.282,0,0,1-.25-.265l-.349-2.691H17.42l-.346,2.691A.285.285,0,0,1,16.824,29.718Z" transform="translate(274.235 735.115)" fill="#fff" opacity="0.7" style="mix-blend-mode: normal;isolation: isolate"/>
    <path id="Path_4718" data-name="Path 4718" d="M9.992,29.718H9.732a.3.3,0,0,1-.279-.265l-.389-2.691h1.578l-.389,2.691A.3.3,0,0,1,9.992,29.718Z" transform="translate(270.844 735.115)" fill="#008083"/>
    <path id="Path_4719" data-name="Path 4719" d="M9.992,29.718H9.732a.3.3,0,0,1-.279-.265l-.389-2.691h1.578l-.389,2.691A.3.3,0,0,1,9.992,29.718Z" transform="translate(270.844 735.115)" fill="#fff" opacity="0.5" style="mix-blend-mode: normal;isolation: isolate"/>
    <path id="Path_4720" data-name="Path 4720" d="M15.437,26.431h6.919l.457-6.664.1-1.432h0l.046-.66a4.6,4.6,0,0,1,.066-.515.592.592,0,0,1,.025-.113.4.4,0,0,1,.021-.083,3.988,3.988,0,0,1,1.052-1.788,3.4,3.4,0,0,1,2.16-.973H19.558a3.383,3.383,0,0,0-2.358.973,3.988,3.988,0,0,0-1.052,1.788.4.4,0,0,0-.021.083,4.262,4.262,0,0,0-.091.629l-.045.66h0Z" transform="translate(273.965 728.963)" fill="#008083"/>
    <path id="Path_4721" data-name="Path 4721" d="M15.437,26.431h6.919l.457-6.664.1-1.432h0l.046-.66a4.6,4.6,0,0,1,.066-.515.592.592,0,0,1,.025-.113.4.4,0,0,1,.021-.083,3.988,3.988,0,0,1,1.052-1.788,3.4,3.4,0,0,1,2.16-.973H19.558a3.383,3.383,0,0,0-2.358.973,3.988,3.988,0,0,0-1.052,1.788.4.4,0,0,0-.021.083,4.262,4.262,0,0,0-.091.629l-.045.66h0Z" transform="translate(273.965 728.963)" opacity="0.1" style="mix-blend-mode: normal;isolation: isolate"/>
    <g id="Group_5145" data-name="Group 5145" transform="translate(279.918 751.835)" opacity="0.1">
      <path id="Path_4722" data-name="Path 4722" d="M13.073,20.028h-2.78a1.113,1.113,0,0,0-1.222.955v1.639a1.113,1.113,0,0,0,1.222.955h2.78Z" transform="translate(-9.071 -20.022)"/>
    </g>
    <path id="Rectangle_1903" data-name="Rectangle 1903" d="M12.227,20.025H23.019A1.777,1.777,0,0,1,24.8,21.8h0a1.777,1.777,0,0,1-1.777,1.777H12.227A1.777,1.777,0,0,1,10.45,21.8h0A1.777,1.777,0,0,1,12.227,20.025Z" transform="translate(271.523 731.815)" fill="#008083"/>
    <path id="Path_4723" data-name="Path 4723" d="M0,18.133a3.942,3.942,0,0,0,3.278,3.891L4,31.5a1.446,1.446,0,0,0,1.341,1.424h7.625A1.446,1.446,0,0,1,11.62,31.5l-.389-5.065L10.9,22.012a3.942,3.942,0,0,1-2.823-2.075c-.037-.07-.07-.149-.1-.215a3.856,3.856,0,0,1-.341-1.6,3.958,3.958,0,0,1,.083-.806c.021-.106.049-.21.076-.311a4.064,4.064,0,0,1,.656-1.284h0A3.945,3.945,0,0,1,9.807,14.6a3.905,3.905,0,0,1,1.751-.416H3.942A3.952,3.952,0,0,0,.813,15.724h0A3.933,3.933,0,0,0,0,18.133Z" transform="translate(266.404 728.955)" fill="#008083"/>
    <path id="Path_4724" data-name="Path 4724" d="M0,18.133a3.942,3.942,0,0,0,3.278,3.891L4,31.5a1.446,1.446,0,0,0,1.341,1.424h7.625A1.446,1.446,0,0,1,11.62,31.5l-.389-5.065L10.9,22.012a3.942,3.942,0,0,1-2.823-2.075c-.037-.07-.07-.149-.1-.215a3.856,3.856,0,0,1-.341-1.6,3.958,3.958,0,0,1,.083-.806c.021-.106.049-.21.076-.311a4.064,4.064,0,0,1,.656-1.284h0A3.945,3.945,0,0,1,9.807,14.6a3.905,3.905,0,0,1,1.751-.416H3.942A3.952,3.952,0,0,0,.813,15.724h0A3.933,3.933,0,0,0,0,18.133Z" transform="translate(266.404 728.955)" opacity="0.1" style="mix-blend-mode: normal;isolation: isolate"/>
    <path id="Path_4725" data-name="Path 4725" d="M5.123,18.13a3.874,3.874,0,0,0,2.965,3.891l.65,9.481a1.388,1.388,0,0,0,1.222,1.424H30.336A1.389,1.389,0,0,0,31.558,31.5l.651-9.495A3.859,3.859,0,0,0,35.1,18.135a4.2,4.2,0,0,0-.657-2.278,3.7,3.7,0,0,0-1.318-1.247,3.268,3.268,0,0,0-1.6-.416,3.383,3.383,0,0,0-2.358.973,3.994,3.994,0,0,0-1.055,1.788.522.522,0,0,0-.019.083,4.073,4.073,0,0,0-.091.629l-.046.66h0l-.554,8.1H12.888l-.6-8.754a3.429,3.429,0,0,0-1.526-2.756,3.335,3.335,0,0,0-1.85-.718H8.7a3.243,3.243,0,0,0-1.557.389.244.244,0,0,0-.045.021,3.713,3.713,0,0,0-1.238,1.123h0A4.187,4.187,0,0,0,5.123,18.13Z" transform="translate(268.913 728.959)" fill="#008083"/>
    <path id="Path_4726" data-name="Path 4726" d="M10.668,32.921H27.789A1.389,1.389,0,0,0,29.011,31.5L29.662,22a3.859,3.859,0,0,0,2.895-3.873,4.2,4.2,0,0,0-.657-2.278A3.7,3.7,0,0,0,30.581,14.6a3.268,3.268,0,0,0-1.6-.416,3.383,3.383,0,0,0-2.358.973,3.994,3.994,0,0,0-1.055,1.788.523.523,0,0,0-.019.083,4.073,4.073,0,0,0-.091.629l-.046.66h0l-.554,8.1H10.333Z" transform="translate(271.465 728.956)" fill="#fff" opacity="0.1" style="mix-blend-mode: normal;isolation: isolate"/>
    <path id="Path_4727" data-name="Path 4727" d="M14.055,30.291l1.66.459,1.49-3.9-1.66-.459Z" transform="translate(273.289 734.933)" fill="#ffc3bd"/>
    <path id="Path_4728" data-name="Path 4728" d="M16.647,29.188a.868.868,0,0,0-.532-.323l-1.7-.332a.158.158,0,0,0-.2.106l-.527,1.557a.342.342,0,0,0,.206.435h.013a11.99,11.99,0,0,0,2.041.355,13.415,13.415,0,0,0,2.735.486c.852-.034.851-.877.492-.94A4.354,4.354,0,0,1,16.647,29.188Z" transform="translate(273.1 735.979)" fill="#263238"/>
    <g id="Group_5146" data-name="Group 5146" transform="translate(288.066 761.323)" opacity="0.2">
      <path id="Path_4729" data-name="Path 4729" d="M16.968,26.852,16.2,28.863,14.54,28.4l.767-2.01Z" transform="translate(-14.54 -26.39)"/>
    </g>
    <path id="Path_4730" data-name="Path 4730" d="M14.047,17.288s9.992-.055,9.684,3.292a29.553,29.553,0,0,1-2.139,6.931c-1.228,3.325-2.291,6.226-2.291,6.226l-2.276-.788s2.044-9.615,3.427-10.6H12c-2.8,0-4-3.07-1.283-6.65A5.972,5.972,0,0,1,14.047,17.288Z" transform="translate(270.905 729.696)" fill="#008083"/>
    <path id="Path_4731" data-name="Path 4731" d="M14.048,17.286s9.992-.055,9.684,3.292c.149,2.086-4.434,13.152-4.434,13.152l-2.276-.788s2.044-9.615,3.427-10.6H12c-2.8,0-4-3.07-1.283-6.65A6,6,0,0,1,14.048,17.286Z" transform="translate(270.905 729.693)" opacity="0.6" style="mix-blend-mode: normal;isolation: isolate"/>
    <path id="Path_4732" data-name="Path 4732" d="M19.546,14.79c-1.229,1.123-3.644-1.535-4.033-1.85-.833-.681-3.278-2.965-3.152-3.759.389-2.335,4.218.973,5.325,3.252Z" transform="translate(272.456 726.112)" fill="#263238"/>
    <path id="Path_4733" data-name="Path 4733" d="M10.754,7.977c-.617.13-1.284-.091-1.718.366a2.885,2.885,0,0,0-.676,1.725,11.506,11.506,0,0,0,.136,2.619q.194,1.582.407,3.161a9.4,9.4,0,0,1-.1,2.6h0a.42.42,0,0,0,.237.447s4.784.164,6.175.11c.745-.027.231-1.973.459-3.112.051-.253.545-1.292.618-1.557a5.991,5.991,0,0,0-.2-3.379c-.231-.916-.326-2.235-.794-2.335A10.657,10.657,0,0,0,10.754,7.977Z" transform="translate(270.488 725.899)" fill="#008083"/>
    <path id="Path_4734" data-name="Path 4734" d="M10.754,7.977c-.617.13-1.284-.091-1.718.366a2.885,2.885,0,0,0-.676,1.725,11.506,11.506,0,0,0,.136,2.619q.194,1.582.407,3.161a9.4,9.4,0,0,1-.1,2.6h0a.42.42,0,0,0,.237.447s4.784.164,6.175.11c.745-.027.231-1.973.459-3.112.051-.253.545-1.292.618-1.557a5.991,5.991,0,0,0-.2-3.379c-.231-.916-.326-2.235-.794-2.335A10.657,10.657,0,0,0,10.754,7.977Z" transform="translate(270.488 725.899)" fill="#fff" opacity="0.8" style="mix-blend-mode: normal;isolation: isolate"/>
    <path id="Path_4735" data-name="Path 4735" d="M10.209,8.789c-.064-.1-1.751-1.514-2.053.122a9.275,9.275,0,0,0,.456,4.52s.2,2.466.918,2.711,1.4.307,1.639-.115a2.5,2.5,0,0,0,.241-1.052S11.328,10.485,10.209,8.789Z" transform="translate(270.35 725.987)" fill="#263238"/>
    <path id="Path_4736" data-name="Path 4736" d="M10.425,5.869c.173,1.043.319,2.965-.431,3.64a9.838,9.838,0,0,1,3.033,2.632,1.585,1.585,0,0,0,.556-1.77,1.546,1.546,0,0,0-.778-.93c-.711-.389-.642-1.125-.447-1.813Z" transform="translate(271.299 724.881)" fill="#e8bfbf"/>
    <path id="Path_4737" data-name="Path 4737" d="M10.443,7.064l.682.262a2.244,2.244,0,0,0,.918.149h0a1.449,1.449,0,0,0,0,.65,1.31,1.31,0,0,1-1.362-.437A2.235,2.235,0,0,1,10.443,7.064Z" transform="translate(271.52 725.467)" opacity="0.2" style="mix-blend-mode: normal;isolation: isolate"/>
    <path id="Path_4738" data-name="Path 4738" d="M22.264,28.291h1.859l-1.947-4.663-1.26,2.141Z" transform="translate(276.649 733.58)" fill="#ffc3bd"/>
    <path id="Path_4739" data-name="Path 4739" d="M23.949,26.626l-2.181-.5a.149.149,0,0,0-.183.1l-.609,1.678a.335.335,0,0,0,.229.414h0c.764.159,1.14.2,2.1.414.584.134,2.086.527,2.9.712s1.029-.612.7-.764a6.952,6.952,0,0,1-2.665-1.865A.52.52,0,0,0,23.949,26.626Z" transform="translate(276.672 734.802)" fill="#263238"/>
    <g id="Group_5147" data-name="Group 5147" transform="translate(297.565 757.208)" opacity="0.2">
      <path id="Path_4740" data-name="Path 4740" d="M22.176,23.628,23,25.614l-1.673.934-.416-.778Z" transform="translate(-20.916 -23.628)"/>
    </g>
    <path id="Path_4741" data-name="Path 4741" d="M8.69,15.336l-.2.635c-.025.049.031.1.113.1l7.2.218c.066,0,.119-.027.125-.069l.083-.638c0-.043-.051-.082-.119-.085l-7.081-.215A.132.132,0,0,0,8.69,15.336Z" transform="translate(270.562 729.493)" fill="#263238"/>
    <path id="Path_4742" data-name="Path 4742" d="M17.986,20.676a21.772,21.772,0,0,1-6.333,2.017c-2.8,0-5.281-2.02-2.634-6.615,1.666,0,4.559.046,4.559.046a29.8,29.8,0,0,1,9.413-1.1A4.469,4.469,0,0,1,26.864,18.6c1,5.065,2.551,10.528,2.551,10.528l-1.99,1.362s-3.1-6.524-4.89-11.7C21.585,19.093,19.848,19.883,17.986,20.676Z" transform="translate(270.27 729.353)" fill="#008083"/>
    <path id="Path_4743" data-name="Path 4743" d="M26.868,18.6a4.469,4.469,0,0,0-3.873-3.576,30.108,30.108,0,0,0-9.413,1.1s-2.893-.052-4.559-.046c-2.691,4.575-.164,6.615,2.634,6.615a21.772,21.772,0,0,0,6.333-2.017c1.862-.794,3.6-1.585,4.545-1.889,1.788,5.179,4.89,11.7,4.89,11.7l1.99-1.362S27.872,23.658,26.868,18.6Z" transform="translate(270.262 729.352)" opacity="0.5" style="mix-blend-mode: normal;isolation: isolate"/>
    <path id="Path_4744" data-name="Path 4744" d="M19.553,19.683a18.814,18.814,0,0,1-.3,1.937.458.458,0,0,1-.025-.063c-.007-.022,0-.01,0-.015a.29.29,0,0,0-.025-.063c-.529-1.315-1.043-2.664-1.49-3.933h.013C18.873,18.027,19.646,18.711,19.553,19.683Z" transform="translate(275.081 730.601)" fill="#008083"/>
    <path id="Path_4745" data-name="Path 4745" d="M19.553,19.683a18.814,18.814,0,0,1-.3,1.937.458.458,0,0,1-.025-.063c-.007-.022,0-.01,0-.015a.29.29,0,0,0-.025-.063c-.529-1.315-1.043-2.664-1.49-3.933h.013C18.873,18.027,19.646,18.711,19.553,19.683Z" transform="translate(275.081 730.601)" opacity="0.6" style="mix-blend-mode: normal;isolation: isolate"/>
    <path id="Path_4746" data-name="Path 4746" d="M9.473,6.248c.584,1.639.8,2.352,1.891,2.969a2.234,2.234,0,0,0,3.453-1.946c-.074-1.6-1.018-4.022-2.847-4.219a2.383,2.383,0,0,0-2.5,3.188Z" transform="translate(270.973 723.495)" fill="#e8bfbf"/>
    <path id="Path_4747" data-name="Path 4747" d="M11.413,5.149c.04.149.149.225.234.2s.125-.149.089-.3-.149-.225-.234-.2S11.375,5.013,11.413,5.149Z" transform="translate(271.987 724.38)" fill="#263238"/>
    <path id="Path_4748" data-name="Path 4748" d="M12.441,4.825c.04.149.149.228.234.2s.125-.149.089-.3-.149-.225-.231-.2A.234.234,0,0,0,12.441,4.825Z" transform="translate(272.488 724.221)" fill="#263238"/>
    <path id="Path_4749" data-name="Path 4749" d="M12.471,4.607l.3-.2S12.675,4.717,12.471,4.607Z" transform="translate(272.513 724.168)" fill="#263238"/>
    <path id="Path_4750" data-name="Path 4750" d="M12.068,4.934a3.762,3.762,0,0,0,.736.731.6.6,0,0,1-.462.223Z" transform="translate(272.315 724.423)" fill="#ed847e"/>
    <path id="Path_4751" data-name="Path 4751" d="M8.971,6.773a5.053,5.053,0,0,1,.271.916,1.271,1.271,0,0,1-1.08,1.323,1.219,1.219,0,0,0,1.406-.636,1.66,1.66,0,0,1-.822.907A1.765,1.765,0,0,0,10.157,8.6c-.091.237-.2.472-.276.711a3.056,3.056,0,0,0,1.1-1.152.584.584,0,0,0,.045-.618c-.136-.171-.352-.159-.551-.164s-.438-.051-.51-.235a.473.473,0,0,1,.2-.5,1.018,1.018,0,0,0,.369-.428.8.8,0,0,0-.027-.4q-.134-.536-.265-1.076a1.122,1.122,0,0,0-.134-.361c-.389-.584-.822.273-.973.562A2.551,2.551,0,0,0,8.971,6.773Z" transform="translate(270.402 724.057)" fill="#263238"/>
    <path id="Path_4752" data-name="Path 4752" d="M9.4,6.609a1.377,1.377,0,0,0,.9.523c.477.058.644-.389.447-.8-.173-.374-.629-.851-1.077-.724a.614.614,0,0,0-.273,1Z" transform="translate(270.931 724.745)" fill="#e8bfbf"/>
    <path id="Path_4753" data-name="Path 4753" d="M11.707,4.293a.09.09,0,0,1-.072.074,1.047,1.047,0,0,0-.615.547.09.09,0,0,1-.116.045.088.088,0,0,1-.043-.115,1.233,1.233,0,0,1,.745-.65.09.09,0,0,1,.1.07A.046.046,0,0,1,11.707,4.293Z" transform="translate(271.72 724.061)" fill="#263238"/>
    <path id="Path_4754" data-name="Path 4754" d="M12.17,4a.1.1,0,0,0-.074.019c-.021.024-.094.064-.052.085a1.616,1.616,0,0,0,.819.279c.043,0,.149-.045.122-.076a.125.125,0,0,0-.116-.037c-.2.027-.469-.161-.656-.259A.141.141,0,0,0,12.17,4Z" transform="translate(272.297 723.965)" fill="#263238"/>
    <path id="Path_4755" data-name="Path 4755" d="M11.445,4.929l.3-.2S11.651,5.044,11.445,4.929Z" transform="translate(272.01 724.325)" fill="#263238"/>
    <path id="Path_4756" data-name="Path 4756" d="M12.9,2.609a4.162,4.162,0,0,0-1.423-.122,3.362,3.362,0,0,0-1.885.651A3.072,3.072,0,0,0,8.558,4.777a4.753,4.753,0,0,0-.051,1.961,1.274,1.274,0,0,0,.377.821,4.943,4.943,0,0,1,.177-1.032,1.684,1.684,0,0,1,.584-.858.922.922,0,0,0,.311-.276,1.154,1.154,0,0,0,.07-.355,1.1,1.1,0,0,1,.456-.667,3.746,3.746,0,0,1,.733-.377,17.177,17.177,0,0,0,2.467-1.029A3.638,3.638,0,0,0,12.9,2.609Z" transform="translate(270.533 723.217)" fill="#263238"/>
    <path id="Path_4757" data-name="Path 4757" d="M9.265,5.282a1.292,1.292,0,0,0,.694.434,2.782,2.782,0,0,0,1.178-.03c.049-.083-.24-.991-.566-1.043a2.208,2.208,0,0,0,.79.49,2.569,2.569,0,0,0,1.012,0c.171-.039-.212-.745-.49-.949a4.549,4.549,0,0,1,2.335.973,3.279,3.279,0,0,1,.84,2.424,1.208,1.208,0,0,0,.447-.956A3.575,3.575,0,0,1,15.257,9.4a3.251,3.251,0,0,0,.991-3.138,5.079,5.079,0,0,0-1.87-2.831,4.6,4.6,0,0,0-2.691-1.1C10.4,2.289,8,3.759,9.265,5.282Z" transform="translate(270.767 723.148)" fill="#263238"/>
    <path id="Path_4758" data-name="Path 4758" d="M10.714,8.582c0-.064.015-.149.024-.24a.834.834,0,0,0-.676-.894h0A.344.344,0,0,1,9.8,7.224c-.149-.437-.209-.568-.352-1a3.927,3.927,0,0,0-1.265.094,3.537,3.537,0,0,0-.024,1.49.662.662,0,0,0,.125.3A5.266,5.266,0,0,0,9.5,8.854C9.846,8.973,10.337,8.617,10.714,8.582Z" transform="translate(270.366 725.049)" fill="#e8bfbf"/>
    <path id="Path_4759" data-name="Path 4759" d="M9.214,8.135s-1.073,6.916.033,7.976a.979.979,0,0,0,1.381.092A1.035,1.035,0,0,0,10.8,16a1.381,1.381,0,0,0,.338-1.067l-.752-7.086a.844.844,0,0,0-1.164.268Z" transform="translate(270.688 725.788)" fill="#e8bfbf"/>
    <path id="Path_4760" data-name="Path 4760" d="M17.13,14.143a2.932,2.932,0,0,0,.907-1.456,2.851,2.851,0,0,0,.039-.6,33.363,33.363,0,0,0-.364-3.55L16.695,8.2s-.317,1.751-.389,2.708c-.013.2-.034.411-.058.647-.045.428-.1.894-.149,1.29Z" transform="translate(274.29 726.026)" fill="#e8bfbf"/>
    <path id="Path_4761" data-name="Path 4761" d="M17.805,13.9c.313-.286.366-.632.527-1.362.149-.7-.019-1.557-.164-1.426a.143.143,0,0,0-.039.06c-.247.584-1.208.072-1.481-.22a1.946,1.946,0,0,1-.307-.374.314.314,0,0,1,0-.355c-.3-.122-.533,1.043-.389,1.327l.074.216a3.014,3.014,0,0,0,.533.961l.535.644Z" transform="translate(274.197 727.008)" fill="#263238"/>
    <path id="Path_4762" data-name="Path 4762" d="M16.52,8.883,16.4,7.1a7.076,7.076,0,0,0,.973.38c.495.17,1.168-.128,1.012.2a13.243,13.243,0,0,1-.828,1.393Z" transform="translate(274.437 725.486)" fill="#e8bfbf"/>
    <path id="Path_4763" data-name="Path 4763" d="M16.4,7.69l.763-1.78,1,.609A5.09,5.09,0,0,1,18.4,8.27,3.135,3.135,0,0,1,16.4,7.69Z" transform="translate(274.437 724.901)" fill="#e8bfbf"/>
    <path id="Path_4764" data-name="Path 4764" d="M11.991,6.271c.025.127.116.216.2.2s.127-.134.1-.261-.116-.216-.2-.2S11.965,6.152,11.991,6.271Z" transform="translate(272.274 724.949)" fill="#263238"/>
    <path id="Path_4765" data-name="Path 4765" d="M12.89,26.431l-.6-8.754a3.429,3.429,0,0,0-1.526-2.756,3.335,3.335,0,0,0-1.85-.718H8.7a3.243,3.243,0,0,0-1.557.389.244.244,0,0,0-.045.021,3.723,3.723,0,0,0-1.238,1.122h0a4.192,4.192,0,0,0-.745,2.4,3.874,3.874,0,0,0,2.965,3.891l.65,9.481A1.388,1.388,0,0,0,9.95,32.933h3.263Z" transform="translate(268.908 728.963)" fill="#008083"/>
    <path id="Path_4766" data-name="Path 4766" d="M12.89,26.431l-.6-8.754a3.429,3.429,0,0,0-1.526-2.756,3.335,3.335,0,0,0-1.85-.718H8.7a3.243,3.243,0,0,0-1.557.389.244.244,0,0,0-.045.021,3.723,3.723,0,0,0-1.238,1.122h0a4.192,4.192,0,0,0-.745,2.4,3.874,3.874,0,0,0,2.965,3.891l.65,9.481A1.388,1.388,0,0,0,9.95,32.933h3.263Z" transform="translate(268.908 728.963)" fill="#fff" opacity="0.1" style="mix-blend-mode: normal;isolation: isolate"/>
    <ellipse id="Ellipse_395" data-name="Ellipse 395" cx="6.525" cy="1.669" rx="6.525" ry="1.669" transform="translate(298.529 768.051)" fill="#263238"/>
    <ellipse id="Ellipse_396" data-name="Ellipse 396" cx="6.525" cy="1.391" rx="6.525" ry="1.391" transform="translate(298.529 768.051)" fill="#fff" opacity="0.3" style="mix-blend-mode: normal;isolation: isolate"/>
    <path id="Path_4767" data-name="Path 4767" d="M27.068,36.253H25.99L24.745,22.825h3.568Z" transform="translate(278.525 733.187)" fill="#263238"/>
    <path id="Path_4768" data-name="Path 4768" d="M28.316,23.057c0,.389-.8.708-1.788.708s-1.788-.317-1.788-.708.8-.708,1.788-.708S28.316,22.662,28.316,23.057Z" transform="translate(278.522 732.953)" fill="#263238"/>
    <path id="Path_4769" data-name="Path 4769" d="M28.316,23.057c0,.389-.8.708-1.788.708s-1.788-.317-1.788-.708.8-.708,1.788-.708S28.316,22.662,28.316,23.057Z" transform="translate(278.522 732.953)" fill="#fff" opacity="0.7" style="mix-blend-mode: normal;isolation: isolate"/>
    <path id="Path_4770" data-name="Path 4770" d="M11.3,23.1a.6.6,0,0,1,.209-.42c1.508,1.518,11.074,2.682,22.645,2.682S55.291,24.2,56.795,22.684A.6.6,0,0,1,57,23.1c0,1.713-10.235,3.112-22.86,3.112S11.3,24.819,11.3,23.1Z" transform="translate(271.938 733.117)" fill="#fff" opacity="0.7" style="mix-blend-mode: normal;isolation: isolate"/>
    <path id="Path_4771" data-name="Path 4771" d="M11.441,24.106c1.508-1.518,11.074-2.682,22.645-2.682s21.142,1.168,22.645,2.682c-1.509,1.518-11.075,2.682-22.645,2.682S12.949,25.627,11.441,24.106Z" transform="translate(272.008 732.5)" fill="#fff" opacity="0.7" style="mix-blend-mode: normal;isolation: isolate"/>
    <path id="Path_4772" data-name="Path 4772" d="M11.3,23.948c0-1.716,10.233-3.112,22.858-3.112s22.86,1.389,22.86,3.112a.594.594,0,0,1-.209.419C55.3,22.849,45.73,21.685,34.16,21.685s-21.142,1.168-22.645,2.682A.591.591,0,0,1,11.3,23.948Z" transform="translate(271.938 732.212)" fill="#fff" opacity="0.7" style="mix-blend-mode: normal;isolation: isolate"/>
    <path id="Path_4773" data-name="Path 4773" d="M35.765,22.109l-9.565-.18a.194.194,0,0,1-.174-.213h0a.2.2,0,0,1,.179-.21h0l9.565.18a.2.2,0,0,1,.176.212h0a.2.2,0,0,1-.179.21Z" transform="translate(279.152 732.541)" fill="#263238"/>
    <path id="Path_4774" data-name="Path 4774" d="M35.765,22.109l-9.565-.18a.194.194,0,0,1-.174-.213h0a.2.2,0,0,1,.179-.21h0l9.565.18a.2.2,0,0,1,.176.212h0a.2.2,0,0,1-.179.21Z" transform="translate(279.152 732.541)" fill="#fff" opacity="0.2" style="mix-blend-mode: normal;isolation: isolate"/>
    <path id="Path_4775" data-name="Path 4775" d="M37.247,21.582l-4.572.691a.2.2,0,0,1-.2-.185h0a.215.215,0,0,1,.158-.24l4.572-.691a.2.2,0,0,1,.2.185h0A.215.215,0,0,1,37.247,21.582Z" transform="translate(282.312 732.37)" fill="#263238"/>
    <path id="Path_4776" data-name="Path 4776" d="M40.307,21.157H30.641l-4.492.507,9.3.176Z" transform="translate(279.212 732.37)" fill="#263238"/>
    <path id="Path_4777" data-name="Path 4777" d="M40.307,21.157H30.641l-4.492.507,9.3.176Z" transform="translate(279.212 732.37)" fill="#fff" opacity="0.6" style="mix-blend-mode: normal;isolation: isolate"/>
    <path id="Path_4778" data-name="Path 4778" d="M37.247,21.582l-4.572.691a.2.2,0,0,1-.2-.185h0a.215.215,0,0,1,.158-.24l4.572-.691a.2.2,0,0,1,.2.185h0A.215.215,0,0,1,37.247,21.582Z" transform="translate(282.312 732.37)" fill="#fff" opacity="0.5" style="mix-blend-mode: normal;isolation: isolate"/>
    <path id="Path_4779" data-name="Path 4779" d="M35.617,23.893,26.7,23.726a.693.693,0,0,1-.6-.693l-.268-5.386a.586.586,0,0,1,.492-.667l.045,0,8.918.17a.689.689,0,0,1,.6.693l.271,5.383a.588.588,0,0,1-.495.667Z" transform="translate(279.051 730.322)" fill="#008083"/>
    <path id="Path_4780" data-name="Path 4780" d="M35.617,23.893,26.7,23.726a.693.693,0,0,1-.6-.693l-.268-5.386a.586.586,0,0,1,.492-.667l.045,0,8.918.17a.689.689,0,0,1,.6.693l.271,5.383a.588.588,0,0,1-.495.667Z" transform="translate(279.051 730.322)" fill="#fff" opacity="0.2" style="mix-blend-mode: normal;isolation: isolate"/>
    <path id="Path_4781" data-name="Path 4781" d="M35.441,23.873l-8.918-.17a.692.692,0,0,1-.606-.693l-.268-5.375a.585.585,0,0,1,.492-.666l.048-.006,8.916.167a.692.692,0,0,1,.606.693l.273,5.377a.6.6,0,0,1-.511.67Z" transform="translate(278.964 730.315)" fill="#008083"/>
    <path id="Path_4782" data-name="Path 4782" d="M35.441,23.873l-8.918-.17a.692.692,0,0,1-.606-.693l-.268-5.375a.585.585,0,0,1,.492-.666l.048-.006,8.916.167a.692.692,0,0,1,.606.693l.273,5.377a.6.6,0,0,1-.511.67Z" transform="translate(278.964 730.315)" fill="#f78104" style="mix-blend-mode: normal;isolation: isolate"/>
    <path id="Path_4783" data-name="Path 4783" d="M28.32,19.529a1.052,1.052,0,0,0,1.029.946.854.854,0,0,0,.869-.839h0a.626.626,0,0,0,0-.106,1.056,1.056,0,0,0-1.029-.94.854.854,0,0,0-.869.839h0Q28.318,19.479,28.32,19.529Z" transform="translate(280.275 731.112)" fill="#fff"/>
  </g>
</svg>
