<svg xmlns="http://www.w3.org/2000/svg" width="50.186" height="57.339" viewBox="0 0 50.186 57.339">
  <g id="Group_6041" data-name="Group 6041" transform="translate(-284 -1073)">
    <rect id="Rectangle_1915" data-name="Rectangle 1915" width="50.186" height="34.97" rx="11.55" transform="translate(284 1095.369)" fill="#263238"/>
    <rect id="Rectangle_1916" data-name="Rectangle 1916" width="41.912" height="32.766" transform="translate(287.433 1096.472)" fill="#fff"/>
    <circle id="Ellipse_397" data-name="Ellipse 397" cx="1.34" cy="1.34" r="1.34" transform="translate(330.328 1111.52)" fill="#455a64"/>
    <path id="Rectangle_1917" data-name="Rectangle 1917" d="M1.721,34.589h0A.277.277,0,0,1,2,34.866v9.979a.277.277,0,0,1-.277.277h0a.277.277,0,0,1-.277-.277V34.866A.277.277,0,0,1,1.721,34.589Z" transform="translate(284 1072.999)" fill="#455a64"/>
    <circle id="Ellipse_398" data-name="Ellipse 398" cx="3.386" cy="3.386" r="3.386" transform="translate(293.108 1110.45)" fill="#008083"/>
    <path id="Ellipse_399" data-name="Ellipse 399" d="M3.386,0A3.386,3.386,0,1,1,0,3.386,3.386,3.386,0,0,1,3.386,0Z" transform="translate(293.108 1110.45)" fill="#f78104"/>
    <path id="Path_4856" data-name="Path 4856" d="M11.321,39.986c.127-.011.244.135.26.317s-.077.343-.206.354-.244-.135-.259-.316S11.2,40,11.321,39.986Z" transform="translate(284 1072.999)" fill="#263238"/>
    <path id="Path_4857" data-name="Path 4857" d="M13.478,39.942c-.127,0-.238.135-.247.328s.091.34.219.346.24-.135.247-.327S13.606,39.947,13.478,39.942Z" transform="translate(284 1072.999)" fill="#263238"/>
    <path id="Path_4858" data-name="Path 4858" d="M13.848,41.512a13.842,13.842,0,0,1-2.82,0,6.93,6.93,0,0,1,1.41-.073A6.722,6.722,0,0,1,13.848,41.512Z" transform="translate(284 1072.999)" fill="#263238"/>
    <path id="Path_4859" data-name="Path 4859" d="M11.594,39.6c-.008.041-.169.039-.358.069s-.341.079-.362.043.122-.152.34-.186S11.594,39.56,11.594,39.6Z" transform="translate(284 1072.999)" fill="#263238"/>
    <path id="Path_4860" data-name="Path 4860" d="M14.089,39.762c-.024.033-.171-.043-.359-.1s-.351-.077-.355-.119.18-.087.4-.019S14.115,39.734,14.089,39.762Z" transform="translate(284 1072.999)" fill="#263238"/>
    <circle id="Ellipse_400" data-name="Ellipse 400" cx="3.509" cy="3.509" r="3.509" transform="translate(317.499 1110.051)" fill="#008083"/>
    <path id="Ellipse_401" data-name="Ellipse 401" d="M3.509,0A3.509,3.509,0,1,1,0,3.509,3.509,3.509,0,0,1,3.509,0Z" transform="translate(317.499 1110.051)" fill="#f78104"/>
    <path id="Path_4861" data-name="Path 4861" d="M35.794,39.675c.135-.011.255.135.271.328s-.079.356-.211.367-.255-.135-.271-.328S35.661,39.686,35.794,39.675Z" transform="translate(284 1072.999)" fill="#263238"/>
    <path id="Path_4862" data-name="Path 4862" d="M38.026,39.629c-.135,0-.248.146-.256.339s.1.352.228.358.248-.146.256-.339S38.163,39.634,38.026,39.629Z" transform="translate(284 1072.999)" fill="#263238"/>
    <path id="Path_4863" data-name="Path 4863" d="M38.409,41.255A2.431,2.431,0,0,1,38,41.041a2.265,2.265,0,0,0-1.045-.257,2.6,2.6,0,0,0-1.047.271,2.268,2.268,0,0,1-.419.2c-.012-.019.121-.135.371-.29a2.277,2.277,0,0,1,1.092-.327,2.057,2.057,0,0,1,1.1.313A1.04,1.04,0,0,1,38.409,41.255Z" transform="translate(284 1072.999)" fill="#263238"/>
    <path id="Path_4864" data-name="Path 4864" d="M36.062,39.271c.012.015-.011.06-.069.11a.566.566,0,0,1-.271.135.514.514,0,0,1-.3-.034c-.072-.033-.1-.07-.1-.088s.183.018.375-.02S36.037,39.239,36.062,39.271Z" transform="translate(284 1072.999)" fill="#263238"/>
    <path id="Path_4865" data-name="Path 4865" d="M38.66,39.442c0,.018-.032.051-.111.076a.518.518,0,0,1-.314-.011.638.638,0,0,1-.259-.172c-.051-.06-.07-.107-.057-.121s.172.089.362.156S38.647,39.4,38.66,39.442Z" transform="translate(284 1072.999)" fill="#263238"/>
    <path id="Path_4866" data-name="Path 4866" d="M30.28,50.3l.813-.4.794.442-.133-.9.665-.618-.9-.152-.382-.824-.42.8-.9.108.634.649Z" transform="translate(284 1072.999)" fill="#e0e0e0"/>
    <path id="Path_4867" data-name="Path 4867" d="M26.963,50.3l.813-.4.794.442-.133-.9.665-.618-.9-.152-.382-.824-.42.8-.9.108.634.649Z" transform="translate(284 1072.999)" fill="#f78104"/>
    <path id="Path_4868" data-name="Path 4868" d="M23.646,50.3l.813-.4.793.442-.131-.9.665-.618-.9-.152-.382-.824-.42.8-.9.108.634.649Z" transform="translate(284 1072.999)" fill="#f78104"/>
    <path id="Path_4869" data-name="Path 4869" d="M20.329,50.3l.813-.4.793.442-.131-.9.665-.618-.9-.152-.382-.824-.42.8-.9.108.634.649Z" transform="translate(284 1072.999)" fill="#f78104"/>
    <path id="Path_4870" data-name="Path 4870" d="M17.012,50.3l.813-.4.793.442-.131-.9.665-.618-.9-.152-.382-.824-.42.8-.9.108.634.649Z" transform="translate(284 1072.999)" fill="#f78104"/>
    <path id="Path_4871" data-name="Path 4871" d="M32.457,30.336c0,.02-3.639.037-8.129.037s-8.13-.016-8.13-.037,3.638-.035,8.13-.035S32.457,30.317,32.457,30.336Z" transform="translate(284 1072.999)" fill="#263238"/>
    <path id="Path_4872" data-name="Path 4872" d="M28.46,29.361c0,.02-1.8.037-4.013.037s-4.015-.016-4.015-.037,1.8-.037,4.015-.037S28.46,29.34,28.46,29.361Z" transform="translate(284 1072.999)" fill="#263238"/>
    <path id="Ellipse_402" data-name="Ellipse 402" d="M4.623,0A4.623,4.623,0,1,1,0,4.623,4.623,4.623,0,0,1,4.623,0Z" transform="translate(304.403 1108.131)" fill="#f78104"/>
    <path id="Path_4873" data-name="Path 4873" d="M23.428,38.59c.175-.014.333.179.355.432s-.1.469-.279.484-.335-.179-.355-.431S23.253,38.6,23.428,38.59Z" transform="translate(284 1072.999)" fill="#263238"/>
    <path id="Path_4874" data-name="Path 4874" d="M26.364,38.533c-.175-.008-.327.192-.336.446s.123.465.3.472.327-.192.337-.446S26.543,38.533,26.364,38.533Z" transform="translate(284 1072.999)" fill="#263238"/>
    <path id="Path_4875" data-name="Path 4875" d="M26.871,40.042c.008.008-.03.056-.1.135a2.645,2.645,0,0,1-.347.313,2.474,2.474,0,0,1-.611.335,2.151,2.151,0,0,1-.848.135,2.462,2.462,0,0,1-.833-.192,3.55,3.55,0,0,1-.614-.321,1.85,1.85,0,0,1-.492-.406,5.3,5.3,0,0,1,.542.314,4.265,4.265,0,0,0,.608.286,2.571,2.571,0,0,0,.793.172,2.175,2.175,0,0,0,.8-.115,2.734,2.734,0,0,0,.6-.293c.157-.108.285-.2.367-.271S26.864,40.035,26.871,40.042Z" transform="translate(284 1072.999)" fill="#263238"/>
    <path id="Path_4876" data-name="Path 4876" d="M23.637,37.546c-.008.041-.229.026-.492.068s-.469.122-.489.085.175-.183.467-.228S23.65,37.508,23.637,37.546Z" transform="translate(284 1072.999)" fill="#263238"/>
    <path id="Path_4877" data-name="Path 4877" d="M27.359,37.762c-.026.033-.221-.084-.484-.163s-.489-.095-.491-.135.243-.092.534,0S27.385,37.734,27.359,37.762Z" transform="translate(284 1072.999)" fill="#263238"/>
    <path id="Path_4878" data-name="Path 4878" d="M23.1,39.71c.018,0,.047.045.052.135a.531.531,0,0,1-.1.32.522.522,0,0,1-.271.2c-.084.024-.135.012-.142,0,0-.041.171-.1.293-.279S23.056,39.717,23.1,39.71Z" transform="translate(284 1072.999)" fill="#263238"/>
    <path id="Path_4879" data-name="Path 4879" d="M27.262,40.136c0,.018-.035.046-.107.051a.418.418,0,0,1-.419-.31c-.015-.07,0-.115.019-.117.041,0,.087.135.222.229S27.252,40.091,27.262,40.136Z" transform="translate(284 1072.999)" fill="#263238"/>
    <path id="Path_4880" data-name="Path 4880" d="M30.676,39.713a.745.745,0,0,0-.008-.094l-.018-.271c0-.06-.007-.127-.011-.2s-.024-.153-.037-.24-.028-.18-.045-.279-.045-.211-.075-.314a5.479,5.479,0,0,0-.637-1.523,5.721,5.721,0,0,0-1.454-1.626l-.248-.183c-.087-.057-.177-.11-.271-.165a2.763,2.763,0,0,0-.279-.161l-.3-.142-.15-.072-.159-.057-.322-.118c-.108-.037-.224-.06-.336-.089a2.694,2.694,0,0,0-.345-.079,5.151,5.151,0,0,0-.722-.084c-.123,0-.248-.016-.373-.014l-.378.019a1.016,1.016,0,0,0-.191.012l-.191.03c-.126.02-.256.035-.383.062a5.77,5.77,0,0,0-.761.224,6.01,6.01,0,0,0-.745.327c-.121.066-.236.142-.355.213-.058.038-.121.069-.176.111l-.168.126a6.537,6.537,0,0,0-.648.55L20.6,36l-.073.081-.066.087-.135.175-.136.175-.115.188-.115.19-.057.1-.049.1-.194.406-.154.423a5.657,5.657,0,0,0,0,3.6c.053.135.1.282.156.423s.129.271.194.406l.049.1.057.1.115.188.115.188.135.176.135.175.065.087.073.08.29.32a6.556,6.556,0,0,0,.648.552l.169.125c.056.043.118.075.176.112.119.07.234.146.355.213a6.317,6.317,0,0,0,1.507.55c.127.027.257.042.385.062l.19.03c.064.008.127.008.191.012l.378.019c.125,0,.249-.01.373-.014a5.151,5.151,0,0,0,.722-.084,2.875,2.875,0,0,0,.345-.079c.114-.03.228-.054.337-.089l.321-.118.159-.057.15-.072.3-.142a3.206,3.206,0,0,0,.279-.161c.091-.056.183-.108.271-.165l.247-.184a5.725,5.725,0,0,0,1.455-1.626,5.486,5.486,0,0,0,.635-1.53c.03-.1.055-.208.075-.313l.045-.279c.014-.087.028-.167.037-.24s.008-.135.011-.2c.008-.118.014-.209.018-.271s.008-.093.008-.093v.093c0,.062-.007.154-.011.271a1.672,1.672,0,0,1-.008.2c-.008.066-.022.154-.033.241s-.027.182-.042.282a2.668,2.668,0,0,1-.072.314,5.444,5.444,0,0,1-.627,1.541A5.711,5.711,0,0,1,28.426,44.3l-.249.187c-.087.058-.179.111-.271.168a2.32,2.32,0,0,1-.282.163l-.3.145-.152.077-.16.058-.324.119c-.111.038-.226.061-.34.092a3.008,3.008,0,0,1-.35.081,5.423,5.423,0,0,1-.73.085c-.123,0-.249.018-.375.016l-.382-.019a1.048,1.048,0,0,1-.194-.012l-.192-.03c-.129-.02-.26-.035-.389-.062a6.475,6.475,0,0,1-.771-.225,6.286,6.286,0,0,1-.753-.329c-.123-.066-.24-.144-.36-.215a2.064,2.064,0,0,1-.179-.112l-.171-.127a6.575,6.575,0,0,1-.656-.556l-.294-.324-.074-.081-.066-.088-.135-.176-.135-.179-.117-.19-.116-.191-.058-.1-.049-.1-.2-.406c-.053-.142-.1-.286-.157-.428a5.733,5.733,0,0,1,0-3.647l.157-.428.2-.406.05-.1.058-.1.117-.191.117-.19.135-.177.135-.178.066-.088.073-.081c.1-.107.2-.215.294-.322a6.68,6.68,0,0,1,.656-.557l.171-.127c.057-.042.119-.075.179-.112.121-.07.238-.148.36-.214a5.981,5.981,0,0,1,.753-.329,6.123,6.123,0,0,1,.771-.225c.129-.027.26-.042.389-.062l.192-.03c.064-.008.129-.008.192-.012l.382-.019c.127,0,.252.011.377.016a5.266,5.266,0,0,1,.73.085,3.223,3.223,0,0,1,.35.08c.114.033.229.056.339.092l.325.119.16.06.152.073.3.144c.1.046.188.111.28.164s.184.11.271.168l.249.187a5.729,5.729,0,0,1,1.458,1.639,5.448,5.448,0,0,1,.629,1.536c.024.112.061.215.072.316s.028.194.042.282.026.167.033.241,0,.135.008.2c0,.119.008.21.011.271A.644.644,0,0,1,30.676,39.713Z" transform="translate(284 1072.999)" fill="#008083"/>
    <rect id="Rectangle_1918" data-name="Rectangle 1918" width="41.912" height="2.091" transform="translate(287.433 1096.472)" fill="#e0e0e0"/>
    <path id="Path_4881" data-name="Path 4881" d="M4.785,24.461a.283.283,0,1,1-.283-.283h0a.283.283,0,0,1,.283.283Z" transform="translate(284 1072.999)" fill="#fff"/>
    <path id="Path_4882" data-name="Path 4882" d="M5.73,24.461a.283.283,0,1,1-.283-.283h0a.283.283,0,0,1,.283.283Z" transform="translate(284 1072.999)" fill="#fff"/>
    <path id="Path_4883" data-name="Path 4883" d="M6.667,24.461a.283.283,0,1,1-.283-.283h0A.285.285,0,0,1,6.667,24.461Z" transform="translate(284 1072.999)" fill="#fff"/>
    <path id="Path_4884" data-name="Path 4884" d="M40.722,31.984c0,.02-7.272.037-16.241.037s-16.243-.016-16.243-.037,7.272-.035,16.243-.035S40.722,31.965,40.722,31.984Z" transform="translate(284 1072.999)" fill="#e0e0e0"/>
    <path id="Path_4885" data-name="Path 4885" d="M40.722,32.794c0,.019-7.272.035-16.241.035s-16.243-.016-16.243-.035,7.272-.037,16.243-.037S40.722,32.77,40.722,32.794Z" transform="translate(284 1072.999)" fill="#e0e0e0"/>
    <path id="Path_4886" data-name="Path 4886" d="M19.409,22.591s-.286-.649-.34-.791c-.145-.389-1.084-2.994-.858-3.387,1.039-1.825,1.845-3.116,3.9-3.116l3.622-.024s3.431-.7,5.849,7.105Z" transform="translate(284 1072.999)" fill="#455a64"/>
    <path id="Path_4887" data-name="Path 4887" d="M11.77,23.244l4.742-1.022,5.574-2.931.02-4c-.836-.23-2.439.35-5.318,1.817l-4.28,2.21a2.535,2.535,0,0,0-.738,3.929Z" transform="translate(284 1072.999)" fill="#455a64"/>
    <path id="Path_4888" data-name="Path 4888" d="M22.441,30.989c-.069-.225-.022-.37.306-.259a2,2,0,0,0,1.527.023c.157-.14.014-.406-.222-.386a2.882,2.882,0,0,1-.761-.106,1.872,1.872,0,0,1-.568-.24c-.152-.1-.282-.187-.4-.271a3.715,3.715,0,0,1-.877-.87l-2.288.98.369,1.146a1.22,1.22,0,0,0,.774.886A5.554,5.554,0,0,0,22,32.027c.191-.125.927.94,1.15,1.316s.488.423.575.194a7.046,7.046,0,0,0-.824-1.691,4.434,4.434,0,0,1-.458-.86" transform="translate(284 1072.999)" fill="#b77153"/>
    <path id="Path_4889" data-name="Path 4889" d="M20.892,32.029c0,.008-.057,0-.135-.032a.568.568,0,0,1-.24-.233.591.591,0,0,1-.075-.327c.008-.087.035-.135.043-.135a.756.756,0,0,0,.407.724Z" transform="translate(284 1072.999)" fill="#995037"/>
    <path id="Path_4890" data-name="Path 4890" d="M21.618,32.062c0,.008-.054,0-.127-.037a.568.568,0,0,1-.224-.229.579.579,0,0,1-.07-.313c.008-.083.031-.135.041-.126a1.057,1.057,0,0,0,.094.406A1.115,1.115,0,0,0,21.618,32.062Z" transform="translate(284 1072.999)" fill="#995037"/>
    <path id="Path_4891" data-name="Path 4891" d="M11.634,23.085S18.9,31.434,18.89,31.3s3.252-2.574,3.252-2.574L15.024,20.24Z" transform="translate(284 1072.999)" fill="#455a64"/>
    <path id="Path_4892" data-name="Path 4892" d="M16.041,21.449a.59.59,0,0,1,.051.049l.135.152.488.564c.407.477.971,1.141,1.589,1.877s1.175,1.405,1.574,1.9l.47.579.126.16c.027.037.042.057.039.058a.29.29,0,0,1-.05-.049l-.135-.152c-.123-.135-.287-.332-.488-.564-.406-.477-.973-1.141-1.591-1.877s-1.173-1.405-1.574-1.9l-.47-.579-.125-.16A.327.327,0,0,1,16.041,21.449Z" transform="translate(284 1072.999)" fill="#263238"/>
    <path id="Path_4893" data-name="Path 4893" d="M28.892,22.408a2.491,2.491,0,0,0,.087-.542,1.6,1.6,0,0,0-.474-1.171c-.176-.186-.366-.346-.519-.514a1.56,1.56,0,0,1-.325-.507.894.894,0,0,1-.06-.406.385.385,0,0,1,.038-.145,1.026,1.026,0,0,0,.069.528,1.627,1.627,0,0,0,.327.481c.152.161.341.318.522.508a1.667,1.667,0,0,1,.392.626,1.59,1.59,0,0,1,.083.6,1.4,1.4,0,0,1-.077.4A.475.475,0,0,1,28.892,22.408Z" transform="translate(284 1072.999)" fill="#263238"/>
    <path id="Path_4894" data-name="Path 4894" d="M19.093,15.986s.037-.019.106-.05a2.867,2.867,0,0,1,.314-.114,2.711,2.711,0,0,1,.52-.106,1.782,1.782,0,0,1,.7.065,1.639,1.639,0,0,1,.717.461,1.9,1.9,0,0,1,.436.882,3.347,3.347,0,0,1,.069,1.084,2.361,2.361,0,0,1-.406,1.084,2.993,2.993,0,0,1-.868.771c-.318.2-.638.363-.942.523l-1.614.848L17.041,22l-.3.15a.6.6,0,0,1-.107.047.786.786,0,0,1,.1-.061l.291-.163,1.084-.585,1.6-.86c.3-.161.623-.327.936-.526a2.934,2.934,0,0,0,.848-.752,2.283,2.283,0,0,0,.39-1.055,3.323,3.323,0,0,0-.064-1.057,1.844,1.844,0,0,0-.406-.852,1.572,1.572,0,0,0-.688-.453,1.764,1.764,0,0,0-.677-.074,2.823,2.823,0,0,0-.516.094c-.135.039-.245.074-.317.1A.566.566,0,0,1,19.093,15.986Z" transform="translate(284 1072.999)" fill="#263238"/>
    <path id="Path_4895" data-name="Path 4895" d="M16.841,22.21a3.7,3.7,0,0,0-.406-.969,4.139,4.139,0,0,0-.718-.766.93.93,0,0,1,.271.165A2.327,2.327,0,0,1,16.8,21.9.92.92,0,0,1,16.841,22.21Z" transform="translate(284 1072.999)" fill="#263238"/>
    <path id="Path_4896" data-name="Path 4896" d="M27.517,21.306a.816.816,0,0,1-.154.042,1.564,1.564,0,0,1-.458.02,1.7,1.7,0,0,1-.688-.226,1.583,1.583,0,0,1-.635-.714,1.685,1.685,0,0,1-.088-1.153.948.948,0,0,1,.383-.531.472.472,0,0,1,.347-.072.509.509,0,0,1,.3.2,1.68,1.68,0,0,1,.163,1.446A1.722,1.722,0,0,1,26.28,21a1.569,1.569,0,0,1-.706.406,1.613,1.613,0,0,1-1.518-.363,1.584,1.584,0,0,1-.454-1.377,1.372,1.372,0,0,1,.271-.637.688.688,0,0,1,.271-.207.437.437,0,0,1,.333,0,.62.62,0,0,1,.354.493,1.039,1.039,0,0,1-.11.553,2.642,2.642,0,0,1-.577.77,2.759,2.759,0,0,1-.592.419,2.492,2.492,0,0,1-.423.178c-.049.016-.088.024-.114.031a.186.186,0,0,1-.041.008.137.137,0,0,1,.038-.015c.026-.009.064-.02.112-.039a2.889,2.889,0,0,0,.413-.187,2.8,2.8,0,0,0,.579-.424,2.643,2.643,0,0,0,.558-.76,1,1,0,0,0,.1-.526.568.568,0,0,0-.321-.444.376.376,0,0,0-.287,0,.623.623,0,0,0-.244.19,1.3,1.3,0,0,0-.26.608,1.514,1.514,0,0,0,.436,1.314,1.543,1.543,0,0,0,1.447.337,1.486,1.486,0,0,0,.677-.379,1.644,1.644,0,0,0,.394-.644,1.76,1.76,0,0,0,.08-.728,1.481,1.481,0,0,0-.075-.348,1.007,1.007,0,0,0-.152-.308.449.449,0,0,0-.263-.177.408.408,0,0,0-.3.062.883.883,0,0,0-.363.489,1.635,1.635,0,0,0,.076,1.115,1.54,1.54,0,0,0,.611.7,1.67,1.67,0,0,0,.671.233A1.848,1.848,0,0,0,27.517,21.306Z" transform="translate(284 1072.999)" fill="#fafafa"/>
    <path id="Path_4897" data-name="Path 4897" d="M28.064,13.174a1.648,1.648,0,0,1-.324-.644.433.433,0,0,1-.008-.234.179.179,0,0,1,.175-.135c.081,0,.135.083.18.152a3.515,3.515,0,0,1,.333.634.488.488,0,0,1,.039.192.194.194,0,0,1-.094.164.2.2,0,0,1-.2-.027.61.61,0,0,1-.135-.164" transform="translate(284 1072.999)" fill="#995037"/>
    <path id="Path_4898" data-name="Path 4898" d="M28.413,13.026l-.358-.751a.6.6,0,0,1-.074-.233.181.181,0,0,1,.315-.149.564.564,0,0,1,.121.176l.169.329a1.07,1.07,0,0,1,.111.279.361.361,0,0,1-.056.289.221.221,0,0,1-.271.064" transform="translate(284 1072.999)" fill="#995037"/>
    <path id="Path_4899" data-name="Path 4899" d="M26.82,15.347a3.243,3.243,0,0,1-.542-.986c-.043-.34.373-.948,1.268-1.084a2.192,2.192,0,0,0,.921-.314.288.288,0,0,0,.1-.35,5.05,5.05,0,0,1-.313-.887c.042-.183.161-.179.47.271s.668.913.6,1.122-1.161.855-1.161.855l.3.481Z" transform="translate(284 1072.999)" fill="#b77153"/>
    <path id="Path_4900" data-name="Path 4900" d="M29.782,21.992l-3.437-6.735,2.214-1.24,4.65,7.371s.245.472.588,1.023H29.9" transform="translate(284 1072.999)" fill="#455a64"/>
    <path id="Path_4901" data-name="Path 4901" d="M28.528,14.017a.328.328,0,0,1-.038.027l-.116.07-.444.259-1.6.911.012-.041c.335.677.77,1.47,1.207,2.328.652,1.267,1.219,2.428,1.612,3.273.2.423.355.767.462,1,.05.115.091.206.121.271a.5.5,0,0,1,.038.1.551.551,0,0,1-.051-.092c-.033-.068-.077-.157-.136-.271l-.482-.994c-.406-.839-.978-2-1.626-3.263-.438-.856-.87-1.646-1.2-2.332l-.012-.027.026-.015,1.611-.887.454-.245.121-.062A.189.189,0,0,1,28.528,14.017Z" transform="translate(284 1072.999)" fill="#263238"/>
    <path id="Path_4902" data-name="Path 4902" d="M19.409,22.592a4.157,4.157,0,0,1-.573-1.583c.022,0,.115.36.271.8S19.428,22.582,19.409,22.592Z" transform="translate(284 1072.999)" fill="#263238"/>
    <path id="Path_4903" data-name="Path 4903" d="M26.98,12.662a1.355,1.355,0,0,0,1.6-2.055,1.639,1.639,0,0,0,1.1-1.878,2.119,2.119,0,0,0-1.641-1.568,1.759,1.759,0,0,0-.908.023,1.116,1.116,0,0,0-.677.581" transform="translate(284 1072.999)" fill="#263238"/>
    <path id="Path_4904" data-name="Path 4904" d="M26.87,10.906c0,.008-.1.027-.264.112a1.167,1.167,0,0,0-.519.558,1.147,1.147,0,0,0,.087,1.092,1.088,1.088,0,0,0,.217.247,1.06,1.06,0,0,0,.29.18,1.137,1.137,0,0,0,1.313-.3,1.105,1.105,0,0,0,.183-.289,1.117,1.117,0,0,0,.088-.316A1.16,1.16,0,0,0,27.256,10.9c-.032,0-.064-.007-.1-.008-.186-.007-.287.023-.289.014a.264.264,0,0,1,.073-.02.975.975,0,0,1,.215-.022,1.19,1.19,0,0,1,1.186,1.194,1.128,1.128,0,0,1-.009.142,1.082,1.082,0,0,1-.091.335,1.145,1.145,0,0,1-.192.308,1.2,1.2,0,0,1-1.394.318,1.151,1.151,0,0,1-.306-.194,1.12,1.12,0,0,1-.228-.262,1.223,1.223,0,0,1-.188-.607,1.187,1.187,0,0,1,.663-1.1.912.912,0,0,1,.2-.075A.312.312,0,0,1,26.87,10.906Z" transform="translate(284 1072.999)" fill="#008083"/>
    <path id="Path_4905" data-name="Path 4905" d="M27.458,8.771a1.332,1.332,0,0,0,.626-2.462,1.654,1.654,0,0,0-2.47-1.936,2.2,2.2,0,0,0-4.065.65A2.122,2.122,0,0,0,18.826,7.9a1.644,1.644,0,0,0,.279,3.276,1.45,1.45,0,0,0,2.2,1.626,1.588,1.588,0,0,0,2.853-.328" transform="translate(284 1072.999)" fill="#263238"/>
    <path id="Path_4906" data-name="Path 4906" d="M25.828,15.128c.028-.66.064-1.257.064-1.257a1.78,1.78,0,0,0,1.539-1.691c.064-1.505-.087-4.971-.087-4.971l-2.71-1.3L21.713,8.257l.458,6.91a1.835,1.835,0,0,0,1.915,1.71h0A1.833,1.833,0,0,0,25.828,15.128Z" transform="translate(284 1072.999)" fill="#b77153"/>
    <path id="Path_4907" data-name="Path 4907" d="M27.272,9.785c-.024.026-.165-.092-.367-.1s-.352.095-.373.068.013-.058.079-.107a.478.478,0,0,1,.3-.085.485.485,0,0,1,.291.112C27.263,9.727,27.283,9.775,27.272,9.785Z" transform="translate(284 1072.999)" fill="#263238"/>
    <path id="Path_4908" data-name="Path 4908" d="M25.034,9.785c-.024.026-.164-.092-.367-.1s-.351.095-.373.068.014-.058.079-.107a.478.478,0,0,1,.3-.085.485.485,0,0,1,.291.112C25.024,9.727,25.045,9.775,25.034,9.785Z" transform="translate(284 1072.999)" fill="#263238"/>
    <path id="Path_4909" data-name="Path 4909" d="M25.792,11.305a1.187,1.187,0,0,1,.329-.05c.051,0,.1-.014.11-.05a.3.3,0,0,0-.031-.165c-.047-.133-.1-.276-.146-.427A7.606,7.606,0,0,1,25.729,9.5a7.767,7.767,0,0,1,.406,1.084l.135.43a.355.355,0,0,1,.023.218.136.136,0,0,1-.087.077.318.318,0,0,1-.087.009A1.235,1.235,0,0,1,25.792,11.305Z" transform="translate(284 1072.999)" fill="#263238"/>
    <path id="Path_4910" data-name="Path 4910" d="M25.891,13.873a3.591,3.591,0,0,1-1.952-.64,1.89,1.89,0,0,0,1.927,1.009Z" transform="translate(284 1072.999)" fill="#995037"/>
    <path id="Path_4911" data-name="Path 4911" d="M23.8,5.989a1.99,1.99,0,0,0,.027,2.3,1.156,1.156,0,0,0,.912.508.648.648,0,0,0,.637-.659c0-.017,0-.033,0-.05a.748.748,0,1,0,1.433.026,1.376,1.376,0,0,0,.172.464.456.456,0,0,0,.416.22c.226-.03.358-.271.406-.5a2.042,2.042,0,0,0-.576-1.881,2.467,2.467,0,0,0-1.881-.66,3.145,3.145,0,0,0-1.847.813" transform="translate(284 1072.999)" fill="#263238"/>
    <path id="Path_4912" data-name="Path 4912" d="M23.987,6.52a3.48,3.48,0,0,1,.3,1.355A1.811,1.811,0,0,1,23.8,9.143a1.232,1.232,0,0,1-1.28.308,1.425,1.425,0,0,1-.187,1.2.911.911,0,0,1-1.115.293,1.223,1.223,0,0,1-.523-.962,3.082,3.082,0,0,1,2.689-3.429,3.118,3.118,0,0,1,.662-.008" transform="translate(284 1072.999)" fill="#263238"/>
    <path id="Path_4913" data-name="Path 4913" d="M22.126,10.106a.527.527,0,0,0-.634.152.866.866,0,0,0,.862,1.42" transform="translate(284 1072.999)" fill="#b77153"/>
    <path id="Path_4914" data-name="Path 4914" d="M22.08,11.228c0,.008-.066.018-.171-.011a.456.456,0,0,1-.309-.271.334.334,0,0,1,.008-.241.359.359,0,0,1,.125-.148c.094-.061.164-.06.165-.051s-.061.028-.135.092a.3.3,0,0,0-.1.325.454.454,0,0,0,.259.251C22.024,11.207,22.081,11.217,22.08,11.228Z" transform="translate(284 1072.999)" fill="#995037"/>
    <path id="Path_4915" data-name="Path 4915" d="M25.158,9.159c-.019.058-.24.037-.5.049s-.48.045-.5-.012.19-.194.495-.2S25.178,9.1,25.158,9.159Z" transform="translate(284 1072.999)" fill="#263238"/>
    <path id="Path_4916" data-name="Path 4916" d="M27.267,9.116c-.023.02-.068,0-.121-.007a.517.517,0,0,0-.184-.011c-.079,0-.165.022-.232.02s-.112-.015-.121-.045.022-.065.077-.1a.586.586,0,0,1,.256-.089.34.34,0,0,1,.291.1C27.284,9.046,27.288,9.1,27.267,9.116Z" transform="translate(284 1072.999)" fill="#263238"/>
    <path id="Path_4917" data-name="Path 4917" d="M25.442,11.69a.457.457,0,0,1,.381-.054.284.284,0,0,1,.188.312.3.3,0,0,1-.122.173.4.4,0,0,1-.313.076.308.308,0,0,1-.234-.213.252.252,0,0,1,.123-.282" transform="translate(284 1072.999)" fill="#995037"/>
    <path id="Path_4918" data-name="Path 4918" d="M26.181,11.851a.34.34,0,0,1-.145.062.665.665,0,0,1-.682-.282c-.054-.083-.065-.144-.057-.148s.038.047.1.118a.729.729,0,0,0,.629.262C26.12,11.856,26.177,11.84,26.181,11.851Z" transform="translate(284 1072.999)" fill="#263238"/>
    <path id="Path_4919" data-name="Path 4919" d="M23.126,12.569a2.3,2.3,0,0,0-.051-.285,1.163,1.163,0,0,0-.428-.629,1.149,1.149,0,0,0-.484-.211,1.167,1.167,0,0,0-.6.051,1.067,1.067,0,0,0-.289.157,1.025,1.025,0,0,0-.24.243,1.136,1.136,0,0,0,0,1.345,1.025,1.025,0,0,0,.24.243,1.067,1.067,0,0,0,.289.157,1.157,1.157,0,0,0,1.482-.693c.011-.031.021-.065.03-.1.047-.179.042-.285.051-.283a.469.469,0,0,1,0,.075.917.917,0,0,1-.026.215,1.164,1.164,0,0,1-.425.663,1.18,1.18,0,0,1-1.134.181,1.143,1.143,0,0,1-.306-.164,1.111,1.111,0,0,1-.256-.256,1.2,1.2,0,0,1,0-1.429,1.111,1.111,0,0,1,.256-.256,1.143,1.143,0,0,1,.306-.164,1.187,1.187,0,0,1,1.138.182,1.164,1.164,0,0,1,.425.663.917.917,0,0,1,.026.215A.429.429,0,0,1,23.126,12.569Z" transform="translate(284 1072.999)" fill="#008083"/>
    <path id="Path_4920" data-name="Path 4920" d="M27.265,5.832a.124.124,0,0,1,.038.009.3.3,0,0,1,.1.061.439.439,0,0,1,.121.4.568.568,0,0,1-.469.415,1.179,1.179,0,0,1-.794-.19l-.279-.161.306.1A.332.332,0,0,1,26.5,6.7a.423.423,0,0,1-.043.324.45.45,0,0,1-.271.2.644.644,0,0,1-.343-.008,1.173,1.173,0,0,1-.591-.509l-.206-.282.249.243a.542.542,0,0,1,.135.512.555.555,0,0,1-.3.381.726.726,0,0,1-.771-.093.919.919,0,0,1-.3-.44.884.884,0,0,1-.032-.135.2.2,0,0,1,0-.049c.007,0,.015.065.058.177a.939.939,0,0,0,.3.406.685.685,0,0,0,.717.075.5.5,0,0,0,.264-.341.478.478,0,0,0-.118-.447l.053-.045a1.108,1.108,0,0,0,.551.48A.477.477,0,0,0,26.39,7a.324.324,0,0,0-.1-.447l-.026-.015.027-.061a1.135,1.135,0,0,0,.748.194.525.525,0,0,0,.442-.374.427.427,0,0,0-.1-.373A.513.513,0,0,0,27.265,5.832Z" transform="translate(284 1072.999)" fill="#455a64"/>
    <path id="Path_4921" data-name="Path 4921" d="M23.65,8.253s0,.009-.018.026a.686.686,0,0,1-.064.068.883.883,0,0,1-.3.18.859.859,0,0,1-.542.008.9.9,0,0,1-.542-.465l.057-.008a.877.877,0,1,1-1.474-.77l.047.05a.9.9,0,0,1-.569.207A.98.98,0,0,1,19.71,7.4a.808.808,0,0,1-.321-.377.952.952,0,0,1-.066-.419.917.917,0,0,1,.222-.55.582.582,0,0,1,.165-.135.966.966,0,0,0-.344.7.914.914,0,0,0,.072.4.762.762,0,0,0,.3.345.918.918,0,0,0,.5.135.842.842,0,0,0,.526-.192l.046.05a.839.839,0,0,0-.172.912.83.83,0,0,0,.9.459.842.842,0,0,0,.634-.66l.015-.1.042.087a.862.862,0,0,0,.5.444.832.832,0,0,0,.522,0,.905.905,0,0,0,.3-.16C23.624,8.283,23.65,8.251,23.65,8.253Z" transform="translate(284 1072.999)" fill="#455a64"/>
    <path id="Path_4922" data-name="Path 4922" d="M20.969,10.663a.336.336,0,0,1-.118.07.8.8,0,0,1-.375.058.775.775,0,0,1-.516-.252.836.836,0,0,1-.2-.7l.062.027a1.4,1.4,0,0,1-.508.416,1.083,1.083,0,0,1-.495.1.991.991,0,0,1-.454-.125.8.8,0,0,1-.432-.641.77.77,0,0,1,.135-.508.591.591,0,0,1,.1-.1.13.13,0,0,1,.043-.027.852.852,0,0,0-.122.146.761.761,0,0,0-.111.488.753.753,0,0,0,.417.592.973.973,0,0,0,.885.012,1.337,1.337,0,0,0,.484-.392l.088-.114-.026.135a.78.78,0,0,0,.18.642.744.744,0,0,0,.477.249.855.855,0,0,0,.362-.037C20.924,10.683,20.966,10.659,20.969,10.663Z" transform="translate(284 1072.999)" fill="#455a64"/>
    <path id="Path_4923" data-name="Path 4923" d="M28.641,7.728a.468.468,0,0,1,.03.251.9.9,0,0,1-.793.828.448.448,0,0,1-.251-.019c0-.012.1,0,.243-.031a.932.932,0,0,0,.749-.785C28.644,7.824,28.629,7.729,28.641,7.728Z" transform="translate(284 1072.999)" fill="#455a64"/>
    <path id="Path_4924" data-name="Path 4924" d="M29.476,9.146a.258.258,0,0,1,.034.1.589.589,0,0,1-.028.3.465.465,0,0,1-.328.3.473.473,0,0,1-.271-.024.381.381,0,0,1-.215-.209l.068-.023a.511.511,0,0,1,.018.135.542.542,0,0,1-.34.482.448.448,0,0,1-.271.012.514.514,0,0,1-.2-.112.488.488,0,0,1-.164-.285.3.3,0,0,1,0-.119.405.405,0,0,0,.023.114.5.5,0,0,0,.169.251.421.421,0,0,0,.417.077.477.477,0,0,0,.291-.421.346.346,0,0,0-.015-.111l.069-.023a.367.367,0,0,0,.406.2.418.418,0,0,0,.3-.256.614.614,0,0,0,.047-.271C29.476,9.184,29.469,9.147,29.476,9.146Z" transform="translate(284 1072.999)" fill="#455a64"/>
    <path id="Path_4925" data-name="Path 4925" d="M25.338,11.162c.009,0,.015.031,0,.077a.317.317,0,0,1-.271.222c-.047,0-.076-.008-.074-.018a.813.813,0,0,0,.2-.11C25.283,11.254,25.318,11.162,25.338,11.162Z" transform="translate(284 1072.999)" fill="#263238"/>
    <path id="Path_4926" data-name="Path 4926" d="M10.02,0a.747.747,0,0,1-.1.012L9.654.036A3.025,3.025,0,0,0,9.21.1c-.088.019-.184.027-.282.057s-.2.06-.313.091a5.234,5.234,0,0,0-1.49.76A5.322,5.322,0,0,0,5.671,2.664a5.688,5.688,0,0,0-.69,3.3c.008.125.035.248.053.374a2.8,2.8,0,0,0,.076.375,5.3,5.3,0,0,0,.584,1.471,5.23,5.23,0,0,0,2.5,2.218,4.838,4.838,0,0,0,1.748.373,4.706,4.706,0,0,0,1.817-.287l.177-.068.023-.008.022.009,2.574,1.271-.075.066-.821-2.451-.009-.031.022-.023A5.45,5.45,0,0,0,14.99,7a5.619,5.619,0,0,0,.168-2.381,5.478,5.478,0,0,0-1.867-3.412A5.694,5.694,0,0,0,12.024.425,5.526,5.526,0,0,0,10.958.1l-.4-.062L10.264.023l-.18-.012A.308.308,0,0,1,10.023,0a.311.311,0,0,1,.061,0h.18l.3.008.406.056a5.37,5.37,0,0,1,1.084.31,5.6,5.6,0,0,1,1.289.783,5.49,5.49,0,0,1,1.2,1.412,5.557,5.557,0,0,1,.717,2.032A5.693,5.693,0,0,1,15.1,7.026a5.537,5.537,0,0,1-1.337,2.3l.009-.054c.271.786.542,1.606.824,2.45l.042.123-.117-.057-2.574-1.27h.045l-.182.069a4.8,4.8,0,0,1-1.858.289,4.937,4.937,0,0,1-1.786-.381A5.334,5.334,0,0,1,5.62,8.227a5.377,5.377,0,0,1-.592-1.49,2.744,2.744,0,0,1-.075-.382c-.018-.127-.046-.252-.053-.379a5.493,5.493,0,0,1-.019-.748,5.767,5.767,0,0,1,.215-1.4,5.7,5.7,0,0,1,.512-1.2A5.35,5.35,0,0,1,7.1.96,5.185,5.185,0,0,1,8.609.209L8.927.122A2.705,2.705,0,0,1,9.21.071,2.811,2.811,0,0,1,9.658.017L9.936,0Z" transform="translate(284 1072.999)" fill="#263238"/>
    <path id="Path_4927" data-name="Path 4927" d="M11.231,4.726h-.375L10.024,3.6l-.008-.749s-.58-.028-.5.948,0,.73,0,.73a6.083,6.083,0,0,0-1.332.127,12.527,12.527,0,0,0-.1,1.965.718.718,0,0,0,.526.725.56.56,0,0,0,.135.016c.308,0,1.873-.271,1.873-.271l.649-.008Z" transform="translate(284 1072.999)" fill="#008083"/>
    <path id="Path_4928" data-name="Path 4928" d="M12.3,4.508l-.2,2.568-.642.008-.028-2.513Z" transform="translate(284 1072.999)" fill="#008083"/>
  </g>
</svg>
