<svg xmlns="http://www.w3.org/2000/svg" width="57.907" height="49.527" viewBox="0 0 57.907 49.527">
  <g id="Group_6038" data-name="Group 6038" transform="translate(-294.629 -611)">
    <path id="Path_4380" data-name="Path 4380" d="M57.907,49.351c0,.019-12.963.033-28.952.033S0,49.37,0,49.351s12.961-.033,28.955-.033S57.907,49.333,57.907,49.351Z" transform="translate(294.629 611.001)" fill="#263238"/>
    <rect id="Rectangle_1891" data-name="Rectangle 1891" width="7.873" height="1.429" transform="translate(299.751 656.055)" fill="#008083"/>
    <path id="Path_4381" data-name="Path 4381" d="M5.893,46.495a7.633,7.633,0,0,1,0-1.418A7.633,7.633,0,0,1,5.893,46.495Z" transform="translate(294.629 611.001)" fill="#263238"/>
    <path id="Path_4382" data-name="Path 4382" d="M5.466,46.495a7.633,7.633,0,0,1,0-1.418A7.633,7.633,0,0,1,5.466,46.495Z" transform="translate(294.629 611.001)" fill="#263238"/>
    <path id="Path_4383" data-name="Path 4383" d="M6.837,46.495a7.633,7.633,0,0,1,0-1.418A7.633,7.633,0,0,1,6.837,46.495Z" transform="translate(294.629 611.001)" fill="#263238"/>
    <path id="Path_4384" data-name="Path 4384" d="M6.41,46.495a7.464,7.464,0,0,1,0-1.418A7.633,7.633,0,0,1,6.41,46.495Z" transform="translate(294.629 611.001)" fill="#263238"/>
    <path id="Path_4385" data-name="Path 4385" d="M7.786,46.495a7.464,7.464,0,0,1,0-1.418A7.633,7.633,0,0,1,7.786,46.495Z" transform="translate(294.629 611.001)" fill="#263238"/>
    <path id="Path_4386" data-name="Path 4386" d="M7.35,46.495a7.633,7.633,0,0,1,0-1.418A7.633,7.633,0,0,1,7.35,46.495Z" transform="translate(294.629 611.001)" fill="#263238"/>
    <path id="Path_4387" data-name="Path 4387" d="M8.732,46.495a7.633,7.633,0,0,1,0-1.418A7.633,7.633,0,0,1,8.732,46.495Z" transform="translate(294.629 611.001)" fill="#263238"/>
    <path id="Path_4388" data-name="Path 4388" d="M8.3,46.495a7.633,7.633,0,0,1,0-1.418A7.633,7.633,0,0,1,8.3,46.495Z" transform="translate(294.629 611.001)" fill="#263238"/>
    <path id="Path_4389" data-name="Path 4389" d="M9.676,46.495a7.633,7.633,0,0,1,0-1.418A7.633,7.633,0,0,1,9.676,46.495Z" transform="translate(294.629 611.001)" fill="#263238"/>
    <path id="Path_4390" data-name="Path 4390" d="M9.246,46.495a7.633,7.633,0,0,1,0-1.418A7.633,7.633,0,0,1,9.246,46.495Z" transform="translate(294.629 611.001)" fill="#263238"/>
    <path id="Path_4391" data-name="Path 4391" d="M10.623,46.495a7.633,7.633,0,0,1,0-1.418A7.633,7.633,0,0,1,10.623,46.495Z" transform="translate(294.629 611.001)" fill="#263238"/>
    <path id="Path_4392" data-name="Path 4392" d="M10.19,46.495a7.633,7.633,0,0,1,0-1.418A7.633,7.633,0,0,1,10.19,46.495Z" transform="translate(294.629 611.001)" fill="#263238"/>
    <path id="Path_4393" data-name="Path 4393" d="M11.569,46.495a7.633,7.633,0,0,1,0-1.418A7.633,7.633,0,0,1,11.569,46.495Z" transform="translate(294.629 611.001)" fill="#263238"/>
    <path id="Path_4394" data-name="Path 4394" d="M11.138,46.495a7.633,7.633,0,0,1,0-1.418A7.633,7.633,0,0,1,11.138,46.495Z" transform="translate(294.629 611.001)" fill="#263238"/>
    <path id="Path_4395" data-name="Path 4395" d="M12.515,46.495a7.633,7.633,0,0,1,0-1.418A7.633,7.633,0,0,1,12.515,46.495Z" transform="translate(294.629 611.001)" fill="#263238"/>
    <path id="Path_4396" data-name="Path 4396" d="M12.084,46.495a7.633,7.633,0,0,1,0-1.418A7.464,7.464,0,0,1,12.084,46.495Z" transform="translate(294.629 611.001)" fill="#263238"/>
    <path id="Path_4397" data-name="Path 4397" d="M12.995,45.054c0,.018-1.775.033-3.964.033s-3.964-.015-3.964-.033,1.775-.033,3.964-.033S12.995,45.035,12.995,45.054Z" transform="translate(294.629 611.001)" fill="#263238"/>
    <rect id="Rectangle_1892" data-name="Rectangle 1892" width="7.873" height="1.429" transform="translate(299.135 657.473)" fill="#008083"/>
    <path id="Path_4398" data-name="Path 4398" d="M5.276,47.911a7.633,7.633,0,0,1,0-1.418A7.633,7.633,0,0,1,5.276,47.911Z" transform="translate(294.629 611.001)" fill="#263238"/>
    <path id="Path_4399" data-name="Path 4399" d="M4.845,47.911a7.633,7.633,0,0,1,0-1.418A7.633,7.633,0,0,1,4.845,47.911Z" transform="translate(294.629 611.001)" fill="#263238"/>
    <path id="Path_4400" data-name="Path 4400" d="M6.22,47.911a7.633,7.633,0,0,1,0-1.418A7.633,7.633,0,0,1,6.22,47.911Z" transform="translate(294.629 611.001)" fill="#263238"/>
    <path id="Path_4401" data-name="Path 4401" d="M5.791,47.911a7.633,7.633,0,0,1,0-1.418A7.633,7.633,0,0,1,5.791,47.911Z" transform="translate(294.629 611.001)" fill="#263238"/>
    <path id="Path_4402" data-name="Path 4402" d="M7.168,47.911a7.633,7.633,0,0,1,0-1.418A7.633,7.633,0,0,1,7.168,47.911Z" transform="translate(294.629 611.001)" fill="#263238"/>
    <path id="Path_4403" data-name="Path 4403" d="M6.737,47.911a7.633,7.633,0,0,1,0-1.418A7.633,7.633,0,0,1,6.737,47.911Z" transform="translate(294.629 611.001)" fill="#263238"/>
    <path id="Path_4404" data-name="Path 4404" d="M8.113,47.911a7.633,7.633,0,0,1,0-1.418A7.633,7.633,0,0,1,8.113,47.911Z" transform="translate(294.629 611.001)" fill="#263238"/>
    <path id="Path_4405" data-name="Path 4405" d="M7.683,47.911a7.633,7.633,0,0,1,0-1.418A7.464,7.464,0,0,1,7.683,47.911Z" transform="translate(294.629 611.001)" fill="#263238"/>
    <path id="Path_4406" data-name="Path 4406" d="M9.061,47.911a7.464,7.464,0,0,1,0-1.418A7.633,7.633,0,0,1,9.061,47.911Z" transform="translate(294.629 611.001)" fill="#263238"/>
    <path id="Path_4407" data-name="Path 4407" d="M8.63,47.911a7.633,7.633,0,0,1,0-1.418A7.633,7.633,0,0,1,8.63,47.911Z" transform="translate(294.629 611.001)" fill="#263238"/>
    <path id="Path_4408" data-name="Path 4408" d="M10.006,47.911a7.633,7.633,0,0,1,0-1.418A7.633,7.633,0,0,1,10.006,47.911Z" transform="translate(294.629 611.001)" fill="#263238"/>
    <path id="Path_4409" data-name="Path 4409" d="M9.576,47.911a7.633,7.633,0,0,1,0-1.418A7.633,7.633,0,0,1,9.576,47.911Z" transform="translate(294.629 611.001)" fill="#263238"/>
    <path id="Path_4410" data-name="Path 4410" d="M10.952,47.911a7.633,7.633,0,0,1,0-1.418A7.633,7.633,0,0,1,10.952,47.911Z" transform="translate(294.629 611.001)" fill="#263238"/>
    <path id="Path_4411" data-name="Path 4411" d="M10.521,47.911a7.633,7.633,0,0,1,0-1.418A7.633,7.633,0,0,1,10.521,47.911Z" transform="translate(294.629 611.001)" fill="#263238"/>
    <path id="Path_4412" data-name="Path 4412" d="M11.9,47.911a7.633,7.633,0,0,1,0-1.418A7.633,7.633,0,0,1,11.9,47.911Z" transform="translate(294.629 611.001)" fill="#263238"/>
    <path id="Path_4413" data-name="Path 4413" d="M11.467,47.911a7.633,7.633,0,0,1,0-1.418A7.633,7.633,0,0,1,11.467,47.911Z" transform="translate(294.629 611.001)" fill="#263238"/>
    <path id="Path_4414" data-name="Path 4414" d="M12.374,46.472c0,.018-1.771.033-3.955.033s-3.954-.015-3.954-.033,1.77-.033,3.954-.033S12.374,46.454,12.374,46.472Z" transform="translate(294.629 611.001)" fill="#263238"/>
    <rect id="Rectangle_1893" data-name="Rectangle 1893" width="7.873" height="1.429" transform="translate(298.628 658.912)" fill="#008083"/>
    <path id="Path_4415" data-name="Path 4415" d="M4.77,49.351a7.633,7.633,0,0,1,0-1.418A7.633,7.633,0,0,1,4.77,49.351Z" transform="translate(294.629 611.001)" fill="#263238"/>
    <path id="Path_4416" data-name="Path 4416" d="M4.335,49.351a7.633,7.633,0,0,1,0-1.418A7.633,7.633,0,0,1,4.335,49.351Z" transform="translate(294.629 611.001)" fill="#263238"/>
    <path id="Path_4417" data-name="Path 4417" d="M5.717,49.351a7.633,7.633,0,0,1,0-1.418A7.633,7.633,0,0,1,5.717,49.351Z" transform="translate(294.629 611.001)" fill="#263238"/>
    <path id="Path_4418" data-name="Path 4418" d="M5.285,49.351a7.633,7.633,0,0,1,0-1.418A7.464,7.464,0,0,1,5.285,49.351Z" transform="translate(294.629 611.001)" fill="#263238"/>
    <path id="Path_4419" data-name="Path 4419" d="M6.661,49.351a7.633,7.633,0,0,1,0-1.418A7.464,7.464,0,0,1,6.661,49.351Z" transform="translate(294.629 611.001)" fill="#263238"/>
    <path id="Path_4420" data-name="Path 4420" d="M6.232,49.351a7.633,7.633,0,0,1,0-1.418A7.633,7.633,0,0,1,6.232,49.351Z" transform="translate(294.629 611.001)" fill="#263238"/>
    <path id="Path_4421" data-name="Path 4421" d="M7.608,49.351a7.633,7.633,0,0,1,0-1.418A7.633,7.633,0,0,1,7.608,49.351Z" transform="translate(294.629 611.001)" fill="#263238"/>
    <path id="Path_4422" data-name="Path 4422" d="M7.176,49.351a7.633,7.633,0,0,1,0-1.418A7.633,7.633,0,0,1,7.176,49.351Z" transform="translate(294.629 611.001)" fill="#263238"/>
    <path id="Path_4423" data-name="Path 4423" d="M8.554,49.351a7.633,7.633,0,0,1,0-1.418A7.633,7.633,0,0,1,8.554,49.351Z" transform="translate(294.629 611.001)" fill="#263238"/>
    <path id="Path_4424" data-name="Path 4424" d="M8.124,49.351a7.633,7.633,0,0,1,0-1.418A7.633,7.633,0,0,1,8.124,49.351Z" transform="translate(294.629 611.001)" fill="#263238"/>
    <path id="Path_4425" data-name="Path 4425" d="M9.5,49.351a7.633,7.633,0,0,1,0-1.418A7.633,7.633,0,0,1,9.5,49.351Z" transform="translate(294.629 611.001)" fill="#263238"/>
    <path id="Path_4426" data-name="Path 4426" d="M9.069,49.351a7.633,7.633,0,0,1,0-1.418A7.633,7.633,0,0,1,9.069,49.351Z" transform="translate(294.629 611.001)" fill="#263238"/>
    <path id="Path_4427" data-name="Path 4427" d="M10.446,49.351a7.633,7.633,0,0,1,0-1.418A7.633,7.633,0,0,1,10.446,49.351Z" transform="translate(294.629 611.001)" fill="#263238"/>
    <path id="Path_4428" data-name="Path 4428" d="M10.015,49.351a7.633,7.633,0,0,1,0-1.418A7.633,7.633,0,0,1,10.015,49.351Z" transform="translate(294.629 611.001)" fill="#263238"/>
    <path id="Path_4429" data-name="Path 4429" d="M11.392,49.351a7.633,7.633,0,0,1,0-1.418A7.633,7.633,0,0,1,11.392,49.351Z" transform="translate(294.629 611.001)" fill="#263238"/>
    <path id="Path_4430" data-name="Path 4430" d="M10.961,49.351a7.633,7.633,0,0,1,0-1.418A7.633,7.633,0,0,1,10.961,49.351Z" transform="translate(294.629 611.001)" fill="#263238"/>
    <path id="Path_4431" data-name="Path 4431" d="M11.872,47.912c0,.019-1.771.033-3.954.033s-3.959-.014-3.959-.033,1.77-.033,3.955-.033S11.872,47.892,11.872,47.912Z" transform="translate(294.629 611.001)" fill="#263238"/>
    <path id="Path_4432" data-name="Path 4432" d="M5.575,46.486a12.051,12.051,0,0,0,3.642.265c1.207-.08,2.428-.257,3.642-.244Z" transform="translate(294.629 611.001)"/>
    <path id="Path_4433" data-name="Path 4433" d="M4.1,47.93a12.018,12.018,0,0,0,3.642.264c1.208-.08,2.428-.258,3.642-.242Z" transform="translate(294.629 611.001)"/>
    <path id="Path_4434" data-name="Path 4434" d="M5.394,45.139c0,.018-.044.033-.1.033s-.1-.015-.1-.033.044-.034.1-.034S5.394,45.12,5.394,45.139Z" transform="translate(294.629 611.001)" fill="#fff"/>
    <path id="Path_4435" data-name="Path 4435" d="M6.489,45.143a3.156,3.156,0,0,1-.9,0A3.155,3.155,0,0,1,6.489,45.143Z" transform="translate(294.629 611.001)" fill="#fff"/>
    <path id="Path_4436" data-name="Path 4436" d="M7.737,45.143a3.156,3.156,0,0,1-.9,0A3.155,3.155,0,0,1,7.737,45.143Z" transform="translate(294.629 611.001)" fill="#fff"/>
    <rect id="Rectangle_1894" data-name="Rectangle 1894" width="8.469" height="1.539" transform="translate(342.926 652.606)" fill="#008083"/>
    <path id="Path_4437" data-name="Path 4437" d="M49.126,43.154a8.264,8.264,0,0,1,0-1.525A8.264,8.264,0,0,1,49.126,43.154Z" transform="translate(294.629 611.001)" fill="#263238"/>
    <path id="Path_4438" data-name="Path 4438" d="M48.663,43.154a8.265,8.265,0,0,1,0-1.525A8.264,8.264,0,0,1,48.663,43.154Z" transform="translate(294.629 611.001)" fill="#263238"/>
    <path id="Path_4439" data-name="Path 4439" d="M50.144,43.154a8.264,8.264,0,0,1,0-1.525A8.264,8.264,0,0,1,50.144,43.154Z" transform="translate(294.629 611.001)" fill="#263238"/>
    <path id="Path_4440" data-name="Path 4440" d="M49.677,43.154a8.265,8.265,0,0,1,0-1.525A7.928,7.928,0,0,1,49.677,43.154Z" transform="translate(294.629 611.001)" fill="#263238"/>
    <path id="Path_4441" data-name="Path 4441" d="M51.163,43.154a7.929,7.929,0,0,1,0-1.525A8.264,8.264,0,0,1,51.163,43.154Z" transform="translate(294.629 611.001)" fill="#263238"/>
    <path id="Path_4442" data-name="Path 4442" d="M50.7,43.154a8.264,8.264,0,0,1,0-1.525A8.265,8.265,0,0,1,50.7,43.154Z" transform="translate(294.629 611.001)" fill="#263238"/>
    <path id="Path_4443" data-name="Path 4443" d="M52.18,43.154a8.264,8.264,0,0,1,0-1.525A8.264,8.264,0,0,1,52.18,43.154Z" transform="translate(294.629 611.001)" fill="#263238"/>
    <path id="Path_4444" data-name="Path 4444" d="M51.716,43.154a8.264,8.264,0,0,1,0-1.525A8.264,8.264,0,0,1,51.716,43.154Z" transform="translate(294.629 611.001)" fill="#263238"/>
    <path id="Path_4445" data-name="Path 4445" d="M53.195,43.154a8.264,8.264,0,0,1,0-1.525A8.264,8.264,0,0,1,53.195,43.154Z" transform="translate(294.629 611.001)" fill="#263238"/>
    <path id="Path_4446" data-name="Path 4446" d="M52.734,43.154a8.264,8.264,0,0,1,0-1.525A8.265,8.265,0,0,1,52.734,43.154Z" transform="translate(294.629 611.001)" fill="#263238"/>
    <path id="Path_4447" data-name="Path 4447" d="M54.215,43.154a8.264,8.264,0,0,1,0-1.525A8.264,8.264,0,0,1,54.215,43.154Z" transform="translate(294.629 611.001)" fill="#263238"/>
    <path id="Path_4448" data-name="Path 4448" d="M53.751,43.154a8.264,8.264,0,0,1,0-1.525A7.929,7.929,0,0,1,53.751,43.154Z" transform="translate(294.629 611.001)" fill="#263238"/>
    <path id="Path_4449" data-name="Path 4449" d="M55.233,43.154a8.264,8.264,0,0,1,0-1.525A8.265,8.265,0,0,1,55.233,43.154Z" transform="translate(294.629 611.001)" fill="#263238"/>
    <path id="Path_4450" data-name="Path 4450" d="M54.775,43.154a8.264,8.264,0,0,1,0-1.525A8.265,8.265,0,0,1,54.775,43.154Z" transform="translate(294.629 611.001)" fill="#263238"/>
    <path id="Path_4451" data-name="Path 4451" d="M56.25,43.154a8.264,8.264,0,0,1,0-1.525A8.264,8.264,0,0,1,56.25,43.154Z" transform="translate(294.629 611.001)" fill="#263238"/>
    <path id="Path_4452" data-name="Path 4452" d="M55.792,43.154a8.264,8.264,0,0,1,0-1.525A8.264,8.264,0,0,1,55.792,43.154Z" transform="translate(294.629 611.001)" fill="#263238"/>
    <path id="Path_4453" data-name="Path 4453" d="M56.768,41.611c0,.02-1.905.035-4.255.035s-4.254-.015-4.254-.035,1.9-.035,4.254-.035S56.768,41.586,56.768,41.611Z" transform="translate(294.629 611.001)" fill="#263238"/>
    <rect id="Rectangle_1895" data-name="Rectangle 1895" width="8.469" height="1.539" transform="translate(342.371 654.169)" fill="#008083"/>
    <path id="Path_4454" data-name="Path 4454" d="M48.573,44.72a8.275,8.275,0,0,1,0-1.526A8.276,8.276,0,0,1,48.573,44.72Z" transform="translate(294.629 611.001)" fill="#263238"/>
    <path id="Path_4455" data-name="Path 4455" d="M48.11,44.72a8.275,8.275,0,0,1,0-1.526A8.275,8.275,0,0,1,48.11,44.72Z" transform="translate(294.629 611.001)" fill="#263238"/>
    <path id="Path_4456" data-name="Path 4456" d="M49.591,44.72a8.275,8.275,0,0,1,0-1.526A8.275,8.275,0,0,1,49.591,44.72Z" transform="translate(294.629 611.001)" fill="#263238"/>
    <path id="Path_4457" data-name="Path 4457" d="M49.127,44.72a8.276,8.276,0,0,1,0-1.526A8.275,8.275,0,0,1,49.127,44.72Z" transform="translate(294.629 611.001)" fill="#263238"/>
    <path id="Path_4458" data-name="Path 4458" d="M50.608,44.72a8.275,8.275,0,0,1,0-1.526A8.276,8.276,0,0,1,50.608,44.72Z" transform="translate(294.629 611.001)" fill="#263238"/>
    <path id="Path_4459" data-name="Path 4459" d="M50.144,44.72a8.275,8.275,0,0,1,0-1.526A8.275,8.275,0,0,1,50.144,44.72Z" transform="translate(294.629 611.001)" fill="#263238"/>
    <path id="Path_4460" data-name="Path 4460" d="M51.625,44.72a8.275,8.275,0,0,1,0-1.526A8.275,8.275,0,0,1,51.625,44.72Z" transform="translate(294.629 611.001)" fill="#263238"/>
    <path id="Path_4461" data-name="Path 4461" d="M51.163,44.72a7.939,7.939,0,0,1,0-1.526A8.275,8.275,0,0,1,51.163,44.72Z" transform="translate(294.629 611.001)" fill="#263238"/>
    <path id="Path_4462" data-name="Path 4462" d="M52.644,44.72a8.275,8.275,0,0,1,0-1.526A8.275,8.275,0,0,1,52.644,44.72Z" transform="translate(294.629 611.001)" fill="#263238"/>
    <path id="Path_4463" data-name="Path 4463" d="M52.181,44.72a8.275,8.275,0,0,1,0-1.526A8.275,8.275,0,0,1,52.181,44.72Z" transform="translate(294.629 611.001)" fill="#263238"/>
    <path id="Path_4464" data-name="Path 4464" d="M53.661,44.72a8.275,8.275,0,0,1,0-1.526A8.275,8.275,0,0,1,53.661,44.72Z" transform="translate(294.629 611.001)" fill="#263238"/>
    <path id="Path_4465" data-name="Path 4465" d="M53.2,44.72a8.275,8.275,0,0,1,0-1.526A8.275,8.275,0,0,1,53.2,44.72Z" transform="translate(294.629 611.001)" fill="#263238"/>
    <path id="Path_4466" data-name="Path 4466" d="M54.678,44.72a8.275,8.275,0,0,1,0-1.526A8.276,8.276,0,0,1,54.678,44.72Z" transform="translate(294.629 611.001)" fill="#263238"/>
    <path id="Path_4467" data-name="Path 4467" d="M54.215,44.72a8.275,8.275,0,0,1,0-1.526A8.275,8.275,0,0,1,54.215,44.72Z" transform="translate(294.629 611.001)" fill="#263238"/>
    <path id="Path_4468" data-name="Path 4468" d="M55.7,44.72a8.275,8.275,0,0,1,0-1.526A8.275,8.275,0,0,1,55.7,44.72Z" transform="translate(294.629 611.001)" fill="#263238"/>
    <path id="Path_4469" data-name="Path 4469" d="M55.234,44.72a8.275,8.275,0,0,1,0-1.526A8.276,8.276,0,0,1,55.234,44.72Z" transform="translate(294.629 611.001)" fill="#263238"/>
    <path id="Path_4470" data-name="Path 4470" d="M56.209,43.167c0,.02-1.9.035-4.254.035s-4.254-.015-4.254-.035,1.9-.035,4.254-.035S56.209,43.148,56.209,43.167Z" transform="translate(294.629 611.001)" fill="#263238"/>
    <rect id="Rectangle_1896" data-name="Rectangle 1896" width="8.469" height="1.539" transform="translate(343.063 655.717)" fill="#008083"/>
    <path id="Path_4471" data-name="Path 4471" d="M49.265,46.265a8.275,8.275,0,0,1,0-1.526A8.275,8.275,0,0,1,49.265,46.265Z" transform="translate(294.629 611.001)" fill="#263238"/>
    <path id="Path_4472" data-name="Path 4472" d="M48.8,46.265a8.275,8.275,0,0,1,0-1.526A8.275,8.275,0,0,1,48.8,46.265Z" transform="translate(294.629 611.001)" fill="#263238"/>
    <path id="Path_4473" data-name="Path 4473" d="M50.283,46.265a8.275,8.275,0,0,1,0-1.526A8.275,8.275,0,0,1,50.283,46.265Z" transform="translate(294.629 611.001)" fill="#263238"/>
    <path id="Path_4474" data-name="Path 4474" d="M49.819,46.265a8.275,8.275,0,0,1,0-1.526A8.275,8.275,0,0,1,49.819,46.265Z" transform="translate(294.629 611.001)" fill="#263238"/>
    <path id="Path_4475" data-name="Path 4475" d="M51.3,46.265a8.275,8.275,0,0,1,0-1.526A8.275,8.275,0,0,1,51.3,46.265Z" transform="translate(294.629 611.001)" fill="#263238"/>
    <path id="Path_4476" data-name="Path 4476" d="M50.837,46.265a8.275,8.275,0,0,1,0-1.526A8.276,8.276,0,0,1,50.837,46.265Z" transform="translate(294.629 611.001)" fill="#263238"/>
    <path id="Path_4477" data-name="Path 4477" d="M52.316,46.265a8.275,8.275,0,0,1,0-1.526A7.939,7.939,0,0,1,52.316,46.265Z" transform="translate(294.629 611.001)" fill="#263238"/>
    <path id="Path_4478" data-name="Path 4478" d="M51.855,46.265a8.275,8.275,0,0,1,0-1.526A8.275,8.275,0,0,1,51.855,46.265Z" transform="translate(294.629 611.001)" fill="#263238"/>
    <path id="Path_4479" data-name="Path 4479" d="M53.336,46.265a8.276,8.276,0,0,1,0-1.526A8.275,8.275,0,0,1,53.336,46.265Z" transform="translate(294.629 611.001)" fill="#263238"/>
    <path id="Path_4480" data-name="Path 4480" d="M52.872,46.265a8.275,8.275,0,0,1,0-1.526A8.276,8.276,0,0,1,52.872,46.265Z" transform="translate(294.629 611.001)" fill="#263238"/>
    <path id="Path_4481" data-name="Path 4481" d="M54.353,46.265a8.275,8.275,0,0,1,0-1.526A8.275,8.275,0,0,1,54.353,46.265Z" transform="translate(294.629 611.001)" fill="#263238"/>
    <path id="Path_4482" data-name="Path 4482" d="M53.89,46.265a8.275,8.275,0,0,1,0-1.526A8.275,8.275,0,0,1,53.89,46.265Z" transform="translate(294.629 611.001)" fill="#263238"/>
    <path id="Path_4483" data-name="Path 4483" d="M55.371,46.265a8.276,8.276,0,0,1,0-1.526A8.275,8.275,0,0,1,55.371,46.265Z" transform="translate(294.629 611.001)" fill="#263238"/>
    <path id="Path_4484" data-name="Path 4484" d="M54.907,46.265a8.275,8.275,0,0,1,0-1.526A8.276,8.276,0,0,1,54.907,46.265Z" transform="translate(294.629 611.001)" fill="#263238"/>
    <path id="Path_4485" data-name="Path 4485" d="M56.388,46.265a8.275,8.275,0,0,1,0-1.526A7.939,7.939,0,0,1,56.388,46.265Z" transform="translate(294.629 611.001)" fill="#263238"/>
    <path id="Path_4486" data-name="Path 4486" d="M55.926,46.265a8.276,8.276,0,0,1,0-1.526A8.275,8.275,0,0,1,55.926,46.265Z" transform="translate(294.629 611.001)" fill="#263238"/>
    <path id="Path_4487" data-name="Path 4487" d="M56.9,44.716c0,.02-1.909.035-4.264.035s-4.271-.015-4.271-.035,1.909-.035,4.271-.035S56.9,44.7,56.9,44.716Z" transform="translate(294.629 611.001)" fill="#263238"/>
    <rect id="Rectangle_1897" data-name="Rectangle 1897" width="8.469" height="1.539" transform="translate(342.399 657.243)" fill="#008083"/>
    <path id="Path_4488" data-name="Path 4488" d="M48.6,47.791a8.275,8.275,0,0,1,0-1.526A8.276,8.276,0,0,1,48.6,47.791Z" transform="translate(294.629 611.001)" fill="#263238"/>
    <path id="Path_4489" data-name="Path 4489" d="M48.137,47.791a8.275,8.275,0,0,1,0-1.526A8.276,8.276,0,0,1,48.137,47.791Z" transform="translate(294.629 611.001)" fill="#263238"/>
    <path id="Path_4490" data-name="Path 4490" d="M49.618,47.791a8.275,8.275,0,0,1,0-1.526A8.275,8.275,0,0,1,49.618,47.791Z" transform="translate(294.629 611.001)" fill="#263238"/>
    <path id="Path_4491" data-name="Path 4491" d="M49.155,47.791a8.276,8.276,0,0,1,0-1.526A7.939,7.939,0,0,1,49.155,47.791Z" transform="translate(294.629 611.001)" fill="#263238"/>
    <path id="Path_4492" data-name="Path 4492" d="M50.637,47.791a8.275,8.275,0,0,1,0-1.526A8.276,8.276,0,0,1,50.637,47.791Z" transform="translate(294.629 611.001)" fill="#263238"/>
    <path id="Path_4493" data-name="Path 4493" d="M50.174,47.791a8.275,8.275,0,0,1,0-1.526A8.275,8.275,0,0,1,50.174,47.791Z" transform="translate(294.629 611.001)" fill="#263238"/>
    <path id="Path_4494" data-name="Path 4494" d="M51.654,47.791a8.275,8.275,0,0,1,0-1.526A8.275,8.275,0,0,1,51.654,47.791Z" transform="translate(294.629 611.001)" fill="#263238"/>
    <path id="Path_4495" data-name="Path 4495" d="M51.186,47.791a8.275,8.275,0,0,1,0-1.526A8.275,8.275,0,0,1,51.186,47.791Z" transform="translate(294.629 611.001)" fill="#263238"/>
    <path id="Path_4496" data-name="Path 4496" d="M52.671,47.791a8.275,8.275,0,0,1,0-1.526A8.276,8.276,0,0,1,52.671,47.791Z" transform="translate(294.629 611.001)" fill="#263238"/>
    <path id="Path_4497" data-name="Path 4497" d="M52.208,47.791a8.275,8.275,0,0,1,0-1.526A8.275,8.275,0,0,1,52.208,47.791Z" transform="translate(294.629 611.001)" fill="#263238"/>
    <path id="Path_4498" data-name="Path 4498" d="M53.689,47.791a8.275,8.275,0,0,1,0-1.526A8.275,8.275,0,0,1,53.689,47.791Z" transform="translate(294.629 611.001)" fill="#263238"/>
    <path id="Path_4499" data-name="Path 4499" d="M53.23,47.791a7.939,7.939,0,0,1,0-1.526A8.275,8.275,0,0,1,53.23,47.791Z" transform="translate(294.629 611.001)" fill="#263238"/>
    <path id="Path_4500" data-name="Path 4500" d="M54.7,47.791a8.275,8.275,0,0,1,0-1.526A8.275,8.275,0,0,1,54.7,47.791Z" transform="translate(294.629 611.001)" fill="#263238"/>
    <path id="Path_4501" data-name="Path 4501" d="M54.239,47.791a8.276,8.276,0,0,1,0-1.526A8.275,8.275,0,0,1,54.239,47.791Z" transform="translate(294.629 611.001)" fill="#263238"/>
    <path id="Path_4502" data-name="Path 4502" d="M55.725,47.791a8.276,8.276,0,0,1,0-1.526A8.275,8.275,0,0,1,55.725,47.791Z" transform="translate(294.629 611.001)" fill="#263238"/>
    <path id="Path_4503" data-name="Path 4503" d="M55.256,47.791a8.275,8.275,0,0,1,0-1.526A8.275,8.275,0,0,1,55.256,47.791Z" transform="translate(294.629 611.001)" fill="#263238"/>
    <path id="Path_4504" data-name="Path 4504" d="M56.242,46.242c0,.02-1.9.035-4.255.035s-4.254-.015-4.254-.035,1.9-.035,4.254-.035S56.242,46.223,56.242,46.242Z" transform="translate(294.629 611.001)" fill="#263238"/>
    <rect id="Rectangle_1898" data-name="Rectangle 1898" width="8.469" height="1.539" transform="translate(343.248 658.803)" fill="#008083"/>
    <path id="Path_4505" data-name="Path 4505" d="M49.45,49.355a8.275,8.275,0,0,1,0-1.526A8.275,8.275,0,0,1,49.45,49.355Z" transform="translate(294.629 611.001)" fill="#263238"/>
    <path id="Path_4506" data-name="Path 4506" d="M48.986,49.355a8.275,8.275,0,0,1,0-1.526A8.275,8.275,0,0,1,48.986,49.355Z" transform="translate(294.629 611.001)" fill="#263238"/>
    <path id="Path_4507" data-name="Path 4507" d="M50.467,49.355a8.275,8.275,0,0,1,0-1.526A8.275,8.275,0,0,1,50.467,49.355Z" transform="translate(294.629 611.001)" fill="#263238"/>
    <path id="Path_4508" data-name="Path 4508" d="M50,49.355a8.275,8.275,0,0,1,0-1.526A8.276,8.276,0,0,1,50,49.355Z" transform="translate(294.629 611.001)" fill="#263238"/>
    <path id="Path_4509" data-name="Path 4509" d="M51.485,49.355a8.275,8.275,0,0,1,0-1.526A8.275,8.275,0,0,1,51.485,49.355Z" transform="translate(294.629 611.001)" fill="#263238"/>
    <path id="Path_4510" data-name="Path 4510" d="M51.022,49.355a7.939,7.939,0,0,1,0-1.526A8.275,8.275,0,0,1,51.022,49.355Z" transform="translate(294.629 611.001)" fill="#263238"/>
    <path id="Path_4511" data-name="Path 4511" d="M52.5,49.355a8.276,8.276,0,0,1,0-1.526A8.275,8.275,0,0,1,52.5,49.355Z" transform="translate(294.629 611.001)" fill="#263238"/>
    <path id="Path_4512" data-name="Path 4512" d="M52.04,49.355a8.275,8.275,0,0,1,0-1.526A8.275,8.275,0,0,1,52.04,49.355Z" transform="translate(294.629 611.001)" fill="#263238"/>
    <path id="Path_4513" data-name="Path 4513" d="M53.52,49.355a8.275,8.275,0,0,1,0-1.526A8.275,8.275,0,0,1,53.52,49.355Z" transform="translate(294.629 611.001)" fill="#263238"/>
    <path id="Path_4514" data-name="Path 4514" d="M53.057,49.355a8.275,8.275,0,0,1,0-1.526A8.275,8.275,0,0,1,53.057,49.355Z" transform="translate(294.629 611.001)" fill="#263238"/>
    <path id="Path_4515" data-name="Path 4515" d="M54.538,49.355a8.276,8.276,0,0,1,0-1.526A8.275,8.275,0,0,1,54.538,49.355Z" transform="translate(294.629 611.001)" fill="#263238"/>
    <path id="Path_4516" data-name="Path 4516" d="M54.074,49.355a8.275,8.275,0,0,1,0-1.526A8.276,8.276,0,0,1,54.074,49.355Z" transform="translate(294.629 611.001)" fill="#263238"/>
    <path id="Path_4517" data-name="Path 4517" d="M55.555,49.355a8.275,8.275,0,0,1,0-1.526A8.275,8.275,0,0,1,55.555,49.355Z" transform="translate(294.629 611.001)" fill="#263238"/>
    <path id="Path_4518" data-name="Path 4518" d="M55.093,49.355a8.276,8.276,0,0,1,0-1.526A8.275,8.275,0,0,1,55.093,49.355Z" transform="translate(294.629 611.001)" fill="#263238"/>
    <path id="Path_4519" data-name="Path 4519" d="M56.574,49.355a8.275,8.275,0,0,1,0-1.526A8.276,8.276,0,0,1,56.574,49.355Z" transform="translate(294.629 611.001)" fill="#263238"/>
    <path id="Path_4520" data-name="Path 4520" d="M56.11,49.355a8.275,8.275,0,0,1,0-1.526A8.275,8.275,0,0,1,56.11,49.355Z" transform="translate(294.629 611.001)" fill="#263238"/>
    <path id="Path_4521" data-name="Path 4521" d="M57.088,47.8c0,.02-1.9.035-4.254.035s-4.254-.015-4.254-.035,1.9-.035,4.254-.035S57.088,47.783,57.088,47.8Z" transform="translate(294.629 611.001)" fill="#263238"/>
    <path id="Path_4522" data-name="Path 4522" d="M48.434,44.716A12.927,12.927,0,0,0,52.346,45c1.3-.087,2.613-.278,3.915-.263Z" transform="translate(294.629 611.001)"/>
    <path id="Path_4523" data-name="Path 4523" d="M48.511,43.185a12.894,12.894,0,0,0,3.912.285c1.3-.087,2.613-.278,3.915-.263Z" transform="translate(294.629 611.001)"/>
    <path id="Path_4524" data-name="Path 4524" d="M48.925,46.259a12.9,12.9,0,0,0,3.913.285c1.3-.087,2.613-.278,3.915-.261Z" transform="translate(294.629 611.001)"/>
    <path id="Path_4525" data-name="Path 4525" d="M48.589,47.793a12.932,12.932,0,0,0,3.913.284c1.3-.085,2.613-.278,3.915-.261Z" transform="translate(294.629 611.001)"/>
    <path id="Path_4526" data-name="Path 4526" d="M48.457,42.658a2.538,2.538,0,0,1,0-.843A2.538,2.538,0,0,1,48.457,42.658Z" transform="translate(294.629 611.001)" fill="#fff"/>
    <path id="Path_4527" data-name="Path 4527" d="M47.919,44.3a2.89,2.89,0,0,1,0-.9A2.89,2.89,0,0,1,47.919,44.3Z" transform="translate(294.629 611.001)" fill="#fff"/>
    <path id="Path_4528" data-name="Path 4528" d="M48.673,45.881a2.287,2.287,0,0,1,0-.8A2.287,2.287,0,0,1,48.673,45.881Z" transform="translate(294.629 611.001)" fill="#fff"/>
    <path id="Path_4529" data-name="Path 4529" d="M47.9,47.341a1.846,1.846,0,0,1,0-.718A1.846,1.846,0,0,1,47.9,47.341Z" transform="translate(294.629 611.001)" fill="#fff"/>
    <path id="Path_4530" data-name="Path 4530" d="M51,43.294c0,.019-.628.035-1.4.035s-1.4-.016-1.4-.035a27.682,27.682,0,0,1,2.793,0Z" transform="translate(294.629 611.001)" fill="#fff"/>
    <path id="Path_4531" data-name="Path 4531" d="M51.9,41.815a28.117,28.117,0,0,1-2.815,0c0-.019.628-.035,1.407-.035S51.9,41.8,51.9,41.815Z" transform="translate(294.629 611.001)" fill="#fff"/>
    <path id="Path_4532" data-name="Path 4532" d="M53.259,41.836a3.045,3.045,0,0,1-.924,0A3.045,3.045,0,0,1,53.259,41.836Z" transform="translate(294.629 611.001)" fill="#fff"/>
    <path id="Path_4533" data-name="Path 4533" d="M10.216,9.922l3.57,1.835,5.186-3.382L20.713,10.5,15.19,14.866H11.3L8.875,11.428Z" transform="translate(294.629 611.001)" fill="#455a64"/>
    <path id="Path_4534" data-name="Path 4534" d="M11.3,14.871h0L8.871,11.43h0l1.343-1.507h0l3.568,1.835,5.187-3.382h0L20.711,10.5h0l-5.526,4.367H11.291Z" transform="translate(294.629 611.001)" fill="#455a64"/>
    <path id="Path_4535" data-name="Path 4535" d="M10.217,9.92l3.57,1.835,5.268-3.487L20.714,10.5l-5.523,4.366H11.3L8.876,11.425Z" transform="translate(294.629 611.001)"/>
    <path id="Path_4536" data-name="Path 4536" d="M29.222,10a6.782,6.782,0,1,1-3.736-8.834l.023.01A6.772,6.772,0,0,1,29.222,10Z" transform="translate(294.629 611.001)" fill="#f78104"/>
    <path id="Path_4537" data-name="Path 4537" d="M27.729,9.388a5.165,5.165,0,1,1-2.841-6.729H24.9a5.16,5.16,0,0,1,2.83,6.726Z" transform="translate(294.629 611.001)" fill="#f78104"/>
    <path id="Path_4538" data-name="Path 4538" d="M27.728,9.388a.587.587,0,0,1,.023-.082l.073-.226c.016-.052.036-.109.057-.171s.033-.136.05-.212a3.708,3.708,0,0,0,.1-.533,4.9,4.9,0,0,0-.016-1.481,5.128,5.128,0,0,0-4.866-4.341,5.528,5.528,0,0,0-.728.018c-.126.013-.244.038-.365.055a2.694,2.694,0,0,0-.367.079,4.726,4.726,0,0,0-1.4.587,4.941,4.941,0,0,0-1.208,1.024A5.029,5.029,0,0,0,17.86,7.087,4.94,4.94,0,0,0,18,8.666a5.926,5.926,0,0,0,.24.737,5.9,5.9,0,0,0,.35.674,5.6,5.6,0,0,0,.428.609,5.478,5.478,0,0,0,.5.522,5.141,5.141,0,0,0,6.515.315,4.949,4.949,0,0,0,1.049-1.045,3.667,3.667,0,0,0,.3-.45c.041-.068.082-.126.113-.187l.079-.162.109-.22a.518.518,0,0,1,.04-.073.662.662,0,0,1-.03.078c-.025.055-.058.126-.1.225l-.075.166c-.03.059-.069.126-.109.19a3.537,3.537,0,0,1-.3.458,4.906,4.906,0,0,1-1.046,1.068,5.19,5.19,0,0,1-6.618-.289,4.769,4.769,0,0,1-.956-1.152,5.911,5.911,0,0,1-.359-.688,6.058,6.058,0,0,1-.251-.754,5.023,5.023,0,0,1-.149-1.611A5.148,5.148,0,0,1,18.98,4.032a5.092,5.092,0,0,1,1.236-1.044,5.8,5.8,0,0,1,.7-.363,5.882,5.882,0,0,1,.742-.239,2.87,2.87,0,0,1,.377-.079c.126-.019.251-.043.377-.055a5.409,5.409,0,0,1,.742-.018,5.171,5.171,0,0,1,4.91,4.432,4.866,4.866,0,0,1,0,1.5,3.48,3.48,0,0,1-.111.535c-.02.077-.035.148-.055.212l-.063.17-.087.231A.7.7,0,0,1,27.728,9.388Z" transform="translate(294.629 611.001)" fill="#263238"/>
    <path id="Path_4539" data-name="Path 4539" d="M27.671,9.424a3.04,3.04,0,0,1,.111-.628,5.526,5.526,0,0,0,.053-1.688,5.215,5.215,0,0,0-.271-1.13,5.073,5.073,0,0,0-.609-1.171,4.96,4.96,0,0,0-3.864-2.126,5.044,5.044,0,0,0-1.443.149,5.113,5.113,0,0,0-1.227.486,5.259,5.259,0,0,0-.942.673,5.537,5.537,0,0,0-1.068,1.322,3.04,3.04,0,0,1-.327.545c-.029-.011.024-.235.192-.615a4.812,4.812,0,0,1,1-1.444,5.194,5.194,0,0,1,2.275-1.314A5.276,5.276,0,0,1,23.1,2.3a5.173,5.173,0,0,1,.823.094,5.17,5.17,0,0,1,1.59.593,5.119,5.119,0,0,1,.683.467A5.265,5.265,0,0,1,27.251,4.6a5.159,5.159,0,0,1,.858,2.472,4.814,4.814,0,0,1-.181,1.758C27.808,9.23,27.7,9.431,27.671,9.424Z" transform="translate(294.629 611.001)"/>
    <path id="Path_4540" data-name="Path 4540" d="M5.651,3.906,6.21,9.458c.1.945.428,2.311,1.913,2.093h0A2.038,2.038,0,0,0,9.512,9.122c-.043-.418-.078-.766-.079-.809a1.692,1.692,0,0,0,1.36-1.684c-.019-.681-.172-2.08-.325-3.344A2.624,2.624,0,0,0,7.758.976H7.622A2.375,2.375,0,0,0,5.6,3.658,2.313,2.313,0,0,0,5.651,3.906Z" transform="translate(294.629 611.001)" fill="#ffbe9d"/>
    <path id="Path_4541" data-name="Path 4541" d="M9.432,8.311a3.412,3.412,0,0,1-1.855-.469,1.767,1.767,0,0,0,1.884.826Z" transform="translate(294.629 611.001)" fill="#eb996e"/>
    <path id="Path_4542" data-name="Path 4542" d="M8.147,4.124c-.024.031-.2-.079-.435-.059s-.4.154-.425.126.01-.067.08-.126A.576.576,0,0,1,7.7,3.927a.558.558,0,0,1,.349.084C8.131,4.057,8.155,4.111,8.147,4.124Z" transform="translate(294.629 611.001)" fill="#263238"/>
    <path id="Path_4543" data-name="Path 4543" d="M8.194,4.706a.19.19,0,0,1-.175.2.181.181,0,0,1-.2-.159h0a.191.191,0,0,1,.176-.2.181.181,0,0,1,.2.157Z" transform="translate(294.629 611.001)" fill="#263238"/>
    <path id="Path_4544" data-name="Path 4544" d="M8.916,5.69a1.494,1.494,0,0,1,.349-.078c.055-.008.107-.02.114-.059a.274.274,0,0,0-.044-.162c-.057-.126-.117-.269-.18-.414a7.138,7.138,0,0,1-.411-1.085,6.916,6.916,0,0,1,.5,1.05l.173.417a.325.325,0,0,1,.038.216.141.141,0,0,1-.088.084.363.363,0,0,1-.093.016A1.343,1.343,0,0,1,8.916,5.69Z" transform="translate(294.629 611.001)" fill="#263238"/>
    <path id="Path_4545" data-name="Path 4545" d="M7.949,3.257c-.018.054-.208.036-.432.073s-.4.108-.432.06c-.015-.023.015-.074.085-.126a.75.75,0,0,1,.658-.1C7.912,3.191,7.955,3.231,7.949,3.257Z" transform="translate(294.629 611.001)" fill="#263238"/>
    <path id="Path_4546" data-name="Path 4546" d="M10.217,3.438c-.02.045-.207.019-.43.038s-.4.067-.43.025c-.013-.02.019-.062.092-.1a.841.841,0,0,1,.656-.048C10.186,3.38,10.226,3.417,10.217,3.438Z" transform="translate(294.629 611.001)" fill="#263238"/>
    <path id="Path_4547" data-name="Path 4547" d="M5.8,4.943c-.024-.01-.978-.251-.909.713a.723.723,0,0,0,1.02.666C5.916,6.294,5.8,4.943,5.8,4.943Z" transform="translate(294.629 611.001)" fill="#ffbe9d"/>
    <path id="Path_4548" data-name="Path 4548" d="M5.592,5.979a.249.249,0,0,1-.043.029.177.177,0,0,1-.126.011A.416.416,0,0,1,5.2,5.661a.547.547,0,0,1,.03-.244.2.2,0,0,1,.117-.137.085.085,0,0,1,.1.039c.015.025.01.045.015.046s.02-.018.009-.057a.1.1,0,0,0-.041-.058.125.125,0,0,0-.094-.018.235.235,0,0,0-.165.161.565.565,0,0,0-.039.273.436.436,0,0,0,.275.4.183.183,0,0,0,.151-.036C5.592,6,5.6,5.982,5.592,5.979Z" transform="translate(294.629 611.001)" fill="#eb996e"/>
    <path id="Path_4549" data-name="Path 4549" d="M8.766,6.372c.008-.025-.186-.06-.338-.221a1.077,1.077,0,0,1-.161-.235c-.035-.067-.062-.108-.072-.1s0,.05.023.126a.7.7,0,0,0,.154.266.572.572,0,0,0,.265.16C8.715,6.385,8.765,6.381,8.766,6.372Z" transform="translate(294.629 611.001)" fill="#263238"/>
    <path id="Path_4550" data-name="Path 4550" d="M10.289,3.971c-.025.031-.2-.08-.436-.059s-.4.154-.423.126.009-.067.079-.126a.6.6,0,0,1,.337-.138.571.571,0,0,1,.349.084C10.271,3.906,10.3,3.957,10.289,3.971Z" transform="translate(294.629 611.001)" fill="#263238"/>
    <path id="Path_4551" data-name="Path 4551" d="M10.165,4.588a.191.191,0,0,1-.176.2.182.182,0,0,1-.2-.16h0a.19.19,0,0,1,.175-.2.181.181,0,0,1,.2.156Z" transform="translate(294.629 611.001)" fill="#263238"/>
    <path id="Path_4552" data-name="Path 4552" d="M11.231,1.319a.754.754,0,0,0-.976-.191A1.04,1.04,0,0,0,8.371.437a.43.43,0,0,0-.239-.26A.828.828,0,0,0,7.777.114,1.65,1.65,0,0,0,6.351.938,1.8,1.8,0,0,0,4.9,1.669a2.619,2.619,0,0,0,.261,2.655l.187.612a.567.567,0,0,1,.4.052c.142.1.225.314.431.206.1-.054.178-.3.2-.411a5.486,5.486,0,0,0-.026-2.331A1.755,1.755,0,0,1,6.856,2l-.014.018A1.6,1.6,0,0,1,8.033,1.8a2.631,2.631,0,0,1,.747.6,2.2,2.2,0,0,0,1.643.544c.065.391.1.95.16,1.34l.26-.667h0a1.526,1.526,0,0,0,.055-.147l.006-.015h0a3.171,3.171,0,0,0,.18-.28.834.834,0,0,0,.039-.859A.753.753,0,0,0,11.231,1.319Z" transform="translate(294.629 611.001)" fill="#263238"/>
    <path id="Path_4553" data-name="Path 4553" d="M10.989,3.213" transform="translate(294.629 611.001)" fill="#263238"/>
    <path id="Path_4554" data-name="Path 4554" d="M10.66,1.4l.009.02a.241.241,0,0,1,.016.06.417.417,0,0,1-.03.231.422.422,0,0,1-.093.136.388.388,0,0,1-.166.094.437.437,0,0,1-.416-.1L10,1.816a.266.266,0,0,1,.088.18.346.346,0,0,1-.079.251.386.386,0,0,1-.216.126.61.61,0,0,1-.4-.063,1.338,1.338,0,0,1-.231-.156.536.536,0,0,1-.075-.068l.083.058a1.5,1.5,0,0,0,.232.144.59.59,0,0,0,.389.055.366.366,0,0,0,.2-.113A.319.319,0,0,0,10.064,2a.236.236,0,0,0-.078-.16l.023-.023a.406.406,0,0,0,.386.1.379.379,0,0,0,.251-.212.429.429,0,0,0,.038-.22C10.669,1.428,10.658,1.4,10.66,1.4Z" transform="translate(294.629 611.001)" fill="#455a64"/>
    <path id="Path_4555" data-name="Path 4555" d="M9.344.485l.021.008a.319.319,0,0,1,.058.03.454.454,0,0,1,.166.171.376.376,0,0,1,.006.348.276.276,0,0,1-.161.139A.29.29,0,0,1,9.2,1.167a.267.267,0,0,1-.059-.046L9.172,1.1a.271.271,0,0,1,.016.216.29.29,0,0,1-.126.158.391.391,0,0,1-.325.036A.515.515,0,0,1,8.546,1.4a.258.258,0,0,1-.054-.06s.021.02.062.052a.534.534,0,0,0,.19.1.38.38,0,0,0,.3-.039.27.27,0,0,0,.109-.144.237.237,0,0,0-.015-.19l-.064-.112.089.093a.22.22,0,0,0,.051.04.267.267,0,0,0,.2.016.259.259,0,0,0,.144-.126.35.35,0,0,0,0-.324A.479.479,0,0,0,9.409.538.594.594,0,0,0,9.344.485Z" transform="translate(294.629 611.001)" fill="#455a64"/>
    <path id="Path_4556" data-name="Path 4556" d="M12.46,44.435l-.1,4.773,6.28.147c-.023-.568-3.239-1.781-3.239-1.781l.2-3.053Z" transform="translate(294.629 611.001)" fill="#455a64"/>
    <path id="Path_4557" data-name="Path 4557" d="M13.465,47.263a.242.242,0,0,0-.185.271.246.246,0,0,0,.479-.113.262.262,0,0,0-.318-.152" transform="translate(294.629 611.001)" fill="#fff"/>
    <path id="Path_4558" data-name="Path 4558" d="M12.359,49.2l.03-.481,6.014.322s.276.126.24.307Z" transform="translate(294.629 611.001)" fill="#fff"/>
    <path id="Path_4559" data-name="Path 4559" d="M15.5,47.542c0,.029-.156.038-.309.126s-.237.209-.265.2.023-.178.21-.284S15.507,47.514,15.5,47.542Z" transform="translate(294.629 611.001)" fill="#263238"/>
    <path id="Path_4560" data-name="Path 4560" d="M16.15,47.815c.006.028-.126.074-.235.195s-.141.251-.171.251-.046-.166.09-.313S16.15,47.787,16.15,47.815Z" transform="translate(294.629 611.001)" fill="#263238"/>
    <path id="Path_4561" data-name="Path 4561" d="M16.506,48.568c-.028,0-.067-.141.016-.3s.229-.216.24-.192-.078.108-.144.237S16.538,48.566,16.506,48.568Z" transform="translate(294.629 611.001)" fill="#263238"/>
    <path id="Path_4562" data-name="Path 4562" d="M15.463,46.841c-.013.026-.153-.018-.327-.01s-.31.055-.325.03.118-.126.322-.126S15.479,46.819,15.463,46.841Z" transform="translate(294.629 611.001)" fill="#263238"/>
    <path id="Path_4563" data-name="Path 4563" d="M15.335,46.133a.642.642,0,0,1-.314-.009,1.561,1.561,0,0,1-.5-.2.38.38,0,0,1-.093-.072.125.125,0,0,1-.01-.155.171.171,0,0,1,.136-.064.428.428,0,0,1,.118.019,1.2,1.2,0,0,1,.193.068,1.081,1.081,0,0,1,.285.187c.143.126.19.24.178.245s-.082-.083-.227-.192a1.342,1.342,0,0,0-.276-.156,1.44,1.44,0,0,0-.185-.05c-.065-.018-.126-.02-.141.008s-.008.015,0,.034a.3.3,0,0,0,.069.053,1.633,1.633,0,0,0,.163.093,1.8,1.8,0,0,0,.3.118A2.1,2.1,0,0,1,15.335,46.133Z" transform="translate(294.629 611.001)" fill="#263238"/>
    <path id="Path_4564" data-name="Path 4564" d="M15.292,46.174a.461.461,0,0,1-.075-.289.939.939,0,0,1,.051-.324.969.969,0,0,1,.085-.178.251.251,0,0,1,.2-.146.15.15,0,0,1,.126.087.374.374,0,0,1,.029.109.61.61,0,0,1,0,.2.662.662,0,0,1-.142.3c-.126.151-.251.182-.259.172a1.612,1.612,0,0,0,.2-.213.672.672,0,0,0,.107-.276.619.619,0,0,0,0-.172c-.009-.063-.033-.114-.058-.109a.215.215,0,0,0-.112.1.9.9,0,0,0-.083.16,1.064,1.064,0,0,0-.069.3C15.279,46.061,15.305,46.167,15.292,46.174Z" transform="translate(294.629 611.001)" fill="#263238"/>
    <path id="Path_4565" data-name="Path 4565" d="M6.582,42.474,4.016,45.849,8.45,49.24c.283-.422-1.4-2.982-1.4-2.982l1.737-2.09Z" transform="translate(294.629 611.001)" fill="#455a64"/>
    <path id="Path_4566" data-name="Path 4566" d="M5.823,45.034a.215.215,0,0,0-.275.1.219.219,0,0,0,.113.274.226.226,0,0,0,.29-.1.232.232,0,0,0-.148-.275" transform="translate(294.629 611.001)" fill="#fff"/>
    <path id="Path_4567" data-name="Path 4567" d="M4.016,45.849l.273-.33,4.145,3.372s.134.232.011.347Z" transform="translate(294.629 611.001)" fill="#fff"/>
    <path id="Path_4568" data-name="Path 4568" d="M7.142,46.3c-.016.02-.126-.053-.289-.069s-.28.026-.294,0,.109-.117.3-.094S7.161,46.281,7.142,46.3Z" transform="translate(294.629 611.001)" fill="#263238"/>
    <path id="Path_4569" data-name="Path 4569" d="M7.468,46.834c-.01.023-.126-.014-.27.016s-.232.105-.251.088.054-.143.229-.177S7.487,46.815,7.468,46.834Z" transform="translate(294.629 611.001)" fill="#263238"/>
    <path id="Path_4570" data-name="Path 4570" d="M7.328,47.56c-.023-.01.025-.136.167-.2s.278-.036.273-.013-.112.036-.227.094S7.35,47.575,7.328,47.56Z" transform="translate(294.629 611.001)" fill="#263238"/>
    <path id="Path_4571" data-name="Path 4571" d="M7.477,45.774c-.023.011-.1-.092-.229-.178S7,45.47,7,45.448s.149-.029.3.074S7.506,45.766,7.477,45.774Z" transform="translate(294.629 611.001)" fill="#263238"/>
    <path id="Path_4572" data-name="Path 4572" d="M7.757,45.2a.6.6,0,0,1-.221-.171,1.387,1.387,0,0,1-.186-.245,1.592,1.592,0,0,1-.078-.161.35.35,0,0,1-.03-.1.11.11,0,0,1,.074-.117.153.153,0,0,1,.126.026.376.376,0,0,1,.075.074,1.064,1.064,0,0,1,.208.433.444.444,0,0,1,0,.27c-.015,0-.016-.1-.064-.258a1.17,1.17,0,0,0-.117-.251,1.2,1.2,0,0,0-.1-.134c-.038-.048-.078-.079-.106-.068s-.013.006-.013.026a.327.327,0,0,0,.021.074,1.568,1.568,0,0,0,.224.394C7.687,45.117,7.766,45.186,7.757,45.2Z" transform="translate(294.629 611.001)" fill="#263238"/>
    <path id="Path_4573" data-name="Path 4573" d="M7.707,45.205c-.01,0,0-.109.1-.251a.816.816,0,0,1,.206-.2.883.883,0,0,1,.154-.084.234.234,0,0,1,.224,0,.125.125,0,0,1,.048.126.316.316,0,0,1-.036.094.574.574,0,0,1-.369.285.366.366,0,0,1-.276-.01,2.378,2.378,0,0,0,.251-.052.594.594,0,0,0,.225-.137.5.5,0,0,0,.089-.126c.026-.049.036-.1.016-.108a.158.158,0,0,0-.126.01.833.833,0,0,0-.143.072.906.906,0,0,0-.214.181C7.756,45.117,7.728,45.211,7.707,45.205Z" transform="translate(294.629 611.001)" fill="#263238"/>
    <path id="Path_4574" data-name="Path 4574" d="M7.329,23.629l.762,2.482A4.032,4.032,0,0,0,9.108,27.8c.492.486,1.071,1.063,1.166,1.177l2.316,7.516L12.055,46.51l3.992.271s1.57-10.234,1.316-11.818S15.5,22.818,15.5,22.818l-.423-.735Z" transform="translate(294.629 611.001)" fill="#263238"/>
    <path id="Path_4575" data-name="Path 4575" d="M10.654,29.243l-.4,7.384L4.945,43.843l3.328,2.27,7.161-8.361.07-9.673Z" transform="translate(294.629 611.001)" fill="#263238"/>
    <path id="Path_4576" data-name="Path 4576" d="M10.279,28.974a.074.074,0,0,0,.015.034.6.6,0,0,1,.036.1c.034.1.079.231.138.4.126.357.289.867.5,1.5l1.662,5.071v.013c-.021.432-.045.879-.069,1.344-.126,2.435-.251,4.64-.335,6.24-.046.8-.083,1.439-.109,1.892-.015.219-.026.391-.034.514,0,.055-.008.1-.01.133a.347.347,0,0,1-.006.045.169.169,0,0,1,0-.045v-.131c0-.126.011-.3.02-.515.021-.451.05-1.1.087-1.892.08-1.6.192-3.806.314-6.241.024-.461.048-.912.07-1.344v.014c-.653-2.018-1.228-3.8-1.642-5.081-.2-.636-.366-1.147-.48-1.507-.053-.173-.1-.31-.126-.407l-.03-.1A.114.114,0,0,1,10.279,28.974Z" transform="translate(294.629 611.001)" fill="#455a64"/>
    <path id="Path_4577" data-name="Path 4577" d="M6.051,8.911A6.7,6.7,0,0,0,4.99,12.668c.128.863,2.358,9.6,2.358,9.6l-.025,3L15.874,23.5l-.86-3.047-2.54-8.988L9.49,8.955Z" transform="translate(294.629 611.001)" fill="#455a64"/>
    <path id="Path_4578" data-name="Path 4578" d="M7,13.317s4.145,2.955,5.6,2.919l1.238.035-.191-.672Z" transform="translate(294.629 611.001)"/>
    <path id="Path_4579" data-name="Path 4579" d="M7.864,13.767a1.774,1.774,0,0,1-.322.212,5.683,5.683,0,0,1-1.743.638,1.654,1.654,0,0,1-.377.045,3.5,3.5,0,0,1,.377-.09,7.929,7.929,0,0,0,.879-.264,7.88,7.88,0,0,0,.845-.377A3.238,3.238,0,0,1,7.864,13.767Z" transform="translate(294.629 611.001)" fill="#263238"/>
    <path id="Path_4580" data-name="Path 4580" d="M14.04,17.311c0,.018-1.648.456-3.69.978s-3.7.932-3.708.914,1.648-.455,3.691-.977S14.036,17.291,14.04,17.311Z" transform="translate(294.629 611.001)" fill="#263238"/>
    <path id="Path_4581" data-name="Path 4581" d="M15.2,21.355a.433.433,0,0,1-.079.019l-.229.043c-.2.039-.484.1-.835.175-.7.156-1.671.4-2.736.683s-2.03.538-2.732.706c-.35.085-.636.149-.834.191l-.227.044a.557.557,0,0,1-.082.011.352.352,0,0,1,.078-.024l.226-.057.828-.211,2.727-.723c1.065-.28,2.033-.521,2.742-.666.353-.073.642-.126.842-.154l.23-.03A.37.37,0,0,1,15.2,21.355Z" transform="translate(294.629 611.001)" fill="#263238"/>
    <path id="Path_4582" data-name="Path 4582" d="M24.777,5.62H23.465a1.193,1.193,0,0,1,.445.811h.867v.4h-.859c-.079.811-.723,1.328-1.741,1.36.62.644,1.3,1.455,1.964,2.274h-.763c-.62-.747-1.2-1.439-1.948-2.234V7.738h.437c.859,0,1.32-.358,1.376-.906H21.43v-.4h1.789c-.111-.461-.533-.692-1.224-.692H21.43V5.223h3.348Z" transform="translate(294.629 611.001)" fill="#fff"/>
    <path id="Path_4583" data-name="Path 4583" d="M21.523,10.066a1.708,1.708,0,0,1,.26-.7c.232-.368.858-.788.868-1.075s.334-.165.377.18a3.484,3.484,0,0,1-.24.892,1.38,1.38,0,0,0,.815-.319c.276-.294,1.34-.99,1.513-.864.2.142-.09.3-.2.411-.083.087-.744.7-.744.7a14.864,14.864,0,0,1,1.746-.5c.236.016.075.269-.02.3-.062.021.191.126.055.355a2.634,2.634,0,0,1-.857.541l-.358.114,1.13-.215s.241.116,0,.285c-.1.075-3.266,1.547-3.517,1.64-.435.16-1.064.364-1.064.364l-.563-1.838Z" transform="translate(294.629 611.001)" fill="#ffbe9d"/>
    <path id="Path_4584" data-name="Path 4584" d="M25.893,9.094a5.243,5.243,0,0,1-.873.5,3.857,3.857,0,0,1-.928.377,1.5,1.5,0,0,1,.26-.137l.636-.309.636-.314A1.26,1.26,0,0,1,25.893,9.094Z" transform="translate(294.629 611.001)" fill="#eb996e"/>
    <path id="Path_4585" data-name="Path 4585" d="M6.095,12.807s5.591,3.38,8.194,2.708a70.814,70.814,0,0,0,7.843-3.04l-1.216-2.83-6.973,2.512S8.95,9.823,7.879,9.5C6.307,9.007,4.167,11.09,6.095,12.807Z" transform="translate(294.629 611.001)" fill="#455a64"/>
    <path id="Path_4586" data-name="Path 4586" d="M9.854,10.291l.074.025c.048.019.126.044.215.083.188.074.465.192.82.347.708.313,1.731.781,3,1.382h-.019l6.97-2.512.031-.011.013.03,1.218,2.822.014.033-.033.015-1.015.447c-1.019.445-2.021.863-2.994,1.256s-1.92.745-2.839,1.042c-.23.07-.455.147-.683.207l-.338.093a2.862,2.862,0,0,1-.343.06,4.861,4.861,0,0,1-1.33-.058,12.339,12.339,0,0,1-2.291-.658A26.876,26.876,0,0,1,7.2,13.44c-.358-.195-.628-.352-.818-.46l-.209-.126c-.048-.029-.07-.045-.07-.045l.074.039.212.126c.187.106.463.259.824.448a28.357,28.357,0,0,0,3.133,1.432,12.473,12.473,0,0,0,2.276.632,4.855,4.855,0,0,0,1.313.053,3.1,3.1,0,0,0,.332-.053l.335-.093c.226-.06.451-.138.681-.209.914-.3,1.859-.658,2.832-1.045s1.973-.808,2.992-1.256l1.009-.449-.018.048-1.21-2.83.044.02-6.977,2.5h-.019c-1.256-.607-2.281-1.083-2.986-1.4-.353-.158-.628-.28-.814-.359l-.212-.088Z" transform="translate(294.629 611.001)" fill="#263238"/>
    <path id="Path_4587" data-name="Path 4587" d="M8.858,9.981A.99.99,0,0,1,8.7,9.916c-.1-.044-.251-.109-.428-.177a3.017,3.017,0,0,0-.661-.171,1.837,1.837,0,0,0-.82.068,1.3,1.3,0,0,0-.672.479h0a2.343,2.343,0,0,0-.477.8,2.861,2.861,0,0,0-.1.35.419.419,0,0,1,.009-.1,1.853,1.853,0,0,1,.062-.265,2.219,2.219,0,0,1,.467-.825h0a1.339,1.339,0,0,1,.7-.5,1.864,1.864,0,0,1,.849-.065A2.834,2.834,0,0,1,8.3,9.7a4.3,4.3,0,0,1,.423.2A.833.833,0,0,1,8.858,9.981Z" transform="translate(294.629 611.001)" fill="#263238"/>
    <path id="Path_4588" data-name="Path 4588" d="M11.223,11a.537.537,0,0,1-.045.146c-.033.092-.084.224-.149.386-.126.324-.32.767-.548,1.256s-.446.912-.612,1.22c-.083.154-.152.278-.2.362a.649.649,0,0,1-.082.126.652.652,0,0,1,.059-.139c.05-.1.111-.224.183-.371.156-.311.368-.745.594-1.226s.423-.922.564-1.24l.168-.377A.815.815,0,0,1,11.223,11Z" transform="translate(294.629 611.001)" fill="#263238"/>
    <path id="Path_4589" data-name="Path 4589" d="M14.408,15.4c-.019,0-.134-.7-.259-1.564s-.211-1.57-.193-1.574.133.7.259,1.564S14.422,15.4,14.408,15.4Z" transform="translate(294.629 611.001)" fill="#263238"/>
    <path id="Path_4590" data-name="Path 4590" d="M18.769,13.912A.424.424,0,0,1,18.7,13.8c-.04-.073-.1-.178-.162-.31-.136-.262-.317-.628-.514-1.031s-.377-.772-.5-1.041c-.062-.133-.111-.242-.143-.318a.556.556,0,0,1-.045-.126.511.511,0,0,1,.068.109c.04.073.1.178.162.31.134.262.317.628.514,1.032s.377.772.5,1.041c.062.133.111.242.143.318A.566.566,0,0,1,18.769,13.912Z" transform="translate(294.629 611.001)" fill="#263238"/>
    <path id="Path_4591" data-name="Path 4591" d="M18.641,41.864l3.391,7.487h1.637l.234-.572.291.572h1.074l-.126-4.37L25.089,42.4Z" transform="translate(294.629 611.001)" fill="#008083"/>
    <path id="Path_4592" data-name="Path 4592" d="M18.641,41.864l3.391,7.487h1.637l.234-.572.291.572h1.074l-.126-4.37L25.089,42.4Z" transform="translate(294.629 611.001)" opacity="0.3" style="mix-blend-mode: normal;isolation: isolate"/>
    <path id="Path_4593" data-name="Path 4593" d="M33.481,42.666l3.307,6.685h1.637l.235-.522.29.522h1.074l-.124-4-.054-2.364Z" transform="translate(294.629 611.001)" fill="#008083"/>
    <path id="Path_4594" data-name="Path 4594" d="M33.481,42.666l3.307,6.685h1.637l.235-.522.29.522h1.074l-.124-4-.054-2.364Z" transform="translate(294.629 611.001)" opacity="0.3" style="mix-blend-mode: normal;isolation: isolate"/>
    <path id="Path_4595" data-name="Path 4595" d="M52.29,22.966l.031.01.088.039a1.479,1.479,0,0,1,.306.2,1.724,1.724,0,0,1,.6,1.192,1.53,1.53,0,0,1-.23.906,1.756,1.756,0,0,1-.816.7,1.443,1.443,0,0,1-1.176,0,.866.866,0,0,1-.437-.462.676.676,0,0,1,.06-.647.77.77,0,0,1,.576-.308.912.912,0,0,1,.6.2,1.3,1.3,0,0,1,.485,1.066,1.663,1.663,0,0,1-.377,1,1.57,1.57,0,0,1-.365.33,1.784,1.784,0,0,1-.413.186,1.9,1.9,0,0,1-.772.058,2.053,2.053,0,0,1-.564-.154,2,2,0,0,1-.323-.18l-.077-.058c-.016-.013-.025-.02-.024-.021a2.515,2.515,0,0,0,.433.235,2.026,2.026,0,0,0,.558.142,1.884,1.884,0,0,0,.754-.065,1.73,1.73,0,0,0,.4-.185,1.488,1.488,0,0,0,.35-.322,1.608,1.608,0,0,0,.359-.973,1.241,1.241,0,0,0-.463-1.014.84.84,0,0,0-.561-.186.713.713,0,0,0-.527.28.619.619,0,0,0-.053.585.809.809,0,0,0,.4.428,1.39,1.39,0,0,0,1.13,0,1.7,1.7,0,0,0,.793-.671,1.476,1.476,0,0,0,.23-.879,1.667,1.667,0,0,0-.208-.725,1.734,1.734,0,0,0-.357-.451A1.854,1.854,0,0,0,52.29,22.966Z" transform="translate(294.629 611.001)" fill="#008083"/>
    <path id="Path_4596" data-name="Path 4596" d="M50.671,29.739c.492,11.109-8.821,16.652-19.364,16.652S12.216,39.173,12.216,30.269s8.547-16.122,19.091-16.122S50.276,20.844,50.671,29.739Z" transform="translate(294.629 611.001)" fill="#008083"/>
    <path id="Path_4597" data-name="Path 4597" d="M29.976,18.124a2.432,2.432,0,0,1,2.451.937c1.184,1.339,2.832,3.62,2.832,3.62a2.178,2.178,0,0,1-1.423,1.666Z" transform="translate(294.629 611.001)" opacity="0.3" style="mix-blend-mode: normal;isolation: isolate"/>
    <ellipse id="Ellipse_392" data-name="Ellipse 392" cx="6.536" cy="5.009" rx="6.536" ry="5.009" transform="translate(306.848 642.803)" fill="#008083"/>
    <path id="Path_4598" data-name="Path 4598" d="M24.85,23.42s3.831-5.943,5.586-5.3,3.4,6.23,3.4,6.23" transform="translate(294.629 611.001)" fill="#008083"/>
    <path id="Path_4599" data-name="Path 4599" d="M20.519,22.058l-.178-1.609a32.714,32.714,0,0,0-4.547-1.493c-2.148-.489-2.571,0-2.571,0l3.4,4.762Z" transform="translate(294.629 611.001)" fill="#008083"/>
    <path id="Path_4600" data-name="Path 4600" d="M25.632,16.358l1.271.754s6.154-1.633,10.885,0l-1.735-1.477S30.319,14.4,25.632,16.358Z" transform="translate(294.629 611.001)" opacity="0.3" style="mix-blend-mode: normal;isolation: isolate"/>
    <ellipse id="Ellipse_393" data-name="Ellipse 393" cx="6.536" cy="5.009" rx="6.536" ry="5.009" transform="translate(306.848 642.803)" opacity="0.3" style="mix-blend-mode: normal;isolation: isolate"/>
    <ellipse id="Ellipse_394" data-name="Ellipse 394" cx="6.123" cy="5.009" rx="6.123" ry="5.009" transform="translate(305.599 642.803)" fill="#008083"/>
    <path id="Rectangle_1899" data-name="Rectangle 1899" d="M14.741,34.462h0a.655.655,0,0,1,.655.655v3.39a.655.655,0,0,1-.655.655h0a.655.655,0,0,1-.655-.655v-3.39A.655.655,0,0,1,14.741,34.462Z" transform="translate(294.629 611.001)" opacity="0.3" style="mix-blend-mode: normal;isolation: isolate"/>
    <path id="Rectangle_1900" data-name="Rectangle 1900" d="M18.26,34.462h0a.655.655,0,0,1,.655.655v3.39a.655.655,0,0,1-.655.655h0a.655.655,0,0,1-.655-.655v-3.39A.655.655,0,0,1,18.26,34.462Z" transform="translate(294.629 611.001)" opacity="0.3" style="mix-blend-mode: normal;isolation: isolate"/>
    <path id="Path_4601" data-name="Path 4601" d="M20.147,22.216a1.222,1.222,0,0,0,.639-1.542,35.8,35.8,0,0,0-4.993-1.718c-2.148-.491-2.571,0-2.571,0l3.4,4.762Z" transform="translate(294.629 611.001)" opacity="0.3" style="mix-blend-mode: normal;isolation: isolate"/>
    <path id="Path_4602" data-name="Path 4602" d="M20.341,22.347l-.428-.289c-1.269-.845-4.971-3.266-5.9-3.292-1.289-.036-1.29,1.074-1.289,1.934,0,.609.5,5.9.5,5.9" transform="translate(294.629 611.001)" fill="#008083"/>
    <path id="Path_4603" data-name="Path 4603" d="M33.838,24.351a.142.142,0,0,1-.014-.036c-.01-.027-.023-.064-.038-.109l-.141-.421c-.126-.364-.308-.891-.56-1.531a19.7,19.7,0,0,0-1-2.2,7.594,7.594,0,0,0-.777-1.189,2.859,2.859,0,0,0-.531-.523,1.014,1.014,0,0,0-.7-.237,1.794,1.794,0,0,0-.716.251,4.669,4.669,0,0,0-.618.425,10.62,10.62,0,0,0-1.035.977,23.83,23.83,0,0,0-1.55,1.853c-.418.548-.74,1-.961,1.318l-.251.364-.065.094a.148.148,0,0,1-.025.031l.019-.035.062-.1c.054-.085.136-.211.242-.371.215-.32.531-.78.945-1.331a23.154,23.154,0,0,1,1.544-1.866,10.29,10.29,0,0,1,1.039-.985,4.669,4.669,0,0,1,.628-.433,1.878,1.878,0,0,1,.744-.251.854.854,0,0,1,.4.057,1.607,1.607,0,0,1,.343.193,3.022,3.022,0,0,1,.544.534,7.685,7.685,0,0,1,.78,1.2,19.009,19.009,0,0,1,.995,2.208c.251.643.423,1.172.54,1.54.059.183.1.327.126.425.013.045.023.083.031.111A.153.153,0,0,1,33.838,24.351Z" transform="translate(294.629 611.001)" fill="#263238"/>
    <path id="Path_4604" data-name="Path 4604" d="M36.055,15.636l.031.023.088.072.334.279,1.221,1.036.082.069-.1-.029a19.206,19.206,0,0,0-5.044-.72,20.061,20.061,0,0,0-5.707.767h-.015l-.967-.566-.251-.153-.064-.04a.08.08,0,0,1-.021-.015l.024.01.068.036.26.143.976.551h-.016a19.188,19.188,0,0,1,2.438-.553c.487-.08,1-.139,1.561-.187a16.436,16.436,0,0,1,1.719-.055,19.131,19.131,0,0,1,2.807.235,18.592,18.592,0,0,1,2.25.5l-.021.04L36.5,16.026l-.327-.289-.083-.077A.128.128,0,0,1,36.055,15.636Z" transform="translate(294.629 611.001)" fill="#263238"/>
    <path id="Path_4605" data-name="Path 4605" d="M28.973,32.141c-.029.18-.214.314-.476.4a3.624,3.624,0,0,1-1.96.018c-.264-.084-.451-.215-.484-.393s.1-.369.364-.524a2.439,2.439,0,0,1,2.179-.024C28.862,31.775,29,31.965,28.973,32.141Z" transform="translate(294.629 611.001)" fill="#fff"/>
    <path id="Path_4606" data-name="Path 4606" d="M20.746,32.79a.212.212,0,0,1-.036-.021l-.1-.068-.165-.111c-.067-.04-.146-.082-.235-.132a5.477,5.477,0,0,0-1.616-.549,8.014,8.014,0,0,0-1.178-.111,8.531,8.531,0,0,0-1.355.1,6.918,6.918,0,0,0-2.875,1.119,5.848,5.848,0,0,0-.628.515,5.2,5.2,0,0,0-.533.587,5.116,5.116,0,0,0-.734,1.3,4.54,4.54,0,0,0-.161,2.5,4.265,4.265,0,0,0,.33.916,3.98,3.98,0,0,0,.4.618l.175.206.141.138.085.085a.21.21,0,0,1,.028.031.153.153,0,0,1-.031-.026l-.092-.082-.146-.134-.178-.2a3.941,3.941,0,0,1-.415-.617,4.258,4.258,0,0,1-.342-.922,4.546,4.546,0,0,1,.148-2.531,5.008,5.008,0,0,1,.314-.672,4.936,4.936,0,0,1,.426-.646,5.371,5.371,0,0,1,.538-.6,5.831,5.831,0,0,1,.641-.521,6.906,6.906,0,0,1,2.9-1.124,8.415,8.415,0,0,1,1.364-.094,8,8,0,0,1,1.186.118,5.379,5.379,0,0,1,1.616.579c.088.053.167.1.234.138l.161.117.1.073C20.736,32.78,20.747,32.789,20.746,32.79Z" transform="translate(294.629 611.001)" fill="#263238"/>
    <path id="Path_4607" data-name="Path 4607" d="M15.359,34.9a1.116,1.116,0,0,1,.015.2c0,.141.014.324.023.546.02.46.058,1.1.074,1.8v.515a2.684,2.684,0,0,1-.035.482.912.912,0,0,1-.445.671.545.545,0,0,1-.54-.028.364.364,0,0,1-.107-.107.14.14,0,0,1-.024-.047.624.624,0,0,0,.144.132.528.528,0,0,0,.5.009.877.877,0,0,0,.407-.642,2.65,2.65,0,0,0,.03-.471c0-.166,0-.338-.006-.512-.016-.7-.048-1.34-.055-1.8V35.1A1.487,1.487,0,0,1,15.359,34.9Z" transform="translate(294.629 611.001)" fill="#263238"/>
    <path id="Path_4608" data-name="Path 4608" d="M18.832,34.9a1.336,1.336,0,0,1,.014.2c0,.141.014.324.023.546.02.46.058,1.1.075,1.8v.515a2.78,2.78,0,0,1-.036.482.908.908,0,0,1-.445.671.545.545,0,0,1-.54-.028.419.419,0,0,1-.107-.107c-.019-.029-.025-.047-.023-.047a.619.619,0,0,0,.143.132.528.528,0,0,0,.5.009.877.877,0,0,0,.407-.642,2.748,2.748,0,0,0,.031-.471c0-.166,0-.338-.006-.512-.018-.7-.048-1.34-.055-1.8V35.1A1.034,1.034,0,0,1,18.832,34.9Z" transform="translate(294.629 611.001)" fill="#263238"/>
    <path id="Path_4609" data-name="Path 4609" d="M23.144,37.9a.519.519,0,0,1-.028.087c-.021.055-.045.139-.093.241a4.689,4.689,0,0,1-.458.837,6.055,6.055,0,0,1-.931,1.065,6.846,6.846,0,0,1-.656.521,6.6,6.6,0,0,1-.774.456,6.874,6.874,0,0,1-1.633.59,6.532,6.532,0,0,1-1.408.142c-.4,0-.727-.025-.951-.04l-.259-.021a.38.38,0,0,1-.089-.011.451.451,0,0,1,.09,0l.259.008c.224.009.549.024.95.02a6.657,6.657,0,0,0,1.4-.154,6.963,6.963,0,0,0,1.611-.589,6.613,6.613,0,0,0,.767-.451,7.3,7.3,0,0,0,.652-.512,6.282,6.282,0,0,0,.933-1.048A5.336,5.336,0,0,0,23,38.222c.05-.1.078-.182.1-.236A.364.364,0,0,1,23.144,37.9Z" transform="translate(294.629 611.001)" fill="#263238"/>
    <path id="Path_4610" data-name="Path 4610" d="M15.284,34.762a1.085,1.085,0,0,0-.087-.126.5.5,0,0,0-.359-.163.7.7,0,0,0-.529.237.686.686,0,0,0-.161.309,1.591,1.591,0,0,0-.038.383c0,.54.006,1.031,0,1.382v.42a.787.787,0,0,1-.01.153.656.656,0,0,1-.015-.153c0-.113-.009-.251-.015-.42-.009-.354-.019-.844-.023-1.382a1.632,1.632,0,0,1,.04-.4.78.78,0,0,1,.178-.334.733.733,0,0,1,.578-.241.517.517,0,0,1,.377.192.415.415,0,0,1,.058.1A.152.152,0,0,1,15.284,34.762Z" transform="translate(294.629 611.001)" fill="#fff"/>
    <path id="Path_4611" data-name="Path 4611" d="M17.585,35.051c.018,0,.033.662.033,1.478s-.015,1.48-.033,1.48-.033-.662-.033-1.48S17.567,35.051,17.585,35.051Z" transform="translate(294.629 611.001)" fill="#fff"/>
    <path id="Path_4612" data-name="Path 4612" d="M16.531,32.2a.283.283,0,0,1-.077.006h-.221a5.742,5.742,0,0,0-.806.088,5.338,5.338,0,0,0-4.214,4c-.025.092-.036.166-.049.215a.327.327,0,0,1-.021.074.284.284,0,0,1,.008-.077c.009-.05.016-.126.038-.219a4.851,4.851,0,0,1,.231-.783,5.167,5.167,0,0,1,4-3.257,4.822,4.822,0,0,1,.813-.068c.1,0,.172.006.222.008A.39.39,0,0,1,16.531,32.2Z" transform="translate(294.629 611.001)" fill="#fff"/>
    <path id="Path_4613" data-name="Path 4613" d="M13.246,25.8a.263.263,0,0,1-.023.072l-.078.2c-.035.085-.077.191-.126.315s-.1.264-.147.422-.108.329-.158.517-.1.389-.153.6a11.907,11.907,0,0,0-.294,2.822c.008.218.01.427.026.62s.029.377.048.539.039.313.057.443.036.242.053.333.026.156.035.211a.263.263,0,0,1,.008.074.349.349,0,0,1-.02-.072l-.048-.208c-.02-.09-.044-.2-.064-.332s-.049-.279-.067-.443-.043-.345-.055-.541-.024-.4-.033-.628a11.341,11.341,0,0,1,.3-2.826c.054-.214.1-.416.161-.6s.111-.36.166-.517.109-.3.156-.42.093-.229.126-.313.065-.143.089-.193A.3.3,0,0,1,13.246,25.8Z" transform="translate(294.629 611.001)" fill="#fff"/>
    <path id="Path_4614" data-name="Path 4614" d="M13.434,19.271a1.934,1.934,0,0,0-.335.8,5.82,5.82,0,0,0-.078.951c-.01.36-.011.754,0,1.173.02.833.087,1.585.149,2.126.034.264.06.48.08.642l.023.175a.321.321,0,0,1,0,.062.179.179,0,0,1-.016-.059c-.01-.048-.021-.1-.035-.173-.028-.149-.063-.368-.1-.639a19.314,19.314,0,0,1-.17-2.135c-.01-.417,0-.815,0-1.177a5.316,5.316,0,0,1,.093-.958,1.815,1.815,0,0,1,.232-.607,1.107,1.107,0,0,1,.1-.142A.5.5,0,0,1,13.434,19.271Z" transform="translate(294.629 611.001)" fill="#fff"/>
    <path id="Path_4615" data-name="Path 4615" d="M25.66,15.335c-.026.012-.053.023-.08.033l-.234.083-.86.3a28.462,28.462,0,0,0-2.791,1.1,13.007,13.007,0,0,0-2.559,1.55c-.3.239-.531.446-.687.594-.079.072-.137.132-.178.171a.4.4,0,0,1-.065.057.485.485,0,0,1,.055-.065c.039-.041.094-.105.171-.181a8.9,8.9,0,0,1,.676-.612,12.263,12.263,0,0,1,2.561-1.573,25.26,25.26,0,0,1,2.8-1.083c.365-.119.662-.214.868-.276l.237-.07A.376.376,0,0,1,25.66,15.335Z" transform="translate(294.629 611.001)" fill="#fff"/>
    <path id="Path_4616" data-name="Path 4616" d="M30.031,18.449a.626.626,0,0,1-.057.045l-.167.118c-.146.1-.354.251-.608.442s-.548.428-.864.7-.652.593-.988.939-.638.7-.9,1.024-.489.628-.669.891-.324.474-.418.628l-.112.171a.348.348,0,0,1-.043.058.253.253,0,0,1,.031-.064c.026-.048.06-.107.1-.178.088-.155.225-.377.4-.637s.4-.572.661-.9.566-.679.9-1.031a13.308,13.308,0,0,1,1-.94c.322-.276.619-.5.879-.695s.471-.332.622-.426l.175-.108A.356.356,0,0,1,30.031,18.449Z" transform="translate(294.629 611.001)" fill="#fff"/>
    <path id="Path_4617" data-name="Path 4617" d="M49.389,27.187a1.617,1.617,0,0,1,.149.318,6.674,6.674,0,0,1,.415,1.633,1.567,1.567,0,0,1,.02.349,2.1,2.1,0,0,1-.067-.343c-.036-.211-.092-.5-.172-.82s-.171-.6-.24-.805A2.414,2.414,0,0,1,49.389,27.187Z" transform="translate(294.629 611.001)" fill="#fff"/>
    <path id="Path_4618" data-name="Path 4618" d="M46.385,41.585s-.021.018-.063.048l-.185.126-.3.212-.192.143-.225.146a25.037,25.037,0,0,1-2.785,1.59c-.3.148-.628.3-.963.45l-.521.221-.264.1-.276.106-.568.217-.593.2c-.2.073-.406.134-.615.2s-.418.134-.636.19a25.965,25.965,0,0,1-2.741.617,23.06,23.06,0,0,1-3,.323,20.223,20.223,0,0,1-3.014-.094l-.363-.035c-.119-.013-.239-.033-.357-.049l-.7-.1-.685-.126L27,46.011l-.33-.075a24.107,24.107,0,0,1-4.522-1.47,19.225,19.225,0,0,1-2.825-1.507c-.324-.2-.554-.377-.718-.495l-.182-.134c-.041-.03-.062-.048-.062-.048l.065.043.187.126c.166.11.4.29.723.485a19.793,19.793,0,0,0,2.83,1.492,24.527,24.527,0,0,0,4.51,1.452l.329.074.335.063.683.126.7.1c.118.016.237.036.357.048l.362.035a20.134,20.134,0,0,0,3.007.093,22.918,22.918,0,0,0,2.991-.32,26.681,26.681,0,0,0,2.736-.612c.217-.055.426-.126.636-.188s.413-.126.613-.2l.593-.2.566-.215.276-.1.268-.112.521-.219c.335-.152.659-.3.963-.445a26.326,26.326,0,0,0,2.793-1.564c.079-.052.154-.1.226-.143l.2-.133.3-.206.188-.126Z" transform="translate(294.629 611.001)" fill="#263238"/>
    <path id="Path_4619" data-name="Path 4619" d="M40.974,42.931,43.5,49.386h1.726l.376-.561.443.561h.609l.227-10.23Z" transform="translate(294.629 611.001)" fill="#008083"/>
    <path id="Path_4620" data-name="Path 4620" d="M25.117,43.838l2.135,5.547h1.962l.4-.642.387.642h.486s.214-6.258,0-6.435A47.077,47.077,0,0,0,25.117,43.838Z" transform="translate(294.629 611.001)" fill="#008083"/>
    <path id="Path_4621" data-name="Path 4621" d="M50.042,31.438a.121.121,0,0,1,0,.038.493.493,0,0,1-.009.108c-.01.1-.023.237-.039.413l-.03.3c-.011.109-.036.227-.057.354-.045.251-.082.543-.163.855q-.054.237-.116.495c-.041.172-.1.345-.153.527-.1.367-.251.746-.4,1.147a14.934,14.934,0,0,1-2.947,4.681c-.3.306-.575.6-.864.853-.141.126-.272.251-.409.367l-.394.319c-.251.209-.494.367-.7.516-.105.074-.2.144-.294.2l-.257.156-.355.214-.094.054-.033.018.029-.023.09-.06.35-.224.251-.161c.092-.062.186-.133.29-.207.206-.153.45-.314.695-.524l.391-.32c.136-.112.265-.241.406-.368.285-.251.56-.548.855-.854a15.208,15.208,0,0,0,2.937-4.664c.148-.4.3-.775.4-1.141.054-.181.114-.354.157-.525s.082-.334.126-.491c.085-.311.126-.6.172-.852.023-.126.047-.244.063-.352s.024-.207.035-.3c.021-.176.039-.314.05-.412l.015-.108A.142.142,0,0,1,50.042,31.438Z" transform="translate(294.629 611.001)" fill="#fff"/>
    <path id="Path_4622" data-name="Path 4622" d="M47.311,26a6.265,6.265,0,0,0-3.266-3.347A1.865,1.865,0,0,0,41.623,23.7a1.844,1.844,0,0,0-.129.586.131.131,0,0,1,0,.028,4.975,4.975,0,0,0,.754,2.59,22.767,22.767,0,0,1,1.3,2.4,6.115,6.115,0,0,1,.05,4.4c-.337.894-.894,1.848-.389,2.738a1.712,1.712,0,0,0,1.668.813c1.282-.117,1.948-1.275,2.556-2.327a7.461,7.461,0,0,0,.914-3.156A13.881,13.881,0,0,0,47.311,26Z" transform="translate(294.629 611.001)" fill="#fff"/>
    <path id="Path_4623" data-name="Path 4623" d="M42.508,22.335" transform="translate(294.629 611.001)" fill="#fff"/>
    <path id="Path_4624" data-name="Path 4624" d="M27.871,30.008c-.046.013-.126-.175-.244-.446a1.511,1.511,0,0,0-.273-.411.7.7,0,0,0-.471-.231.785.785,0,0,0-.5.191,1.247,1.247,0,0,0-.3.377c-.126.26-.182.452-.231.443s-.075-.206.016-.53a1.226,1.226,0,0,1,.308-.517,1,1,0,0,1,.712-.3.855.855,0,0,1,.4.116,1.077,1.077,0,0,1,.284.241,1.382,1.382,0,0,1,.265.534C27.922,29.805,27.911,30,27.871,30.008Z" transform="translate(294.629 611.001)" fill="#263238"/>
    <path id="Path_4625" data-name="Path 4625" d="M18.332,29.241a.9.9,0,1,1-.9-.9h0A.9.9,0,0,1,18.332,29.241Z" transform="translate(294.629 611.001)" fill="#263238"/>
    <path id="Path_4626" data-name="Path 4626" d="M47.014,21.687a.4.4,0,0,1-.062-.068l-.163-.2c-.073-.089-.161-.2-.269-.318s-.225-.265-.366-.413-.289-.316-.458-.486-.353-.35-.546-.538c-.4-.368-.844-.754-1.336-1.139a16.628,16.628,0,0,0-1.441-1c-.231-.141-.448-.278-.658-.393s-.406-.226-.587-.32-.347-.176-.492-.251-.271-.132-.377-.178l-.239-.112a.432.432,0,0,1-.082-.044.53.53,0,0,1,.087.031l.244.1c.106.044.235.1.377.17s.317.144.5.24.377.195.592.315.431.251.663.388c.46.288.953.622,1.449,1a16.914,16.914,0,0,1,1.338,1.147c.193.19.377.368.544.544s.319.339.455.492.251.3.358.421.192.235.26.327l.16.21A.372.372,0,0,1,47.014,21.687Z" transform="translate(294.629 611.001)" fill="#fff"/>
    <path id="Path_4627" data-name="Path 4627" d="M37.519,17.629a.5.5,0,0,1-.1-.029l-.275-.094c-.126-.044-.265-.094-.438-.144s-.365-.118-.585-.172l-.343-.09c-.119-.031-.251-.055-.377-.085-.259-.062-.539-.107-.833-.16a16.283,16.283,0,0,0-1.934-.182,15.938,15.938,0,0,0-1.942.072c-.3.035-.58.064-.842.111-.126.023-.259.039-.377.064l-.348.07c-.222.041-.42.1-.594.138s-.324.082-.446.118l-.28.079a.856.856,0,0,1-.1.024.442.442,0,0,1,.1-.036l.276-.09c.126-.04.269-.087.443-.126s.377-.1.594-.147l.348-.075c.126-.025.251-.044.377-.067.263-.05.546-.082.844-.118a14.35,14.35,0,0,1,3.894.112c.3.054.577.1.837.166.126.031.251.057.377.089l.343.1c.22.057.413.126.584.181s.318.108.436.156l.271.107A.553.553,0,0,1,37.519,17.629Z" transform="translate(294.629 611.001)" fill="#fff"/>
    <path id="Path_4628" data-name="Path 4628" d="M42.507,44.249a.976.976,0,0,1,.5.571,1.727,1.727,0,0,1,.067.772A3.06,3.06,0,0,1,42.425,47a2.047,2.047,0,0,1-.549-1.343c-.045-.52.188-1.49.628-1.412" transform="translate(294.629 611.001)" fill="#455a64"/>
    <path id="Path_4629" data-name="Path 4629" d="M42.92,47.834a.83.83,0,0,1,.269-.79A1.105,1.105,0,0,1,44,46.793a.461.461,0,0,1,.357.161.355.355,0,0,1,0,.359.707.707,0,0,1-.266.263,1.425,1.425,0,0,1-1.177.261" transform="translate(294.629 611.001)" fill="#455a64"/>
    <path id="Path_4630" data-name="Path 4630" d="M42.378,49.372a.562.562,0,0,1,.015-.1c.013-.072.03-.166.05-.279a2.938,2.938,0,0,1,.288-.89,1.807,1.807,0,0,1,.639-.68,1.188,1.188,0,0,1,.261-.114c.031-.011.058-.015.074-.02h.028a1.968,1.968,0,0,0-.349.161,1.846,1.846,0,0,0-.614.667,3.153,3.153,0,0,0-.3.879c-.025.117-.045.212-.061.278A.7.7,0,0,1,42.378,49.372Z" transform="translate(294.629 611.001)" fill="#263238"/>
    <path id="Path_4631" data-name="Path 4631" d="M42.393,45a.17.17,0,0,1,0,.045.76.76,0,0,0,.007.126c0,.112.013.275.02.476.013.4.023.958.02,1.573s-.018,1.171-.034,1.573c-.009.2-.016.363-.024.476a.531.531,0,0,1-.009.126.338.338,0,0,1,0,.045.169.169,0,0,1,0-.045v-.126c0-.117,0-.278.011-.476.01-.4.021-.957.024-1.571s0-1.169-.01-1.571c0-.2,0-.36-.008-.477V45.05A.386.386,0,0,1,42.393,45Z" transform="translate(294.629 611.001)" fill="#263238"/>
    <path id="Path_4632" data-name="Path 4632" d="M42.189,48.143a1.939,1.939,0,0,0-1.06-1.422.411.411,0,0,0-.442-.008.4.4,0,0,0-.034.441,1.659,1.659,0,0,0,1.526,1.03" transform="translate(294.629 611.001)" fill="#455a64"/>
    <path id="Path_4633" data-name="Path 4633" d="M41.2,47.193a.51.51,0,0,1,.09.039.965.965,0,0,1,.1.054,1.4,1.4,0,0,1,.126.08,1.8,1.8,0,0,1,.148.112,1.633,1.633,0,0,1,.157.143,2.1,2.1,0,0,1,.3.377,2.069,2.069,0,0,1,.2.445,1.981,1.981,0,0,1,.075.389,1.288,1.288,0,0,1,.006.152.748.748,0,0,1,0,.116.479.479,0,0,1-.011.1c-.009,0,.006-.139-.019-.362a1.534,1.534,0,0,0-.029-.18,1.962,1.962,0,0,0-.053-.2,2.123,2.123,0,0,0-.2-.436,2.251,2.251,0,0,0-.29-.377c-.053-.051-.1-.1-.153-.143a1.731,1.731,0,0,0-.143-.113C41.321,47.263,41.193,47.2,41.2,47.193Z" transform="translate(294.629 611.001)" fill="#263238"/>
    <path id="Path_4634" data-name="Path 4634" d="M1.784,44.447a.965.965,0,0,1,.628.432,1.7,1.7,0,0,1,.251.735,3.028,3.028,0,0,1-.288,1.525,2.012,2.012,0,0,1-.858-1.169c-.171-.494-.178-1.491.266-1.522" transform="translate(294.629 611.001)" fill="#455a64"/>
    <path id="Path_4635" data-name="Path 4635" d="M3.052,47.823a.832.832,0,0,1,.069-.83,1.1,1.1,0,0,1,.727-.443.464.464,0,0,1,.386.069.359.359,0,0,1,.093.348.737.737,0,0,1-.2.319,1.425,1.425,0,0,1-1.079.538" transform="translate(294.629 611.001)" fill="#455a64"/>
    <path id="Path_4636" data-name="Path 4636" d="M2.9,49.449a.557.557,0,0,1-.011-.1c0-.073-.01-.168-.018-.283a2.871,2.871,0,0,1,.064-.933,1.776,1.776,0,0,1,.455-.814,1.24,1.24,0,0,1,.225-.176.692.692,0,0,1,.069-.036c.016-.008.024-.011.025-.01a1.775,1.775,0,0,0-.3.24,1.829,1.829,0,0,0-.438.81,3.112,3.112,0,0,0-.073.923c0,.119.006.217.006.284A.6.6,0,0,1,2.9,49.449Z" transform="translate(294.629 611.001)" fill="#263238"/>
    <path id="Path_4637" data-name="Path 4637" d="M1.857,45.206a.316.316,0,0,1,.016.043q.015.046.039.126c.033.108.078.265.133.458.111.387.251.923.4,1.52s.266,1.141.348,1.534c.04.2.072.358.092.468l.024.126a.338.338,0,0,1,0,.045.223.223,0,0,1-.013-.044l-.03-.126c-.025-.114-.06-.273-.1-.465-.088-.393-.211-.935-.358-1.531s-.286-1.131-.391-1.522c-.05-.191-.092-.347-.126-.46-.014-.051-.024-.094-.033-.126A.353.353,0,0,1,1.857,45.206Z" transform="translate(294.629 611.001)" fill="#263238"/>
    <path id="Path_4638" data-name="Path 4638" d="M2.417,48.3a1.94,1.94,0,0,0-1.373-1.123.413.413,0,0,0-.431.1.4.4,0,0,0,.075.436,1.658,1.658,0,0,0,1.73.628" transform="translate(294.629 611.001)" fill="#455a64"/>
    <path id="Path_4639" data-name="Path 4639" d="M1.226,47.62a.572.572,0,0,1,.1.02,1.061,1.061,0,0,1,.111.028c.049.014.1.03.146.048a1.7,1.7,0,0,1,.17.072,2.022,2.022,0,0,1,.869.784,1.993,1.993,0,0,1,.1.188c.029.06.049.118.069.172a1.521,1.521,0,0,1,.043.146.724.724,0,0,1,.025.112.422.422,0,0,1,.013.1c-.008,0-.028-.137-.106-.347a1.768,1.768,0,0,0-.072-.168,1.624,1.624,0,0,0-.1-.183,2.322,2.322,0,0,0-.3-.377,2.269,2.269,0,0,0-.377-.3,2.009,2.009,0,0,0-.182-.1,1.668,1.668,0,0,0-.167-.075C1.361,47.653,1.223,47.628,1.226,47.62Z" transform="translate(294.629 611.001)" fill="#263238"/>
  </g>
</svg>
