<svg xmlns="http://www.w3.org/2000/svg" xmlns:xlink="http://www.w3.org/1999/xlink" width="79" height="78" viewBox="0 0 79 78">
  <defs>
    <clipPath id="clip-path">
      <rect id="Rectangle_2183" data-name="Rectangle 2183" width="79" height="78" transform="translate(261.5 1536.736)" fill="#fff"/>
    </clipPath>
  </defs>
  <g id="Mask_Group_12" data-name="Mask Group 12" transform="translate(-261.5 -1536.736)" clip-path="url(#clip-path)">
    <g id="Group_5964" data-name="Group 5964" transform="translate(238.882 1544.642)">
      <g id="freepik--Floor--inject-58" transform="translate(0 83.203)">
        <path id="Path_5694" data-name="Path 5694" d="M0,98.857c0,.027,28.154.051,62.878.051s62.885-.031,62.885-.051-28.148-.051-62.885-.051S0,98.827,0,98.857Z" transform="translate(0 -98.806)" fill="#263238"/>
      </g>
      <g id="freepik--Chart--inject-58" transform="translate(19.288 44.505)">
        <rect id="Rectangle_2141" data-name="Rectangle 2141" width="23.245" height="38.73" transform="translate(36.255)" fill="#455a64"/>
        <g id="Group_5832" data-name="Group 5832" transform="translate(36.255)" opacity="0.3">
          <rect id="Rectangle_2142" data-name="Rectangle 2142" width="23.245" height="38.73" transform="translate(0)"/>
        </g>
        <rect id="Rectangle_2143" data-name="Rectangle 2143" width="23.245" height="38.73" transform="translate(31.431)" fill="#455a64"/>
        <path id="Path_5695" data-name="Path 5695" d="M87.918,75.4c-.018.024,1.021.86,2.317,1.868s2.364,1.81,2.381,1.789S91.6,78.2,90.3,77.192,87.936,75.382,87.918,75.4Z" transform="translate(-33.171 -56.413)" fill="#455a64"/>
        <path id="Path_5696" data-name="Path 5696" d="M87.918,72.812c-.018.021,1.021.857,2.317,1.865s2.364,1.811,2.381,1.789S91.6,75.609,90.3,74.6,87.936,72.789,87.918,72.812Z" transform="translate(-33.171 -56.004)" fill="#455a64"/>
        <path id="Path_5697" data-name="Path 5697" d="M87.92,70.225c-.018.021,1.021.857,2.317,1.868s2.364,1.8,2.383,1.784S91.6,73.02,90.3,72.009,87.936,70.2,87.92,70.225Z" transform="translate(-33.171 -55.595)" fill="#455a64"/>
        <path id="Path_5698" data-name="Path 5698" d="M87.92,67.625c-.018.023,1.021.859,2.317,1.867S92.6,71.3,92.621,71.28,91.6,70.423,90.3,69.413,87.936,67.6,87.92,67.625Z" transform="translate(-33.171 -55.185)" fill="#455a64"/>
        <path id="Path_5699" data-name="Path 5699" d="M87.918,65.034c-.018.021,1.021.857,2.317,1.868s2.364,1.81,2.381,1.786S91.6,67.831,90.3,66.82,87.936,65.011,87.918,65.034Z" transform="translate(-33.171 -54.776)" fill="#455a64"/>
        <path id="Path_5700" data-name="Path 5700" d="M87.92,62.44c-.018.021,1.021.857,2.317,1.868s2.364,1.81,2.383,1.79S91.6,65.241,90.3,64.23,87.936,62.429,87.92,62.44Z" transform="translate(-33.171 -54.366)" fill="#455a64"/>
        <path id="Path_5701" data-name="Path 5701" d="M87.918,59.846c-.018.024,1.021.86,2.317,1.868s2.364,1.81,2.381,1.789S91.6,62.645,90.3,61.635,87.936,59.825,87.918,59.846Z" transform="translate(-33.171 -53.956)" fill="#455a64"/>
        <path id="Path_5702" data-name="Path 5702" d="M87.918,57.255c-.018.021,1.021.857,2.317,1.868s2.364,1.81,2.381,1.786S91.6,60.052,90.3,59.041,87.936,57.232,87.918,57.255Z" transform="translate(-33.171 -53.547)" fill="#455a64"/>
        <path id="Path_5703" data-name="Path 5703" d="M87.918,54.661c-.018.021,1.021.857,2.317,1.868s2.364,1.81,2.381,1.789S91.6,57.46,90.3,56.449,87.936,54.634,87.918,54.661Z" transform="translate(-33.171 -53.138)" fill="#455a64"/>
        <path id="Path_5704" data-name="Path 5704" d="M89.052,52.948c-.018.024.808.693,1.842,1.5s1.886,1.441,1.9,1.417-.808-.691-1.842-1.5S89.068,52.927,89.052,52.948Z" transform="translate(-33.35 -52.867)" fill="#455a64"/>
        <path id="Path_5705" data-name="Path 5705" d="M92.331,52.9a1.952,1.952,0,0,0,.463.421,1.921,1.921,0,0,0,.527.345,3.99,3.99,0,0,0-.99-.772Z" transform="translate(-33.868 -52.858)" fill="#455a64"/>
        <path id="Path_5706" data-name="Path 5706" d="M92.633,82.349c.018-.024-1.021-.859-2.317-1.868s-2.364-1.811-2.379-1.789,1.02.857,2.317,1.868S92.62,82.375,92.633,82.349Z" transform="translate(-33.174 -56.932)" fill="#455a64"/>
        <path id="Path_5707" data-name="Path 5707" d="M92.464,85.629c.015-.021-1.021-.857-2.317-1.868s-2.364-1.81-2.381-1.789,1.021.857,2.317,1.868S92.446,85.646,92.464,85.629Z" transform="translate(-33.147 -57.45)" fill="#455a64"/>
        <path id="Path_5708" data-name="Path 5708" d="M92.619,88.639c.018-.021-1.021-.857-2.317-1.868s-2.364-1.81-2.381-1.789,1.021.86,2.317,1.868S92.6,88.663,92.619,88.639Z" transform="translate(-33.171 -57.926)" fill="#455a64"/>
        <path id="Path_5709" data-name="Path 5709" d="M92.619,91.234c.018-.021-1.021-.857-2.317-1.868s-2.364-1.81-2.381-1.789,1.021.857,2.317,1.868S92.6,91.255,92.619,91.234Z" transform="translate(-33.171 -58.335)" fill="#455a64"/>
        <path id="Path_5710" data-name="Path 5710" d="M92.619,93.827c.018-.024-1.021-.86-2.317-1.868s-2.364-1.811-2.381-1.788,1.021.857,2.317,1.868S92.6,93.843,92.619,93.827Z" transform="translate(-33.171 -58.745)" fill="#455a64"/>
        <path id="Path_5711" data-name="Path 5711" d="M92.619,96.419c.018-.021-1.021-.857-2.317-1.868s-2.364-1.81-2.381-1.789,1.021.859,2.317,1.868S92.6,96.442,92.619,96.419Z" transform="translate(-33.171 -59.154)" fill="#455a64"/>
        <path id="Path_5712" data-name="Path 5712" d="M91.664,98.271c.018-.023-.808-.693-1.842-1.5s-1.886-1.438-1.9-1.417.808.691,1.843,1.5S91.647,98.292,91.664,98.271Z" transform="translate(-33.171 -59.564)" fill="#455a64"/>
        <path id="Path_5713" data-name="Path 5713" d="M88.908,98.72a3.9,3.9,0,0,0-.99-.772,2.016,2.016,0,0,0,.466.421A2.081,2.081,0,0,0,88.908,98.72Z" transform="translate(-33.171 -59.973)" fill="#455a64"/>
        <rect id="Rectangle_2144" data-name="Rectangle 2144" width="20.478" height="27.387" transform="translate(4.105 11.335)" fill="#455a64"/>
        <g id="Group_5833" data-name="Group 5833" transform="translate(4.105 11.335)" opacity="0.3">
          <rect id="Rectangle_2145" data-name="Rectangle 2145" width="20.478" height="27.387"/>
        </g>
        <rect id="Rectangle_2146" data-name="Rectangle 2146" width="20.478" height="27.387" transform="translate(0 11.335)" fill="#455a64"/>
        <path id="Path_5714" data-name="Path 5714" d="M47.223,86.148c-.018.021.89.758,2.026,1.64s2.07,1.581,2.088,1.56-.89-.758-2.026-1.64S47.24,86.124,47.223,86.148Z" transform="translate(-26.745 -58.109)" fill="#455a64"/>
        <path id="Path_5715" data-name="Path 5715" d="M47.223,83.877c-.018.021.89.758,2.026,1.64s2.07,1.581,2.088,1.56-.89-.758-2.026-1.64S47.24,83.856,47.223,83.877Z" transform="translate(-26.745 -57.751)" fill="#455a64"/>
        <path id="Path_5716" data-name="Path 5716" d="M47.223,81.607c-.018.024.89.758,2.026,1.64s2.07,1.584,2.088,1.56-.89-.758-2.026-1.64S47.24,81.586,47.223,81.607Z" transform="translate(-26.745 -57.392)" fill="#455a64"/>
        <path id="Path_5717" data-name="Path 5717" d="M47.223,79.339c-.018.021.89.758,2.026,1.64s2.07,1.581,2.088,1.56-.89-.758-2.026-1.64S47.24,79.315,47.223,79.339Z" transform="translate(-26.745 -57.034)" fill="#455a64"/>
        <path id="Path_5718" data-name="Path 5718" d="M47.223,77.068c-.018.021.89.758,2.026,1.64s2.07,1.581,2.088,1.56-.89-.758-2.026-1.64S47.24,77.047,47.223,77.068Z" transform="translate(-26.745 -56.676)" fill="#455a64"/>
        <path id="Path_5719" data-name="Path 5719" d="M47.223,74.814c-.018.024.89.758,2.026,1.64s2.07,1.583,2.088,1.56-.89-.758-2.026-1.64S47.24,74.779,47.223,74.814Z" transform="translate(-26.745 -56.32)" fill="#455a64"/>
        <path id="Path_5720" data-name="Path 5720" d="M47.223,72.53c-.018.021.89.758,2.026,1.64s2.07,1.581,2.088,1.56-.89-.758-2.026-1.64S47.24,72.506,47.223,72.53Z" transform="translate(-26.745 -55.959)" fill="#455a64"/>
        <path id="Path_5721" data-name="Path 5721" d="M47.223,70.26c-.018.024.89.758,2.026,1.64s2.07,1.581,2.088,1.56-.89-.758-2.026-1.64S47.24,70.239,47.223,70.26Z" transform="translate(-26.745 -55.601)" fill="#455a64"/>
        <path id="Path_5722" data-name="Path 5722" d="M47.223,67.992c-.018.021.89.758,2.026,1.638s2.07,1.583,2.088,1.56-.89-.758-2.026-1.64S47.24,67.968,47.223,67.992Z" transform="translate(-26.745 -55.243)" fill="#455a64"/>
        <path id="Path_5723" data-name="Path 5723" d="M48.214,66.492c-.018.021.7.611,1.608,1.315s1.653,1.257,1.671,1.236-.7-.611-1.608-1.315S48.23,66.468,48.214,66.492Z" transform="translate(-26.901 -55.006)" fill="#455a64"/>
        <path id="Path_5724" data-name="Path 5724" d="M51.082,66.451c-.018.021.163.193.4.376a1.589,1.589,0,0,0,.466.29c.018-.021-.164-.193-.4-.387A1.485,1.485,0,0,0,51.082,66.451Z" transform="translate(-27.354 -54.999)" fill="#455a64"/>
        <path id="Path_5725" data-name="Path 5725" d="M47.223,95.066c-.018.021.89.758,2.026,1.64s2.07,1.58,2.088,1.56-.89-.758-2.026-1.64S47.24,95.042,47.223,95.066Z" transform="translate(-26.745 -59.518)" fill="#455a64"/>
        <path id="Path_5726" data-name="Path 5726" d="M47.223,92.795c-.018.024.89.758,2.026,1.64s2.07,1.581,2.088,1.56-.89-.758-2.026-1.64S47.24,92.771,47.223,92.795Z" transform="translate(-26.745 -59.159)" fill="#455a64"/>
        <path id="Path_5727" data-name="Path 5727" d="M47.223,90.528c-.018.021.89.758,2.026,1.64s2.07,1.581,2.088,1.559-.89-.758-2.026-1.64S47.24,90.5,47.223,90.528Z" transform="translate(-26.745 -58.801)" fill="#455a64"/>
        <path id="Path_5728" data-name="Path 5728" d="M47.223,88.257c-.018.021.89.758,2.026,1.64s2.07,1.581,2.088,1.56-.89-.758-2.026-1.64S47.24,88.236,47.223,88.257Z" transform="translate(-26.745 -58.443)" fill="#455a64"/>
        <rect id="Rectangle_2147" data-name="Rectangle 2147" width="21.955" height="18.649" transform="translate(68.445 20.099)" fill="#455a64"/>
        <g id="Group_5834" data-name="Group 5834" transform="translate(68.445 20.099)" opacity="0.3">
          <rect id="Rectangle_2148" data-name="Rectangle 2148" width="21.955" height="18.649"/>
        </g>
        <rect id="Rectangle_2149" data-name="Rectangle 2149" width="21.955" height="18.649" transform="translate(64.494 20.099)" fill="#455a64"/>
        <path id="Path_5729" data-name="Path 5729" d="M125.651,95.284c-.015.024.842.715,1.908,1.545s1.953,1.489,1.97,1.468-.836-.715-1.908-1.545S125.669,95.263,125.651,95.284Z" transform="translate(-39.129 -59.552)" fill="#455a64"/>
        <path id="Path_5730" data-name="Path 5730" d="M125.651,93.16c-.015.024.842.717,1.908,1.545s1.953,1.489,1.97,1.468-.836-.715-1.908-1.545S125.669,93.125,125.651,93.16Z" transform="translate(-39.129 -59.217)" fill="#455a64"/>
        <path id="Path_5731" data-name="Path 5731" d="M125.651,91.007c-.015.021.842.715,1.908,1.545s1.953,1.491,1.97,1.468-.836-.715-1.908-1.545S125.669,90.983,125.651,91.007Z" transform="translate(-39.129 -58.877)" fill="#455a64"/>
        <path id="Path_5732" data-name="Path 5732" d="M125.651,88.869c-.015.021.842.714,1.908,1.545s1.953,1.491,1.97,1.469-.836-.717-1.908-1.545S125.669,88.846,125.651,88.869Z" transform="translate(-39.129 -58.539)" fill="#455a64"/>
        <path id="Path_5733" data-name="Path 5733" d="M125.651,86.738c-.015.024.842.715,1.908,1.545s1.953,1.489,1.97,1.468-.836-.714-1.908-1.545S125.669,86.708,125.651,86.738Z" transform="translate(-39.129 -58.203)" fill="#455a64"/>
        <path id="Path_5734" data-name="Path 5734" d="M125.651,84.591c-.015.021.842.715,1.908,1.545s1.953,1.489,1.97,1.468-.836-.715-1.908-1.545S125.669,84.567,125.651,84.591Z" transform="translate(-39.129 -57.864)" fill="#455a64"/>
        <path id="Path_5735" data-name="Path 5735" d="M125.651,82.451c-.015.021.842.715,1.908,1.545s1.953,1.491,1.97,1.468-.836-.715-1.908-1.545S125.669,82.427,125.651,82.451Z" transform="translate(-39.129 -57.526)" fill="#455a64"/>
        <path id="Path_5736" data-name="Path 5736" d="M125.651,80.316c-.015.021.842.715,1.908,1.545s1.953,1.491,1.97,1.469-.836-.715-1.908-1.545S125.669,80.291,125.651,80.316Z" transform="translate(-39.129 -57.189)" fill="#455a64"/>
        <path id="Path_5737" data-name="Path 5737" d="M125.651,78.171c-.015.023.842.714,1.908,1.545s1.953,1.489,1.97,1.468-.836-.714-1.908-1.545S125.669,78.15,125.651,78.171Z" transform="translate(-39.129 -56.85)" fill="#455a64"/>
        <path id="Path_5738" data-name="Path 5738" d="M126.587,76.761A18.311,18.311,0,0,0,128.1,78a19.278,19.278,0,0,0,1.576,1.159,19.284,19.284,0,0,0-1.516-1.242A18.681,18.681,0,0,0,126.587,76.761Z" transform="translate(-39.277 -56.627)" fill="#455a64"/>
        <path id="Path_5739" data-name="Path 5739" d="M129.286,76.72c-.018.021.151.182.376.357a1.347,1.347,0,0,0,.44.278c.018-.021-.152-.182-.387-.357A1.378,1.378,0,0,0,129.286,76.72Z" transform="translate(-39.703 -56.621)" fill="#455a64"/>
      </g>
      <g id="freepik--Character--inject-58" transform="translate(33.847 0)">
        <g id="Group_5835" data-name="Group 5835" transform="translate(20.227 42.811)" opacity="0.3">
          <path id="Path_5740" data-name="Path 5740" d="M64.623,50.893a1.151,1.151,0,0,1,.566-.031c5.9.654,12.439,1.095,18.346,1.753v.064a35.836,35.836,0,0,1-11.671,1.352,1.294,1.294,0,0,0-1.041.253,1.37,1.37,0,0,0-.11,1.159q1.245,5.416,2.489,10.832c.13.568.22,1.263-.224,1.64-.614.52-1.516-.1-2.035-.711-3.515-4.169-5.11-9.581-6.614-14.821C64.169,51.849,64.105,51.106,64.623,50.893Z" transform="translate(-64.214 -50.84)"/>
        </g>
        <path id="Path_5741" data-name="Path 5741" d="M55.6,48.672a3.088,3.088,0,0,1,2.225-.733l1.352,4.324c-1,.042-1.991.558-2.952.294a2.1,2.1,0,0,1-1.468-1.738A2.51,2.51,0,0,1,55.6,48.672Z" transform="translate(-42.491 -7.57)" fill="#008083"/>
        <path id="Path_5742" data-name="Path 5742" d="M57.728,47.81c0-.035-.147-.061-.412-.06a3.338,3.338,0,0,0-1.114.211,3.016,3.016,0,0,0-1.352,1.053,2.8,2.8,0,0,0-.452.936,2.49,2.49,0,0,0-.033,1.133,2.3,2.3,0,0,0,.494,1.033,2.143,2.143,0,0,0,.877.608,3.133,3.133,0,0,0,1.711.11,5.37,5.37,0,0,0,1.066-.33c.242-.1.367-.179.355-.215s-.157-.025-.411.018-.618.12-1.062.16a3.028,3.028,0,0,1-1.477-.193,1.733,1.733,0,0,1-.664-.49,1.83,1.83,0,0,1-.375-.808,2.224,2.224,0,0,1,.357-1.684,2.919,2.919,0,0,1,1.108-.99,4.991,4.991,0,0,1,.993-.346C57.591,47.889,57.732,47.846,57.728,47.81Z" transform="translate(-42.424 -7.541)" fill="#008083"/>
        <path id="Path_5743" data-name="Path 5743" d="M71.719,66.7l2.74,7.678-9.538,3.461c-.275-.933,4-4.547,4-4.547l-1.968-4.849Z" transform="translate(-44.097 -10.533)" fill="#008083"/>
        <g id="Group_5836" data-name="Group 5836" transform="translate(27.26 61.266)" opacity="0.6">
          <path id="Path_5744" data-name="Path 5744" d="M72.926,72.759a.414.414,0,0,1,.43.346.4.4,0,0,1-.337.43.437.437,0,0,1-.454-.371c0-.2.193-.436.4-.408" transform="translate(-72.566 -72.755)" fill="#fff"/>
        </g>
        <path id="Path_5745" data-name="Path 5745" d="M74.455,75.672l-.276-.772L65.12,78.513s-.36.337-.2.621Z" transform="translate(-44.092 -11.828)" fill="#f5f5f5"/>
        <path id="Path_5746" data-name="Path 5746" d="M69.467,74.5c.018.045.259-.018.541.048s.477.218.514.193-.131-.276-.475-.351S69.44,74.464,69.467,74.5Z" transform="translate(-44.816 -11.745)" fill="#263238"/>
        <path id="Path_5747" data-name="Path 5747" d="M68.456,75.441c0,.048.237.054.466.193s.351.332.4.312-.021-.291-.309-.461S68.44,75.394,68.456,75.441Z" transform="translate(-44.657 -11.904)" fill="#263238"/>
        <path id="Path_5748" data-name="Path 5748" d="M68.173,76.989c.046,0,.027-.261-.193-.473s-.467-.233-.473-.193.179.133.349.309S68.125,77,68.173,76.989Z" transform="translate(-44.507 -12.05)" fill="#263238"/>
        <path id="Path_5749" data-name="Path 5749" d="M69.081,73.083c.035.035.226-.106.494-.193s.505-.067.515-.118-.248-.143-.564-.046S69.044,73.054,69.081,73.083Z" transform="translate(-44.755 -11.478)" fill="#263238"/>
        <path id="Path_5750" data-name="Path 5750" d="M68.864,71.487a.967.967,0,0,0,.477-.176,2.371,2.371,0,0,0,.444-.337,2.558,2.558,0,0,0,.222-.245.638.638,0,0,0,.1-.164.216.216,0,0,0-.067-.253.277.277,0,0,0-.243-.033.724.724,0,0,0-.168.091,1.88,1.88,0,0,0-.261.209,1.817,1.817,0,0,0-.337.45.844.844,0,0,0-.139.488c.027,0,.084-.176.245-.427a1.966,1.966,0,0,1,.337-.387,1.928,1.928,0,0,1,.245-.193c.091-.061.176-.094.218-.058s.019.019.01.056a.637.637,0,0,1-.077.122,2.87,2.87,0,0,1-.193.236,2.814,2.814,0,0,1-.4.344A3.6,3.6,0,0,0,68.864,71.487Z" transform="translate(-44.721 -11.096)" fill="#263238"/>
        <path id="Path_5751" data-name="Path 5751" d="M68.766,71.513a.818.818,0,0,0-.04-.505,1.717,1.717,0,0,0-.253-.5,1.8,1.8,0,0,0-.228-.245.419.419,0,0,0-.387-.131.239.239,0,0,0-.151.206.778.778,0,0,0,.013.193,1.123,1.123,0,0,0,.118.321,1.139,1.139,0,0,0,.387.421c.276.179.49.168.488.149a4.146,4.146,0,0,1-.421-.248,1.14,1.14,0,0,1-.312-.387.982.982,0,0,1-.093-.278c-.021-.106-.013-.2.029-.206a.3.3,0,0,1,.224.1,1.717,1.717,0,0,1,.212.216,1.811,1.811,0,0,1,.264.442C68.723,71.32,68.744,71.513,68.766,71.513Z" transform="translate(-44.538 -11.074)" fill="#263238"/>
        <path id="Path_5752" data-name="Path 5752" d="M82.41,40.741a5.5,5.5,0,0,1,4.12,1.389c1.427,1.5,3.19,3.644,3.284,5.128.163,2.219-1.19,2.877-2.155,3.42a2.724,2.724,0,0,1-1.42.327l-18.05-.137-.568-3.057L79.3,44.932l-.485-4.393Z" transform="translate(-44.525 -6.402)" fill="#263238"/>
        <path id="Path_5753" data-name="Path 5753" d="M77.306,40.491l-5.679-.263s-9.8.541-11.9,2.472-1.831,4.1-1.133,6.179,6.84,15.477,6.84,15.477a2.316,2.316,0,0,0-.218,1.7,2.246,2.246,0,0,0,1.6,1.528l5.459-2.007s.742-.261.218-.966a2.3,2.3,0,0,0-.871-.826V62.4s-1.92-3.488-2.093-3.966-2.013-7.579-2.013-7.579l-1.223-2.1s2.955-1.389,5.513-2.395l5.986-1.474Z" transform="translate(-43.019 -6.353)" fill="#263238"/>
        <path id="Path_5754" data-name="Path 5754" d="M69.967,69.773c.012.013.184-.124.479-.312A6.443,6.443,0,0,1,73,68.494a5.627,5.627,0,0,0,.568-.084,2.119,2.119,0,0,0-.579.012,5.412,5.412,0,0,0-1.352.324,5.339,5.339,0,0,0-1.226.657A2.143,2.143,0,0,0,69.967,69.773Z" transform="translate(-44.895 -10.801)" fill="#455a64"/>
        <path id="Path_5755" data-name="Path 5755" d="M66.729,68.42a1.935,1.935,0,0,0,.317-.337c.184-.216.429-.523.685-.871s.477-.674.627-.915a1.756,1.756,0,0,0,.224-.4,2.273,2.273,0,0,0-.285.361l-.651.894-.659.887A2.061,2.061,0,0,0,66.729,68.42Z" transform="translate(-44.384 -10.406)" fill="#455a64"/>
        <path id="Path_5756" data-name="Path 5756" d="M64.353,48.075a5.26,5.26,0,0,0,.515.168,5.528,5.528,0,0,1,1.179.551,5.6,5.6,0,0,1,1.011.815,4.164,4.164,0,0,0,.375.387,1.844,1.844,0,0,0-.321-.442A4.586,4.586,0,0,0,66.1,48.7a4.674,4.674,0,0,0-1.209-.533A1.889,1.889,0,0,0,64.353,48.075Z" transform="translate(-44.009 -7.592)" fill="#455a64"/>
        <path id="Path_5757" data-name="Path 5757" d="M70.121,57.363a.518.518,0,0,0-.021-.118c-.024-.084-.051-.193-.084-.332l-.327-1.219-1.118-4.007c-.226-.782-.421-1.528-.639-2.2A4.591,4.591,0,0,0,66.9,47.916a5.8,5.8,0,0,0-.975-.8c-.127-.084-.226-.141-.3-.178a.645.645,0,0,0-.108-.054s.137.093.387.264a6.653,6.653,0,0,1,.944.823,4.573,4.573,0,0,1,.99,1.545c.211.664.4,1.42.63,2.2l1.141,4.013.359,1.209c.042.133.075.242.1.327A.517.517,0,0,0,70.121,57.363Z" transform="translate(-44.194 -7.404)" fill="#455a64"/>
        <path id="Path_5758" data-name="Path 5758" d="M76.947,46.3c.029,0,.149-1.06.266-2.371s.193-2.379.163-2.381-.149,1.059-.266,2.371S76.92,46.295,76.947,46.3Z" transform="translate(-45.997 -6.561)" fill="#455a64"/>
        <path id="Path_5759" data-name="Path 5759" d="M88.171,50.17c.018,0,.1-.164.282-.415a4.239,4.239,0,0,1,.824-.867,4.18,4.18,0,0,1,1.041-.589c.288-.112.475-.157.472-.173a1.613,1.613,0,0,0-.5.1,3.6,3.6,0,0,0-1.9,1.487A1.563,1.563,0,0,0,88.171,50.17Z" transform="translate(-47.77 -7.6)" fill="#455a64"/>
        <path id="Path_5760" data-name="Path 5760" d="M84.041,45.79c0,.018.253-.137.668-.327a6.3,6.3,0,0,1,3.49-.505c.454.066.728.147.732.127a.657.657,0,0,0-.193-.072,4.311,4.311,0,0,0-.533-.13,5.719,5.719,0,0,0-3.537.505,3.861,3.861,0,0,0-.475.275A.7.7,0,0,0,84.041,45.79Z" transform="translate(-47.118 -7.075)" fill="#455a64"/>
        <path id="Path_5761" data-name="Path 5761" d="M67.894,48.659a1.321,1.321,0,0,0,.141-.023l.4-.088,1.471-.33c1.241-.278,2.961-.651,4.866-1.029s3.636-.691,4.892-.9l1.487-.253.4-.073a1.106,1.106,0,0,0,.139-.031.628.628,0,0,0-.143.012l-.406.052c-.354.048-.863.124-1.493.222-1.263.193-2.994.5-4.9.873s-3.621.763-4.862,1.06c-.62.149-1.12.272-1.464.363l-.4.106A.622.622,0,0,0,67.894,48.659Z" transform="translate(-44.568 -7.254)" fill="#455a64"/>
        <path id="Path_5762" data-name="Path 5762" d="M81.482,45.853a5.793,5.793,0,0,1,.253-.579,2.5,2.5,0,0,1,.413-.535,6.962,6.962,0,0,1,.632-.547,9.6,9.6,0,0,1,1.293-.8,3.966,3.966,0,0,0,.552-.313,3.378,3.378,0,0,0-.579.248,7.5,7.5,0,0,0-1.325.786,5.94,5.94,0,0,0-.637.562,2.453,2.453,0,0,0-.409.568,2,2,0,0,0-.16.44A.533.533,0,0,0,81.482,45.853Z" transform="translate(-46.714 -6.803)" fill="#455a64"/>
        <path id="Path_5763" data-name="Path 5763" d="M57.606,49.614c-.023.023.278.328.514.792s.311.884.344.878A2.307,2.307,0,0,0,57.606,49.614Z" transform="translate(-42.943 -7.835)" fill="#263238"/>
        <path id="Path_5764" data-name="Path 5764" d="M40.26,18.607a.185.185,0,0,0,.018.027l.052.077.212.3.819,1.1c.711.952,1.723,2.3,2.93,3.911l.025.035.035-.025L46.9,22.225l-.067-.012c.606.821,1.253,1.7,1.922,2.6.724.975,1.426,1.931,2.089,2.813l.025.037.037-.023L54.048,25.8l-.054-.012,2.7,3.379.758.933.2.245a.756.756,0,0,0,.072.084.638.638,0,0,0-.061-.088l-.193-.253-.742-.952-2.679-3.4-.024-.029L54,25.724l-3.144,1.827.064.013-2.086-2.818L46.9,22.153l-.029-.039-.039.029L44.29,23.956h.06l-2.958-3.89-.836-1.087-.224-.284c-.024-.031-.042-.054-.06-.073S40.262,18.607,40.26,18.607Z" transform="translate(-40.204 -2.939)" fill="#263238"/>
        <path id="Path_5765" data-name="Path 5765" d="M40.524,21.459a1.123,1.123,0,0,0,0-.226c-.012-.168-.027-.371-.043-.612-.04-.518-.1-1.232-.178-2.021v-.013l-.067.052c.744.264,1.417.5,1.907.666l.579.193a.872.872,0,0,0,.216.056,1.066,1.066,0,0,0-.2-.093l-.57-.222c-.483-.182-1.159-.429-1.895-.693l-.075-.027V18.6c.075.786.149,1.5.206,2.014.029.242.054.446.075.611A.861.861,0,0,0,40.524,21.459Z" transform="translate(-40.194 -2.925)" fill="#263238"/>
        <path id="Path_5766" data-name="Path 5766" d="M65.415,28.947A11.854,11.854,0,0,1,67.267,26.4s1.535-3.758,1.8-4.8a15.938,15.938,0,0,1,.723-1.931c.618-1.045.926-1.064,1.981-1.659l2.051-.906.253-.558a2.317,2.317,0,0,1,1.059-1.114l5.137-2.653,1.592,2.81a36.35,36.35,0,0,1,3.233,1.671c.627.8.193,13.642.193,13.642s.307,5,.649,6.407.541,2.442.541,2.442L84.95,38a5.8,5.8,0,0,0-4.272-1.619l-12.058.052.733-3.6-10,2.115s-1.678-3.272-1.811-3.337S65.415,28.947,65.415,28.947Z" transform="translate(-42.932 -2.019)" fill="#008083"/>
        <path id="Path_5767" data-name="Path 5767" d="M83.306,17.381c.084-.084-.966,2.418-1.644,5.137a29.065,29.065,0,0,0-.52,5.967l-.259,4.275V36.5L75.1,36.114l.865-6.284s.7-4.056.9-5.6c.179-1.411,1.039-7.074,1.039-7.074S80.884,19.847,83.306,17.381Z" transform="translate(-45.706 -2.71)" fill="#fff"/>
        <path id="Path_5768" data-name="Path 5768" d="M69.164,34.346a.428.428,0,0,0,0-.147,2.239,2.239,0,0,0-.075-.387,2.661,2.661,0,0,0-.663-1.122,2.614,2.614,0,0,0-1.12-.663,2.082,2.082,0,0,0-.387-.077h-.147a4.174,4.174,0,0,1,.512.147,2.774,2.774,0,0,1,1.738,1.738C69.119,34.143,69.14,34.348,69.164,34.346Z" transform="translate(-44.391 -5.046)" fill="#263238"/>
        <path id="Path_5769" data-name="Path 5769" d="M68.915,32.024a1.84,1.84,0,0,0-.883-.253,1.809,1.809,0,0,0-.911.108c0,.031.408-.046.9,0S68.905,32.056,68.915,32.024Z" transform="translate(-44.446 -5.015)" fill="#263238"/>
        <path id="Path_5770" data-name="Path 5770" d="M89.112,17.96a5.641,5.641,0,0,1,3.252,3.924c.541,2.205,2.863,11.222,2.383,12.57S85,37.127,85,37.127L83.906,32.5l4.708-1.288s-.06-4.295-.12-6.07S89.112,17.96,89.112,17.96Z" transform="translate(-47.096 -2.837)" fill="#008083"/>
        <path id="Path_5771" data-name="Path 5771" d="M83.736,35.99l-1.649.433L83.066,40l1.622-.072Z" transform="translate(-46.809 -5.684)" fill="#fff"/>
        <path id="Path_5772" data-name="Path 5772" d="M70.543,39.227l1.485-1.578,3.058-.772s2.8.842,2.87.842S80.4,37.07,80.4,37.07l.829,3.037-4.272.294-4.878-.193s-.253-.237-.1-.4-.817.275-.931.28-.337.093-.485-.091A.647.647,0,0,1,70.543,39.227Z" transform="translate(-44.967 -5.824)" fill="#c78976"/>
        <path id="Path_5773" data-name="Path 5773" d="M72.263,40.189a2.629,2.629,0,0,0,.485-.143c.3-.094.707-.22,1.159-.337s.878-.2,1.184-.266a2.6,2.6,0,0,0,.493-.114,2.075,2.075,0,0,0-.505.039,10.708,10.708,0,0,0-1.2.236,10.133,10.133,0,0,0-1.159.371A1.967,1.967,0,0,0,72.263,40.189Z" transform="translate(-45.258 -6.211)" fill="#8b5d54"/>
        <path id="Path_5774" data-name="Path 5774" d="M70.566,39.443a6.343,6.343,0,0,0,.674-.218c.415-.141,1-.313,1.645-.493a9.512,9.512,0,0,1,1.657-.409,4.11,4.11,0,0,1,.7.027.556.556,0,0,0-.193-.061,2,2,0,0,0-.525-.042,6.758,6.758,0,0,0-1.684.387c-.639.193-1.229.365-1.641.525-.2.079-.371.149-.483.193A.654.654,0,0,0,70.566,39.443Z" transform="translate(-44.99 -6.04)" fill="#8b5d54"/>
        <path id="Path_5775" data-name="Path 5775" d="M94.773,36.456a1.582,1.582,0,0,1-.023.218,1.023,1.023,0,0,1-.323.527,4.467,4.467,0,0,1-2.147.863h0c-.446.147-.954.263-1.5.387s-1.128.248-1.738.373c-1.234.253-2.6.518-4.042.788l.061.04L84.739,38.3c-.261-1.062-.514-2.093-.751-3.069l-.037.064,4.183-1.2h0a4.13,4.13,0,0,1,1.825-.318,4.065,4.065,0,0,1,1.377.323,4.654,4.654,0,0,1,.792.439l.193.141.067.045a.468.468,0,0,0-.06-.056,2.064,2.064,0,0,0-.193-.149,4.328,4.328,0,0,0-.788-.463,4.008,4.008,0,0,0-1.392-.348,4.207,4.207,0,0,0-1.862.309h0L83.9,35.2l-.051.013.012.051c.239.977.488,2.007.748,3.07.114.461.224.915.328,1.352l.013.051H85c1.447-.275,2.81-.542,4.042-.8.616-.127,1.2-.253,1.738-.387s1.048-.248,1.5-.4h0a4.463,4.463,0,0,0,2.162-.908,1.021,1.021,0,0,0,.317-.552A.63.63,0,0,0,94.773,36.456Z" transform="translate(-47.088 -5.323)" fill="#263238"/>
        <path id="Path_5776" data-name="Path 5776" d="M89.189,33.841c.013.013.168-.131.454-.321a4.339,4.339,0,0,1,2.51-.73c.337,0,.551.045.554.027a1.683,1.683,0,0,0-.554-.1,3.836,3.836,0,0,0-2.555.744A1.726,1.726,0,0,0,89.189,33.841Z" transform="translate(-47.931 -5.165)" fill="#263238"/>
        <path id="Path_5777" data-name="Path 5777" d="M88.456,25.088a1.316,1.316,0,0,0,0,.282c0,.182.019.444.045.772.052.647.149,1.545.318,2.51a17.792,17.792,0,0,0,.579,2.474c.052.152.106.291.151.413l.135.3a1.316,1.316,0,0,0,.145.243,1.6,1.6,0,0,0-.106-.261c-.035-.091-.073-.193-.116-.309s-.084-.261-.133-.415a21.445,21.445,0,0,1-.551-2.466c-.168-.966-.278-1.864-.349-2.51-.031-.3-.058-.562-.079-.772A1.283,1.283,0,0,0,88.456,25.088Z" transform="translate(-47.814 -3.963)" fill="#263238"/>
        <path id="Path_5778" data-name="Path 5778" d="M83.408,21.49s.021-.054.07-.149a.9.9,0,0,1,.3-.33.752.752,0,0,1,.654-.1.846.846,0,0,1,.552.626l.027.143.061-.131A14.105,14.105,0,0,0,85.692,20a8.17,8.17,0,0,0,.454-2.746c0-.179-.025-.337-.035-.483a2.235,2.235,0,0,0-.064-.357,1.661,1.661,0,0,0-.091-.3,6.806,6.806,0,0,1,.116,1.139,8.727,8.727,0,0,1-.481,2.7,15.167,15.167,0,0,1-.6,1.545l.091.012a.927.927,0,0,0-.621-.684.812.812,0,0,0-.711.125.873.873,0,0,0-.3.363.734.734,0,0,0-.039.12A.139.139,0,0,0,83.408,21.49Z" transform="translate(-47.018 -2.546)" fill="#263238"/>
        <path id="Path_5779" data-name="Path 5779" d="M77.165,21.986a1.9,1.9,0,0,0,.043-.239,2.581,2.581,0,0,0,.04-.674,1.433,1.433,0,0,0-.46-.89.831.831,0,0,0-.552-.211.735.735,0,0,0-.579.276l.084.051.182-.481c.355-.948.674-1.81.9-2.433.1-.3.193-.548.261-.742a1.6,1.6,0,0,0,.084-.278,1.847,1.847,0,0,0-.12.263q-.112.289-.29.73c-.242.618-.568,1.475-.926,2.424l-.179.481-.116.311.193-.259a.652.652,0,0,1,.505-.243.772.772,0,0,1,.5.184,1.408,1.408,0,0,1,.448.829,3.036,3.036,0,0,1-.012.66A.967.967,0,0,0,77.165,21.986Z" transform="translate(-45.774 -2.585)" fill="#263238"/>
        <path id="Path_5780" data-name="Path 5780" d="M73.064,23.629c-.027,0-.458,2.816-.966,6.3s-.89,6.3-.863,6.309.458-2.813.966-6.3S73.091,23.633,73.064,23.629Z" transform="translate(-45.095 -3.732)" fill="#263238"/>
        <g id="Group_5837" data-name="Group 5837" transform="translate(36.176 17.485)" opacity="0.3">
          <path id="Path_5781" data-name="Path 5781" d="M85.59,20.765a6.349,6.349,0,0,1-.505,2.274,1.614,1.614,0,0,0-.8-.637,1.269,1.269,0,0,0-1.135.469A2.045,2.045,0,0,1,83.517,22a1.011,1.011,0,0,1,.8-.421.7.7,0,0,1,.674.547l.579-1.352" transform="translate(-83.154 -20.765)"/>
        </g>
        <path id="Path_5782" data-name="Path 5782" d="M88.472,21.667c.019,0,.013-.211.073-.539a3.259,3.259,0,0,1,.49-1.2,3.358,3.358,0,0,1,.46-.547,2.977,2.977,0,0,1,.461-.36c.282-.179.481-.248.475-.266a.455.455,0,0,0-.145.035,1.123,1.123,0,0,0-.163.064,1.755,1.755,0,0,0-.206.1,2.783,2.783,0,0,0-.488.351,3.222,3.222,0,0,0-.483.56,3.005,3.005,0,0,0-.475,1.244,2.087,2.087,0,0,0-.019.4A.41.41,0,0,0,88.472,21.667Z" transform="translate(-47.814 -2.963)" fill="#263238"/>
        <g id="Group_5838" data-name="Group 5838" transform="translate(26.346 21.151)" opacity="0.3">
          <path id="Path_5783" data-name="Path 5783" d="M72.928,25.118l-1.294,9.1-.064.145A19.508,19.508,0,0,1,72.928,25.118Z" transform="translate(-71.48 -25.118)"/>
        </g>
        <path id="Path_5784" data-name="Path 5784" d="M62.569,31.284l4.2,7.338,10.353.226.025.467-10.021-.073-.318-.012-10.584.021-2.14-3.688-2.733-3.917a.386.386,0,0,1,.1-.538.391.391,0,0,1,.223-.07l10.567.04A.386.386,0,0,1,62.569,31.284Z" transform="translate(-41.945 -4.902)" fill="#008083"/>
        <path id="Path_5785" data-name="Path 5785" d="M54.52,36.423s-.542.5-.457.921.058.739.457.772a.61.61,0,0,0,.545.63.665.665,0,0,0,.548.764.7.7,0,0,0,.1.008s.236.711.724.539a4.256,4.256,0,0,0,.8-.373l.143-.259s.717-.269.541-.674c-.108-.245-.479-.309-.479-.309a.7.7,0,0,0-.046-.63c-.168-.232-.732-.04-.732-.04a.8.8,0,0,0-.176-.548c-.193-.226-1.084.387-1.084.387l-.485-.579Z" transform="translate(-42.382 -5.753)" fill="#c78976"/>
        <path id="Path_5786" data-name="Path 5786" d="M56.025,39.9a4.935,4.935,0,0,0,.893-.494,4.807,4.807,0,0,0,.842-.579A9.621,9.621,0,0,0,56.022,39.9Z" transform="translate(-42.693 -6.132)" fill="#8b5d54"/>
        <path id="Path_5787" data-name="Path 5787" d="M55.254,39a4.334,4.334,0,0,0,.829-.439,4.279,4.279,0,0,0,.772-.529,4.287,4.287,0,0,0-.829.439A4.166,4.166,0,0,0,55.254,39Z" transform="translate(-42.572 -6.006)" fill="#8b5d54"/>
        <path id="Path_5788" data-name="Path 5788" d="M56.039,37.445a2.834,2.834,0,0,0-.736.387,6.4,6.4,0,0,0-.691.46,2.281,2.281,0,0,0,.747-.371A4.058,4.058,0,0,0,56.039,37.445Z" transform="translate(-42.471 -5.914)" fill="#8b5d54"/>
        <path id="Path_5789" data-name="Path 5789" d="M51.362,31.367a.169.169,0,0,0,.051,0h.728l2.105.018,6.935.015h.505a.412.412,0,0,1,.387.182c.16.285.317.569.472.848l.893,1.611,1.516,2.725c.433.772.782,1.392,1.029,1.832l.285.494.076.127a.218.218,0,0,0,.031.042.306.306,0,0,0-.021-.048c-.018-.035-.039-.077-.067-.131-.064-.124-.154-.291-.266-.505l-1-1.848c-.427-.772-.933-1.707-1.5-2.734-.282-.515-.579-1.054-.887-1.614l-.473-.856a.523.523,0,0,0-.472-.23h-.505l-6.935.015-2.105.018h-.732Z" transform="translate(-41.957 -4.943)" fill="#263238"/>
        <path id="Path_5790" data-name="Path 5790" d="M60.054,35.733a.446.446,0,1,1-.668-.077A.476.476,0,0,1,60.054,35.733Z" transform="translate(-43.202 -5.615)" fill="#fff"/>
        <path id="Path_5791" data-name="Path 5791" d="M77.925,14.214l.058-1.667a2.687,2.687,0,0,1-2.105-2.721c.052-1.081.344-3.3.63-5.3A4.173,4.173,0,0,1,80.895.962l.214.013c2.317.278,3.373,2.4,3.032,4.71L83.6,14.48a2.843,2.843,0,0,1-2.92,2.665h0a2.844,2.844,0,0,1-2.756-2.93h0Z" transform="translate(-45.828 -0.152)" fill="#c78976"/>
        <path id="Path_5792" data-name="Path 5792" d="M78.377,14.6a5.4,5.4,0,0,0,2.962-.68,2.694,2.694,0,0,1-2.974,1.245Z" transform="translate(-46.221 -2.199)" fill="#8b5d54"/>
        <path id="Path_5793" data-name="Path 5793" d="M76.967,7.648a.321.321,0,0,0,.288.342.3.3,0,0,0,.344-.259h0V7.722a.321.321,0,0,0-.294-.332A.308.308,0,0,0,76.967,7.648Z" transform="translate(-46 -1.168)" fill="#263238"/>
        <path id="Path_5794" data-name="Path 5794" d="M77.119,6.48c.037.045.29-.12.633-.1s.579.211.624.168-.015-.094-.121-.182a.877.877,0,0,0-1-.058C77.14,6.386,77.1,6.46,77.119,6.48Z" transform="translate(-46.024 -0.977)" fill="#263238"/>
        <path id="Path_5795" data-name="Path 5795" d="M80.939,7.808a.321.321,0,0,0,.29.337.3.3,0,0,0,.344-.253V7.881a.321.321,0,0,0-.288-.342.309.309,0,0,0-.347.265Z" transform="translate(-46.628 -1.191)" fill="#263238"/>
        <path id="Path_5796" data-name="Path 5796" d="M81.122,6.8c.037.045.29-.12.633-.1s.579.211.624.168-.015-.094-.121-.182a.856.856,0,0,0-.5-.193.843.843,0,0,0-.505.13C81.143,6.709,81.1,6.782,81.122,6.8Z" transform="translate(-46.656 -1.027)" fill="#263238"/>
        <path id="Path_5797" data-name="Path 5797" d="M79.3,9.262a2.253,2.253,0,0,0-.551-.136c-.089-.013-.168-.037-.182-.1a.462.462,0,0,1,.075-.253l.3-.653a11.616,11.616,0,0,0,.691-1.711A11.714,11.714,0,0,0,78.8,8.064c-.1.23-.193.448-.29.657a.516.516,0,0,0-.067.342.218.218,0,0,0,.137.137.623.623,0,0,0,.147.031A2.3,2.3,0,0,0,79.3,9.262Z" transform="translate(-46.233 -1.014)" fill="#263238"/>
        <path id="Path_5798" data-name="Path 5798" d="M80.42,10.14c-.056,0-.079.367-.415.612s-.73.179-.736.232c0,.024.084.077.253.093a.942.942,0,0,0,.614-.168.82.82,0,0,0,.324-.515C80.489,10.24,80.449,10.14,80.42,10.14Z" transform="translate(-46.364 -1.602)" fill="#263238"/>
        <path id="Path_5799" data-name="Path 5799" d="M81.116,5.213c.027.1.373.073.772.147s.72.193.772.121c.027-.039-.025-.13-.151-.228a1.364,1.364,0,0,0-1.181-.2C81.184,5.1,81.1,5.168,81.116,5.213Z" transform="translate(-46.655 -0.789)" fill="#263238"/>
        <path id="Path_5800" data-name="Path 5800" d="M77.341,5.3c.056.084.3.015.579.029s.523.084.579,0c.027-.039,0-.12-.108-.193a.792.792,0,0,0-.463-.157.8.8,0,0,0-.473.127C77.354,5.186,77.315,5.271,77.341,5.3Z" transform="translate(-46.058 -0.788)" fill="#263238"/>
        <path id="Path_5801" data-name="Path 5801" d="M76.966,3.462S77.64,2.1,78.337,1.813c.842-.345,1.138.579,1.931.4s1.595-.5,2.358.151c.83.712.387,1.149.387,2.143-.029,4.034.635,5.214.966,3.335.037-.206.621-.337.758-1.207a9.85,9.85,0,0,0,.106-3.33,3.142,3.142,0,0,0-1.193-1.738A5.384,5.384,0,0,0,80.065.605C79.032.635,76.966,1.7,76.966,3.462Z" transform="translate(-46 -0.093)" fill="#263238"/>
        <path id="Path_5802" data-name="Path 5802" d="M85.077,9.021a.606.606,0,0,1,.659-.548h.03c.415.066.865.33.784,1.192a1.151,1.151,0,0,1-1.643,1.021C84.91,10.644,85.012,9.658,85.077,9.021Z" transform="translate(-47.255 -1.339)" fill="#c78976"/>
        <path id="Path_5803" data-name="Path 5803" d="M85.367,10.241a.531.531,0,0,0,.067.046.265.265,0,0,0,.193.024.664.664,0,0,0,.361-.562.872.872,0,0,0-.04-.387.311.311,0,0,0-.179-.224A.139.139,0,0,0,85.6,9.2c-.023.042-.018.073-.025.075s-.031-.029-.013-.091a.192.192,0,0,1,.07-.091.21.21,0,0,1,.151-.025.374.374,0,0,1,.253.263.9.9,0,0,1,.052.435.694.694,0,0,1-.448.621.287.287,0,0,1-.239-.064C85.364,10.279,85.361,10.242,85.367,10.241Z" transform="translate(-47.327 -1.432)" fill="#8b5d54"/>
        <path id="Path_5804" data-name="Path 5804" d="M84.192,4.722a1.431,1.431,0,0,1-.664.259A.5.5,0,0,1,83,4.594c-.012-.106.021-.23-.043-.315s-.233-.084-.363-.077a.976.976,0,0,1-.966-.758.409.409,0,0,1-.552.018,2.192,2.192,0,0,1-.387-.472A.629.629,0,0,0,80.18,2.7a1.576,1.576,0,0,1-.337.052c-.193-.031-.282-.27-.3-.472s-.027-.436-.193-.554a.758.758,0,0,0-.547-.048c-.187.018-.421-.042-.458-.226a.365.365,0,0,1,.084-.275.991.991,0,0,1,1.192-.3A1.352,1.352,0,0,1,82.1.765a1.361,1.361,0,0,1,2.143.632.989.989,0,0,1,1.023,1.5.939.939,0,0,1,.472.772.541.541,0,0,1-.557.522.5.5,0,0,1-.086-.01.547.547,0,1,1-.977.494h0" transform="translate(-46.218 -0.001)" fill="#263238"/>
        <path id="Path_5805" data-name="Path 5805" d="M79.688,1.561v.027a.7.7,0,0,0,0,.084.978.978,0,0,0,.093.3,1.092,1.092,0,0,0,.317.387,1.031,1.031,0,0,0,.616.216l-.024-.035a.545.545,0,0,0,0,.421,1.545,1.545,0,0,0,.237.387,1.172,1.172,0,0,0,.16.193.528.528,0,0,0,.237.106A.556.556,0,0,0,81.83,3.5l-.056-.019a1.156,1.156,0,0,0,.436.823A.833.833,0,0,0,82.7,4.5a1.538,1.538,0,0,0,.505-.077l-.04-.021a1.212,1.212,0,0,0,.332.494.648.648,0,0,0,.524.178.841.841,0,0,0,.69-.62l-.037.015a.791.791,0,0,0,.521.108.843.843,0,0,0,.387-.141.768.768,0,0,0,.182-.176.87.87,0,0,0,.045-.075.951.951,0,0,1-.242.23.835.835,0,0,1-.365.125.739.739,0,0,1-.49-.112l-.029-.018v.033a.794.794,0,0,1-.651.579.58.58,0,0,1-.475-.168,1.153,1.153,0,0,1-.311-.469l-.012-.029h-.029a1.426,1.426,0,0,1-.479.075.778.778,0,0,1-.454-.182,1.081,1.081,0,0,1-.413-.772V3.4l-.051.052a.516.516,0,0,1-.654.039,1.074,1.074,0,0,1-.151-.176,1.478,1.478,0,0,1-.233-.375.508.508,0,0,1-.009-.387l.013-.035h-.045a1,1,0,0,1-.589-.193,1.088,1.088,0,0,1-.315-.363A1.184,1.184,0,0,1,79.688,1.561Z" transform="translate(-46.43 -0.248)" fill="#455a64"/>
        <path id="Path_5806" data-name="Path 5806" d="M78.235,7.612a2.5,2.5,0,0,0,.1-.357,1.5,1.5,0,0,0-.158-.966,1.47,1.47,0,0,0-.456-.512,1.5,1.5,0,0,0-.736-.266,1.454,1.454,0,0,0-.427.027,1.385,1.385,0,0,0-.415.157,1.483,1.483,0,0,0-.733,1.593,1.422,1.422,0,0,0,.154.421,1.373,1.373,0,0,0,.253.337,1.508,1.508,0,0,0,.681.387,1.532,1.532,0,0,0,.685.012,1.516,1.516,0,0,0,.842-.514,2.63,2.63,0,0,0,.206-.309.686.686,0,0,1-.039.088.586.586,0,0,1-.058.1,1.013,1.013,0,0,1-.091.131,1.515,1.515,0,0,1-1.559.535,1.549,1.549,0,0,1-.709-.387,1.422,1.422,0,0,1-.267-.354,1.376,1.376,0,0,1-.16-.433A1.533,1.533,0,0,1,76.54,5.488a1.442,1.442,0,0,1,.442-.025,1.527,1.527,0,0,1,1.224.813,1.505,1.505,0,0,1,.145,1,1.257,1.257,0,0,1-.04.157.641.641,0,0,1-.04.11A.555.555,0,0,1,78.235,7.612Z" transform="translate(-45.74 -0.863)" fill="#263238"/>
        <path id="Path_5807" data-name="Path 5807" d="M82.916,7.884a3.509,3.509,0,0,0,.1-.357,1.52,1.52,0,0,0-.16-.966A1.465,1.465,0,0,0,82.4,6.05a1.485,1.485,0,0,0-.738-.278,1.387,1.387,0,0,0-.421.027,1.428,1.428,0,0,0-.421.157,1.487,1.487,0,1,0,1.885,2.234,2.682,2.682,0,0,0,.206-.307.6.6,0,0,1-.04.088.579.579,0,0,1-.056.1,1.025,1.025,0,0,1-.093.131,1.506,1.506,0,0,1-.851.541,1.525,1.525,0,0,1-1.414-.4,1.436,1.436,0,0,1-.269-.351,1.507,1.507,0,0,1-.16-.435A1.534,1.534,0,0,1,80.8,5.9a1.528,1.528,0,0,1,.875-.185,1.543,1.543,0,0,1,.758.28,1.517,1.517,0,0,1,.463.533,1.5,1.5,0,0,1,.143,1,.884.884,0,0,1-.04.154.658.658,0,0,1-.04.112A.723.723,0,0,1,82.916,7.884Z" transform="translate(-46.479 -0.903)" fill="#263238"/>
        <path id="Path_5808" data-name="Path 5808" d="M79.869,7.122a1.039,1.039,0,0,0-.935-.048.376.376,0,0,1,.124-.084.772.772,0,0,1,.7.037C79.836,7.065,79.875,7.111,79.869,7.122Z" transform="translate(-46.311 -1.094)" fill="#263238"/>
        <path id="Path_5809" data-name="Path 5809" d="M85.014,8.509a4.81,4.81,0,0,1-.711-.337,5.056,5.056,0,0,1-.684-.387,5.074,5.074,0,0,1,.711.337A5.461,5.461,0,0,1,85.014,8.509Z" transform="translate(-47.051 -1.231)" fill="#263238"/>
      </g>
    </g>
  </g>
</svg>
