<svg xmlns="http://www.w3.org/2000/svg" width="52.839" height="60.874" viewBox="0 0 52.839 60.874">
  <g id="Group_6040" data-name="Group 6040" transform="translate(-291.143 -829)">
    <path id="Path_4789" data-name="Path 4789" d="M29.71,5.751c.079,0,1.148.178,1.148.178L32.3,7.751l.218.345-1.95,1.247-.861-1.275-.731-.475a.746.746,0,0,1,.772-.08,2.277,2.277,0,0,0,.911.178L30.4,6.96,29.609,6.8Z" transform="translate(291.143 828.977)" fill="#eb996e"/>
    <path id="Path_4790" data-name="Path 4790" d="M29.8,4.476a.224.224,0,0,1,.273.16v.023c.118.747.477,3,.585,3.655a.213.213,0,0,1-.155.243l-1.721.481a.213.213,0,0,1-.264-.146h0a.194.194,0,0,1-.007-.033L28.04,5.126a.225.225,0,0,1,.168-.247Z" transform="translate(291.143 828.977)" fill="#263238"/>
    <path id="Path_4791" data-name="Path 4791" d="M28.645,8.577l1.754-.49-.465-3.105a.3.3,0,0,0-.34-.253l-.034.007-1.4.373Z" transform="translate(291.143 828.977)" fill="#ebebeb"/>
    <path id="Path_4792" data-name="Path 4792" d="M30.363,6.3l-.788.585s.066.208.186.222a4.752,4.752,0,0,0,.754-.161Z" transform="translate(291.143 828.977)" fill="#eb996e"/>
    <path id="Path_4793" data-name="Path 4793" d="M30.268,5.833l-.826.363s-.053.269.256.231l-.276.2s.069.12.414.134.68-.465.68-.465Z" transform="translate(291.143 828.977)" fill="#eb996e"/>
    <path id="Path_4794" data-name="Path 4794" d="M31.089,6.752c0,.01-.1-.009-.211-.111a2.422,2.422,0,0,0-.19-.159.268.268,0,0,0-.262-.032,4.983,4.983,0,0,1-.716.339,3.614,3.614,0,0,1,.69-.411.334.334,0,0,1,.177-.02.4.4,0,0,1,.146.067,1.259,1.259,0,0,1,.187.178A1.589,1.589,0,0,0,31.089,6.752Z" transform="translate(291.143 828.977)" fill="#d1734a"/>
    <path id="Path_4795" data-name="Path 4795" d="M30.926,8.81a1.131,1.131,0,0,1-.132-1.241A1.8,1.8,0,0,0,30.926,8.81Z" transform="translate(291.143 828.977)" fill="#d1734a"/>
    <path id="Path_4796" data-name="Path 4796" d="M30.823,6.2c-.01.009-.054-.054-.159-.088a.563.563,0,0,0-.42.048c-.155.075-.292.17-.4.215a.379.379,0,0,1-.189.047,1.435,1.435,0,0,1,.164-.1,3.641,3.641,0,0,1,.4-.235.663.663,0,0,1,.254-.069.453.453,0,0,1,.215.039A.273.273,0,0,1,30.823,6.2Z" transform="translate(291.143 828.977)" fill="#d1734a"/>
    <path id="Path_4797" data-name="Path 4797" d="M30.755,11.377l4.3,2.759-1.139,3.257a28.857,28.857,0,0,1-2.886-1C31.081,16.3,30.755,11.377,30.755,11.377Z" transform="translate(291.143 828.977)" fill="#008083"/>
    <path id="Path_4802" data-name="Path 4802" d="M23.622,3.608l.63,7.31,3.655-.292c.022-.427-.009-2.079-.009-2.079a1.826,1.826,0,0,0,1.541-1.754c.009-.74-.1-2.266-.208-3.642A2.816,2.816,0,0,0,26.263.559h0a2.817,2.817,0,0,0-2.647,2.975Z" transform="translate(291.143 828.977)" fill="#eb996e"/>
    <path id="Path_4803" data-name="Path 4803" d="M27.9,8.518a3.539,3.539,0,0,1-1.984-.564,1.873,1.873,0,0,0,1.987.958Z" transform="translate(291.143 828.977)" fill="#d1734a"/>
    <path id="Path_4804" data-name="Path 4804" d="M28.645,4.213a.218.218,0,0,1-.211.219.208.208,0,0,1-.223-.191V4.236a.218.218,0,0,1,.209-.219.209.209,0,0,1,.225.192h0Z" transform="translate(291.143 828.977)" fill="#263238"/>
    <path id="Path_4805" data-name="Path 4805" d="M28.909,3.906c-.026.029-.191-.094-.425-.092s-.4.117-.43.089.015-.064.089-.118a.6.6,0,0,1,.345-.107.572.572,0,0,1,.339.11C28.9,3.838,28.923,3.894,28.909,3.906Z" transform="translate(291.143 828.977)" fill="#263238"/>
    <path id="Path_4806" data-name="Path 4806" d="M26.4,4.213a.216.216,0,0,1-.209.219.209.209,0,0,1-.225-.192h0a.219.219,0,0,1,.211-.219.209.209,0,0,1,.224.193h0Z" transform="translate(291.143 828.977)" fill="#263238"/>
    <path id="Path_4807" data-name="Path 4807" d="M26.61,3.95c-.026.028-.192-.094-.425-.092s-.4.117-.43.088.015-.063.089-.117a.585.585,0,0,1,.345-.107.565.565,0,0,1,.339.11C26.6,3.882,26.623,3.937,26.61,3.95Z" transform="translate(291.143 828.977)" fill="#263238"/>
    <path id="Path_4808" data-name="Path 4808" d="M27.462,5.684a1.533,1.533,0,0,1,.38-.069c.058,0,.115-.018.126-.058a.312.312,0,0,0-.039-.177c-.057-.146-.115-.292-.177-.455a7.8,7.8,0,0,1-.4-1.189,7.907,7.907,0,0,1,.491,1.153c.058.161.115.313.168.458a.348.348,0,0,1,.032.235.146.146,0,0,1-.1.086.424.424,0,0,1-.1.015A1.472,1.472,0,0,1,27.462,5.684Z" transform="translate(291.143 828.977)" fill="#263238"/>
    <path id="Path_4809" data-name="Path 4809" d="M26.771,5.846c.038,0,.038.251.256.439s.487.146.49.189-.06.048-.175.051a.634.634,0,0,1-.408-.146.549.549,0,0,1-.2-.365C26.73,5.907,26.753,5.844,26.771,5.846Z" transform="translate(291.143 828.977)" fill="#263238"/>
    <path id="Path_4810" data-name="Path 4810" d="M26.671,3.034c-.023.064-.257.034-.532.067s-.5.108-.532.051c-.016-.028.022-.088.113-.146a.921.921,0,0,1,.81-.089C26.63,2.953,26.68,3.009,26.671,3.034Z" transform="translate(291.143 828.977)" fill="#263238"/>
    <path id="Path_4811" data-name="Path 4811" d="M28.824,3.229c-.041.054-.2,0-.4,0s-.358.037-.4-.019c-.016-.028.01-.08.082-.132a.577.577,0,0,1,.637.02C28.819,3.144,28.841,3.2,28.824,3.229Z" transform="translate(291.143 828.977)" fill="#263238"/>
    <path id="Path_4812" data-name="Path 4812" d="M25.272,1.94h-.009a1.2,1.2,0,0,0-.439.775v.031c-.06.439-.048.877-.113,1.316a1.926,1.926,0,0,1-.535,1.17c-.132.123-.364.208-.472.064a.361.361,0,0,1-.054-.2c-.082-1.048-.368-1.978-.365-3.07a.92.92,0,0,1,.379-.754c.23-.164.509-.335.765-.213s.585.6.782.8" transform="translate(291.143 828.977)" fill="#263238"/>
    <path id="Path_4813" data-name="Path 4813" d="M24.135,4.3c-.026-.012-1.045-.31-1.013.731a.783.783,0,0,0,1.072.763C24.193,5.762,24.135,4.3,24.135,4.3Z" transform="translate(291.143 828.977)" fill="#eb996e"/>
    <path id="Path_4814" data-name="Path 4814" d="M23.864,5.406a.323.323,0,0,1-.047.028.183.183,0,0,1-.136.007.45.45,0,0,1-.221-.395.6.6,0,0,1,.042-.262.211.211,0,0,1,.132-.146.1.1,0,0,1,.11.045c.015.029.009.05.015.051s.02-.018.012-.06a.115.115,0,0,0-.044-.064.147.147,0,0,0-.1-.023.259.259,0,0,0-.184.168.612.612,0,0,0-.053.292.466.466,0,0,0,.278.439.2.2,0,0,0,.165-.034C23.864,5.435,23.868,5.407,23.864,5.406Z" transform="translate(291.143 828.977)" fill="#d1734a"/>
    <path id="Path_4815" data-name="Path 4815" d="M24.391,1.219C24.135.8,24.837.2,25.35.049a3.123,3.123,0,0,1,1.7.257,2.863,2.863,0,0,0,.984.243,2.375,2.375,0,0,0,.659-.168,1.669,1.669,0,0,1,.665-.132A.627.627,0,0,1,29.905.6a.391.391,0,0,1-.21.513.472.472,0,0,1-.053.018.51.51,0,1,1,.137.947c.146-.113.374.073.355.257a.536.536,0,0,1-.355.395A1.956,1.956,0,0,1,28.39,2.7c-.449-.151-.865-.386-1.316-.548a2.949,2.949,0,0,0-1.637-.292c-.329.117-.558.513-.744.425a.634.634,0,0,1-.329-.468,1.824,1.824,0,0,1,.02-.585" transform="translate(291.143 828.977)" fill="#263238"/>
    <path id="Path_4816" data-name="Path 4816" d="M29.767,1.093c-.009,0-.053.076-.165.2a1.415,1.415,0,0,1-.577.373,1.319,1.319,0,0,1-.993-.039A5.082,5.082,0,0,1,27.023.854a2.159,2.159,0,0,0-1.17-.561,1.2,1.2,0,0,0-.994.344.9.9,0,0,0-.237.672.7.7,0,0,0,.045.192c.019.041.031.061.034.06a1.547,1.547,0,0,1-.039-.253.9.9,0,0,1,.25-.621,1.142,1.142,0,0,1,.942-.3,2.1,2.1,0,0,1,1.111.545A4.594,4.594,0,0,0,28,1.716a1.412,1.412,0,0,0,1.639-.393.964.964,0,0,0,.108-.161A.212.212,0,0,0,29.767,1.093Z" transform="translate(291.143 828.977)" fill="#455a64"/>
    <path id="Path_4817" data-name="Path 4817" d="M23.869,4.251a.274.274,0,0,0,.085-.111.717.717,0,0,0,.053-.377c-.023-.335-.32-.694-.358-1.158a1.046,1.046,0,0,1,.116-.621.8.8,0,0,1,.386-.333A.68.68,0,0,1,24.5,1.6c.083.015.129.034.133.025a.258.258,0,0,0-.124-.063.639.639,0,0,0-.382.018.847.847,0,0,0-.439.354,1.112,1.112,0,0,0-.136.68,1.931,1.931,0,0,0,.2.655,1.988,1.988,0,0,1,.183.5A.79.79,0,0,1,23.869,4.251Z" transform="translate(291.143 828.977)" fill="#455a64"/>
    <path id="Path_4821" data-name="Path 4821" d="M31.622,32.731s.965-.829,1.06-1.453-1.156-10.672-1.156-10.672L30.887,12.3c0,.146.018-1.047-.175-1.118-.585-.221-1.787-.621-1.787-.621l-.687-.617s1.234,5.275,1.474,6.716Z" transform="translate(291.143 828.977)" fill="#008083"/>
    <path id="Path_4822" data-name="Path 4822" d="M23.7,9.369l-1.038.691-3.893,1.531L20.5,18.113,20.266,21.9l-.221,2.4s-1.159,5.954-2.183,9.573c0,0,1.142,2.164,2.08,2.465l.39.232,1.392-10.191,1.194-1.608c.116-.155.222-.314.323-.478.292-.478.962-1.564,1.5-2.4.7-1.107,1.608-3.621,1.341-4.694S23.7,9.369,23.7,9.369Z" transform="translate(291.143 828.977)" fill="#008083"/>
    <path id="Path_4824" data-name="Path 4824" d="M23.7,9.369l.937,6.013a8.711,8.711,0,0,1-.379,2.266l-1.672,5.409s-1.316,2.949-.861,3.326,3.991,0,3.991,0l4.786-.694a.421.421,0,0,0,.358-.456l-.71-7.342a12.287,12.287,0,0,1-.439-1.914L28.236,9.944l-.3-.039-.655.449-.345.028-2.9-1.4Z" transform="translate(291.143 828.977)" fill="#ebebeb"/>
    <path id="Path_4826" data-name="Path 4826" d="M27.448,10.863H26.8l-.194.89.569.689.573-.057.187-.639-.154-.357Z" transform="translate(291.143 828.977)" fill="#f78104"/>
    <path id="Path_4827" data-name="Path 4827" d="M31.241,16.062c.2.041,2.465,1.561,3.286,1.4A3.2,3.2,0,0,0,36.1,16.42c.466-.553.174-1.7.039-2.133a1.49,1.49,0,0,0-.133-.3l-3.49-5.994-2.057,1.25L32.6,13.136Z" transform="translate(291.143 828.977)" fill="#008083"/>
    <path id="Path_4828" data-name="Path 4828" d="M14.412,23.309a2.675,2.675,0,0,1,.126-2.193c.474-.937,1.225-2.45,1.383-2.947.234-.738,2.421-6.4,2.849-6.579l1.9,6.416-2.208,4.649,2.588,4.876-2.156,2.324s-4.08-5.69-4.416-6.393Q14.441,23.385,14.412,23.309Z" transform="translate(291.143 828.977)" fill="#008083"/>
    <path id="Path_4830" data-name="Path 4830" d="M31.227,16.241a.811.811,0,0,1-.054-.18c-.031-.117-.069-.292-.111-.5a16.089,16.089,0,0,1-.3-3.364c0-.216.012-.39.02-.512a1.07,1.07,0,0,1,.02-.187.853.853,0,0,1,.009.189v.51c0,.439.025,1.023.083,1.684s.146,1.246.216,1.671c.034.2.063.37.086.5A1.006,1.006,0,0,1,31.227,16.241Z" transform="translate(291.143 828.977)" fill="#263238"/>
    <path id="Path_4831" data-name="Path 4831" d="M33.016,16.586a.146.146,0,0,1-.05-.012.77.77,0,0,1-.13-.061,1.115,1.115,0,0,1-.371-.377A2.377,2.377,0,0,1,32.2,15.4a8.83,8.83,0,0,1-.174-.94c-.061-.675-.113-1.282-.146-1.724-.015-.209-.026-.384-.037-.523a.89.89,0,0,1,0-.193,1.109,1.109,0,0,1,.032.19c.015.146.035.313.058.52.048.439.108,1.051.168,1.721.042.333.105.649.168.933a2.449,2.449,0,0,0,.243.731,1.186,1.186,0,0,0,.342.38A1.1,1.1,0,0,1,33.016,16.586Z" transform="translate(291.143 828.977)" fill="#263238"/>
    <path id="Path_4832" data-name="Path 4832" d="M31.838,12.032a12.91,12.91,0,0,0-.368,2.054,3.127,3.127,0,0,0,.064,1.241,1.287,1.287,0,0,0,.823.877q-.276-2.036-.487-4.077" transform="translate(291.143 828.977)"/>
    <path id="Path_4834" data-name="Path 4834" d="M20.421,11.651a1.107,1.107,0,0,1,.115.181c.037.06.077.135.121.222s.1.189.146.3a7.054,7.054,0,0,1,.618,2.933,6.777,6.777,0,0,1-.06.877c-.012.124-.035.235-.053.332s-.035.181-.051.249a1.076,1.076,0,0,1-.06.208,1.177,1.177,0,0,1,.031-.213c.012-.069.026-.146.039-.25s.031-.208.041-.33a7.841,7.841,0,0,0,.042-.867,8.3,8.3,0,0,0-.08-1.057,8.559,8.559,0,0,0-.227-1.037,7.557,7.557,0,0,0-.292-.817c-.044-.115-.1-.215-.134-.306a1.8,1.8,0,0,0-.11-.227A1.088,1.088,0,0,1,20.421,11.651Z" transform="translate(291.143 828.977)" fill="#263238"/>
    <path id="Path_4838" data-name="Path 4838" d="M22.67,22.144a.674.674,0,0,1,0-.127v-.361c.007-.32.018-.773.031-1.329s.028-1.228.058-1.969a10.693,10.693,0,0,1,.327-2.395,5.66,5.66,0,0,1,.462-1.156l.028.056a.792.792,0,0,1-.468-.265,1.15,1.15,0,0,1-.244-.455,3.628,3.628,0,0,1-.076-.947V10.3a.418.418,0,0,1,0-.1.481.481,0,0,1,.007.1c0,.07,0,.164.007.281,0,.251.009.6.016,1.041s.01.977.016,1.573a3.532,3.532,0,0,0,.079.928,1.077,1.077,0,0,0,.23.424.717.717,0,0,0,.424.24l.053.009-.025.047a5.5,5.5,0,0,0-.455,1.14,10.962,10.962,0,0,0-.33,2.377c-.034.74-.053,1.408-.076,1.969s-.041,1.006-.054,1.327l-.018.361C22.667,22.06,22.669,22.1,22.67,22.144Z" transform="translate(291.143 828.977)" fill="#263238"/>
    <path id="Path_4839" data-name="Path 4839" d="M28.935,10.646a.381.381,0,0,1,.035.08c.02.061.05.146.083.235l.3.877c.126.376.276.822.439,1.316.08.253.18.51.254.8a1.028,1.028,0,0,1,.019.455.608.608,0,0,1-.26.4l.012-.054c.123.183.253.377.374.585a3.523,3.523,0,0,1,.409.947,3.323,3.323,0,0,1,.066.959c-.035.607-.075,1.152-.107,1.608s-.06.822-.08,1.086c-.01.121-.019.219-.025.292a.562.562,0,0,1-.015.1.557.557,0,0,1,0-.1c0-.075.007-.174.012-.292.013-.266.032-.636.056-1.088s.057-1.007.092-1.608a3.429,3.429,0,0,0-.069-.937,3.47,3.47,0,0,0-.4-.925c-.12-.2-.249-.395-.371-.585l-.022-.032.034-.02A.533.533,0,0,0,30,14.4a.963.963,0,0,0-.016-.424c-.07-.275-.17-.539-.249-.789-.161-.5-.306-.949-.428-1.326s-.212-.668-.279-.877c-.031-.1-.054-.178-.073-.24A.6.6,0,0,1,28.935,10.646Z" transform="translate(291.143 828.977)" fill="#263238"/>
    <path id="Path_4846" data-name="Path 4846" d="M23.806,10.342a.985.985,0,0,1,.161.1l.43.292c.365.25.877.585,1.462.918.219.126.439.243.632.348l-.053.023c.123-.485.231-.9.31-1.2.038-.137.07-.251.1-.345a.526.526,0,0,1,.042-.121.494.494,0,0,1-.019.127c-.02.1-.045.211-.075.349-.069.292-.167.716-.292,1.2l-.01.044-.041-.02c-.2-.1-.417-.221-.636-.346a15.657,15.657,0,0,1-1.453-.94c-.178-.13-.32-.241-.417-.319A.835.835,0,0,1,23.806,10.342Z" transform="translate(291.143 828.977)" fill="#263238"/>
    <path id="Path_4847" data-name="Path 4847" d="M28.631,11.419a4.895,4.895,0,0,1-.646.439l-.032.02-.018-.035-.2-.384c-.146-.292-.285-.57-.377-.769a1.719,1.719,0,0,1-.137-.329,1.668,1.668,0,0,1,.184.306c.1.191.247.459.4.757l.2.393-.05-.015A5.361,5.361,0,0,1,28.631,11.419Z" transform="translate(291.143 828.977)" fill="#263238"/>
    <path id="Path_4848" data-name="Path 4848" d="M27.677,11.274a.7.7,0,0,1-.129.1c-.08.06-.194.146-.322.227s-.243.164-.327.219a.915.915,0,0,1-.146.083.781.781,0,0,1,.129-.1l.322-.225.327-.219A1.011,1.011,0,0,1,27.677,11.274Z" transform="translate(291.143 828.977)" fill="#263238"/>
    <path id="Path_4849" data-name="Path 4849" d="M27.239,11.577a2.565,2.565,0,0,1-.292-.269,2.589,2.589,0,0,1-.262-.292,2.409,2.409,0,0,1,.284.269A2.573,2.573,0,0,1,27.239,11.577Z" transform="translate(291.143 828.977)" fill="#263238"/>
    <path id="Path_4853" data-name="Path 4853" d="M27.219,12.591c-.19,1.519-.33,4.824-.383,6.358-.044,1.281-.039,2.563-.035,3.845a2.817,2.817,0,0,0,.177,1.216,2.957,2.957,0,0,0,1.738,1.3Z" transform="translate(291.143 828.977)" fill="#e0e0e0"/>
    <path id="Path_4854" data-name="Path 4854" d="M28.923,25.085l.785-1.924-1.963-10.78-.573.057s.08,11.2.054,11.305Z" transform="translate(291.143 828.977)" fill="#f78104"/>
    <path id="Path_4855" data-name="Path 4855" d="M27.726,12.385a.969.969,0,0,1-.273.045,1.055,1.055,0,0,1-.275,0,1.777,1.777,0,0,1,.273-.026A2.3,2.3,0,0,1,27.726,12.385Z" transform="translate(291.143 828.977)" fill="#263238"/>
    <rect id="Rectangle_1904" data-name="Rectangle 1904" width="11.736" height="0.57" transform="translate(322.2 859.189)" fill="#263238"/>
    <path id="Path_4784" data-name="Path 4784" d="M44.613,30.782l2.2-8.248H37.648l-1.993,8.248Z" transform="translate(291.143 828.977)" fill="#263238"/>
    <path id="Path_4785" data-name="Path 4785" d="M36.207,30.158h8.185L46.3,22.916H38.069Z" transform="translate(291.143 828.977)" fill="#455a64"/>
    <path id="Path_4786" data-name="Path 4786" d="M44.448,30.236H36.115l1.9-7.39H46.4ZM36.3,30.09H44.34l1.867-7.1H38.133Z" transform="translate(291.143 828.977)" fill="#263238"/>
    <rect id="Rectangle_1905" data-name="Rectangle 1905" width="0.592" height="28.297" transform="translate(298.013 861.362)" fill="#455a64"/>
    <rect id="Rectangle_1906" data-name="Rectangle 1906" width="0.592" height="28.215" transform="translate(298.606 861.442)" fill="#263238"/>
    <rect id="Rectangle_1907" data-name="Rectangle 1907" width="0.592" height="28.297" transform="translate(334.527 861.362)" fill="#455a64"/>
    <rect id="Rectangle_1908" data-name="Rectangle 1908" width="0.592" height="28.215" transform="translate(335.12 861.442)" fill="#263238"/>
    <rect id="Rectangle_1909" data-name="Rectangle 1909" width="52.839" height="2.322" transform="translate(291.143 859.717)" fill="#455a64"/>
    <rect id="Rectangle_1910" data-name="Rectangle 1910" width="19.819" height="3.842" transform="translate(315.004 862.039)" fill="#455a64"/>
    <path id="Path_4787" data-name="Path 4787" d="M34.655,34.717a.439.439,0,1,1-.439-.439h0A.44.44,0,0,1,34.655,34.717Z" transform="translate(291.143 828.977)" fill="#263238"/>
    <path id="Path_4788" data-name="Path 4788" d="M48,33.061c0,.02-6.871.038-15.336.038s-15.336-.018-15.336-.038,6.871-.038,15.336-.038S48,33.041,48,33.061Z" transform="translate(291.143 828.977)" fill="#263238"/>
    <path id="Path_4798" data-name="Path 4798" d="M29.644,55.466l-.677,3.112S31.9,60.31,31.835,60.9L25.753,59.8l.854-4.893Z" transform="translate(291.143 828.977)" fill="#263238"/>
    <path id="Path_4799" data-name="Path 4799" d="M25.754,59.8l.1-.49,5.792,1.232s.249.167.184.351Z" transform="translate(291.143 828.977)" fill="#455a64"/>
    <path id="Path_4800" data-name="Path 4800" d="M22.726,55.808l-.1,3.183s3.2,1.17,3.241,1.762l-6.18.028L19.64,55.81Z" transform="translate(291.143 828.977)" fill="#263238"/>
    <path id="Path_4801" data-name="Path 4801" d="M19.686,60.778l.015-.5,5.919.162s.276.118.246.311Z" transform="translate(291.143 828.977)" fill="#455a64"/>
    <path id="Path_4818" data-name="Path 4818" d="M29.976,58.136s3.168-15.54,3.171-15.85L27.488,39.3,25.3,57.538Z" transform="translate(291.143 828.977)" fill="#263238"/>
    <path id="Path_4819" data-name="Path 4819" d="M22.85,58.656l4.376-26.933v-5.81l-6.336.453c-.076.227-1.674,32.325-1.674,32.325l.617-.035H22.85" transform="translate(291.143 828.977)" fill="#263238"/>
    <path id="Path_4820" data-name="Path 4820" d="M30.666,25.5l2.484,16.78L27.6,40.937l-2.26-14.891Z" transform="translate(291.143 828.977)" fill="#263238"/>
    <line id="Line_283" data-name="Line 283" x1="0.282" y1="2.285" transform="translate(322.765 858.891)" fill="none"/>
    <path id="Path_4823" data-name="Path 4823" d="M21.055,31.852a8.916,8.916,0,0,0,2.228-2.678" transform="translate(291.143 828.977)" fill="#263238"/>
    <path id="Path_4825" data-name="Path 4825" d="M22.826,22.272c.773-2.411,1.775-6.33,1.775-6.33a11.793,11.793,0,0,1-.791,6.074c-.623,1.573-1.376,2.763-1.893,4.376l-.016.066s-.292.016-.272-.415a12.509,12.509,0,0,1,.718-2.425C22.626,22.907,22.826,22.272,22.826,22.272Z" transform="translate(291.143 828.977)" fill="#e0e0e0"/>
    <path id="Path_4829" data-name="Path 4829" d="M21.152,31.335a7.271,7.271,0,0,0,1.08-1.275.044.044,0,0,1,0-.039A.06.06,0,0,1,22.276,30a6.322,6.322,0,0,0,.339-.6c-.361-.235-.833-.585-.32-.664a1.643,1.643,0,0,0,1.149-.566c.064-.168-.146-.319-.313-.212a2.333,2.333,0,0,1-.608.211,1.518,1.518,0,0,1-.516.032c-.2-.022-1.023-.379-1.17-.4L19.3,29.416S20.481,30.675,21.152,31.335Z" transform="translate(291.143 828.977)" fill="#eb996e"/>
    <path id="Path_4833" data-name="Path 4833" d="M19.868,25.175s.684,1.4,1.063,2.136c.789-3.262-.212-6.694.114-10.033l-.57,1.151-.161,2.662-.123,1.561A20.793,20.793,0,0,1,19.868,25.175Z" transform="translate(291.143 828.977)"/>
    <path id="Path_4835" data-name="Path 4835" d="M18.441,22.695c-.01.007-.108-.146-.292-.387a3.761,3.761,0,0,0-.864-.782.885.885,0,0,0-.6-.146,1.17,1.17,0,0,0-.472.2c-.247.17-.382.3-.392.292a.442.442,0,0,1,.088-.1,2.467,2.467,0,0,1,.273-.237,1.186,1.186,0,0,1,.487-.218.933.933,0,0,1,.646.146,3.359,3.359,0,0,1,.867.814,3.007,3.007,0,0,1,.2.3A.408.408,0,0,1,18.441,22.695Z" transform="translate(291.143 828.977)" fill="#263238"/>
    <path id="Path_4836" data-name="Path 4836" d="M17.958,21.158a2.975,2.975,0,0,1,.482,1.484c-.023,0-.08-.342-.215-.75S17.942,21.171,17.958,21.158Z" transform="translate(291.143 828.977)" fill="#263238"/>
    <path id="Path_4837" data-name="Path 4837" d="M19.822,25.085a1.255,1.255,0,0,1,.11.187l.278.525c.232.446.55,1.067.9,1.765l.013.025-.019.019-.146.146c-.575.6-1.1,1.137-1.478,1.523l-.455.456a1.475,1.475,0,0,1-.174.161A1.41,1.41,0,0,1,19,29.711l.439-.472c.371-.4.889-.941,1.462-1.539l.146-.146V27.6c-.351-.7-.661-1.316-.877-1.776l-.256-.535A1.137,1.137,0,0,1,19.822,25.085Z" transform="translate(291.143 828.977)" fill="#263238"/>
    <path id="Path_4840" data-name="Path 4840" d="M23.245,28.812a.456.456,0,0,1-.067.12c-.047.075-.117.18-.206.308-.18.257-.439.607-.731.984s-.576.708-.784.941c-.1.117-.19.211-.251.273a.524.524,0,0,1-.1.094,3.891,3.891,0,0,1,.311-.4c.2-.243.469-.585.765-.953s.557-.719.747-.969A3.885,3.885,0,0,1,23.245,28.812Z" transform="translate(291.143 828.977)" fill="#455a64"/>
    <path id="Path_4841" data-name="Path 4841" d="M25.536,26.926v.082c0,.054-.015.137-.026.241-.023.213-.06.525-.1.924-.1.8-.237,1.965-.424,3.4-.37,2.867-.931,6.821-1.535,11.19-.3,2.186-.585,4.267-.813,6.165-.06.474-.108.937-.175,1.386s-.136.877-.2,1.3L21.9,53.953c-.215,1.43-.384,2.586-.5,3.387-.056.4-.1.711-.121.922-.012.1-.02.186-.023.24,0,.02,0,.041,0,.061s.01,0,.01,0h0s-.012,0-.01-.007a.208.208,0,0,1,0-.061c0-.054.007-.136.018-.241.019-.212.056-.525.107-.925.1-.8.263-1.96.471-3.39.107-.716.222-1.5.345-2.339.064-.421.129-.855.2-1.3s.114-.911.174-1.384c.231-1.9.506-3.981.806-6.166.6-4.37,1.17-8.321,1.558-11.187.189-1.43.341-2.589.447-3.393.051-.4.092-.709.12-.924.015-.1.025-.183.032-.24A.167.167,0,0,0,25.536,26.926Z" transform="translate(291.143 828.977)" fill="#455a64"/>
    <path id="Path_4842" data-name="Path 4842" d="M28.872,57.991a.682.682,0,0,1,.01-.079c.009-.056.02-.133.036-.234.037-.208.088-.507.146-.893.136-.779.333-1.9.576-3.285l1.936-10.837a2.549,2.549,0,0,0,.047-.784c-.034-.26-.077-.523-.115-.781q-.118-.775-.235-1.528c-.158-1-.314-1.965-.466-2.883-.306-1.836-.6-3.487-.864-4.87s-.5-2.5-.671-3.266c-.083-.384-.159-.681-.206-.877-.022-.1-.039-.175-.053-.23a.039.039,0,0,1-.036-.043.04.04,0,1,1,.079.007.04.04,0,0,1-.036.036l.061.228c.051.2.132.5.219.877.184.765.424,1.88.694,3.262s.57,3.032.877,4.868c.155.918.311,1.883.471,2.883l.237,1.528c.039.26.082.518.117.784a2.611,2.611,0,0,1-.048.808c-.762,4.226-1.45,8.054-1.95,10.827-.253,1.383-.458,2.5-.6,3.281-.072.386-.129.686-.167.892-.019.1-.035.177-.045.231S28.872,57.991,28.872,57.991Z" transform="translate(291.143 828.977)" fill="#455a64"/>
    <path id="Path_4843" data-name="Path 4843" d="M27.226,31.532c.022,0-.237,1.743-.577,3.886S26.017,39.3,26,39.3s.238-1.743.577-3.886S27.2,31.529,27.226,31.532Z" transform="translate(291.143 828.977)" fill="#455a64"/>
    <path id="Path_4844" data-name="Path 4844" d="M22.9,58.608a.666.666,0,0,1-.146.025c-.092.01-.227.023-.393.037-.332.026-.792.051-1.3.058s-.971,0-1.3-.016c-.131,0-.262-.009-.393-.023a.481.481,0,0,1-.146-.02,4.4,4.4,0,0,1,.539-.009c.333,0,.792,0,1.3-.007s.966-.023,1.3-.037A4.038,4.038,0,0,1,22.9,58.608Z" transform="translate(291.143 828.977)" fill="#455a64"/>
    <path id="Path_4845" data-name="Path 4845" d="M29.976,58.135a.893.893,0,0,1-.186-.01l-.5-.053c-.424-.048-1.009-.121-1.655-.2s-1.231-.164-1.653-.225l-.5-.076a1.262,1.262,0,0,1-.183-.037.69.69,0,0,1,.187.007c.118.01.292.028.5.051.424.048,1.01.12,1.656.2s1.229.165,1.652.227l.5.078A.756.756,0,0,1,29.976,58.135Z" transform="translate(291.143 828.977)" fill="#455a64"/>
    <path id="Path_4850" data-name="Path 4850" d="M24.484,24.546a2.8,2.8,0,0,0,.981,1.912.908.908,0,0,1-.268-.192,2.26,2.26,0,0,1-.716-1.392A.9.9,0,0,1,24.484,24.546Z" transform="translate(291.143 828.977)" fill="#263238"/>
    <path id="Path_4851" data-name="Path 4851" d="M25.336,26.472a2.043,2.043,0,0,1-1.285-.6c.015-.018.266.183.62.348S25.34,26.445,25.336,26.472Z" transform="translate(291.143 828.977)" fill="#263238"/>
    <path id="Path_4852" data-name="Path 4852" d="M28.192,21.793a.614.614,0,0,1,.054.156c.031.1.07.251.114.439.091.37.2.886.282,1.462s.133,1.1.155,1.481c.01.19.016.344.016.45a.651.651,0,0,1,0,.165.763.763,0,0,1-.023-.164c-.012-.123-.025-.272-.041-.449-.035-.377-.091-.9-.175-1.472s-.184-1.089-.26-1.462c-.035-.174-.066-.322-.091-.439A.781.781,0,0,1,28.192,21.793Z" transform="translate(291.143 828.977)" fill="#263238"/>
  </g>
</svg>
