<svg xmlns="http://www.w3.org/2000/svg" xmlns:xlink="http://www.w3.org/1999/xlink" width="87" height="86" viewBox="0 0 87 86">
  <defs>
    <clipPath id="clip-path">
      <rect id="Rectangle_2183" data-name="Rectangle 2183" width="87" height="86" transform="translate(-0.31 -0.356)" fill="#fff"/>
    </clipPath>
  </defs>
  <g id="Mask_Group_12" data-name="Mask Group 12" transform="translate(0.31 0.356)" clip-path="url(#clip-path)">
    <g id="Group_5964" data-name="Group 5964" transform="translate(-26.401 8.645)">
      <g id="freepik--Floor--inject-58" transform="translate(0 90.976)">
        <path id="Path_5694" data-name="Path 5694" d="M137.512,98.861c0,.029-30.784.055-68.752.055S0,98.882,0,98.861s30.778-.055,68.76-.055S137.512,98.829,137.512,98.861Z" transform="translate(0 -98.806)" fill="#263238"/>
      </g>
      <g id="freepik--Chart--inject-58" transform="translate(17.575 48.663)">
        <rect id="Rectangle_2141" data-name="Rectangle 2141" width="25.417" height="42.349" transform="translate(33.788)" fill="#455a64"/>
        <g id="Group_5832" data-name="Group 5832" transform="translate(33.788)" opacity="0.3">
          <rect id="Rectangle_2142" data-name="Rectangle 2142" width="25.417" height="42.349"/>
        </g>
        <rect id="Rectangle_2143" data-name="Rectangle 2143" width="25.417" height="42.349" transform="translate(39.063)" fill="#455a64"/>
        <path id="Path_5695" data-name="Path 5695" d="M93.056,75.4c.019.026-1.117.94-2.534,2.042s-2.585,1.979-2.6,1.956,1.117-.937,2.534-2.042S93.036,75.38,93.056,75.4Z" transform="translate(-54.071 -54.639)" fill="#455a64"/>
        <path id="Path_5696" data-name="Path 5696" d="M93.056,72.812c.019.023-1.117.937-2.534,2.039s-2.585,1.981-2.6,1.956,1.117-.937,2.534-2.042S93.036,72.787,93.056,72.812Z" transform="translate(-54.071 -54.433)" fill="#455a64"/>
        <path id="Path_5697" data-name="Path 5697" d="M93.06,70.225c.019.023-1.117.937-2.534,2.042s-2.585,1.97-2.606,1.951,1.117-.937,2.534-2.042S93.042,70.2,93.06,70.225Z" transform="translate(-54.076 -54.228)" fill="#455a64"/>
        <path id="Path_5698" data-name="Path 5698" d="M93.06,67.625c.019.025-1.117.939-2.534,2.041s-2.585,1.979-2.606,1.956,1.117-.937,2.534-2.042S93.042,67.6,93.06,67.625Z" transform="translate(-54.076 -54.022)" fill="#455a64"/>
        <path id="Path_5699" data-name="Path 5699" d="M93.056,65.034c.019.023-1.117.937-2.534,2.042s-2.585,1.979-2.6,1.953,1.117-.937,2.534-2.042S93.036,65.009,93.056,65.034Z" transform="translate(-54.071 -53.817)" fill="#455a64"/>
        <path id="Path_5700" data-name="Path 5700" d="M93.06,62.44c.019.023-1.117.937-2.534,2.042s-2.585,1.979-2.606,1.958,1.117-.937,2.534-2.042S93.042,62.428,93.06,62.44Z" transform="translate(-54.076 -53.612)" fill="#455a64"/>
        <path id="Path_5701" data-name="Path 5701" d="M93.056,59.846c.019.026-1.117.94-2.534,2.042s-2.585,1.979-2.6,1.956,1.117-.937,2.534-2.042S93.036,59.823,93.056,59.846Z" transform="translate(-54.071 -53.406)" fill="#455a64"/>
        <path id="Path_5702" data-name="Path 5702" d="M93.056,57.255c.019.023-1.117.937-2.534,2.042s-2.585,1.979-2.6,1.953,1.117-.937,2.534-2.042S93.036,57.23,93.056,57.255Z" transform="translate(-54.071 -53.201)" fill="#455a64"/>
        <path id="Path_5703" data-name="Path 5703" d="M93.056,54.661c.019.023-1.117.937-2.534,2.042s-2.585,1.979-2.6,1.956,1.117-.937,2.534-2.042S93.036,54.631,93.056,54.661Z" transform="translate(-54.071 -52.995)" fill="#455a64"/>
        <path id="Path_5704" data-name="Path 5704" d="M93.148,52.948c.019.026-.883.758-2.015,1.636s-2.063,1.575-2.082,1.55.883-.756,2.015-1.636S93.131,52.925,93.148,52.948Z" transform="translate(-55.207 -52.86)" fill="#455a64"/>
        <path id="Path_5705" data-name="Path 5705" d="M93.414,52.9a2.134,2.134,0,0,1-.506.46,2.1,2.1,0,0,1-.576.378,4.363,4.363,0,0,1,1.083-.844Z" transform="translate(-58.492 -52.855)" fill="#455a64"/>
        <path id="Path_5706" data-name="Path 5706" d="M87.937,82.691c-.019-.026,1.117-.939,2.534-2.042s2.585-1.981,2.6-1.956-1.115.937-2.534,2.042S87.952,82.719,87.937,82.691Z" transform="translate(-54.104 -54.899)" fill="#455a64"/>
        <path id="Path_5707" data-name="Path 5707" d="M87.765,85.971c-.017-.023,1.117-.937,2.534-2.042s2.585-1.979,2.6-1.956-1.117.937-2.534,2.042S87.784,85.989,87.765,85.971Z" transform="translate(-53.777 -55.159)" fill="#455a64"/>
        <path id="Path_5708" data-name="Path 5708" d="M87.92,88.981c-.019-.023,1.117-.937,2.534-2.042s2.585-1.979,2.6-1.956-1.117.94-2.534,2.042S87.941,89.007,87.92,88.981Z" transform="translate(-54.074 -55.398)" fill="#455a64"/>
        <path id="Path_5709" data-name="Path 5709" d="M87.92,91.576c-.019-.023,1.117-.937,2.534-2.042s2.585-1.979,2.6-1.956-1.117.937-2.534,2.042S87.941,91.6,87.92,91.576Z" transform="translate(-54.074 -55.603)" fill="#455a64"/>
        <path id="Path_5710" data-name="Path 5710" d="M87.92,94.169c-.019-.026,1.117-.94,2.534-2.042s2.585-1.981,2.6-1.955-1.117.937-2.534,2.042S87.941,94.186,87.92,94.169Z" transform="translate(-54.074 -55.809)" fill="#455a64"/>
        <path id="Path_5711" data-name="Path 5711" d="M87.92,96.761c-.019-.023,1.117-.937,2.534-2.042s2.585-1.979,2.6-1.956-1.117.939-2.534,2.042S87.941,96.786,87.92,96.761Z" transform="translate(-54.074 -56.014)" fill="#455a64"/>
        <path id="Path_5712" data-name="Path 5712" d="M87.918,98.543c-.019-.025.883-.758,2.015-1.636s2.063-1.573,2.082-1.55-.883.756-2.015,1.636S87.937,98.567,87.918,98.543Z" transform="translate(-53.029 -56.22)" fill="#455a64"/>
        <path id="Path_5713" data-name="Path 5713" d="M87.918,98.792A4.267,4.267,0,0,1,89,97.948a2.2,2.2,0,0,1-.509.46A2.275,2.275,0,0,1,87.918,98.792Z" transform="translate(-50.016 -56.425)" fill="#455a64"/>
        <rect id="Rectangle_2144" data-name="Rectangle 2144" width="22.391" height="29.946" transform="translate(71.967 12.394)" fill="#455a64"/>
        <g id="Group_5833" data-name="Group 5833" transform="translate(71.967 12.394)" opacity="0.3">
          <rect id="Rectangle_2145" data-name="Rectangle 2145" width="22.391" height="29.946"/>
        </g>
        <rect id="Rectangle_2146" data-name="Rectangle 2146" width="22.391" height="29.946" transform="translate(76.456 12.394)" fill="#455a64"/>
        <path id="Path_5714" data-name="Path 5714" d="M51.721,86.148c.019.023-.973.829-2.215,1.793s-2.263,1.729-2.283,1.706.973-.829,2.215-1.793S51.7,86.122,51.721,86.148Z" transform="translate(24.735 -55.49)" fill="#455a64"/>
        <path id="Path_5715" data-name="Path 5715" d="M51.721,83.877c.019.023-.973.829-2.215,1.793s-2.263,1.729-2.283,1.706.973-.829,2.215-1.793S51.7,83.854,51.721,83.877Z" transform="translate(24.735 -55.31)" fill="#455a64"/>
        <path id="Path_5716" data-name="Path 5716" d="M51.721,81.607c.019.026-.973.829-2.215,1.793s-2.263,1.732-2.283,1.706.973-.829,2.215-1.793S51.7,81.584,51.721,81.607Z" transform="translate(24.735 -55.13)" fill="#455a64"/>
        <path id="Path_5717" data-name="Path 5717" d="M51.721,79.339c.019.023-.973.829-2.215,1.793s-2.263,1.729-2.283,1.706.973-.829,2.215-1.793S51.7,79.313,51.721,79.339Z" transform="translate(24.735 -54.951)" fill="#455a64"/>
        <path id="Path_5718" data-name="Path 5718" d="M51.721,77.068c.019.023-.973.829-2.215,1.793s-2.263,1.729-2.283,1.706.973-.829,2.215-1.793S51.7,77.045,51.721,77.068Z" transform="translate(24.735 -54.771)" fill="#455a64"/>
        <path id="Path_5719" data-name="Path 5719" d="M51.721,74.814c.019.026-.973.829-2.215,1.793s-2.263,1.731-2.283,1.706.973-.829,2.215-1.793S51.7,74.776,51.721,74.814Z" transform="translate(24.735 -54.592)" fill="#455a64"/>
        <path id="Path_5720" data-name="Path 5720" d="M51.721,72.53c.019.023-.973.829-2.215,1.793s-2.263,1.729-2.283,1.706.973-.829,2.215-1.793S51.7,72.5,51.721,72.53Z" transform="translate(24.735 -54.411)" fill="#455a64"/>
        <path id="Path_5721" data-name="Path 5721" d="M51.721,70.26c.019.026-.973.829-2.215,1.793s-2.263,1.729-2.283,1.706.973-.829,2.215-1.793S51.7,70.237,51.721,70.26Z" transform="translate(24.735 -54.231)" fill="#455a64"/>
        <path id="Path_5722" data-name="Path 5722" d="M51.721,67.992c.019.023-.973.829-2.215,1.791s-2.263,1.731-2.283,1.706.973-.829,2.215-1.793S51.7,67.966,51.721,67.992Z" transform="translate(24.735 -54.052)" fill="#455a64"/>
        <path id="Path_5723" data-name="Path 5723" d="M51.8,66.492c.019.023-.769.668-1.759,1.438s-1.807,1.375-1.827,1.352.769-.668,1.759-1.438S51.782,66.466,51.8,66.492Z" transform="translate(23.744 -53.933)" fill="#455a64"/>
        <path id="Path_5724" data-name="Path 5724" d="M52.03,66.451c.019.023-.178.211-.439.412a1.738,1.738,0,0,1-.509.317c-.019-.023.18-.211.441-.423A1.624,1.624,0,0,1,52.03,66.451Z" transform="translate(20.872 -53.929)" fill="#455a64"/>
        <path id="Path_5725" data-name="Path 5725" d="M51.721,95.066c.019.023-.973.829-2.215,1.793s-2.263,1.727-2.283,1.706.973-.829,2.215-1.793S51.7,95.04,51.721,95.066Z" transform="translate(24.735 -56.197)" fill="#455a64"/>
        <path id="Path_5726" data-name="Path 5726" d="M51.721,92.795c.019.026-.973.829-2.215,1.793s-2.263,1.729-2.283,1.706.973-.829,2.215-1.793S51.7,92.769,51.721,92.795Z" transform="translate(24.735 -56.017)" fill="#455a64"/>
        <path id="Path_5727" data-name="Path 5727" d="M51.721,90.528c.019.023-.973.829-2.215,1.793s-2.263,1.729-2.283,1.7.973-.829,2.215-1.793S51.7,90.5,51.721,90.528Z" transform="translate(24.735 -55.837)" fill="#455a64"/>
        <path id="Path_5728" data-name="Path 5728" d="M51.721,88.257c.019.023-.973.829-2.215,1.793s-2.263,1.729-2.283,1.706.973-.829,2.215-1.793S51.7,88.234,51.721,88.257Z" transform="translate(24.735 -55.657)" fill="#455a64"/>
        <rect id="Rectangle_2147" data-name="Rectangle 2147" width="24.006" height="20.391" transform="translate(0.002 21.977)" fill="#455a64"/>
        <g id="Group_5834" data-name="Group 5834" transform="translate(0.002 21.977)" opacity="0.3">
          <rect id="Rectangle_2148" data-name="Rectangle 2148" width="24.006" height="20.391"/>
        </g>
        <rect id="Rectangle_2149" data-name="Rectangle 2149" width="24.006" height="20.391" transform="translate(4.322 21.977)" fill="#455a64"/>
        <path id="Path_5729" data-name="Path 5729" d="M129.891,95.284c.017.026-.921.782-2.086,1.69s-2.135,1.628-2.154,1.6.914-.782,2.086-1.69S129.872,95.261,129.891,95.284Z" transform="translate(-125.649 -56.214)" fill="#455a64"/>
        <path id="Path_5730" data-name="Path 5730" d="M129.891,93.16c.017.026-.921.784-2.086,1.69s-2.135,1.628-2.154,1.6.914-.782,2.086-1.69S129.872,93.122,129.891,93.16Z" transform="translate(-125.649 -56.046)" fill="#455a64"/>
        <path id="Path_5731" data-name="Path 5731" d="M129.891,91.007c.017.023-.921.782-2.086,1.69s-2.135,1.63-2.154,1.6.914-.782,2.086-1.69S129.872,90.981,129.891,91.007Z" transform="translate(-125.649 -55.875)" fill="#455a64"/>
        <path id="Path_5732" data-name="Path 5732" d="M129.891,88.869c.017.023-.921.781-2.086,1.69s-2.135,1.63-2.154,1.607.914-.784,2.086-1.69S129.872,88.844,129.891,88.869Z" transform="translate(-125.649 -55.706)" fill="#455a64"/>
        <path id="Path_5733" data-name="Path 5733" d="M129.891,86.738c.017.026-.921.782-2.086,1.69s-2.135,1.628-2.154,1.6.914-.781,2.086-1.69S129.872,86.706,129.891,86.738Z" transform="translate(-125.649 -55.537)" fill="#455a64"/>
        <path id="Path_5734" data-name="Path 5734" d="M129.891,84.591c.017.023-.921.782-2.086,1.69s-2.135,1.628-2.154,1.6.914-.782,2.086-1.69S129.872,84.565,129.891,84.591Z" transform="translate(-125.649 -55.367)" fill="#455a64"/>
        <path id="Path_5735" data-name="Path 5735" d="M129.891,82.451c.017.023-.921.782-2.086,1.69s-2.135,1.63-2.154,1.6.914-.782,2.086-1.69S129.872,82.425,129.891,82.451Z" transform="translate(-125.649 -55.197)" fill="#455a64"/>
        <path id="Path_5736" data-name="Path 5736" d="M129.891,80.316c.017.023-.921.782-2.086,1.69s-2.135,1.63-2.154,1.607.914-.782,2.086-1.69S129.872,80.288,129.891,80.316Z" transform="translate(-125.649 -55.028)" fill="#455a64"/>
        <path id="Path_5737" data-name="Path 5737" d="M129.891,78.171c.017.025-.921.781-2.086,1.69s-2.135,1.628-2.154,1.6.914-.781,2.086-1.69S129.872,78.148,129.891,78.171Z" transform="translate(-125.649 -54.858)" fill="#455a64"/>
        <path id="Path_5738" data-name="Path 5738" d="M129.967,76.761a20.02,20.02,0,0,1-1.657,1.358,21.079,21.079,0,0,1-1.723,1.267,21.085,21.085,0,0,1,1.657-1.358A20.431,20.431,0,0,1,129.967,76.761Z" transform="translate(-126.587 -54.746)" fill="#455a64"/>
        <path id="Path_5739" data-name="Path 5739" d="M130.179,76.72c.019.023-.165.2-.412.39a1.473,1.473,0,0,1-.482.3c-.019-.023.167-.2.423-.39A1.507,1.507,0,0,1,130.179,76.72Z" transform="translate(-129.284 -54.743)" fill="#455a64"/>
      </g>
      <g id="freepik--Character--inject-58" transform="translate(48.329 0)">
        <g id="Group_5835" data-name="Group 5835" transform="translate(8.931 46.811)" opacity="0.3">
          <path id="Path_5740" data-name="Path 5740" d="M84.893,50.9a1.258,1.258,0,0,0-.619-.034c-6.453.715-13.6,1.2-20.06,1.917v.07a39.184,39.184,0,0,0,12.762,1.478,1.415,1.415,0,0,1,1.138.276,1.5,1.5,0,0,1,.121,1.267q-1.362,5.922-2.722,11.844c-.142.621-.24,1.381.245,1.793.671.568,1.657-.106,2.225-.777,3.843-4.559,5.587-10.476,7.232-16.205C85.389,51.943,85.459,51.131,84.893,50.9Z" transform="translate(-64.214 -50.84)"/>
        </g>
        <path id="Path_5741" data-name="Path 5741" d="M58.649,48.741a3.376,3.376,0,0,0-2.433-.8l-1.478,4.728c1.089.046,2.177.61,3.228.321a2.3,2.3,0,0,0,1.6-1.9A2.744,2.744,0,0,0,58.649,48.741Z" transform="translate(-20.804 -3.799)" fill="#008083"/>
        <path id="Path_5742" data-name="Path 5742" d="M55.564,47.815c0-.038.16-.067.45-.065a3.65,3.65,0,0,1,1.218.23,3.3,3.3,0,0,1,1.478,1.151,3.06,3.06,0,0,1,.494,1.024,2.723,2.723,0,0,1,.036,1.239,2.514,2.514,0,0,1-.54,1.13,2.343,2.343,0,0,1-.959.665,3.425,3.425,0,0,1-1.871.121,5.872,5.872,0,0,1-1.166-.361c-.264-.114-.4-.2-.389-.235s.171-.028.449.019.676.131,1.161.175a3.311,3.311,0,0,0,1.615-.211,1.894,1.894,0,0,0,.726-.536,2,2,0,0,0,.41-.883,2.432,2.432,0,0,0-.39-1.842,3.192,3.192,0,0,0-1.212-1.083,5.458,5.458,0,0,0-1.086-.378C55.714,47.9,55.559,47.855,55.564,47.815Z" transform="translate(-20.125 -3.785)" fill="#008083"/>
        <path id="Path_5743" data-name="Path 5743" d="M67.905,66.7l-3,8.4,10.429,3.784c.3-1.02-4.371-4.972-4.371-4.972l2.152-5.3Z" transform="translate(-45.935 -5.286)" fill="#008083"/>
        <g id="Group_5836" data-name="Group 5836" transform="translate(21.5 66.989)" opacity="0.6">
          <path id="Path_5744" data-name="Path 5744" d="M73.038,72.76a.453.453,0,0,0-.471.378.438.438,0,0,0,.368.471.477.477,0,0,0,.5-.405c0-.222-.211-.477-.441-.446" transform="translate(-72.566 -72.755)" fill="#fff"/>
        </g>
        <path id="Path_5745" data-name="Path 5745" d="M64.877,75.744l.3-.844,9.906,3.951s.393.368.222.68Z" transform="translate(-45.904 -5.936)" fill="#f5f5f5"/>
        <path id="Path_5746" data-name="Path 5746" d="M70.623,74.517c-.019.049-.283-.019-.591.052s-.521.238-.562.211.144-.3.519-.384S70.653,74.472,70.623,74.517Z" transform="translate(-45.403 -5.894)" fill="#263238"/>
        <path id="Path_5747" data-name="Path 5747" d="M69.414,75.446c0,.052-.26.059-.509.211s-.384.363-.435.342.023-.319.338-.5S69.431,75.4,69.414,75.446Z" transform="translate(-43.263 -5.974)" fill="#263238"/>
        <path id="Path_5748" data-name="Path 5748" d="M67.529,77.053c-.051,0-.029-.285.211-.517s.511-.255.517-.211-.2.145-.382.338S67.582,77.067,67.529,77.053Z" transform="translate(-41.233 -6.047)" fill="#263238"/>
        <path id="Path_5749" data-name="Path 5749" d="M70.18,73.12c-.038.038-.247-.116-.54-.211s-.552-.074-.564-.129.271-.157.617-.051S70.221,73.089,70.18,73.12Z" transform="translate(-44.606 -5.76)" fill="#263238"/>
        <path id="Path_5750" data-name="Path 5750" d="M70.243,71.6a1.057,1.057,0,0,1-.521-.192,2.592,2.592,0,0,1-.485-.368,2.8,2.8,0,0,1-.243-.268.7.7,0,0,1-.111-.18.236.236,0,0,1,.074-.276.3.3,0,0,1,.266-.036.791.791,0,0,1,.184.1,2.056,2.056,0,0,1,.285.228,1.986,1.986,0,0,1,.368.492.923.923,0,0,1,.152.534c-.029,0-.092-.192-.268-.467a2.149,2.149,0,0,0-.368-.423,2.109,2.109,0,0,0-.268-.211c-.1-.067-.192-.1-.238-.064s-.021.021-.011.062a.7.7,0,0,0,.085.134,3.137,3.137,0,0,0,.211.258,3.076,3.076,0,0,0,.435.376A3.933,3.933,0,0,1,70.243,71.6Z" transform="translate(-44.468 -5.569)" fill="#263238"/>
        <path id="Path_5751" data-name="Path 5751" d="M67.731,71.642a.9.9,0,0,1,.044-.552,1.877,1.877,0,0,1,.276-.547,1.964,1.964,0,0,1,.25-.268.459.459,0,0,1,.423-.144.261.261,0,0,1,.165.226.85.85,0,0,1-.015.211,1.228,1.228,0,0,1-.129.351,1.245,1.245,0,0,1-.423.46c-.3.2-.536.184-.534.163a4.533,4.533,0,0,0,.46-.271,1.246,1.246,0,0,0,.342-.423,1.074,1.074,0,0,0,.1-.3c.023-.116.015-.222-.031-.226a.322.322,0,0,0-.245.106,1.878,1.878,0,0,0-.232.237,1.98,1.98,0,0,0-.289.483C67.778,71.431,67.755,71.642,67.731,71.642Z" transform="translate(-42.049 -5.557)" fill="#263238"/>
        <path id="Path_5752" data-name="Path 5752" d="M75.731,40.76c-1.708.041-3.328.281-4.5,1.518-1.561,1.643-3.488,3.984-3.591,5.607-.178,2.426,1.3,3.146,2.356,3.739a2.979,2.979,0,0,0,1.552.357l19.737-.15.621-3.342L79.135,45.343l.53-4.8Z" transform="translate(-64.982 -3.213)" fill="#263238"/>
        <path id="Path_5753" data-name="Path 5753" d="M58.616,40.515l6.21-.287s10.72.591,13.013,2.7,2,4.48,1.239,6.757S71.6,66.61,71.6,66.61a2.532,2.532,0,0,1,.238,1.858,2.456,2.456,0,0,1-1.749,1.67l-5.969-2.194s-.811-.285-.238-1.056a2.519,2.519,0,0,1,.952-.9V64.468s2.1-3.814,2.289-4.337,2.2-8.287,2.2-8.287l1.337-2.3s-3.231-1.518-6.028-2.619l-6.546-1.611Z" transform="translate(-43.932 -3.189)" fill="#263238"/>
        <path id="Path_5754" data-name="Path 5754" d="M73.9,69.9c-.013.015-.2-.135-.524-.342A7.045,7.045,0,0,0,70.588,68.5a6.153,6.153,0,0,1-.621-.092,2.317,2.317,0,0,1,.633.013,5.917,5.917,0,0,1,1.478.354,5.838,5.838,0,0,1,1.341.718A2.343,2.343,0,0,1,73.9,69.9Z" transform="translate(-49.139 -5.42)" fill="#455a64"/>
        <path id="Path_5755" data-name="Path 5755" d="M68.756,68.655a2.116,2.116,0,0,1-.346-.368c-.2-.237-.469-.572-.749-.952s-.521-.737-.686-1a1.92,1.92,0,0,1-.245-.439,2.485,2.485,0,0,1,.312.4l.712.978.72.97A2.254,2.254,0,0,1,68.756,68.655Z" transform="translate(-41.015 -5.222)" fill="#455a64"/>
        <path id="Path_5756" data-name="Path 5756" d="M67.72,48.075a5.753,5.753,0,0,1-.564.184,6.044,6.044,0,0,0-1.289.6,6.127,6.127,0,0,0-1.1.891,4.553,4.553,0,0,1-.41.423,2.016,2.016,0,0,1,.351-.483,5.015,5.015,0,0,1,1.1-.934,5.111,5.111,0,0,1,1.322-.583A2.065,2.065,0,0,1,67.72,48.075Z" transform="translate(-37.792 -3.81)" fill="#455a64"/>
        <path id="Path_5757" data-name="Path 5757" d="M65.526,58.342a.566.566,0,0,1,.023-.129c.026-.092.055-.211.092-.363L66,56.518l1.223-4.381c.247-.855.46-1.67.7-2.41a5.02,5.02,0,0,1,1.123-1.714,6.337,6.337,0,0,1,1.066-.878c.139-.092.247-.154.323-.194a.7.7,0,0,1,.118-.059s-.15.1-.423.289a7.275,7.275,0,0,0-1.032.9,5,5,0,0,0-1.083,1.69c-.23.726-.441,1.552-.689,2.4L66.077,56.55l-.392,1.322c-.046.145-.082.264-.112.357A.565.565,0,0,1,65.526,58.342Z" transform="translate(-41.702 -3.716)" fill="#455a64"/>
        <path id="Path_5758" data-name="Path 5758" d="M77.417,46.743c-.031,0-.163-1.159-.291-2.593s-.211-2.6-.178-2.6.163,1.157.291,2.593S77.447,46.738,77.417,46.743Z" transform="translate(-59.086 -3.293)" fill="#455a64"/>
        <path id="Path_5759" data-name="Path 5759" d="M91.035,50.362c-.019,0-.114-.18-.308-.454a4.635,4.635,0,0,0-.9-.948,4.571,4.571,0,0,0-1.138-.645c-.315-.122-.519-.171-.516-.19a1.764,1.764,0,0,1,.542.112,3.935,3.935,0,0,1,2.08,1.626A1.71,1.71,0,0,1,91.035,50.362Z" transform="translate(-83.037 -3.814)" fill="#455a64"/>
        <path id="Path_5760" data-name="Path 5760" d="M89.387,45.882c0,.019-.276-.15-.73-.357a6.888,6.888,0,0,0-3.816-.552c-.5.072-.8.16-.8.139a.719.719,0,0,1,.211-.078,4.715,4.715,0,0,1,.583-.142,6.254,6.254,0,0,1,3.867.552,4.223,4.223,0,0,1,.519.3A.769.769,0,0,1,89.387,45.882Z" transform="translate(-77.586 -3.55)" fill="#455a64"/>
        <path id="Path_5761" data-name="Path 5761" d="M82.984,48.914a1.445,1.445,0,0,1-.154-.025l-.439-.1-1.609-.361c-1.357-.3-3.237-.712-5.321-1.125s-3.976-.756-5.349-.986l-1.626-.276-.441-.08a1.208,1.208,0,0,1-.152-.034.687.687,0,0,1,.157.013l.444.057c.387.052.944.135,1.633.243,1.381.211,3.273.542,5.359.955s3.959.834,5.317,1.159c.678.163,1.225.3,1.6.4l.435.116A.68.68,0,0,1,82.984,48.914Z" transform="translate(-56.316 -3.64)" fill="#455a64"/>
        <path id="Path_5762" data-name="Path 5762" d="M84.919,46.113a6.335,6.335,0,0,0-.276-.633,2.729,2.729,0,0,0-.452-.585,7.613,7.613,0,0,0-.691-.6,10.5,10.5,0,0,0-1.414-.878,4.338,4.338,0,0,1-.6-.343,3.694,3.694,0,0,1,.633.271,8.2,8.2,0,0,1,1.448.859,6.5,6.5,0,0,1,.7.614,2.683,2.683,0,0,1,.447.621,2.184,2.184,0,0,1,.175.482A.583.583,0,0,1,84.919,46.113Z" transform="translate(-70.762 -3.414)" fill="#455a64"/>
        <path id="Path_5763" data-name="Path 5763" d="M58.542,49.614c.025.025-.3.359-.562.866s-.34.967-.376.96A2.522,2.522,0,0,1,58.542,49.614Z" transform="translate(-22.401 -3.932)" fill="#263238"/>
        <path id="Path_5764" data-name="Path 5764" d="M59.363,18.607a.2.2,0,0,1-.019.029l-.057.085-.232.325-.895,1.205c-.777,1.041-1.884,2.515-3.2,4.276l-.028.038-.038-.028L52.1,22.563l.074-.013c-.663.9-1.37,1.854-2.1,2.838-.792,1.066-1.559,2.111-2.284,3.076l-.028.041-.041-.025-3.431-2.008.059-.013-2.957,3.7-.829,1.02-.222.268a.826.826,0,0,1-.078.092.7.7,0,0,1,.067-.1l.211-.276.811-1.041L44.278,26.4l.026-.031.034.021,3.437,2-.07.015,2.281-3.081L52.1,22.484l.031-.042.042.031,2.785,1.982h-.065L58.125,20.2l.914-1.189.245-.31c.026-.034.046-.059.065-.08S59.361,18.607,59.363,18.607Z" transform="translate(-7.25 -1.475)" fill="#263238"/>
        <path id="Path_5765" data-name="Path 5765" d="M42.834,21.733a1.228,1.228,0,0,1,0-.247c.013-.184.029-.405.047-.669.044-.566.111-1.347.194-2.21v-.015l.074.057c-.813.289-1.55.547-2.085.728l-.633.211a.953.953,0,0,1-.237.062,1.166,1.166,0,0,1,.224-.1l.623-.243c.528-.2,1.267-.469,2.072-.758l.082-.029v.092c-.082.859-.163,1.639-.226,2.2-.031.264-.059.488-.082.668A.941.941,0,0,1,42.834,21.733Z" transform="translate(8.979 -1.469)" fill="#263238"/>
        <path id="Path_5766" data-name="Path 5766" d="M80.565,30.457c-.1-.645-2.026-2.783-2.026-2.783s-1.679-4.109-1.968-5.248a17.426,17.426,0,0,0-.79-2.111c-.676-1.143-1.013-1.164-2.167-1.814l-2.242-.991L71.1,16.9a2.534,2.534,0,0,0-1.157-1.218l-5.617-2.9-1.74,3.073a39.745,39.745,0,0,0-3.535,1.827c-.686.874-.211,14.916-.211,14.916s-.336,5.471-.71,7.006-.591,2.67-.591,2.67L59.2,40.355c.98-1.226,3.131-1.793,4.671-1.77l13.184.057-.8-3.932L87.2,37.023s1.835-3.577,1.981-3.649S80.565,30.457,80.565,30.457Z" transform="translate(-52.975 -1.014)" fill="#008083"/>
        <path id="Path_5767" data-name="Path 5767" d="M75.107,17.4c-.092-.092,1.056,2.644,1.8,5.617a31.781,31.781,0,0,1,.568,6.525l.283,4.675v4.09l6.322-.423-.946-6.871s-.771-4.434-.986-6.123c-.2-1.543-1.136-7.734-1.136-7.734S77.755,20.1,75.107,17.4Z" transform="translate(-64.046 -1.361)" fill="#fff"/>
        <path id="Path_5768" data-name="Path 5768" d="M66.78,34.57a.468.468,0,0,1,0-.16,2.449,2.449,0,0,1,.082-.423,2.91,2.91,0,0,1,.725-1.226,2.859,2.859,0,0,1,1.225-.725,2.276,2.276,0,0,1,.423-.085h.16a4.563,4.563,0,0,0-.56.16,3.033,3.033,0,0,0-1.9,1.9C66.829,34.348,66.806,34.572,66.78,34.57Z" transform="translate(-41.694 -2.533)" fill="#263238"/>
        <path id="Path_5769" data-name="Path 5769" d="M67.121,32.05a2.012,2.012,0,0,1,.965-.276,1.978,1.978,0,0,1,1,.118c0,.034-.446-.051-.988,0S67.131,32.084,67.121,32.05Z" transform="translate(-41.702 -2.517)" fill="#263238"/>
        <path id="Path_5770" data-name="Path 5770" d="M90.139,17.96a6.167,6.167,0,0,0-3.556,4.291c-.591,2.411-3.131,12.27-2.606,13.744s10.657,2.923,10.657,2.923l1.2-5.064-5.148-1.409s.065-4.7.131-6.637S90.139,17.96,90.139,17.96Z" transform="translate(-83.906 -1.424)" fill="#008083"/>
        <path id="Path_5771" data-name="Path 5771" d="M83.128,35.99l1.8.473L83.86,40.369l-1.773-.078Z" transform="translate(-71.331 -2.853)" fill="#fff"/>
        <path id="Path_5772" data-name="Path 5772" d="M82.106,39.447l-1.624-1.726-3.344-.844S74.074,37.8,74,37.8s-2.67-.71-2.67-.71l-.906,3.321,4.671.321,5.334-.211s.276-.26.112-.437.893.3,1.017.306.368.1.53-.1A.707.707,0,0,0,82.106,39.447Z" transform="translate(-57.897 -2.923)" fill="#c78976"/>
        <path id="Path_5773" data-name="Path 5773" d="M75.894,40.27a2.874,2.874,0,0,1-.53-.157c-.325-.1-.773-.24-1.267-.368s-.96-.224-1.295-.291a2.84,2.84,0,0,1-.539-.124,2.269,2.269,0,0,1,.552.042,11.709,11.709,0,0,1,1.309.258,11.08,11.08,0,0,1,1.267.405A2.15,2.15,0,0,1,75.894,40.27Z" transform="translate(-53.248 -3.117)" fill="#8b5d54"/>
        <path id="Path_5774" data-name="Path 5774" d="M75.685,39.555a6.935,6.935,0,0,1-.737-.238c-.454-.154-1.092-.343-1.8-.539a10.4,10.4,0,0,0-1.812-.447,4.494,4.494,0,0,0-.771.029.608.608,0,0,1,.211-.067,2.19,2.19,0,0,1,.575-.046,7.389,7.389,0,0,1,1.842.423c.7.211,1.343.4,1.795.575.224.087.405.163.528.211A.716.716,0,0,1,75.685,39.555Z" transform="translate(-51.477 -3.031)" fill="#8b5d54"/>
        <path id="Path_5775" data-name="Path 5775" d="M83.861,36.713a1.729,1.729,0,0,0,.025.238,1.119,1.119,0,0,0,.353.576,4.885,4.885,0,0,0,2.348.944h0c.488.16,1.043.287,1.636.423s1.233.271,1.9.408c1.349.276,2.842.566,4.42.862l-.067.044.357-1.478c.285-1.161.562-2.289.821-3.355l.041.07-4.573-1.307h0a4.516,4.516,0,0,0-2-.348,4.445,4.445,0,0,0-1.505.353,5.089,5.089,0,0,0-.866.48l-.211.154-.074.049a.511.511,0,0,1,.065-.061,2.256,2.256,0,0,1,.211-.163,4.732,4.732,0,0,1,.862-.506,4.383,4.383,0,0,1,1.522-.38,4.6,4.6,0,0,1,2.036.338h0l4.58,1.289.055.015-.013.055c-.262,1.068-.534,2.194-.818,3.357-.124.5-.245,1-.359,1.478L94.6,40.3h-.055c-1.582-.3-3.073-.593-4.42-.877-.673-.139-1.311-.276-1.9-.423s-1.146-.271-1.643-.439h0a4.88,4.88,0,0,1-2.365-.993,1.116,1.116,0,0,1-.346-.6A.689.689,0,0,1,83.861,36.713Z" transform="translate(-83.828 -2.672)" fill="#263238"/>
        <path id="Path_5776" data-name="Path 5776" d="M93.036,33.947c-.015.015-.184-.144-.5-.351a4.744,4.744,0,0,0-2.745-.8c-.368,0-.6.049-.606.029a1.84,1.84,0,0,1,.606-.114,4.194,4.194,0,0,1,2.794.813A1.887,1.887,0,0,1,93.036,33.947Z" transform="translate(-85.975 -2.592)" fill="#263238"/>
        <path id="Path_5777" data-name="Path 5777" d="M89.949,25.088a1.439,1.439,0,0,1,0,.308c0,.2-.021.485-.049.844-.057.707-.163,1.69-.348,2.745a19.454,19.454,0,0,1-.633,2.705c-.057.167-.116.319-.165.452l-.147.331a1.439,1.439,0,0,1-.158.266,1.749,1.749,0,0,1,.116-.285c.038-.1.08-.211.127-.338s.092-.285.145-.454a23.448,23.448,0,0,0,.6-2.7c.184-1.056.3-2.038.382-2.745.034-.333.064-.614.087-.844A1.4,1.4,0,0,1,89.949,25.088Z" transform="translate(-82.214 -1.989)" fill="#263238"/>
        <path id="Path_5778" data-name="Path 5778" d="M86.4,21.992s-.023-.059-.076-.163a.983.983,0,0,0-.331-.361.822.822,0,0,0-.715-.106.925.925,0,0,0-.6.684l-.029.157-.067-.144a15.422,15.422,0,0,1-.674-1.7,8.933,8.933,0,0,1-.5-3c0-.2.028-.368.038-.528a2.444,2.444,0,0,1,.07-.39,1.816,1.816,0,0,1,.1-.325,7.443,7.443,0,0,0-.127,1.246,9.542,9.542,0,0,0,.526,2.957,16.584,16.584,0,0,0,.659,1.69l-.1.013a1.013,1.013,0,0,1,.68-.748.888.888,0,0,1,.777.137.955.955,0,0,1,.325.4.8.8,0,0,1,.042.131A.152.152,0,0,1,86.4,21.992Z" transform="translate(-74.018 -1.278)" fill="#263238"/>
        <path id="Path_5779" data-name="Path 5779" d="M75.631,22.511a2.073,2.073,0,0,1-.047-.261,2.822,2.822,0,0,1-.044-.737,1.567,1.567,0,0,1,.5-.973.908.908,0,0,1,.6-.23.8.8,0,0,1,.633.3l-.092.055-.2-.526c-.389-1.037-.737-1.979-.98-2.66-.114-.327-.211-.6-.285-.811a1.751,1.751,0,0,1-.092-.3,2.02,2.02,0,0,1,.131.287q.123.316.317.8c.264.676.621,1.613,1.013,2.65l.2.526.127.34-.211-.283a.713.713,0,0,0-.552-.266.844.844,0,0,0-.547.2,1.54,1.54,0,0,0-.49.906,3.319,3.319,0,0,0,.013.722A1.058,1.058,0,0,1,75.631,22.511Z" transform="translate(-57.781 -1.298)" fill="#263238"/>
        <path id="Path_5780" data-name="Path 5780" d="M71.235,23.629c.029,0,.5,3.079,1.056,6.884s.973,6.894.944,6.9-.5-3.076-1.056-6.884S71.205,23.634,71.235,23.629Z" transform="translate(-49.643 -1.873)" fill="#263238"/>
        <g id="Group_5837" data-name="Group 5837" transform="translate(9.954 19.118)" opacity="0.3">
          <path id="Path_5781" data-name="Path 5781" d="M83.154,20.765a6.942,6.942,0,0,0,.552,2.486,1.764,1.764,0,0,1,.87-.7,1.388,1.388,0,0,1,1.241.513,2.236,2.236,0,0,0-.4-.948,1.106,1.106,0,0,0-.872-.46.771.771,0,0,0-.737.6l-.633-1.478" transform="translate(-83.154 -20.765)"/>
        </g>
        <path id="Path_5782" data-name="Path 5782" d="M90.593,21.938c-.021,0-.015-.23-.08-.589a3.563,3.563,0,0,0-.536-1.309,3.672,3.672,0,0,0-.5-.6,3.256,3.256,0,0,0-.5-.393c-.308-.2-.526-.271-.519-.291a.5.5,0,0,1,.158.038,1.228,1.228,0,0,1,.178.07,1.918,1.918,0,0,1,.226.114,3.043,3.043,0,0,1,.534.384,3.523,3.523,0,0,1,.528.612,3.286,3.286,0,0,1,.519,1.36,2.282,2.282,0,0,1,.021.441A.448.448,0,0,1,90.593,21.938Z" transform="translate(-82.876 -1.487)" fill="#263238"/>
        <g id="Group_5838" data-name="Group 5838" transform="translate(21.783 23.127)" opacity="0.3">
          <path id="Path_5783" data-name="Path 5783" d="M71.48,25.118,72.9,35.071l.07.158A21.33,21.33,0,0,0,71.48,25.118Z" transform="translate(-71.48 -25.118)"/>
        </g>
        <path id="Path_5784" data-name="Path 5784" d="M67.222,31.307,62.63,39.33l-11.32.247-.028.511,10.957-.08L62.587,40l11.573.023,2.34-4.033L79.488,31.7a.422.422,0,0,0-.1-.588.428.428,0,0,0-.244-.076l-11.555.044A.422.422,0,0,0,67.222,31.307Z" transform="translate(-37.6 -2.46)" fill="#008083"/>
        <path id="Path_5785" data-name="Path 5785" d="M57.807,36.423s.593.545.5,1.007-.064.808-.5.844a.667.667,0,0,1-.6.689.727.727,0,0,1-.6.835.76.76,0,0,1-.112.009s-.258.777-.792.589a4.654,4.654,0,0,1-.877-.408l-.157-.283s-.784-.294-.591-.737c.118-.268.524-.338.524-.338a.762.762,0,0,1,.051-.689c.184-.253.8-.044.8-.044a.873.873,0,0,1,.192-.6c.211-.247,1.185.423,1.185.423l.53-.633Z" transform="translate(-18.905 -2.887)" fill="#c78976"/>
        <path id="Path_5786" data-name="Path 5786" d="M57.919,40a5.4,5.4,0,0,1-.976-.54,5.256,5.256,0,0,1-.921-.633A10.52,10.52,0,0,1,57.922,40Z" transform="translate(-20.323 -3.078)" fill="#8b5d54"/>
        <path id="Path_5787" data-name="Path 5787" d="M57,39.086a4.738,4.738,0,0,1-.906-.48,4.679,4.679,0,0,1-.844-.578,4.688,4.688,0,0,1,.906.48A4.556,4.556,0,0,1,57,39.086Z" transform="translate(-18.698 -3.014)" fill="#8b5d54"/>
        <path id="Path_5788" data-name="Path 5788" d="M54.612,37.445a3.1,3.1,0,0,1,.8.423,6.994,6.994,0,0,1,.756.5,2.494,2.494,0,0,1-.817-.405A4.437,4.437,0,0,1,54.612,37.445Z" transform="translate(-17.275 -2.968)" fill="#8b5d54"/>
        <path id="Path_5789" data-name="Path 5789" d="M67.777,31.374a.185.185,0,0,1-.055,0h-.8l-2.3.019-7.583.017h-.552a.451.451,0,0,0-.423.2c-.175.312-.346.622-.516.927L54.574,34.3l-1.657,2.98c-.473.844-.855,1.522-1.125,2l-.312.54-.083.139a.239.239,0,0,1-.034.046.334.334,0,0,1,.023-.052c.019-.038.042-.085.074-.144.07-.135.169-.319.291-.552l1.1-2.021c.467-.844,1.02-1.866,1.636-2.99.308-.564.633-1.153.97-1.765l.517-.935a.571.571,0,0,1,.516-.251h.552l7.583.017,2.3.019h.8Z" transform="translate(-25.886 -2.481)" fill="#263238"/>
        <path id="Path_5790" data-name="Path 5790" d="M59.326,35.75a.488.488,0,1,0,.73-.085A.521.521,0,0,0,59.326,35.75Z" transform="translate(-25.58 -2.818)" fill="#fff"/>
        <path id="Path_5791" data-name="Path 5791" d="M82.741,15.452l-.064-1.822a2.938,2.938,0,0,0,2.3-2.975c-.057-1.182-.376-3.6-.689-5.792a4.563,4.563,0,0,0-4.8-3.9l-.234.015c-2.534.3-3.689,2.627-3.315,5.15l.593,9.616a3.108,3.108,0,0,0,3.192,2.914h0a3.11,3.11,0,0,0,3.014-3.2h0Z" transform="translate(-65.662 -0.077)" fill="#c78976"/>
        <path id="Path_5792" data-name="Path 5792" d="M81.6,14.663a5.909,5.909,0,0,1-3.239-.743,2.946,2.946,0,0,0,3.252,1.362Z" transform="translate(-64.59 -1.104)" fill="#8b5d54"/>
        <path id="Path_5793" data-name="Path 5793" d="M77.658,7.673a.351.351,0,0,1-.315.374.333.333,0,0,1-.377-.284h0V7.754a.351.351,0,0,1,.321-.363A.336.336,0,0,1,77.658,7.673Z" transform="translate(-59.344 -0.587)" fill="#263238"/>
        <path id="Path_5794" data-name="Path 5794" d="M78.505,6.508c-.041.049-.317-.131-.692-.108s-.633.23-.682.184.017-.1.133-.2a.958.958,0,0,1,1.1-.064C78.482,6.405,78.527,6.486,78.505,6.508Z" transform="translate(-60.332 -0.491)" fill="#263238"/>
        <path id="Path_5795" data-name="Path 5795" d="M81.632,7.833a.351.351,0,0,1-.317.368.332.332,0,0,1-.377-.276V7.914a.351.351,0,0,1,.315-.374.337.337,0,0,1,.379.29Z" transform="translate(-66.975 -0.598)" fill="#263238"/>
        <path id="Path_5796" data-name="Path 5796" d="M82.506,6.83c-.041.049-.317-.131-.692-.108s-.633.23-.682.184.017-.1.133-.2a.936.936,0,0,1,.542-.211.922.922,0,0,1,.552.142C82.483,6.729,82.534,6.809,82.506,6.83Z" transform="translate(-68.019 -0.516)" fill="#263238"/>
        <path id="Path_5797" data-name="Path 5797" d="M78.8,9.528a2.463,2.463,0,0,1,.6-.148c.1-.015.184-.041.2-.106A.505.505,0,0,0,79.519,9l-.325-.714a12.7,12.7,0,0,1-.756-1.871,12.809,12.809,0,0,1,.9,1.806c.11.251.211.49.317.718a.565.565,0,0,1,.074.374.239.239,0,0,1-.15.15.681.681,0,0,1-.16.034A2.51,2.51,0,0,1,78.8,9.528Z" transform="translate(-62.779 -0.509)" fill="#263238"/>
        <path id="Path_5798" data-name="Path 5798" d="M79.324,10.14c.062,0,.087.4.454.669s.8.2.8.253c0,.026-.092.085-.276.1a1.03,1.03,0,0,1-.671-.184.9.9,0,0,1-.354-.564C79.248,10.25,79.292,10.14,79.324,10.14Z" transform="translate(-64.388 -0.805)" fill="#263238"/>
        <path id="Path_5799" data-name="Path 5799" d="M82.81,5.233c-.029.106-.408.08-.844.16s-.787.211-.844.133c-.029-.042.028-.142.165-.25a1.492,1.492,0,0,1,1.292-.224C82.736,5.108,82.831,5.184,82.81,5.233Z" transform="translate(-68.317 -0.397)" fill="#263238"/>
        <path id="Path_5800" data-name="Path 5800" d="M78.611,5.334c-.062.092-.325.017-.633.031s-.572.092-.633,0c-.029-.042,0-.131.118-.211a.867.867,0,0,1,.506-.171.878.878,0,0,1,.517.139C78.6,5.2,78.638,5.3,78.611,5.334Z" transform="translate(-60.642 -0.396)" fill="#263238"/>
        <path id="Path_5801" data-name="Path 5801" d="M85.68,3.731s-.737-1.491-1.5-1.8c-.921-.378-1.244.633-2.111.441s-1.744-.547-2.578.165c-.908.779-.423,1.256-.423,2.343.031,4.411-.694,5.7-1.056,3.646-.041-.226-.68-.368-.829-1.319a10.77,10.77,0,0,1-.116-3.641,3.436,3.436,0,0,1,1.3-1.9A5.887,5.887,0,0,1,82.292.607C83.422.64,85.68,1.808,85.68,3.731Z" transform="translate(-67.365 -0.048)" fill="#263238"/>
        <path id="Path_5802" data-name="Path 5802" d="M86.53,9.072a.663.663,0,0,0-.721-.6h-.033c-.454.072-.946.361-.857,1.3a1.259,1.259,0,0,0,1.8,1.117C86.713,10.847,86.6,9.769,86.53,9.072Z" transform="translate(-75.713 -0.672)" fill="#c78976"/>
        <path id="Path_5803" data-name="Path 5803" d="M86.164,10.351a.58.58,0,0,1-.074.051.29.29,0,0,1-.211.026.726.726,0,0,1-.4-.614.953.953,0,0,1,.044-.423.34.34,0,0,1,.2-.245.152.152,0,0,1,.18.064c.025.046.019.08.028.082s.034-.031.015-.1a.21.21,0,0,0-.076-.1.23.23,0,0,0-.165-.028.409.409,0,0,0-.276.287.983.983,0,0,0-.057.475.759.759,0,0,0,.49.68.313.313,0,0,0,.262-.07C86.167,10.393,86.17,10.353,86.164,10.351Z" transform="translate(-75.584 -0.719)" fill="#8b5d54"/>
        <path id="Path_5804" data-name="Path 5804" d="M80.033,5.163a1.565,1.565,0,0,0,.726.283.543.543,0,0,0,.581-.423c.013-.116-.023-.251.047-.344s.255-.092.4-.085a1.067,1.067,0,0,0,1.056-.829.447.447,0,0,0,.6.019,2.4,2.4,0,0,0,.423-.516.688.688,0,0,1,.552-.321A1.723,1.723,0,0,0,84.788,3c.211-.034.308-.3.33-.516s.029-.477.211-.606a.829.829,0,0,1,.6-.052c.2.019.46-.046.5-.247a.4.4,0,0,0-.092-.3,1.083,1.083,0,0,0-1.3-.33A1.478,1.478,0,0,0,82.32.836a1.488,1.488,0,0,0-2.343.691,1.081,1.081,0,0,0-1.119,1.644,1.026,1.026,0,0,0-.516.844.591.591,0,0,0,.61.571.544.544,0,0,0,.094-.011.6.6,0,1,0,1.068.54h0" transform="translate(-69.381 -0.001)" fill="#263238"/>
        <path id="Path_5805" data-name="Path 5805" d="M86.381,1.561V1.59a.769.769,0,0,1,0,.092,1.07,1.07,0,0,1-.1.33,1.2,1.2,0,0,1-.346.423,1.127,1.127,0,0,1-.674.237l.026-.038a.6.6,0,0,1,0,.46,1.69,1.69,0,0,1-.26.423,1.282,1.282,0,0,1-.175.211.578.578,0,0,1-.26.116.608.608,0,0,1-.552-.16l.061-.021a1.264,1.264,0,0,1-.477.9.911.911,0,0,1-.539.211,1.681,1.681,0,0,1-.552-.085l.044-.023a1.325,1.325,0,0,1-.363.54.708.708,0,0,1-.573.194.92.92,0,0,1-.754-.678l.041.017a.865.865,0,0,1-.57.118.922.922,0,0,1-.423-.154.84.84,0,0,1-.2-.192.951.951,0,0,1-.049-.082,1.04,1.04,0,0,0,.264.251.913.913,0,0,0,.4.137.808.808,0,0,0,.536-.122l.031-.019v.036a.868.868,0,0,0,.712.633.634.634,0,0,0,.519-.184,1.26,1.26,0,0,0,.34-.513l.013-.031h.031a1.559,1.559,0,0,0,.524.082.851.851,0,0,0,.5-.2A1.182,1.182,0,0,0,84,3.655V3.577l.055.057a.564.564,0,0,0,.715.042,1.174,1.174,0,0,0,.165-.192,1.616,1.616,0,0,0,.255-.41.555.555,0,0,0,.01-.423l-.015-.038h.05a1.089,1.089,0,0,0,.645-.211,1.19,1.19,0,0,0,.344-.4A1.294,1.294,0,0,0,86.381,1.561Z" transform="translate(-70.573 -0.125)" fill="#455a64"/>
        <path id="Path_5806" data-name="Path 5806" d="M75.477,7.813a2.73,2.73,0,0,1-.11-.39,1.643,1.643,0,0,1,.173-1.056,1.608,1.608,0,0,1,.5-.56,1.637,1.637,0,0,1,.8-.291,1.59,1.59,0,0,1,.467.029,1.514,1.514,0,0,1,.454.171,1.621,1.621,0,0,1,.8,1.742,1.555,1.555,0,0,1-.169.46,1.5,1.5,0,0,1-.276.368,1.649,1.649,0,0,1-.745.423,1.675,1.675,0,0,1-.749.013,1.657,1.657,0,0,1-.921-.562,2.875,2.875,0,0,1-.226-.338.75.75,0,0,0,.042.1.641.641,0,0,0,.064.112,1.108,1.108,0,0,0,.1.144,1.656,1.656,0,0,0,1.7.585,1.694,1.694,0,0,0,.775-.423,1.555,1.555,0,0,0,.292-.387,1.5,1.5,0,0,0,.175-.473,1.676,1.676,0,0,0-1.3-1.987,1.577,1.577,0,0,0-.483-.028,1.67,1.67,0,0,0-1.339.889,1.646,1.646,0,0,0-.158,1.092,1.376,1.376,0,0,0,.044.171.7.7,0,0,0,.044.121A.607.607,0,0,0,75.477,7.813Z" transform="translate(-58.834 -0.434)" fill="#263238"/>
        <path id="Path_5807" data-name="Path 5807" d="M80.169,8.087a3.834,3.834,0,0,1-.11-.39,1.662,1.662,0,0,1,.175-1.056,1.6,1.6,0,0,1,.5-.56,1.624,1.624,0,0,1,.807-.3,1.517,1.517,0,0,1,.46.029,1.561,1.561,0,0,1,.46.171A1.626,1.626,0,1,1,80.4,8.421a2.932,2.932,0,0,1-.226-.336.653.653,0,0,0,.044.1.634.634,0,0,0,.062.112,1.122,1.122,0,0,0,.1.144,1.647,1.647,0,0,0,.931.591,1.668,1.668,0,0,0,1.546-.439,1.57,1.57,0,0,0,.294-.384,1.648,1.648,0,0,0,.175-.475,1.677,1.677,0,0,0-.844-1.809,1.671,1.671,0,0,0-.957-.2,1.687,1.687,0,0,0-.829.307,1.659,1.659,0,0,0-.506.583A1.64,1.64,0,0,0,80.032,7.7a.967.967,0,0,0,.044.168.72.72,0,0,0,.044.122A.791.791,0,0,0,80.169,8.087Z" transform="translate(-67.837 -0.454)" fill="#263238"/>
        <path id="Path_5808" data-name="Path 5808" d="M78.935,7.14a1.137,1.137,0,0,1,1.022-.052A.411.411,0,0,0,79.821,7a.844.844,0,0,0-.762.041C78.971,7.079,78.928,7.128,78.935,7.14Z" transform="translate(-63.454 -0.55)" fill="#263238"/>
        <path id="Path_5809" data-name="Path 5809" d="M83.619,8.577a5.259,5.259,0,0,0,.777-.368,5.528,5.528,0,0,0,.748-.423,5.548,5.548,0,0,0-.777.368A5.971,5.971,0,0,0,83.619,8.577Z" transform="translate(-72.955 -0.618)" fill="#263238"/>
      </g>
    </g>
  </g>
</svg>
