<svg xmlns="http://www.w3.org/2000/svg" width="441.753" height="526.524" viewBox="0 0 441.753 526.524">
  <g id="Group_11585" data-name="Group 11585" transform="translate(10180.504 202)">
    <path id="Path_16507" data-name="Path 16507" d="M466.47,445.2H257.9c-20.1,0-38.527-14.191-41.949-32.3l-24.188-127.95c-2.406-12.746.578-25.324,8.18-34.508,7.223-8.719,17.719-13.52,29.559-13.52h265.37c11.832,0,22.332,4.8,29.559,13.52,7.609,9.184,10.59,21.758,8.18,34.508l-24.188,127.96c-3.422,18.109-21.852,32.3-41.953,32.3ZM229.5,252.74a22.086,22.086,0,0,0-17.383,7.8c-4.594,5.543-6.352,13.367-4.816,21.469l24.188,127.96c1.988,10.527,14.086,19.422,26.41,19.422h208.57c12.324,0,24.422-8.9,26.414-19.422l24.188-127.96c1.527-8.1-.223-15.934-4.816-21.469a22.057,22.057,0,0,0-17.383-7.8Z" transform="translate(-10281.531 -216.836)" fill="#f78104"/>
    <path id="Path_16508" data-name="Path 16508" d="M168.57,276.59H120.863a19.836,19.836,0,0,1,0-39.672H168.57a19.836,19.836,0,0,1,0,39.672Zm-47.707-23.852a4.019,4.019,0,1,0,0,8.039H168.57a4.02,4.02,0,0,0,0-8.039Z" transform="translate(-10281.531 -216.836)" fill="#f78104"/>
    <path id="Path_16509" data-name="Path 16509" d="M267.44,541.36a35.934,35.934,0,1,1,35.934-35.934A35.974,35.974,0,0,1,267.44,541.36Zm0-56.051a20.121,20.121,0,1,0,20.121,20.121,20.145,20.145,0,0,0-20.121-20.121Z" transform="translate(-10281.531 -216.836)" fill="#f78104"/>
    <path id="Path_16510" data-name="Path 16510" d="M452.48,541.36a35.934,35.934,0,1,1,35.934-35.934A35.974,35.974,0,0,1,452.48,541.36Zm0-56.051A20.121,20.121,0,1,0,472.6,505.43a20.145,20.145,0,0,0-20.121-20.121Z" transform="translate(-10281.531 -216.836)" fill="#f78104"/>
    <path id="Path_16511" data-name="Path 16511" d="M250.45,66.035,247.778,81l-.172.035L231.637,84l16.141,3,2.941,16.457L253.653,87l.129-.023L269.794,84l-16.141-3L250.9,65.574l-.18-1.023Z" transform="translate(-10281.531 -216.836)" fill="#f78104"/>
    <path id="Path_16512" data-name="Path 16512" d="M317.25,15.68l-1.52,8.512-.1.016-9.074,1.688,9.172,1.7L317.4,36.95,319.07,27.6l.07-.02,9.1-1.684-9.172-1.7-1.562-8.769-.105-.586Z" transform="translate(-10281.531 -216.836)" fill="#f78104"/>
    <path id="Path_16513" data-name="Path 16513" d="M469.02,153.59l-2.883,16.156-.184.031-17.23,3.2,17.414,3.23,3.168,17.766,3.176-17.766.137-.023,17.281-3.207-17.418-3.23L469.508,153.1l-.2-1.109Z" transform="translate(-10281.531 -216.836)" fill="#f78104"/>
    <path id="Path_16514" data-name="Path 16514" d="M245.46,175l-1.52,8.516-.1.016-9.074,1.684,9.172,1.7,1.672,9.352,1.668-9.352.074-.012,9.1-1.691-9.172-1.7-1.562-8.773-.105-.582Z" transform="translate(-10281.531 -216.836)" fill="#f78104"/>
    <path id="Path_16515" data-name="Path 16515" d="M465.54,99.008l-1.52,8.512-.1.016-9.07,1.688,9.172,1.7,1.668,9.352,1.672-9.352.07-.012,9.1-1.691-9.172-1.7L465.8,98.75l-.109-.582Z" transform="translate(-10281.531 -216.836)" fill="#f78104"/>
    <path id="Path_16516" data-name="Path 16516" d="M373.42,76.816l-5.687,31.875-.371.07-33.992,6.309,34.363,6.375,6.254,35.043,6.254-35.043.27-.047L414.6,115.07l-34.363-6.379-5.867-32.852-.387-2.184Z" transform="translate(-10281.531 -216.836)" fill="#f78104"/>
    <path id="Path_16517" data-name="Path 16517" d="M440.12,24.406l-3.527,19.785-.23.043-21.1,3.914,21.332,3.961,3.879,21.75,3.883-21.75.168-.031,21.16-3.93-21.328-3.957L440.713,23.8l-.242-1.355Z" transform="translate(-10281.531 -216.836)" fill="#f78104"/>
    <path id="Path_16518" data-name="Path 16518" d="M523.48,80.238l-2.664,14.938-.172.035L504.71,98.168l16.105,2.984,2.93,16.418,2.934-16.418.125-.023,15.977-2.961-16.1-2.992-2.75-15.4-.184-1.023Z" transform="translate(-10281.531 -216.836)" fill="#f78104"/>
    <path id="Path_16519" data-name="Path 16519" d="M317.11,149l-2.957,16.566-.191.039-17.668,3.277,17.859,3.313L317.4,190.4l3.246-18.207.141-.027,17.719-3.285-17.859-3.316L317.6,148.5l-.2-1.137Z" transform="translate(-10281.531 -216.836)" fill="#f78104"/>
  </g>
</svg>
