<svg xmlns="http://www.w3.org/2000/svg" width="20.589" height="16.3" viewBox="0 0 20.589 16.3">
  <g id="Group_5" data-name="Group 5" transform="translate(-18.7 -47.7)">
    <g id="Group_4" data-name="Group 4" transform="translate(0 -0.3)">
      <g id="Group_3" data-name="Group 3" transform="translate(-0.011)">
        <circle id="Ellipse_1" data-name="Ellipse 1" cx="4" cy="4" r="4" transform="translate(31 56)" fill="none" stroke="#000" stroke-linecap="round" stroke-linejoin="round" stroke-width="0.6"/>
        <line id="Line_4" data-name="Line 4" y2="4" transform="translate(35 58)" fill="none" stroke="#000" stroke-linecap="round" stroke-linejoin="round" stroke-width="0.6"/>
        <line id="Line_5" data-name="Line 5" x2="4" transform="translate(33 60)" fill="none" stroke="#000" stroke-linecap="round" stroke-linejoin="round" stroke-width="0.6"/>
        <g id="Group_2" data-name="Group 2" transform="translate(4.011 3.3)">
          <path id="Path_1" data-name="Path 1" d="M17.714,10.8H4L5.371,7.646A2.709,2.709,0,0,1,7.84,6h5.966a2.885,2.885,0,0,1,2.537,1.646Z" transform="translate(13.057 39)" fill="none" stroke="#000" stroke-linecap="round" stroke-linejoin="round" stroke-width="0.6"/>
          <path id="Path_2" data-name="Path 2" d="M6.114,23H2v1.371a1.375,1.375,0,0,0,1.371,1.371H4.743a1.375,1.375,0,0,0,1.371-1.371Z" transform="translate(13.686 33.657)" fill="none" stroke="#000" stroke-linecap="round" stroke-linejoin="round" stroke-width="0.6"/>
          <line id="Line_1" data-name="Line 1" x2="2.331" transform="translate(15 49.114)" fill="none" stroke="#000" stroke-linecap="round" stroke-linejoin="round" stroke-width="0.6"/>
          <line id="Line_2" data-name="Line 2" x2="2" transform="translate(30.989 49.7)" fill="none" stroke="#000" stroke-linecap="round" stroke-linejoin="round" stroke-width="0.6"/>
          <line id="Line_3" data-name="Line 3" x2="1" transform="translate(16.989 52.7)" fill="none" stroke="#000" stroke-linecap="round" stroke-linejoin="round" stroke-width="0.6"/>
          <path id="Path_3" data-name="Path 3" d="M14.9,19.754A1.3,1.3,0,0,0,13.663,19h-2.4a1.3,1.3,0,0,0-1.234.754L9,21.743" transform="translate(11.486 34.914)" fill="none" stroke="#000" stroke-linecap="round" stroke-linejoin="round" stroke-width="0.6"/>
          <path id="Path_4" data-name="Path 4" d="M11.972,19.857h-9.6A1.375,1.375,0,0,1,1,18.486V15.743A2.751,2.751,0,0,1,3.743,13H16.086a2.761,2.761,0,0,1,2.743,2.537" transform="translate(14 36.8)" fill="none" stroke="#000" stroke-linecap="round" stroke-linejoin="round" stroke-width="0.6"/>
        </g>
      </g>
    </g>
  </g>
</svg>
