<svg xmlns="http://www.w3.org/2000/svg" width="13.079" height="13.074" viewBox="0 0 13.079 13.074">
  <g id="Group_6057" data-name="Group 6057" transform="translate(-16 -478)">
    <g id="Group_6056" data-name="Group 6056">
      <path id="Path_4297" data-name="Path 4297" d="M-573.125,441.034a4.28,4.28,0,0,1-.661-.213,1.928,1.928,0,0,1-1.143-1.768c-.023-1.438-.019-2.876,0-4.314a2.026,2.026,0,0,1,1.969-1.974c.22-.007.441,0,.679,0v-.145q0-.8,0-1.6a3.026,3.026,0,0,1,2.453-3,3.076,3.076,0,0,1,3.528,2.034,3.018,3.018,0,0,1,.146.967v1.74h.575a2,2,0,0,1,1.135.325,1.986,1.986,0,0,1,.939,1.624c.019.369.009.74,0,1.11a.506.506,0,0,1-.508.514.507.507,0,0,1-.51-.513c-.005-.319,0-.638,0-.957a1.027,1.027,0,0,0-1.082-1.082q-3.612,0-7.224,0a1.028,1.028,0,0,0-1.088,1.088q0,2.023,0,4.046a1.029,1.029,0,0,0,1.1,1.094q1.947,0,3.893,0a.565.565,0,0,1,.431.155.509.509,0,0,1-.147.816c-.038.018-.077.034-.115.051Zm1.863-8.281h4.079c0-.651.015-1.293-.008-1.934a1.8,1.8,0,0,0-.176-.671,2.019,2.019,0,0,0-2.228-1.127,1.938,1.938,0,0,0-1.6,1.476,3.183,3.183,0,0,0-.062.758C-571.268,431.752-571.262,432.249-571.262,432.753Z" transform="translate(590.946 50.04)"/>
      <path id="Path_4298" data-name="Path 4298" d="M-361.672,690.435a1.805,1.805,0,0,1-1.017-.605c-.44-.444-.893-.875-1.34-1.311a.52.52,0,0,1-.173-.54.5.5,0,0,1,.785-.278,1.216,1.216,0,0,1,.134.118l1.46,1.425c.249.243.4.231.6-.048q1.2-1.674,2.4-3.348a.508.508,0,0,1,.807-.113,1.312,1.312,0,0,1,.155.257v.2a2.4,2.4,0,0,1-.14.255q-1.219,1.708-2.441,3.413a1.312,1.312,0,0,1-.684.506c-.076.024-.155.043-.232.064Z" transform="translate(386.947 -199.361)"/>
      <path id="Path_4299" data-name="Path 4299" d="M-500.048,689.38a.512.512,0,0,1-.514.508.512.512,0,0,1-.505-.517.512.512,0,0,1,.508-.5A.512.512,0,0,1-500.048,689.38Z" transform="translate(519.425 -202.543)"/>
      <path id="Path_4300" data-name="Path 4300" d="M-440.048,689.379a.512.512,0,0,1-.514.509.512.512,0,0,1-.506-.517.512.512,0,0,1,.507-.5A.512.512,0,0,1-440.048,689.379Z" transform="translate(461.34 -202.542)"/>
      <path id="Path_4301" data-name="Path 4301" d="M-380.049,689.382a.512.512,0,0,1-.516.506.512.512,0,0,1-.5-.519.512.512,0,0,1,.51-.5A.512.512,0,0,1-380.049,689.382Z" transform="translate(403.256 -202.543)"/>
      <path id="Path_4302" data-name="Path 4302" d="M-319.763,688.868a.512.512,0,0,1,.515.508.512.512,0,0,1-.511.512.512.512,0,0,1-.508-.5A.513.513,0,0,1-319.763,688.868Z" transform="translate(344.395 -202.542)"/>
    </g>
  </g>
</svg>
