<svg xmlns="http://www.w3.org/2000/svg" width="19.86" height="19.86" viewBox="0 0 19.86 19.86">
  <g id="Group_11" data-name="Group 11" transform="translate(-19 -216)">
    <g id="_15206730981639550718" data-name="15206730981639550718" transform="translate(18 215)">
      <path id="Path_29" data-name="Path 29" d="M25.571,48.111a1.248,1.248,0,0,0-1.465-1.229.313.313,0,0,0-.051.013l-3.44,1.214L19.509,47.4a.953.953,0,0,0-.543-.169H16.922a.32.32,0,0,0-.32-.32H15.32a.32.32,0,0,0-.32.32v4.164a.32.32,0,0,0,.32.32H16.6a.32.32,0,0,0,.32-.32V50.85h.885l2.163,1.081a.963.963,0,0,0,.963-.06l4.083-2.722A1.244,1.244,0,0,0,25.571,48.111Zm-9.29,2.96h-.641V47.548h.641Zm8.379-2.455-4.083,2.722a.321.321,0,0,1-.321.02l-2.23-1.115a.322.322,0,0,0-.143-.034h-.961V47.868h2.044a.329.329,0,0,1,.189.061l1.629,1.05a.3.3,0,0,1-.362.482l-1.092-.655-.33.549,1.092.655a.942.942,0,0,0,1.173-1.451l2.977-1.05a.607.607,0,0,1,.419,1.106Z" transform="translate(-9.515 -31.172)"/>
      <path id="Path_30" data-name="Path 30" d="M21,28.524A3.524,3.524,0,1,0,24.524,25,3.528,3.528,0,0,0,21,28.524Zm3.524-2.883a2.883,2.883,0,1,1-2.883,2.883A2.886,2.886,0,0,1,24.524,25.641Z" transform="translate(-13.593 -16.312)"/>
      <path id="Path_31" data-name="Path 31" d="M29.6,32.524h-.641a.321.321,0,0,1-.32-.32H28a.962.962,0,0,0,.961.961v.32H29.6v-.32a.962.962,0,0,0,.961-.961v-.32a.962.962,0,0,0-.961-.961h-.641a.321.321,0,0,1-.32-.32v-.32a.321.321,0,0,1,.32-.32H29.6a.321.321,0,0,1,.32.32h.641a.962.962,0,0,0-.961-.961V29h-.641v.32a.962.962,0,0,0-.961.961v.32a.962.962,0,0,0,.961.961H29.6a.321.321,0,0,1,.32.32v.32A.321.321,0,0,1,29.6,32.524Z" transform="translate(-18.351 -19.031)"/>
      <path id="Path_32" data-name="Path 32" d="M30.922,1.961a.961.961,0,1,0-.961.961A.962.962,0,0,0,30.922,1.961Zm-1.281,0a.32.32,0,1,1,.32.32A.321.321,0,0,1,29.641,1.961Z" transform="translate(-19.031)"/>
      <path id="Path_33" data-name="Path 33" d="M28.042,11.1a.32.32,0,0,0,.279.162h.641v2.242H29.6V11.265h.641a.32.32,0,0,0,.275-.485l-.961-1.6a.333.333,0,0,0-.549,0l-.961,1.6A.321.321,0,0,0,28.042,11.1Zm1.24-1.137.4.659h-.791Z" transform="translate(-18.351 -5.46)"/>
      <path id="Path_34" data-name="Path 34" d="M53.076,10.847a.961.961,0,1,0,0,1.359A.962.962,0,0,0,53.076,10.847Zm-.453.906a.32.32,0,1,1,0-.453A.321.321,0,0,1,52.623,11.753Z" transform="translate(-34.28 -6.501)"/>
      <path id="Path_35" data-name="Path 35" d="M40.746,20.3l1.586-1.586.453.453a.32.32,0,0,0,.226.094.325.325,0,0,0,.086-.012.321.321,0,0,0,.225-.231l.453-1.812a.32.32,0,0,0-.389-.388l-1.812.453a.32.32,0,0,0-.149.537l.453.453-1.586,1.586Zm2.278-2.731-.186.745-.559-.559Z" transform="translate(-26.706 -10.744)"/>
      <path id="Path_36" data-name="Path 36" d="M5.848,10.847a.961.961,0,1,0,1.359,0A.962.962,0,0,0,5.848,10.847Zm.906.906a.32.32,0,1,1,0-.453A.321.321,0,0,1,6.753,11.753Z" transform="translate(-3.104 -6.501)"/>
      <path id="Path_37" data-name="Path 37" d="M14.248,17.5a.32.32,0,0,0-.231-.225l-1.812-.453a.32.32,0,0,0-.389.388l.453,1.812a.321.321,0,0,0,.225.231.326.326,0,0,0,.086.012.32.32,0,0,0,.226-.094l.453-.453L14.846,20.3l.453-.453-1.586-1.586.453-.453A.32.32,0,0,0,14.248,17.5Zm-1.494.818-.186-.745.745.186Z" transform="translate(-7.345 -10.744)"/>
      <path id="Path_38" data-name="Path 38" d="M57.961,34a.961.961,0,1,0,.961.961A.962.962,0,0,0,57.961,34Zm0,1.281a.32.32,0,1,1,.32-.32A.321.321,0,0,1,57.961,35.281Z" transform="translate(-38.062 -22.429)"/>
      <path id="Path_39" data-name="Path 39" d="M46.123,35.521a.32.32,0,0,0,.323,0l1.6-.961a.32.32,0,0,0,0-.549l-1.6-.961a.32.32,0,0,0-.485.275v.641H45V34.6h.961v.641A.321.321,0,0,0,46.123,35.521Zm.478-1.635.659.395-.659.395Z" transform="translate(-29.905 -21.75)"/>
      <path id="Path_40" data-name="Path 40" d="M2.922,34.961a.961.961,0,1,0-.961.961A.962.962,0,0,0,2.922,34.961Zm-1.281,0a.32.32,0,1,1,.32.32A.321.321,0,0,1,1.641,34.961Z" transform="translate(0 -22.429)"/>
      <path id="Path_41" data-name="Path 41" d="M9,34.281a.319.319,0,0,0,.155.275l1.6.961a.32.32,0,0,0,.485-.275V34.6H12.2v-.641h-.961V33.32a.32.32,0,0,0-.485-.275l-1.6.961A.319.319,0,0,0,9,34.281Zm1.6-.395v.79l-.659-.4Z" transform="translate(-5.437 -21.749)"/>
    </g>
  </g>
</svg>
