<svg xmlns="http://www.w3.org/2000/svg" width="12.903" height="14.584" viewBox="0 0 12.903 14.584">
  <g id="Group_6056" data-name="Group 6056" transform="translate(-16.484 -229.416)">
    <g id="Group_6055" data-name="Group 6055">
      <path id="Path_5425" data-name="Path 5425" d="M43.058,76.126l.373.227.222-.41a6.006,6.006,0,0,1,5.421-2.794,6.2,6.2,0,0,1,5.439,2.823l.246.384.774-.488-.258-.4a7.113,7.113,0,0,0-6.2-3.213,6.925,6.925,0,0,0-6.221,3.239l-.223.378.343.207a.426.426,0,0,0,.049.033Z" transform="translate(-26.146 158.865)"/>
      <path id="Path_5426" data-name="Path 5426" d="M74.583,129.406a5.838,5.838,0,0,0-3.721-1.336,5.766,5.766,0,0,0-5.537,3.971,9.839,9.839,0,0,0,.155,4.585l.132.417.9-.194-.143-.453a9.083,9.083,0,0,1-.163-4.083,4.978,4.978,0,0,1,1.551-2.259,4.831,4.831,0,0,1,3.1-1.079,5.224,5.224,0,0,1,4.725,3.265,2.683,2.683,0,0,1-.19,2.476,1.057,1.057,0,0,1-.91.463c-1.021-.052-1.2-.557-1.443-1.518a3.5,3.5,0,0,0-.54-1.329,1.92,1.92,0,0,0-1.639-.705,2.129,2.129,0,0,0-1.793.777c-.864,1.126-.3,3.048-.278,3.129l.007.026a6.056,6.056,0,0,0,3.894,3.614l.446.1.244-.867-.461-.1a5.2,5.2,0,0,1-3.249-3.032,4.6,4.6,0,0,1-.154-.9,2.186,2.186,0,0,1,.285-1.424,1.24,1.24,0,0,1,1.057-.417c.9,0,1.05.44,1.286,1.353.229.89.544,2.11,2.29,2.2a1.968,1.968,0,0,0,1.7-.835,3.542,3.542,0,0,0,.308-3.326A6.29,6.29,0,0,0,74.583,129.406Z" transform="translate(-47.934 104.73)"/>
      <path id="Path_5427" data-name="Path 5427" d="M123.728,190.263a3.942,3.942,0,0,1,.8-2.983,2.918,2.918,0,0,1,2.271-.876,2.765,2.765,0,0,1,2.552,1.5,4.65,4.65,0,0,1,.54,1.608l.043.444.906-.066a3.4,3.4,0,0,0-.03-.471,5.553,5.553,0,0,0-.634-1.925A3.681,3.681,0,0,0,126.8,185.5a3.815,3.815,0,0,0-2.961,1.181,4.8,4.8,0,0,0-1.024,3.7v.01a7.252,7.252,0,0,0,2,4.142l.35.339.633-.658-.312-.3A6.351,6.351,0,0,1,123.728,190.263Z" transform="translate(-103.875 49.035)"/>
      <path id="Path_5428" data-name="Path 5428" d="M100.011,17.711a7.281,7.281,0,0,1,3.731-.808,6.8,6.8,0,0,1,3.832.874l.42.268.49-.761-.4-.259h0l-.048-.034a7.948,7.948,0,0,0-4.294-.99,7.805,7.805,0,0,0-4.331,1.018h0l-.41.266.489.761Z" transform="translate(-80.814 213.416)"/>
      <path id="Path_5429" data-name="Path 5429" d="M243.9,308.794a3.2,3.2,0,0,1-2.438-.569,3.655,3.655,0,0,1-1.171-2.3l-.037-.449-.922.067.04.453a4.514,4.514,0,0,0,1.5,2.916,3.835,3.835,0,0,0,2.484.812,5.662,5.662,0,0,0,.651-.039l.5-.063-.184-.9Z" transform="translate(-216.906 -67.321)"/>
    </g>
  </g>
</svg>
