<svg height="15.003" viewBox="0 0 17.862 15.003" width="17.862" xmlns="http://www.w3.org/2000/svg"><path d="m164.409 614.6a.388.388 0 0 1 -.368.176q-8.564-.005-17.128 0h-.052c-.2 0-.313-.1-.314-.27s.111-.274.311-.277h1.012.21v-.229q0-1.8 0-3.593c0-.3.077-.381.38-.381h2.285c.285 0 .37.086.37.376q0 1.805 0 3.611v.2h.909v-.2q0-2.59 0-5.18c0-.309.069-.379.378-.379h2.233c.34 0 .411.07.411.406q0 2.555 0 5.111v.24h.9v-.211q0-2.363 0-4.727c0-.358.074-.433.426-.433h2.215c.322 0 .405.082.406.4q0 2.372 0 4.744v.218h.9v-.229q0-3.689 0-7.378a1.65 1.65 0 0 1 0-.174.272.272 0 0 1 .3-.272q1.212 0 2.424 0c.214 0 .3.106.3.357q0 3.741 0 7.483v.225h1.162a.356.356 0 0 1 .339.167zm-2.06-.383v-7.5h-1.9v7.5zm-9.769-5.217v5.214h1.907v-5.214zm5.825 5.214v-4.8h-1.905v4.8zm-7.859 0v-3.621h-1.911v3.621z" transform="translate(-146.546 -599.769)"/><path d="m372.1 494.947a2.455 2.455 0 1 1 -2.458-2.448 2.43 2.43 0 0 1 2.458 2.448zm-.547.019a1.912 1.912 0 1 0 -1.931 1.895 1.9 1.9 0 0 0 1.927-1.896z" transform="translate(-367.186 -492.499)"/><path d="m208.771 583.9a1.168 1.168 0 0 1 -.176.253c-.917.733-1.839 1.459-2.758 2.19a.379.379 0 0 1 -.421.043c-1.092-.455-2.186-.905-3.277-1.364a.278.278 0 0 0 -.313.034q-1.683 1.212-3.374 2.413c-.038.027-.075.055-.114.08a.26.26 0 0 1 -.4-.051.279.279 0 0 1 .093-.394c.31-.225.624-.446.936-.669.908-.648 1.817-1.294 2.722-1.947a.411.411 0 0 1 .449-.054c1.084.458 2.172.905 3.257 1.361a.25.25 0 0 0 .3-.041c.842-.678 1.69-1.348 2.534-2.024a.3.3 0 0 1 .352-.063c.073.043.119.139.19.233z" transform="translate(-197.895 -578.513)"/><text font-family="SegoeUI-Semibold, Segoe UI" font-size="4" font-weight="600" transform="translate(1.48 4)"><tspan x="0" y="0">₹</tspan></text></svg>