<svg xmlns="http://www.w3.org/2000/svg" width="215.036" height="170.314" viewBox="0 0 215.036 170.314">
  <g id="Group_6042" data-name="Group 6042" transform="translate(-90.482 -121.406)">
    <circle id="Ellipse_410" data-name="Ellipse 410" cx="48.532" cy="48.532" r="48.532" transform="translate(146.361 194.656)" fill="#008083"/>
    <path id="Path_5126" data-name="Path 5126" d="M293.408,205.518c.621.5-8.446,12.7-20.248,27.232-2.516,3.053-4.929,5.98-7.148,8.672l-.977,1.186-1.049-1.083c-9.215-9.495-15.508-16.548-15.062-16.993s7.5,5.847,16.993,15.062l-2.024.106c2.178-2.725,4.547-5.685,7.018-8.776C282.713,216.391,292.787,205.016,293.408,205.518Z" transform="translate(-74.612 17.193)" fill="#fff"/>
    <path id="Path_5127" data-name="Path 5127" d="M300.921,208.137c-1.44-5.1-8.066-4.6-8.066-4.6l.182,3.546c3.83-.662,6.212,3.828,6.212,3.828Z" transform="translate(-37.087 15.5)" fill="#f78104"/>
    <path id="Path_5128" data-name="Path 5128" d="M225.088,213.9c-1.438-5.1-8.064-4.6-8.064-4.6l.182,3.546c3.83-.66,6.21,3.828,6.21,3.828Z" transform="translate(-101.827 20.423)" fill="#e0e0e0"/>
    <path id="Path_5129" data-name="Path 5129" d="M264.141,177.971c7.686,2.328,12.468-6.536,12.468-6.536l-4.675-2.664c-2.288,5.43-9.962,4.8-9.962,4.8Z" transform="translate(-63.453 -14.166)" fill="#e0e0e0"/>
    <path id="Path_5130" data-name="Path 5130" d="M241.977,178.881c-3.576.38-4,4.872-4,4.872l2.4.284c0-2.64,3.272-3.719,3.272-3.719Z" transform="translate(-83.942 -5.535)" fill="#f78104"/>
    <path id="Path_5131" data-name="Path 5131" d="M321.785,198.938c.519-3.559-3.724-5.087-3.724-5.087l-.869,2.249c2.558.651,2.79,4.093,2.79,4.093Z" transform="translate(-16.311 7.246)" fill="#e0e0e0"/>
    <path id="Path_5132" data-name="Path 5132" d="M253.507,155.951c.519-3.559-3.726-5.089-3.726-5.089l-.868,2.249c2.556.653,2.79,4.093,2.79,4.093Z" transform="translate(-74.603 -29.456)" fill="#f78104"/>
    <path id="Path_5133" data-name="Path 5133" d="M203.731,185.658c-.643,5.58,6.75,6.933,6.75,6.933l1.335-3.652c-4.436-.4-5.076-5.626-5.076-5.626Z" transform="translate(-113.21 -1.751)" fill="#f78104"/>
    <path id="Path_5134" data-name="Path 5134" d="M293.121,175.891c3.593.206,4.74-4.156,4.74-4.156l-2.315-.669c-.424,2.6-3.832,3.14-3.832,3.14Z" transform="translate(-38.062 -12.207)" fill="#f78104"/>
    <path id="Path_5135" data-name="Path 5135" d="M305.788,181.7a15.249,15.249,0,0,1-5.93,0,15.346,15.346,0,0,1,5.93,0Z" transform="translate(-31.108 -3.374)" fill="#e0e0e0"/>
    <path id="Path_5136" data-name="Path 5136" d="M304.889,177.217a15.8,15.8,0,0,1,0,6.017,15.8,15.8,0,0,1,0-6.017Z" transform="translate(-27.06 -6.955)" fill="#e0e0e0"/>
    <path id="Path_5137" data-name="Path 5137" d="M306.565,181.6a15.345,15.345,0,0,1,5.93,0,15.346,15.346,0,0,1-5.93,0Z" transform="translate(-25.382 -3.463)" fill="#e0e0e0"/>
    <path id="Path_5138" data-name="Path 5138" d="M305,188.586a15.792,15.792,0,0,1,0-6.017,15.8,15.8,0,0,1,0,6.017Z" transform="translate(-26.966 -2.386)" fill="#e0e0e0"/>
    <path id="Path_5139" data-name="Path 5139" d="M308.434,185.118c-.124.1-.7-.38-1.277-1.077s-.955-1.346-.832-1.448.7.38,1.277,1.077S308.557,185.016,308.434,185.118Z" transform="translate(-25.607 -2.377)" fill="#e0e0e0"/>
    <path id="Path_5140" data-name="Path 5140" d="M308.319,179.024c.113.111-.284.7-.888,1.307s-1.186,1.012-1.3.9.286-.7.89-1.309S308.206,178.911,308.319,179.024Z" transform="translate(-25.77 -5.429)" fill="#e0e0e0"/>
    <path id="Path_5141" data-name="Path 5141" d="M304.6,181.084c-.1.122-.653-.167-1.227-.645s-.96-.968-.858-1.09.653.165,1.227.645S304.706,180.96,304.6,181.084Z" transform="translate(-28.851 -5.159)" fill="#e0e0e0"/>
    <path id="Path_5142" data-name="Path 5142" d="M304.418,182.454c.119.109-.232.684-.78,1.287s-1.088,1-1.207.9.23-.684.779-1.286S304.3,182.346,304.418,182.454Z" transform="translate(-28.932 -2.499)" fill="#e0e0e0"/>
    <path id="Path_5143" data-name="Path 5143" d="M218.673,172.787a15.25,15.25,0,0,1-5.93,0,15.344,15.344,0,0,1,5.93,0Z" transform="translate(-105.482 -10.984)" fill="#f78104"/>
    <path id="Path_5144" data-name="Path 5144" d="M217.773,168.3a15.7,15.7,0,0,1,0,6.017,15.8,15.8,0,0,1,0-6.017Z" transform="translate(-101.435 -14.566)" fill="#f78104"/>
    <path id="Path_5145" data-name="Path 5145" d="M219.45,172.683a15.344,15.344,0,0,1,5.93,0,15.349,15.349,0,0,1-5.93,0Z" transform="translate(-99.756 -11.073)" fill="#f78104"/>
    <path id="Path_5146" data-name="Path 5146" d="M217.884,179.672a15.8,15.8,0,0,1,0-6.017,15.8,15.8,0,0,1,0,6.017Z" transform="translate(-101.34 -9.996)" fill="#f78104"/>
    <path id="Path_5147" data-name="Path 5147" d="M221.317,176.2c-.122.1-.693-.38-1.275-1.077s-.955-1.346-.832-1.448.693.38,1.277,1.077S221.44,176.1,221.317,176.2Z" transform="translate(-99.981 -9.987)" fill="#f78104"/>
    <path id="Path_5148" data-name="Path 5148" d="M221.2,170.11c.113.111-.285.7-.89,1.307s-1.186,1.012-1.3.9.284-.7.888-1.309S221.089,170,221.2,170.11Z" transform="translate(-100.145 -13.039)" fill="#f78104"/>
    <path id="Path_5149" data-name="Path 5149" d="M217.487,172.17c-.1.122-.651-.167-1.227-.645s-.958-.966-.856-1.09.653.167,1.227.645S217.589,172.046,217.487,172.17Z" transform="translate(-103.225 -12.769)" fill="#f78104"/>
    <path id="Path_5150" data-name="Path 5150" d="M217.3,173.54c.119.109-.23.684-.779,1.287s-1.09,1-1.209.9.232-.684.78-1.286S217.185,173.432,217.3,173.54Z" transform="translate(-103.307 -10.109)" fill="#f78104"/>
  </g>
</svg>
