<svg xmlns="http://www.w3.org/2000/svg" width="21.647" height="21.597" viewBox="0 0 21.647 21.597">
  <g id="Group_10" data-name="Group 10" transform="translate(-18.7 -183.7)">
    <g id="_27730623216355729804567" data-name="27730623216355729804567" transform="translate(17 182)">
      <path id="Path_18" data-name="Path 18" d="M12.4,40.7a.7.7,0,0,0-1.4,0" transform="translate(-5.85 -24.702)" fill="none" stroke="#000" stroke-linejoin="round" stroke-width="0.6"/>
      <path id="Path_19" data-name="Path 19" d="M8.417,30H8.362a4.668,4.668,0,0,0-2.52.741A3.583,3.583,0,0,0,3.665,30h-.51a.455.455,0,0,0-.253.835A3.833,3.833,0,0,1,4.2,32.31l.056.113a4.673,4.673,0,0,0-.511,1.427L2,34.2v2.1l1.75.7a4.4,4.4,0,0,0,2.45,2.45l.35,1.75H8.3l.35-1.75h1.4l.35,1.75h1.75l.35-1.75a5.836,5.836,0,0,0,2.1-4.482,4.951,4.951,0,0,0-1.549-3.6" transform="translate(0 -18.201)" fill="none" stroke="#000" stroke-linejoin="round" stroke-width="0.6"/>
      <path id="Path_20" data-name="Path 20" d="M37.775,43.07l2.009-.223a.977.977,0,0,0,.87-.971h0A.875.875,0,0,0,39.778,41h0a.875.875,0,0,0-.875.875h0a1.809,1.809,0,0,0,1.137,1.68l.612.245" transform="translate(-23.256 -25.352)" fill="none" stroke="#000" stroke-linejoin="round" stroke-width="0.6"/>
      <path id="Path_21" data-name="Path 21" d="M55.849,2H52V6.9h3.849" transform="translate(-32.503)" fill="none" stroke="#000" stroke-linejoin="round" stroke-width="0.6"/>
      <path id="Path_22" data-name="Path 22" d="M33.148,3h-4.9a3.889,3.889,0,0,0-1.956.529L24.209,4.744A2.437,2.437,0,0,0,23,6.849h0V7.9" transform="translate(-13.651 -0.65)" fill="none" stroke="#000" stroke-linejoin="round" stroke-width="0.6"/>
      <path id="Path_23" data-name="Path 23" d="M29,11.75V11.4a.971.971,0,0,1,.665-.921l1.194-.4a1.576,1.576,0,0,1,.5-.08h0a.8.8,0,0,1,.8.8h0a.8.8,0,0,1-.148.462l-1.325,1.855a1.483,1.483,0,0,0-.276.863h0a.924.924,0,0,0,.924.924h0a.924.924,0,0,0,.752-.387l.773-1.083a4.846,4.846,0,0,1,1.776-1.518h0a4.848,4.848,0,0,1,2.168-.512h.256" transform="translate(-17.551 -5.2)" fill="none" stroke="#000" stroke-linejoin="round" stroke-width="0.6"/>
      <path id="Path_24" data-name="Path 24" d="M29,29v1.05" transform="translate(-17.551 -17.551)" fill="none" stroke="#000" stroke-linejoin="round" stroke-width="0.6"/>
      <path id="Path_25" data-name="Path 25" d="M24.66,15.731a3.492,3.492,0,1,0,1.195,1.687" transform="translate(-11.079 -8.458)" fill="none" stroke="#000" stroke-linejoin="round" stroke-width="0.6"/>
      <path id="Path_26" data-name="Path 26" d="M27,23.1a.7.7,0,1,0,.7-.7.7.7,0,1,1,.7-.7" transform="translate(-16.251 -12.351)" fill="none" stroke="#000" stroke-linejoin="round" stroke-width="0.6"/>
      <path id="Path_27" data-name="Path 27" d="M26.022,18.565a2.446,2.446,0,1,0,.866,1.54" transform="translate(-13.016 -10.405)" fill="none" stroke="#000" stroke-linejoin="round" stroke-width="0.6"/>
      <path id="Path_28" data-name="Path 28" d="M29,19.05V18" transform="translate(-17.551 -10.401)" fill="none" stroke="#000" stroke-linejoin="round" stroke-width="0.6"/>
    </g>
  </g>
</svg>
