<svg xmlns="http://www.w3.org/2000/svg" width="217.721" height="175.347" viewBox="0 0 217.721 175.347">
  <g id="Group_5522" data-name="Group 5522" transform="translate(-85.923 -182.627)">
    <circle id="Ellipse_363" data-name="Ellipse 363" cx="3.58" cy="3.58" r="3.58" transform="translate(237.461 243.385)" fill="#008083"/>
    <circle id="Ellipse_364" data-name="Ellipse 364" cx="3.58" cy="3.58" r="3.58" transform="translate(159.964 243.385)" fill="#008083"/>
    <path id="Path_4195" data-name="Path 4195" d="M265.77,244.084H249.142a1.955,1.955,0,0,1-1.942-1.942h0a1.955,1.955,0,0,1,1.942-1.942H265.77a1.955,1.955,0,0,1,1.942,1.942h0A1.955,1.955,0,0,1,265.77,244.084Z" transform="translate(-54.101 24.425)" fill="#008083"/>
    <path id="Path_4196" data-name="Path 4196" d="M111.214,191.121A1.217,1.217,0,0,1,110,189.907v-6.493a1.214,1.214,0,0,1,2.427,0v6.493A1.217,1.217,0,0,1,111.214,191.121Z" transform="translate(-0.163 47.227)" fill="none" stroke="#008083" stroke-width="4"/>
    <path id="Path_4197" data-name="Path 4197" d="M328.39,321.889a1.3,1.3,0,0,1,.182-1.881l5.522-5.522a1.354,1.354,0,0,1,1.881-.182,1.3,1.3,0,0,1-.182,1.881l-5.522,5.522A1.3,1.3,0,0,1,328.39,321.889Z" transform="translate(-85.893 -4.588)" fill="#008083" stroke="#008083" stroke-width="1"/>
    <path id="Path_4198" data-name="Path 4198" d="M335.89,321.949a1.354,1.354,0,0,1-1.881-.182l-5.4-5.583a1.239,1.239,0,1,1,1.76-1.7l5.4,5.583A1.347,1.347,0,0,1,335.89,321.949Z" transform="translate(-85.928 -4.588)" fill="#008083" stroke="#008083" stroke-width="1"/>
    <path id="Path_4199" data-name="Path 4199" d="M90.989,200.558a1.239,1.239,0,0,1-1.7.182l-4.976-4.127a1.208,1.208,0,1,1,1.517-1.881l4.976,4.127A1.184,1.184,0,0,1,90.989,200.558Z" transform="translate(10.109 42.403)" fill="none" stroke="#008083" stroke-width="4"/>
    <path id="Path_4200" data-name="Path 4200" d="M82.818,221.553a1.217,1.217,0,0,1-1.153,1.274l-6.493.3a1.215,1.215,0,0,1-.121-2.427l6.493-.3A1.221,1.221,0,0,1,82.818,221.553Z" transform="translate(14.033 32.209)" fill="none" stroke="#008083" stroke-width="4"/>
    <circle id="Ellipse_365" data-name="Ellipse 365" cx="5.644" cy="5.644" r="5.644" transform="translate(223.018 330.167)" fill="none" stroke="#008083" stroke-width="4"/>
    <circle id="Ellipse_366" data-name="Ellipse 366" cx="5.644" cy="5.644" r="5.644" transform="translate(133.384 305.042)" fill="none" stroke="#008083" stroke-width="4"/>
    <path id="Path_4201" data-name="Path 4201" d="M165.4,360.214c0-.668.728-1.214,1.639-1.214h8.86c.91,0,1.639.546,1.639,1.214s-.728,1.214-1.639,1.214h-8.86C166.128,361.427,165.4,360.881,165.4,360.214Z" transform="translate(-21.942 -22.279)" fill="#008083" stroke="#008083" stroke-width="1"/>
    <path id="Path_4202" data-name="Path 4202" d="M174.714,363.237c-.668,0-1.214-.728-1.214-1.639v-8.86c0-.91.546-1.639,1.214-1.639s1.214.728,1.214,1.639v8.86A1.558,1.558,0,0,1,174.714,363.237Z" transform="translate(-25.126 -19.173)" fill="#008083" stroke="#008083" stroke-width="1"/>
    <path id="Path_4203" data-name="Path 4203" d="M114.2,357.325s17.538-6.251,14.686-8.011a23.021,23.021,0,0,0-7.222-2.427S132.1,342.7,132.77,342.7" transform="translate(-1.813 -15.871)" fill="none" stroke="#008083" stroke-linecap="round" stroke-width="4"/>
    <path id="Path_4204" data-name="Path 4204" d="M350.77,363.525s-17.538-6.251-14.686-8.011a23.022,23.022,0,0,1,7.222-2.427S332.867,348.9,332.2,348.9" transform="translate(-87.518 -18.309)" fill="none" stroke="#008083" stroke-linecap="round" stroke-width="4"/>
    <path id="Path_4205" data-name="Path 4205" d="M208.13,293.2s-14.747,28.28-10.2,27.855,23.3-.789,23.3-.789l-12.077,32.649,44.24-40.822,11.531-10.64H236.471l4.066-8.253Z" transform="translate(-34.39 3.589)" fill="#008083" stroke="#008083" stroke-width="4"/>
    <path id="Path_4206" data-name="Path 4206" d="M331.458,190.379h0c-6.372,16.567-16.446,24.275-25.246,27.794a38.216,38.216,0,0,1-17.114,2.67,5.035,5.035,0,0,1-1.032-.182c44.483-56.438-15.354-64.388-16.749-62.871-27.248-59.169-83.626-29.8-83.626-29.8L186.6,125.93c15.9-13.9,38.718-19.3,55.589-16.81,29.372,4.309,48.367,40.72,48.367,40.72s17.3-10.8,35.623,17.781C331.64,176.118,332.672,183.825,331.458,190.379Z" transform="translate(-30.277 76.188)" fill="#008083" opacity="0.24"/>
    <path id="Path_4207" data-name="Path 4207" d="M288.47,190.34h0c-2.913,15.414-18.267,24.7-18.267,24.7a22.579,22.579,0,0,1-6.979,3.1,88.147,88.147,0,0,1-17.114,2.67c-19.42,1.4-42.056-.728-42.056-.728s-61.839.728-84.354,1.214c-22.454.485-43.33.607-42.42-11.106s17.781-6.311,17.114-7.222c-12.259-41.874,29.858-32.467,30.4-31.921-1.032-19.905,6.979-34.895,18.813-45.211,15.9-13.9,38.718-19.3,55.589-16.81,29.372,4.309,48.367,40.72,48.367,40.72s17.3-10.8,35.623,17.781C288.652,176.079,289.683,183.786,288.47,190.34Z" transform="translate(12.712 76.228)" fill="none" stroke="#008083" stroke-width="4"/>
  </g>
</svg>
