<svg xmlns="http://www.w3.org/2000/svg" width="18.257" height="14.474" viewBox="0 0 18.257 14.474">
  <g id="Group_6058" data-name="Group 6058" transform="translate(-16 -404)">
    <path id="Path_5829" data-name="Path 5829" d="M-499.5,108.666a3.344,3.344,0,0,1,.138-.383,1.356,1.356,0,0,1,1.276-.786c.325-.006.651,0,.989,0,.044-.4.086-.783.127-1.166.049-.449.09-.9.146-1.346a1.371,1.371,0,0,1,1.491-1.16q3.081.258,6.162.519,2.886.241,5.772.477c.331.028.664.047.993.1a1.337,1.337,0,0,1,1.161,1.415c-.032.629-.1,1.255-.151,1.883q-.134,1.6-.269,3.2c-.085,1.012-.163,2.025-.256,3.036a1.359,1.359,0,0,1-1.362,1.209c-.182,0-.364-.022-.567-.035,0,.37.007.725,0,1.08a2.645,2.645,0,0,1-.062.6,1.351,1.351,0,0,1-1.253.992c-.065,0-.131,0-.2,0h-12.622a1.376,1.376,0,0,1-1.492-1.127.323.323,0,0,0-.023-.048Zm14.937,3.859h-14.223v.205q0,2.032,0,4.064a.682.682,0,0,0,.783.784h12.657a.687.687,0,0,0,.783-.787q0-2.032,0-4.064Zm-11.811-5.03h.245q5.367,0,10.733,0a2.213,2.213,0,0,1,.495.045,1.372,1.372,0,0,1,1.051,1.409q0,2.862,0,5.723v.223c.2.017.362.038.528.044a.648.648,0,0,0,.7-.615q.123-1.411.241-2.823.213-2.539.425-5.079a.686.686,0,0,0-.705-.826c-.918-.072-1.835-.15-2.753-.227l-3.658-.307-3.232-.271c-1.03-.086-2.06-.176-3.09-.258a.644.644,0,0,0-.721.585c-.05.371-.086.743-.126,1.115C-496.289,106.648-496.33,107.06-496.375,107.5Zm-2.4,2.827v1.465h14.193v-1.465Zm14.206-.728c0-.271.014-.52,0-.768a.649.649,0,0,0-.611-.613,1.517,1.517,0,0,0-.16,0H-498.02a1.186,1.186,0,0,0-.23.018.575.575,0,0,0-.507.484,6.769,6.769,0,0,0-.009.882Z" transform="translate(515.5 300.181)"/>
    <path id="Path_5830" data-name="Path 5830" d="M-294.182,312.19c-.608,0-1.215,0-1.823,0-.347,0-.482-.134-.483-.478q0-1.169,0-2.338c0-.321.138-.462.458-.463q1.843,0,3.685,0c.326,0,.466.149.467.478q0,1.159,0,2.318c0,.341-.14.481-.482.482C-292.967,312.192-293.574,312.19-294.182,312.19Zm-1.5-2.474v1.666h3v-1.666Z" transform="translate(312.489 100.091)"/>
  </g>
</svg>
