<svg xmlns="http://www.w3.org/2000/svg" width="243.824" height="248.949" viewBox="0 0 243.824 248.949">
  <g id="Group_5422" data-name="Group 5422" transform="translate(0.002 0)">
    <g id="freepik--background-simple--inject-2">
      <path id="Path_5158" data-name="Path 5158" d="M225.079,119.13C233.766,63.571,187.4,7.573,126.558.614c-.757-.084-1.519-.167-2.276-.24C81.759-3.85,42.89,28.628,31.775,53.4s-40.2,48.35-29.422,94.261,40.069,70.386,108.738,77.627,81.334-12.4,99.56-55.3A219.475,219.475,0,0,0,225.079,119.13Z" fill="#008083"/>
      <path id="Path_5159" data-name="Path 5159" d="M225.079,119.13C233.766,63.571,187.4,7.573,126.558.614c-.757-.084-1.519-.167-2.276-.24C81.759-3.85,42.89,28.628,31.775,53.4s-40.2,48.35-29.422,94.261,40.069,70.386,108.738,77.627,81.334-12.4,99.56-55.3A219.475,219.475,0,0,0,225.079,119.13Z" fill="#fff" opacity="0.91" style="mix-blend-mode: normal;isolation: isolate"/>
    </g>
    <g id="freepik--Floor--inject-2">
      <path id="Path_5160" data-name="Path 5160" d="M171,139.2a.293.293,0,0,1-.141-.042c-43.332-27.1-81.553-28.714-105.981-25.263-26.5,3.717-42.962,13.976-43.123,14.1a.256.256,0,0,1-.354-.074l-.006-.01a.26.26,0,0,1,.078-.36c.167-.1,16.706-10.442,43.332-14.153a143.224,143.224,0,0,1,47.509,1.383c19.875,3.889,39.678,11.95,58.869,23.953a.256.256,0,0,1,.09.35l-.006.01A.261.261,0,0,1,171,139.2Z" fill="#263238"/>
      <path id="Path_5161" data-name="Path 5161" d="M99.937,132.443c-4.485-3.686,8.875-17.886,8.875-17.886-5.847-1.044-5.054-.835-5.054-.835s-15.2,14.66-15.359,23.013,23.175,16.132,23.175,16.132l8.755-3.842,7.648-2.835S104.43,136.129,99.937,132.443Z" fill="#008083"/>
      <path id="Path_5162" data-name="Path 5162" d="M111.574,153.117h-.084c-.961-.318-23.493-7.956-23.352-16.383.151-8.071,13.851-21.65,15.323-23.081.026-.11.052-.177.35-.167h0c.522,0,1.775.251,5.028.83a.266.266,0,0,1,.141.439c-.1.1-10.029,10.729-9.705,15.777a2.308,2.308,0,0,0,.82,1.723c4.406,3.623,27.738,13.574,27.973,13.7a.262.262,0,0,1,.162.245.276.276,0,0,1-.172.24l-7.633,2.824L111.7,153.1A.233.233,0,0,1,111.574,153.117Zm-7.716-39.156c-1.128,1.107-15.046,14.91-15.2,22.752s21.285,15.292,22.9,15.845l8.661-3.8,7.05-2.611c-3.785-1.624-23.384-10.133-27.5-13.511a2.809,2.809,0,0,1-1.008-2.088c-.313-4.8,7.753-13.887,9.517-15.814-3.127-.559-4.114-.715-4.417-.757Z" fill="#263238"/>
      <path id="Path_5163" data-name="Path 5163" d="M87.5,168.91a.255.255,0,0,1-.188-.078.261.261,0,0,1,0-.369h0c.141-.131,14.362-13.464,39.725-22.308a143.037,143.037,0,0,1,46.867-7.883h.381c20.136,0,41,4.051,62.028,12.044a.262.262,0,0,1-.181.492h0c-47.765-18.158-85.579-12.284-108.895-4.177-25.268,8.8-39.422,22.068-39.563,22.2A.251.251,0,0,1,87.5,168.91Z" fill="#263238"/>
      <path id="Path_5164" data-name="Path 5164" d="M238.564,218.7a.265.265,0,0,1-.188-.078c-.266-.277-27.336-27.9-71.723-43.4-46.611-16.263-121.518-3.409-152.446,18.079a.263.263,0,0,1-.3-.433h0c15.756-10.964,42.607-19.714,71.827-23.467,30.578-3.931,60.143-1.984,81.1,5.33,44.512,15.532,71.655,43.244,71.926,43.52a.261.261,0,0,1,0,.369h0A.274.274,0,0,1,238.564,218.7Z" fill="#263238"/>
      <path id="Path_5165" data-name="Path 5165" d="M66.054,205.648c-5.461,1.921-10.306,3.576-14.618,5.007C66.9,217.886,86.467,222.7,111.109,225.3c5.44.574,10.525.976,15.292,1.216,31.45-22.971,45.844-49.6,45.844-49.6a115.93,115.93,0,0,0-38.479-8.548C133.747,168.377,107.523,191.077,66.054,205.648Z" fill="#008083"/>
      <path id="Path_5166" data-name="Path 5166" d="M85.107,248.949a.256.256,0,0,1-.245-.167.262.262,0,0,1,.148-.338h0A174.57,174.57,0,0,0,151.094,204.3c12.968-13.809,19.766-25.483,20.768-27.263a117.767,117.767,0,0,0-38.028-8.4c-1.629,1.378-27.764,23.227-67.7,37.255-40.618,14.268-47.451,14.1-56.1,13.835-1.143-.031-2.323-.063-3.618-.063a.261.261,0,1,1,0-.522c1.3,0,2.485.031,3.655.063,8.6.24,15.386.428,55.914-13.809,40.946-14.383,67.348-36.994,67.6-37.219a.28.28,0,0,1,.183-.068c19.129.663,36.1,7.366,38.472,8.552h.078a.657.657,0,0,1,.209.136.257.257,0,0,1-.047.277.161.161,0,0,1-.068.047c-.7,1.263-7.518,13.229-20.914,27.492-13.01,13.856-35.068,32.786-66.3,44.283Z" fill="#263238"/>
      <path id="Path_5167" data-name="Path 5167" d="M185.145,182.3c9.773,3.952,20.763-5.633,19.98-15.845-.757-9.919-13.182-15.292-20.982-18.57-20.69-8.693-34.18-7.194-34.18-7.194s20.982-3.895,42.873-1.2c18.946,2.334,38.665,13.8,46.684,31.706,4.312,9.627,4.485,20.319,3.655,30.662-.929,11.7-4.615,16.571-4.615,16.571S212.162,197.185,185.145,182.3Z" fill="#008083"/>
      <path id="Path_5168" data-name="Path 5168" d="M238.564,218.7a.258.258,0,0,1-.162-.057c-.266-.214-26.694-21.4-53.382-36.1a.261.261,0,0,1,.224-.47c4.177,1.692,8.875.961,12.948-2a15.712,15.712,0,0,0,6.677-13.574c-.762-9.925-13.292-15.219-20.826-18.372-20.361-8.567-33.935-7.194-34.055-7.179a.266.266,0,0,1-.287-.224.261.261,0,0,1,.214-.292c.209-.042,21.275-3.874,42.951-1.2a66.384,66.384,0,0,1,27.55,10.034c8.839,5.743,15.527,13.282,19.343,21.8,4.615,10.311,4.391,21.87,3.655,30.8-.929,11.642-4.516,16.508-4.667,16.706a.263.263,0,0,1-.178.1Zm-51.215-35.454c24.715,13.924,48.616,32.792,51.163,34.812.7-1.075,3.608-6.087,4.412-16.21.71-8.875.935-20.335-3.655-30.536-7.309-16.346-26-29.027-46.465-31.549-16.143-1.989-31.956-.355-38.989.611,5.45.162,16.325,1.352,30.437,7.283,7.612,3.2,20.361,8.562,21.139,18.795a16.214,16.214,0,0,1-6.886,14.044,14.254,14.254,0,0,1-11.157,2.736Z" fill="#263238"/>
    </g>
    <g id="freepik--Flags--inject-2">
      <path id="Path_5169" data-name="Path 5169" d="M150.334,144.508a.784.784,0,0,1-.783-.767L147.536,43.45a.783.783,0,1,1,1.566-.031h0l2.015,100.291a.778.778,0,0,1-.755.8h-.029Z" fill="#263238"/>
      <path id="Path_5170" data-name="Path 5170" d="M161.658,56.167l9.371,5.325-3.2,4.563,2.334,5.91-12.472-3.91Z" fill="#008083"/>
      <path id="Path_5171" data-name="Path 5171" d="M170.173,72.226a.2.2,0,0,1-.078,0l-12.452-3.921a.251.251,0,0,1-.151-.131.233.233,0,0,1,0-.2l3.963-11.888a.271.271,0,0,1,.151-.162.281.281,0,0,1,.224,0l9.371,5.325a.267.267,0,0,1,.125.172.254.254,0,0,1-.042.2l-3.132,4.448,2.281,5.785a.26.26,0,0,1-.052.271A.257.257,0,0,1,170.173,72.226Zm-12.138-4.338,11.694,3.655-2.13-5.4a.273.273,0,0,1,.026-.245l3.033-4.328-8.839-5.017Z" fill="#263238"/>
      <path id="Path_5172" data-name="Path 5172" d="M161.188,66.744l-3.493,1.31,3.963-11.888Z" fill="#263238"/>
      <path id="Path_5173" data-name="Path 5173" d="M157.7,68.339a.257.257,0,0,1-.261-.251.251.251,0,0,1,.016-.094l3.963-11.888a.265.265,0,0,1,.522.094h0l-.47,10.582a.256.256,0,0,1-.167.23l-3.493,1.31A.316.316,0,0,1,157.7,68.339Zm3.6-10.321-3.2,9.6,2.819-1.044Z" fill="#263238"/>
      <path id="Path_5174" data-name="Path 5174" d="M148.689,45.036l13.626,5.8-1.128,15.908-12.159-4.4Z" fill="#008083"/>
      <path id="Path_5175" data-name="Path 5175" d="M161.188,67H161.1L148.935,62.6a.271.271,0,0,1-.172-.24l-.334-17.307a.259.259,0,0,1,.115-.219.266.266,0,0,1,.251,0l13.626,5.758a.252.252,0,0,1,.157.261L161.45,66.775a.246.246,0,0,1-.115.2A.251.251,0,0,1,161.188,67Zm-11.9-4.85,11.668,4.229L162.047,51l-13.088-5.565Z" fill="#263238"/>
      <path id="Path_5176" data-name="Path 5176" d="M99.3,116.075a.522.522,0,0,1-.522-.522h0L97.6,73.468a.522.522,0,1,1,1.044-.031l1.169,42.1a.522.522,0,0,1-.522.522h0Z" fill="#263238"/>
      <path id="Path_5177" data-name="Path 5177" d="M103.786,78.757l4.057,2.71-1.43,1.42,1.488,2.24-5.738-1.368Z" fill="#008083"/>
      <path id="Path_5178" data-name="Path 5178" d="M107.9,85.387h-.063L102.1,84.024a.261.261,0,0,1-.194-.314.025.025,0,0,1,.006-.02l1.624-5.007a.252.252,0,0,1,.162-.162.274.274,0,0,1,.23.026l4.051,2.71a.266.266,0,0,1,.068.37h0a.385.385,0,0,1-.026.031l-1.274,1.269,1.368,2.088a.227.227,0,0,1-.209.371Zm-5.4-1.817,4.819,1.149L106.2,83.035a.261.261,0,0,1,.031-.334l1.2-1.2-3.5-2.339Z" fill="#263238"/>
      <path id="Path_5179" data-name="Path 5179" d="M103.624,83.2l-1.462.559,1.624-5Z" fill="#263238"/>
      <path id="Path_5180" data-name="Path 5180" d="M102.162,84a.252.252,0,0,1-.177-.068.267.267,0,0,1-.068-.271l1.624-5.007a.262.262,0,0,1,.292-.172.256.256,0,0,1,.214.266l-.162,4.443a.256.256,0,0,1-.167.235l-1.462.559A.3.3,0,0,1,102.162,84Zm1.295-3.4-.877,2.7.794-.3Z" fill="#263238"/>
      <path id="Path_5181" data-name="Path 5181" d="M98.309,74.126l5.785,2.511-.47,6.563L98.5,81.388Z" fill="#008083"/>
      <path id="Path_5182" data-name="Path 5182" d="M103.624,83.482a.237.237,0,0,1-.084,0L98.418,81.67a.25.25,0,0,1-.172-.235l-.2-7.267a.246.246,0,0,1,.115-.219.255.255,0,0,1,.251,0L104.2,76.46a.251.251,0,0,1,.157.256l-.47,6.563a.265.265,0,0,1-.115.2A.278.278,0,0,1,103.624,83.482Zm-4.861-2.255,4.626,1.634.433-6.035L98.6,74.549Z" fill="#263238"/>
      <path id="Path_5183" data-name="Path 5183" d="M134.468,121.39a.266.266,0,0,1-.261-.256l-.861-27.289a.261.261,0,0,1,.251-.266.251.251,0,0,1,.27.228h0v.022l.861,27.294a.261.261,0,0,1-.25.271h-.011Z" fill="#263238"/>
      <path id="Path_5184" data-name="Path 5184" d="M137.768,97.74l2.981,1.994-1.049,1.044,1.1,1.645-4.224-1Z" fill="#008083"/>
      <path id="Path_5185" data-name="Path 5185" d="M140.8,102.689h-.057l-4.229-1a.288.288,0,0,1-.167-.125.271.271,0,0,1,0-.209l1.2-3.686a.267.267,0,0,1,.167-.167.261.261,0,0,1,.23.031l2.981,1.994a.247.247,0,0,1,.115.193.278.278,0,0,1-.073.209l-.9.893.976,1.472a.263.263,0,0,1,0,.292A.256.256,0,0,1,140.8,102.689Zm-3.889-1.457,3.3.783-.731-1.091a.267.267,0,0,1,.037-.334l.825-.82L137.9,98.146Z" fill="#263238"/>
      <path id="Path_5186" data-name="Path 5186" d="M137.647,101.008l-1.075.412,1.2-3.681Z" fill="#008083"/>
      <path id="Path_5187" data-name="Path 5187" d="M136.573,101.681a.267.267,0,0,1-.183-.073.256.256,0,0,1-.068-.266l1.2-3.686a.265.265,0,0,1,.522.089h0l-.12,3.273a.265.265,0,0,1-.167.235l-1.076.412Zm1.075-.673-.209-1.41-.449,1.383.4-.157Z" fill="#263238"/>
      <path id="Path_5188" data-name="Path 5188" d="M133.732,94.331l4.26,1.848-.345,4.829-3.769-1.331Z" fill="#008083"/>
      <path id="Path_5189" data-name="Path 5189" d="M137.647,101.27h-.086l-3.769-1.331a.266.266,0,0,1-.162-.271l-.146-5.346a.276.276,0,0,1,.115-.224.266.266,0,0,1,.251,0l4.26,1.848a.251.251,0,0,1,.157.256l-.345,4.834a.261.261,0,0,1-.115.2A.3.3,0,0,1,137.647,101.27Zm-3.5-1.78,3.279,1.159.308-4.307-3.717-1.608Z" fill="#263238"/>
      <path id="Path_5190" data-name="Path 5190" d="M174.777,185.658h0a1.043,1.043,0,0,1-1.044-1.044h0L174.9,17.571a1.043,1.043,0,0,1,1.044-1.044h0a1.043,1.043,0,0,1,1.044,1.044h0l-1.169,167.064A1.044,1.044,0,0,1,174.777,185.658Z" fill="#263238"/>
      <path id="Path_5191" data-name="Path 5191" d="M193.46,35.153l12.666,9.1-4.72,4.391,4.521,7.325-16.075-2.083Z" fill="#008083"/>
      <path id="Path_5192" data-name="Path 5192" d="M205.924,56.229H205.9l-16.075-2.088a.248.248,0,0,1-.178-.1.274.274,0,0,1-.047-.2L193.2,35.1a.264.264,0,0,1,.312-.206.281.281,0,0,1,.1.044l12.666,9.11a.254.254,0,0,1,.11.193.26.26,0,0,1-.083.209L201.739,48.7l4.412,7.121a.277.277,0,0,1-.1.38.272.272,0,0,1-.127.038Zm-15.761-2.56,15.255,1.973-4.234-6.855a.261.261,0,0,1,.042-.329l4.485-4.177L193.635,35.6Z" fill="#263238"/>
      <path id="Path_5193" data-name="Path 5193" d="M198.866,53.06l-9.016.83,3.61-18.737Z" fill="#263238"/>
      <path id="Path_5194" data-name="Path 5194" d="M189.849,54.152a.265.265,0,0,1-.26-.27.208.208,0,0,1,0-.043l3.6-18.737a.266.266,0,0,1,.245-.209.262.262,0,0,1,.261.183l5.414,17.907a.266.266,0,0,1-.037.224.274.274,0,0,1-.193.115l-9.011.83ZM193.5,36.24,190.168,53.6l8.353-.767Z" fill="#263238"/>
      <path id="Path_5195" data-name="Path 5195" d="M176.422,19.747l24.114,12.08L198.865,53.06l-22.6-10.055Z" fill="#008083"/>
      <path id="Path_5196" data-name="Path 5196" d="M198.887,53.322a.291.291,0,0,1-.11,0L176.161,43.24A.266.266,0,0,1,176,43l.157-23.253a.263.263,0,0,1,.125-.224.266.266,0,0,1,.251,0L200.657,31.6a.256.256,0,0,1,.141.256l-1.671,21.233a.247.247,0,0,1-.24.229ZM176.534,42.833l22.1,9.846,1.634-20.69-23.587-11.82Z" fill="#263238"/>
    </g>
    <g id="freepik--Clouds--inject-2">
      <path id="Path_5197" data-name="Path 5197" d="M112.63,24.457H65.544a.252.252,0,0,1-.224-.131.26.26,0,0,1,0-.256c.089-.157,2.135-3.8,5.059-5.471,1.8-1.044,4.735-.256,7.085.365,1.389.365,2.824.741,3.232.47a3.371,3.371,0,0,0,.773-1.3c.773-1.733,2.088-4.636,7.137-6.119a8.879,8.879,0,0,1,6.4.788c1.65.7,2.73,1.154,3.837.052a19.793,19.793,0,0,0,1.436-1.718,26.844,26.844,0,0,1,2.741-3.132.262.262,0,1,1,.36.381,25.986,25.986,0,0,0-2.689,3.08,19.5,19.5,0,0,1-1.483,1.765c-1.347,1.347-2.767.752-4.406.057a8.353,8.353,0,0,0-6.046-.767c-4.84,1.415-6.02,4.072-6.787,5.832A3.5,3.5,0,0,1,81,19.872c-.6.4-1.879.068-3.655-.4-2.261-.6-5.08-1.342-6.693-.412a15.181,15.181,0,0,0-4.631,4.881h46.627a.259.259,0,1,1,.032.517h-.053Z" fill="#263238"/>
      <path id="Path_5198" data-name="Path 5198" d="M146.946,24.457H117.924a.261.261,0,0,1,0-.522h28.684c-.392-1.378-2.135-6.787-5.952-8.17-3.1-1.128-4.7.642-5.894,1.937a4.241,4.241,0,0,1-1.378,1.18,1.565,1.565,0,0,1-1.384,0,1.29,1.29,0,0,1-.6-.835c-.047-.1-6.265-15.051-16.665-14.247a19.646,19.646,0,0,0-8.228,2.271.261.261,0,0,1-.355-.1.256.256,0,0,1,.091-.35h.008a20.186,20.186,0,0,1,8.442-2.339c10.817-.825,17.145,14.472,17.229,14.618a.821.821,0,0,0,.36.522,1.142,1.142,0,0,0,.94-.037,4.179,4.179,0,0,0,1.18-1.044c1.206-1.321,3.028-3.32,6.458-2.088,4.62,1.681,6.291,8.572,6.359,8.875a.257.257,0,0,1-.047.219A.266.266,0,0,1,146.946,24.457Z" fill="#263238"/>
      <path id="Path_5199" data-name="Path 5199" d="M217.066,89.482H186.817a.258.258,0,0,1-.224-.386,9.077,9.077,0,0,1,2.84-3.07c1.044-.59,2.678-.157,4,.193a4.329,4.329,0,0,0,1.686.277,1.954,1.954,0,0,0,.386-.668,5.565,5.565,0,0,1,4.015-3.446,5.024,5.024,0,0,1,3.613.439c.929.392,1.462.585,1.989.052a10.28,10.28,0,0,0,.783-.935,13.321,13.321,0,0,1,1.859-2.047.267.267,0,0,1,.371,0,.256.256,0,0,1,0,.362h0a13.042,13.042,0,0,0-1.791,1.973,11.11,11.11,0,0,1-.825.987c-.8.8-1.66.439-2.563.057a4.513,4.513,0,0,0-3.263-.418,5.082,5.082,0,0,0-3.686,3.132,1.931,1.931,0,0,1-.574.893c-.376.251-1.1.057-2.088-.209-1.227-.324-2.757-.726-3.608-.24a7.914,7.914,0,0,0-2.4,2.48H217.1a.261.261,0,0,1,0,.522h0Z" fill="#263238"/>
      <path id="Path_5200" data-name="Path 5200" d="M231.778,89.481H219.535a.261.261,0,1,1,0-.522h11.9c-.282-.924-1.232-3.581-3.169-4.286a2.582,2.582,0,0,0-3.132,1.044,2.415,2.415,0,0,1-.809.684.986.986,0,0,1-.861,0,.825.825,0,0,1-.386-.522c0-.037-3.393-8.228-9.084-7.779a11.857,11.857,0,0,0-3.54.783.255.255,0,0,1-.336-.134v-.007a.255.255,0,0,1,.134-.336h.007a12.443,12.443,0,0,1,3.7-.825c6.035-.465,9.476,7.8,9.617,8.155a.381.381,0,0,0,.151.235.561.561,0,0,0,.418-.031,2.167,2.167,0,0,0,.606-.522,3.094,3.094,0,0,1,3.7-1.175c2.61.95,3.55,4.814,3.587,4.981a.257.257,0,0,1-.047.219A.267.267,0,0,1,231.778,89.481Z" fill="#263238"/>
      <path id="Path_5201" data-name="Path 5201" d="M129.689,103.061H103.347a.272.272,0,0,1-.23-.131.264.264,0,0,1,0-.261,5.394,5.394,0,0,1,1.7-1.838,3.534,3.534,0,0,1,2.428.1,3.24,3.24,0,0,0,.914.172,1.54,1.54,0,0,0,.177-.339,3.34,3.34,0,0,1,2.422-2.088,3.006,3.006,0,0,1,2.188.261c.574.24.8.3,1.044.052a5.191,5.191,0,0,0,.449-.522,5.984,5.984,0,0,1,4.8-2.61c3.655-.277,5.665,4.636,5.743,4.845v.047c.042.047.089.052.183,0a1.5,1.5,0,0,0,.313-.292,1.917,1.917,0,0,1,2.281-.72c1.566.58,2.146,2.9,2.172,3a.265.265,0,0,1-.052.224A.255.255,0,0,1,129.689,103.061Zm-25.879-.522h25.53a3.664,3.664,0,0,0-1.751-2.3,1.413,1.413,0,0,0-1.718.58,1.572,1.572,0,0,1-.522.433.7.7,0,0,1-.6,0,.628.628,0,0,1-.277-.36c-.12-.292-2.088-4.74-5.221-4.506a5.456,5.456,0,0,0-4.427,2.412,6.022,6.022,0,0,1-.491.59c-.522.522-1.081.287-1.624.057a2.551,2.551,0,0,0-1.838-.24,2.855,2.855,0,0,0-2.088,1.791,1.173,1.173,0,0,1-.376.564c-.261.178-.684.063-1.321-.1a3.409,3.409,0,0,0-2.036-.151,4.215,4.215,0,0,0-1.244,1.237Z" fill="#263238"/>
      <path id="Path_5202" data-name="Path 5202" d="M38.427,63.706H12.068a.272.272,0,0,1-.224-.131.264.264,0,0,1,0-.261,5.386,5.386,0,0,1,1.707-1.838,3.534,3.534,0,0,1,2.428.1,3.241,3.241,0,0,0,.914.172,1.544,1.544,0,0,0,.178-.339,3.34,3.34,0,0,1,2.422-2.088,3.006,3.006,0,0,1,2.188.261c.574.24.8.3,1.044.052a5.3,5.3,0,0,0,.449-.522,5.984,5.984,0,0,1,4.8-2.61c3.655-.277,5.665,4.636,5.743,4.845a.124.124,0,0,1,0,.047c.042.047.094.052.183,0a1.26,1.26,0,0,0,.313-.292,1.914,1.914,0,0,1,2.287-.715c1.566.574,2.146,2.892,2.172,2.992a.265.265,0,0,1-.052.224A.26.26,0,0,1,38.427,63.706Zm-25.882-.522h25.54a3.655,3.655,0,0,0-1.749-2.308,1.414,1.414,0,0,0-1.718.579,1.478,1.478,0,0,1-.522.433.708.708,0,0,1-.6,0,.6.6,0,0,1-.271-.36c-.125-.292-2.047-4.74-5.221-4.506a5.444,5.444,0,0,0-4.427,2.412,5.965,5.965,0,0,1-.522.59c-.522.522-1.075.287-1.618.057a2.556,2.556,0,0,0-1.838-.24,2.855,2.855,0,0,0-2.088,1.791,1.173,1.173,0,0,1-.376.564c-.261.178-.684.063-1.326-.1s-1.566-.418-2.031-.151A4.233,4.233,0,0,0,12.545,63.184Z" fill="#263238"/>
    </g>
    <g id="freepik--Character--inject-2">
      <path id="Path_5203" data-name="Path 5203" d="M69.294,46.937a33.548,33.548,0,0,1,1.43,4.767c.235,1.608.908,2.48.726,2.955a11.925,11.925,0,0,0-.773,1.906,29.555,29.555,0,0,0,1.535,4.177c.475,1.013-.893,1.31-1.31,1.906s-.522,1.968-.715,3.7.355,2.683-.057,3.576-3.1,1.013-4.234.715a3.882,3.882,0,0,1-1.671-.835L63.87,71.3a30.481,30.481,0,0,0-5.659-3.472,66.882,66.882,0,0,0-7.57-2.506l.3-3.336a41.92,41.92,0,0,1-4.412-8.64c-1.253-3.942,1.013-8.4,2.323-10.133S56.683,40.172,60,40.11s8.64,2.5,8.875,2.558,2.266-.475,2.323.3a4.14,4.14,0,0,1-.475,1.785s2.563-1.19,2.323.178S69.83,47.089,69.294,46.937Z" fill="#fff"/>
      <path id="Path_5204" data-name="Path 5204" d="M63.873,71.547a.258.258,0,0,1-.162-.057A30.709,30.709,0,0,0,58.1,68.065a66.636,66.636,0,0,0-7.528-2.485.266.266,0,0,1-.193-.277l.292-3.247a42.12,42.12,0,0,1-4.4-8.63c-1.284-4.041.987-8.552,2.37-10.368s8.16-3.132,11.345-3.2c2.892-.057,7.179,1.8,8.583,2.412.2.089.329.146.371.157l.365-.047a2.8,2.8,0,0,1,1.921.141.617.617,0,0,1,.23.439,3.382,3.382,0,0,1-.245,1.326c.59-.209,1.425-.412,1.843-.089a.746.746,0,0,1,.245.794,2.159,2.159,0,0,1-1.159,1.383,6.377,6.377,0,0,1-2.469.814,29.926,29.926,0,0,1,1.3,4.448,9.185,9.185,0,0,0,.522,1.848,1.882,1.882,0,0,1,.209,1.237c-.063.167-.178.412-.3.668a5.591,5.591,0,0,0-.459,1.149,32.025,32.025,0,0,0,1.509,4.083c.418.882-.277,1.363-.788,1.712a2.381,2.381,0,0,0-.522.454,9.366,9.366,0,0,0-.637,3.279l-.031.292a8.5,8.5,0,0,0,.042,1.9,3.131,3.131,0,0,1-.125,1.759c-.522,1.117-3.44,1.149-4.537.856a4.7,4.7,0,0,1-1.441-.632l-.261,1.1a.273.273,0,0,1-.172.188A.234.234,0,0,1,63.873,71.547ZM50.92,65.131a64.609,64.609,0,0,1,7.4,2.459,29.949,29.949,0,0,1,5.393,3.247l.266-1.1a.255.255,0,0,1,.183-.193.261.261,0,0,1,.256.068,3.748,3.748,0,0,0,1.566.767c1.138.3,3.6.12,3.926-.574a2.741,2.741,0,0,0,.084-1.483,9.068,9.068,0,0,1-.047-2.01l.031-.3a8.8,8.8,0,0,1,.731-3.519,2.472,2.472,0,0,1,.679-.585c.579-.4.814-.626.611-1.044a27.919,27.919,0,0,1-1.566-4.307,4.228,4.228,0,0,1,.522-1.368c.115-.245.225-.475.282-.632a1.821,1.821,0,0,0-.209-.877,9.776,9.776,0,0,1-.522-1.953,33.224,33.224,0,0,0-1.415-4.7.262.262,0,0,1,.057-.277.272.272,0,0,1,.271-.068,4.977,4.977,0,0,0,2.5-.736,1.788,1.788,0,0,0,.914-1.044.33.33,0,0,0-.047-.292c-.251-.188-1.185.057-1.911.392a.261.261,0,0,1-.345-.355A3.9,3.9,0,0,0,70.979,43a.084.084,0,0,0-.037-.073c-.24-.193-1.107-.078-1.524,0a1.753,1.753,0,0,1-.564.031,4.28,4.28,0,0,1-.486-.2c-1.378-.6-5.576-2.438-8.353-2.37-3.472.057-9.752,1.425-10.964,2.991-1.044,1.4-3.55,5.915-2.281,9.919a45.261,45.261,0,0,0,4.37,8.541.25.25,0,0,1,.047.167Z" fill="#263238"/>
      <ellipse id="Ellipse_411" data-name="Ellipse 411" cx="0.339" cy="1.018" rx="0.339" ry="1.018" transform="translate(69.569 55.556)" fill="#263238"/>
      <path id="Path_5205" data-name="Path 5205" d="M69.527,54.83a.25.25,0,0,1-.178-.068.261.261,0,0,1,0-.369h0a1.384,1.384,0,0,1,1.112-.559.9.9,0,0,1,.658.392.26.26,0,0,1-.078.36.267.267,0,0,1-.36-.073.377.377,0,0,0-.271-.162.986.986,0,0,0-.679.4A.238.238,0,0,1,69.527,54.83Z" fill="#263238"/>
      <path id="Path_5206" data-name="Path 5206" d="M70.132,69.908c.412-.893-.12-1.848.057-3.576a10.129,10.129,0,0,1,.715-3.7c-1.19-.412-3.655,1.373-3.931.955s-.522-7.868-.36-9S68.341,53.459,69,52.029s-1.566-3.044-1.671-3.994S69.3,46.9,69.3,46.9c.522.178,3.514-.6,3.754-1.968s-2.323-.178-2.323-.178a4.14,4.14,0,0,0,.475-1.785c-.057-.778-2.088-.24-2.323-.3S63.335,40.061,60,40.113s-9.836,1.368-11.146,3.1-3.576,6.2-2.323,10.133A40.133,40.133,0,0,0,50.748,61.7a2.815,2.815,0,0,0,.673.355,14.4,14.4,0,0,0,6.495.418c2.981-.522,5.367-1.608,4.949-2.443s-.658-4.291.3-5.9,2.026.835,1.786,3.754-.893,4.767-1.07,6.615a29.383,29.383,0,0,0,.355,5.3,3.882,3.882,0,0,0,1.671.835C67.031,70.952,69.715,70.806,70.132,69.908Z" fill="#263238"/>
      <path id="Path_5207" data-name="Path 5207" d="M67.324,71.036a6.438,6.438,0,0,1-1.509-.157,4.175,4.175,0,0,1-1.785-.9.325.325,0,0,1-.073-.146,33.008,33.008,0,0,1-.36-5.367,24.231,24.231,0,0,1,.423-2.48,31.229,31.229,0,0,0,.653-4.135c.178-2.172-.4-3.832-.851-3.973-.178-.057-.376.24-.454.376-.888,1.493-.679,4.866-.287,5.649a.707.707,0,0,1,0,.663c-.522,1-3.07,1.785-5.122,2.151a14.625,14.625,0,0,1-6.536-.4H51.35a3.125,3.125,0,0,1-.747-.4.2.2,0,0,1-.078-.073,41.357,41.357,0,0,1-4.244-8.405c-1.284-4.041.987-8.552,2.37-10.368s8.16-3.132,11.345-3.2c2.913-.042,7.179,1.8,8.583,2.412.2.089.329.146.371.157l.365-.047a2.8,2.8,0,0,1,1.921.141.616.616,0,0,1,.23.439,3.382,3.382,0,0,1-.245,1.326c.59-.209,1.425-.412,1.843-.089a.746.746,0,0,1,.245.794,2.162,2.162,0,0,1-1.159,1.383,5.526,5.526,0,0,1-2.871.8,2.888,2.888,0,0,0-1.608.574.3.3,0,0,0-.078.261,3.425,3.425,0,0,0,.684,1.159c.642.861,1.441,1.932.961,2.971a3.6,3.6,0,0,1-1.462,1.5c-.465.3-.83.522-.9.992a59.331,59.331,0,0,0,.3,8.76,5.648,5.648,0,0,0,1.013-.381c.9-.4,2.036-.893,2.8-.621a.267.267,0,0,1,.167.167.276.276,0,0,1-.037.23,9.366,9.366,0,0,0-.637,3.279l-.031.292a8.5,8.5,0,0,0,.042,1.9,3.131,3.131,0,0,1-.125,1.759h0C70.018,70.78,68.572,71.036,67.324,71.036Zm-2.866-1.373a3.883,3.883,0,0,0,1.493.715c1.138.3,3.6.12,3.926-.574h0a2.741,2.741,0,0,0,.084-1.483,9.068,9.068,0,0,1-.047-2.01l.031-.3a12.889,12.889,0,0,1,.522-3.174,5.845,5.845,0,0,0-2.088.658c-.861.376-1.384.606-1.634.251-.4-.522-.564-8.17-.4-9.189a1.988,1.988,0,0,1,1.133-1.352,3.028,3.028,0,0,0,1.269-1.279c.35-.762-.313-1.655-.9-2.449a3.521,3.521,0,0,1-.788-1.4.855.855,0,0,1,.193-.653,3.488,3.488,0,0,1,2.01-.773.255.255,0,0,1,.11,0,4.977,4.977,0,0,0,2.5-.736,1.788,1.788,0,0,0,.914-1.044.33.33,0,0,0-.047-.292c-.251-.188-1.185.057-1.911.392a.261.261,0,0,1-.345-.355,3.9,3.9,0,0,0,.449-1.65.085.085,0,0,0-.037-.073c-.24-.193-1.107-.078-1.524,0a1.753,1.753,0,0,1-.564.031,4.173,4.173,0,0,1-.433-.162c-1.378-.6-5.576-2.438-8.353-2.37-3.472.057-9.752,1.425-10.964,2.991-1.044,1.4-3.55,5.915-2.281,9.919a39.359,39.359,0,0,0,4.177,8.228,2.185,2.185,0,0,0,.522.3h.068a14.106,14.106,0,0,0,6.317.4c2.715-.491,4.474-1.331,4.746-1.874a.191.191,0,0,0,0-.193c-.428-.861-.715-4.427.308-6.15.412-.694.841-.679,1.044-.611.851.271,1.394,2.3,1.211,4.516a31.7,31.7,0,0,1-.658,4.177,22.309,22.309,0,0,0-.412,2.422,28.054,28.054,0,0,0,.381,5.153Z" fill="#263238"/>
      <path id="Path_5208" data-name="Path 5208" d="M64.635,70.733s.271-1.222-4.479-3.461-9.778-3.2-10.389-2.924-1.29,1.566-1.29,1.566a36.336,36.336,0,0,1,9.168,2.924c4.14,2.088,7.669,3.936,7.669,3.936Z" fill="#fff"/>
      <path id="Path_5209" data-name="Path 5209" d="M65.317,73.038a.346.346,0,0,1-.12,0c-.031,0-3.576-1.859-7.669-3.942A36.191,36.191,0,0,0,48.439,66.2a.273.273,0,0,1-.193-.141.28.28,0,0,1,0-.24c.073-.141.741-1.378,1.415-1.676.762-.339,5.879.689,10.609,2.918,4.291,2.026,4.646,3.284,4.636,3.655l.663,1.984a.267.267,0,0,1-.078.282A.26.26,0,0,1,65.317,73.038Zm-16.43-7.309a36.187,36.187,0,0,1,8.875,2.877c3.132,1.566,5.941,3.044,7.1,3.655l-.475-1.425a.244.244,0,0,1,0-.12c0-.057-.078-1.185-4.338-3.19-4.787-2.261-9.638-3.132-10.17-2.918a3.233,3.233,0,0,0-1,1.124Z" fill="#263238"/>
      <path id="Path_5210" data-name="Path 5210" d="M67.287,74.084A5.746,5.746,0,0,0,64.5,71.437C62.327,70.351,60.046,67.965,51.191,66c-1.681-.371-2.24-.271-2.715-.068a9.145,9.145,0,0,0-2.449,2.449l-.631.928a39.336,39.336,0,0,1,9.778,1.154c4,1.222,13.313,4.819,13.313,4.819Z" fill="#008083"/>
      <path id="Path_5211" data-name="Path 5211" d="M68.509,75.541a.3.3,0,0,1-.094,0c-.094-.037-9.34-3.608-13.292-4.814a39,39,0,0,0-9.7-1.143.282.282,0,0,1-.23-.136.259.259,0,0,1,0-.266l.611-.95a9.1,9.1,0,0,1,2.563-2.543c.569-.245,1.222-.313,2.877.052,7,1.566,9.956,3.383,11.914,4.6a14.927,14.927,0,0,0,1.457.851A6.075,6.075,0,0,1,67.5,73.928l1.185,1.185a.266.266,0,0,1,.037.329A.271.271,0,0,1,68.509,75.541Zm-22.59-6.5a37.763,37.763,0,0,1,9.4,1.164c3.132.955,9.559,3.388,12.18,4.391l-.355-.355a.308.308,0,0,1-.057-.089,5.516,5.516,0,0,0-2.657-2.511,15.5,15.5,0,0,1-1.5-.877c-1.926-1.2-4.84-3.007-11.752-4.537-1.676-.371-2.167-.251-2.558-.084A9.249,9.249,0,0,0,46.292,68.5Z" fill="#263238"/>
      <path id="Path_5212" data-name="Path 5212" d="M86.641,141.255s-2.088,1.77-1.53,3.132a33.193,33.193,0,0,0,1.77,3.373l.882-.966s-1.206-2.73-.966-3.132,6.025-3.775,6.025-3.775l1.692,3.534.882-.726S93.95,139,93.386,138.68,88.061,139.652,86.641,141.255Z" fill="#263238"/>
      <path id="Path_5213" data-name="Path 5213" d="M86.855,148.026h0a.272.272,0,0,1-.2-.125,32.389,32.389,0,0,1-1.785-3.409c-.611-1.477,1.383-3.247,1.566-3.42,1.514-1.671,6.354-3.018,7.058-2.61.6.339,1.775,3.258,2.12,4.145a.266.266,0,0,1-.073.3l-.888.726a.261.261,0,0,1-.367-.042h0a.234.234,0,0,1-.03-.047L92.69,140.26c-2.636,1.566-5.466,3.273-5.7,3.555a11.807,11.807,0,0,0,.987,2.882.267.267,0,0,1-.047.282l-.882.966A.269.269,0,0,1,86.855,148.026Zm6.213-9.136c-.935,0-4.939,1.075-6.265,2.543v.026c-.522.454-1.853,1.859-1.457,2.835a30.491,30.491,0,0,0,1.566,3.033l.522-.579c-.553-1.274-1.128-2.8-.877-3.216a59.175,59.175,0,0,1,6.114-3.863.265.265,0,0,1,.362.093l.009.017,1.54,3.237.48-.392a16.015,16.015,0,0,0-1.827-3.712.5.5,0,0,0-.168-.022Z" fill="#263238"/>
      <path id="Path_5214" data-name="Path 5214" d="M87.9,132.5l5.623,5.544a2.739,2.739,0,0,1,.324,2.167c-.245.647-4.74,4.177-5.628,4.584s-1.363-.8-1.446-1.128-.48-1.206-.559-1.446-2.25-2.652-2.892-4.5a14.406,14.406,0,0,1-.726-2.569Z" fill="#fff"/>
      <path id="Path_5215" data-name="Path 5215" d="M87.873,145.138a.964.964,0,0,1-.428-.1,2.183,2.183,0,0,1-.924-1.3c-.047-.177-.225-.606-.355-.919-.089-.219-.172-.412-.2-.522a2.709,2.709,0,0,0-.4-.522,16.252,16.252,0,0,1-2.485-3.963,13.76,13.76,0,0,1-.736-2.61.26.26,0,0,1,.141-.266l5.3-2.652a.271.271,0,0,1,.3.052s5.3,5.221,5.623,5.544a2.933,2.933,0,0,1,.381,2.443c-.3.8-4.986,4.375-5.743,4.725A1.12,1.12,0,0,1,87.873,145.138ZM82.887,135.3a16.956,16.956,0,0,0,.679,2.339,15.991,15.991,0,0,0,2.407,3.816,3.423,3.423,0,0,1,.486.684c.031.089.1.266.188.47a10.5,10.5,0,0,1,.381,1,1.668,1.668,0,0,0,.658.961.489.489,0,0,0,.444,0,31.067,31.067,0,0,0,5.487-4.432,2.547,2.547,0,0,0-.261-1.9l-5.508-5.419Z" fill="#263238"/>
      <path id="Path_5216" data-name="Path 5216" d="M24.571,136.212a26.785,26.785,0,0,0,1.337,2.767,25.781,25.781,0,0,1,2.934,3.519c.251.668,0,2.934.924,4.61s.334,2.344-.673,2.01-1.759-2.344-1.759-2.344.924,3.352,1.091,3.936,2.683,1.258,2.261,1.843-4.861.841-5.863.757-2.851-2.433-3.435-2.767-2.088-6.7-2.516-7.878a60.156,60.156,0,0,1-1.091-6.265Z" fill="#fff"/>
      <path id="Path_5217" data-name="Path 5217" d="M25.244,153.6H24.8c-.7-.063-1.566-.888-2.61-1.958a7.542,7.542,0,0,0-.914-.846c-.428-.24-.961-1.979-1.994-5.779-.271-1.008-.522-1.879-.637-2.234a60.972,60.972,0,0,1-1.1-6.338.258.258,0,0,1,.057-.2.287.287,0,0,1,.193-.094l6.787-.167a.256.256,0,0,1,.245.157,25.247,25.247,0,0,0,1.253,2.683,28.119,28.119,0,0,1,2.992,3.613,4.866,4.866,0,0,1,.162,1.2,8.269,8.269,0,0,0,.747,3.373c.684,1.253.522,1.874.277,2.177a1.118,1.118,0,0,1-1.263.209,2.148,2.148,0,0,1-.825-.653c.23.825.454,1.655.522,1.916.047.157.647.465,1.008.653.647.334,1.206.626,1.3,1.013a.484.484,0,0,1-.084.4C30.408,153.44,26.643,153.6,25.244,153.6Zm-7.168-16.947A54.85,54.85,0,0,0,19.12,142.6c.136.376.36,1.216.653,2.276.491,1.806,1.4,5.163,1.759,5.471a6.59,6.59,0,0,1,1.008.924c.694.7,1.744,1.754,2.308,1.8,1.211.1,5.278-.219,5.633-.647a3.938,3.938,0,0,0-1.044-.647c-.626-.324-1.164-.606-1.269-.971-.167-.59-1.091-3.942-1.091-3.942a.273.273,0,0,1,.522-.162c.2.522.872,1.947,1.6,2.193.324.1.585.089.694-.047s.151-.7-.334-1.592a8.668,8.668,0,0,1-.809-3.587,4.767,4.767,0,0,0-.131-1.044,26.582,26.582,0,0,0-2.871-3.43,19.435,19.435,0,0,1-1.326-2.683Z" fill="#263238"/>
      <path id="Path_5218" data-name="Path 5218" d="M27.646,152.334a.261.261,0,0,1-.26-.262.266.266,0,0,1,.02-.1,9.746,9.746,0,0,0-1.989-.45,4.161,4.161,0,0,1-1.363-.329,11.862,11.862,0,0,1-1.342-2.71.2.2,0,0,1,0-.084,8.109,8.109,0,0,1,.433-2.955,11.453,11.453,0,0,0,.235-3.822.262.262,0,1,1,.522-.047,12.091,12.091,0,0,1-.266,4.057,7.812,7.812,0,0,0-.407,2.7,13.345,13.345,0,0,0,1.159,2.449,9.3,9.3,0,0,0,1.133.224c1.566.261,2.323.428,2.449.83a.412.412,0,0,1-.12.423A.266.266,0,0,1,27.646,152.334Z" fill="#263238"/>
      <path id="Path_5219" data-name="Path 5219" d="M65.288,224.579s2.172,1.65,3.206,2.271,5.471,1.044,5.785,1.859-.47,1.6-.9,1.989a11.384,11.384,0,0,1-5.915,1.316,9.353,9.353,0,0,0-2.48.209c-.72.1-5.785.72-7.951.929s-2.689-1.566-2.793-3.717,0-4.652,0-4.652l8.677-1.237Z" fill="#fff"/>
      <path id="Path_5220" data-name="Path 5220" d="M56.694,233.427a2.308,2.308,0,0,1-1.566-.522c-.7-.606-1.044-1.665-1.138-3.446-.1-2.156,0-4.646,0-4.673a.26.26,0,0,1,.224-.245l8.677-1.243a.26.26,0,0,1,.141,0l2.375,1.044.057.031s2.167,1.65,3.179,2.255a11.336,11.336,0,0,0,2.459.684c1.994.433,3.216.736,3.435,1.31.392,1.044-.637,1.973-.976,2.276a11.281,11.281,0,0,1-6.114,1.378,6.918,6.918,0,0,0-1.947.13l-.47.073c-.773.115-5.847.731-7.967.935Zm-2.2-8.416c0,.647-.078,2.642,0,4.406.078,1.6.381,2.579.955,3.08a1.956,1.956,0,0,0,1.566.392c2.114-.2,7.173-.82,7.941-.929a2.414,2.414,0,0,0,.454-.073,7.354,7.354,0,0,1,2.088-.131,11.045,11.045,0,0,0,5.717-1.253c.741-.663,1.013-1.216.83-1.7-.131-.35-1.963-.741-3.054-.982a11.29,11.29,0,0,1-2.61-.747c-.987-.59-2.945-2.088-3.2-2.271l-2.281-.992Z" fill="#263238"/>
      <path id="Path_5221" data-name="Path 5221" d="M68.2,230.64c-1.864-.12-3.19.36-8.306.6a25.345,25.345,0,0,1-5.45-.177c.3,1.342,1,2.24,2.61,2.088,2.167-.209,7.231-.825,7.951-.929a9.354,9.354,0,0,1,2.48-.209A11.052,11.052,0,0,0,73.4,230.7a2.639,2.639,0,0,0,.955-1.467A12.293,12.293,0,0,1,68.2,230.64Z" fill="#fff"/>
      <path id="Path_5222" data-name="Path 5222" d="M56.684,233.428c-1.331,0-2.151-.757-2.5-2.308a.245.245,0,0,1,.068-.235.257.257,0,0,1,.23-.078,25.267,25.267,0,0,0,5.4.172c2.558-.12,4.177-.3,5.367-.439a15.963,15.963,0,0,1,2.971-.162h0a11.961,11.961,0,0,0,5.973-1.363.26.26,0,0,1,.36.08.253.253,0,0,1,.04.165,2.751,2.751,0,0,1-1.044,1.634,11.281,11.281,0,0,1-6.114,1.378,6.882,6.882,0,0,0-1.947.131l-.47.073c-.773.115-5.847.731-7.967.934Zm-1.89-2.041a1.87,1.87,0,0,0,2.173,1.507l.035-.007c2.114-.2,7.173-.82,7.941-.929a2.413,2.413,0,0,0,.454-.073,7.354,7.354,0,0,1,2.088-.131A11.045,11.045,0,0,0,73.2,230.5a3.8,3.8,0,0,0,.621-.689,13.506,13.506,0,0,1-5.644,1.086,15.136,15.136,0,0,0-2.877.162c-1.19.136-2.824.318-5.4.439a28.862,28.862,0,0,1-5.108-.113Z" fill="#263238"/>
      <path id="Path_5223" data-name="Path 5223" d="M31.509,139.6s2.271,8.264,5.064,15.5,6.4,18.074,6.4,18.074l2.61,15.7a87.074,87.074,0,0,0,1.859,13.631c1.446,5.8,7.027,23.311,7.027,23.311a11.62,11.62,0,0,0,4.5.715c2.579-.1,6.3-1.963,6.3-1.963a15.364,15.364,0,0,0,.1-3.409c-.209-1.034-1.446-1.566-1.754-2.375s-4.239-24.966-4.239-24.966-1.237-17.145-1.65-20.45-1.446-31.194-1.446-31.194Z" fill="#263238"/>
      <path id="Path_5224" data-name="Path 5224" d="M58.537,226.813a11.555,11.555,0,0,1-4.177-.757.261.261,0,0,1-.151-.162c-.052-.172-5.6-17.6-7.027-23.321a88.543,88.543,0,0,1-1.869-13.689l-2.579-15.662c-.026-.073-3.655-10.885-6.39-18.027s-5.043-15.443-5.085-15.527a.257.257,0,0,1,.052-.235.249.249,0,0,1,.224-.089l24.793,2.579a.261.261,0,0,1,.235.251c0,.277,1.044,27.915,1.441,31.173s1.645,20.293,1.655,20.465c1.566,9.658,4,24.287,4.224,24.887a2.708,2.708,0,0,0,.726.893,3.033,3.033,0,0,1,1.044,1.524,15.579,15.579,0,0,1-.1,3.493.262.262,0,0,1-.141.2c-.157.073-3.8,1.885-6.406,1.989Zm-3.884-1.2a11.587,11.587,0,0,0,4.328.663,19.5,19.5,0,0,0,6.067-1.874,14.2,14.2,0,0,0,.089-3.185,2.613,2.613,0,0,0-.888-1.253,3.082,3.082,0,0,1-.856-1.086c-.308-.825-3.848-22.538-4.25-25.007,0-.2-1.248-17.2-1.655-20.465-.4-3.159-1.331-28.145-1.441-30.99L31.864,139.9c.48,1.681,2.532,8.839,4.949,15.1,2.762,7.152,6.375,17.98,6.411,18.09l2.61,15.741a86.638,86.638,0,0,0,1.859,13.615c1.354,5.457,6.469,21.621,6.96,23.171Z" fill="#263238"/>
      <path id="Path_5225" data-name="Path 5225" d="M13.665,211.511s-7.878,1.524-9.846,2.151S1.851,215.447,2.3,217.6A6.146,6.146,0,0,0,4,221.085c.36.266.626,3.655,1.608,5.816s3.242,6.448,5.278,7.518,4.3,1.075,4.568.715-.522-2.861-.522-2.861l-2.06-6.624s2.4-6.531,2.762-6.886,2.146-2.24,2.146-2.24Z" fill="#fff"/>
      <path id="Path_5226" data-name="Path 5226" d="M14.437,235.61a8.46,8.46,0,0,1-3.655-.955c-2.308-1.206-4.7-6.155-5.393-7.643a20.04,20.04,0,0,1-1.159-4.177,8.051,8.051,0,0,0-.392-1.566,6.431,6.431,0,0,1-1.78-3.628c-.423-2.031-.548-3.524,1.7-4.239,1.963-.626,9.554-2.088,9.872-2.156a.262.262,0,0,1,.251.089L18,216.347a.261.261,0,0,1,0,.345c-.078.078-1.8,1.89-2.156,2.245-.261.318-1.77,4.25-2.683,6.714l2.036,6.536c.381,1.2.783,2.715.5,3.1A1.677,1.677,0,0,1,14.437,235.61ZM13.549,211.8c-1.107.214-7.878,1.566-9.664,2.088-1.686.522-1.812,1.378-1.342,3.655a5.936,5.936,0,0,0,1.6,3.331c.214.162.313.59.569,1.864a19.833,19.833,0,0,0,1.122,4.057c1.368,2.986,3.44,6.495,5.163,7.393a6.377,6.377,0,0,0,4.239.783,9.74,9.74,0,0,0-.585-2.61l-2.047-6.63a.265.265,0,0,1,0-.167,70.3,70.3,0,0,1,2.835-6.985c.287-.287,1.535-1.6,1.984-2.062Z" fill="#263238"/>
      <path id="Path_5227" data-name="Path 5227" d="M10.888,234.419c2.088,1.076,4.3,1.076,4.568.715a1.281,1.281,0,0,0,0-.741c-1.827-.089-4.913-.522-6.181-2.48-1.613-2.506-3.221-7.873-3.936-10.828-.559-2.3-1.169-5.952-1.415-7.461l-.11.037c-1.968.626-1.968,1.786-1.519,3.936a6.146,6.146,0,0,0,1.7,3.487c.36.266.626,3.655,1.608,5.816S8.852,233.345,10.888,234.419Z" fill="#fff"/>
      <path id="Path_5228" data-name="Path 5228" d="M14.437,235.61a8.46,8.46,0,0,1-3.655-.955c-2.308-1.206-4.7-6.155-5.393-7.643a20.04,20.04,0,0,1-1.159-4.177,8.051,8.051,0,0,0-.392-1.566,6.431,6.431,0,0,1-1.78-3.628c-.423-2.031-.548-3.524,1.7-4.239l.115-.037a.253.253,0,0,1,.214.031.281.281,0,0,1,.12.178c.235,1.472.851,5.148,1.4,7.44.632,2.61,2.255,8.186,3.905,10.75,1.133,1.765,3.874,2.255,5.973,2.36a.261.261,0,0,1,.245.219c.084.522.068.778-.052.94A1.869,1.869,0,0,1,14.437,235.61ZM3.719,213.97c-1.514.522-1.618,1.4-1.164,3.576a5.936,5.936,0,0,0,1.6,3.331c.214.162.313.59.569,1.864A19.833,19.833,0,0,0,5.846,226.8c1.368,2.986,3.44,6.495,5.163,7.393a6.366,6.366,0,0,0,4.239.783v-.329c-2.193-.136-4.96-.7-6.171-2.61-1.686-2.61-3.336-8.28-3.973-10.906-.544-2.147-1.119-5.535-1.385-7.159Z" fill="#263238"/>
      <path id="Path_5229" data-name="Path 5229" d="M39.565,141.871s3,3.926,3.31,4.443,2.475,20.142,2.683,22.1a32.756,32.756,0,0,1,0,4.751s-7.262,7.246-12.013,13.162-20.214,24.914-20.214,24.914l6.787,10.567s8.484-6.787,14.566-12.6c9.627-9.167,18.685-18.867,19.317-19.385s4.8-4.944,5.106-6.181,3.623-18.607,4.761-24.183S66.551,138.8,66.551,138.8l-28.406.72" fill="#263238"/>
      <path id="Path_5230" data-name="Path 5230" d="M20.1,222.047H20.06a.281.281,0,0,1-.178-.12L13.1,211.36a.252.252,0,0,1,0-.3c.157-.193,15.516-19.1,20.215-24.919,4.459-5.524,11.2-12.321,11.961-13.083a31.252,31.252,0,0,0,0-4.6c-.355-3.388-2.355-21.238-2.657-22.021-.23-.376-2.245-3.044-3.279-4.4a.261.261,0,0,1,.393-.344h0l.02.026c.125.162,3.007,3.942,3.32,4.469.376.621,2.7,22,2.725,22.209a33.726,33.726,0,0,1,0,4.8.264.264,0,0,1-.078.167c-.073.073-7.309,7.309-12.008,13.109-4.479,5.55-18.649,22.971-20.1,24.772l6.516,10.16c1.389-1.122,8.875-7.21,14.321-12.4,6.9-6.562,13.412-13.313,16.915-16.941,1.43-1.483,2.219-2.3,2.407-2.454.731-.611,4.74-4.934,5.022-6.046.162-.658,1.19-5.946,2.276-11.548.961-4.928,1.953-10.029,2.48-12.624,1.044-5.069,2.428-18.2,2.652-20.361l-28.109.715a.261.261,0,0,1-.271-.25h0a.271.271,0,0,1,.256-.271l28.406-.72a.239.239,0,0,1,.2.083.244.244,0,0,1,.068.2c0,.151-1.566,15.14-2.689,20.685-.522,2.61-1.519,7.69-2.475,12.619C60.491,177.7,59.462,183,59.29,183.666c-.339,1.363-4.7,5.9-5.189,6.322-.167.136-1.091,1.091-2.365,2.412-3.5,3.655-10.029,10.389-16.931,16.962-6.02,5.743-14.493,12.53-14.582,12.613A.232.232,0,0,1,20.1,222.047Z" fill="#263238"/>
      <path id="Path_5231" data-name="Path 5231" d="M46.029,68.342s-5.022,2.647-7.669,3.936S26.874,76.22,26,77.642a7.4,7.4,0,0,0-.747,3.655s-8.666,23.859-8.875,28.02.637,27.837.637,27.837.642.955,4.057.851a13.651,13.651,0,0,0,4.8-.747s1.707-23.89,2.026-25.279a14.952,14.952,0,0,1,.856-2.558l3.728-7.466s1.284,7.68,1.284,8-7.043,29.116-7.043,29.116,0,1.921,12.478,3.655,23.358,2.772,23.89,2.772,3.414-4.8,3.414-4.8.747,2.663.522,2.986,2.135-.522,2.668-.961l2.13-1.707s-3.3-18.346-3.3-19.729.856-6.4.856-6.4L81.744,137.5s0,.318,2.986-1.389a18.771,18.771,0,0,0,4.479-3.409L79.185,108.063s-2.344-27.2-2.558-28.584.318-1.707-.961-2.349a59.267,59.267,0,0,0-7.158-1.853s-9.683-3.7-13.313-4.815S46.029,68.342,46.029,68.342Z" fill="#008083"/>
      <path id="Path_5232" data-name="Path 5232" d="M63.079,145.756c-.621,0-11.783-1.117-23.922-2.777S26.45,139.455,26.45,139.1a.222.222,0,0,1,0-.063c2.4-9.81,6.954-28.521,7.032-29.074,0-.24-.647-4.15-1.149-7.142l-3.362,6.766a15.056,15.056,0,0,0-.8,2.485c-.313,1.347-2,25-2.02,25.232a.256.256,0,0,1-.151.219,13.8,13.8,0,0,1-4.9.773c-3.43.11-4.177-.861-4.276-.971a.284.284,0,0,1-.047-.136c0-.235-.851-23.734-.637-27.858s8.327-26.521,8.875-28.041a7.6,7.6,0,0,1,.788-3.769c.574-.929,3.7-2.13,8.05-3.728,1.8-.663,3.5-1.29,4.417-1.733,2.61-1.274,7.612-3.9,7.664-3.936a.24.24,0,0,1,.167,0c.057,0,5.591,1.008,9.2,2.088S68.53,75,68.63,75.036A57.291,57.291,0,0,1,75.809,76.9c1,.522,1.044.893,1.044,1.6a5.848,5.848,0,0,0,.057.935c.209,1.368,2.422,26.986,2.558,28.563l10.013,24.6a.261.261,0,0,1-.047.266,18.778,18.778,0,0,1-4.547,3.472c-2.845,1.624-3.091,1.483-3.237,1.4a.316.316,0,0,1-.1-.115h0L69.542,115.694c-.235,1.446-.726,4.579-.726,5.612s2.161,13.344,3.3,19.682a.272.272,0,0,1-.094.251l-2.135,1.707c-.308.245-2.61,1.347-3.012,1a.3.3,0,0,1-.083-.412l.015-.021a10.313,10.313,0,0,0-.412-2.182C64.625,144.282,63.508,145.756,63.079,145.756Zm-36.1-6.651c.078.146,1.143,1.838,12.248,3.357,12.587,1.723,23.373,2.772,23.854,2.772a29.357,29.357,0,0,0,3.19-4.7.268.268,0,0,1,.261-.125.257.257,0,0,1,.214.188,12.6,12.6,0,0,1,.574,2.83,9.221,9.221,0,0,0,2.214-.935l2.01-1.613c-.339-1.89-3.284-18.273-3.284-19.62s.825-6.239.856-6.442a.259.259,0,0,1,.214-.214.25.25,0,0,1,.271.131l12.3,22.517a15.506,15.506,0,0,0,2.7-1.357,19.584,19.584,0,0,0,4.307-3.242l-9.961-24.485a.3.3,0,0,1,0-.073c0-.271-2.349-27.205-2.558-28.563a6.513,6.513,0,0,1-.063-1.044c0-.6,0-.752-.752-1.133a61.579,61.579,0,0,0-7.1-1.832c-.141-.047-9.752-3.728-13.334-4.824-3.331-1.018-8.327-1.953-9.053-2.088-.653.345-5.158,2.71-7.6,3.9-.935.459-2.647,1.086-4.464,1.754-3.065,1.122-7.257,2.663-7.784,3.514a7.158,7.158,0,0,0-.71,3.514.335.335,0,0,1,0,.1c-.084.24-8.656,23.869-8.875,27.942-.2,3.968.58,26.078.637,27.722.183.162,1.044.783,3.785.694a15.4,15.4,0,0,0,4.558-.668c.167-2.287,1.712-23.807,2.02-25.154a15.47,15.47,0,0,1,.872-2.61l3.738-7.476a.263.263,0,0,1,.271-.141.266.266,0,0,1,.219.214c.214,1.284,1.284,7.716,1.284,8.04s-5.389,22.33-7.06,29.154Z" fill="#263238"/>
      <path id="Path_5233" data-name="Path 5233" d="M32.475,101.984,28.951,83.106l1.493,22.507Z" fill="#263238"/>
      <path id="Path_5234" data-name="Path 5234" d="M30.444,105.874H30.39a.271.271,0,0,1-.2-.24l-1.5-22.507a.264.264,0,0,1,.522-.068l3.519,18.878a.264.264,0,0,1-.031.178l-2.026,3.623A.268.268,0,0,1,30.444,105.874ZM29.5,87.5l1.143,17.229,1.566-2.772Z" fill="#263238"/>
      <path id="Path_5235" data-name="Path 5235" d="M50.387,96.7a.255.255,0,0,1-.2-.094,12.1,12.1,0,0,1-1.451-2.193.261.261,0,0,1,.459-.24,11.716,11.716,0,0,0,1.389,2.088.256.256,0,0,1,0,.362h0A.274.274,0,0,1,50.387,96.7Z" fill="#263238"/>
      <path id="Path_5236" data-name="Path 5236" d="M48.463,93.511a.261.261,0,0,1-.24-.157C45.785,87.846,45.54,80.1,45.54,80.02a.261.261,0,0,1,.256-.266h0a.272.272,0,0,1,.266.256c0,.073.245,7.716,2.61,13.135a.256.256,0,0,1-.122.341h-.009A.273.273,0,0,1,48.463,93.511Z" fill="#263238"/>
      <path id="Path_5237" data-name="Path 5237" d="M46.868,93.182a.261.261,0,0,1-.224-.131,26.771,26.771,0,0,1-2.694-6.787.26.26,0,0,1,.2-.312h0a.255.255,0,0,1,.306.191h0v.006A26.28,26.28,0,0,0,47.1,92.795a.267.267,0,0,1-.1.355A.235.235,0,0,1,46.868,93.182Z" fill="#263238"/>
      <path id="Path_5238" data-name="Path 5238" d="M44.284,118.487a.272.272,0,0,1-.256-.2.266.266,0,0,1,.193-.318c4.14-1.044,9.439-2.328,12.321-2.95-1.342.063-3.216.2-4.96.345a.262.262,0,0,1-.042-.522c7.121-.6,7.152-.371,7.194-.084s-.214.392-1.253.6c-2.558.522-8.557,1.979-13.135,3.132Z" fill="#263238"/>
      <path id="Path_5239" data-name="Path 5239" d="M39.3,119.735a.263.263,0,0,1-.078-.52l.015,0,2.25-.569a.261.261,0,0,1,.313.193.256.256,0,0,1-.183.312h0l-2.25.569Z" fill="#263238"/>
      <path id="Path_5240" data-name="Path 5240" d="M69.375,114.891a40.421,40.421,0,0,1-2.668-5.012c-.214-.961-1.921-11.413-1.921-11.413s1.175,16.639,1.6,18.878a8.592,8.592,0,0,0,2.13,3.947Z" fill="#263238"/>
      <path id="Path_5241" data-name="Path 5241" d="M68.519,121.552a.244.244,0,0,1-.183-.078,8.767,8.767,0,0,1-2.2-4.083c-.428-2.229-1.566-18.226-1.608-18.9a.263.263,0,1,1,.52-.078l0,.015c0,.1,1.707,10.442,1.916,11.4a40.011,40.011,0,0,0,2.61,4.934.248.248,0,0,1,.037.172l-.851,6.4a.265.265,0,0,1-.178.214A.2.2,0,0,1,68.519,121.552ZM65.47,104.23c.381,5.033.919,11.721,1.175,13.052a7.974,7.974,0,0,0,1.692,3.388l.767-5.743a37.49,37.49,0,0,1-2.652-5.012c-.1-.444-.543-3.07-.982-5.685Z" fill="#263238"/>
      <path id="Path_5242" data-name="Path 5242" d="M64.15,96.382a.261.261,0,0,1-.256-.2s-.2-.882-.433-2.214a.265.265,0,1,1,.518-.111l0,.022c.23,1.316.428,2.177.428,2.182a.255.255,0,0,1-.184.311h-.009Z" fill="#263238"/>
      <path id="Path_5243" data-name="Path 5243" d="M63.466,92.608a.267.267,0,0,1-.261-.224,36.694,36.694,0,0,1-.381-8.447,7.2,7.2,0,0,1,4.887-6.521.263.263,0,0,1,.318.187h0a.266.266,0,0,1-.188.318c-.162.042-3.994,1.091-4.5,6.067a36.512,36.512,0,0,0,.381,8.322.266.266,0,0,1-.219.3Z" fill="#263238"/>
      <path id="Path_5244" data-name="Path 5244" d="M62.866,91.475a.267.267,0,0,1-.24-.162,35.5,35.5,0,0,1-1.075-7.534.261.261,0,1,1,.522,0,35.008,35.008,0,0,0,1.044,7.4.255.255,0,0,1-.166.32h-.012Z" fill="#263238"/>
      <path id="Path_5245" data-name="Path 5245" d="M101.557,139.167s-21.05,11.011-21.7,11.809-.24,2.088-.078,2.652S85,174.84,85.642,175.158s2.652-.72,2.652-.72,2.25,1.363,2.809,1.122,19.6-12.05,20.648-13.015a1.841,1.841,0,0,0,.642-2.407c-.324-.72-5.221-11.731-5.221-11.731a1.962,1.962,0,0,0,.24-1.608c-.318-.72-2.971-6.025-3.534-6.829S103.645,138.3,101.557,139.167Z" fill="#969696"/>
      <path id="Path_5246" data-name="Path 5246" d="M90.958,175.848a7.337,7.337,0,0,1-2.668-1.112c-.522.271-2.088.987-2.757.658-.329-.167-1.044-1.853-5.6-20.084-.23-.929-.381-1.519-.4-1.608v-.063c-.183-.632-.559-1.942.146-2.824s19.614-10.75,21.776-11.877h0c1.6-.673,2.015-.433,2.391.407a2.76,2.76,0,0,0,.256.491c.579.825,3.232,6.134,3.561,6.871a2.089,2.089,0,0,1-.188,1.728l5.169,11.606a2.113,2.113,0,0,1-.7,2.71c-1.044.95-19.98,12.744-20.721,13.052A.664.664,0,0,1,90.958,175.848ZM88.3,174.177a.251.251,0,0,1,.136.037,6.455,6.455,0,0,0,2.574,1.107c.773-.35,19.63-12.1,20.57-12.963s.846-1.524.579-2.114c-.318-.726-5.221-11.731-5.221-11.731a.254.254,0,0,1,0-.245,1.713,1.713,0,0,0,.219-1.357c-.318-.72-2.96-6-3.508-6.787a3.2,3.2,0,0,1-.308-.574c-.219-.5-.318-.726-1.7-.141-8.379,4.38-21.034,11.115-21.6,11.736s-.209,1.806-.052,2.349v.063c.026.094.172.689.407,1.624,3.132,12.452,4.918,19.1,5.356,19.761a5.033,5.033,0,0,0,2.381-.736.235.235,0,0,1,.162-.026Z" fill="#263238"/>
      <path id="Path_5247" data-name="Path 5247" d="M79.785,153.628c.157.564,5.221,21.212,5.863,21.53s2.652-.72,2.652-.72,2.135,1.295,2.762,1.133c-1.566-4.124-7.648-20.3-8.708-22.971-.9-2.276-1.843-2.052-2.266-1.791l-.172.136H79.89C79.222,151.78,79.624,153.064,79.785,153.628Z" fill="#263238"/>
      <path id="Path_5248" data-name="Path 5248" d="M90.953,175.843a7.53,7.53,0,0,1-2.663-1.107c-.522.271-2.088.987-2.757.658-.329-.167-1.044-1.853-5.6-20.084-.23-.929-.381-1.519-.4-1.608v-.059c-.183-.632-.559-1.942.146-2.824l.042-.047.042-.037c.047-.042.115-.089.2-.151a1.21,1.21,0,0,1,1.044-.141c.606.2,1.149.888,1.608,2.052.647,1.639,3.164,8.317,5.388,14.211,1.415,3.749,2.7,7.173,3.32,8.776a.272.272,0,0,1-.167.345H91.14A.9.9,0,0,1,90.953,175.843ZM88.3,174.178a.251.251,0,0,1,.136.037,10.647,10.647,0,0,0,2.234,1.044c-.653-1.723-1.864-4.923-3.174-8.4-2.219-5.889-4.74-12.566-5.383-14.206-.522-1.258-.976-1.645-1.284-1.749a.694.694,0,0,0-.6.089.889.889,0,0,0-.141.11c-.553.684-.23,1.822-.073,2.365v.063c.026.094.172.689.407,1.624,3.132,12.452,4.918,19.1,5.357,19.761a5.033,5.033,0,0,0,2.381-.736.239.239,0,0,1,.14,0Z" fill="#263238"/>
      <path id="Path_5249" data-name="Path 5249" d="M86.212,162.165a.261.261,0,0,1-.141-.48l20.486-12.854a.256.256,0,0,1,.354.074l.006.01a.251.251,0,0,1-.071.347l-.013.008L86.347,162.124A.218.218,0,0,1,86.212,162.165Z" fill="#263238"/>
      <path id="Path_5250" data-name="Path 5250" d="M95.688,154.834l1.446,2.49,2.088-1.524-1.364-2.334Z" fill="#fff"/>
      <path id="Path_5251" data-name="Path 5251" d="M97.135,157.585h-.052a.267.267,0,0,1-.172-.125l-1.446-2.49a.26.26,0,0,1,.089-.35l2.167-1.368a.28.28,0,0,1,.2-.031.253.253,0,0,1,.162.12l1.368,2.328a.261.261,0,0,1-.073.345l-2.088,1.524A.247.247,0,0,1,97.135,157.585Zm-1.091-2.663,1.175,2.02,1.665-1.216-1.112-1.9Z" fill="#263238"/>
    </g>
  </g>
</svg>
