<svg xmlns="http://www.w3.org/2000/svg" width="12.609" height="12.609" viewBox="0 0 12.609 12.609">
  <g id="Group_6061" data-name="Group 6061" transform="translate(-16 -184.52)">
    <path id="Path_4296" data-name="Path 4296" d="M10.3,5.576A1.576,1.576,0,1,1,8.728,7.152,1.581,1.581,0,0,1,10.3,5.576m0,7.88c2.128,0,4.571,1.017,4.728,1.576H5.576c.181-.567,2.608-1.576,4.728-1.576M10.3,4a3.152,3.152,0,1,0,3.152,3.152A3.151,3.151,0,0,0,10.3,4Zm0,7.88c-2.1,0-6.3,1.056-6.3,3.152v1.576H16.609V15.033C16.609,12.936,12.408,11.88,10.3,11.88Z" transform="translate(12 180.52)"/>
  </g>
</svg>
