<svg xmlns="http://www.w3.org/2000/svg" width="40.276" height="54.852" viewBox="0 0 40.276 54.852">
  <g id="Group_5339" data-name="Group 5339" transform="translate(-158.851 -542.778)">
    <path id="Path_4154" data-name="Path 4154" d="M-188.875,55.85q0-12.415,0-24.83c0-2.431,0-2.432,2.5-2.432,7.592,0,15.184-.036,22.775.047a4.253,4.253,0,0,1,2.663,1.059q5.741,5.516,11.265,11.255a3.989,3.989,0,0,1,1.025,2.507c.064,12.558.046,25.115.043,37.673,0,2.284-.023,2.3-2.295,2.3q-17.9,0-35.79,0c-2.142,0-2.184-.042-2.185-2.236Q-188.879,68.522-188.875,55.85Zm38.291-12.612c-2.893,0-5.627.016-8.361,0-5.067-.036-4.237.56-4.294-4.228-.034-2.829-.006-5.659-.006-8.482h-23.624v51h36.285Z" transform="translate(347.727 514.198)" fill="#008083"/>
    <path id="Path_4155" data-name="Path 4155" d="M-142.178,121.509a6.261,6.261,0,0,1,6.2,5.686c.033.492-.427,1.017-.66,1.527-.374-.4-.976-.738-1.084-1.2-.633-2.69-2.253-4.246-4.586-4.232s-3.834,1.482-4.537,4.28c-.111.441-.636.777-.97,1.162-.284-.472-.827-.954-.811-1.415A6.316,6.316,0,0,1-142.178,121.509Z" transform="translate(321.272 453.122)" fill="#008083"/>
    <path id="Path_4156" data-name="Path 4156" d="M-114.068,95.59a2.669,2.669,0,0,1,2.7,2.687,2.712,2.712,0,0,1-2.623,2.782,2.825,2.825,0,0,1-2.83-2.792A2.767,2.767,0,0,1-114.068,95.59Z" transform="translate(300.371 470.157)" fill="#008083"/>
    <path id="Path_4157" data-name="Path 4157" d="M-156.647,101.059a2.715,2.715,0,0,1-2.685-2.717,2.67,2.67,0,0,1,2.8-2.751,2.753,2.753,0,0,1,2.639,2.78A2.8,2.8,0,0,1-156.647,101.059Z" transform="translate(328.309 470.157)" fill="#008083"/>
  </g>
</svg>
