<svg xmlns="http://www.w3.org/2000/svg" width="18.899" height="16.421" viewBox="0 0 18.899 16.421">
  <g id="Group_6" data-name="Group 6" transform="translate(-19 -74)">
    <g id="_1706011671582994862" data-name="1706011671582994862" transform="translate(19 74)">
      <path id="Path_5" data-name="Path 5" d="M11.863,44.3c-1.064-.531-3.4-1.314-3.4-1.314v-.771l.065-.049a2.23,2.23,0,0,0,.847-1.418l.013-.082h.063a.861.861,0,0,0,.8-.537.935.935,0,0,0,.117-.454.863.863,0,0,0-.061-.32.447.447,0,0,0-.173-.278l-.215-.131.054-.234a2.707,2.707,0,0,0-2.689-3.266c-.043,0-.086,0-.128,0s-.085,0-.128,0a2.707,2.707,0,0,0-2.689,3.266l.054.234-.215.131A.447.447,0,0,0,4,39.357a.869.869,0,0,0-.061.32.939.939,0,0,0,.117.454.862.862,0,0,0,.8.537H4.92l.013.082a2.229,2.229,0,0,0,.847,1.418l.065.049v.771s-2.335.784-3.4,1.314a1.134,1.134,0,0,0-.612.824,24.723,24.723,0,0,0-.214,2.859H12.689a24.719,24.719,0,0,0-.214-2.859,1.135,1.135,0,0,0-.612-.824Z" transform="translate(-1.62 -31.563)"/>
      <path id="Path_6" data-name="Path 6" d="M81.081,55.169a.864.864,0,0,1-.485.1A2.118,2.118,0,0,1,80,55.184a3.084,3.084,0,0,1-.485-.18l-.249.667a4.158,4.158,0,0,0,.391.159,2.659,2.659,0,0,0,.688.131v.69h.731v-.707a1.549,1.549,0,0,0,.478-.151,1.052,1.052,0,0,0,.316-.25.9.9,0,0,0,.174-.316,1.184,1.184,0,0,0,.052-.344,1,1,0,0,0-.339-.78,1.755,1.755,0,0,0-.377-.251,4.422,4.422,0,0,0-.473-.2c-.112-.038-.208-.075-.287-.108a1.176,1.176,0,0,1-.2-.1.338.338,0,0,1-.118-.118.317.317,0,0,1-.038-.16.293.293,0,0,1,.122-.244.667.667,0,0,1,.4-.093,2.319,2.319,0,0,1,.53.058,2.7,2.7,0,0,1,.444.138l.18-.7a2.306,2.306,0,0,0-.345-.115,3.162,3.162,0,0,0-.519-.088v-.6h-.731v.626a1.484,1.484,0,0,0-.44.148.953.953,0,0,0-.473.568,1.225,1.225,0,0,0-.055.368.888.888,0,0,0,.327.724,1.5,1.5,0,0,0,.33.206c.122.057.247.108.374.154s.247.09.348.131a1.426,1.426,0,0,1,.25.126.508.508,0,0,1,.151.141.34.34,0,0,1,.052.189A.313.313,0,0,1,81.081,55.169Z" transform="translate(-67.506 -45.2)"/>
      <path id="Path_7" data-name="Path 7" d="M68.511,14.053l-1.062-.806.672-2.841a.491.491,0,0,0-.478-.605H62.469a.491.491,0,0,0-.478.605l.672,2.842-1.062.8a5.722,5.722,0,0,0-.75.681,3.472,3.472,0,0,1,.359,1.114,4.682,4.682,0,0,1,.985-1.012l.875-.664a.5.5,0,0,0,.212.049h1a.492.492,0,1,0,0-.983H63.67l-.581-2.454h3.933l-.581,2.454H66a.492.492,0,1,0,0,.983h.83a.5.5,0,0,0,.212-.049l.875.664a4.76,4.76,0,0,1,1.874,3.985,4.553,4.553,0,0,1-2.123,3.706,4.789,4.789,0,0,1-2.464.745q-.148,0-.3,0a4.923,4.923,0,0,1-1.261-.2c.009.042.018.085.025.128.048.277.085.6.115.919a5.912,5.912,0,0,0,1.092.133l.176,0,.175,0a5.826,5.826,0,0,0,2.964-.9,5.521,5.521,0,0,0,2.578-4.5A5.739,5.739,0,0,0,68.511,14.053Z" transform="translate(-51.878 -9.801)"/>
    </g>
  </g>
</svg>
