<svg xmlns="http://www.w3.org/2000/svg" width="18" height="16" stroke="#fff" stroke-linecap="round" stroke-linejoin="miter" fill="#fff" fill-rule="nonzero"><path d="M7.3323 2.4938v6.7s-1.019 4.852-3.914 5.683a9.9 9.9 0 0 1-4.075.59v-3.4s4.316.295 4.477-2.815l-.107-6.755z"/><path d="M-.7496 3.0298h12.7549l4.432-3.458H2.4803s-3.27.402-3.2299 3.458z"/><path d="M16.3664-.4993v3.5c-1.8252.2225-3.4063 1.3711-4.1821 3.038-1.215 2.788 1.93 6.469 4.1821 5.969v3.491c-3.3488-.1224-6.2954-2.2466-7.4701-5.385-2.2869-5.502 3.3241-10.685 7.4701-10.613z"/></svg>