<svg xmlns="http://www.w3.org/2000/svg" width="18.325" height="17.631" viewBox="0 0 18.325 17.631">
  <g id="Group_8" data-name="Group 8" transform="translate(-19 -126)">
    <g id="_2799012341582884271" data-name="2799012341582884271" transform="translate(19 126)">
      <rect id="Rectangle_1" data-name="Rectangle 1" width="1.511" height="1.511" transform="translate(2.262 10.114)"/>
      <rect id="Rectangle_2" data-name="Rectangle 2" width="1.511" height="1.511" transform="translate(4.933 10.114)"/>
      <rect id="Rectangle_3" data-name="Rectangle 3" width="1.511" height="1.511" transform="translate(2.262 12.84)"/>
      <rect id="Rectangle_4" data-name="Rectangle 4" width="1.511" height="1.511" transform="translate(4.933 12.84)"/>
      <rect id="Rectangle_5" data-name="Rectangle 5" width="1.511" height="1.511" transform="translate(13.903 12.84)"/>
      <rect id="Rectangle_6" data-name="Rectangle 6" width="1.511" height="1.511" transform="translate(13.903 10.114)"/>
      <rect id="Rectangle_7" data-name="Rectangle 7" width="1.511" height="1.511" transform="translate(5.666 4.808)"/>
      <rect id="Rectangle_8" data-name="Rectangle 8" width="1.511" height="1.511" transform="translate(8.336 4.808)"/>
      <path id="Path_9" data-name="Path 9" d="M14.04,11.2V10.108h0V4.366L5.5,7.609V11.2H2.02V22H20.345V11.2ZM9.7,20.97H3.047V12.227H9.7Zm3.312-10.862h-.026V20.97h-2.6V11.543H6.53V8.317l6.481-2.462ZM19.318,20.97H14.04V12.227h5.278Z" transform="translate(-2.02 -4.366)"/>
    </g>
  </g>
</svg>
