<svg xmlns="http://www.w3.org/2000/svg" width="18.412" height="15.026" viewBox="0 0 18.412 15.026">
  <g id="Group_7" data-name="Group 7" transform="translate(-19 -101)">
    <g id="home-loan-icon" transform="translate(19 101)">
      <path id="Path_8" data-name="Path 8" d="M1.393,12.452V7.128a1.12,1.12,0,0,1-.768.036.911.911,0,0,1-.424-.3A.934.934,0,0,1,.006,6.39,1.207,1.207,0,0,1,.3,5.5h0a.28.28,0,0,1,.041-.041l6.9-5.39A.253.253,0,0,1,7.569.054l4.6,3.579-.043.015a2.983,2.983,0,0,0-1.656,1.311C9.17,3.911,7.735,2.778,7.46,2.565c-.555.422-5.39,4.145-5.39,4.3v5.588l-.678,0ZM14.639,6.759l-.049-.326a.28.28,0,0,0,.172-.092.227.227,0,0,0-.034-.334.379.379,0,0,0-.256-.059.34.34,0,0,0-.234.083.235.235,0,0,0-.071.188.334.334,0,0,0,.138.248l-.027.269-.969-.116.026-.879.307-.015.03.621.294.037a.5.5,0,0,1-.066-.223.492.492,0,0,1,.141-.378.572.572,0,0,1,.406-.172.621.621,0,0,1,.384.1.547.547,0,0,1,.249.454.575.575,0,0,1-.109.393.519.519,0,0,1-.334.2Zm-2.822,3.5a1.094,1.094,0,0,1-.509-.848.857.857,0,0,1,.129-.443,1.8,1.8,0,0,0,.775.643,3.887,3.887,0,0,0-.394.649Zm3.5-1.413a3.091,3.091,0,1,1-3.091,3.091,3.091,3.091,0,0,1,3.091-3.091Zm-1.156,2.2a.269.269,0,0,0-.206.077.374.374,0,0,0,0,.441.266.266,0,0,0,.206.078.269.269,0,0,0,.207-.078.381.381,0,0,0,0-.441.268.268,0,0,0-.207-.077Zm2.312,1.342a.269.269,0,0,0-.207.078.374.374,0,0,0,0,.441.314.314,0,0,0,.413,0,.374.374,0,0,0,0-.441.262.262,0,0,0-.206-.078Zm0-.477a.842.842,0,0,1,.6.212.814.814,0,0,1,0,1.126.949.949,0,0,1-1.195,0,.816.816,0,0,1,0-1.126.843.843,0,0,1,.6-.212Zm-2.312-1.342a.839.839,0,0,1,.6.212.816.816,0,0,1,0,1.126.948.948,0,0,1-1.195,0,.814.814,0,0,1,0-1.126.836.836,0,0,1,.6-.212Zm1.806.11h.67L14.68,13.35h-.67l1.962-2.668Zm-4.513.825a.872.872,0,0,1-.151-.479.856.856,0,0,1,.129-.443,1.247,1.247,0,0,0,.168.218,3.854,3.854,0,0,0-.145.7ZM11.4,6.128a3.119,3.119,0,0,1,2.732-1.1h0c1.56,0,2.827.664,2.827,1.482S15.694,7.99,14.134,7.99A3.14,3.14,0,0,1,11.408,6.9a1.12,1.12,0,0,1-.006-.772Zm2.732-.8c1.283,0,2.323.408,2.323.911s-1.04.911-2.323.911-2.323-.408-2.323-.911,1.04-.911,2.323-.911ZM16.842,7.5a.846.846,0,0,1,.119.425.856.856,0,0,1-.125.436,3.855,3.855,0,0,0-.727-.228,1.728,1.728,0,0,0,.734-.634ZM12.6,9.166c-.777-.264-1.292-.722-1.292-1.245a.856.856,0,0,1,.118-.425,2.765,2.765,0,0,0,2.059,1.016,3.907,3.907,0,0,0-.886.653ZM7.665,6.739V8.916H9.618V8.91A2.191,2.191,0,0,0,7.665,6.739Zm0,2.637v1.89H9.618V9.376ZM7.2,11.265V9.376H5.252v1.89H7.2Zm0-2.349V6.739A2.191,2.191,0,0,0,5.252,8.91v.006H7.2Zm-2.9,3.308h6.064a3.143,3.143,0,0,0,.157.46H4.307v-.46ZM7.435,6.268a2.648,2.648,0,0,1,2.642,2.641v2.815H4.792V8.909A2.648,2.648,0,0,1,7.435,6.268ZM11.346.43l2.078.085V3.321L11.346,1.95V.43Z" transform="translate(0 0)" fill-rule="evenodd"/>
    </g>
  </g>
</svg>
