<svg xmlns="http://www.w3.org/2000/svg" width="21.609" height="20.687" viewBox="0 0 21.609 20.687">
  <g id="Group_9" data-name="Group 9" transform="translate(-19 -154)">
    <g id="Group_1" data-name="Group 1" transform="translate(19 153.886)">
      <rect id="Rectangle_10" data-name="Rectangle 10" width="20.687" height="20.687" transform="translate(0.383 0.114)" fill="none"/>
      <path id="Path_10" data-name="Path 10" d="M1042.005,761.934c.148-.163.512-.6.9-1.06.353-.424.721-.865,1-1.165a3.842,3.842,0,0,0-1.736,1.465,3.637,3.637,0,0,1-.318.373c-.064.068-.127.136-.167.183a1.442,1.442,0,0,1-.227.212h0c-.074.057-.14.1-.2.144h0l-.014.009a1.025,1.025,0,0,1-.508.213h-.007a7.145,7.145,0,0,0-1.971.366,2.061,2.061,0,0,0-.562.281h0l-.029.022h0a4.98,4.98,0,0,0-1.862,2.7h0a3,3,0,0,0-.05.458.917.917,0,0,0,.018.248l.015.071c.018.142.019.153.021.165a5.325,5.325,0,0,1,.054.533v.015l0,.766,2.61,0v-.875a2.052,2.052,0,0,1,.847-1.469h0l.016-.013.059-.041a34.271,34.271,0,0,0,3.516-2.244h0a22.153,22.153,0,0,0,1.767-3.845v-.685h0c-.03-.877-.14-1.963-.14-1.966l0-.008c-.011-.133-.026-.292-.044-.434a4.663,4.663,0,0,0-.141.848c-.011.1-.023.222-.038.368-.046.449-.112,1.092-.136,1.175l-.827-.236s.062-.6.105-1.027c.018-.179.034-.332.038-.371a5.118,5.118,0,0,1,.185-1.039,1.114,1.114,0,0,1,.69-.772l0,0a.682.682,0,0,1,.376-.03.656.656,0,0,1,.349.2h0a1.273,1.273,0,0,1,.229.632c.034.217.057.444.071.616h0c.01.1.115,1.158.143,2.029l0,.014v.69l0,.022a11.333,11.333,0,0,1-.834,2.22,13.909,13.909,0,0,1-1.134,2.152h0a30.161,30.161,0,0,1-3.713,2.418c-.118.1-.52.431-.52.8v1.735h-.432l-3.472,0h-.43v-.431l0-1.182h0c-.005-.14-.026-.295-.047-.449-.01-.072-.016-.116-.02-.145a1.839,1.839,0,0,1-.041-.471,3.981,3.981,0,0,1,.063-.606l0-.012a5.839,5.839,0,0,1,2.186-3.212c.038-.028-.025.02.021-.015h0a2.921,2.921,0,0,1,.8-.41,7.983,7.983,0,0,1,2.2-.416h0c.01,0,.044-.036.092-.068l.014-.009,0,0c.057-.038.115-.077.157-.109h0a.589.589,0,0,0,.093-.085c.078-.093.137-.156.2-.22a3.068,3.068,0,0,0,.247-.286,4.578,4.578,0,0,1,2.214-1.8l.011,0a1.148,1.148,0,0,1,.675-.011.909.909,0,0,1,.335.175.644.644,0,0,1,.234.446.8.8,0,0,1-.172.538l-.27.172c-.115.022-.427.628-.932,1.234-.406.488-.792.95-.919,1.091Zm2.067-2.4.01-.01-.015-.011A.125.125,0,0,1,1044.072,759.536Zm-5.912,3.443s0,0,0,0Z" transform="translate(-1024.429 -748.476)"/>
      <path id="Path_11" data-name="Path 11" d="M227.391,762.515c-.127-.14-.513-.6-.919-1.091-.505-.606-.817-1.213-.932-1.234l-.27-.172a.8.8,0,0,1-.172-.538.644.644,0,0,1,.234-.446.908.908,0,0,1,.335-.175,1.148,1.148,0,0,1,.675.011l.011,0a4.578,4.578,0,0,1,2.214,1.8,3.046,3.046,0,0,0,.247.286c.06.064.119.127.2.22a.6.6,0,0,0,.093.085h0c.042.032.1.071.157.109l0,0,.014.009c.048.033.082.068.092.068h0a7.984,7.984,0,0,1,2.2.416,2.922,2.922,0,0,1,.8.41h0c.04.031-.018-.014.021.015a5.838,5.838,0,0,1,2.186,3.212l0,.012a3.959,3.959,0,0,1,.063.606,1.834,1.834,0,0,1-.041.471c0,.03-.01.073-.02.145-.021.154-.042.309-.047.449h0l0,1.182v.431h-.43l-3.472,0H230.2V767.06c0-.364-.4-.7-.52-.8a30.158,30.158,0,0,1-3.713-2.418h0a13.9,13.9,0,0,1-1.134-2.152,11.326,11.326,0,0,1-.834-2.22l0-.022v-.69l0-.014c.029-.871.133-1.924.143-2.029h0c.014-.171.036-.4.071-.616a1.272,1.272,0,0,1,.229-.632h0a.655.655,0,0,1,.349-.2.682.682,0,0,1,.376.03l0,0a1.114,1.114,0,0,1,.69.772,5.126,5.126,0,0,1,.185,1.039c0,.042.02.193.038.372.043.421.1,1.021.105,1.024l-.827.24c-.024-.082-.089-.725-.136-1.175q-.022-.22-.038-.369a4.65,4.65,0,0,0-.141-.848c-.018.142-.033.3-.044.434l0,.008s-.111,1.089-.14,1.966h0v.685a22.138,22.138,0,0,0,1.767,3.845h0a34.271,34.271,0,0,0,3.516,2.244l.059.041.016.013h0a2.052,2.052,0,0,1,.847,1.469v.875l2.61,0,0-.766v-.015a5.29,5.29,0,0,1,.054-.533c0-.012,0-.023.021-.165l.015-.071a.921.921,0,0,0,.019-.248,3,3,0,0,0-.05-.458h0a4.98,4.98,0,0,0-1.862-2.7l-.029-.023h0a2.059,2.059,0,0,0-.561-.281,7.145,7.145,0,0,0-1.971-.366H229.3a1.024,1.024,0,0,1-.508-.214l-.014-.009h0c-.065-.043-.13-.087-.2-.144h0a1.443,1.443,0,0,1-.227-.212c-.039-.047-.1-.115-.167-.183a3.622,3.622,0,0,1-.318-.373,3.843,3.843,0,0,0-1.736-1.465c.282.3.649.741,1,1.164.384.46.748.9.9,1.061l-.638.581Zm-1.439-2.988.01.01a.125.125,0,0,1,0-.021Z" transform="translate(-223.996 -748.476)"/>
      <path id="Path_12" data-name="Path 12" d="M600.247,440.148a2.625,2.625,0,1,1-1.856.769A2.617,2.617,0,0,1,600.247,440.148Zm1.422,1.2a2.011,2.011,0,1,0,.589,1.422A2,2,0,0,0,601.669,441.351Z" transform="translate(-592.576 -437.625)"/>
      <path id="Path_13" data-name="Path 13" d="M989.888,264.591a2.625,2.625,0,1,1-1.856.769A2.617,2.617,0,0,1,989.888,264.591Zm1.422,1.2a2.011,2.011,0,1,0,.589,1.422A2,2,0,0,0,991.31,265.794Z" transform="translate(-976.954 -264.439)"/>
      <path id="Path_14" data-name="Path 14" d="M704.018,690.095a4.141,4.141,0,1,1-3.6,2.1,2.941,2.941,0,0,0,.669.085,3.53,3.53,0,1,0,2.934-1.567q-.157,0-.31.014a2.913,2.913,0,0,0,.246-.627Z" transform="translate(-693.448 -684.196)"/>
      <path id="Path_15" data-name="Path 15" d="M947.166,873.006a1.143,1.143,0,0,0,.06.378,1.047,1.047,0,0,0,.156.288,1.6,1.6,0,0,0,.212.227c.077.067.154.132.231.194a2.246,2.246,0,0,1,.212.193.848.848,0,0,1,.156.218.636.636,0,0,1,.06.274.481.481,0,0,1-.035.2.226.226,0,0,1-.1.109.323.323,0,0,1-.153.033.314.314,0,0,1-.153-.033.226.226,0,0,1-.1-.109.479.479,0,0,1-.035-.2V874.5h-.525v.242a1.026,1.026,0,0,0,.151.584.688.688,0,0,0,.45.284v.258h.455v-.258a.69.69,0,0,0,.449-.284,1.02,1.02,0,0,0,.152-.584,1.145,1.145,0,0,0-.06-.378,1.05,1.05,0,0,0-.156-.288,1.6,1.6,0,0,0-.212-.227c-.077-.067-.154-.133-.231-.194a2.262,2.262,0,0,1-.212-.193.825.825,0,0,1-.155-.218.624.624,0,0,1-.061-.274.409.409,0,0,1,.072-.269.306.306,0,0,1,.411,0,.409.409,0,0,1,.072.269v.146h.525v-.111a1.02,1.02,0,0,0-.15-.582.686.686,0,0,0-.446-.282v-.263h-.455v.263a.68.68,0,0,0-.438.286,1.018,1.018,0,0,0-.147.577Z" transform="translate(-937.384 -863.526)"/>
      <path id="Path_16" data-name="Path 16" d="M1144.253,396.784h.327V396.1l.413-1.389h-.312l-.249.947-.249-.947h-.341l.413,1.389Z" transform="translate(-1131.417 -392.797)"/>
      <rect id="Rectangle_11" data-name="Rectangle 11" width="1.396" height="0.186" transform="translate(12.295 3.193)"/>
      <rect id="Rectangle_12" data-name="Rectangle 12" width="1.396" height="0.186" transform="translate(12.295 3.509)"/>
      <path id="Path_17" data-name="Path 17" d="M729.161,567.995a.72.72,0,0,1-.294.067.433.433,0,0,1-.333-.132.406.406,0,0,1-.085-.181h.648v-.184h-.685v-.041c0-.028,0-.054,0-.08h.682v-.183h-.643a.394.394,0,0,1,.4-.307.782.782,0,0,1,.289.062l.072-.294a.991.991,0,0,0-.388-.077.765.765,0,0,0-.6.266.785.785,0,0,0-.179.351h-.173v.183h.145c0,.026,0,.052,0,.078v.044h-.142v.184h.168a.733.733,0,0,0,.145.336.774.774,0,0,0,.63.294.874.874,0,0,0,.4-.1Z" transform="translate(-721.072 -562.412)"/>
    </g>
  </g>
</svg>
