<svg xmlns="http://www.w3.org/2000/svg" width="21" height="21" viewBox="0 0 21 21">
  <g id="Group_6428" data-name="Group 6428" transform="translate(-25 -224)">
    <g id="Rectangle_2367" data-name="Rectangle 2367" transform="translate(25 224)" fill="#fff" stroke="#707070" stroke-width="0.2">
      <rect width="21" height="21" stroke="none"/>
      <rect x="0.1" y="0.1" width="20.8" height="20.8" fill="none"/>
    </g>
    <path id="Path_6371" data-name="Path 6371" d="M1222.94,337.943s2.924-.84,3.1-.858,2.714-.578,3.4-.07,7.022,2.767,7.582,3.4,1.616.523,1.616,1.153a50.6,50.6,0,0,1-3.312,7.375c-.315.28-1.07.157-2.576-.509s-8.02-4.1-8.02-4.1-2.767-4.325-2.276-5.358Z" transform="translate(-1193.493 -106.174)" fill="#636363"/>
    <path id="Path_6372" data-name="Path 6372" d="M1275.675,364.85l1.034.477.251-.539-1.571-.734-1.727,3.691,1.571.734.253-.537-1.031-.49.484-1.024.754.346.251-.536-.75-.36Zm-3.99,1.969,1.571.735.252-.537-1.028-.491.479-1.024.757.343.249-.535-.75-.357.483-1.029,1.032.477.253-.539-1.571-.733Zm4.411.864c-.032.126-.064.232-.086.339a.992.992,0,1,0,1.941.4,1.952,1.952,0,0,0-.178-1.146,5.229,5.229,0,0,1-.243-.682.637.637,0,0,1,.216-.675.372.372,0,0,1,.318-.058.481.481,0,0,1,.208.272,1.119,1.119,0,0,1,.007.343l.509.133a.906.906,0,0,0-.451-1.225.894.894,0,0,0-1.24.352,1.237,1.237,0,0,0-.123,1.094c.107.309.229.613.344.92a.759.759,0,0,1-.033.734.415.415,0,0,1-.46.186.362.362,0,0,1-.258-.395c0-.129.028-.257.044-.393Zm-4.108-3.3-.749-.36.481-1.027,1.033.476.254-.537-1.572-.735-1.727,3.691.537.25.739-1.567.756.345Z" transform="translate(-1236.619 -129.325)" fill="#fff"/>
    <path id="Path_6373" data-name="Path 6373" d="M1203.228,310.978c-.623,1.37-1.241,2.742-1.869,4.109-.412.9-.837,1.793-1.257,2.689a1.245,1.245,0,0,1-1.766.647q-4.354-2.034-8.706-4.072a2.8,2.8,0,0,1-1.366-1.36q-.793-1.637-1.6-3.265a.665.665,0,0,0-.247-.257,7.249,7.249,0,0,1-3.046-3.2,7.356,7.356,0,0,1-.313-1.089v-.355c.028-.127.049-.256.085-.38a2.265,2.265,0,0,1,1.573-1.712,1.994,1.994,0,0,1,1.554.234,4.226,4.226,0,0,1,1.706,1.956,9.137,9.137,0,0,1,.783,2.91.421.421,0,0,0,.089.2.6.6,0,1,1-.924.083.4.4,0,0,0,.059-.216c-.019-.221-.056-.44-.089-.686a1.333,1.333,0,0,0-.784.942,1.277,1.277,0,0,0,.1.9q.913,1.874,1.837,3.743a1.885,1.885,0,0,0,.943.857q2.781,1.3,5.558,2.6l3.081,1.444a.507.507,0,0,0,.793-.287l2.924-6.254c.187-.4.108-.616-.293-.8q-4.283-2-8.566-4.012a2.2,2.2,0,0,0-1.547-.156c-.849.219-2.494.632-3.368.845l-.151-.752c.36-.088,1.5-.388,1.858-.475l1.6-.392a2.71,2.71,0,0,1,1.84.195q3.909,1.831,7.82,3.659c.291.136.58.275.873.408a1.255,1.255,0,0,1,.783.987.263.263,0,0,0,.034.069Zm-15.5-4.534c-.074-.227-.134-.434-.209-.636a4.437,4.437,0,0,0-1.194-1.871,1.568,1.568,0,0,0-1.306-.475,1.411,1.411,0,0,0-1.095,1.07,1.924,1.924,0,0,0,.161,1.469,6.288,6.288,0,0,0,2.151,2.436c.012.009.034,0,.06.007A2.221,2.221,0,0,1,1187.723,306.445Z" transform="translate(-1157.642 -75.065)" fill="#636363"/>
    <path id="Path_6374" data-name="Path 6374" d="M1316.372,383.9l-.481,1.026.75.361-.251.536-.754-.346-.484,1.024,1.031.49-.253.537-1.571-.734,1.727-3.691,1.571.734-.252.539Z" transform="translate(-1277.316 -148.374)" fill="#fff"/>
    <path id="Path_6375" data-name="Path 6375" d="M1292.03,376.35l1.727-3.69,1.571.733-.253.539-1.032-.477-.483,1.029.75.357-.25.535-.757-.343-.479,1.024,1.028.491-.252.537Z" transform="translate(-1256.964 -138.856)" fill="#fff"/>
    <path id="Path_6376" data-name="Path 6376" d="M1340.691,399.165l.515.2c-.016.136-.041.264-.044.393a.362.362,0,0,0,.258.395.416.416,0,0,0,.46-.186.759.759,0,0,0,.034-.734c-.115-.307-.237-.61-.344-.92a1.238,1.238,0,0,1,.123-1.094.894.894,0,0,1,1.24-.352.906.906,0,0,1,.451,1.225l-.509-.133a1.12,1.12,0,0,0-.007-.343.48.48,0,0,0-.208-.272.372.372,0,0,0-.318.058.637.637,0,0,0-.216.675,5.227,5.227,0,0,0,.243.682,1.952,1.952,0,0,1,.178,1.146.992.992,0,1,1-1.941-.4C1340.627,399.4,1340.659,399.292,1340.691,399.165Z" transform="translate(-1301.214 -160.807)" fill="#fff"/>
    <path id="Path_6377" data-name="Path 6377" d="M1271.988,364.386l-.249.536-.756-.345-.739,1.567-.537-.25,1.727-3.691,1.572.735-.254.537L1271.72,363l-.481,1.027Z" transform="translate(-1236.619 -129.325)" fill="#fff"/>
  </g>
</svg>
