<svg xmlns="http://www.w3.org/2000/svg" width="18.734" height="18.904" viewBox="0 0 18.734 18.904">
  <g id="Group_12" data-name="Group 12" transform="translate(-19 -246)">
    <g id="_9239288201637587249" data-name="9239288201637587249" transform="translate(17 244)">
      <path id="Path_42" data-name="Path 42" d="M2.63,20.9h1.89a.632.632,0,0,0,.63-.63v-.63h7.121a8.469,8.469,0,0,0,8.318-6.995l.126-.788a1.223,1.223,0,0,0-.252-.977,1.135,1.135,0,0,0-.914-.41,1.484,1.484,0,0,0-.536.126V9.247h.315a.276.276,0,0,0,.284-.189.288.288,0,0,0-.063-.347L17.029,6.19a.3.3,0,0,0-.441,0l-.725.725V2.63a.3.3,0,0,0-.315-.315H12.4a.3.3,0,0,0-.315.315V6.1H10.79a4.1,4.1,0,0,0-.567-1.008l.788-1.953a.529.529,0,0,0-.126-.6.571.571,0,0,0-.63-.095l-.6.284-.378-.5A.539.539,0,0,0,8.868,2a.59.59,0,0,0-.441.158l-.473.473-.315-.41A.539.539,0,0,0,7.23,2a.484.484,0,0,0-.41.158l-.6.6L5.308,2.5a.493.493,0,0,0-.567.189.584.584,0,0,0-.063.6l.945,1.764A6.37,6.37,0,0,0,4.205,8.9v.977a1.9,1.9,0,0,0,1.89,1.89h12.1l-.662,1.323-1.733.756a1.56,1.56,0,0,0-1.512-1.134H9.751A8.744,8.744,0,0,0,5.151,14v-.662a.632.632,0,0,0-.63-.63H2.63a.632.632,0,0,0-.63.63v6.931A.632.632,0,0,0,2.63,20.9ZM6.159,3.386a.545.545,0,0,0,.536-.126l.567-.567.315.41a.539.539,0,0,0,.41.221.484.484,0,0,0,.41-.158l.473-.473.378.473a.536.536,0,0,0,.693.158l.473-.221L9.656,4.836H8.805l.41-.819-.567-.284-.536,1.1H7.545L7.1,3.922l-.567.284.315.63H6.285L5.4,3.2ZM9.247,6.411v4.726H6.1a1.264,1.264,0,0,1-1.26-1.26V8.9A5.17,5.17,0,0,1,6.19,5.466h3.56a3.555,3.555,0,0,1,.378.63H9.562A.3.3,0,0,0,9.247,6.411Zm.63.315h2.205v4.411H9.877Zm6.931.126,1.764,1.764H15.044Zm-4.1-3.907h2.521v4.6L14.067,8.711A.288.288,0,0,0,14,9.058a.3.3,0,0,0,.284.189H14.6v1.89h-1.89Zm2.521,6.3h3.151v1.89h-.63V9.877a.3.3,0,0,0-.315-.315h-1.26a.3.3,0,0,0-.315.315v1.26h-.63Zm1.89,1.89h-.63v-.945h.63ZM9.751,13.342h4.537a.945.945,0,0,1,0,1.89H9.247v.63h5.041a1.563,1.563,0,0,0,1.544-1.355l2.048-.882a.38.38,0,0,0,.158-.158l1.008-2.048a.561.561,0,0,1,.5-.315.622.622,0,0,1,.441.189.468.468,0,0,1,.126.441l-.158.819a7.853,7.853,0,0,1-7.688,6.459H5.151V14.76A8.252,8.252,0,0,1,9.751,13.342Zm-7.121,0h1.89v6.931H2.63Z"/>
      <rect id="Rectangle_13" data-name="Rectangle 13" height="1" transform="translate(3.452 14.452)"/>
      <rect id="Rectangle_14" data-name="Rectangle 14" height="1" transform="translate(13.452 3.452)"/>
      <rect id="Rectangle_15" data-name="Rectangle 15" height="1" transform="translate(14.452 3.452)"/>
      <rect id="Rectangle_16" data-name="Rectangle 16" height="1" transform="translate(13.452 4.452)"/>
      <rect id="Rectangle_17" data-name="Rectangle 17" height="1" transform="translate(14.452 4.452)"/>
      <rect id="Rectangle_18" data-name="Rectangle 18" transform="translate(13.452 6.452)"/>
      <rect id="Rectangle_19" data-name="Rectangle 19" transform="translate(14.452 6.452)"/>
      <rect id="Rectangle_20" data-name="Rectangle 20" height="1" transform="translate(10.452 7.452)"/>
      <rect id="Rectangle_21" data-name="Rectangle 21" height="1" transform="translate(11.452 7.452)"/>
      <rect id="Rectangle_22" data-name="Rectangle 22" height="1" transform="translate(10.452 8.452)"/>
      <rect id="Rectangle_23" data-name="Rectangle 23" height="1" transform="translate(11.452 8.452)"/>
      <rect id="Rectangle_24" data-name="Rectangle 24" height="1" transform="translate(10.452 9.452)"/>
      <rect id="Rectangle_25" data-name="Rectangle 25" height="1" transform="translate(11.452 9.452)"/>
      <rect id="Rectangle_26" data-name="Rectangle 26" height="1" transform="translate(13.452 7.452)"/>
      <rect id="Rectangle_27" data-name="Rectangle 27" height="1" transform="translate(14.452 7.452)"/>
      <path id="Path_43" data-name="Path 43" d="M18.575,17.315H18.26V17h-.63v.315h-.315A.3.3,0,0,0,17,17.63v.945a.3.3,0,0,0,.315.315h.945v.315H17v.315a.3.3,0,0,0,.315.315h.315v.315h.63v-.315h.315a.3.3,0,0,0,.315-.315v-.945a.3.3,0,0,0-.315-.315H17.63v-.315h1.26V17.63A.3.3,0,0,0,18.575,17.315Z" transform="translate(-10.274 -10.274)"/>
      <rect id="Rectangle_28" data-name="Rectangle 28" height="1" transform="translate(18.452 2.452)"/>
      <rect id="Rectangle_29" data-name="Rectangle 29" width="1" transform="translate(18.452 2.452)"/>
      <rect id="Rectangle_30" data-name="Rectangle 30" width="1" height="1" transform="translate(19.452 2.452)"/>
      <rect id="Rectangle_31" data-name="Rectangle 31" width="1" transform="translate(18.452 3.452)"/>
      <rect id="Rectangle_32" data-name="Rectangle 32" transform="translate(20.452 4.452)"/>
      <rect id="Rectangle_33" data-name="Rectangle 33" transform="translate(18.452 5.452)"/>
      <rect id="Rectangle_34" data-name="Rectangle 34" height="1" transform="translate(2.452 4.452)"/>
      <rect id="Rectangle_35" data-name="Rectangle 35" width="1" transform="translate(2.452 4.452)"/>
      <rect id="Rectangle_36" data-name="Rectangle 36" height="1" transform="translate(3.452 4.452)"/>
      <rect id="Rectangle_37" data-name="Rectangle 37" width="1" height="1" transform="translate(2.452 5.452)"/>
      <rect id="Rectangle_38" data-name="Rectangle 38" height="1" transform="translate(2.452 7.452)"/>
      <rect id="Rectangle_39" data-name="Rectangle 39" transform="translate(3.452 2.452)"/>
    </g>
  </g>
</svg>
