<svg xmlns="http://www.w3.org/2000/svg" width="21" height="21" viewBox="0 0 21 21">
  <g id="Group_6429" data-name="Group 6429" transform="translate(-25 -198)">
    <g id="Rectangle_2369" data-name="Rectangle 2369" transform="translate(25 198)" fill="#fff" stroke="#707070" stroke-width="0.2">
      <rect width="21" height="21" stroke="none"/>
      <rect x="0.1" y="0.1" width="20.8" height="20.8" fill="none"/>
    </g>
    <g id="Group_6411" data-name="Group 6411" transform="translate(-900.49 -147.701)">
      <path id="Path_6356" data-name="Path 6356" d="M968.25,368.085c-.056-1.03-.111-2.029-.169-3.1h10.913c.775,0,.945-.164.946-.921q0-4.706,0-9.412c0-.7-.18-.885-.882-.886-2.539,0-5.077-.008-7.616.006a.633.633,0,0,1-.672-.42,15.4,15.4,0,0,0-.882-1.411c.15-.01.3-.029.459-.029q4.48,0,8.96,0c.984,0,1.271.289,1.272,1.277q0,6.823,0,13.645c0,.956-.3,1.255-1.246,1.255H968.25Zm5.446-.921a6.569,6.569,0,0,0,1.191-.018,1.773,1.773,0,0,0,.837-.431.736.736,0,0,0,.1-.628c-.029-.1-.328-.174-.507-.177-1.045-.016-2.09-.019-3.134,0-.205,0-.571.12-.579.21a.984.984,0,0,0,.206.71,1.341,1.341,0,0,0,.743.318A8.408,8.408,0,0,0,973.7,367.164Zm1.555-14.608h-3.06v.557h3.06Z" transform="translate(-35.715 -4.083)" fill="#636363"/>
      <path id="Path_6357" data-name="Path 6357" d="M976.763,370.619h8.112v9.909l-.544.029v-6.814h-2.509v6.774H981.2v-4.909h-2.474v4.9h-.66v-2.412h-2.474v2.433l-.7.031V377.5c.993-.186,1.366-.477,1.307-1.034-.1-.943-.841-.906-1.654-.9A4.857,4.857,0,0,0,976.763,370.619Zm7.513,1.883h-6.841l.04.551h6.8Zm0-1.254h-5.55v.536h5.55Zm-3.109,2.493h-3.7v.539h3.7Zm-3.142-1.937v-.559h-.547v.559Z" transform="translate(-41.307 -20.274)" fill="#636363"/>
      <path id="Path_6358" data-name="Path 6358" d="M934.908,351.315a4.05,4.05,0,1,1-3.989-4.124A4.072,4.072,0,0,1,934.908,351.315Zm-.949-.077a3.1,3.1,0,1,0-3.084,3.107A3.078,3.078,0,0,0,933.959,351.237Z" fill="#636363"/>
      <path id="Path_6359" data-name="Path 6359" d="M935.73,418.785v.636c-.973,0-1.927.008-2.88-.013-.1,0-.236-.162-.275-.277-.372-1.079-.74-2.16-1.081-3.249a1.868,1.868,0,0,1,.744-2.147,17.2,17.2,0,0,1,1.534-1.009.684.684,0,0,1,.635.024.451.451,0,0,1-.1.73,2.292,2.292,0,0,0-1.055,2.435c.04.577,0,1.16.008,1.739.008.794.331,1.12,1.114,1.129C934.822,418.789,935.266,418.785,935.73,418.785Z" transform="translate(-3.975 -56.653)" fill="#636363"/>
      <path id="Path_6360" data-name="Path 6360" d="M1033.229,404.463V398.25h1.208c.008.173.023.347.023.522,0,1.706-.014,3.413.011,5.119.007.453-.112.641-.576.577A5.08,5.08,0,0,0,1033.229,404.463Z" transform="translate(-92.088 -44.183)" fill="#636363"/>
      <path id="Path_6361" data-name="Path 6361" d="M936.8,469.317l.449-1.818c1.027,0,2.063,0,3.1.01.073,0,.184.132.209.221.138.507.254,1.02.391,1.587Z" transform="translate(-8.647 -104.104)" fill="#636363"/>
      <path id="Path_6362" data-name="Path 6362" d="M1011.36,416.5h-1.172v-4.3h1.172Z" transform="translate(-72.15 -56.256)" fill="#636363"/>
      <path id="Path_6363" data-name="Path 6363" d="M951.753,427c.085.391,0,.6-.422.6-1.64-.029-1.366.224-1.389-1.336-.009-.579,0-1.159,0-1.738a.987.987,0,0,1,.711-.964,6.385,6.385,0,0,0-.062,1.019c.059.572-.03,1.149.023,1.706C950.669,426.858,951.217,427,951.753,427Z" transform="translate(-20.015 -66.083)" fill="#636363"/>
      <path id="Path_6364" data-name="Path 6364" d="M988.376,432.561h-1.169V430.75h1.169Z" transform="translate(-52.265 -72.306)" fill="#636363"/>
      <path id="Path_6365" data-name="Path 6365" d="M960.086,421.715a2.283,2.283,0,0,1-.588-.013c-.129-.036-.224-.193-.334-.3.107-.105.207-.289.324-.3a5.79,5.79,0,0,1,1.18,0c.128.014.237.207.354.319-.115.1-.216.247-.348.281A2.34,2.34,0,0,1,960.086,421.715Z" transform="translate(-27.999 -63.932)" fill="#636363"/>
      <path id="Path_6366" data-name="Path 6366" d="M960.083,440.206a2.277,2.277,0,0,1-.588-.014c-.128-.036-.223-.194-.333-.3.108-.1.208-.288.325-.3a5.781,5.781,0,0,1,1.18,0c.128.014.236.208.353.32-.115.1-.217.246-.349.28A2.353,2.353,0,0,1,960.083,440.206Z" transform="translate(-27.997 -79.933)" fill="#636363"/>
      <path id="Path_6367" data-name="Path 6367" d="M968.637,412.632v-.6c.513,0,1.031-.015,1.547.013.093.005.266.216.245.281-.039.122-.188.286-.3.293C969.641,412.65,969.15,412.632,968.637,412.632Z" transform="translate(-36.196 -56.105)" fill="#636363"/>
      <path id="Path_6368" data-name="Path 6368" d="M960.257,430.426a2.247,2.247,0,0,1,.588.013.512.512,0,0,1,.3.3c.019.062-.164.264-.265.272a8.7,8.7,0,0,1-1.279,0c-.1-.007-.289-.2-.271-.266a.494.494,0,0,1,.291-.309A2.661,2.661,0,0,1,960.257,430.426Z" transform="translate(-28.14 -72.014)" fill="#636363"/>
      <path id="Path_6369" data-name="Path 6369" d="M958.9,411.452l.615-.082v.672l-.563.042Z" transform="translate(-27.774 -55.536)" fill="#636363"/>
      <path id="Path_6370" data-name="Path 6370" d="M950.518,366.727V366.3h-2.347v.427h.747a.639.639,0,0,1,.6.427h-1.348v.427h1.348a.639.639,0,0,1-.6.427h-.747v.515l1.192,1.192h.6l-1.28-1.28h.232a1.068,1.068,0,0,0,1.045-.854h.555v-.427h-.555a1.055,1.055,0,0,0-.2-.427Z" transform="translate(-18.487 -16.537)" fill="#636363"/>
    </g>
  </g>
</svg>
