<svg xmlns="http://www.w3.org/2000/svg" width="21" height="21" viewBox="0 0 21 21">
  <g id="Group_6430" data-name="Group 6430" transform="translate(-25 -164)">
    <g id="Rectangle_2365" data-name="Rectangle 2365" transform="translate(25 164)" fill="#fff" stroke="#707070" stroke-width="0.2">
      <rect width="21" height="21" stroke="none"/>
      <rect x="0.1" y="0.1" width="20.8" height="20.8" fill="none"/>
    </g>
    <g id="Group_6410" data-name="Group 6410" transform="translate(-644.205 -175.335)">
      <path id="Path_6348" data-name="Path 6348" d="M670.334,399.215c.715.5,1.428,1,2.145,1.5a.35.35,0,0,1,.171.276c.077.672.169,1.342.258,2.036h2.8c.387,0,.526.141.526.531q0,1.089,0,2.177c0,.377-.141.516-.52.518h-.393c0,.136,0,.262,0,.387,0,.2-.071.266-.262.269q-.311,0-.622,0c-.193,0-.26-.071-.266-.267,0-.121,0-.242,0-.376H672.9c0,.124,0,.249,0,.374,0,.2-.07.265-.263.268s-.415,0-.622,0c-.192,0-.258-.072-.264-.268,0-.116,0-.232-.006-.347,0-.005-.005-.011-.013-.027a.647.647,0,0,1-.576-.653c-.168-1.385-.354-2.768-.533-4.152q-.131-1.015-.263-2.03a.257.257,0,0,0-.028-.065Z" transform="translate(0 -49.959)" fill="#636363"/>
      <path id="Path_6349" data-name="Path 6349" d="M675.193,387.6l-.161-1.265a3.591,3.591,0,0,0,.565-.046,1.028,1.028,0,0,0,.8-.815,1.039,1.039,0,0,0-.34-1.078c-.3-.251-.629-.46-.949-.685a.165.165,0,0,0-.118-.025c-.189.043-.375.095-.6.153l.713.5c.195.136.395.266.582.412a.591.591,0,0,1,.124.8.584.584,0,0,1-.793.172c-.218-.134-.424-.287-.634-.434-.55-.383-1.1-.77-1.651-1.15a.612.612,0,0,1,.209-1.157c.737-.167,1.47-.345,2.207-.511a1.373,1.373,0,0,1,.364-.015c.366.018.73.051,1.1.063a1.677,1.677,0,0,1,.908.291c.435.293.884.564,1.322.853a.176.176,0,0,0,.252-.013q.791-.666,1.591-1.321a.593.593,0,0,1,.977.254.577.577,0,0,1-.207.654c-.671.558-1.34,1.117-2.015,1.67a.6.6,0,0,1-.791.046c-.275-.17-.545-.348-.817-.522-.05-.032-.1-.06-.18-.106l-.174,2.441,1.031.1.328.032a.741.741,0,0,1,.759.753q.192,1.773.387,3.546a.725.725,0,0,1-.408.768.675.675,0,0,1-.839-.2.667.667,0,0,1-.139-.378c-.014-.927-.008-1.855-.015-2.782a.946.946,0,0,0-.734-.985,1.506,1.506,0,0,0-.345-.027c-.7,0-1.391,0-2.087,0Z" transform="translate(-1.793 -35.092)" fill="#636363"/>
      <path id="Path_6350" data-name="Path 6350" d="M774.737,402.063h-1.231c0,.126,0,.245,0,.364-.007.2-.071.266-.264.269s-.4,0-.6,0-.258-.07-.265-.268c0-.115,0-.23,0-.375-.154,0-.292,0-.429,0a.415.415,0,0,1-.467-.478q0-1.088,0-2.177c0-.368.142-.512.507-.512h2.757c.048-.374.095-.736.14-1.1.123-.973.244-1.947.37-2.92a.5.5,0,0,1,.536-.468q.494-.016.988,0a.5.5,0,0,1,.511.625q-.364,2.8-.725,5.6-.056.435-.112.87a.589.589,0,0,1-.477.552c-.039.009-.066.077-.1.12-.006.008,0,.024,0,.036.023.548-.069.5-.514.494-.11,0-.22,0-.329,0-.223,0-.289-.07-.292-.3C774.736,402.29,774.737,402.182,774.737,402.063Z" transform="translate(-88.216 -45.752)" fill="#636363"/>
      <path id="Path_6351" data-name="Path 6351" d="M756.921,390.73h-2.229a.968.968,0,0,0-1.091,1.092c0,.72,0,1.439-.025,2.168-.021-.044-.046-.088-.064-.134-.412-1.042-.812-2.089-1.241-3.124a.743.743,0,0,1,.737-1.076c.5.021,1.011,0,1.534,0l.016-.331c.132.007.253.02.373.019a.615.615,0,0,0,.6-.377,12.405,12.405,0,0,0,.459-1.33c-.078.111-.156.221-.233.332-.163.235-.324.473-.489.707a.592.592,0,0,1-.579.274l-2.491-.274a.608.608,0,0,1-.582-.682.6.6,0,0,1,.721-.5c.672.079,1.345.155,2.018.224a.229.229,0,0,0,.177-.079,10.375,10.375,0,0,0,.614-.939l-.628.592c.01-.427-.083-.826.168-1.18a.876.876,0,0,1,.573-.395,1.914,1.914,0,0,1,1.6.3,1.4,1.4,0,0,1,.508,1.338c-.128,1.071-.273,2.141-.411,3.211C756.947,390.617,756.934,390.665,756.921,390.73Z" transform="translate(-70.891 -38.145)" fill="#636363"/>
      <path id="Path_6352" data-name="Path 6352" d="M736.177,344.6a.351.351,0,0,1-.066.016,8.648,8.648,0,0,0-1.611.149,2.833,2.833,0,0,1-2.157-.547,1.032,1.032,0,0,1,.005-1.712,3,3,0,0,1,2.376-.518,2.517,2.517,0,0,1,1.244.533,1.017,1.017,0,0,1,.261,1.4.416.416,0,0,0-.05.188C736.173,344.267,736.177,344.43,736.177,344.6Z" transform="translate(-53.691)" fill="#636363"/>
      <path id="Path_6353" data-name="Path 6353" d="M695.085,360.152a1.314,1.314,0,1,1-1.314,1.313A1.323,1.323,0,0,1,695.085,360.152Z" transform="translate(-20.442 -15.888)" fill="#636363"/>
      <path id="Path_6354" data-name="Path 6354" d="M770.554,364.186a1.313,1.313,0,1,1,1.317-1.309A1.321,1.321,0,0,1,770.554,364.186Z" transform="translate(-86.267 -17.117)" fill="#636363"/>
      <path id="Path_6355" data-name="Path 6355" d="M744.941,428.65c.1.257.2.5.3.74.139.351.281.7.411,1.053a.366.366,0,0,1,.006.239q-.283.722-.587,1.435a.706.706,0,0,1-.718.458.676.676,0,0,1-.622-.507.88.88,0,0,1,.02-.48c.374-.963.768-1.92,1.155-2.878A.517.517,0,0,1,744.941,428.65Z" transform="translate(-63.994 -75.633)" fill="#636363"/>
    </g>
  </g>
</svg>
