<svg xmlns="http://www.w3.org/2000/svg" width="216" height="172.612" viewBox="0 0 216 172.612">
  <g id="Group_6044" data-name="Group 6044" transform="translate(-87 -81.388)">
    <ellipse id="Ellipse_421" data-name="Ellipse 421" cx="108" cy="13.5" rx="108" ry="13.5" transform="translate(87 227)" fill="#008083" opacity="0.1"/>
    <g id="Group_5485" data-name="Group 5485" transform="translate(103.781 81.376)">
      <g id="freepik--Calendar--inject-27">
        <path id="Path_5268" data-name="Path 5268" d="M161.884,153.754h20.534l-9.573-82.508Z" fill="#e0e0e0"/>
        <path id="Path_5269" data-name="Path 5269" d="M60.845,71.246,47.476,154.727l114.082,1.486,11.288-84.967Z" fill="#fafafa"/>
        <path id="Path_5270" data-name="Path 5270" d="M167.765,109.489H54.72l2.459-15.371H169.807Z" fill="#ebebeb"/>
        <path id="Path_5271" data-name="Path 5271" d="M167.773,109.5H54.708L57.171,94.13H169.818Zm-113.041-.02H167.757l2.038-15.371H57.195Z" fill="#263238"/>
        <path id="Path_5272" data-name="Path 5272" d="M60.844,71.246,57.179,94.117H169.806l3.039-22.871Z" fill="#008083"/>
        <path id="Path_5273" data-name="Path 5273" d="M60.86,71.242l112-.095h.106v.106c-3.3,24.874-7.043,53.082-11,82.874v.091h-1.372L47.57,154.192h-.11v-.1l13.4-82.85c-.11.686-5.2,32.693-13.192,82.886l-.083-.1H161.849l-.1.087c3.961-29.792,7.713-58,11.036-82.87l.091.1Z" fill="#263238"/>
        <path id="Path_5274" data-name="Path 5274" d="M169.806,94.117c0,.055-25.224.1-56.31.1s-56.318-.047-56.318-.1,25.224-.1,56.318-.1S169.806,94.058,169.806,94.117Z" fill="#263238"/>
        <path id="Path_5275" data-name="Path 5275" d="M167.765,109.489c0,.059-25.358.1-56.629.1s-56.633-.043-56.633-.1,25.351-.1,56.633-.1S167.765,109.434,167.765,109.489Z" fill="#263238"/>
        <path id="Path_5276" data-name="Path 5276" d="M165.464,123.634c0,.059-25.355.1-56.625.1s-56.649-.043-56.649-.1,25.351-.1,56.633-.1S165.464,123.579,165.464,123.634Z" fill="#263238"/>
        <path id="Path_5277" data-name="Path 5277" d="M163.166,137.777c0,.055-25.358.1-56.629.1s-56.633-.047-56.633-.1,25.351-.1,56.633-.1S163.166,137.724,163.166,137.777Z" fill="#263238"/>
        <path id="Path_5278" data-name="Path 5278" d="M63.489,154.247c-.055,0,2.014-13.479,4.627-30.08s4.769-30.06,4.824-30.049-2.014,13.471-4.623,30.08S63.548,154.255,63.489,154.247Z" fill="#263238"/>
        <path id="Path_5279" data-name="Path 5279" d="M80.924,154.247c-.059,0,2.014-13.479,4.623-30.08s4.769-30.06,4.828-30.049-2.014,13.471-4.627,30.08S80.962,154.255,80.924,154.247Z" fill="#263238"/>
        <path id="Path_5280" data-name="Path 5280" d="M97.122,153.644c-.055,0,1.994-13.341,4.576-29.777s4.73-29.761,4.781-29.749-1.994,13.337-4.576,29.781S97.172,153.652,97.122,153.644Z" fill="#263238"/>
        <path id="Path_5281" data-name="Path 5281" d="M113.142,154.121c-.055,0,2.01-13.452,4.615-30.017s4.761-30,4.816-29.986-2.01,13.444-4.615,30.017S113.194,154.129,113.142,154.121Z" fill="#263238"/>
        <path id="Path_5282" data-name="Path 5282" d="M129.244,154.121c-.055,0,2.01-13.452,4.615-30.017s4.761-30,4.816-29.986-2.006,13.444-4.611,30.017S129.3,154.129,129.244,154.121Z" fill="#263238"/>
        <path id="Path_5283" data-name="Path 5283" d="M145.331,154.191c-.055,0,2.014-13.467,4.623-30.06s4.765-30.041,4.824-30.029-2.013,13.46-4.622,30.06S145.387,154.215,145.331,154.191Z" fill="#263238"/>
        <g id="Group_5479" data-name="Group 5479" opacity="0.2">
          <path id="Path_5284" data-name="Path 5284" d="M135.2,95.19a7.069,7.069,0,0,0,3.654-4.938,31.461,31.461,0,0,0,.5-6.338,12.778,12.778,0,0,1,1.411-6.137c.642-1.076,1.545-1.971,2.258-3.007A4.7,4.7,0,0,0,144,71.223l-12.131.063Z"/>
        </g>
        <path id="Path_5285" data-name="Path 5285" d="M84.9,110.628a.62.62,0,0,1-.118.142l-.363.394c-.319.327-.788.788-1.379,1.364-1.182,1.135-2.826,2.68-4.7,4.335s-3.606,3.1-4.879,4.123c-.639.512-1.159.922-1.521,1.182l-.422.315a.579.579,0,0,1-.158.1,1.6,1.6,0,0,1,.13-.13l.394-.347,1.478-1.249c1.253-1.052,2.972-2.515,4.84-4.162s3.547-3.177,4.73-4.284l1.423-1.312.394-.351A.759.759,0,0,1,84.9,110.628Z" fill="#263238"/>
        <path id="Path_5286" data-name="Path 5286" d="M83.992,122.74a4.552,4.552,0,0,1-.469-.473l-1.234-1.316c-1.064-1.131-2.491-2.653-4.064-4.335l-4.107-4.3-1.245-1.3a4.727,4.727,0,0,1-.437-.5,3.679,3.679,0,0,1,.5.441c.307.292.749.721,1.289,1.257,1.08,1.072,2.554,2.574,4.15,4.261s3.015,3.24,4.024,4.379c.5.568.91,1.033,1.182,1.356A3.63,3.63,0,0,1,83.992,122.74Z" fill="#263238"/>
        <path id="Path_5287" data-name="Path 5287" d="M88.2,114.25s.039-.1.122-.3a5.025,5.025,0,0,1,.473-.832,6.007,6.007,0,0,1,2.924-2.18,6.208,6.208,0,0,1,2.637-.347,6.891,6.891,0,0,1,3,1.021,8,8,0,0,1,2.582,2.562,6.7,6.7,0,0,1,1.076,3.911,4.481,4.481,0,0,1-.674,2.1,5.361,5.361,0,0,1-1.624,1.64,7.829,7.829,0,0,1-4.682,1.226,8.086,8.086,0,0,1-2.522-.548,6.006,6.006,0,0,1-2.207-1.5,5.134,5.134,0,0,1-.765-1.147,4.994,4.994,0,0,1-.394-1.332,6.368,6.368,0,0,1,.24-2.81,7.735,7.735,0,0,1,3.65-4.434,6.737,6.737,0,0,1,5.932-.272,6.226,6.226,0,0,1,2.487,1.9,5.967,5.967,0,0,1,1.182,2.952,5.775,5.775,0,0,1-.508,3.185,5.352,5.352,0,0,1-.938,1.356,6.421,6.421,0,0,1-1.3,1.021,7.978,7.978,0,0,1-6.342.591,7.253,7.253,0,0,1-2.759-1.577,5.075,5.075,0,0,1-1.533-2.723,4.487,4.487,0,0,1,.414-3.035,3.781,3.781,0,0,1,1-1.182,4.7,4.7,0,0,1,1.34-.705,8.42,8.42,0,0,1,2.932-.394,11.2,11.2,0,0,1,2.861.394,6.067,6.067,0,0,1,2.487,1.332,4.46,4.46,0,0,1,1.332,2.388,5.189,5.189,0,0,1-.154,2.66,5.519,5.519,0,0,1-1.376,2.187,6.772,6.772,0,0,1-4.418,1.923,5.906,5.906,0,0,1-2.286-.331,4.656,4.656,0,0,1-1.845-1.218,5,5,0,0,1-1.068-1.817,5.3,5.3,0,0,1-.288-1.971,5.239,5.239,0,0,1,1.4-3.326,6.225,6.225,0,0,1,2.653-1.714,6.1,6.1,0,0,1,2.649-.252,7.132,7.132,0,0,1,3.393,1.368,6.658,6.658,0,0,1,.729.623c.154.154.229.236.229.236s-.087-.075-.24-.221a7.84,7.84,0,0,0-.741-.607,7.206,7.206,0,0,0-3.378-1.32,6.061,6.061,0,0,0-5.206,1.971,5.1,5.1,0,0,0-1.352,3.252,5.2,5.2,0,0,0,.288,1.931,4.881,4.881,0,0,0,1.044,1.762,4.553,4.553,0,0,0,1.789,1.182,5.851,5.851,0,0,0,2.227.315,6.612,6.612,0,0,0,4.308-1.888,5.336,5.336,0,0,0,1.328-2.116,5.017,5.017,0,0,0,.142-2.57,4.3,4.3,0,0,0-1.281-2.294,5.938,5.938,0,0,0-2.412-1.285,11.148,11.148,0,0,0-2.814-.394,8.309,8.309,0,0,0-2.861.394,3.884,3.884,0,0,0-2.231,1.778,4.3,4.3,0,0,0-.394,2.9,4.857,4.857,0,0,0,1.478,2.613,7,7,0,0,0,2.68,1.545,7.759,7.759,0,0,0,6.172-.575,6,6,0,0,0,1.257-.985,5.183,5.183,0,0,0,.9-1.3,5.555,5.555,0,0,0,.493-3.074,5.775,5.775,0,0,0-1.131-2.854,6.011,6.011,0,0,0-2.4-1.841,6.536,6.536,0,0,0-5.758.26,7.542,7.542,0,0,0-3.547,4.316,6.236,6.236,0,0,0-.24,2.727,4.819,4.819,0,0,0,.394,1.285,5.07,5.07,0,0,0,.733,1.1,5.81,5.81,0,0,0,2.136,1.45,7.921,7.921,0,0,0,2.467.544A7.68,7.68,0,0,0,98.68,121.7a4.728,4.728,0,0,0,2.243-3.626,6.573,6.573,0,0,0-1.044-3.831,7.882,7.882,0,0,0-2.53-2.534,6.823,6.823,0,0,0-2.944-1.021,6.222,6.222,0,0,0-5.518,2.452,4.959,4.959,0,0,0-.489.82A2.3,2.3,0,0,0,88.2,114.25Z" fill="#008083"/>
        <path id="Path_5288" data-name="Path 5288" d="M98.879,125.132c.035.043-3.09,2.716-6.984,5.971s-7.094,5.853-7.118,5.81,3.09-2.716,6.984-5.967S98.843,125.089,98.879,125.132Z" fill="#263238"/>
        <path id="Path_5289" data-name="Path 5289" d="M99.561,136.562a3.641,3.641,0,0,1-.524-.374l-1.387-1.08c-1.163-.922-2.759-2.207-4.517-3.634s-3.338-2.727-4.477-3.677l-1.344-1.135a3.535,3.535,0,0,1-.473-.434,3.865,3.865,0,0,1,.524.374l1.383,1.08c1.163.922,2.759,2.207,4.517,3.634s3.338,2.727,4.481,3.677l1.34,1.131A4.494,4.494,0,0,1,99.561,136.562Z" fill="#263238"/>
        <path id="Path_5290" data-name="Path 5290" d="M131.781,125.286c.032.043-2.956,2.333-6.681,5.124s-6.767,4.994-6.8,4.946,2.956-2.333,6.681-5.124S131.745,125.239,131.781,125.286Z" fill="#263238"/>
        <path id="Path_5291" data-name="Path 5291" d="M132.939,134.982c-.028.047-3.2-1.919-7.094-4.4s-7.008-4.521-6.98-4.572,3.2,1.923,7.094,4.4S132.987,134.935,132.939,134.982Z" fill="#263238"/>
        <path id="Path_5292" data-name="Path 5292" d="M99.391,154.124c-.043-.039,3.062-3.295,6.933-7.264s7.043-7.165,7.094-7.126-3.062,3.3-6.933,7.268S99.432,154.164,99.391,154.124Z" fill="#008083"/>
        <path id="Path_5293" data-name="Path 5293" d="M112.52,154.121a1.3,1.3,0,0,1-.13-.138l-.331-.394c-.307-.394-.717-.9-1.218-1.525-1.029-1.285-2.487-3.031-4.178-4.887s-3.3-3.468-4.477-4.611l-1.4-1.379-.394-.371a.941.941,0,0,1-.122-.138,1.043,1.043,0,0,1,.15.106l.394.343c.351.3.847.745,1.454,1.3,1.206,1.119,2.83,2.72,4.529,4.58s3.153,3.626,4.138,4.935c.5.654.9,1.182,1.182,1.577l.3.434A.781.781,0,0,1,112.52,154.121Z" fill="#008083"/>
        <path id="Path_5294" data-name="Path 5294" d="M80.256,137.543s.126,9.684-2.317,15.482l-14.894-2.538s4.485-9.175,3.263-14.275Z" fill="#ebebeb"/>
        <path id="Path_5295" data-name="Path 5295" d="M80.252,137.181s-1.868,11.887-3.011,15.434l-14.8-2.94s3.047-11.493,3.007-14.693Z" fill="#008083"/>
        <path id="Path_5296" data-name="Path 5296" d="M66.946,140.311c0,.055,2.2.568,4.938,1.143s4.966,1,4.978.946-2.2-.568-4.938-1.143S66.958,140.255,66.946,140.311Z" fill="#fff"/>
        <path id="Path_5297" data-name="Path 5297" d="M66.568,142.829c0,.055,2.2.564,4.938,1.143s4.966,1,4.978.946-2.2-.568-4.938-1.143S66.58,142.762,66.568,142.829Z" fill="#fff"/>
        <path id="Path_5298" data-name="Path 5298" d="M68.743,145.678a3.49,3.49,0,0,0,.788.236c.508.122,1.214.284,1.99.449s1.49.3,2.006.394a3.423,3.423,0,0,0,.843.1,3.8,3.8,0,0,0-.816-.24c-.5-.126-1.21-.288-1.99-.449s-1.49-.3-2-.394A3.439,3.439,0,0,0,68.743,145.678Z" fill="#fff"/>
        <path id="Path_5299" data-name="Path 5299" d="M150.723,110.352s1.525,9.436-.02,15.454l-14.914-.324s3.051-9.609,1.115-14.413Z" fill="#ebebeb"/>
        <path id="Path_5300" data-name="Path 5300" d="M150.656,110s-.1,11.867-.7,15.489l-14.886-.705s1.3-11.666.788-14.784Z" fill="#455a64"/>
        <path id="Path_5301" data-name="Path 5301" d="M137.968,115.279c0,.055,2.239.1,5,.106s5.006-.035,5.006-.091-2.239-.1-5.006-.106S137.968,115.224,137.968,115.279Z" fill="#fff"/>
        <path id="Path_5302" data-name="Path 5302" d="M138.11,117.789c0,.055,2.239.1,5,.106s5.005-.035,5.005-.091-2.239-.1-5.005-.106S138.11,117.734,138.11,117.789Z" fill="#fff"/>
        <path id="Path_5303" data-name="Path 5303" d="M140.779,120.1a3.453,3.453,0,0,0,.836.075c.516,0,1.23.028,2.018.032s1.5,0,2.014-.028a3.5,3.5,0,0,0,.836-.067,3.307,3.307,0,0,0-.836-.071c-.516-.02-1.226-.032-2.014-.035s-1.5,0-2.018.028A3.5,3.5,0,0,0,140.779,120.1Z" fill="#fff"/>
        <path id="Path_5304" data-name="Path 5304" d="M153.879,83.145a8.288,8.288,0,0,1-7.059-4.493,13.4,13.4,0,0,1-1.257-8.907c.816-3.941,3.425-7.173,6.649-8.206,2.739-.879,7.634-.394,9.944,3.472a11.666,11.666,0,0,1,1.576,6.239,1.185,1.185,0,1,1-2.365-.158h0a9.519,9.519,0,0,0-1.269-4.868c-1.781-2.976-5.687-2.917-7.193-2.436-2.759.883-4.525,3.866-5.057,6.432a11,11,0,0,0,1.029,7.315,5.775,5.775,0,0,0,5.6,3.2,1.182,1.182,0,0,1,.359,2.337A6.264,6.264,0,0,1,153.879,83.145Z" fill="#263238"/>
        <path id="Path_5305" data-name="Path 5305" d="M77.54,83.146a8.283,8.283,0,0,1-7.059-4.493,13.4,13.4,0,0,1-1.261-8.907c.69-3.326,3.023-7.157,6.7-8.214a8.672,8.672,0,0,1,5.368.272l-.851,2.207a6.359,6.359,0,0,0-3.862-.209c-2.712.788-4.477,3.792-5.021,6.42a11,11,0,0,0,1.029,7.315,5.773,5.773,0,0,0,5.6,3.2l.359,2.337A6.469,6.469,0,0,1,77.54,83.146Z" fill="#263238"/>
        <path id="Path_5306" data-name="Path 5306" d="M152.9,71.31l-1.088,5.955H167.82l1.423-5.9Z" fill="#008083"/>
        <path id="Path_5307" data-name="Path 5307" d="M81.6,82.2a2.546,2.546,0,1,1-2.55-2.542h.008A2.546,2.546,0,0,1,81.6,82.2Z" fill="#263238"/>
        <path id="Path_5308" data-name="Path 5308" d="M157.864,82.2a2.546,2.546,0,1,1-2.55-2.542h.008A2.546,2.546,0,0,1,157.864,82.2Z" fill="#263238"/>
      </g>
      <g id="freepik--Character--inject-27">
        <path id="Path_5309" data-name="Path 5309" d="M115.857,32.925l-4.181,15.88L97.227,50.358V52.92l20.3.713,3.815-17.811Z" fill="#ffbe9d"/>
        <path id="Path_5310" data-name="Path 5310" d="M121.95,54.054s-22.576-1.076-29,3.941S89.635,71.25,89.635,71.25l36.327-.1,3.208-18.418Z" fill="#263238"/>
        <path id="Path_5311" data-name="Path 5311" d="M125.793,66.2a1.626,1.626,0,0,1-.327-.024c-.213-.024-.524-.055-.926-.106-.788-.1-1.971-.264-3.39-.5a96.789,96.789,0,0,1-11.036-2.55c-2.12-.627-4.127-1.257-5.979-1.718a26.2,26.2,0,0,0-4.994-.788,14.953,14.953,0,0,0-3.4.2c-.394.047-.7.15-.91.185a2.672,2.672,0,0,1-.319.059,1.611,1.611,0,0,1,.311-.1,7.945,7.945,0,0,1,.9-.225,14.075,14.075,0,0,1,3.421-.264,25.758,25.758,0,0,1,5.069.753c1.864.449,3.874,1.08,5.987,1.707a107.86,107.86,0,0,0,10.961,2.6c1.423.26,2.578.445,3.378.572l.922.146A1.963,1.963,0,0,1,125.793,66.2Z" fill="#455a64"/>
        <path id="Path_5312" data-name="Path 5312" d="M104.809,61.176a15.07,15.07,0,0,0-2-1.391,15.121,15.121,0,0,0-2.282-.851,1.973,1.973,0,0,1,.721.071,6.51,6.51,0,0,1,1.655.6,6.613,6.613,0,0,1,1.435,1.021A1.972,1.972,0,0,1,104.809,61.176Z" fill="#455a64"/>
        <path id="Path_5313" data-name="Path 5313" d="M124.343,103.124l.3,9.487-1.908,7.575a.97.97,0,0,0,.717,1.168h0l.071.014h0a.972.972,0,0,0,.851-.26c1.435-1.4,6.7-6.59,6.633-7.28-.071-.788.343-10.035.343-10.035Z" fill="#008083"/>
        <g id="Group_5480" data-name="Group 5480" opacity="0.6">
          <path id="Path_5314" data-name="Path 5314" d="M123.492,121.384l7.49-8.182v.394a1.463,1.463,0,0,1-.339.954c-.6.713-2.286,2.649-6.263,6.566a.971.971,0,0,1-.879.26Z" fill="#fff"/>
        </g>
        <g id="Group_5481" data-name="Group 5481" opacity="0.6">
          <path id="Path_5315" data-name="Path 5315" d="M128.995,110.155a.592.592,0,0,0-.154.788.566.566,0,0,0,.761.158.615.615,0,0,0,.158-.816.584.584,0,0,0-.808-.079" fill="#fff"/>
        </g>
        <path id="Path_5316" data-name="Path 5316" d="M125.624,117.214c-.055.028-.276-.465-.84-.729a2.837,2.837,0,0,0-1.1-.2c0-.024.11-.1.331-.134a1.542,1.542,0,0,1,1.5.721C125.628,117.068,125.644,117.206,125.624,117.214Z" fill="#263238"/>
        <path id="Path_5317" data-name="Path 5317" d="M124.954,118.494a7.507,7.507,0,0,0-.843-.394,8.306,8.306,0,0,0-.93-.11,1.072,1.072,0,0,1,.985-.091C124.729,118.049,125,118.467,124.954,118.494Z" fill="#263238"/>
        <path id="Path_5318" data-name="Path 5318" d="M126.865,115.566a9.859,9.859,0,0,0-1.261-.706,9.46,9.46,0,0,0-1.411-.315A2.645,2.645,0,0,1,126.865,115.566Z" fill="#263238"/>
        <path id="Path_5319" data-name="Path 5319" d="M127.015,112.681c-.024.059-.552-.158-1.234-.173s-1.222.15-1.245.091A2.423,2.423,0,0,1,127.015,112.681Z" fill="#263238"/>
        <path id="Path_5320" data-name="Path 5320" d="M126.991,109.895a4.724,4.724,0,0,0-1.281-.217,4.641,4.641,0,0,0-1.253.327.714.714,0,0,1,.3-.268,2.114,2.114,0,0,1,1.915-.083C126.9,109.761,127.011,109.871,126.991,109.895Z" fill="#263238"/>
        <path id="Path_5321" data-name="Path 5321" d="M125.725,109.146a.9.9,0,0,1,0-.359,2.489,2.489,0,0,1,.28-.942,1.081,1.081,0,0,1,.469-.532.393.393,0,0,1,.441.083.638.638,0,0,1,.154.426,1.38,1.38,0,0,1-1.182,1.285,1.6,1.6,0,0,1-1.577-.82.552.552,0,0,1-.032-.461.394.394,0,0,1,.394-.209,1.388,1.388,0,0,1,.631.319,2.859,2.859,0,0,1,.654.733.972.972,0,0,1,.15.327,4.444,4.444,0,0,0-.9-.942,1.281,1.281,0,0,0-.552-.264.209.209,0,0,0-.221.11.389.389,0,0,0,.039.3,1.422,1.422,0,0,0,1.372.694,1.182,1.182,0,0,0,1.029-1.076.456.456,0,0,0-.1-.3.208.208,0,0,0-.244-.051,1.017,1.017,0,0,0-.394.445A3.832,3.832,0,0,0,125.725,109.146Z" fill="#263238"/>
        <path id="Path_5322" data-name="Path 5322" d="M129.151,52.731s-9.763,18.457-9.9,21.677,0,32.9,0,32.9h15.115c.394,0,2.66-13.373,2.2-16.451s-2.089-19.624-2.089-19.624h8.695a9.143,9.143,0,0,0,2.3-5.786,20.164,20.164,0,0,0-2.365-7.37c-.745-1.242-5.518-7.741-5.518-7.741Z" fill="#263238"/>
        <path id="Path_5323" data-name="Path 5323" d="M128.5,53.983a.574.574,0,0,1-.043.106c-.035.079-.083.177-.142.3l-.568,1.151c-.256.5-.56,1.108-.914,1.813l-.568,1.131-.6,1.289-2.928,6.342c-.556,1.182-1.139,2.448-1.746,3.744l-.918,1.971a10.641,10.641,0,0,0-.67,2.12,11.4,11.4,0,0,0-.233,2.219c-.024.737-.039,1.466-.051,2.18,0,1.435-.028,2.814-.024,4.13,0,2.633.032,5.005.059,7s.051,3.587.071,4.73v1.73a.312.312,0,0,1,0-.114v-.331c0-.311-.032-.737-.055-1.285-.039-1.111-.091-2.723-.134-4.73s-.091-4.359-.1-7v-4.13c0-.717.024-1.446.051-2.187a11.611,11.611,0,0,1,.233-2.254,10.835,10.835,0,0,1,.686-2.16l.922-1.971,1.76-3.737,2.988-6.326.607-1.285c.209-.394.394-.788.583-1.123l.942-1.8c.256-.485.461-.863.6-1.135.067-.118.122-.213.162-.292A.173.173,0,0,0,128.5,53.983Z" fill="#455a64"/>
        <path id="Path_5324" data-name="Path 5324" d="M125.336,60.27a18.541,18.541,0,0,1-.788-2.306,18.136,18.136,0,0,1-.674-2.341,11.785,11.785,0,0,1,.867,2.282A11.894,11.894,0,0,1,125.336,60.27Z" fill="#455a64"/>
        <path id="Path_5325" data-name="Path 5325" d="M136.6,90.283a.792.792,0,0,1-.047-.209c-.019-.161-.046-.361-.083-.6-.071-.556-.162-1.312-.276-2.231-.217-1.908-.508-4.5-.832-7.358s-.587-5.482-.749-7.37c-.075-.922-.138-1.679-.185-2.235,0-.248-.032-.449-.043-.611a1.517,1.517,0,0,1,0-.213.714.714,0,0,1,.043.209c.02.162.047.363.079.607.063.556.15,1.309.252,2.231.209,1.908.493,4.5.788,7.362s.575,5.451.788,7.362c.087.922.162,1.679.213,2.235.02.244.035.449.047.611A1.227,1.227,0,0,1,136.6,90.283Z" fill="#455a64"/>
        <path id="Path_5326" data-name="Path 5326" d="M132.758,3.3a3.061,3.061,0,0,1,2.68-3.279,3.962,3.962,0,0,1,3.851,2.211,5.744,5.744,0,0,1,.118,4.588c-.394,1-1.123,2.006-2.184,2.085a3.448,3.448,0,0,1-2.574-1.474" fill="#263238"/>
        <path id="Path_5327" data-name="Path 5327" d="M121.663,11.122C118.51,4.213,126,.741,130.07,1.891c3.831,1.084,5.467,2.991,6.1,5.553a12.641,12.641,0,0,1-.394,7.78c-.5,1.206-1.387,2.428-2.68,2.578" fill="#263238"/>
        <path id="Path_5328" data-name="Path 5328" d="M132.514,5.726a1.3,1.3,0,0,1,1.163,1.32h0l-.737,17.586c-.028,2.077-3.058,3.252-5.285,3.2h0c-2.243-.047-2.318-1.151-2.365-3.125-.051-3.3-.051-4.54-.051-4.521s-2.838-.473-3.425-4.174a39.416,39.416,0,0,1-.047-7.327c.142-2.219,1.612-4.946,3.827-4.73Z" fill="#ffbe9d"/>
        <path id="Path_5329" data-name="Path 5329" d="M123.216,10.794a.473.473,0,0,0,.457.481.454.454,0,0,0,.488-.416v-.014a.478.478,0,0,0-.457-.481.454.454,0,0,0-.488.416Z" fill="#263238"/>
        <path id="Path_5330" data-name="Path 5330" d="M122.432,10.262c.059.059.422-.2.93-.2s.887.256.942.193-.032-.138-.2-.256a1.314,1.314,0,0,0-.753-.233,1.215,1.215,0,0,0-.737.24C122.459,10.121,122.4,10.235,122.432,10.262Z" fill="#263238"/>
        <path id="Path_5331" data-name="Path 5331" d="M128.209,10.794a.476.476,0,0,0,.441.481.454.454,0,0,0,.488-.416v-.014a.478.478,0,0,0-.457-.481A.452.452,0,0,0,128.209,10.794Z" fill="#263238"/>
        <path id="Path_5332" data-name="Path 5332" d="M127.468,10.356c.059.059.418-.2.926-.2s.887.256.942.2-.031-.142-.2-.26a1.3,1.3,0,0,0-.753-.233,1.251,1.251,0,0,0-.737.24C127.468,10.215,127.425,10.333,127.468,10.356Z" fill="#263238"/>
        <path id="Path_5333" data-name="Path 5333" d="M125.6,14.145a3.531,3.531,0,0,0-.828-.15c-.13,0-.256-.039-.276-.126a.67.67,0,0,1,.087-.394c.122-.315.248-.646.394-.993a17.353,17.353,0,0,0,.867-2.6,16.726,16.726,0,0,0-1.076,2.522l-.37,1a.763.763,0,0,0-.067.512.333.333,0,0,0,.217.189.967.967,0,0,0,.221.032A3.349,3.349,0,0,0,125.6,14.145Z" fill="#263238"/>
        <path id="Path_5334" data-name="Path 5334" d="M125.249,20.186a9.4,9.4,0,0,0,4.978-1.32s-1.206,2.546-4.911,2.2Z" fill="#eb996e"/>
        <path id="Path_5335" data-name="Path 5335" d="M125.816,15.374a.922.922,0,0,1,.824-.339.835.835,0,0,1,.583.311.532.532,0,0,1,.039.607.616.616,0,0,1-.67.169,1.871,1.871,0,0,1-.654-.394.6.6,0,0,1-.146-.15.175.175,0,0,1,0-.189" fill="#eb996e"/>
        <path id="Path_5336" data-name="Path 5336" d="M127.106,14.5c-.083,0-.087.548-.56.942a2.565,2.565,0,0,1-1.068.394c0,.063.13.106.394.114a1.4,1.4,0,0,0,.895-.311,1.211,1.211,0,0,0,.434-.788C127.2,14.629,127.141,14.495,127.106,14.5Z" fill="#263238"/>
        <path id="Path_5337" data-name="Path 5337" d="M127.224,9.464c.051.138.564.071,1.163.146s1.084.233,1.163.11c.035-.059-.051-.189-.244-.327a1.948,1.948,0,0,0-.863-.3,1.914,1.914,0,0,0-.906.106C127.314,9.285,127.2,9.4,127.224,9.464Z" fill="#263238"/>
        <path id="Path_5338" data-name="Path 5338" d="M122.62,8.78c.091.118.441,0,.867,0s.788.079.863-.043c.035-.059,0-.177-.177-.284a1.18,1.18,0,0,0-.7-.193,1.217,1.217,0,0,0-.69.233C122.632,8.607,122.581,8.722,122.62,8.78Z" fill="#263238"/>
        <path id="Path_5339" data-name="Path 5339" d="M127.441,2.746a7.483,7.483,0,0,0-3.547,1.1,5.152,5.152,0,0,0-2.538,3.015,1.057,1.057,0,0,0,.032.836.813.813,0,0,0,1.013.217,2.317,2.317,0,0,0,.828-.761,1.577,1.577,0,0,0,3.074-.035,1.382,1.382,0,0,0,1.427,1.273,1.83,1.83,0,0,0,1.577-1.242,4.576,4.576,0,0,0,.65,1.805,1.578,1.578,0,0,0,1.675.686,3.313,3.313,0,0,0,.024,1.655c.2.52.981,9.424,1.51,9.242s.508-9.262.627-9.79a12.376,12.376,0,0,0,.394-3.1,4.544,4.544,0,0,0-3.665-4.607,12.1,12.1,0,0,0-3.224-.3" fill="#263238"/>
        <path id="Path_5340" data-name="Path 5340" d="M134.858,18.961a.583.583,0,0,1-.114.051,1.561,1.561,0,0,1-.343.083,2.917,2.917,0,0,1-2.826-1.323,3.817,3.817,0,0,1-.485-2.317c.059-.847.256-1.62.347-2.329a17.773,17.773,0,0,0,.166-1.9V9.935a2.2,2.2,0,0,1,0-.473,1.98,1.98,0,0,1,.083.477,12.826,12.826,0,0,1,.063,1.3,15.391,15.391,0,0,1-.122,1.919c-.087.725-.272,1.5-.331,2.317a3.717,3.717,0,0,0,.441,2.207,2.731,2.731,0,0,0,1.411,1.155,2.972,2.972,0,0,0,1.242.189C134.693,19,134.854,18.941,134.858,18.961Z" fill="#263238"/>
        <path id="Path_5341" data-name="Path 5341" d="M126.136,2.269a1.679,1.679,0,0,1,.193.879,2.826,2.826,0,0,1-2.759,2.877,1.67,1.67,0,0,1-.883-.158,8.513,8.513,0,0,0,.875,0A2.83,2.83,0,0,0,126.2,3.132C126.211,2.608,126.1,2.277,126.136,2.269Z" fill="#455a64"/>
        <path id="Path_5342" data-name="Path 5342" d="M126.677,6.629c.02,0-.028.252-.311.528a1.879,1.879,0,0,1-1.4.477,3.076,3.076,0,0,1-1.391-.477c-.319-.2-.493-.355-.477-.394a2.409,2.409,0,0,1,.544.248,3.644,3.644,0,0,0,1.336.394,1.941,1.941,0,0,0,1.289-.394A2.251,2.251,0,0,0,126.677,6.629Z" fill="#455a64"/>
        <path id="Path_5343" data-name="Path 5343" d="M135.607,5.5a3.482,3.482,0,0,1-.071,1.013,5.083,5.083,0,0,1-.906,2.282A3.078,3.078,0,0,1,132.51,10a2.018,2.018,0,0,1-.753-.075c-.169-.051-.252-.1-.248-.114a3.7,3.7,0,0,0,.985.043,3.1,3.1,0,0,0,1.971-1.182,5.575,5.575,0,0,0,.926-2.183A8.161,8.161,0,0,1,135.607,5.5Z" fill="#455a64"/>
        <path id="Path_5344" data-name="Path 5344" d="M136.285,7.29a1.027,1.027,0,0,1,.059.315,6.214,6.214,0,0,1,.02.863,4.311,4.311,0,0,1-.985,2.653,2.983,2.983,0,0,1-1.312.895,2.572,2.572,0,0,1-1.3.079,2.114,2.114,0,0,1-.808-.339c-.166-.122-.237-.213-.229-.221a2.985,2.985,0,0,0,1.06.418,2.589,2.589,0,0,0,1.21-.114,2.963,2.963,0,0,0,1.222-.851,4.5,4.5,0,0,0,1-2.53C136.285,7.743,136.25,7.294,136.285,7.29Z" fill="#455a64"/>
        <path id="Path_5345" data-name="Path 5345" d="M84.335,54.929l-7.154,16.36H87.03L94.046,54.8Z" fill="#455a64"/>
        <path id="Path_5346" data-name="Path 5346" d="M79.132,37.528,87.2,53.4h25.445l-1.029-2.073-7.37-.221L98.235,37.728a2.312,2.312,0,0,0-2.113-1.368H79.849a.79.79,0,0,0-.717,1.171Z" fill="#e0e0e0"/>
        <path id="Path_5347" data-name="Path 5347" d="M91.877,44.642a.974.974,0,1,1-.975-.973h0A.975.975,0,0,1,91.877,44.642Z" fill="#263238"/>
        <rect id="Rectangle_2023" data-name="Rectangle 2023" width="31.105" height="1.517" transform="translate(84.252 53.427)" fill="#455a64"/>
        <path id="Path_5348" data-name="Path 5348" d="M105.775,54.188l9.463,17.117h4.525l.985-1.959.906-2.061-6.3-12.34Z" fill="#455a64"/>
        <path id="Path_5349" data-name="Path 5349" d="M122.219,24.841a11.072,11.072,0,0,0-6.677,8.084l5.8,2.893Z" fill="#008083"/>
        <path id="Path_5350" data-name="Path 5350" d="M122.219,24.841s-3.843,8.616-3.7,13.322a45.506,45.506,0,0,0,1.123,5.912l2,10.586s15.3-2.069,15.635-2.069-.512-8.691-.512-8.691l2.495-16.7s-1.143-2.274-6.306-3.062C129.861,23.654,122.219,24.841,122.219,24.841Z" fill="#008083"/>
        <path id="Path_5351" data-name="Path 5351" d="M120.768,29.843c.035.02-.367.662-.851,1.774a15.731,15.731,0,0,0-.709,2,17.413,17.413,0,0,0-.5,2.55,17.775,17.775,0,0,0-.083,2.6,15.9,15.9,0,0,0,.248,2.109c.221,1.182.473,1.908.434,1.919a2.51,2.51,0,0,1-.2-.493,6.213,6.213,0,0,1-.181-.6c-.063-.236-.146-.5-.2-.788a15.1,15.1,0,0,1-.292-2.128,16.658,16.658,0,0,1,.067-2.633,16.345,16.345,0,0,1,.524-2.582,14.238,14.238,0,0,1,.761-2.006,8.051,8.051,0,0,1,.37-.737,5.9,5.9,0,0,1,.311-.54A2.675,2.675,0,0,1,120.768,29.843Z" fill="#263238"/>
        <path id="Path_5352" data-name="Path 5352" d="M124.079,24.763,124.3,22.4a1,1,0,0,1,.985-.907l7.548-.114a.9.9,0,0,1,.91.832l.193,2.55a6.522,6.522,0,0,1-3.031,3.074,16.13,16.13,0,0,1-5.668,1.111Z" fill="#008083"/>
        <path id="Path_5353" data-name="Path 5353" d="M126.053,21.51c.024,0-.087.154-.134.394a4.273,4.273,0,0,0,0,1.048,5.928,5.928,0,0,1,0,1.529,5.762,5.762,0,0,1-.2-1.517,2.972,2.972,0,0,1,.047-1.1C125.892,21.6,126.041,21.491,126.053,21.51Z" fill="#263238"/>
        <path id="Path_5354" data-name="Path 5354" d="M127.863,24.435a5.377,5.377,0,0,1-.189-1.482,6.516,6.516,0,0,1,0-1.064c.039-.284.154-.43.177-.394s-.035.166-.031.426.043.631.043,1.025A5.623,5.623,0,0,1,127.863,24.435Z" fill="#263238"/>
        <path id="Path_5355" data-name="Path 5355" d="M130.129,24.372a10.249,10.249,0,0,1-.386-2.893,5.325,5.325,0,0,1,.3,1.439A5.415,5.415,0,0,1,130.129,24.372Z" fill="#263238"/>
        <path id="Path_5356" data-name="Path 5356" d="M132.084,24.523a7.932,7.932,0,0,1-.244-3.189A28.593,28.593,0,0,1,132.084,24.523Z" fill="#263238"/>
        <g id="Group_5482" data-name="Group 5482" opacity="0.3">
          <path id="Path_5357" data-name="Path 5357" d="M133.581,33.551a25.66,25.66,0,0,0,.836,9.727L138.823,36Z"/>
        </g>
        <path id="Path_5358" data-name="Path 5358" d="M138.85,26.654l.024.024a11.253,11.253,0,0,1,2.664,4.647l.812,3.7-8.671,1.34a10.808,10.808,0,0,1-.331-4.848C133.774,28.727,138.85,26.654,138.85,26.654Z" fill="#008083"/>
        <path id="Path_5359" data-name="Path 5359" d="M142.351,35.026a.931.931,0,0,1-.173.043l-.5.091-1.856.3-6.282.954h-.11V36.3c-.02-.524-.035-1.068-.047-1.628-.02-1.454,0-2.846.087-4.111a6.709,6.709,0,0,1,1.009-3.2,4.753,4.753,0,0,1,1.616-1.577,3.1,3.1,0,0,1,.56-.26.731.731,0,0,1,.2-.059,4.537,4.537,0,0,0-.725.394,4.833,4.833,0,0,0-1.533,1.577,6.744,6.744,0,0,0-.946,3.153c-.091,1.253-.087,2.641-.063,4.1,0,.552.028,1.1.039,1.62l-.114-.1,6.306-.887,1.864-.24.5-.059A.591.591,0,0,1,142.351,35.026Z" fill="#263238"/>
        <path id="Path_5360" data-name="Path 5360" d="M124.035,29.59a5.813,5.813,0,0,1-1.206-.934,5.694,5.694,0,0,1-1.072-1.088,11.419,11.419,0,0,1,2.278,2.022Z" fill="#fafafa"/>
        <path id="Path_5361" data-name="Path 5361" d="M122.865,34.15a4.18,4.18,0,0,1-1.06.788,4.354,4.354,0,0,1-1.182.607,8.54,8.54,0,0,1,2.235-1.387Z" fill="#fafafa"/>
        <path id="Path_5362" data-name="Path 5362" d="M127.7,35.274a6.8,6.8,0,0,1,0-1.687,7.179,7.179,0,0,1,.2-1.671,6.868,6.868,0,0,1,0,1.683A7.106,7.106,0,0,1,127.7,35.274Z" fill="#fafafa"/>
        <path id="Path_5363" data-name="Path 5363" d="M132.4,39.834a11.6,11.6,0,0,1-1.1-1.182,11.772,11.772,0,0,1-1.084-1.182,4.434,4.434,0,0,1,1.234,1.06A4.592,4.592,0,0,1,132.4,39.834Z" fill="#fafafa"/>
        <path id="Path_5364" data-name="Path 5364" d="M133.065,30.3a5.211,5.211,0,0,1-1.147.9,5.369,5.369,0,0,1-1.265.725,5.174,5.174,0,0,1,1.151-.9A5.528,5.528,0,0,1,133.065,30.3Z" fill="#fafafa"/>
        <path id="Path_5365" data-name="Path 5365" d="M128.819,26.851a5.773,5.773,0,0,1-1.253.926,5.987,5.987,0,0,1-1.364.757,5.882,5.882,0,0,1,1.253-.93A6.237,6.237,0,0,1,128.819,26.851Z" fill="#fafafa"/>
        <path id="Path_5366" data-name="Path 5366" d="M132.647,28.223a8.6,8.6,0,0,1-.993-2.554A8.705,8.705,0,0,1,132.647,28.223Z" fill="#fafafa"/>
        <path id="Path_5367" data-name="Path 5367" d="M137.917,29.951a6.463,6.463,0,0,1-1.616-1.612,3.279,3.279,0,0,1,.879.733A3.177,3.177,0,0,1,137.917,29.951Z" fill="#fafafa"/>
        <path id="Path_5368" data-name="Path 5368" d="M135.745,33.8a3.571,3.571,0,0,1-.169-1.206,3.512,3.512,0,0,1,.035-1.214A7.187,7.187,0,0,1,135.745,33.8Z" fill="#fafafa"/>
        <path id="Path_5369" data-name="Path 5369" d="M140.124,33a3.617,3.617,0,0,1-1.379-.047,3.685,3.685,0,0,1-1.328-.367,6.232,6.232,0,0,1,1.36.166A6.485,6.485,0,0,1,140.124,33Z" fill="#fafafa"/>
        <path id="Path_5370" data-name="Path 5370" d="M122.467,40.938a6.642,6.642,0,0,1-.788-1.439,6.714,6.714,0,0,1-.607-1.525,13.419,13.419,0,0,1,1.4,2.964Z" fill="#fafafa"/>
        <path id="Path_5371" data-name="Path 5371" d="M128.257,47.161a5.485,5.485,0,0,1-.958-1.147,5.813,5.813,0,0,1-.788-1.269A10.394,10.394,0,0,1,128.257,47.161Z" fill="#fafafa"/>
        <path id="Path_5372" data-name="Path 5372" d="M133.039,44.552a5.2,5.2,0,0,1-1.309.615,5,5,0,0,1-1.383.422A10.09,10.09,0,0,1,133.039,44.552Z" fill="#fafafa"/>
        <path id="Path_5373" data-name="Path 5373" d="M121.253,49.588a6.517,6.517,0,0,1,.942-2.081,3.3,3.3,0,0,1-.394,1.084A3.26,3.26,0,0,1,121.253,49.588Z" fill="#fafafa"/>
        <path id="Path_5374" data-name="Path 5374" d="M117.544,31.778a1.857,1.857,0,0,1-.394-1A1.821,1.821,0,0,1,117.2,29.7a6.415,6.415,0,0,1,.158,1.041A6.558,6.558,0,0,1,117.544,31.778Z" fill="#fafafa"/>
        <path id="Path_5375" data-name="Path 5375" d="M124.13,45.6a3.95,3.95,0,0,1-1.182-.532,4.061,4.061,0,0,1-1.072-.709,4.049,4.049,0,0,1,1.182.532A4.285,4.285,0,0,1,124.13,45.6Z" fill="#fafafa"/>
        <path id="Path_5376" data-name="Path 5376" d="M127.934,39.034a10.859,10.859,0,0,1-2.231,2.022,5.657,5.657,0,0,1,1.048-1.088A5.536,5.536,0,0,1,127.934,39.034Z" fill="#fafafa"/>
        <g id="Group_5483" data-name="Group 5483" opacity="0.3">
          <path id="Path_5377" data-name="Path 5377" d="M125.6,38.912a6.7,6.7,0,0,0,1.754,3.665,3.694,3.694,0,0,0,3.792.946.9.9,0,0,0,.611-.568.734.734,0,0,0-.493-.788,2.962,2.962,0,0,0-.989-.142,5.62,5.62,0,0,1-4.6-2.972"/>
        </g>
        <path id="Path_5378" data-name="Path 5378" d="M130.728,42.088a1.25,1.25,0,0,1-.264.047,3.591,3.591,0,0,1-.733,0,4.7,4.7,0,0,1-1.06-.252,5.132,5.132,0,0,1-2.176-1.51,4.646,4.646,0,0,1-.6-.907,3.269,3.269,0,0,1-.272-.682.8.8,0,0,1-.051-.264c.039,0,.146.355.449.875a5.376,5.376,0,0,0,.619.851,5.415,5.415,0,0,0,2.1,1.455,5.169,5.169,0,0,0,1.013.284C130.346,42.076,130.728,42.048,130.728,42.088Z" fill="#263238"/>
        <path id="Path_5379" data-name="Path 5379" d="M109.031,48.441l5.707-.666,4.024,2.637,15.371-3.689.363-10.531,6.83-.9v12.75a5.849,5.849,0,0,1-5.975,5.7l-22.529-.627-.958-1.915-4.836-.146Z" fill="#ffbe9d"/>
        <path id="Path_5380" data-name="Path 5380" d="M133.952,46.7a1.975,1.975,0,0,1-.292.091l-.836.217-3.086.765-10.2,2.471-.95.229h-.071l-4.02-2.645h.055l-5.711.662.039-.024-1.513,1.919-.394.5a1.028,1.028,0,0,1-.15.166,1.738,1.738,0,0,1,.122-.185l.394-.52,1.466-1.947h.024l5.7-.713h.055l4.028,2.633h-.071l.95-.229,10.212-2.42,3.1-.713.843-.185A2,2,0,0,1,133.952,46.7Z" fill="#eb996e"/>
        <path id="Path_5381" data-name="Path 5381" d="M112.149,50.077a14.428,14.428,0,0,1-2.219.087h-.394l.055-.02a10.165,10.165,0,0,1-1.439,1.1,10.843,10.843,0,0,1,1.324-1.238l.024-.024h.437A13.515,13.515,0,0,1,112.149,50.077Z" fill="#eb996e"/>
        <path id="Path_5382" data-name="Path 5382" d="M136.785,48.426a4.216,4.216,0,0,0-1.123-1.182,4.121,4.121,0,0,0-1.541-.5.989.989,0,0,1,.5-.039,2.629,2.629,0,0,1,1.971,1.249A1,1,0,0,1,136.785,48.426Z" fill="#eb996e"/>
      </g>
      <g id="freepik--Plant--inject-27">
        <rect id="Rectangle_2024" data-name="Rectangle 2024" width="25.737" height="3.535" transform="translate(12.48 132.621)" fill="#263238"/>
        <path id="Path_5383" data-name="Path 5383" d="M38.261,136.2H12.437v-3.626H38.261Zm-25.737-.091h25.65v-3.449H12.524Z" fill="#263238"/>
        <path id="Path_5384" data-name="Path 5384" d="M14.869,134.982l3.7,18.276H32.277l3.583-17.1Z" fill="#263238"/>
        <path id="Path_5385" data-name="Path 5385" d="M14.869,151.527l1.975,2.72H33.5l2.357-2.72Z" fill="#455a64"/>
        <path id="Path_5386" data-name="Path 5386" d="M24.383,135.514c-.051,0-.114-8.466-.146-18.918s0-18.918.039-18.918.114,8.466.146,18.918S24.434,135.514,24.383,135.514Z" fill="#263238"/>
        <path id="Path_5387" data-name="Path 5387" d="M30.117,114.325a1.081,1.081,0,0,1-.071.2c-.059.146-.138.327-.229.548-.051.122-.106.252-.169.394s-.11.311-.169.481l-.2.552c-.067.2-.122.394-.189.631a25.786,25.786,0,0,0-.721,3.153,39.154,39.154,0,0,0-.394,3.941,53.58,53.58,0,0,0,.2,7.2c.083.922.166,1.663.229,2.176.024.24.047.437.063.591a1.215,1.215,0,0,1,0,.209.809.809,0,0,1-.047-.2c-.028-.154-.059-.347-.1-.583-.083-.512-.189-1.253-.288-2.172a47.7,47.7,0,0,1-.256-7.22,36.014,36.014,0,0,1,.394-3.961,23.706,23.706,0,0,1,.765-3.153c.071-.221.13-.434.2-.627l.213-.552.189-.477c.063-.146.126-.272.181-.394l.264-.536A.717.717,0,0,1,30.117,114.325Z" fill="#263238"/>
        <path id="Path_5388" data-name="Path 5388" d="M29.46,107.479a2.252,2.252,0,0,1-.083.28c-.067.193-.158.457-.268.788l-.2.568c-.063.213-.134.441-.209.686-.15.489-.323,1.044-.477,1.671l-.26.981c-.079.343-.158.7-.24,1.068-.181.737-.311,1.537-.477,2.365-.284,1.679-.532,3.547-.706,5.5s-.233,3.839-.256,5.545,0,3.244.087,4.533c.02.646.063,1.226.095,1.738s.063.954.1,1.312.047.623.063.832a2.767,2.767,0,0,1,0,.288,1.44,1.44,0,0,1-.047-.284c-.024-.209-.055-.481-.1-.828s-.087-.788-.126-1.312-.091-1.092-.122-1.738c-.087-1.293-.122-2.83-.126-4.54s.079-3.591.244-5.557.43-3.831.721-5.518c.169-.839.307-1.64.493-2.365.087-.371.173-.729.252-1.072l.272-.977c.162-.627.347-1.182.508-1.671.079-.244.154-.469.221-.682s.146-.394.213-.564l.3-.788A1.268,1.268,0,0,1,29.46,107.479Z" fill="#263238"/>
        <path id="Path_5389" data-name="Path 5389" d="M22.755,137.012a.418.418,0,0,1,0-.1,1.428,1.428,0,0,0-.024-.292c-.02-.268-.043-.642-.075-1.119-.063-.989-.15-2.392-.26-4.127-.221-3.48-.544-8.277-1.131-13.578-.3-2.649-.646-5.159-1.009-7.437-.189-1.135-.363-2.215-.564-3.224s-.394-1.943-.552-2.8-.359-1.62-.512-2.294-.292-1.257-.394-1.73-.2-.828-.268-1.092c-.024-.114-.047-.209-.063-.284a.28.28,0,0,1,0-.1.362.362,0,0,1,.035.1l.079.28c.075.26.173.623.3,1.084s.284,1.044.445,1.722.359,1.439.536,2.294.394,1.785.575,2.794.394,2.089.583,3.228c.37,2.278.721,4.793,1.021,7.437.587,5.3.891,10.109,1.08,13.594.1,1.746.162,3.153.2,4.131,0,.477.032.851.039,1.123v.292A.352.352,0,0,1,22.755,137.012Z" fill="#263238"/>
        <path id="Path_5390" data-name="Path 5390" d="M24.175,101.773a2.568,2.568,0,0,0-2.53-2.117,3.977,3.977,0,0,0-3.062,1.663,9.624,9.624,0,0,0-1.478,3.275,22.232,22.232,0,0,0-.907,8.714,13.164,13.164,0,0,0,3.626,7.855,1.473,1.473,0,0,0,1.249.571,1.527,1.527,0,0,0,.658-.394,19.508,19.508,0,0,0,6.33-14.839,6.043,6.043,0,0,0-.788-3.189c-.611-.922-2.049-1.908-3.094-1.537" fill="#008083"/>
        <path id="Path_5391" data-name="Path 5391" d="M15.176,92.155l-1.695,3.074c-.039.071-.091.154-.173.158s-.158-.075-.2-.15l-4.49-6.863,1.033-.587Z" fill="#008083"/>
        <g id="Group_5484" data-name="Group 5484" opacity="0.2">
          <path id="Path_5392" data-name="Path 5392" d="M15.176,92.155l-1.695,3.074c-.039.071-.091.154-.173.158s-.158-.075-.2-.15l-4.49-6.863,1.033-.587Z"/>
        </g>
        <path id="Path_5393" data-name="Path 5393" d="M24.277,97.693l-15.3-9.03a.706.706,0,0,1-.394-.374c-.059-.225.11-.445.272-.615a10.563,10.563,0,0,1,8.178-3.212,9.345,9.345,0,0,1,7.394,4.6,8.429,8.429,0,0,1-.169,8.632" fill="#008083"/>
        <path id="Path_5394" data-name="Path 5394" d="M11.2,85.783a.673.673,0,0,1,.2-.024c.13,0,.327-.032.579-.028a11.673,11.673,0,0,1,2.12.166,12.72,12.72,0,0,1,3.027.918A12.407,12.407,0,0,1,24,94.859a11.189,11.189,0,0,1,.394,2.1c.032.248.024.445.032.579a.955.955,0,0,1,0,.2l-.1-.788a13.041,13.041,0,0,0-.43-2.069,12.5,12.5,0,0,0-9.8-8.868,12.992,12.992,0,0,0-2.1-.225A7.114,7.114,0,0,1,11.2,85.783Z" fill="#263238"/>
        <path id="Path_5395" data-name="Path 5395" d="M22.2,91.462a3.393,3.393,0,0,1-.788.351c-.489.193-1.182.437-1.931.682s-1.458.434-1.971.56a3.893,3.893,0,0,1-.836.158,4.008,4.008,0,0,1,.788-.284l1.947-.611,1.943-.627A4.427,4.427,0,0,1,22.2,91.462Z" fill="#263238"/>
        <path id="Path_5396" data-name="Path 5396" d="M19.8,84.99a6.369,6.369,0,0,1,.181,1.707,6.44,6.44,0,0,1-.095,1.714,33.662,33.662,0,0,1-.087-3.421Z" fill="#263238"/>
        <path id="Path_5397" data-name="Path 5397" d="M8.835,88.494A6.64,6.64,0,0,1,9.946,88.1c.694-.217,1.663-.489,2.759-.749s2.065-.457,2.759-.583a6.825,6.825,0,0,1,1.182-.158,8.8,8.8,0,0,1-1.143.284c-.709.158-1.687.394-2.759.638s-2.046.508-2.759.69A8.9,8.9,0,0,1,8.835,88.494Z" fill="#263238"/>
        <path id="Path_5398" data-name="Path 5398" d="M17.221,98.926a6.356,6.356,0,0,0-4.359-1.131,13.265,13.265,0,0,0-4.769,1.218,14.668,14.668,0,0,0-6.547,5.151,8.6,8.6,0,0,0-.926,8.048,1.154,1.154,0,0,0,.524.635,1.265,1.265,0,0,0,.863-.067,48.486,48.486,0,0,0,8.588-3.421,16.182,16.182,0,0,0,6.6-6.306,5.474,5.474,0,0,0,.7-2.069,2.611,2.611,0,0,0-.674-2.046" fill="#008083"/>
        <path id="Path_5399" data-name="Path 5399" d="M17.246,98.619a.889.889,0,0,1-.209.087l-.615.213-.445.146c-.162.059-.335.13-.52.2-.37.15-.788.3-1.257.52l-.717.327c-.252.114-.5.256-.765.394-.532.26-1.068.6-1.644.934A26.064,26.064,0,0,0,4.6,107.127c-.394.524-.808,1.017-1.135,1.513-.169.244-.339.473-.489.706l-.394.67c-.276.422-.481.832-.678,1.182-.1.173-.189.335-.268.489s-.142.292-.2.422l-.292.583a.8.8,0,0,1-.11.2,1.16,1.16,0,0,1,.079-.213l.256-.6c.059-.13.122-.272.189-.43s.166-.319.256-.5c.189-.359.394-.788.654-1.2.134-.217.268-.445.394-.682s.315-.465.481-.713c.323-.5.721-1,1.127-1.533a27.52,27.52,0,0,1,3.011-3.153,27,27,0,0,1,3.508-2.582c.579-.339,1.123-.67,1.659-.926.268-.134.52-.272.788-.394l.729-.315c.461-.217.9-.359,1.273-.5.189-.067.363-.134.528-.189l.449-.134.627-.177A1.37,1.37,0,0,1,17.246,98.619Z" fill="#263238"/>
        <path id="Path_5400" data-name="Path 5400" d="M6.967,104.184a31.778,31.778,0,0,1-3.2,1.029,29.226,29.226,0,0,1-3.256.851,31.778,31.778,0,0,1,3.2-1.029A30.248,30.248,0,0,1,6.967,104.184Z" fill="#263238"/>
        <path id="Path_5401" data-name="Path 5401" d="M6.832,111.232a5.492,5.492,0,0,1-.071-1v-2.408c0-.938.079-1.793.13-2.408a4.891,4.891,0,0,1,.126-.993,6.42,6.42,0,0,1,0,1c-.024.674-.047,1.494-.075,2.4s-.043,1.73-.063,2.4A5.491,5.491,0,0,1,6.832,111.232Z" fill="#263238"/>
        <path id="Path_5402" data-name="Path 5402" d="M12.887,108.165c-.051,0-.213-1.73-.359-3.87s-.229-3.878-.177-3.878.209,1.726.359,3.866S12.938,108.156,12.887,108.165Z" fill="#263238"/>
        <path id="Path_5403" data-name="Path 5403" d="M5.354,100.247a5.4,5.4,0,0,1,1.025-.032c.631,0,1.506.024,2.471.055s1.837.071,2.467.106a6.132,6.132,0,0,1,1.021.1,5.4,5.4,0,0,1-1.025.032c-.631,0-1.506-.02-2.471-.055s-1.837-.071-2.471-.106A5.991,5.991,0,0,1,5.354,100.247Z" fill="#263238"/>
        <path id="Path_5404" data-name="Path 5404" d="M20.482,121.983a.766.766,0,0,1-.024-.213,5.011,5.011,0,0,0-.028-.6c-.024-.524-.028-1.277,0-2.215s.079-2.046.189-3.275.292-2.582.54-3.989.556-2.727.867-3.941.65-2.258.958-3.153.568-1.577.788-2.073c.1-.229.169-.394.233-.556a1.1,1.1,0,0,1,.091-.189.668.668,0,0,1-.059.2l-.225.579c-.181.489-.43,1.182-.717,2.089s-.6,1.971-.914,3.153-.6,2.515-.855,3.918-.422,2.759-.548,3.969-.2,2.333-.229,3.263-.051,1.687-.051,2.211v.6A1.658,1.658,0,0,1,20.482,121.983Z" fill="#263238"/>
        <path id="Path_5405" data-name="Path 5405" d="M21.285,111.543a4.221,4.221,0,0,1-.611.67c-.394.394-.958.922-1.6,1.486s-1.242,1.048-1.687,1.391a4.217,4.217,0,0,1-.741.516,4.788,4.788,0,0,1,.662-.619l1.644-1.427,1.632-1.443A4.824,4.824,0,0,1,21.285,111.543Z" fill="#263238"/>
        <path id="Path_5406" data-name="Path 5406" d="M26.13,115.441a7.166,7.166,0,0,1-.65-.9l-1.51-2.207-1.545-2.184a7.421,7.421,0,0,1-.619-.922,5.8,5.8,0,0,1,.721.843c.426.54.993,1.3,1.577,2.16s1.111,1.655,1.47,2.239A6.064,6.064,0,0,1,26.13,115.441Z" fill="#263238"/>
        <path id="Path_5407" data-name="Path 5407" d="M23.591,103.171c.028.043-1.577,1.127-3.591,2.42s-3.665,2.31-3.693,2.266,1.577-1.127,3.594-2.42S23.567,103.132,23.591,103.171Z" fill="#263238"/>
        <path id="Path_5408" data-name="Path 5408" d="M28.147,108.078a31.739,31.739,0,0,1-2.432-2.25,29.925,29.925,0,0,1-2.306-2.365,30.144,30.144,0,0,1,2.436,2.25A28.549,28.549,0,0,1,28.147,108.078Z" fill="#263238"/>
        <path id="Path_5409" data-name="Path 5409" d="M29.27,107.972l1.379-.114a6.811,6.811,0,0,0,2.79-.855,11.705,11.705,0,0,1,1.3-.654c1.707-.682,3.614-.56,5.451-.654a22.561,22.561,0,0,0,8.671-2.215.887.887,0,0,0,.394-.343c.284-.516-.244-.977-.7-1.257a28.565,28.565,0,0,0-7.335-3.6,9.6,9.6,0,0,0-7.883.958c-2.641,1.821-3.606,5.557-4.052,8.734" fill="#008083"/>
        <path id="Path_5410" data-name="Path 5410" d="M49.272,102.954a2.251,2.251,0,0,1-.233-.11l-.654-.343c-.568-.3-1.383-.741-2.42-1.234a22.133,22.133,0,0,0-3.74-1.443,12.313,12.313,0,0,0-4.853-.393,8.275,8.275,0,0,0-4.422,1.9,9.83,9.83,0,0,0-2.3,3.232,26.494,26.494,0,0,0-1,2.519l-.248.7a1.461,1.461,0,0,1-.1.24,1.282,1.282,0,0,1,.059-.252c.055-.177.126-.414.213-.706a22.983,22.983,0,0,1,.938-2.53,9.751,9.751,0,0,1,2.31-3.307,8.349,8.349,0,0,1,4.509-1.971,12.384,12.384,0,0,1,4.919.394,21.968,21.968,0,0,1,3.756,1.49c1.029.512,1.837.97,2.4,1.289l.638.374A1.121,1.121,0,0,1,49.272,102.954Z" fill="#263238"/>
        <path id="Path_5411" data-name="Path 5411" d="M45.954,104.751c-.028.039-1.837-1.127-4.036-2.609s-3.961-2.72-3.941-2.759,1.833,1.127,4.032,2.609S45.982,104.7,45.954,104.751Z" fill="#263238"/>
        <path id="Path_5412" data-name="Path 5412" d="M44.22,99.2a6.807,6.807,0,0,1-2.85.264,8.1,8.1,0,0,1,1.423-.165A8.31,8.31,0,0,1,44.22,99.2Z" fill="#263238"/>
        <path id="Path_5413" data-name="Path 5413" d="M36.12,97.752a9.969,9.969,0,0,1-1.344,2.278,4.756,4.756,0,0,1,.591-1.182A4.7,4.7,0,0,1,36.12,97.752Z" fill="#263238"/>
        <path id="Path_5414" data-name="Path 5414" d="M37.734,105.812a4.7,4.7,0,0,1-.867-.473c-.524-.315-1.23-.788-1.971-1.328s-1.415-1.064-1.9-1.443a5.268,5.268,0,0,1-.749-.642,5.074,5.074,0,0,1,.828.54l1.927,1.4c.749.544,1.439,1.021,1.943,1.368A5.644,5.644,0,0,1,37.734,105.812Z" fill="#263238"/>
        <path id="Path_5415" data-name="Path 5415" d="M31.3,113.84c-1.316-.351-2.889.93-3.153,2.266a6.514,6.514,0,0,0,.816,3.941,20.093,20.093,0,0,0,5.447,7.13,13.479,13.479,0,0,0,8.32,3.055c-.556-2.585.146-5.289-.162-7.918a10.3,10.3,0,0,0-9.124-9.03c-.84-.091-1.813-.221-2.148.556" fill="#008083"/>
        <path id="Path_5416" data-name="Path 5416" d="M42.73,130.233a.95.95,0,0,1-.189-.087,3.723,3.723,0,0,1-.493-.331,5.146,5.146,0,0,1-1.3-1.738c-.209-.394-.445-.851-.674-1.344s-.457-1.013-.709-1.576a14.22,14.22,0,0,0-.871-1.675,12.884,12.884,0,0,0-1.182-1.632c-.9-1.056-1.868-1.971-2.708-2.85a18.547,18.547,0,0,1-2.065-2.479,9.121,9.121,0,0,1-1.009-1.927c-.083-.24-.146-.434-.177-.564a.762.762,0,0,1-.039-.2s.091.268.284.741a10.028,10.028,0,0,0,1.048,1.88,19.847,19.847,0,0,0,2.081,2.432c.843.867,1.817,1.781,2.727,2.85a12.992,12.992,0,0,1,1.21,1.655,15.124,15.124,0,0,1,.871,1.7l.694,1.577c.221.489.449.938.654,1.344a5.324,5.324,0,0,0,1.23,1.746C42.49,130.091,42.75,130.217,42.73,130.233Z" fill="#263238"/>
        <path id="Path_5417" data-name="Path 5417" d="M35.923,128.085a4.085,4.085,0,0,1,.122-.887c.1-.544.272-1.289.5-2.1s.473-1.533.67-2.049a3.718,3.718,0,0,1,.359-.82,5.012,5.012,0,0,1-.236.859c-.166.528-.394,1.253-.615,2.061s-.394,1.541-.552,2.077A4.512,4.512,0,0,1,35.923,128.085Z" fill="#263238"/>
        <path id="Path_5418" data-name="Path 5418" d="M42.49,121.734a5.706,5.706,0,0,1-.93-.217c-.568-.146-1.352-.351-2.223-.548s-1.667-.347-2.243-.457a5.369,5.369,0,0,1-.93-.2,4.387,4.387,0,0,1,.95.079c.583.075,1.387.209,2.262.394a22.082,22.082,0,0,1,2.219.6A4.614,4.614,0,0,1,42.49,121.734Z" fill="#263238"/>
        <path id="Path_5419" data-name="Path 5419" d="M31.036,123.579a5.493,5.493,0,0,1,.142-1.029c.118-.627.3-1.494.548-2.436s.508-1.789.713-2.4a5.594,5.594,0,0,1,.394-.966,6.453,6.453,0,0,1-.252,1c-.173.615-.418,1.462-.662,2.4s-.449,1.8-.6,2.42A6.16,6.16,0,0,1,31.036,123.579Z" fill="#263238"/>
        <path id="Path_5420" data-name="Path 5420" d="M39.467,116.2c0,.047-1.651-.083-3.673-.3s-3.661-.43-3.654-.477a35.814,35.814,0,0,1,3.673.3A36.229,36.229,0,0,1,39.467,116.2Z" fill="#263238"/>
        <path id="Path_5421" data-name="Path 5421" d="M38.261,136.145c0,.051-5.782.091-12.912.091s-12.912-.039-12.912-.091,5.782-.091,12.912-.091S38.261,136.093,38.261,136.145Z" fill="#455a64"/>
        <path id="Path_5422" data-name="Path 5422" d="M34.24,143.582c0,.051-3.9.1-8.7.1s-8.7-.043-8.7-.1,3.894-.091,8.7-.091S34.24,143.55,34.24,143.582Z" fill="#455a64"/>
        <path id="Path_5423" data-name="Path 5423" d="M34.393,144.646c0,.051-3.894.091-8.7.091s-8.7-.039-8.7-.091,3.894-.091,8.7-.091S34.393,144.594,34.393,144.646Z" fill="#455a64"/>
        <path id="Path_5424" data-name="Path 5424" d="M34.39,142.707c0,.051-4.028.091-9,.091s-9-.039-9-.091,4.028-.091,9-.091S34.39,142.655,34.39,142.707Z" fill="#455a64"/>
      </g>
    </g>
  </g>
</svg>
