<svg id="Layer_1" data-name="Layer 1" xmlns="http://www.w3.org/2000/svg" xmlns:xlink="http://www.w3.org/1999/xlink" width="127.908" height="31.291" viewBox="0 0 127.908 31.291">
  <defs>
    <linearGradient id="linear-gradient" y1="0.5" x2="1" y2="0.5" gradientUnits="objectBoundingBox">
      <stop offset="0" stop-color="#6334fa" stop-opacity="0"/>
      <stop offset="1" stop-color="#6334fa"/>
    </linearGradient>
  </defs>
  <path id="path13" d="M24.355,11.318V0H13.876A2.022,2.022,0,0,0,11.86,2.016V29.275a2.022,2.022,0,0,0,2.016,2.016H36.439a2.022,2.022,0,0,0,2.016-2.016V11.318Z" transform="translate(-4.733)" fill="#6334fa"/>
  <path id="path15" d="M64.25,20.093V5.48h4.756a6.471,6.471,0,0,1,2.451.447A4.762,4.762,0,0,1,73.268,7.26a6.253,6.253,0,0,1,1.159,2.221,10.75,10.75,0,0,1,.4,3.09,12.12,12.12,0,0,1-.4,3.284A6.682,6.682,0,0,1,73.268,18.2a4.829,4.829,0,0,1-1.811,1.418,6.139,6.139,0,0,1-2.451.471ZM66.978,7.912v9.76h1.769a3.139,3.139,0,0,0,1.388-.29,2.764,2.764,0,0,0,1.044-.851,4.1,4.1,0,0,0,.658-1.424,7.889,7.889,0,0,0,.229-2V12.041a6.489,6.489,0,0,0-.229-1.811,3.622,3.622,0,0,0-.658-1.286,2.813,2.813,0,0,0-1.044-.773,3.525,3.525,0,0,0-1.364-.26Z" transform="translate(-25.5 -2.172)" fill="#6334fa"/>
  <path id="path17" d="M87.477,6.482H84.93V4.17h2.547Zm0,13.074H84.93V8.371h2.547Z" transform="translate(-33.697 -1.653)" fill="#6334fa"/>
  <path id="path19" d="M101.66,8a3.3,3.3,0,0,1-.477,1.9,2.414,2.414,0,0,1-1.334.954,3.29,3.29,0,0,1,.67,1.135,4.394,4.394,0,0,1,.229,1.449,4.316,4.316,0,0,1-.272,1.563,3.338,3.338,0,0,1-.791,1.207,3.441,3.441,0,0,1-1.3.767,5.4,5.4,0,0,1-1.811.272H95.534a.785.785,0,0,0-.555.2.652.652,0,0,0-.211.489.64.64,0,0,0,.181.471.6.6,0,0,0,.471.187H99.3a2.487,2.487,0,0,1,1,.2,2.354,2.354,0,0,1,.809.6,2.7,2.7,0,0,1,.549.924,3.332,3.332,0,0,1,.205,1.207,3.5,3.5,0,0,1-.284,1.418,3.338,3.338,0,0,1-.779,1.093,3.392,3.392,0,0,1-1.147.694,4.038,4.038,0,0,1-1.412.247H94.121a2.414,2.414,0,0,1-1.744-.718,2.607,2.607,0,0,1-.5-.815,2.8,2.8,0,0,1-.187-1.044,2.276,2.276,0,0,1,.4-1.388,2.97,2.97,0,0,1,.99-.893,1.877,1.877,0,0,1-.658-.682,2.016,2.016,0,0,1-.241-1,1.744,1.744,0,0,1,.133-.67,1.859,1.859,0,0,1,.356-.555,2.058,2.058,0,0,1,.525-.435,3.368,3.368,0,0,1,.6-.3,3.145,3.145,0,0,1-.99-1.231,4.273,4.273,0,0,1-.332-1.811,4.46,4.46,0,0,1,.266-1.569,3.187,3.187,0,0,1,.791-1.207,3.579,3.579,0,0,1,1.292-.773A5.2,5.2,0,0,1,96.608,9.6a5.867,5.867,0,0,1,1,.078,3.966,3.966,0,0,1,.869.241,2.354,2.354,0,0,0,.531-.5,2.831,2.831,0,0,0,.332-.549,2.415,2.415,0,0,0,.181-.5,2.16,2.16,0,0,0,.048-.38Zm-6.4,12.965a.99.99,0,0,0-.4.085,1.207,1.207,0,0,0-.32.223.966.966,0,0,0-.217.326.923.923,0,0,0-.078.386.984.984,0,0,0,1.02,1.044h2.867a1.249,1.249,0,0,0,.827-.284.954.954,0,0,0,.332-.761.966.966,0,0,0-.3-.748,1.074,1.074,0,0,0-.742-.272Zm1.34-9.44a1.424,1.424,0,0,0-1.207.507,2.251,2.251,0,0,0-.374,1.4,2.221,2.221,0,0,0,.4,1.4,1.642,1.642,0,0,0,2.414,0,2.221,2.221,0,0,0,.4-1.4,2.251,2.251,0,0,0-.4-1.418,1.431,1.431,0,0,0-1.231-.489Z" transform="translate(-36.376 -3.167)" fill="#6334fa"/>
  <path id="path21" d="M113.207,6.482H110.66V4.17h2.547Zm0,13.074H110.66V8.371h2.547Z" transform="translate(-43.897 -1.653)" fill="#6334fa"/>
  <path id="path23" d="M118.91,5.48h2.728V17.552h6.181v2.559H118.91Z" transform="translate(-47.167 -2.172)" fill="#6334fa"/>
  <path id="path25" d="M140.393,10.693a4,4,0,0,1,3.356,1.418,7.113,7.113,0,0,1,1.117,4.436,7.133,7.133,0,0,1-1.117,4.443,4.66,4.66,0,0,1-6.706,0,7.154,7.154,0,0,1-1.123-4.443,7.126,7.126,0,0,1,1.123-4.436,3.99,3.99,0,0,1,3.35-1.418Zm0,2.155a1.431,1.431,0,0,0-1.394.845,5.734,5.734,0,0,0-.41,2.451v.815a5.746,5.746,0,0,0,.41,2.457,1.575,1.575,0,0,0,2.795,0,5.746,5.746,0,0,0,.41-2.457v-.815a5.734,5.734,0,0,0-.41-2.451,1.431,1.431,0,0,0-1.4-.845Z" transform="translate(-53.91 -4.235)" fill="#6334fa"/>
  <path id="path27" d="M157.76,10.7a4.75,4.75,0,0,1,1.624.26,3.066,3.066,0,0,1,1.237.809,3.622,3.622,0,0,1,.785,1.388,6.4,6.4,0,0,1,.278,2.016h-2.62a3.622,3.622,0,0,0-.326-1.75,1.056,1.056,0,0,0-.978-.567,1.165,1.165,0,0,0-1.147.839,6.814,6.814,0,0,0-.338,2.457v.815a6.64,6.64,0,0,0,.356,2.457,1.249,1.249,0,0,0,1.207.851,1.032,1.032,0,0,0,.984-.6,3.863,3.863,0,0,0,.3-1.744H161.7a6.694,6.694,0,0,1-.272,2.022,3.706,3.706,0,0,1-.773,1.394,3.018,3.018,0,0,1-1.207.8,4.551,4.551,0,0,1-1.581.26,4.768,4.768,0,0,1-1.9-.344,3.193,3.193,0,0,1-1.328-1.074,4.883,4.883,0,0,1-.773-1.811,11.921,11.921,0,0,1-.247-2.62,7.6,7.6,0,0,1,1.032-4.436A3.622,3.622,0,0,1,157.76,10.7Z" transform="translate(-60.925 -4.237)" fill="#6334fa"/>
  <path id="path29" d="M172.717,12.826l3.133-4.455h2.734l-3.332,4.557,3.495,6.64h-2.825l-2.27-4.636-.936,1.141v3.495H170.17V4.17h2.547Z" transform="translate(-67.487 -1.653)" fill="#6334fa"/>
  <path id="path31" d="M189.728,10.7a3.471,3.471,0,0,1,3.018,1.418,7.7,7.7,0,0,1,1.008,4.436V17.2h-5.686a8.638,8.638,0,0,0,.109,1.334,3.434,3.434,0,0,0,.3.984,1.479,1.479,0,0,0,.525.6,1.418,1.418,0,0,0,.791.211,1.207,1.207,0,0,0,1.044-.561,2.728,2.728,0,0,0,.392-1.569h2.523a5.354,5.354,0,0,1-.3,1.877,3.55,3.55,0,0,1-.827,1.316,3.356,3.356,0,0,1-1.255.773,4.829,4.829,0,0,1-1.581.254,3.893,3.893,0,0,1-3.272-1.424A7.154,7.154,0,0,1,185.4,16.55a7.155,7.155,0,0,1,1.117-4.436A3.815,3.815,0,0,1,189.728,10.7Zm0,2.088a1.255,1.255,0,0,0-1.207.67,4.5,4.5,0,0,0-.429,1.889h2.976a4.292,4.292,0,0,0-.332-1.889,1.08,1.08,0,0,0-1.008-.67Z" transform="translate(-73.524 -4.237)" fill="#6334fa"/>
  <path id="path33" d="M206.887,10.7a3.2,3.2,0,0,1,.435.03l.344.066a2.793,2.793,0,0,1,.278.078v2.469h-.911a2.68,2.68,0,0,0-.8.121,1.648,1.648,0,0,0-.664.423,2.137,2.137,0,0,0-.459.791,3.827,3.827,0,0,0-.175,1.243v6.241H202.39v-11.2h2.125l.3,1.636h.121a6.893,6.893,0,0,1,.272-.694,2.415,2.415,0,0,1,.392-.6,1.962,1.962,0,0,1,.543-.429,1.533,1.533,0,0,1,.742-.169Z" transform="translate(-80.258 -4.241)" fill="#6334fa"/>
  <path id="path35" d="M77.114,44.949V46.76h-.561V44.949L75.14,42.39h.6l1.123,2.022h0l1.08-2.022H78.5Z" transform="translate(-29.817 -16.803)" fill="#868383"/>
  <path id="path37" d="M81.635,44a1.02,1.02,0,0,1,.893.429,3,3,0,0,1,0,2.65,1.153,1.153,0,0,1-1.811,0,3.059,3.059,0,0,1,0-2.65A1.02,1.02,0,0,1,81.635,44Zm0,.465a.525.525,0,0,0-.489.29,1.859,1.859,0,0,0-.157.875v.247a1.847,1.847,0,0,0,.157.869.555.555,0,0,0,.978,0,1.811,1.811,0,0,0,.163-.869v-.247a1.847,1.847,0,0,0-.163-.875.525.525,0,0,0-.489-.32Z" transform="translate(-31.906 -17.439)" fill="#868383"/>
  <path id="path39" d="M87.6,47.43h-.4l-.048-.38h-.042a.845.845,0,0,1-.35.362,1.044,1.044,0,0,1-.459.1,1.02,1.02,0,0,1-.338-.054.646.646,0,0,1-.266-.169.905.905,0,0,1-.163-.314,1.515,1.515,0,0,1-.06-.471V44.092H86v2.354a1.207,1.207,0,0,0,.03.29.428.428,0,0,0,.1.181.35.35,0,0,0,.151.091.6.6,0,0,0,.193,0,.489.489,0,0,0,.235-.06.694.694,0,0,0,.2-.181,1.08,1.08,0,0,0,.139-.29,1.467,1.467,0,0,0,.048-.386V44.08H87.6Z" transform="translate(-33.915 -17.473)" fill="#868383"/>
  <path id="path41" d="M91.364,44h.247v.537h-.175a.743.743,0,0,0-.235.042.6.6,0,0,0-.2.133.706.706,0,0,0-.139.241,1.31,1.31,0,0,0-.048.374v2.046H90.29V44.046h.429l.072.435h.036a1.207,1.207,0,0,1,.078-.187.6.6,0,0,1,.115-.163.519.519,0,0,1,.157-.121A.483.483,0,0,1,91.364,44Z" transform="translate(-35.822 -17.439)" fill="#868383"/>
  <path id="path43" d="M97.639,46.605h-.4l-.066-.38h-.036a.839.839,0,0,1-.308.35.779.779,0,0,1-.423.115.96.96,0,0,1-.435-.1.851.851,0,0,1-.326-.314,1.732,1.732,0,0,1-.205-.543,3.814,3.814,0,0,1-.072-.8,3.344,3.344,0,0,1,.078-.785,1.889,1.889,0,0,1,.217-.543.917.917,0,0,1,.314-.314.809.809,0,0,1,.374-.085.923.923,0,0,1,.435.1.676.676,0,0,1,.278.29h.03V42h.525Zm-1.123-2.964a.537.537,0,0,0-.266.06.6.6,0,0,0-.187.205,1.274,1.274,0,0,0-.109.368,3.332,3.332,0,0,0-.036.531v.247a3.387,3.387,0,0,0,.036.531,1.207,1.207,0,0,0,.109.356.519.519,0,0,0,.187.205.483.483,0,0,0,.266.066.489.489,0,0,0,.441-.29,2.034,2.034,0,0,0,.145-.869v-.217Q97.114,43.642,96.516,43.642Z" transform="translate(-37.836 -16.649)" fill="#868383"/>
  <path id="path45" d="M101.357,44a1.008,1.008,0,0,1,.887.429,3,3,0,0,1,0,2.65,1.147,1.147,0,0,1-1.811,0,3.005,3.005,0,0,1,0-2.65,1.014,1.014,0,0,1,.924-.429Zm0,.465a.531.531,0,0,0-.495.29,1.938,1.938,0,0,0-.157.875v.247a1.925,1.925,0,0,0,.157.869.531.531,0,0,0,.495.29.513.513,0,0,0,.483-.29,1.811,1.811,0,0,0,.163-.869v-.247a1.847,1.847,0,0,0-.145-.905.513.513,0,0,0-.5-.29Z" transform="translate(-39.718 -17.439)" fill="#868383"/>
  <path id="path47" d="M106.093,44a1.207,1.207,0,0,1,.465.085.791.791,0,0,1,.32.254,1.05,1.05,0,0,1,.181.416,2.252,2.252,0,0,1,.06.561h-.543a2.245,2.245,0,0,0,0-.374.6.6,0,0,0-.078-.266.386.386,0,0,0-.145-.163.561.561,0,0,0-.235-.048.477.477,0,0,0-.453.29,2.046,2.046,0,0,0-.145.875v.247a2.149,2.149,0,0,0,.139.869.477.477,0,0,0,.459.29.471.471,0,0,0,.235-.054.423.423,0,0,0,.163-.163.96.96,0,0,0,.085-.272,2.139,2.139,0,0,0,0-.362h.519a2.235,2.235,0,0,1-.054.5,1.207,1.207,0,0,1-.181.416.875.875,0,0,1-.32.29.936.936,0,0,1-.471.109,1.207,1.207,0,0,1-.513-.1.905.905,0,0,1-.356-.32,1.582,1.582,0,0,1-.205-.549,3.622,3.622,0,0,1-.072-.779,2.5,2.5,0,0,1,.278-1.322A.96.96,0,0,1,106.093,44Z" transform="translate(-41.63 -17.44)" fill="#868383"/>
  <path id="path49" d="M111.673,47.43h-.4l-.066-.392h-.042a.815.815,0,0,1-.35.362,1.044,1.044,0,0,1-.459.1,1.02,1.02,0,0,1-.338-.054.6.6,0,0,1-.26-.169.917.917,0,0,1-.169-.314,1.721,1.721,0,0,1-.06-.471V44.08h.525v2.366a.941.941,0,0,0,.036.29.374.374,0,0,0,.1.181.332.332,0,0,0,.145.091.6.6,0,0,0,.193,0,.471.471,0,0,0,.235-.06.567.567,0,0,0,.2-.181.923.923,0,0,0,.139-.29,1.467,1.467,0,0,0,.048-.386V44.08h.525Z" transform="translate(-43.449 -17.473)" fill="#868383"/>
  <path id="path51" d="M117.184,43.98a.911.911,0,0,1,.32.054.549.549,0,0,1,.247.175.736.736,0,0,1,.163.314,1.515,1.515,0,0,1,.06.471v2.414h-.525V45a1.292,1.292,0,0,0,0-.29.634.634,0,0,0-.091-.181.392.392,0,0,0-.139-.091.519.519,0,0,0-.169,0,.4.4,0,0,0-.223.06.6.6,0,0,0-.187.181,1.074,1.074,0,0,0-.121.29,1.5,1.5,0,0,0-.048.386V47.4h-.519V45a1,1,0,0,0-.036-.29.428.428,0,0,0-.091-.181.326.326,0,0,0-.133-.091.555.555,0,0,0-.175,0,.429.429,0,0,0-.223.06.646.646,0,0,0-.181.181.912.912,0,0,0-.127.29,1.5,1.5,0,0,0-.048.386V47.4h-.519V44.028h.35l.072.386h.036a.857.857,0,0,1,.326-.356.9.9,0,0,1,.441-.109.809.809,0,0,1,.435.115.658.658,0,0,1,.278.368.978.978,0,0,1,.356-.362.948.948,0,0,1,.471-.091Z" transform="translate(-45.387 -17.422)" fill="#868383"/>
  <path id="path53" d="M122.622,44a1.207,1.207,0,0,1,.483.091.767.767,0,0,1,.344.278,1.3,1.3,0,0,1,.205.489,3.066,3.066,0,0,1,.072.718v.332h-1.811a1.587,1.587,0,0,0,.181.857.6.6,0,0,0,.549.272.555.555,0,0,0,.229-.048.489.489,0,0,0,.181-.151.863.863,0,0,0,.121-.235,1.28,1.28,0,0,0,.036-.314h.519a1.491,1.491,0,0,1-.078.507,1.074,1.074,0,0,1-.223.38.887.887,0,0,1-.35.241,1.207,1.207,0,0,1-.447.084,1.436,1.436,0,0,1-.549-.1.9.9,0,0,1-.392-.314,1.412,1.412,0,0,1-.241-.543,3.32,3.32,0,0,1-.085-.8,2.221,2.221,0,0,1,.32-1.322A1.087,1.087,0,0,1,122.622,44Zm0,.465a.676.676,0,0,0-.3.06.507.507,0,0,0-.205.187.815.815,0,0,0-.133.3,2.591,2.591,0,0,0-.066.423h1.262a1.455,1.455,0,0,0-.139-.724.453.453,0,0,0-.416-.278Z" transform="translate(-48.138 -17.44)" fill="#868383"/>
  <path id="path55" d="M127.68,44a1.026,1.026,0,0,1,.344.054.6.6,0,0,1,.26.175.736.736,0,0,1,.163.314,1.515,1.515,0,0,1,.06.471v2.414h-.519V45.018a1,1,0,0,0-.036-.29.519.519,0,0,0-.1-.181.35.35,0,0,0-.151-.091.6.6,0,0,0-.193,0,.489.489,0,0,0-.235.06.694.694,0,0,0-.2.181.918.918,0,0,0-.133.29,1.274,1.274,0,0,0-.054.386V47.42h-.519V44.046h.38l.072.386h.036a.863.863,0,0,1,.35-.356A.972.972,0,0,1,127.68,44Z" transform="translate(-50.124 -17.439)" fill="#868383"/>
  <path id="path57" d="M131.465,43.454h.447v.465h-.447V46.1a.326.326,0,0,0,.072.229.29.29,0,0,0,.223.078h.151v.368a.773.773,0,0,1-.169.06.827.827,0,0,1-.205,0,.561.561,0,0,1-.284-.066.519.519,0,0,1-.187-.175.815.815,0,0,1-.1-.247,1.459,1.459,0,0,1-.03-.284V43.894h-.29V43.43h.29l.115-.93h.41Z" transform="translate(-51.821 -16.847)" fill="#868383"/>
  <path id="path59" d="M134.45,44a1.08,1.08,0,0,1,.41.072.875.875,0,0,1,.3.2.827.827,0,0,1,.187.29,1,1,0,0,1,.06.356.3.3,0,0,1,0,.072v.048h-.543v-.054a1.042,1.042,0,0,0,0-.193.543.543,0,0,0-.078-.169.41.41,0,0,0-.145-.121.465.465,0,0,0-.217-.042.5.5,0,0,0-.229.042.544.544,0,0,0-.139.115.386.386,0,0,0-.072.151.683.683,0,0,0,0,.151.374.374,0,0,0,.066.223.537.537,0,0,0,.175.151,1.267,1.267,0,0,0,.241.109l.284.1a2.852,2.852,0,0,1,.284.121.905.905,0,0,1,.241.181.779.779,0,0,1,.175.272,1.1,1.1,0,0,1,.066.4,1.207,1.207,0,0,1-.085.465.875.875,0,0,1-.223.32.833.833,0,0,1-.338.181,1.376,1.376,0,0,1-.423.06,1.207,1.207,0,0,1-.495-.085.911.911,0,0,1-.338-.217.924.924,0,0,1-.187-.314,1.088,1.088,0,0,1-.06-.362v-.109a.155.155,0,0,0,0-.042h.549v.042a.712.712,0,0,0,.042.272.519.519,0,0,0,.115.187.477.477,0,0,0,.175.109.821.821,0,0,0,.217.03.519.519,0,0,0,.193-.03.362.362,0,0,0,.157-.1.368.368,0,0,0,.109-.157.471.471,0,0,0,.042-.211.429.429,0,0,0-.066-.26.519.519,0,0,0-.169-.175,1.345,1.345,0,0,0-.247-.121l-.278-.1-.284-.121a1.032,1.032,0,0,1-.241-.175.785.785,0,0,1-.175-.26.99.99,0,0,1-.066-.374,1.075,1.075,0,0,1,.072-.4.882.882,0,0,1,.211-.3.96.96,0,0,1,.326-.187,1.394,1.394,0,0,1,.4-.036Z" transform="translate(-52.899 -17.44)" fill="#868383"/>
  <path id="path61" d="M141.215,44a1.056,1.056,0,0,1,.761.247.917.917,0,0,1,.254.694v1.877a.229.229,0,0,0,.054.169.193.193,0,0,0,.139.03h.2v.368l-.133.048a.7.7,0,0,1-.211,0,.507.507,0,0,1-.344-.115.6.6,0,0,1-.187-.3h-.03a.923.923,0,0,1-.338.326.978.978,0,0,1-.477.115h-.181l-.193-.048a.809.809,0,0,1-.187-.1.567.567,0,0,1-.163-.175.821.821,0,0,1-.115-.254,1.461,1.461,0,0,1-.042-.35,1.147,1.147,0,0,1,.127-.567.875.875,0,0,1,.356-.338,1.563,1.563,0,0,1,.537-.169,4.751,4.751,0,0,1,.676-.048v-.429a.846.846,0,0,0,0-.223.338.338,0,0,0-.078-.169.374.374,0,0,0-.163-.115.8.8,0,0,0-.266-.036.6.6,0,0,0-.247.042.537.537,0,0,0-.157.127.434.434,0,0,0-.078.169.718.718,0,0,0,0,.193v.072h-.513a.188.188,0,0,1,0-.06V44.9a.966.966,0,0,1,.078-.4.815.815,0,0,1,.223-.29.9.9,0,0,1,.338-.175A1.43,1.43,0,0,1,141.215,44Zm.489,1.907a3.67,3.67,0,0,0-.465,0,1.062,1.062,0,0,0-.362.091.622.622,0,0,0-.205.905.483.483,0,0,0,.338.109.694.694,0,0,0,.247-.048.6.6,0,0,0,.223-.157.767.767,0,0,0,.163-.254,1,1,0,0,0,.06-.368Z" transform="translate(-55.535 -17.44)" fill="#868383"/>
  <path id="path63" d="M146.446,44a.966.966,0,0,1,.338.054.555.555,0,0,1,.26.175.815.815,0,0,1,.169.314,1.515,1.515,0,0,1,.06.471v2.414h-.525V45.019a1.292,1.292,0,0,0-.03-.29.639.639,0,0,0-.1-.181.386.386,0,0,0-.151-.091.652.652,0,0,0-.193,0,.459.459,0,0,0-.235.06.567.567,0,0,0-.2.181,1.081,1.081,0,0,0-.139.29,1.5,1.5,0,0,0-.048.386v2.046h-.525V44.047h.4l.072.386h.054a.821.821,0,0,1,.344-.356A1,1,0,0,1,146.446,44Z" transform="translate(-57.561 -17.441)" fill="#868383"/>
  <path id="path65" d="M151.048,47.263a5.241,5.241,0,0,1-.169.519,1.865,1.865,0,0,1-.229.423.941.941,0,0,1-.3.284.712.712,0,0,1-.392.109h-.2a.6.6,0,0,1-.175-.042v-.362h.175a.6.6,0,0,0,.205-.036.5.5,0,0,0,.187-.121.839.839,0,0,0,.151-.229,1.883,1.883,0,0,0,.121-.356L149.4,44.1h.567l.742,2.6h0l.6-2.6h.531Z" transform="translate(-59.253 -17.481)" fill="#868383"/>
  <path id="path67" d="M154.595,43.454h.453v.465h-.453V46.1a.326.326,0,0,0,.072.229.3.3,0,0,0,.223.078h.157v.368a.839.839,0,0,1-.175.06.827.827,0,0,1-.205,0,.6.6,0,0,1-.284-.066.519.519,0,0,1-.187-.175,1.009,1.009,0,0,1-.1-.247,1.461,1.461,0,0,1-.03-.284V43.894h-.29V43.43h.29l.115-.93h.41Z" transform="translate(-60.99 -16.847)" fill="#868383"/>
  <path id="path69" d="M157.1,42.6h-.519V42h.519Zm0,3.984h-.519V43.255h.519Z" transform="translate(-62.099 -16.649)" fill="#868383"/>
  <path id="path71" d="M161.415,43.98a.924.924,0,0,1,.326.054.6.6,0,0,1,.247.175.9.9,0,0,1,.163.314,1.738,1.738,0,0,1,.054.471v2.414h-.519V45a1,1,0,0,0-.036-.29.429.429,0,0,0-.091-.181.308.308,0,0,0-.139-.091.5.5,0,0,0-.169,0,.428.428,0,0,0-.223.06.646.646,0,0,0-.181.181.911.911,0,0,0-.127.29,1.515,1.515,0,0,0-.042.386V47.4h-.525V45a1.292,1.292,0,0,0,0-.29.634.634,0,0,0-.091-.181.344.344,0,0,0-.139-.091.519.519,0,0,0-.169,0,.416.416,0,0,0-.223.06.6.6,0,0,0-.187.181,1.3,1.3,0,0,0-.127.29,1.516,1.516,0,0,0-.042.386V47.4h-.525V44.028h.4l.072.386h.036a.821.821,0,0,1,.326-.356.875.875,0,0,1,.435-.109.779.779,0,0,1,.435.115.658.658,0,0,1,.278.368,1.026,1.026,0,0,1,.356-.362.966.966,0,0,1,.429-.091Z" transform="translate(-62.92 -17.421)" fill="#868383"/>
  <path id="path73" d="M166.881,44a1.207,1.207,0,0,1,.483.091.767.767,0,0,1,.344.278,1.406,1.406,0,0,1,.205.489,3.067,3.067,0,0,1,.072.718v.332h-1.811a1.587,1.587,0,0,0,.181.857.6.6,0,0,0,.549.272.489.489,0,0,0,.41-.2.858.858,0,0,0,.115-.235,1.038,1.038,0,0,0,.042-.314h.519a1.491,1.491,0,0,1-.085.507.99.99,0,0,1-.223.38.911.911,0,0,1-.344.241,1.207,1.207,0,0,1-.447.084,1.394,1.394,0,0,1-.549-.1.954.954,0,0,1-.4-.314,1.509,1.509,0,0,1-.241-.543,3.352,3.352,0,0,1-.078-.8,2.221,2.221,0,0,1,.314-1.322,1.093,1.093,0,0,1,.942-.429Zm0,.465a.658.658,0,0,0-.3.06.525.525,0,0,0-.211.187.93.93,0,0,0-.127.3,2.071,2.071,0,0,0-.066.423h1.262a1.449,1.449,0,0,0-.145-.724.435.435,0,0,0-.41-.278Z" transform="translate(-65.682 -17.44)" fill="#868383"/>
  <path id="path75" d="M171.3,49.114l-.3.851h-.338l.26-.791h-.26V48.48h.64Z" transform="translate(-67.681 -19.217)" fill="#868383"/>
  <path id="path77" d="M176.379,44a1.032,1.032,0,0,1,.754.247.917.917,0,0,1,.254.694v1.877a.229.229,0,0,0,.054.169.205.205,0,0,0,.127.048h.2V47.4l-.127.048a.772.772,0,0,1-.217,0,.5.5,0,0,1-.338-.115.543.543,0,0,1-.2-.32h0a.984.984,0,0,1-.344.326.936.936,0,0,1-.471.115h-.181l-.2-.048a.96.96,0,0,1-.187-.1.76.76,0,0,1-.163-.175.7.7,0,0,1-.109-.254,1.207,1.207,0,0,1-.042-.35,1.147,1.147,0,0,1,.127-.567.875.875,0,0,1,.356-.338,1.521,1.521,0,0,1,.537-.169,4.623,4.623,0,0,1,.676-.048v-.429a1.208,1.208,0,0,0,0-.223.4.4,0,0,0-.078-.169.465.465,0,0,0-.163-.115.827.827,0,0,0-.266-.036.6.6,0,0,0-.247.042.416.416,0,0,0-.157.127.447.447,0,0,0-.085.169.706.706,0,0,0,0,.193v.072h-.519V44.9a.966.966,0,0,1,.085-.4.8.8,0,0,1,.217-.29.93.93,0,0,1,.344-.175,1.431,1.431,0,0,1,.362-.03Zm.489,1.907a3.767,3.767,0,0,0-.471,0,1,1,0,0,0-.356.091.525.525,0,0,0-.235.187.6.6,0,0,0-.085.32.549.549,0,0,0,.115.4.477.477,0,0,0,.338.109.748.748,0,0,0,.247-.048.664.664,0,0,0,.217-.157.767.767,0,0,0,.163-.254,1,1,0,0,0,.066-.368Z" transform="translate(-69.476 -17.439)" fill="#868383"/>
  <path id="path79" d="M181.564,43.99a1.026,1.026,0,0,1,.35,0,.6.6,0,0,1,.26.175.736.736,0,0,1,.163.314,1.516,1.516,0,0,1,.06.471v2.414h-.519V45.01a1,1,0,0,0-.036-.29.519.519,0,0,0-.1-.181.35.35,0,0,0-.151-.091.6.6,0,0,0-.193,0,.489.489,0,0,0-.235.06.6.6,0,0,0-.193.181.809.809,0,0,0-.139.29,1.273,1.273,0,0,0-.054.386v2.046h-.519V44.038h.392l.072.386h.036a.863.863,0,0,1,.35-.356A.972.972,0,0,1,181.564,43.99Z" transform="translate(-71.486 -17.432)" fill="#868383"/>
  <path id="path81" d="M186.166,47.263a4.03,4.03,0,0,1-.169.519,2.132,2.132,0,0,1-.223.423.96.96,0,0,1-.3.284.688.688,0,0,1-.386.109h-.205a.537.537,0,0,1-.169-.042v-.362h.181a.6.6,0,0,0,.205-.036.453.453,0,0,0,.187-.121.851.851,0,0,0,.157-.229,1.9,1.9,0,0,0,.115-.356L184.53,44.1h.573l.736,2.6h.03l.6-2.6H187Z" transform="translate(-73.179 -17.481)" fill="#868383"/>
  <path id="path83" d="M191.705,47.43h-.6l-.35-1.913a2.2,2.2,0,0,0-.042-.266.79.79,0,0,0-.036-.247c-.036-.072,0-.175,0-.254h0V45a.7.7,0,0,1-.03.247,1.426,1.426,0,0,0-.042.266l-.344,1.913h-.6l-.833-3.35h.567l.423,1.883a1.542,1.542,0,0,0,.048.241.934.934,0,0,0,.042.26.922.922,0,0,1,.042.3h.03v-.266a.645.645,0,0,1,.036-.26c.036-.091,0-.187.042-.272l.338-1.883h.6l.35,1.883c0,.085.03.175.036.272l.036.254v.272h.03a1.975,1.975,0,0,1,.036-.254.6.6,0,0,1,.042-.26,2.589,2.589,0,0,1,.054-.284l.416-1.883h.555Z" transform="translate(-74.879 -17.473)" fill="#868383"/>
  <path id="path85" d="M196.155,43.606h.036a.8.8,0,0,1,.755-.429.966.966,0,0,1,.338.054.555.555,0,0,1,.26.175.815.815,0,0,1,.169.314,1.514,1.514,0,0,1,.06.471v2.414h-.525V44.227a1.292,1.292,0,0,0-.03-.29.639.639,0,0,0-.1-.181.35.35,0,0,0-.151-.091.652.652,0,0,0-.193,0,.459.459,0,0,0-.235.06.568.568,0,0,0-.2.181,1.081,1.081,0,0,0-.139.29,1.5,1.5,0,0,0-.048.386V46.63h-.525V42h.525Z" transform="translate(-77.579 -16.649)" fill="#868383"/>
  <path id="path87" d="M201.515,44a1.207,1.207,0,0,1,.483.091.767.767,0,0,1,.344.278,1.406,1.406,0,0,1,.211.489,3.463,3.463,0,0,1,.066.718v.332h-1.811a1.708,1.708,0,0,0,.181.857.6.6,0,0,0,.549.272.555.555,0,0,0,.229-.048.489.489,0,0,0,.181-.151.863.863,0,0,0,.121-.235,1.273,1.273,0,0,0,.042-.314h.513a1.491,1.491,0,0,1-.078.507,1.074,1.074,0,0,1-.223.38.887.887,0,0,1-.35.241,1.207,1.207,0,0,1-.447.085,1.382,1.382,0,0,1-.543-.1.918.918,0,0,1-.4-.314,1.413,1.413,0,0,1-.241-.543,3.35,3.35,0,0,1-.078-.8,2.221,2.221,0,0,1,.314-1.322A1.086,1.086,0,0,1,201.515,44Zm0,.465a.6.6,0,0,0-.3.06.525.525,0,0,0-.211.187.815.815,0,0,0-.133.3,2.59,2.59,0,0,0-.066.423h1.262a1.455,1.455,0,0,0-.139-.724.453.453,0,0,0-.416-.278Z" transform="translate(-79.414 -17.44)" fill="#868383"/>
  <path id="path89" d="M206.3,44h.247v.537h-.175a.809.809,0,0,0-.235.042.525.525,0,0,0-.193.133.6.6,0,0,0-.139.241,1.117,1.117,0,0,0-.054.374V47.37h-.519V44.044h.392l.072.435h.036a.5.5,0,0,1,.078-.187.791.791,0,0,1,.115-.163.634.634,0,0,1,.163-.121A.471.471,0,0,1,206.3,44Z" transform="translate(-81.384 -17.437)" fill="#868383"/>
  <path id="path91" d="M209.167,44a1.207,1.207,0,0,1,.477.091.815.815,0,0,1,.35.278,1.406,1.406,0,0,1,.205.489,3.1,3.1,0,0,1,.066.718v.332h-1.811a1.587,1.587,0,0,0,.181.857.6.6,0,0,0,.549.272.549.549,0,0,0,.223-.048.489.489,0,0,0,.181-.151.724.724,0,0,0,.121-.235,1.038,1.038,0,0,0,.042-.314h.513a1.491,1.491,0,0,1-.078.507.99.99,0,0,1-.223.38.912.912,0,0,1-.344.241,1.207,1.207,0,0,1-.447.085,1.394,1.394,0,0,1-.549-.1.954.954,0,0,1-.4-.314,1.413,1.413,0,0,1-.241-.543,3.352,3.352,0,0,1-.078-.8,2.221,2.221,0,0,1,.314-1.322,1.093,1.093,0,0,1,.948-.429Zm0,.465a.658.658,0,0,0-.3.06.525.525,0,0,0-.211.187,1.08,1.08,0,0,0-.133.3,2.632,2.632,0,0,0-.06.423h1.31a1.448,1.448,0,0,0-.145-.724.435.435,0,0,0-.459-.278Z" transform="translate(-82.442 -17.44)" fill="#868383"/>
  <path id="path93" d="M5.453,33.6A5.432,5.432,0,0,1,3,23.339a7.122,7.122,0,0,1,13.134-3.622,5.716,5.716,0,0,1,2-.392,5.632,5.632,0,0,1,5.39,3.954A5.45,5.45,0,0,1,21.9,33.546V33.6Z" transform="translate(-0.052 -6.505)" fill="#6334ff"/>
  <path id="path95" d="M23.319,24.337a4.865,4.865,0,0,0-7.026-3.163A6.35,6.35,0,0,0,4.264,24c0,.1,0,.211,0,.314a4.66,4.66,0,0,0,1.678,9.006H21.6a4.66,4.66,0,0,0,1.72-8.982Z" transform="translate(-0.541 -7.001)" fill="#fff"/>
  <path id="polygon97" d="M35.14,10.014H47.683L35.14,0Z" transform="translate(-13.961)" opacity="0.6"/>
  <path id="polygon99" d="M35.14,10.014H47.683L35.14,0Z" transform="translate(-13.961)" fill="#6334ff"/>
  <circle id="circle101" cx="1.153" cy="1.153" r="1.153" transform="translate(10.833 17.498)" fill="#6334fa"/>
  <path id="polygon103" d="M19.509,31.6h-.67l-.779,3.217h2.233Z" transform="translate(-7.19 -12.526)" fill="#6334fa"/>
  <rect id="rect105" width="88.766" height="0.41" transform="translate(39.142 23.927)" fill="url(#linear-gradient)"/>
</svg>
