<svg xmlns="http://www.w3.org/2000/svg" width="50.005" height="50" viewBox="0 0 50.005 50">
  <g id="Group_6035" data-name="Group 6035" transform="translate(-17 -455.558)">
    <path id="Path_5628" data-name="Path 5628" d="M-483.7-297.227a2.742,2.742,0,0,1-1.813-1.434,2.571,2.571,0,0,1,.9-3.187,2.568,2.568,0,0,1-.036-2.335,8.614,8.614,0,0,1-.875-1.214,2.264,2.264,0,0,1,.2-2.362.441.441,0,0,0,0-.591,2.421,2.421,0,0,1,.007-2.8.559.559,0,0,0,0-.489,2.446,2.446,0,0,1-.147-2.591,2.427,2.427,0,0,1,2.277-1.334q2.855-.019,5.711,0c.332,0,.478-.085.568-.419a23.373,23.373,0,0,1,8.33-12.58c.063-.05.123-.1.213-.18-.076-.107-.144-.209-.217-.307a2.454,2.454,0,0,1,.587-3.558.494.494,0,0,0,.237-.667c-.687-2.388-1.369-4.778-2.027-7.174a3.28,3.28,0,0,1,2.47-4.18,17.607,17.607,0,0,1,1.8-.1.9.9,0,0,0,.588-.292,5.016,5.016,0,0,1,8.326.009.858.858,0,0,0,.545.283c.369.045.747.005,1.121.017a3.3,3.3,0,0,1,3.184,4.272c-.65,2.382-1.33,4.755-2.013,7.127-.092.321-.09.5.231.711a2.446,2.446,0,0,1,.6,3.518c-.074.1-.15.2-.209.283.891.818,1.8,1.583,2.627,2.425a22.79,22.79,0,0,1,5.848,10.261c.112.419.266.561.712.555,2-.028,4,.018,6-.025a2.034,2.034,0,0,1,2.177,1.264V-298.5a2.182,2.182,0,0,1-1.269,1.269h-24.994c-.108-.027-.215-.058-.324-.081-1.454-.306-2.909-.6-4.36-.922a8.512,8.512,0,0,1-1.012-.36,2.79,2.79,0,0,1-1.725,1.362Zm15.653-14.167a2.538,2.538,0,0,1,0,3.343,2.538,2.538,0,0,1,.318,2.879,2.579,2.579,0,0,1,1.13,2.14,2.6,2.6,0,0,1-1.1,2.072.955.955,0,0,0,.723.86,16.754,16.754,0,0,0,4.965,1.146,15.625,15.625,0,0,0,12.214-4.2,12.147,12.147,0,0,0,4.026-8.852,15.2,15.2,0,0,0-1.518-6.645,20.962,20.962,0,0,0-7.418-9.1,1.9,1.9,0,0,0-.988-.294c-3.2-.022-6.409.013-9.612-.031a3.169,3.169,0,0,0-2.053.684,21.668,21.668,0,0,0-6.685,8.373c-.51,1.092-.887,2.247-1.357,3.458h.683c1.513,0,3.025-.009,4.538.007a3.846,3.846,0,0,1,1.055.146A2.494,2.494,0,0,1-468.044-311.394Zm2.3-31.647h-.572a1.679,1.679,0,0,0-1.792,2.368c.674,2.392,1.357,4.782,2.015,7.178a.509.509,0,0,0,.6.449q4.735-.021,9.47,0c.341,0,.508-.073.607-.436.666-2.428,1.368-4.846,2.041-7.272a2.166,2.166,0,0,0,.075-.909c-.183-1.079-1.129-1.572-2.461-1.316,0,1.312,0,2.626,0,3.94,0,.61-.335,1-.833.991s-.825-.4-.828-1.005c-.006-1.025.012-2.05-.009-3.075a4.035,4.035,0,0,0-.159-1.1,3.315,3.315,0,0,0-3.6-2.293,3.311,3.311,0,0,0-2.886,3.242c-.017,1.09,0,2.18-.008,3.27a.87.87,0,0,1-.821.964.845.845,0,0,1-.838-.935C-465.748-340.316-465.744-341.646-465.744-343.041Zm28.3,33.259a5.108,5.108,0,0,1-4.095-4.086h-2.606c.457,6.991-2.876,11.726-8.841,14.952h11.461a5.2,5.2,0,0,1,1.421-2.692,5.335,5.335,0,0,1,2.66-1.392Zm-39.114-.778h-.976q-2.732,0-5.464,0c-.7,0-1.09.312-1.084.842s.391.82,1.1.828h.1q6.294,0,12.588,0a2.93,2.93,0,0,0,.534-.034.78.78,0,0,0,.67-.785.8.8,0,0,0-.685-.821,3.106,3.106,0,0,0-.534-.03Q-473.432-310.562-476.555-310.56Zm-.013,10.006c-2.163,0-4.326,0-6.49,0a.924.924,0,0,0-.914.432c-.342.6.113,1.232.907,1.233q6.465.005,12.931,0c.652,0,1.046-.319,1.049-.831s-.389-.83-1.042-.831Q-473.347-300.556-476.568-300.554Zm-.026-11.676q3.147,0,6.294,0a3.2,3.2,0,0,0,.535-.024.758.758,0,0,0,.667-.733.755.755,0,0,0-.533-.835,1.613,1.613,0,0,0-.527-.072q-6.416-.006-12.832,0a1.629,1.629,0,0,0-.573.082.755.755,0,0,0-.51.805.763.763,0,0,0,.65.748,2.777,2.777,0,0,0,.535.028Q-479.741-312.228-476.594-312.23Zm.018,5.012h-2.83c-1.269,0-2.537-.007-3.806.007a.812.812,0,0,0-.868.8.85.85,0,0,0,.828.854,2.731,2.731,0,0,0,.293.007q6.367,0,12.734,0a1.858,1.858,0,0,0,.622-.084.681.681,0,0,0,.491-.8,1.579,1.579,0,0,0-.552-.722c-.123-.1-.376-.056-.57-.056Q-473.4-307.22-476.575-307.218Zm.784,5q3.2,0,6.39,0a1.877,1.877,0,0,0,.575-.065.753.753,0,0,0,.554-.864.76.76,0,0,0-.728-.723,3.245,3.245,0,0,0-.39-.01h-12.732a2.657,2.657,0,0,0-.438.017.791.791,0,0,0-.484,1.307,1.348,1.348,0,0,0,.863.326C-480.051-302.206-477.921-302.218-475.791-302.218Zm15.02-27.508h3.9c.65,0,1.3.011,1.95-.007a.785.785,0,0,0,.817-.789.821.821,0,0,0-.757-.859,2.654,2.654,0,0,0-.341-.009q-5.559,0-11.117,0a1.659,1.659,0,0,0-.482.044.771.771,0,0,0-.6.884.761.761,0,0,0,.726.724,3.366,3.366,0,0,0,.438.011Zm21.032,15.852a2.907,2.907,0,0,0,2.286,2.281v-2.281Zm0,14.947h2.318v-2.3A3.032,3.032,0,0,0-439.74-298.927Z" transform="translate(502.764 802.785)" fill="#008083"/>
    <path id="Path_5629" data-name="Path 5629" d="M-156.76-52.636a2.46,2.46,0,0,1,2.477,2.52,2.5,2.5,0,0,1-2.495,2.471,2.532,2.532,0,0,1-2.492-2.487A2.5,2.5,0,0,1-156.76-52.636Zm.812,2.495a.8.8,0,0,0-.824-.828.829.829,0,0,0-.829.837.859.859,0,0,0,.813.816A.828.828,0,0,0-155.948-50.141Z" transform="translate(218.772 546.543)" fill="#008083"/>
    <path id="Path_5630" data-name="Path 5630" d="M-300.135-132.671h-3.043a2.768,2.768,0,0,1,1.033,1.881h2.01v.922h-1.992c-.184,1.88-1.678,3.079-4.038,3.153,1.438,1.494,3.006,3.374,4.554,5.273h-1.77c-1.438-1.733-2.784-3.338-4.517-5.181v-1.143h1.014c1.992,0,3.06-.829,3.19-2.1h-4.2v-.922h4.149c-.258-1.07-1.236-1.6-2.84-1.6H-307.9v-1.2h7.763Z" transform="translate(348.052 616.962)" fill="#f78104"/>
  </g>
</svg>
