<svg xmlns="http://www.w3.org/2000/svg" width="19.193" height="21.414" viewBox="0 0 19.193 21.414">
  <g id="notification-svgrepo-com_1_" data-name="notification-svgrepo-com (1)" transform="translate(-22.068)">
    <g id="Group_5669" data-name="Group 5669" transform="translate(22.068)">
      <path id="Path_5497" data-name="Path 5497" d="M187.776,25.053a1.456,1.456,0,0,0-2.8,0,6.907,6.907,0,0,1,2.8,0Z" transform="translate(-176.781 -22.792)" fill="none"/>
      <path id="Path_5498" data-name="Path 5498" d="M106.621,74.711V71.743a5.669,5.669,0,0,0-11.339,0v2.963a12.614,12.614,0,0,1-.256,2.226h11.85A12.608,12.608,0,0,1,106.621,74.711Zm-5.669-6.583a3.508,3.508,0,0,0-3.5,3.5.6.6,0,0,1-1.208,0,4.717,4.717,0,0,1,4.712-4.711.6.6,0,1,1,0,1.208Z" transform="translate(-91.356 -62.749)" fill="none"/>
      <path id="Path_5499" data-name="Path 5499" d="M175.327,372.332a2.118,2.118,0,0,0,1.984-1.548h-3.968A2.118,2.118,0,0,0,175.327,372.332Z" transform="translate(-165.731 -352.126)" fill="none"/>
      <path id="Path_5501" data-name="Path 5501" d="M40.9,17.5c-2.276-1.028-2.362-5.439-2.364-5.55V8.994a6.888,6.888,0,0,0-4.214-6.34,2.663,2.663,0,0,0-5.327,0,6.888,6.888,0,0,0-4.214,6.34v2.959c0,.111-.088,4.522-2.364,5.55a.6.6,0,0,0,.249,1.154h5.769a3.394,3.394,0,0,0,.9,1.746,3.186,3.186,0,0,0,4.654,0,3.393,3.393,0,0,0,.9-1.746h5.769A.6.6,0,0,0,40.9,17.5Zm-3-2.113a6.7,6.7,0,0,0,1.058,2.06h-14.6a6.7,6.7,0,0,0,1.058-2.06ZM31.664,1.208a1.458,1.458,0,0,1,1.4,1.053,6.907,6.907,0,0,0-2.8,0A1.458,1.458,0,0,1,31.664,1.208Zm-5.669,10.75V8.994a5.669,5.669,0,0,1,11.339,0v2.968a12.6,12.6,0,0,0,.256,2.221H25.739A12.614,12.614,0,0,0,25.995,11.957Zm5.669,8.249a2.118,2.118,0,0,1-1.984-1.548h3.968A2.118,2.118,0,0,1,31.664,20.206Z" transform="translate(-22.068)" fill="#303030"/>
      <path id="Path_5502" data-name="Path 5502" d="M123.854,82.909a4.717,4.717,0,0,0-4.712,4.711.6.6,0,1,0,1.208,0,3.508,3.508,0,0,1,3.5-3.5.6.6,0,1,0,0-1.208Z" transform="translate(-114.257 -78.737)" fill="#303030"/>
    </g>
  </g>
</svg>
