<svg xmlns="http://www.w3.org/2000/svg" width="20.064" height="20.044" viewBox="0 0 20.064 20.044">
  <path id="Path_1253" data-name="Path 1253" d="M-784.641,1405.662a8.254,8.254,0,0,1-11.671-1.062,8.249,8.249,0,0,1,.549-11.107,8.258,8.258,0,0,1,11.082-.492,8.254,8.254,0,0,1,1.059,11.638l5.485,5.487-1.025,1.019Zm-5.3-13.13a6.829,6.829,0,0,0-6.827,6.8,6.825,6.825,0,0,0,6.806,6.823,6.809,6.809,0,0,0,6.821-6.8A6.814,6.814,0,0,0-789.94,1392.532Z" transform="translate(798.201 -1391.101)" fill="#464646" opacity="0.38"/>
</svg>
