<svg xmlns="http://www.w3.org/2000/svg" width="23.794" height="8.896" viewBox="0 0 23.794 8.896">
  <path id="Path_5674" data-name="Path 5674" d="M-490.523,155.646a1.26,1.26,0,0,1,1.292-.89c.092,0,.183-.03.276-.036a6.944,6.944,0,0,0,2.961-.852c.39-.22.8-.4,1.2-.6a5.243,5.243,0,0,1,2.312-.611q1.9-.029,3.807,0a4.965,4.965,0,0,1,2.616.843c.846.543,1.693,1.085,2.547,1.616a.967.967,0,0,0,.451.14,16.883,16.883,0,0,1,4.39.669c.265.083.526.183.782.29a1.8,1.8,0,0,1,1.119,1.328.71.71,0,0,0,.042.105v1.812l-.091.231a1.048,1.048,0,0,1-.911.722.363.363,0,0,1-.435-.289c-.032-.2.094-.35.327-.4a.425.425,0,0,0,.4-.457c.016-.471,0-.943,0-1.457-.237,0-.467.016-.692-.007a.572.572,0,0,1-.343-.146.326.326,0,0,1,.231-.534,3.323,3.323,0,0,1,.408,0l.015-.068a3.778,3.778,0,0,0-.351-.2,9.514,9.514,0,0,0-2.961-.733c-1.093-.1-2.193-.157-3.29-.168-2.315-.025-4.631-.007-6.946-.008a2.463,2.463,0,0,1-.278-.009.325.325,0,0,1-.311-.342.332.332,0,0,1,.34-.34c.309-.012.619,0,.929-.006.061,0,.121-.008.2-.013v-1.879c-.716,0-1.418-.014-2.12.007a5.061,5.061,0,0,0-.867.145.237.237,0,0,0-.159.131c-.125.518-.238,1.038-.365,1.609h.85a.351.351,0,0,1,.378.246.329.329,0,0,1-.289.438,2.7,2.7,0,0,1-2.464-.775c-.147-.169-.3-.407-.485-.447s-.405.134-.609.219a8.176,8.176,0,0,1-2.261.482c-.192.022-.385.041-.575.075a.4.4,0,0,0-.374.446c0,.131,0,.261,0,.433.141,0,.269-.009.4,0a.344.344,0,0,1,.346.359.343.343,0,0,1-.353.329c-.122.008-.244,0-.381,0,0,.4-.024.784.007,1.158a.708.708,0,0,0,.545.628c.436.132.876.252,1.339.383a2.266,2.266,0,0,1,1.065-1.787,2.139,2.139,0,0,1,1.493-.3,2.143,2.143,0,0,1,1.461.9,2.26,2.26,0,0,1,.387,1.665h10.139c0-.134,0-.262,0-.39a2.2,2.2,0,0,1,2.248-2.2,2.21,2.21,0,0,1,2.168,2.283,2.228,2.228,0,0,1-1.565,2.037,2.186,2.186,0,0,1-2.442-.84.382.382,0,0,0-.36-.182q-5.111.007-10.222,0a.366.366,0,0,0-.344.168,2.1,2.1,0,0,1-1.98.936,2.118,2.118,0,0,1-1.856-1.342.4.4,0,0,0-.291-.254c-.374-.1-.739-.232-1.116-.312a1.643,1.643,0,0,1-1.382-1.268Zm10.753-2.292c0,.565.006,1.12,0,1.675,0,.174.052.223.224.222,1.554-.006,3.109,0,4.663,0,.061,0,.122-.012.237-.025-.595-.379-1.145-.709-1.674-1.071A5.138,5.138,0,0,0-479.77,153.355Zm-4.426,5.96a1.5,1.5,0,0,0-1.5-1.5,1.514,1.514,0,0,0-1.519,1.518,1.528,1.528,0,0,0,1.511,1.509A1.517,1.517,0,0,0-484.2,159.314Zm11.511,0a1.516,1.516,0,0,0,1.513,1.524,1.528,1.528,0,0,0,1.511-1.509,1.514,1.514,0,0,0-1.519-1.518A1.5,1.5,0,0,0-472.684,159.314Zm-11.967-4.336.251-1.131-.945.472c.2.2.371.385.549.565A.965.965,0,0,0-484.651,154.978Z" transform="translate(490.523 -152.637)" fill="#fff"/>
</svg>
