<svg xmlns="http://www.w3.org/2000/svg" width="96" height="96" viewBox="0 0 96 96">
  <g id="Group_5313" data-name="Group 5313" transform="translate(-147.5 -195.5)">
    <circle id="Ellipse_54" data-name="Ellipse 54" cx="47" cy="47" r="47" transform="translate(148.5 196.5)" fill="none" stroke="#008083" stroke-width="2"/>
    <g id="Group_2411" data-name="Group 2411" transform="translate(190 217)">
      <path id="Path_3254" data-name="Path 3254" d="M790.918,262.175a5.2,5.2,0,0,1,5.2-5.2,4.94,4.94,0,0,1,3.654,1.5,5.06,5.06,0,0,1,1.481,3.7,5.007,5.007,0,0,1-1.53,3.671,4.933,4.933,0,0,1-3.6,1.53,5.406,5.406,0,0,1-5.2-5.2ZM792,251.642l-1.02-36.6h10.039l-.856,36.6Z" transform="translate(-790.918 -215.039)" fill="#008083"/>
    </g>
  </g>
</svg>
