<?xml version="1.0" encoding="utf-8"?>
<!-- Generator: Adobe Illustrator 25.4.6, SVG Export Plug-In . SVG Version: 6.00 Build 0)  -->
<svg version="1.1" xmlns="http://www.w3.org/2000/svg" xmlns:xlink="http://www.w3.org/1999/xlink" x="0px" y="0px"
	 viewBox="0 0 680 671.2" style="enable-background:new 0 0 680 671.2;" xml:space="preserve">
<style type="text/css">
	.st0{fill:#FFFFFF;}
	.st1{fill:#008084;}
	.st2{fill:none;}
	.st3{fill:#F98100;}
	.st4{fill:#C47F0B;}
	.st5{fill:#FBBB00;}
</style>
<g id="Grid">
</g>
<g id="Fonts">
</g>
<g id="Logo">
	<g id="New_Symbol">
	</g>
	<g>
		<g>
			<path class="st1" d="M301.3,199.5c30.8,3.3,58.3-19.1,61.6-49.8c3.3-30.8-19.1-58.3-49.8-61.6c-30.8-3.3-58.3,19.1-61.6,49.8
				C248.2,168.7,270.6,196.3,301.3,199.5z"/>
			<g>
				<path class="st2" d="M127,385.1l-2.4-2.9c-3.8-4.6-8.6-6.3-12.2-6.3c-1.3,0-2.4,0.2-3.2,0.6c-1.1,0.5-2.4,1.4-2.2,3.3
					c0.6,5.2,9.5,15.8,12.9,19.5l1,1.1l-1.1,1c-0.1,0.1-2.7,2.7-18.8,22.9c-7.4,9.3-8.7,21.8-3.4,32.6c6.2,12.6,19.8,20.1,36.5,20.1
					c0.3,0,0.5,0,0.8,0c17-0.2,30.7-8.1,36.7-21.1c5-10.9,3.3-23.3-4.3-32.5c-16.6-19.8-19.3-22.3-19.4-22.4l-1.1-1l1-1.1
					c3.3-3.8,12-14.6,12.4-19.8c0.2-1.9-1.2-2.8-2.3-3.2c-1.5-0.6-3.7-0.7-6.1-0.1c-5.4,11.4-8,20.8-8,20.8l-16.8,5.2
					c0,0-0.4-10.1,2.3-25.1c-1,1.2-1.7,2.7-1.9,4.7L127,385.1z"/>
				<path class="st1" d="M449.5,197.4l-197.3,56.2c-6.1,1.7-12,3.8-17.8,6.2c-74.1,23.1-97.2,77.8-104.3,112.2c1.6-1,2.9-1.4,3-1.4
					l0.4-0.1l0.4,0.1c0.3,0.1,6.2,1.7,8.4,7.4c3.4-3.4,7.5-5.1,11.1-5.5c4.3-8.5,10.2-17.8,17.6-24.7c37.9-35.5,79.5-43.4,79.5-43.4
					c4.8-2,9.7-3.7,14.7-5.2l197.3-56.2L449.5,197.4z"/>
				<path class="st3" d="M157.8,375.8c1.1,0.4,2.4,1.3,2.3,3.2c-0.4,5.2-9.1,16.1-12.4,19.8l-1,1.1l1.1,1c0.1,0.1,2.8,2.6,19.4,22.4
					c7.7,9.1,9.3,21.6,4.3,32.5c-5.9,13-19.6,20.9-36.7,21.1c-0.3,0-0.5,0-0.8,0c-16.7,0-30.3-7.5-36.5-20.1
					c-5.3-10.8-4-23.2,3.4-32.6c16.1-20.2,18.7-22.8,18.8-22.9l1.1-1l-1-1.1c-3.4-3.7-12.4-14.3-12.9-19.5c-0.2-1.9,1.1-2.8,2.2-3.3
					c0.9-0.4,2-0.6,3.2-0.6c3.6,0,8.4,1.7,12.2,6.3l2.4,2.9l0.3-3.7c0.2-2,0.9-3.6,1.9-4.7c0.3-1.5,0.6-3.1,0.9-4.7
					c-1.9,1.1-4.1,3.1-5.2,6.2c-5.6-5.2-12.5-6.2-16.8-4.4c-2.8,1.2-4.3,3.6-4,6.4c0.7,6.2,9.7,16.7,12.8,20.2
					c-1.8,2-6.4,7.5-18.1,22.1c-8.1,10.3-9.6,24-3.8,35.8c6.7,13.7,21.3,21.8,39.1,21.8c0.3,0,0.5,0,0.8,0
					c18.2-0.2,32.9-8.8,39.3-22.8c5.5-12,3.6-25.6-4.8-35.7c-12-14.3-16.8-19.7-18.7-21.6c3-3.6,11.7-14.3,12.2-20.5
					c0.2-2.8-1.3-5.1-4.2-6.2c-1.6-0.6-3.5-0.8-5.6-0.6c-0.6,1.1-1.1,2.3-1.6,3.4C154.1,375.1,156.3,375.2,157.8,375.8z"/>
				<path class="st3" d="M133.8,370.5l-0.4-0.1l-0.4,0.1c-0.1,0-1.4,0.4-3,1.4c-0.3,1.6-0.6,3.2-0.9,4.7c1.5-1.8,3.5-2.8,4.3-3.1
					c1.4,0.5,5.9,2.5,6.4,7.6l0.4,3.7l2.3-2.9c2.7-3.5,6.1-5.4,9.1-6.2c0.5-1.1,1.1-2.2,1.6-3.4c-3.6,0.4-7.7,2.1-11.1,5.5
					C140,372.2,134.1,370.6,133.8,370.5z"/>
			</g>
			<path class="st1" d="M150.6,401.7l-34.5,0.5c-0.5,0-1-0.4-1-1l0-1.6c0-0.5,0.4-1,1-1l34.5-0.5c0.5,0,1,0.4,1,1l0,1.6
				C151.6,401.3,151.1,401.7,150.6,401.7z"/>
			<path class="st3" d="M473.2,240.1l26-8.7c8.7-2.9,14.6-11.1,14.6-20.3l0-14.8l15.1-4.5c7-3.2,11.8-9.7,12.9-17.3l0.7-5
				l-81.9,24.3L473.2,240.1z"/>
			<g>
				<path class="st1" d="M492.8,463.6c0,0-2.4,15.8-11.3,30.5c-7.1,11.9-18.4,23.1-36,24.8c-2.5,0.2-4.9,0.3-7.1,0.1
					c-23-2-29-26-30.5-40.5l2.2-198.7l-47.4,13.5c-0.7,73.3-1.9,211.6-1.4,214.5c-0.8,70.2,60.6,73.2,94.8,53
					c45.1-26.7,48.3-101.1,48.3-101.1L492.8,463.6z"/>
				<path class="st1" d="M250.4,326.2c0,0-1.2,0.2-3.3,0.8c-0.1,33.7-3.8,79.7-19.8,118.2c-29.1,70.3-70.2,106.8-30.9,135.7
					c39.3,29,71.8-7.1,79.1-76.4c5.3-50,6.5-137.8,6.7-188.4l-17.2,4.9C260.1,322.5,255.2,324.2,250.4,326.2z"/>
			</g>
		</g>
	</g>
	<g>
		<g>
			<g>
				<path class="st1" d="M108.3,456.8v11h21.2v-11H108.3z M126.4,458.7c0,0.8,0.7,1.5,1.5,1.5c0.1,0,0.3,0,0.4-0.1v4.5
					c-0.1,0-0.3-0.1-0.4-0.1c-0.8,0-1.5,0.7-1.5,1.5c0,0,0,0,0,0h-14.9c0,0,0,0,0,0c0-0.8-0.7-1.5-1.5-1.5c-0.2,0-0.4,0-0.6,0.1V460
					c0.2,0.1,0.4,0.1,0.6,0.1c0.8,0,1.5-0.7,1.5-1.5H126.4z"/>
				<path class="st3" d="M110,460.1c-0.2,0-0.4,0-0.6-0.1v4.6c0.2-0.1,0.4-0.1,0.6-0.1c0.8,0,1.5,0.7,1.5,1.5c0,0,0,0,0,0h14.9
					c0,0,0,0,0,0c0-0.8,0.7-1.5,1.5-1.5c0.1,0,0.3,0,0.4,0.1V460c-0.1,0-0.3,0.1-0.4,0.1c-0.8,0-1.5-0.7-1.5-1.5h-14.9
					C111.4,459.5,110.8,460.1,110,460.1z M118.8,459.3c1.7,0,3,1.3,3,3c0,1.7-1.3,3-3,3c-1.7,0-3-1.3-3-3
					C115.8,460.6,117.2,459.3,118.8,459.3z"/>
				<path class="st1" d="M118.8,465.3c1.7,0,3-1.3,3-3c0-1.7-1.3-3-3-3c-1.7,0-3,1.3-3,3C115.8,463.9,117.2,465.3,118.8,465.3z
					 M120.1,460.7h0.7v3.1h-0.7V460.7z M116.9,460.7h1.4c0.8,0,1.4,0.4,1.4,1.1c0,0.7-0.5,1.1-1.4,1.1h-0.6v0.9h-0.7V460.7z"/>
				<path class="st1" d="M118.9,461.9c0-0.3-0.2-0.5-0.7-0.5h-0.6v1.1h0.6C118.6,462.4,118.9,462.2,118.9,461.9z"/>
				<path class="st3" d="M117.6,463h0.6c0.8,0,1.4-0.4,1.4-1.1c0-0.7-0.5-1.1-1.4-1.1h-1.4v3.1h0.7V463z M117.6,461.3h0.6
					c0.4,0,0.7,0.2,0.7,0.5c0,0.3-0.2,0.5-0.7,0.5h-0.6V461.3z"/>
				<rect x="120.1" y="460.7" class="st3" width="0.7" height="3.1"/>
			</g>
			<g>
				<path class="st1" d="M110.5,454.1v11h21.2v-11H110.5z M128.6,456c0,0.8,0.7,1.5,1.5,1.5c0.1,0,0.3,0,0.4-0.1v4.5
					c-0.1,0-0.3-0.1-0.4-0.1c-0.8,0-1.5,0.7-1.5,1.5c0,0,0,0,0,0h-14.9c0,0,0,0,0,0c0-0.8-0.7-1.5-1.5-1.5c-0.2,0-0.4,0-0.6,0.1
					v-4.6c0.2,0.1,0.4,0.1,0.6,0.1c0.8,0,1.5-0.7,1.5-1.5H128.6z"/>
				<path class="st3" d="M112.2,457.4c-0.2,0-0.4,0-0.6-0.1v4.6c0.2-0.1,0.4-0.1,0.6-0.1c0.8,0,1.5,0.7,1.5,1.5c0,0,0,0,0,0h14.9
					c0,0,0,0,0,0c0-0.8,0.7-1.5,1.5-1.5c0.1,0,0.3,0,0.4,0.1v-4.5c-0.1,0-0.3,0.1-0.4,0.1c-0.8,0-1.5-0.7-1.5-1.5h-14.9
					C113.7,456.8,113,457.4,112.2,457.4z M121,456.6c1.7,0,3,1.3,3,3c0,1.7-1.3,3-3,3c-1.7,0-3-1.3-3-3
					C118,458,119.4,456.6,121,456.6z"/>
				<path class="st1" d="M121,462.6c1.7,0,3-1.3,3-3c0-1.7-1.3-3-3-3c-1.7,0-3,1.3-3,3C118,461.3,119.4,462.6,121,462.6z
					 M122.3,458.1h0.7v3.1h-0.7V458.1z M119.1,458.1h1.4c0.8,0,1.4,0.4,1.4,1.1c0,0.7-0.5,1.1-1.4,1.1h-0.6v0.9h-0.7V458.1z"/>
				<path class="st1" d="M121.1,459.2c0-0.3-0.2-0.5-0.7-0.5h-0.6v1.1h0.6C120.8,459.7,121.1,459.5,121.1,459.2z"/>
				<path class="st3" d="M119.8,460.3h0.6c0.8,0,1.4-0.4,1.4-1.1c0-0.7-0.5-1.1-1.4-1.1h-1.4v3.1h0.7V460.3z M119.8,458.7h0.6
					c0.4,0,0.7,0.2,0.7,0.5c0,0.3-0.2,0.5-0.7,0.5h-0.6V458.7z"/>
				<rect x="122.3" y="458.1" class="st3" width="0.7" height="3.1"/>
			</g>
			<g>
				<path class="st1" d="M113.4,449.9v11h21.2v-11H113.4z M131.4,451.8c0,0.8,0.7,1.5,1.5,1.5c0.1,0,0.3,0,0.4-0.1v4.5
					c-0.1,0-0.3-0.1-0.4-0.1c-0.8,0-1.5,0.7-1.5,1.5c0,0,0,0,0,0h-14.9c0,0,0,0,0,0c0-0.8-0.7-1.5-1.5-1.5c-0.2,0-0.4,0-0.6,0.1
					v-4.6c0.2,0.1,0.4,0.1,0.6,0.1c0.8,0,1.5-0.7,1.5-1.5H131.4z"/>
				<path class="st3" d="M115.1,453.3c-0.2,0-0.4,0-0.6-0.1v4.6c0.2-0.1,0.4-0.1,0.6-0.1c0.8,0,1.5,0.7,1.5,1.5c0,0,0,0,0,0h14.9
					c0,0,0,0,0,0c0-0.8,0.7-1.5,1.5-1.5c0.1,0,0.3,0,0.4,0.1v-4.5c-0.1,0-0.3,0.1-0.4,0.1c-0.8,0-1.5-0.7-1.5-1.5h-14.9
					C116.5,452.6,115.9,453.3,115.1,453.3z M123.9,452.5c1.7,0,3,1.3,3,3c0,1.7-1.3,3-3,3s-3-1.3-3-3
					C120.9,453.8,122.2,452.5,123.9,452.5z"/>
				<path class="st1" d="M123.9,458.4c1.7,0,3-1.3,3-3c0-1.7-1.3-3-3-3s-3,1.3-3,3C120.9,457.1,122.2,458.4,123.9,458.4z
					 M125.2,453.9h0.7v3.1h-0.7V453.9z M121.9,453.9h1.4c0.8,0,1.4,0.4,1.4,1.1c0,0.7-0.5,1.1-1.4,1.1h-0.6v0.9h-0.7V453.9z"/>
				<path class="st1" d="M123.9,455c0-0.3-0.2-0.5-0.7-0.5h-0.6v1.1h0.6C123.7,455.6,123.9,455.4,123.9,455z"/>
				<path class="st3" d="M122.7,456.2h0.6c0.8,0,1.4-0.4,1.4-1.1c0-0.7-0.5-1.1-1.4-1.1h-1.4v3.1h0.7V456.2z M122.7,454.5h0.6
					c0.4,0,0.7,0.2,0.7,0.5c0,0.3-0.2,0.5-0.7,0.5h-0.6V454.5z"/>
				<rect x="125.2" y="453.9" class="st3" width="0.7" height="3.1"/>
			</g>
			<g>
				<path class="st1" d="M114.4,440.2l-3.1,10.6l20.4,5.9l3.1-10.6L114.4,440.2z M131.2,447.1c-0.2,0.8,0.2,1.6,1,1.8
					c0.1,0,0.3,0.1,0.4,0.1l-1.2,4.3c-0.1-0.1-0.2-0.1-0.4-0.2c-0.8-0.2-1.6,0.2-1.8,1c0,0,0,0,0,0l-14.3-4.2c0,0,0,0,0,0
					c0.2-0.8-0.2-1.6-1-1.8c-0.2-0.1-0.4-0.1-0.6,0l1.3-4.4c0.2,0.1,0.3,0.2,0.5,0.3c0.8,0.2,1.6-0.2,1.8-1L131.2,447.1z"/>
				<path class="st3" d="M115.1,443.9c-0.2-0.1-0.4-0.2-0.5-0.3l-1.3,4.4c0.2,0,0.4,0,0.6,0c0.8,0.2,1.2,1,1,1.8c0,0,0,0,0,0
					l14.3,4.2c0,0,0,0,0,0c0.2-0.8,1-1.2,1.8-1c0.1,0,0.3,0.1,0.4,0.2l1.2-4.3c-0.1,0-0.3,0-0.4-0.1c-0.8-0.2-1.2-1-1-1.8l-14.3-4.2
					C116.6,443.7,115.8,444.1,115.1,443.9z M123.7,445.6c1.6,0.5,2.5,2.1,2,3.7c-0.5,1.6-2.1,2.5-3.7,2c-1.6-0.5-2.5-2.1-2-3.7
					C120.5,446,122.2,445.1,123.7,445.6z"/>
				<path class="st1" d="M122.1,451.3c1.6,0.5,3.2-0.5,3.7-2c0.5-1.6-0.5-3.2-2-3.7c-1.6-0.5-3.2,0.5-3.7,2
					C119.6,449.2,120.5,450.9,122.1,451.3z M124.6,447.3l0.7,0.2l-0.9,3l-0.7-0.2L124.6,447.3z M121.5,446.4l1.3,0.4
					c0.8,0.2,1.2,0.8,1,1.5c-0.2,0.7-0.8,0.9-1.6,0.7l-0.6-0.2l-0.2,0.8l-0.7-0.2L121.5,446.4z"/>
				<path class="st1" d="M123.1,448c0.1-0.3-0.1-0.6-0.5-0.7l-0.6-0.2l-0.3,1l0.6,0.2C122.7,448.5,123,448.4,123.1,448z"/>
				<path class="st3" d="M121.6,448.8l0.6,0.2c0.8,0.2,1.4,0,1.6-0.7c0.2-0.7-0.2-1.2-1-1.5l-1.3-0.4l-0.9,3l0.7,0.2L121.6,448.8z
					 M122,447.2l0.6,0.2c0.4,0.1,0.6,0.4,0.5,0.7c-0.1,0.3-0.4,0.5-0.8,0.3l-0.6-0.2L122,447.2z"/>
				
					<rect x="122.9" y="448.5" transform="matrix(0.279 -0.9603 0.9603 0.279 -341.3132 443.2259)" class="st3" width="3.1" height="0.7"/>
			</g>
			<g>
				<path class="st1" d="M114,436.5c0,3.7,0,7.4,0,11c7.1,4.2,14.2-4.2,21.2,0c0-3.7,0-7.4,0-11C128.2,432.3,121.1,440.7,114,436.5z
					 M132.1,437.3c0,0.8,0.7,1.5,1.5,1.8c0.1,0,0.3,0.1,0.4,0.1c0,1.5,0,3,0,4.5c-0.1-0.1-0.3-0.2-0.4-0.2c-0.8-0.3-1.5,0.3-1.5,1.1
					c0,0,0,0,0,0c-5-0.7-9.9,3-14.9,2.2c0,0,0,0,0,0c0-0.8-0.7-1.5-1.5-1.8c-0.2-0.1-0.4-0.1-0.6-0.1c0-1.5,0-3.1,0-4.6
					c0.2,0.2,0.4,0.3,0.6,0.4c0.8,0.3,1.5-0.3,1.5-1.1C122.1,440.3,127.1,436.6,132.1,437.3z"/>
				<path class="st3" d="M115.7,440.6c-0.2-0.1-0.4-0.2-0.6-0.4c0,1.5,0,3.1,0,4.6c0.2,0,0.4,0,0.6,0.1c0.8,0.3,1.5,1,1.5,1.8
					c0,0,0,0,0,0c5,0.7,9.9-2.9,14.9-2.2c0,0,0,0,0,0c0-0.8,0.7-1.4,1.5-1.1c0.1,0,0.3,0.1,0.4,0.2c0-1.5,0-3,0-4.5
					c-0.1,0-0.3,0-0.4-0.1c-0.8-0.3-1.5-1-1.5-1.8c-5-0.7-9.9,3-14.9,2.2C117.2,440.3,116.5,440.9,115.7,440.6z M124.5,439.1
					c1.7-0.5,3,0.5,3,2.2c0,1.6-1.3,3.3-3,3.8c-1.7,0.5-3-0.5-3-2.2C121.5,441.3,122.9,439.6,124.5,439.1z"/>
				<path class="st1" d="M124.5,445.1c1.7-0.5,3-2.2,3-3.8c0-1.7-1.3-2.7-3-2.2c-1.7,0.5-3,2.2-3,3.8
					C121.5,444.6,122.9,445.6,124.5,445.1z M125.8,440.2c0.2-0.1,0.5-0.1,0.7-0.2c0,1,0,2.1,0,3.1c-0.2,0.1-0.5,0.1-0.7,0.2
					C125.8,442.2,125.8,441.2,125.8,440.2z M122.6,441.1c0.5-0.1,0.9-0.2,1.4-0.4c0.8-0.2,1.4,0,1.4,0.7c0,0.7-0.5,1.3-1.4,1.5
					c-0.2,0.1-0.4,0.1-0.6,0.2c0,0.3,0,0.6,0,0.9c-0.2,0.1-0.5,0.1-0.7,0.2C122.6,443.2,122.6,442.1,122.6,441.1z"/>
				<path class="st1" d="M124.6,441.7c0-0.3-0.2-0.5-0.7-0.3c-0.2,0.1-0.4,0.1-0.6,0.2c0,0.4,0,0.7,0,1.1c0.2-0.1,0.4-0.1,0.6-0.2
					C124.3,442.3,124.6,442,124.6,441.7z"/>
				<path class="st3" d="M123.3,443.2c0.2-0.1,0.4-0.1,0.6-0.2c0.8-0.2,1.4-0.8,1.4-1.5c0-0.7-0.5-1-1.4-0.7
					c-0.5,0.1-0.9,0.3-1.4,0.4c0,1,0,2.1,0,3.1c0.2-0.1,0.5-0.1,0.7-0.2C123.3,443.7,123.3,443.4,123.3,443.2z M123.3,441.5
					c0.2-0.1,0.4-0.1,0.6-0.2c0.4-0.1,0.7,0,0.7,0.3c0,0.3-0.2,0.6-0.7,0.7c-0.2,0.1-0.4,0.1-0.6,0.2
					C123.3,442.2,123.3,441.8,123.3,441.5z"/>
				<path class="st3" d="M126.5,440c-0.2,0.1-0.5,0.1-0.7,0.2c0,1,0,2.1,0,3.1c0.2-0.1,0.5-0.1,0.7-0.2
					C126.5,442,126.5,441,126.5,440z"/>
			</g>
			<g>
				<path class="st1" d="M111.9,433.1c0,3.7,0,7.4,0,11c7.1,4.2,14.2-4.2,21.2,0c0-3.7,0-7.4,0-11C126,428.9,119,437.3,111.9,433.1z
					 M129.9,433.9c0,0.8,0.7,1.5,1.5,1.8c0.1,0,0.3,0.1,0.4,0.1c0,1.5,0,3,0,4.5c-0.1-0.1-0.3-0.2-0.4-0.2c-0.8-0.3-1.5,0.3-1.5,1.1
					c0,0,0,0,0,0c-5-0.7-9.9,3-14.9,2.2c0,0,0,0,0,0c0-0.8-0.7-1.5-1.5-1.8c-0.2-0.1-0.4-0.1-0.6-0.1c0-1.5,0-3.1,0-4.6
					c0.2,0.2,0.4,0.3,0.6,0.4c0.8,0.3,1.5-0.3,1.5-1.1C120,436.8,124.9,433.2,129.9,433.9z"/>
				<path class="st3" d="M113.5,437.2c-0.2-0.1-0.4-0.2-0.6-0.4c0,1.5,0,3.1,0,4.6c0.2,0,0.4,0,0.6,0.1c0.8,0.3,1.5,1,1.5,1.8
					c0,0,0,0,0,0c5,0.7,9.9-2.9,14.9-2.2c0,0,0,0,0,0c0-0.8,0.7-1.4,1.5-1.1c0.1,0,0.3,0.1,0.4,0.2c0-1.5,0-3,0-4.5
					c-0.1,0-0.3,0-0.4-0.1c-0.8-0.3-1.5-1-1.5-1.8c-5-0.7-9.9,3-14.9,2.2C115,436.9,114.3,437.5,113.5,437.2z M122.4,435.7
					c1.7-0.5,3,0.5,3,2.2c0,1.6-1.3,3.3-3,3.8c-1.7,0.5-3-0.5-3-2.2C119.4,437.8,120.7,436.2,122.4,435.7z"/>
				<path class="st1" d="M122.4,441.7c1.7-0.5,3-2.2,3-3.8c0-1.7-1.3-2.7-3-2.2c-1.7,0.5-3,2.2-3,3.8
					C119.4,441.1,120.7,442.2,122.4,441.7z M123.6,436.7c0.2-0.1,0.5-0.1,0.7-0.2c0,1,0,2.1,0,3.1c-0.2,0.1-0.5,0.1-0.7,0.2
					C123.6,438.8,123.6,437.8,123.6,436.7z M120.4,437.7c0.5-0.1,0.9-0.2,1.4-0.4c0.8-0.2,1.4,0,1.4,0.7c0,0.7-0.5,1.3-1.4,1.5
					c-0.2,0.1-0.4,0.1-0.6,0.2c0,0.3,0,0.6,0,0.9c-0.2,0.1-0.5,0.1-0.7,0.2C120.4,439.8,120.4,438.7,120.4,437.7z"/>
				<path class="st1" d="M122.4,438.2c0-0.3-0.2-0.5-0.7-0.3c-0.2,0.1-0.4,0.1-0.6,0.2c0,0.4,0,0.7,0,1.1c0.2-0.1,0.4-0.1,0.6-0.2
					C122.2,438.8,122.4,438.6,122.4,438.2z"/>
				<path class="st3" d="M121.1,439.7c0.2-0.1,0.4-0.1,0.6-0.2c0.8-0.2,1.4-0.8,1.4-1.5c0-0.7-0.5-1-1.4-0.7
					c-0.5,0.1-0.9,0.3-1.4,0.4c0,1,0,2.1,0,3.1c0.2-0.1,0.5-0.1,0.7-0.2C121.1,440.3,121.1,440,121.1,439.7z M121.1,438.1
					c0.2-0.1,0.4-0.1,0.6-0.2c0.4-0.1,0.7,0,0.7,0.3c0,0.3-0.2,0.6-0.7,0.7c-0.2,0.1-0.4,0.1-0.6,0.2
					C121.1,438.8,121.1,438.4,121.1,438.1z"/>
				<path class="st3" d="M124.4,436.5c-0.2,0.1-0.5,0.1-0.7,0.2c0,1,0,2.1,0,3.1c0.2-0.1,0.5-0.1,0.7-0.2
					C124.4,438.6,124.4,437.6,124.4,436.5z"/>
			</g>
			<g>
				<path class="st1" d="M113.2,426.2c0,3.7,0,7.4,0,11c7.1,4.2,14.2-4.2,21.2,0c0-3.7,0-7.4,0-11
					C127.4,422,120.3,430.4,113.2,426.2z M131.3,426.9c0,0.8,0.7,1.5,1.5,1.8c0.1,0,0.3,0.1,0.4,0.1c0,1.5,0,3,0,4.5
					c-0.1-0.1-0.3-0.2-0.4-0.2c-0.8-0.3-1.5,0.3-1.5,1.1c0,0,0,0,0,0c-5-0.7-9.9,3-14.9,2.2c0,0,0,0,0,0c0-0.8-0.7-1.5-1.5-1.8
					c-0.2-0.1-0.4-0.1-0.6-0.1c0-1.5,0-3.1,0-4.6c0.2,0.2,0.4,0.3,0.6,0.4c0.8,0.3,1.5-0.3,1.5-1.1
					C121.3,429.9,126.3,426.2,131.3,426.9z"/>
				<path class="st3" d="M114.9,430.3c-0.2-0.1-0.4-0.2-0.6-0.4c0,1.5,0,3.1,0,4.6c0.2,0,0.4,0,0.6,0.1c0.8,0.3,1.5,1,1.5,1.8
					c0,0,0,0,0,0c5,0.7,9.9-2.9,14.9-2.2c0,0,0,0,0,0c0-0.8,0.7-1.4,1.5-1.1c0.1,0,0.3,0.1,0.4,0.2c0-1.5,0-3,0-4.5
					c-0.1,0-0.3,0-0.4-0.1c-0.8-0.3-1.5-1-1.5-1.8c-5-0.7-9.9,3-14.9,2.2C116.3,430,115.7,430.5,114.9,430.3z M123.7,428.7
					c1.7-0.5,3,0.5,3,2.2c0,1.6-1.3,3.3-3,3.8c-1.7,0.5-3-0.5-3-2.2C120.7,430.9,122,429.2,123.7,428.7z"/>
				<path class="st1" d="M123.7,434.7c1.7-0.5,3-2.2,3-3.8c0-1.7-1.3-2.7-3-2.2c-1.7,0.5-3,2.2-3,3.8
					C120.7,434.2,122,435.2,123.7,434.7z M125,429.8c0.2-0.1,0.5-0.1,0.7-0.2c0,1,0,2.1,0,3.1c-0.2,0.1-0.5,0.1-0.7,0.2
					C125,431.9,125,430.8,125,429.8z M121.8,430.7c0.5-0.1,0.9-0.2,1.4-0.4c0.8-0.2,1.4,0,1.4,0.7c0,0.7-0.5,1.3-1.4,1.5
					c-0.2,0.1-0.4,0.1-0.6,0.2c0,0.3,0,0.6,0,0.9c-0.2,0.1-0.5,0.1-0.7,0.2C121.8,432.8,121.8,431.8,121.8,430.7z"/>
				<path class="st1" d="M123.7,431.3c0-0.3-0.2-0.5-0.7-0.3c-0.2,0.1-0.4,0.1-0.6,0.2c0,0.4,0,0.7,0,1.1c0.2-0.1,0.4-0.1,0.6-0.2
					C123.5,431.9,123.7,431.6,123.7,431.3z"/>
				<path class="st3" d="M122.5,432.8c0.2-0.1,0.4-0.1,0.6-0.2c0.8-0.2,1.4-0.8,1.4-1.5c0-0.7-0.5-1-1.4-0.7
					c-0.5,0.1-0.9,0.3-1.4,0.4c0,1,0,2.1,0,3.1c0.2-0.1,0.5-0.1,0.7-0.2C122.5,433.4,122.5,433.1,122.5,432.8z M122.5,431.1
					c0.2-0.1,0.4-0.1,0.6-0.2c0.4-0.1,0.7,0,0.7,0.3c0,0.3-0.2,0.6-0.7,0.7c-0.2,0.1-0.4,0.1-0.6,0.2
					C122.5,431.8,122.5,431.5,122.5,431.1z"/>
				<path class="st3" d="M125.7,429.6c-0.2,0.1-0.5,0.1-0.7,0.2c0,1,0,2.1,0,3.1c0.2-0.1,0.5-0.1,0.7-0.2
					C125.7,431.7,125.7,430.6,125.7,429.6z"/>
			</g>
			<g>
				<path class="st1" d="M111.2,420.7c0,3.7,0,7.4,0,11c7.1,4.2,14.2-4.2,21.2,0c0-3.7,0-7.4,0-11
					C125.3,416.5,118.2,424.9,111.2,420.7z M129.2,421.4c0,0.8,0.7,1.5,1.5,1.8c0.1,0,0.3,0.1,0.4,0.1c0,1.5,0,3,0,4.5
					c-0.1-0.1-0.3-0.2-0.4-0.2c-0.8-0.3-1.5,0.3-1.5,1.1c0,0,0,0,0,0c-5-0.7-9.9,3-14.9,2.2c0,0,0,0,0,0c0-0.8-0.7-1.5-1.5-1.8
					c-0.2-0.1-0.4-0.1-0.6-0.1c0-1.5,0-3.1,0-4.6c0.2,0.2,0.4,0.3,0.6,0.4c0.8,0.3,1.5-0.3,1.5-1.1
					C119.2,424.4,124.2,420.7,129.2,421.4z"/>
				<path class="st3" d="M112.8,424.8c-0.2-0.1-0.4-0.2-0.6-0.4c0,1.5,0,3.1,0,4.6c0.2,0,0.4,0,0.6,0.1c0.8,0.3,1.5,1,1.5,1.8
					c0,0,0,0,0,0c5,0.7,9.9-2.9,14.9-2.2c0,0,0,0,0,0c0-0.8,0.7-1.4,1.5-1.1c0.1,0,0.3,0.1,0.4,0.2c0-1.5,0-3,0-4.5
					c-0.1,0-0.3,0-0.4-0.1c-0.8-0.3-1.5-1-1.5-1.8c-5-0.7-9.9,3-14.9,2.2C114.3,424.5,113.6,425,112.8,424.8z M121.6,423.2
					c1.7-0.5,3,0.5,3,2.2c0,1.6-1.3,3.3-3,3.8c-1.7,0.5-3-0.5-3-2.2C118.6,425.4,120,423.7,121.6,423.2z"/>
				<path class="st1" d="M121.6,429.2c1.7-0.5,3-2.2,3-3.8c0-1.7-1.3-2.7-3-2.2c-1.7,0.5-3,2.2-3,3.8
					C118.6,428.7,120,429.7,121.6,429.2z M122.9,424.3c0.2-0.1,0.5-0.1,0.7-0.2c0,1,0,2.1,0,3.1c-0.2,0.1-0.5,0.1-0.7,0.2
					C122.9,426.4,122.9,425.3,122.9,424.3z M119.7,425.2c0.5-0.1,0.9-0.2,1.4-0.4c0.8-0.2,1.4,0,1.4,0.7c0,0.7-0.5,1.3-1.4,1.5
					c-0.2,0.1-0.4,0.1-0.6,0.2c0,0.3,0,0.6,0,0.9c-0.2,0.1-0.5,0.1-0.7,0.2C119.7,427.3,119.7,426.3,119.7,425.2z"/>
				<path class="st1" d="M121.7,425.8c0-0.3-0.2-0.5-0.7-0.3c-0.2,0.1-0.4,0.1-0.6,0.2c0,0.4,0,0.7,0,1.1c0.2-0.1,0.4-0.1,0.6-0.2
					C121.5,426.4,121.7,426.1,121.7,425.8z"/>
				<path class="st3" d="M120.4,427.3c0.2-0.1,0.4-0.1,0.6-0.2c0.8-0.2,1.4-0.8,1.4-1.5c0-0.7-0.5-1-1.4-0.7
					c-0.5,0.1-0.9,0.3-1.4,0.4c0,1,0,2.1,0,3.1c0.2-0.1,0.5-0.1,0.7-0.2C120.4,427.9,120.4,427.6,120.4,427.3z M120.4,425.6
					c0.2-0.1,0.4-0.1,0.6-0.2c0.4-0.1,0.7,0,0.7,0.3c0,0.3-0.2,0.6-0.7,0.7c-0.2,0.1-0.4,0.1-0.6,0.2
					C120.4,426.3,120.4,426,120.4,425.6z"/>
				<path class="st3" d="M123.7,424.1c-0.2,0.1-0.5,0.1-0.7,0.2c0,1,0,2.1,0,3.1c0.2-0.1,0.5-0.1,0.7-0.2
					C123.7,426.2,123.7,425.1,123.7,424.1z"/>
			</g>
		</g>
		<polygon class="st1" points="119.5,468.1 139.9,440.3 148.9,447 155.4,439.1 150.2,438.2 167.5,427.3 163.1,447.2 160.6,442.7 
			150.2,455.9 140.7,449.8 127,468.1 		"/>
		<polygon class="st3" points="120.5,467.6 126.7,467.6 140.6,449.1 150.1,455.3 160.6,441.8 162.9,445.8 166.7,428.3 151.6,437.9 
			156.2,438.7 149,447.7 140,441 		"/>
		<g>
			<g id="XMLID_00000153669886665800054930000010155837447371344801_">
				<g>
					<path class="st1" d="M148.1,465.1v1.2c0,0.1-0.1,0.2-0.2,0.3c0,0-0.1,0.1-0.1,0.1c-0.1,0.1-0.2,0.1-0.3,0.2c0,0-0.1,0-0.1,0
						c-0.2,0.1-0.3,0.1-0.6,0.2c0,0-0.1,0-0.1,0c-0.2,0-0.5,0.1-0.7,0.1c0,0-0.1,0-0.1,0c-0.2,0-0.4,0.1-0.7,0.1c0,0-0.1,0-0.1,0
						c-0.2,0-0.3,0-0.5,0c0,0-0.1,0-0.1,0c-0.2,0-0.4,0-0.6,0c0,0-0.1,0-0.1,0h-0.1c-0.2,0-0.4,0-0.6,0c0,0-0.1,0-0.1,0
						c-0.2,0-0.4,0-0.6,0c0,0-0.1,0-0.1,0c-0.1,0-0.3,0-0.4,0c0,0-0.1,0-0.1,0c-0.2,0-0.3,0-0.5-0.1c0,0-0.1,0-0.1,0
						c-0.1,0-0.2,0-0.4-0.1c0,0-0.1,0-0.1,0c-0.1,0-0.3-0.1-0.4-0.1c0,0-0.1,0-0.1,0c-0.1,0-0.3-0.1-0.4-0.1c0,0-0.1,0-0.1-0.1
						c-0.1-0.1-0.2-0.1-0.3-0.2c-0.1,0-0.1-0.1-0.1-0.1c-0.1-0.1-0.1-0.2-0.1-0.3c0-0.4,0-1.2,0-1.2c0,0.5,2.1,1,4.6,1
						C146,466.1,148.1,465.7,148.1,465.1z"/>
					<path class="st3" d="M148.1,465.1L148.1,465.1c0,0.5-2.1,1-4.6,1c-2.6,0-4.6-0.4-4.6-1v0h0.9h0c0,0,0,0,0,0c0,0,0,0,0,0
						c0.4,0.3,1.9,0.5,3.7,0.5c1.8,0,3.3-0.2,3.7-0.5c0,0,0,0,0,0c0,0,0,0,0,0h0H148.1z"/>
					<path class="st3" d="M148.1,465.1h-0.9c0,0,0,0,0,0c0,0,0,0,0,0c0,0,0,0,0-0.1c0,0,0,0,0,0c0,0,0,0,0,0c0-0.4-1.6-0.7-3.6-0.7
						l0-0.2C146.1,464.2,148.1,464.6,148.1,465.1z"/>
					<path class="st3" d="M147.3,465C147.3,465,147.3,465,147.3,465C147.3,465,147.3,465,147.3,465c0,0.1,0,0.1,0,0.1c0,0,0,0,0,0
						c0,0,0,0,0,0h0h-0.1c-0.5-0.3-1.9-0.5-3.6-0.5c-1.7,0-3.2,0.2-3.6,0.5h-0.1h0c0,0,0,0,0,0c0,0,0,0,0,0c0,0,0,0,0-0.1
						c0,0,0,0,0,0c0,0,0,0,0,0c0-0.4,1.7-0.7,3.8-0.7c0.1,0,0.1,0,0.2,0C145.7,464.4,147.3,464.6,147.3,465z"/>
					<path class="st3" d="M147.3,465C147.3,465,147.3,465,147.3,465C147.3,465,147.3,465,147.3,465z"/>
					<path class="st3" d="M147.3,465.1C147.3,465,147.3,465,147.3,465.1C147.3,465,147.3,465,147.3,465.1z"/>
					<path class="st3" d="M147.2,465.1C147.2,465.1,147.2,465.1,147.2,465.1C147.2,465.1,147.2,465.1,147.2,465.1z"/>
					<path class="st3" d="M147.2,465.1C147.2,465.1,147.2,465.2,147.2,465.1C147.2,465.2,147.2,465.2,147.2,465.1
						c-0.1,0-0.1,0-0.1,0H147.2z"/>
					<path class="st3" d="M147.2,465.2C147.2,465.2,147.2,465.1,147.2,465.2C147.2,465.1,147.2,465.2,147.2,465.2z"/>
					<path class="st1" d="M147.1,465.1C147.1,465.2,147.1,465.2,147.1,465.1c-0.4,0.3-1.9,0.5-3.6,0.5c-1.8,0-3.3-0.2-3.7-0.5
						c0,0,0,0,0.1,0H147.1z"/>
					<path class="st1" d="M147.1,465.1h-7.3c0.5-0.3,1.9-0.5,3.6-0.5C145.2,464.7,146.6,464.9,147.1,465.1z"/>
					<path class="st3" d="M143.6,464.2l0,0.2c-0.1,0-0.1,0-0.2,0c-2.1,0-3.8,0.3-3.8,0.7c0,0,0,0,0,0c0,0,0,0,0,0c0,0,0,0,0,0.1
						c0,0,0,0,0,0c0,0,0,0,0,0h-0.9c0-0.5,2.1-1,4.6-1C143.5,464.2,143.6,464.2,143.6,464.2z"/>
					<path class="st3" d="M139.7,465.1h0.1C139.8,465.2,139.8,465.2,139.7,465.1C139.7,465.2,139.7,465.2,139.7,465.1
						C139.7,465.2,139.7,465.1,139.7,465.1z"/>
					<path class="st3" d="M139.7,465.1C139.7,465.1,139.7,465.2,139.7,465.1C139.7,465.2,139.7,465.1,139.7,465.1z"/>
					<path class="st3" d="M139.7,465.1C139.7,465.1,139.7,465.1,139.7,465.1C139.7,465.1,139.7,465.1,139.7,465.1z"/>
					<path class="st3" d="M139.6,465C139.6,465,139.6,465,139.6,465C139.6,465,139.6,465,139.6,465z"/>
					<path class="st3" d="M139.6,465C139.6,465,139.6,465,139.6,465C139.6,465,139.6,465,139.6,465z"/>
				</g>
			</g>
		</g>
		<g>
			<g id="XMLID_00000049207010314474310730000017655662233777967745_">
				<g>
					<path class="st1" d="M148.1,463.3v1.2c0,0.1-0.1,0.2-0.2,0.3c0,0-0.1,0.1-0.1,0.1c-0.1,0.1-0.2,0.1-0.3,0.2c0,0-0.1,0-0.1,0
						c-0.2,0.1-0.3,0.1-0.6,0.2c0,0-0.1,0-0.1,0c-0.2,0-0.5,0.1-0.7,0.1c0,0-0.1,0-0.1,0c-0.2,0-0.4,0.1-0.7,0.1c0,0-0.1,0-0.1,0
						c-0.2,0-0.3,0-0.5,0c0,0-0.1,0-0.1,0c-0.2,0-0.4,0-0.6,0c0,0-0.1,0-0.1,0h-0.1c-0.2,0-0.4,0-0.6,0c0,0-0.1,0-0.1,0
						c-0.2,0-0.4,0-0.6,0c0,0-0.1,0-0.1,0c-0.1,0-0.3,0-0.4,0c0,0-0.1,0-0.1,0c-0.2,0-0.3,0-0.5-0.1c0,0-0.1,0-0.1,0
						c-0.1,0-0.2,0-0.4-0.1c0,0-0.1,0-0.1,0c-0.1,0-0.3-0.1-0.4-0.1c0,0-0.1,0-0.1,0c-0.1,0-0.3-0.1-0.4-0.1c0,0-0.1,0-0.1-0.1
						c-0.1-0.1-0.2-0.1-0.3-0.2c-0.1,0-0.1-0.1-0.1-0.1c-0.1-0.1-0.1-0.2-0.1-0.3c0-0.4,0-1.2,0-1.2c0,0.5,2.1,1,4.6,1
						C146,464.3,148.1,463.9,148.1,463.3z"/>
					<path class="st3" d="M148.1,463.3L148.1,463.3c0,0.5-2.1,1-4.6,1c-2.6,0-4.6-0.4-4.6-1v0h0.9h0c0,0,0,0,0,0c0,0,0,0,0,0
						c0.4,0.3,1.9,0.5,3.7,0.5c1.8,0,3.3-0.2,3.7-0.5c0,0,0,0,0,0c0,0,0,0,0,0h0H148.1z"/>
					<path class="st3" d="M148.1,463.3h-0.9c0,0,0,0,0,0c0,0,0,0,0,0c0,0,0,0,0-0.1c0,0,0,0,0,0c0,0,0,0,0,0c0-0.4-1.6-0.7-3.6-0.7
						l0-0.2C146.1,462.4,148.1,462.8,148.1,463.3z"/>
					<path class="st3" d="M147.3,463.2C147.3,463.2,147.3,463.2,147.3,463.2C147.3,463.2,147.3,463.2,147.3,463.2c0,0.1,0,0.1,0,0.1
						c0,0,0,0,0,0c0,0,0,0,0,0h0h-0.1c-0.5-0.3-1.9-0.5-3.6-0.5c-1.7,0-3.2,0.2-3.6,0.5h-0.1h0c0,0,0,0,0,0c0,0,0,0,0,0
						c0,0,0,0,0-0.1c0,0,0,0,0,0c0,0,0,0,0,0c0-0.4,1.7-0.7,3.8-0.7c0.1,0,0.1,0,0.2,0C145.7,462.6,147.3,462.8,147.3,463.2z"/>
					<path class="st3" d="M147.3,463.2C147.3,463.2,147.3,463.2,147.3,463.2C147.3,463.2,147.3,463.2,147.3,463.2z"/>
					<path class="st3" d="M147.3,463.2C147.3,463.2,147.3,463.2,147.3,463.2C147.3,463.2,147.3,463.2,147.3,463.2z"/>
					<path class="st3" d="M147.2,463.3C147.2,463.3,147.2,463.3,147.2,463.3C147.2,463.3,147.2,463.3,147.2,463.3z"/>
					<path class="st3" d="M147.2,463.3C147.2,463.3,147.2,463.3,147.2,463.3C147.2,463.4,147.2,463.4,147.2,463.3
						c-0.1,0-0.1,0-0.1,0H147.2z"/>
					<path class="st3" d="M147.2,463.4C147.2,463.3,147.2,463.3,147.2,463.4C147.2,463.3,147.2,463.3,147.2,463.4z"/>
					<path class="st1" d="M147.1,463.3C147.1,463.3,147.1,463.4,147.1,463.3c-0.4,0.3-1.9,0.5-3.6,0.5c-1.8,0-3.3-0.2-3.7-0.5
						c0,0,0,0,0.1,0H147.1z"/>
					<path class="st1" d="M147.1,463.3h-7.3c0.5-0.3,1.9-0.5,3.6-0.5C145.2,462.9,146.6,463.1,147.1,463.3z"/>
					<path class="st3" d="M143.6,462.4l0,0.2c-0.1,0-0.1,0-0.2,0c-2.1,0-3.8,0.3-3.8,0.7c0,0,0,0,0,0c0,0,0,0,0,0c0,0,0,0,0,0.1
						c0,0,0,0,0,0c0,0,0,0,0,0h-0.9c0-0.5,2.1-1,4.6-1C143.5,462.4,143.6,462.4,143.6,462.4z"/>
					<path class="st3" d="M139.7,463.3h0.1C139.8,463.3,139.8,463.4,139.7,463.3C139.7,463.4,139.7,463.4,139.7,463.3
						C139.7,463.3,139.7,463.3,139.7,463.3z"/>
					<path class="st3" d="M139.7,463.3C139.7,463.3,139.7,463.3,139.7,463.3C139.7,463.3,139.7,463.3,139.7,463.3z"/>
					<path class="st3" d="M139.7,463.3C139.7,463.3,139.7,463.3,139.7,463.3C139.7,463.3,139.7,463.3,139.7,463.3z"/>
					<path class="st3" d="M139.6,463.2C139.6,463.2,139.6,463.2,139.6,463.2C139.6,463.2,139.6,463.2,139.6,463.2z"/>
					<path class="st3" d="M139.6,463.2C139.6,463.2,139.6,463.2,139.6,463.2C139.6,463.2,139.6,463.2,139.6,463.2z"/>
				</g>
			</g>
		</g>
		<g>
			<g id="XMLID_00000159434023001471631210000014152648220877865400_">
				<g>
					<path class="st1" d="M148.1,461.5v1.2c0,0.1-0.1,0.2-0.2,0.3c0,0-0.1,0.1-0.1,0.1c-0.1,0.1-0.2,0.1-0.3,0.2c0,0-0.1,0-0.1,0
						c-0.2,0.1-0.3,0.1-0.6,0.2c0,0-0.1,0-0.1,0c-0.2,0-0.5,0.1-0.7,0.1c0,0-0.1,0-0.1,0c-0.2,0-0.4,0.1-0.7,0.1c0,0-0.1,0-0.1,0
						c-0.2,0-0.3,0-0.5,0c0,0-0.1,0-0.1,0c-0.2,0-0.4,0-0.6,0c0,0-0.1,0-0.1,0h-0.1c-0.2,0-0.4,0-0.6,0c0,0-0.1,0-0.1,0
						c-0.2,0-0.4,0-0.6,0c0,0-0.1,0-0.1,0c-0.1,0-0.3,0-0.4,0c0,0-0.1,0-0.1,0c-0.2,0-0.3,0-0.5-0.1c0,0-0.1,0-0.1,0
						c-0.1,0-0.2,0-0.4-0.1c0,0-0.1,0-0.1,0c-0.1,0-0.3-0.1-0.4-0.1c0,0-0.1,0-0.1,0c-0.1,0-0.3-0.1-0.4-0.1c0,0-0.1,0-0.1-0.1
						c-0.1-0.1-0.2-0.1-0.3-0.2c-0.1,0-0.1-0.1-0.1-0.1c-0.1-0.1-0.1-0.2-0.1-0.3c0-0.4,0-1.2,0-1.2c0,0.5,2.1,1,4.6,1
						C146,462.5,148.1,462.1,148.1,461.5z"/>
					<path class="st3" d="M148.1,461.5L148.1,461.5c0,0.5-2.1,1-4.6,1c-2.6,0-4.6-0.4-4.6-1v0h0.9h0c0,0,0,0,0,0c0,0,0,0,0,0
						c0.4,0.3,1.9,0.5,3.7,0.5c1.8,0,3.3-0.2,3.7-0.5c0,0,0,0,0,0c0,0,0,0,0,0h0H148.1z"/>
					<path class="st3" d="M148.1,461.5h-0.9c0,0,0,0,0,0c0,0,0,0,0,0c0,0,0,0,0-0.1c0,0,0,0,0,0c0,0,0,0,0,0c0-0.4-1.6-0.7-3.6-0.7
						l0-0.2C146.1,460.6,148.1,461,148.1,461.5z"/>
					<path class="st3" d="M147.3,461.4C147.3,461.4,147.3,461.4,147.3,461.4C147.3,461.4,147.3,461.4,147.3,461.4c0,0.1,0,0.1,0,0.1
						c0,0,0,0,0,0c0,0,0,0,0,0h0h-0.1c-0.5-0.3-1.9-0.5-3.6-0.5c-1.7,0-3.2,0.2-3.6,0.5h-0.1h0c0,0,0,0,0,0c0,0,0,0,0,0
						c0,0,0,0,0-0.1c0,0,0,0,0,0c0,0,0,0,0,0c0-0.4,1.7-0.7,3.8-0.7c0.1,0,0.1,0,0.2,0C145.7,460.7,147.3,461,147.3,461.4z"/>
					<path class="st3" d="M147.3,461.4C147.3,461.4,147.3,461.4,147.3,461.4C147.3,461.4,147.3,461.4,147.3,461.4z"/>
					<path class="st3" d="M147.3,461.4C147.3,461.4,147.3,461.4,147.3,461.4C147.3,461.4,147.3,461.4,147.3,461.4z"/>
					<path class="st3" d="M147.2,461.5C147.2,461.5,147.2,461.5,147.2,461.5C147.2,461.5,147.2,461.5,147.2,461.5z"/>
					<path class="st3" d="M147.2,461.5C147.2,461.5,147.2,461.5,147.2,461.5C147.2,461.6,147.2,461.6,147.2,461.5
						c-0.1,0-0.1,0-0.1,0H147.2z"/>
					<path class="st3" d="M147.2,461.6C147.2,461.5,147.2,461.5,147.2,461.6C147.2,461.5,147.2,461.5,147.2,461.6z"/>
					<path class="st1" d="M147.1,461.5C147.1,461.5,147.1,461.6,147.1,461.5c-0.4,0.3-1.9,0.5-3.6,0.5c-1.8,0-3.3-0.2-3.7-0.5
						c0,0,0,0,0.1,0H147.1z"/>
					<path class="st1" d="M147.1,461.5h-7.3c0.5-0.3,1.9-0.5,3.6-0.5C145.2,461.1,146.6,461.3,147.1,461.5z"/>
					<path class="st3" d="M143.6,460.6l0,0.2c-0.1,0-0.1,0-0.2,0c-2.1,0-3.8,0.3-3.8,0.7c0,0,0,0,0,0c0,0,0,0,0,0c0,0,0,0,0,0.1
						c0,0,0,0,0,0c0,0,0,0,0,0h-0.9c0-0.5,2.1-1,4.6-1C143.5,460.6,143.6,460.6,143.6,460.6z"/>
					<path class="st3" d="M139.7,461.5h0.1C139.8,461.5,139.8,461.6,139.7,461.5C139.7,461.6,139.7,461.6,139.7,461.5
						C139.7,461.5,139.7,461.5,139.7,461.5z"/>
					<path class="st3" d="M139.7,461.5C139.7,461.5,139.7,461.5,139.7,461.5C139.7,461.5,139.7,461.5,139.7,461.5z"/>
					<path class="st3" d="M139.7,461.5C139.7,461.5,139.7,461.5,139.7,461.5C139.7,461.5,139.7,461.5,139.7,461.5z"/>
					<path class="st3" d="M139.6,461.4C139.6,461.4,139.6,461.4,139.6,461.4C139.6,461.4,139.6,461.4,139.6,461.4z"/>
					<path class="st3" d="M139.6,461.4C139.6,461.4,139.6,461.4,139.6,461.4C139.6,461.4,139.6,461.4,139.6,461.4z"/>
				</g>
			</g>
		</g>
		<g>
			<g id="XMLID_00000052069875044967653670000015184917929056545930_">
				<g>
					<path class="st1" d="M148.1,459.7v1.2c0,0.1-0.1,0.2-0.2,0.3c0,0-0.1,0.1-0.1,0.1c-0.1,0.1-0.2,0.1-0.3,0.2c0,0-0.1,0-0.1,0
						c-0.2,0.1-0.3,0.1-0.6,0.2c0,0-0.1,0-0.1,0c-0.2,0-0.5,0.1-0.7,0.1c0,0-0.1,0-0.1,0c-0.2,0-0.4,0.1-0.7,0.1c0,0-0.1,0-0.1,0
						c-0.2,0-0.3,0-0.5,0c0,0-0.1,0-0.1,0c-0.2,0-0.4,0-0.6,0c0,0-0.1,0-0.1,0h-0.1c-0.2,0-0.4,0-0.6,0c0,0-0.1,0-0.1,0
						c-0.2,0-0.4,0-0.6,0c0,0-0.1,0-0.1,0c-0.1,0-0.3,0-0.4,0c0,0-0.1,0-0.1,0c-0.2,0-0.3,0-0.5-0.1c0,0-0.1,0-0.1,0
						c-0.1,0-0.2,0-0.4-0.1c0,0-0.1,0-0.1,0c-0.1,0-0.3-0.1-0.4-0.1c0,0-0.1,0-0.1,0c-0.1,0-0.3-0.1-0.4-0.1c0,0-0.1,0-0.1-0.1
						c-0.1-0.1-0.2-0.1-0.3-0.2c-0.1,0-0.1-0.1-0.1-0.1c-0.1-0.1-0.1-0.2-0.1-0.3c0-0.4,0-1.2,0-1.2c0,0.5,2.1,1,4.6,1
						C146,460.7,148.1,460.3,148.1,459.7z"/>
					<path class="st3" d="M148.1,459.7L148.1,459.7c0,0.5-2.1,1-4.6,1c-2.6,0-4.6-0.4-4.6-1v0h0.9h0c0,0,0,0,0,0c0,0,0,0,0,0
						c0.4,0.3,1.9,0.5,3.7,0.5c1.8,0,3.3-0.2,3.7-0.5c0,0,0,0,0,0c0,0,0,0,0,0h0H148.1z"/>
					<path class="st3" d="M148.1,459.7h-0.9c0,0,0,0,0,0c0,0,0,0,0,0c0,0,0,0,0-0.1c0,0,0,0,0,0c0,0,0,0,0,0c0-0.4-1.6-0.7-3.6-0.7
						l0-0.2C146.1,458.8,148.1,459.2,148.1,459.7z"/>
					<path class="st3" d="M147.3,459.6C147.3,459.6,147.3,459.6,147.3,459.6C147.3,459.6,147.3,459.6,147.3,459.6c0,0.1,0,0.1,0,0.1
						c0,0,0,0,0,0c0,0,0,0,0,0h0h-0.1c-0.5-0.3-1.9-0.5-3.6-0.5c-1.7,0-3.2,0.2-3.6,0.5h-0.1h0c0,0,0,0,0,0c0,0,0,0,0,0
						c0,0,0,0,0-0.1c0,0,0,0,0,0c0,0,0,0,0,0c0-0.4,1.7-0.7,3.8-0.7c0.1,0,0.1,0,0.2,0C145.7,458.9,147.3,459.2,147.3,459.6z"/>
					<path class="st3" d="M147.3,459.6C147.3,459.6,147.3,459.6,147.3,459.6C147.3,459.6,147.3,459.6,147.3,459.6z"/>
					<path class="st3" d="M147.3,459.6C147.3,459.6,147.3,459.6,147.3,459.6C147.3,459.6,147.3,459.6,147.3,459.6z"/>
					<path class="st3" d="M147.2,459.7C147.2,459.7,147.2,459.7,147.2,459.7C147.2,459.7,147.2,459.7,147.2,459.7z"/>
					<path class="st3" d="M147.2,459.7C147.2,459.7,147.2,459.7,147.2,459.7C147.2,459.8,147.2,459.8,147.2,459.7
						c-0.1,0-0.1,0-0.1,0H147.2z"/>
					<path class="st3" d="M147.2,459.7C147.2,459.7,147.2,459.7,147.2,459.7C147.2,459.7,147.2,459.7,147.2,459.7z"/>
					<path class="st1" d="M147.1,459.7C147.1,459.7,147.1,459.8,147.1,459.7c-0.4,0.3-1.9,0.5-3.6,0.5c-1.8,0-3.3-0.2-3.7-0.5
						c0,0,0,0,0.1,0H147.1z"/>
					<path class="st1" d="M147.1,459.7h-7.3c0.5-0.3,1.9-0.5,3.6-0.5C145.2,459.3,146.6,459.5,147.1,459.7z"/>
					<path class="st3" d="M143.6,458.8l0,0.2c-0.1,0-0.1,0-0.2,0c-2.1,0-3.8,0.3-3.8,0.7c0,0,0,0,0,0c0,0,0,0,0,0c0,0,0,0,0,0.1
						c0,0,0,0,0,0c0,0,0,0,0,0h-0.9c0-0.5,2.1-1,4.6-1C143.5,458.8,143.6,458.8,143.6,458.8z"/>
					<path class="st3" d="M139.7,459.7h0.1C139.8,459.7,139.8,459.8,139.7,459.7C139.7,459.8,139.7,459.8,139.7,459.7
						C139.7,459.7,139.7,459.7,139.7,459.7z"/>
					<path class="st3" d="M139.7,459.7C139.7,459.7,139.7,459.7,139.7,459.7C139.7,459.7,139.7,459.7,139.7,459.7z"/>
					<path class="st3" d="M139.7,459.7C139.7,459.7,139.7,459.7,139.7,459.7C139.7,459.7,139.7,459.7,139.7,459.7z"/>
					<path class="st3" d="M139.6,459.6C139.6,459.6,139.6,459.6,139.6,459.6C139.6,459.6,139.6,459.6,139.6,459.6z"/>
					<path class="st3" d="M139.6,459.6C139.6,459.6,139.6,459.6,139.6,459.6C139.6,459.6,139.6,459.6,139.6,459.6z"/>
				</g>
			</g>
		</g>
		<g>
			<g id="XMLID_00000103972593693114693710000016422668505510476443_">
				<g>
					<path class="st1" d="M158.4,465v1.3c0,0.1-0.1,0.2-0.2,0.3c0,0-0.1,0.1-0.1,0.1c-0.1,0.1-0.2,0.1-0.3,0.2c0,0-0.1,0-0.1,0.1
						c-0.2,0.1-0.3,0.1-0.6,0.2c0,0-0.1,0-0.1,0c-0.2,0-0.5,0.1-0.7,0.1c0,0-0.1,0-0.1,0c-0.2,0-0.4,0.1-0.7,0.1c0,0-0.1,0-0.1,0
						c-0.2,0-0.3,0-0.5,0c0,0-0.1,0-0.1,0c-0.2,0-0.4,0-0.6,0c0,0-0.1,0-0.1,0h-0.1c-0.2,0-0.4,0-0.6,0c0,0-0.1,0-0.1,0
						c-0.2,0-0.4,0-0.6,0c0,0-0.1,0-0.1,0c-0.1,0-0.3,0-0.4,0c0,0-0.1,0-0.1,0c-0.2,0-0.3,0-0.5-0.1c0,0-0.1,0-0.1,0
						c-0.1,0-0.2,0-0.4-0.1c0,0-0.1,0-0.1,0c-0.1,0-0.3-0.1-0.4-0.1c0,0-0.1,0-0.1,0c-0.1,0-0.3-0.1-0.4-0.1c0,0-0.1,0-0.1-0.1
						c-0.1-0.1-0.2-0.1-0.3-0.2c-0.1,0-0.1-0.1-0.1-0.1c-0.1-0.1-0.1-0.2-0.1-0.3c0-0.4,0-1.2,0-1.3c0,0.6,2.1,1,4.6,1
						C156.4,466.1,158.4,465.6,158.4,465z"/>
					<path class="st3" d="M158.4,465L158.4,465c0,0.6-2.1,1-4.6,1c-2.6,0-4.6-0.5-4.6-1v0h0.9h0c0,0,0,0,0,0c0,0,0,0,0,0
						c0.4,0.3,1.9,0.5,3.7,0.5c1.8,0,3.3-0.2,3.7-0.5c0,0,0,0,0,0c0,0,0,0,0,0h0H158.4z"/>
					<path class="st3" d="M158.4,465h-0.9c0,0,0,0,0,0c0,0,0,0,0,0c0,0,0,0,0-0.1c0,0,0,0,0,0c0,0,0,0,0,0c0-0.4-1.6-0.7-3.6-0.7
						l0-0.2C156.5,464,158.4,464.5,158.4,465z"/>
					<path class="st3" d="M157.6,464.9C157.6,464.9,157.6,464.9,157.6,464.9C157.6,464.9,157.6,464.9,157.6,464.9c0,0.1,0,0.1,0,0.1
						c0,0,0,0,0,0c0,0,0,0,0,0h0h-0.1c-0.5-0.3-1.9-0.5-3.6-0.5c-1.7,0-3.2,0.2-3.6,0.5h-0.1h0c0,0,0,0,0,0c0,0,0,0,0,0
						c0,0,0,0,0-0.1c0,0,0,0,0,0c0,0,0,0,0,0c0-0.4,1.7-0.7,3.8-0.7c0.1,0,0.1,0,0.2,0C156,464.2,157.6,464.5,157.6,464.9z"/>
					<path class="st3" d="M157.6,464.9C157.6,464.9,157.6,464.9,157.6,464.9C157.6,464.9,157.6,464.9,157.6,464.9z"/>
					<path class="st3" d="M157.6,464.9C157.6,464.9,157.6,464.9,157.6,464.9C157.6,464.9,157.6,464.9,157.6,464.9z"/>
					<path class="st3" d="M157.5,465C157.5,465,157.6,465,157.5,465C157.6,465,157.5,465,157.5,465z"/>
					<path class="st3" d="M157.5,465C157.5,465,157.5,465,157.5,465C157.5,465.1,157.5,465.1,157.5,465c-0.1,0-0.1,0-0.1,0H157.5z"
						/>
					<path class="st3" d="M157.5,465.1C157.5,465,157.5,465,157.5,465.1C157.5,465,157.5,465,157.5,465.1z"/>
					<path class="st1" d="M157.4,465C157.4,465,157.5,465.1,157.4,465c-0.4,0.3-1.9,0.6-3.6,0.6c-1.8,0-3.3-0.2-3.7-0.5
						c0,0,0,0,0.1,0H157.4z"/>
					<path class="st1" d="M157.4,465h-7.3c0.5-0.3,1.9-0.5,3.6-0.5C155.5,464.5,156.9,464.7,157.4,465z"/>
					<path class="st3" d="M154,464l0,0.2c-0.1,0-0.1,0-0.2,0c-2.1,0-3.8,0.3-3.8,0.7c0,0,0,0,0,0c0,0,0,0,0,0c0,0,0,0,0,0.1
						c0,0,0,0,0,0c0,0,0,0,0,0h-0.9c0-0.6,2.1-1,4.6-1C153.9,464,153.9,464,154,464z"/>
					<path class="st3" d="M150.1,465h0.1C150.1,465,150.1,465.1,150.1,465C150.1,465.1,150.1,465.1,150.1,465
						C150.1,465,150.1,465,150.1,465z"/>
					<path class="st3" d="M150.1,465C150.1,465,150.1,465,150.1,465C150.1,465,150.1,465,150.1,465z"/>
					<path class="st3" d="M150,465C150,465,150,465,150,465C150,465,150,465,150,465z"/>
					<path class="st3" d="M150,464.9C150,464.9,150,464.9,150,464.9C150,464.9,150,464.9,150,464.9z"/>
					<path class="st3" d="M150,464.9C150,464.9,150,464.9,150,464.9C150,464.9,150,464.9,150,464.9z"/>
				</g>
			</g>
		</g>
		<g>
			<g id="XMLID_00000145027673934225998270000012525609518556183703_">
				<g>
					<path class="st1" d="M158.4,463.2v1.3c0,0.1-0.1,0.2-0.2,0.3c0,0-0.1,0.1-0.1,0.1c-0.1,0.1-0.2,0.1-0.3,0.2c0,0-0.1,0-0.1,0.1
						c-0.2,0.1-0.3,0.1-0.6,0.2c0,0-0.1,0-0.1,0c-0.2,0-0.5,0.1-0.7,0.1c0,0-0.1,0-0.1,0c-0.2,0-0.4,0.1-0.7,0.1c0,0-0.1,0-0.1,0
						c-0.2,0-0.3,0-0.5,0c0,0-0.1,0-0.1,0c-0.2,0-0.4,0-0.6,0c0,0-0.1,0-0.1,0h-0.1c-0.2,0-0.4,0-0.6,0c0,0-0.1,0-0.1,0
						c-0.2,0-0.4,0-0.6,0c0,0-0.1,0-0.1,0c-0.1,0-0.3,0-0.4,0c0,0-0.1,0-0.1,0c-0.2,0-0.3,0-0.5-0.1c0,0-0.1,0-0.1,0
						c-0.1,0-0.2,0-0.4-0.1c0,0-0.1,0-0.1,0c-0.1,0-0.3-0.1-0.4-0.1c0,0-0.1,0-0.1,0c-0.1,0-0.3-0.1-0.4-0.1c0,0-0.1,0-0.1-0.1
						c-0.1-0.1-0.2-0.1-0.3-0.2c-0.1,0-0.1-0.1-0.1-0.1c-0.1-0.1-0.1-0.2-0.1-0.3c0-0.4,0-1.2,0-1.3c0,0.6,2.1,1,4.6,1
						C156.4,464.3,158.4,463.8,158.4,463.2z"/>
					<path class="st3" d="M158.4,463.2L158.4,463.2c0,0.6-2.1,1-4.6,1c-2.6,0-4.6-0.5-4.6-1v0h0.9h0c0,0,0,0,0,0c0,0,0,0,0,0
						c0.4,0.3,1.9,0.5,3.7,0.5c1.8,0,3.3-0.2,3.7-0.5c0,0,0,0,0,0c0,0,0,0,0,0h0H158.4z"/>
					<path class="st3" d="M158.4,463.2h-0.9c0,0,0,0,0,0c0,0,0,0,0,0c0,0,0,0,0-0.1c0,0,0,0,0,0c0,0,0,0,0,0c0-0.4-1.6-0.7-3.6-0.7
						l0-0.2C156.5,462.2,158.4,462.7,158.4,463.2z"/>
					<path class="st3" d="M157.6,463.1C157.6,463.1,157.6,463.1,157.6,463.1C157.6,463.1,157.6,463.1,157.6,463.1c0,0.1,0,0.1,0,0.1
						c0,0,0,0,0,0c0,0,0,0,0,0h0h-0.1c-0.5-0.3-1.9-0.5-3.6-0.5c-1.7,0-3.2,0.2-3.6,0.5h-0.1h0c0,0,0,0,0,0c0,0,0,0,0,0
						c0,0,0,0,0-0.1c0,0,0,0,0,0c0,0,0,0,0,0c0-0.4,1.7-0.7,3.8-0.7c0.1,0,0.1,0,0.2,0C156,462.4,157.6,462.7,157.6,463.1z"/>
					<path class="st3" d="M157.6,463.1C157.6,463.1,157.6,463.1,157.6,463.1C157.6,463.1,157.6,463.1,157.6,463.1z"/>
					<path class="st3" d="M157.6,463.1C157.6,463.1,157.6,463.1,157.6,463.1C157.6,463.1,157.6,463.1,157.6,463.1z"/>
					<path class="st3" d="M157.5,463.2C157.5,463.2,157.6,463.2,157.5,463.2C157.6,463.2,157.5,463.2,157.5,463.2z"/>
					<path class="st3" d="M157.5,463.2C157.5,463.2,157.5,463.2,157.5,463.2C157.5,463.3,157.5,463.3,157.5,463.2
						c-0.1,0-0.1,0-0.1,0H157.5z"/>
					<path class="st3" d="M157.5,463.2C157.5,463.2,157.5,463.2,157.5,463.2C157.5,463.2,157.5,463.2,157.5,463.2z"/>
					<path class="st1" d="M157.4,463.2C157.4,463.2,157.5,463.3,157.4,463.2c-0.4,0.3-1.9,0.6-3.6,0.6c-1.8,0-3.3-0.2-3.7-0.5
						c0,0,0,0,0.1,0H157.4z"/>
					<path class="st1" d="M157.4,463.2h-7.3c0.5-0.3,1.9-0.5,3.6-0.5C155.5,462.7,156.9,462.9,157.4,463.2z"/>
					<path class="st3" d="M154,462.2l0,0.2c-0.1,0-0.1,0-0.2,0c-2.1,0-3.8,0.3-3.8,0.7c0,0,0,0,0,0c0,0,0,0,0,0c0,0,0,0,0,0.1
						c0,0,0,0,0,0c0,0,0,0,0,0h-0.9c0-0.6,2.1-1,4.6-1C153.9,462.2,153.9,462.2,154,462.2z"/>
					<path class="st3" d="M150.1,463.2h0.1C150.1,463.2,150.1,463.3,150.1,463.2C150.1,463.3,150.1,463.3,150.1,463.2
						C150.1,463.2,150.1,463.2,150.1,463.2z"/>
					<path class="st3" d="M150.1,463.2C150.1,463.2,150.1,463.2,150.1,463.2C150.1,463.2,150.1,463.2,150.1,463.2z"/>
					<path class="st3" d="M150,463.2C150,463.2,150,463.2,150,463.2C150,463.2,150,463.2,150,463.2z"/>
					<path class="st3" d="M150,463.1C150,463.1,150,463.1,150,463.1C150,463.1,150,463.1,150,463.1z"/>
					<path class="st3" d="M150,463.1C150,463.1,150,463.1,150,463.1C150,463.1,150,463.1,150,463.1z"/>
				</g>
			</g>
		</g>
		<g>
			<g id="XMLID_00000065784072950610417100000004358959970373058486_">
				<g>
					<path class="st1" d="M158.4,461.4v1.3c0,0.1-0.1,0.2-0.2,0.3c0,0-0.1,0.1-0.1,0.1c-0.1,0.1-0.2,0.1-0.3,0.2c0,0-0.1,0-0.1,0.1
						c-0.2,0.1-0.3,0.1-0.6,0.2c0,0-0.1,0-0.1,0c-0.2,0-0.5,0.1-0.7,0.1c0,0-0.1,0-0.1,0c-0.2,0-0.4,0.1-0.7,0.1c0,0-0.1,0-0.1,0
						c-0.2,0-0.3,0-0.5,0c0,0-0.1,0-0.1,0c-0.2,0-0.4,0-0.6,0c0,0-0.1,0-0.1,0h-0.1c-0.2,0-0.4,0-0.6,0c0,0-0.1,0-0.1,0
						c-0.2,0-0.4,0-0.6,0c0,0-0.1,0-0.1,0c-0.1,0-0.3,0-0.4,0c0,0-0.1,0-0.1,0c-0.2,0-0.3,0-0.5-0.1c0,0-0.1,0-0.1,0
						c-0.1,0-0.2,0-0.4-0.1c0,0-0.1,0-0.1,0c-0.1,0-0.3-0.1-0.4-0.1c0,0-0.1,0-0.1,0c-0.1,0-0.3-0.1-0.4-0.1c0,0-0.1,0-0.1-0.1
						c-0.1-0.1-0.2-0.1-0.3-0.2c-0.1,0-0.1-0.1-0.1-0.1c-0.1-0.1-0.1-0.2-0.1-0.3c0-0.4,0-1.2,0-1.3c0,0.6,2.1,1,4.6,1
						C156.4,462.5,158.4,462,158.4,461.4z"/>
					<path class="st3" d="M158.4,461.4L158.4,461.4c0,0.6-2.1,1-4.6,1c-2.6,0-4.6-0.5-4.6-1v0h0.9h0c0,0,0,0,0,0c0,0,0,0,0,0
						c0.4,0.3,1.9,0.5,3.7,0.5c1.8,0,3.3-0.2,3.7-0.5c0,0,0,0,0,0c0,0,0,0,0,0h0H158.4z"/>
					<path class="st3" d="M158.4,461.4h-0.9c0,0,0,0,0,0c0,0,0,0,0,0c0,0,0,0,0-0.1c0,0,0,0,0,0c0,0,0,0,0,0c0-0.4-1.6-0.7-3.6-0.7
						l0-0.2C156.5,460.4,158.4,460.9,158.4,461.4z"/>
					<path class="st3" d="M157.6,461.3C157.6,461.3,157.6,461.3,157.6,461.3C157.6,461.3,157.6,461.3,157.6,461.3c0,0.1,0,0.1,0,0.1
						c0,0,0,0,0,0c0,0,0,0,0,0h0h-0.1c-0.5-0.3-1.9-0.5-3.6-0.5c-1.7,0-3.2,0.2-3.6,0.5h-0.1h0c0,0,0,0,0,0c0,0,0,0,0,0
						c0,0,0,0,0-0.1c0,0,0,0,0,0c0,0,0,0,0,0c0-0.4,1.7-0.7,3.8-0.7c0.1,0,0.1,0,0.2,0C156,460.6,157.6,460.9,157.6,461.3z"/>
					<path class="st3" d="M157.6,461.3C157.6,461.3,157.6,461.3,157.6,461.3C157.6,461.3,157.6,461.3,157.6,461.3z"/>
					<path class="st3" d="M157.6,461.3C157.6,461.3,157.6,461.3,157.6,461.3C157.6,461.3,157.6,461.3,157.6,461.3z"/>
					<path class="st3" d="M157.5,461.4C157.5,461.4,157.6,461.4,157.5,461.4C157.6,461.4,157.5,461.4,157.5,461.4z"/>
					<path class="st3" d="M157.5,461.4C157.5,461.4,157.5,461.4,157.5,461.4C157.5,461.5,157.5,461.5,157.5,461.4
						c-0.1,0-0.1,0-0.1,0H157.5z"/>
					<path class="st3" d="M157.5,461.4C157.5,461.4,157.5,461.4,157.5,461.4C157.5,461.4,157.5,461.4,157.5,461.4z"/>
					<path class="st1" d="M157.4,461.4C157.4,461.4,157.5,461.5,157.4,461.4c-0.4,0.3-1.9,0.6-3.6,0.6c-1.8,0-3.3-0.2-3.7-0.5
						c0,0,0,0,0.1,0H157.4z"/>
					<path class="st1" d="M157.4,461.4h-7.3c0.5-0.3,1.9-0.5,3.6-0.5C155.5,460.9,156.9,461.1,157.4,461.4z"/>
					<path class="st3" d="M154,460.4l0,0.2c-0.1,0-0.1,0-0.2,0c-2.1,0-3.8,0.3-3.8,0.7c0,0,0,0,0,0c0,0,0,0,0,0c0,0,0,0,0,0.1
						c0,0,0,0,0,0c0,0,0,0,0,0h-0.9c0-0.6,2.1-1,4.6-1C153.9,460.4,153.9,460.4,154,460.4z"/>
					<path class="st3" d="M150.1,461.4h0.1C150.1,461.4,150.1,461.5,150.1,461.4C150.1,461.5,150.1,461.5,150.1,461.4
						C150.1,461.4,150.1,461.4,150.1,461.4z"/>
					<path class="st3" d="M150.1,461.4C150.1,461.4,150.1,461.4,150.1,461.4C150.1,461.4,150.1,461.4,150.1,461.4z"/>
					<path class="st3" d="M150,461.4C150,461.4,150,461.4,150,461.4C150,461.4,150,461.4,150,461.4z"/>
					<path class="st3" d="M150,461.3C150,461.3,150,461.3,150,461.3C150,461.3,150,461.3,150,461.3z"/>
					<path class="st3" d="M150,461.3C150,461.3,150,461.3,150,461.3C150,461.3,150,461.3,150,461.3z"/>
				</g>
			</g>
		</g>
		<g>
			<g id="XMLID_00000012462194575869973710000016833953134259667348_">
				<g>
					<path class="st1" d="M158.4,459.6v1.3c0,0.1-0.1,0.2-0.2,0.3c0,0-0.1,0.1-0.1,0.1c-0.1,0.1-0.2,0.1-0.3,0.2c0,0-0.1,0-0.1,0.1
						c-0.2,0.1-0.3,0.1-0.6,0.2c0,0-0.1,0-0.1,0c-0.2,0-0.5,0.1-0.7,0.1c0,0-0.1,0-0.1,0c-0.2,0-0.4,0.1-0.7,0.1c0,0-0.1,0-0.1,0
						c-0.2,0-0.3,0-0.5,0c0,0-0.1,0-0.1,0c-0.2,0-0.4,0-0.6,0c0,0-0.1,0-0.1,0h-0.1c-0.2,0-0.4,0-0.6,0c0,0-0.1,0-0.1,0
						c-0.2,0-0.4,0-0.6,0c0,0-0.1,0-0.1,0c-0.1,0-0.3,0-0.4,0c0,0-0.1,0-0.1,0c-0.2,0-0.3,0-0.5-0.1c0,0-0.1,0-0.1,0
						c-0.1,0-0.2,0-0.4-0.1c0,0-0.1,0-0.1,0c-0.1,0-0.3-0.1-0.4-0.1c0,0-0.1,0-0.1,0c-0.1,0-0.3-0.1-0.4-0.1c0,0-0.1,0-0.1-0.1
						c-0.1-0.1-0.2-0.1-0.3-0.2c-0.1,0-0.1-0.1-0.1-0.1c-0.1-0.1-0.1-0.2-0.1-0.3c0-0.4,0-1.2,0-1.3c0,0.6,2.1,1,4.6,1
						C156.4,460.7,158.4,460.2,158.4,459.6z"/>
					<path class="st3" d="M158.4,459.6L158.4,459.6c0,0.6-2.1,1-4.6,1c-2.6,0-4.6-0.5-4.6-1v0h0.9h0c0,0,0,0,0,0c0,0,0,0,0,0
						c0.4,0.3,1.9,0.5,3.7,0.5c1.8,0,3.3-0.2,3.7-0.5c0,0,0,0,0,0c0,0,0,0,0,0h0H158.4z"/>
					<path class="st3" d="M158.4,459.6h-0.9c0,0,0,0,0,0c0,0,0,0,0,0c0,0,0,0,0-0.1c0,0,0,0,0,0c0,0,0,0,0,0c0-0.4-1.6-0.7-3.6-0.7
						l0-0.2C156.5,458.6,158.4,459.1,158.4,459.6z"/>
					<path class="st3" d="M157.6,459.5C157.6,459.5,157.6,459.5,157.6,459.5C157.6,459.5,157.6,459.5,157.6,459.5c0,0.1,0,0.1,0,0.1
						c0,0,0,0,0,0c0,0,0,0,0,0h0h-0.1c-0.5-0.3-1.9-0.5-3.6-0.5c-1.7,0-3.2,0.2-3.6,0.5h-0.1h0c0,0,0,0,0,0c0,0,0,0,0,0
						c0,0,0,0,0-0.1c0,0,0,0,0,0c0,0,0,0,0,0c0-0.4,1.7-0.7,3.8-0.7c0.1,0,0.1,0,0.2,0C156,458.8,157.6,459.1,157.6,459.5z"/>
					<path class="st3" d="M157.6,459.5C157.6,459.5,157.6,459.5,157.6,459.5C157.6,459.5,157.6,459.5,157.6,459.5z"/>
					<path class="st3" d="M157.6,459.5C157.6,459.5,157.6,459.5,157.6,459.5C157.6,459.5,157.6,459.5,157.6,459.5z"/>
					<path class="st3" d="M157.5,459.6C157.5,459.6,157.6,459.6,157.5,459.6C157.6,459.6,157.5,459.6,157.5,459.6z"/>
					<path class="st3" d="M157.5,459.6C157.5,459.6,157.5,459.6,157.5,459.6C157.5,459.7,157.5,459.7,157.5,459.6
						c-0.1,0-0.1,0-0.1,0H157.5z"/>
					<path class="st3" d="M157.5,459.6C157.5,459.6,157.5,459.6,157.5,459.6C157.5,459.6,157.5,459.6,157.5,459.6z"/>
					<path class="st1" d="M157.4,459.6C157.4,459.6,157.5,459.7,157.4,459.6c-0.4,0.3-1.9,0.6-3.6,0.6c-1.8,0-3.3-0.2-3.7-0.5
						c0,0,0,0,0.1,0H157.4z"/>
					<path class="st1" d="M157.4,459.6h-7.3c0.5-0.3,1.9-0.5,3.6-0.5C155.5,459.1,156.9,459.3,157.4,459.6z"/>
					<path class="st3" d="M154,458.6l0,0.2c-0.1,0-0.1,0-0.2,0c-2.1,0-3.8,0.3-3.8,0.7c0,0,0,0,0,0c0,0,0,0,0,0c0,0,0,0,0,0.1
						c0,0,0,0,0,0c0,0,0,0,0,0h-0.9c0-0.6,2.1-1,4.6-1C153.9,458.6,153.9,458.6,154,458.6z"/>
					<path class="st3" d="M150.1,459.6h0.1C150.1,459.6,150.1,459.7,150.1,459.6C150.1,459.7,150.1,459.7,150.1,459.6
						C150.1,459.6,150.1,459.6,150.1,459.6z"/>
					<path class="st3" d="M150.1,459.6C150.1,459.6,150.1,459.6,150.1,459.6C150.1,459.6,150.1,459.6,150.1,459.6z"/>
					<path class="st3" d="M150,459.6C150,459.6,150,459.6,150,459.6C150,459.6,150,459.6,150,459.6z"/>
					<path class="st3" d="M150,459.5C150,459.5,150,459.5,150,459.5C150,459.5,150,459.5,150,459.5z"/>
					<path class="st3" d="M150,459.5C150,459.5,150,459.5,150,459.5C150,459.5,150,459.5,150,459.5z"/>
				</g>
			</g>
		</g>
		<g>
			<g id="XMLID_00000070809558199339368500000001921302131428427146_">
				<g>
					<path class="st1" d="M158.4,457.8v1.3c0,0.1-0.1,0.2-0.2,0.3c0,0-0.1,0.1-0.1,0.1c-0.1,0.1-0.2,0.1-0.3,0.2c0,0-0.1,0-0.1,0.1
						c-0.2,0.1-0.3,0.1-0.6,0.2c0,0-0.1,0-0.1,0c-0.2,0-0.5,0.1-0.7,0.1c0,0-0.1,0-0.1,0c-0.2,0-0.4,0.1-0.7,0.1c0,0-0.1,0-0.1,0
						c-0.2,0-0.3,0-0.5,0c0,0-0.1,0-0.1,0c-0.2,0-0.4,0-0.6,0c0,0-0.1,0-0.1,0h-0.1c-0.2,0-0.4,0-0.6,0c0,0-0.1,0-0.1,0
						c-0.2,0-0.4,0-0.6,0c0,0-0.1,0-0.1,0c-0.1,0-0.3,0-0.4,0c0,0-0.1,0-0.1,0c-0.2,0-0.3,0-0.5-0.1c0,0-0.1,0-0.1,0
						c-0.1,0-0.2,0-0.4-0.1c0,0-0.1,0-0.1,0c-0.1,0-0.3-0.1-0.4-0.1c0,0-0.1,0-0.1,0c-0.1,0-0.3-0.1-0.4-0.1c0,0-0.1,0-0.1-0.1
						c-0.1-0.1-0.2-0.1-0.3-0.2c-0.1,0-0.1-0.1-0.1-0.1c-0.1-0.1-0.1-0.2-0.1-0.3c0-0.4,0-1.2,0-1.3c0,0.6,2.1,1,4.6,1
						C156.4,458.9,158.4,458.4,158.4,457.8z"/>
					<path class="st3" d="M158.4,457.8L158.4,457.8c0,0.6-2.1,1-4.6,1c-2.6,0-4.6-0.5-4.6-1v0h0.9h0c0,0,0,0,0,0c0,0,0,0,0,0
						c0.4,0.3,1.9,0.5,3.7,0.5c1.8,0,3.3-0.2,3.7-0.5c0,0,0,0,0,0c0,0,0,0,0,0h0H158.4z"/>
					<path class="st3" d="M158.4,457.8h-0.9c0,0,0,0,0,0c0,0,0,0,0,0c0,0,0,0,0-0.1c0,0,0,0,0,0c0,0,0,0,0,0c0-0.4-1.6-0.7-3.6-0.7
						l0-0.2C156.5,456.8,158.4,457.3,158.4,457.8z"/>
					<path class="st3" d="M157.6,457.7C157.6,457.7,157.6,457.7,157.6,457.7C157.6,457.7,157.6,457.7,157.6,457.7c0,0.1,0,0.1,0,0.1
						c0,0,0,0,0,0c0,0,0,0,0,0h0h-0.1c-0.5-0.3-1.9-0.5-3.6-0.5c-1.7,0-3.2,0.2-3.6,0.5h-0.1h0c0,0,0,0,0,0c0,0,0,0,0,0
						c0,0,0,0,0-0.1c0,0,0,0,0,0c0,0,0,0,0,0c0-0.4,1.7-0.7,3.8-0.7c0.1,0,0.1,0,0.2,0C156,457,157.6,457.3,157.6,457.7z"/>
					<path class="st3" d="M157.6,457.7C157.6,457.7,157.6,457.7,157.6,457.7C157.6,457.7,157.6,457.7,157.6,457.7z"/>
					<path class="st3" d="M157.6,457.7C157.6,457.7,157.6,457.7,157.6,457.7C157.6,457.7,157.6,457.7,157.6,457.7z"/>
					<path class="st3" d="M157.5,457.8C157.5,457.8,157.6,457.8,157.5,457.8C157.6,457.8,157.5,457.8,157.5,457.8z"/>
					<path class="st3" d="M157.5,457.8C157.5,457.8,157.5,457.8,157.5,457.8C157.5,457.8,157.5,457.9,157.5,457.8
						c-0.1,0-0.1,0-0.1,0H157.5z"/>
					<path class="st3" d="M157.5,457.8C157.5,457.8,157.5,457.8,157.5,457.8C157.5,457.8,157.5,457.8,157.5,457.8z"/>
					<path class="st1" d="M157.4,457.8C157.4,457.8,157.5,457.8,157.4,457.8c-0.4,0.3-1.9,0.6-3.6,0.6c-1.8,0-3.3-0.2-3.7-0.5
						c0,0,0,0,0.1,0H157.4z"/>
					<path class="st1" d="M157.4,457.8h-7.3c0.5-0.3,1.9-0.5,3.6-0.5C155.5,457.3,156.9,457.5,157.4,457.8z"/>
					<path class="st3" d="M154,456.8l0,0.2c-0.1,0-0.1,0-0.2,0c-2.1,0-3.8,0.3-3.8,0.7c0,0,0,0,0,0c0,0,0,0,0,0c0,0,0,0,0,0.1
						c0,0,0,0,0,0c0,0,0,0,0,0h-0.9c0-0.6,2.1-1,4.6-1C153.9,456.8,153.9,456.8,154,456.8z"/>
					<path class="st3" d="M150.1,457.8h0.1C150.1,457.8,150.1,457.8,150.1,457.8C150.1,457.9,150.1,457.8,150.1,457.8
						C150.1,457.8,150.1,457.8,150.1,457.8z"/>
					<path class="st3" d="M150.1,457.8C150.1,457.8,150.1,457.8,150.1,457.8C150.1,457.8,150.1,457.8,150.1,457.8z"/>
					<path class="st3" d="M150,457.8C150,457.8,150,457.8,150,457.8C150,457.8,150,457.8,150,457.8z"/>
					<path class="st3" d="M150,457.7C150,457.7,150,457.7,150,457.7C150,457.7,150,457.7,150,457.7z"/>
					<path class="st3" d="M150,457.7C150,457.7,150,457.7,150,457.7C150,457.7,150,457.7,150,457.7z"/>
				</g>
			</g>
		</g>
		<g>
			<g id="XMLID_00000072968337654056247130000000944118629253716147_">
				<g>
					<path class="st1" d="M148.1,457.9v1.2c0,0.1-0.1,0.2-0.2,0.3c0,0-0.1,0.1-0.1,0.1c-0.1,0.1-0.2,0.1-0.3,0.2c0,0-0.1,0-0.1,0
						c-0.2,0.1-0.3,0.1-0.6,0.2c0,0-0.1,0-0.1,0c-0.2,0-0.5,0.1-0.7,0.1c0,0-0.1,0-0.1,0c-0.2,0-0.4,0.1-0.7,0.1c0,0-0.1,0-0.1,0
						c-0.2,0-0.3,0-0.5,0c0,0-0.1,0-0.1,0c-0.2,0-0.4,0-0.6,0c0,0-0.1,0-0.1,0h-0.1c-0.2,0-0.4,0-0.6,0c0,0-0.1,0-0.1,0
						c-0.2,0-0.4,0-0.6,0c0,0-0.1,0-0.1,0c-0.1,0-0.3,0-0.4,0c0,0-0.1,0-0.1,0c-0.2,0-0.3,0-0.5-0.1c0,0-0.1,0-0.1,0
						c-0.1,0-0.2,0-0.4-0.1c0,0-0.1,0-0.1,0c-0.1,0-0.3-0.1-0.4-0.1c0,0-0.1,0-0.1,0c-0.1,0-0.3-0.1-0.4-0.1c0,0-0.1,0-0.1-0.1
						c-0.1-0.1-0.2-0.1-0.3-0.2c-0.1,0-0.1-0.1-0.1-0.1c-0.1-0.1-0.1-0.2-0.1-0.3c0-0.4,0-1.2,0-1.2c0,0.5,2.1,1,4.6,1
						C146,458.9,148.1,458.5,148.1,457.9z"/>
					<path class="st3" d="M148.1,457.9L148.1,457.9c0,0.5-2.1,1-4.6,1c-2.6,0-4.6-0.4-4.6-1v0h0.9h0c0,0,0,0,0,0c0,0,0,0,0,0
						c0.4,0.3,1.9,0.5,3.7,0.5c1.8,0,3.3-0.2,3.7-0.5c0,0,0,0,0,0c0,0,0,0,0,0h0H148.1z"/>
					<path class="st3" d="M148.1,457.9h-0.9c0,0,0,0,0,0c0,0,0,0,0,0c0,0,0,0,0-0.1c0,0,0,0,0,0c0,0,0,0,0,0c0-0.4-1.6-0.7-3.6-0.7
						l0-0.2C146.1,457,148.1,457.4,148.1,457.9z"/>
					<path class="st3" d="M147.3,457.8C147.3,457.8,147.3,457.8,147.3,457.8C147.3,457.8,147.3,457.8,147.3,457.8c0,0.1,0,0.1,0,0.1
						c0,0,0,0,0,0c0,0,0,0,0,0h0h-0.1c-0.5-0.3-1.9-0.5-3.6-0.5c-1.7,0-3.2,0.2-3.6,0.5h-0.1h0c0,0,0,0,0,0c0,0,0,0,0,0
						c0,0,0,0,0-0.1c0,0,0,0,0,0c0,0,0,0,0,0c0-0.4,1.7-0.7,3.8-0.7c0.1,0,0.1,0,0.2,0C145.7,457.1,147.3,457.4,147.3,457.8z"/>
					<path class="st3" d="M147.3,457.8C147.3,457.8,147.3,457.8,147.3,457.8C147.3,457.8,147.3,457.8,147.3,457.8z"/>
					<path class="st3" d="M147.3,457.8C147.3,457.8,147.3,457.8,147.3,457.8C147.3,457.8,147.3,457.8,147.3,457.8z"/>
					<path class="st3" d="M147.2,457.9C147.2,457.9,147.2,457.9,147.2,457.9C147.2,457.9,147.2,457.9,147.2,457.9z"/>
					<path class="st3" d="M147.2,457.9C147.2,457.9,147.2,457.9,147.2,457.9C147.2,458,147.2,458,147.2,457.9c-0.1,0-0.1,0-0.1,0
						H147.2z"/>
					<path class="st3" d="M147.2,457.9C147.2,457.9,147.2,457.9,147.2,457.9C147.2,457.9,147.2,457.9,147.2,457.9z"/>
					<path class="st1" d="M147.1,457.9C147.1,457.9,147.1,458,147.1,457.9c-0.4,0.3-1.9,0.5-3.6,0.5c-1.8,0-3.3-0.2-3.7-0.5
						c0,0,0,0,0.1,0H147.1z"/>
					<path class="st1" d="M147.1,457.9h-7.3c0.5-0.3,1.9-0.5,3.6-0.5C145.2,457.5,146.6,457.7,147.1,457.9z"/>
					<path class="st3" d="M143.6,457l0,0.2c-0.1,0-0.1,0-0.2,0c-2.1,0-3.8,0.3-3.8,0.7c0,0,0,0,0,0c0,0,0,0,0,0c0,0,0,0,0,0.1
						c0,0,0,0,0,0c0,0,0,0,0,0h-0.9c0-0.5,2.1-1,4.6-1C143.5,456.9,143.6,456.9,143.6,457z"/>
					<path class="st3" d="M139.7,457.9h0.1C139.8,457.9,139.8,458,139.7,457.9C139.7,458,139.7,458,139.7,457.9
						C139.7,457.9,139.7,457.9,139.7,457.9z"/>
					<path class="st3" d="M139.7,457.9C139.7,457.9,139.7,457.9,139.7,457.9C139.7,457.9,139.7,457.9,139.7,457.9z"/>
					<path class="st3" d="M139.7,457.9C139.7,457.9,139.7,457.9,139.7,457.9C139.7,457.9,139.7,457.9,139.7,457.9z"/>
					<path class="st3" d="M139.6,457.8C139.6,457.8,139.6,457.8,139.6,457.8C139.6,457.8,139.6,457.8,139.6,457.8z"/>
					<path class="st3" d="M139.6,457.8C139.6,457.8,139.6,457.8,139.6,457.8C139.6,457.8,139.6,457.8,139.6,457.8z"/>
				</g>
			</g>
		</g>
		<g>
			<g id="XMLID_00000003071649246276709600000004447632841350622653_">
				<g>
					<path class="st1" d="M158.4,456.1v1.3c0,0.1-0.1,0.2-0.2,0.3c0,0-0.1,0.1-0.1,0.1c-0.1,0.1-0.2,0.1-0.3,0.2c0,0-0.1,0-0.1,0.1
						c-0.2,0.1-0.3,0.1-0.6,0.2c0,0-0.1,0-0.1,0c-0.2,0-0.5,0.1-0.7,0.1c0,0-0.1,0-0.1,0c-0.2,0-0.4,0.1-0.7,0.1c0,0-0.1,0-0.1,0
						c-0.2,0-0.3,0-0.5,0c0,0-0.1,0-0.1,0c-0.2,0-0.4,0-0.6,0c0,0-0.1,0-0.1,0h-0.1c-0.2,0-0.4,0-0.6,0c0,0-0.1,0-0.1,0
						c-0.2,0-0.4,0-0.6,0c0,0-0.1,0-0.1,0c-0.1,0-0.3,0-0.4,0c0,0-0.1,0-0.1,0c-0.2,0-0.3,0-0.5-0.1c0,0-0.1,0-0.1,0
						c-0.1,0-0.2,0-0.4-0.1c0,0-0.1,0-0.1,0c-0.1,0-0.3-0.1-0.4-0.1c0,0-0.1,0-0.1,0c-0.1,0-0.3-0.1-0.4-0.1c0,0-0.1,0-0.1-0.1
						c-0.1-0.1-0.2-0.1-0.3-0.2c-0.1,0-0.1-0.1-0.1-0.1c-0.1-0.1-0.1-0.2-0.1-0.3c0-0.4,0-1.2,0-1.3c0,0.6,2.1,1,4.6,1
						C156.4,457.1,158.4,456.7,158.4,456.1z"/>
					<path class="st3" d="M158.4,456.1L158.4,456.1c0,0.6-2.1,1-4.6,1c-2.6,0-4.6-0.5-4.6-1v0h0.9h0c0,0,0,0,0,0c0,0,0,0,0,0
						c0.4,0.3,1.9,0.5,3.7,0.5c1.8,0,3.3-0.2,3.7-0.5c0,0,0,0,0,0c0,0,0,0,0,0h0H158.4z"/>
					<path class="st3" d="M158.4,456.1h-0.9c0,0,0,0,0,0c0,0,0,0,0,0c0,0,0,0,0-0.1c0,0,0,0,0,0c0,0,0,0,0,0c0-0.4-1.6-0.7-3.6-0.7
						l0-0.2C156.5,455.1,158.4,455.5,158.4,456.1z"/>
					<path class="st3" d="M157.6,456C157.6,456,157.6,456,157.6,456C157.6,456,157.6,456,157.6,456c0,0.1,0,0.1,0,0.1c0,0,0,0,0,0
						c0,0,0,0,0,0h0h-0.1c-0.5-0.3-1.9-0.5-3.6-0.5c-1.7,0-3.2,0.2-3.6,0.5h-0.1h0c0,0,0,0,0,0c0,0,0,0,0,0c0,0,0,0,0-0.1
						c0,0,0,0,0,0c0,0,0,0,0,0c0-0.4,1.7-0.7,3.8-0.7c0.1,0,0.1,0,0.2,0C156,455.3,157.6,455.6,157.6,456z"/>
					<path class="st3" d="M157.6,456C157.6,456,157.6,456,157.6,456C157.6,456,157.6,456,157.6,456z"/>
					<path class="st3" d="M157.6,456C157.6,456,157.6,456,157.6,456C157.6,456,157.6,456,157.6,456z"/>
					<path class="st3" d="M157.5,456.1C157.5,456.1,157.6,456.1,157.5,456.1C157.6,456.1,157.5,456.1,157.5,456.1z"/>
					<path class="st3" d="M157.5,456.1C157.5,456.1,157.5,456.1,157.5,456.1C157.5,456.1,157.5,456.1,157.5,456.1
						c-0.1,0-0.1,0-0.1,0H157.5z"/>
					<path class="st3" d="M157.5,456.1C157.5,456.1,157.5,456.1,157.5,456.1C157.5,456.1,157.5,456.1,157.5,456.1z"/>
					<path class="st1" d="M157.4,456.1C157.4,456.1,157.5,456.1,157.4,456.1c-0.4,0.3-1.9,0.6-3.6,0.6c-1.8,0-3.3-0.2-3.7-0.5
						c0,0,0,0,0.1,0H157.4z"/>
					<path class="st1" d="M157.4,456.1h-7.3c0.5-0.3,1.9-0.5,3.6-0.5C155.5,455.6,156.9,455.8,157.4,456.1z"/>
					<path class="st3" d="M154,455.1l0,0.2c-0.1,0-0.1,0-0.2,0c-2.1,0-3.8,0.3-3.8,0.7c0,0,0,0,0,0c0,0,0,0,0,0c0,0,0,0,0,0.1
						c0,0,0,0,0,0c0,0,0,0,0,0h-0.9c0-0.6,2.1-1,4.6-1C153.9,455.1,153.9,455.1,154,455.1z"/>
					<path class="st3" d="M150.1,456.1h0.1C150.1,456.1,150.1,456.1,150.1,456.1C150.1,456.1,150.1,456.1,150.1,456.1
						C150.1,456.1,150.1,456.1,150.1,456.1z"/>
					<path class="st3" d="M150.1,456.1C150.1,456.1,150.1,456.1,150.1,456.1C150.1,456.1,150.1,456.1,150.1,456.1z"/>
					<path class="st3" d="M150,456.1C150,456.1,150,456.1,150,456.1C150,456.1,150,456.1,150,456.1z"/>
					<path class="st3" d="M150,456C150,456,150,456,150,456C150,456,150,456,150,456z"/>
					<path class="st3" d="M150,456C150,456,150,456,150,456C150,456,150,456,150,456z"/>
				</g>
			</g>
		</g>
		<g>
			<g id="XMLID_00000003805238469067976470000007069368503086033086_">
				<g>
					<path class="st1" d="M158.4,454.3v1.3c0,0.1-0.1,0.2-0.2,0.3c0,0-0.1,0.1-0.1,0.1c-0.1,0.1-0.2,0.1-0.3,0.2c0,0-0.1,0-0.1,0.1
						c-0.2,0.1-0.3,0.1-0.6,0.2c0,0-0.1,0-0.1,0c-0.2,0-0.5,0.1-0.7,0.1c0,0-0.1,0-0.1,0c-0.2,0-0.4,0.1-0.7,0.1c0,0-0.1,0-0.1,0
						c-0.2,0-0.3,0-0.5,0c0,0-0.1,0-0.1,0c-0.2,0-0.4,0-0.6,0c0,0-0.1,0-0.1,0h-0.1c-0.2,0-0.4,0-0.6,0c0,0-0.1,0-0.1,0
						c-0.2,0-0.4,0-0.6,0c0,0-0.1,0-0.1,0c-0.1,0-0.3,0-0.4,0c0,0-0.1,0-0.1,0c-0.2,0-0.3,0-0.5-0.1c0,0-0.1,0-0.1,0
						c-0.1,0-0.2,0-0.4-0.1c0,0-0.1,0-0.1,0c-0.1,0-0.3-0.1-0.4-0.1c0,0-0.1,0-0.1,0c-0.1,0-0.3-0.1-0.4-0.1c0,0-0.1,0-0.1-0.1
						c-0.1-0.1-0.2-0.1-0.3-0.2c-0.1,0-0.1-0.1-0.1-0.1c-0.1-0.1-0.1-0.2-0.1-0.3c0-0.4,0-1.2,0-1.3c0,0.6,2.1,1,4.6,1
						C156.4,455.3,158.4,454.9,158.4,454.3z"/>
					<path class="st3" d="M158.4,454.3L158.4,454.3c0,0.6-2.1,1-4.6,1c-2.6,0-4.6-0.5-4.6-1v0h0.9h0c0,0,0,0,0,0c0,0,0,0,0,0
						c0.4,0.3,1.9,0.5,3.7,0.5c1.8,0,3.3-0.2,3.7-0.5c0,0,0,0,0,0c0,0,0,0,0,0h0H158.4z"/>
					<path class="st3" d="M158.4,454.3h-0.9c0,0,0,0,0,0c0,0,0,0,0,0c0,0,0,0,0-0.1c0,0,0,0,0,0c0,0,0,0,0,0c0-0.4-1.6-0.7-3.6-0.7
						l0-0.2C156.5,453.3,158.4,453.7,158.4,454.3z"/>
					<path class="st3" d="M157.6,454.1C157.6,454.2,157.6,454.2,157.6,454.1C157.6,454.2,157.6,454.2,157.6,454.1c0,0.1,0,0.1,0,0.1
						c0,0,0,0,0,0c0,0,0,0,0,0h0h-0.1c-0.5-0.3-1.9-0.5-3.6-0.5c-1.7,0-3.2,0.2-3.6,0.5h-0.1h0c0,0,0,0,0,0c0,0,0,0,0,0
						c0,0,0,0,0-0.1c0,0,0,0,0,0c0,0,0,0,0,0c0-0.4,1.7-0.7,3.8-0.7c0.1,0,0.1,0,0.2,0C156,453.5,157.6,453.8,157.6,454.1z"/>
					<path class="st3" d="M157.6,454.2C157.6,454.2,157.6,454.2,157.6,454.2C157.6,454.2,157.6,454.2,157.6,454.2z"/>
					<path class="st3" d="M157.6,454.2C157.6,454.2,157.6,454.2,157.6,454.2C157.6,454.2,157.6,454.2,157.6,454.2z"/>
					<path class="st3" d="M157.5,454.3C157.5,454.3,157.6,454.3,157.5,454.3C157.6,454.3,157.5,454.3,157.5,454.3z"/>
					<path class="st3" d="M157.5,454.3C157.5,454.3,157.5,454.3,157.5,454.3C157.5,454.3,157.5,454.3,157.5,454.3
						c-0.1,0-0.1,0-0.1,0H157.5z"/>
					<path class="st3" d="M157.5,454.3C157.5,454.3,157.5,454.3,157.5,454.3C157.5,454.3,157.5,454.3,157.5,454.3z"/>
					<path class="st1" d="M157.4,454.3C157.4,454.3,157.5,454.3,157.4,454.3c-0.4,0.3-1.9,0.6-3.6,0.6c-1.8,0-3.3-0.2-3.7-0.5
						c0,0,0,0,0.1,0H157.4z"/>
					<path class="st1" d="M157.4,454.3h-7.3c0.5-0.3,1.9-0.5,3.6-0.5C155.5,453.8,156.9,454,157.4,454.3z"/>
					<path class="st3" d="M154,453.3l0,0.2c-0.1,0-0.1,0-0.2,0c-2.1,0-3.8,0.3-3.8,0.7c0,0,0,0,0,0c0,0,0,0,0,0c0,0,0,0,0,0.1
						c0,0,0,0,0,0c0,0,0,0,0,0h-0.9c0-0.6,2.1-1,4.6-1C153.9,453.3,153.9,453.3,154,453.3z"/>
					<path class="st3" d="M150.1,454.3h0.1C150.1,454.3,150.1,454.3,150.1,454.3C150.1,454.3,150.1,454.3,150.1,454.3
						C150.1,454.3,150.1,454.3,150.1,454.3z"/>
					<path class="st3" d="M150.1,454.3C150.1,454.3,150.1,454.3,150.1,454.3C150.1,454.3,150.1,454.3,150.1,454.3z"/>
					<path class="st3" d="M150,454.3C150,454.3,150,454.3,150,454.3C150,454.3,150,454.3,150,454.3z"/>
					<path class="st3" d="M150,454.2C150,454.2,150,454.2,150,454.2C150,454.2,150,454.2,150,454.2z"/>
					<path class="st3" d="M150,454.1C150,454.2,150,454.2,150,454.1C150,454.2,150,454.2,150,454.1z"/>
				</g>
			</g>
		</g>
		<g>
			<g id="XMLID_00000105406768161625300500000012001544399482541225_">
				<g>
					<path class="st1" d="M158.4,452.5v1.3c0,0.1-0.1,0.2-0.2,0.3c0,0-0.1,0.1-0.1,0.1c-0.1,0.1-0.2,0.1-0.3,0.2c0,0-0.1,0-0.1,0.1
						c-0.2,0.1-0.3,0.1-0.6,0.2c0,0-0.1,0-0.1,0c-0.2,0-0.5,0.1-0.7,0.1c0,0-0.1,0-0.1,0c-0.2,0-0.4,0.1-0.7,0.1c0,0-0.1,0-0.1,0
						c-0.2,0-0.3,0-0.5,0c0,0-0.1,0-0.1,0c-0.2,0-0.4,0-0.6,0c0,0-0.1,0-0.1,0h-0.1c-0.2,0-0.4,0-0.6,0c0,0-0.1,0-0.1,0
						c-0.2,0-0.4,0-0.6,0c0,0-0.1,0-0.1,0c-0.1,0-0.3,0-0.4,0c0,0-0.1,0-0.1,0c-0.2,0-0.3,0-0.5-0.1c0,0-0.1,0-0.1,0
						c-0.1,0-0.2,0-0.4-0.1c0,0-0.1,0-0.1,0c-0.1,0-0.3-0.1-0.4-0.1c0,0-0.1,0-0.1,0c-0.1,0-0.3-0.1-0.4-0.1c0,0-0.1,0-0.1-0.1
						c-0.1-0.1-0.2-0.1-0.3-0.2c-0.1,0-0.1-0.1-0.1-0.1c-0.1-0.1-0.1-0.2-0.1-0.3c0-0.4,0-1.2,0-1.3c0,0.6,2.1,1,4.6,1
						C156.4,453.5,158.4,453,158.4,452.5z"/>
					<path class="st3" d="M158.4,452.5L158.4,452.5c0,0.6-2.1,1-4.6,1c-2.6,0-4.6-0.5-4.6-1v0h0.9h0c0,0,0,0,0,0c0,0,0,0,0,0
						c0.4,0.3,1.9,0.5,3.7,0.5c1.8,0,3.3-0.2,3.7-0.5c0,0,0,0,0,0c0,0,0,0,0,0h0H158.4z"/>
					<path class="st3" d="M158.4,452.5h-0.9c0,0,0,0,0,0c0,0,0,0,0,0c0,0,0,0,0-0.1c0,0,0,0,0,0c0,0,0,0,0,0c0-0.4-1.6-0.7-3.6-0.7
						l0-0.2C156.5,451.5,158.4,451.9,158.4,452.5z"/>
					<path class="st3" d="M157.6,452.3C157.6,452.4,157.6,452.4,157.6,452.3C157.6,452.4,157.6,452.4,157.6,452.3c0,0.1,0,0.1,0,0.1
						c0,0,0,0,0,0c0,0,0,0,0,0h0h-0.1c-0.5-0.3-1.9-0.5-3.6-0.5c-1.7,0-3.2,0.2-3.6,0.5h-0.1h0c0,0,0,0,0,0c0,0,0,0,0,0
						c0,0,0,0,0-0.1c0,0,0,0,0,0c0,0,0,0,0,0c0-0.4,1.7-0.7,3.8-0.7c0.1,0,0.1,0,0.2,0C156,451.7,157.6,452,157.6,452.3z"/>
					<path class="st3" d="M157.6,452.4C157.6,452.4,157.6,452.4,157.6,452.4C157.6,452.4,157.6,452.4,157.6,452.4z"/>
					<path class="st3" d="M157.6,452.4C157.6,452.4,157.6,452.4,157.6,452.4C157.6,452.4,157.6,452.4,157.6,452.4z"/>
					<path class="st3" d="M157.5,452.5C157.5,452.5,157.6,452.5,157.5,452.5C157.6,452.5,157.5,452.5,157.5,452.5z"/>
					<path class="st3" d="M157.5,452.5C157.5,452.5,157.5,452.5,157.5,452.5C157.5,452.5,157.5,452.5,157.5,452.5
						c-0.1,0-0.1,0-0.1,0H157.5z"/>
					<path class="st3" d="M157.5,452.5C157.5,452.5,157.5,452.5,157.5,452.5C157.5,452.5,157.5,452.5,157.5,452.5z"/>
					<path class="st1" d="M157.4,452.5C157.4,452.5,157.5,452.5,157.4,452.5c-0.4,0.3-1.9,0.6-3.6,0.6c-1.8,0-3.3-0.2-3.7-0.5
						c0,0,0,0,0.1,0H157.4z"/>
					<path class="st1" d="M157.4,452.5h-7.3c0.5-0.3,1.9-0.5,3.6-0.5C155.5,452,156.9,452.2,157.4,452.5z"/>
					<path class="st3" d="M154,451.5l0,0.2c-0.1,0-0.1,0-0.2,0c-2.1,0-3.8,0.3-3.8,0.7c0,0,0,0,0,0c0,0,0,0,0,0c0,0,0,0,0,0.1
						c0,0,0,0,0,0c0,0,0,0,0,0h-0.9c0-0.6,2.1-1,4.6-1C153.9,451.5,153.9,451.5,154,451.5z"/>
					<path class="st3" d="M150.1,452.5h0.1C150.1,452.5,150.1,452.5,150.1,452.5C150.1,452.5,150.1,452.5,150.1,452.5
						C150.1,452.5,150.1,452.5,150.1,452.5z"/>
					<path class="st3" d="M150.1,452.5C150.1,452.5,150.1,452.5,150.1,452.5C150.1,452.5,150.1,452.5,150.1,452.5z"/>
					<path class="st3" d="M150,452.5C150,452.5,150,452.5,150,452.5C150,452.5,150,452.5,150,452.5z"/>
					<path class="st3" d="M150,452.4C150,452.4,150,452.4,150,452.4C150,452.4,150,452.4,150,452.4z"/>
					<path class="st3" d="M150,452.3C150,452.4,150,452.4,150,452.3C150,452.4,150,452.4,150,452.3z"/>
				</g>
			</g>
		</g>
		<g>
			<g id="XMLID_00000145772513151614169750000015589389115717880710_">
				<g>
					<path class="st1" d="M158.4,450.7v1.3c0,0.1-0.1,0.2-0.2,0.3c0,0-0.1,0.1-0.1,0.1c-0.1,0.1-0.2,0.1-0.3,0.2c0,0-0.1,0-0.1,0.1
						c-0.2,0.1-0.3,0.1-0.6,0.2c0,0-0.1,0-0.1,0c-0.2,0-0.5,0.1-0.7,0.1c0,0-0.1,0-0.1,0c-0.2,0-0.4,0.1-0.7,0.1c0,0-0.1,0-0.1,0
						c-0.2,0-0.3,0-0.5,0c0,0-0.1,0-0.1,0c-0.2,0-0.4,0-0.6,0c0,0-0.1,0-0.1,0h-0.1c-0.2,0-0.4,0-0.6,0c0,0-0.1,0-0.1,0
						c-0.2,0-0.4,0-0.6,0c0,0-0.1,0-0.1,0c-0.1,0-0.3,0-0.4,0c0,0-0.1,0-0.1,0c-0.2,0-0.3,0-0.5-0.1c0,0-0.1,0-0.1,0
						c-0.1,0-0.2,0-0.4-0.1c0,0-0.1,0-0.1,0c-0.1,0-0.3-0.1-0.4-0.1c0,0-0.1,0-0.1,0c-0.1,0-0.3-0.1-0.4-0.1c0,0-0.1,0-0.1-0.1
						c-0.1-0.1-0.2-0.1-0.3-0.2c-0.1,0-0.1-0.1-0.1-0.1c-0.1-0.1-0.1-0.2-0.1-0.3c0-0.4,0-1.2,0-1.3c0,0.6,2.1,1,4.6,1
						C156.4,451.7,158.4,451.2,158.4,450.7z"/>
					<path class="st3" d="M158.4,450.7L158.4,450.7c0,0.6-2.1,1-4.6,1c-2.6,0-4.6-0.5-4.6-1v0h0.9h0c0,0,0,0,0,0c0,0,0,0,0,0
						c0.4,0.3,1.9,0.5,3.7,0.5c1.8,0,3.3-0.2,3.7-0.5c0,0,0,0,0,0c0,0,0,0,0,0h0H158.4z"/>
					<path class="st3" d="M158.4,450.7h-0.9c0,0,0,0,0,0c0,0,0,0,0,0c0,0,0,0,0-0.1c0,0,0,0,0,0c0,0,0,0,0,0c0-0.4-1.6-0.7-3.6-0.7
						l0-0.2C156.5,449.7,158.4,450.1,158.4,450.7z"/>
					<path class="st3" d="M157.6,450.5C157.6,450.5,157.6,450.6,157.6,450.5C157.6,450.6,157.6,450.6,157.6,450.5c0,0.1,0,0.1,0,0.1
						c0,0,0,0,0,0c0,0,0,0,0,0h0h-0.1c-0.5-0.3-1.9-0.5-3.6-0.5c-1.7,0-3.2,0.2-3.6,0.5h-0.1h0c0,0,0,0,0,0c0,0,0,0,0,0
						c0,0,0,0,0-0.1c0,0,0,0,0,0c0,0,0,0,0,0c0-0.4,1.7-0.7,3.8-0.7c0.1,0,0.1,0,0.2,0C156,449.9,157.6,450.2,157.6,450.5z"/>
					<path class="st3" d="M157.6,450.6C157.6,450.6,157.6,450.5,157.6,450.6C157.6,450.5,157.6,450.6,157.6,450.6z"/>
					<path class="st3" d="M157.6,450.6C157.6,450.6,157.6,450.6,157.6,450.6C157.6,450.6,157.6,450.6,157.6,450.6z"/>
					<path class="st3" d="M157.5,450.7C157.5,450.7,157.6,450.7,157.5,450.7C157.6,450.7,157.5,450.7,157.5,450.7z"/>
					<path class="st3" d="M157.5,450.7C157.5,450.7,157.5,450.7,157.5,450.7C157.5,450.7,157.5,450.7,157.5,450.7
						c-0.1,0-0.1,0-0.1,0H157.5z"/>
					<path class="st3" d="M157.5,450.7C157.5,450.7,157.5,450.7,157.5,450.7C157.5,450.7,157.5,450.7,157.5,450.7z"/>
					<path class="st1" d="M157.4,450.7C157.4,450.7,157.5,450.7,157.4,450.7c-0.4,0.3-1.9,0.6-3.6,0.6c-1.8,0-3.3-0.2-3.7-0.5
						c0,0,0,0,0.1,0H157.4z"/>
					<path class="st1" d="M157.4,450.7h-7.3c0.5-0.3,1.9-0.5,3.6-0.5C155.5,450.2,156.9,450.4,157.4,450.7z"/>
					<path class="st3" d="M154,449.7l0,0.2c-0.1,0-0.1,0-0.2,0c-2.1,0-3.8,0.3-3.8,0.7c0,0,0,0,0,0c0,0,0,0,0,0c0,0,0,0,0,0.1
						c0,0,0,0,0,0c0,0,0,0,0,0h-0.9c0-0.6,2.1-1,4.6-1C153.9,449.7,153.9,449.7,154,449.7z"/>
					<path class="st3" d="M150.1,450.7h0.1C150.1,450.7,150.1,450.7,150.1,450.7C150.1,450.7,150.1,450.7,150.1,450.7
						C150.1,450.7,150.1,450.7,150.1,450.7z"/>
					<path class="st3" d="M150.1,450.7C150.1,450.7,150.1,450.7,150.1,450.7C150.1,450.7,150.1,450.7,150.1,450.7z"/>
					<path class="st3" d="M150,450.6C150,450.7,150,450.7,150,450.6C150,450.7,150,450.7,150,450.6z"/>
					<path class="st3" d="M150,450.6C150,450.6,150,450.6,150,450.6C150,450.6,150,450.6,150,450.6z"/>
					<path class="st3" d="M150,450.5C150,450.5,150,450.6,150,450.5C150,450.6,150,450.5,150,450.5z"/>
				</g>
			</g>
		</g>
		<g>
			<g id="XMLID_00000094590722519086283770000014918240010649368484_">
				<g>
					<path class="st1" d="M158.4,448.9v1.3c0,0.1-0.1,0.2-0.2,0.3c0,0-0.1,0.1-0.1,0.1c-0.1,0.1-0.2,0.1-0.3,0.2c0,0-0.1,0-0.1,0.1
						c-0.2,0.1-0.3,0.1-0.6,0.2c0,0-0.1,0-0.1,0c-0.2,0-0.5,0.1-0.7,0.1c0,0-0.1,0-0.1,0c-0.2,0-0.4,0.1-0.7,0.1c0,0-0.1,0-0.1,0
						c-0.2,0-0.3,0-0.5,0c0,0-0.1,0-0.1,0c-0.2,0-0.4,0-0.6,0c0,0-0.1,0-0.1,0h-0.1c-0.2,0-0.4,0-0.6,0c0,0-0.1,0-0.1,0
						c-0.2,0-0.4,0-0.6,0c0,0-0.1,0-0.1,0c-0.1,0-0.3,0-0.4,0c0,0-0.1,0-0.1,0c-0.2,0-0.3,0-0.5-0.1c0,0-0.1,0-0.1,0
						c-0.1,0-0.2,0-0.4-0.1c0,0-0.1,0-0.1,0c-0.1,0-0.3-0.1-0.4-0.1c0,0-0.1,0-0.1,0c-0.1,0-0.3-0.1-0.4-0.1c0,0-0.1,0-0.1-0.1
						c-0.1-0.1-0.2-0.1-0.3-0.2c-0.1,0-0.1-0.1-0.1-0.1c-0.1-0.1-0.1-0.2-0.1-0.3c0-0.4,0-1.2,0-1.3c0,0.6,2.1,1,4.6,1
						C156.4,449.9,158.4,449.4,158.4,448.9z"/>
					<path class="st3" d="M158.4,448.9L158.4,448.9c0,0.6-2.1,1-4.6,1c-2.6,0-4.6-0.5-4.6-1v0h0.9h0c0,0,0,0,0,0c0,0,0,0,0,0
						c0.4,0.3,1.9,0.5,3.7,0.5c1.8,0,3.3-0.2,3.7-0.5c0,0,0,0,0,0c0,0,0,0,0,0h0H158.4z"/>
					<path class="st3" d="M158.4,448.9h-0.9c0,0,0,0,0,0c0,0,0,0,0,0c0,0,0,0,0-0.1c0,0,0,0,0,0c0,0,0,0,0,0c0-0.4-1.6-0.7-3.6-0.7
						l0-0.2C156.5,447.9,158.4,448.3,158.4,448.9z"/>
					<path class="st3" d="M157.6,448.7C157.6,448.7,157.6,448.8,157.6,448.7C157.6,448.8,157.6,448.8,157.6,448.7c0,0.1,0,0.1,0,0.1
						c0,0,0,0,0,0c0,0,0,0,0,0h0h-0.1c-0.5-0.3-1.9-0.5-3.6-0.5c-1.7,0-3.2,0.2-3.6,0.5h-0.1h0c0,0,0,0,0,0c0,0,0,0,0,0
						c0,0,0,0,0-0.1c0,0,0,0,0,0c0,0,0,0,0,0c0-0.4,1.7-0.7,3.8-0.7c0.1,0,0.1,0,0.2,0C156,448.1,157.6,448.4,157.6,448.7z"/>
					<path class="st3" d="M157.6,448.8C157.6,448.8,157.6,448.7,157.6,448.8C157.6,448.7,157.6,448.8,157.6,448.8z"/>
					<path class="st3" d="M157.6,448.8C157.6,448.8,157.6,448.8,157.6,448.8C157.6,448.8,157.6,448.8,157.6,448.8z"/>
					<path class="st3" d="M157.5,448.9C157.5,448.9,157.6,448.9,157.5,448.9C157.6,448.9,157.5,448.9,157.5,448.9z"/>
					<path class="st3" d="M157.5,448.9C157.5,448.9,157.5,448.9,157.5,448.9C157.5,448.9,157.5,448.9,157.5,448.9
						c-0.1,0-0.1,0-0.1,0H157.5z"/>
					<path class="st3" d="M157.5,448.9C157.5,448.9,157.5,448.9,157.5,448.9C157.5,448.9,157.5,448.9,157.5,448.9z"/>
					<path class="st1" d="M157.4,448.9C157.4,448.9,157.5,448.9,157.4,448.9c-0.4,0.3-1.9,0.6-3.6,0.6c-1.8,0-3.3-0.2-3.7-0.5
						c0,0,0,0,0.1,0H157.4z"/>
					<path class="st1" d="M157.4,448.9h-7.3c0.5-0.3,1.9-0.5,3.6-0.5C155.5,448.4,156.9,448.6,157.4,448.9z"/>
					<path class="st3" d="M154,447.9l0,0.2c-0.1,0-0.1,0-0.2,0c-2.1,0-3.8,0.3-3.8,0.7c0,0,0,0,0,0c0,0,0,0,0,0c0,0,0,0,0,0.1
						c0,0,0,0,0,0c0,0,0,0,0,0h-0.9c0-0.6,2.1-1,4.6-1C153.9,447.8,153.9,447.8,154,447.9z"/>
					<path class="st3" d="M150.1,448.9h0.1C150.1,448.9,150.1,448.9,150.1,448.9C150.1,448.9,150.1,448.9,150.1,448.9
						C150.1,448.9,150.1,448.9,150.1,448.9z"/>
					<path class="st3" d="M150.1,448.9C150.1,448.9,150.1,448.9,150.1,448.9C150.1,448.9,150.1,448.9,150.1,448.9z"/>
					<path class="st3" d="M150,448.8C150,448.9,150,448.9,150,448.8C150,448.9,150,448.9,150,448.8z"/>
					<path class="st3" d="M150,448.8C150,448.8,150,448.8,150,448.8C150,448.8,150,448.8,150,448.8z"/>
					<path class="st3" d="M150,448.7C150,448.7,150,448.8,150,448.7C150,448.8,150,448.7,150,448.7z"/>
				</g>
			</g>
		</g>
		<g>
			<g id="XMLID_00000155118157896232224940000006898997720518173871_">
				<g>
					<path class="st1" d="M148.1,456.2v1.2c0,0.1-0.1,0.2-0.2,0.3c0,0-0.1,0.1-0.1,0.1c-0.1,0.1-0.2,0.1-0.3,0.2c0,0-0.1,0-0.1,0
						c-0.2,0.1-0.3,0.1-0.6,0.2c0,0-0.1,0-0.1,0c-0.2,0-0.5,0.1-0.7,0.1c0,0-0.1,0-0.1,0c-0.2,0-0.4,0.1-0.7,0.1c0,0-0.1,0-0.1,0
						c-0.2,0-0.3,0-0.5,0c0,0-0.1,0-0.1,0c-0.2,0-0.4,0-0.6,0c0,0-0.1,0-0.1,0h-0.1c-0.2,0-0.4,0-0.6,0c0,0-0.1,0-0.1,0
						c-0.2,0-0.4,0-0.6,0c0,0-0.1,0-0.1,0c-0.1,0-0.3,0-0.4,0c0,0-0.1,0-0.1,0c-0.2,0-0.3,0-0.5-0.1c0,0-0.1,0-0.1,0
						c-0.1,0-0.2,0-0.4-0.1c0,0-0.1,0-0.1,0c-0.1,0-0.3-0.1-0.4-0.1c0,0-0.1,0-0.1,0c-0.1,0-0.3-0.1-0.4-0.1c0,0-0.1,0-0.1-0.1
						c-0.1-0.1-0.2-0.1-0.3-0.2c-0.1,0-0.1-0.1-0.1-0.1c-0.1-0.1-0.1-0.2-0.1-0.3c0-0.4,0-1.2,0-1.2c0,0.5,2.1,1,4.6,1
						C146,457.2,148.1,456.7,148.1,456.2z"/>
					<path class="st3" d="M148.1,456.2L148.1,456.2c0,0.5-2.1,1-4.6,1c-2.6,0-4.6-0.4-4.6-1v0h0.9h0c0,0,0,0,0,0c0,0,0,0,0,0
						c0.4,0.3,1.9,0.5,3.7,0.5c1.8,0,3.3-0.2,3.7-0.5c0,0,0,0,0,0c0,0,0,0,0,0h0H148.1z"/>
					<path class="st3" d="M148.1,456.2h-0.9c0,0,0,0,0,0c0,0,0,0,0,0c0,0,0,0,0-0.1c0,0,0,0,0,0c0,0,0,0,0,0c0-0.4-1.6-0.7-3.6-0.7
						l0-0.2C146.1,455.2,148,455.7,148.1,456.2z"/>
					<path class="st3" d="M147.2,456.1C147.2,456.1,147.2,456.1,147.2,456.1C147.2,456.1,147.2,456.1,147.2,456.1c0,0.1,0,0.1,0,0.1
						c0,0,0,0,0,0c0,0,0,0,0,0h0H147c-0.5-0.3-1.9-0.5-3.6-0.5c-1.7,0-3.2,0.2-3.6,0.5h-0.1h0c0,0,0,0,0,0c0,0,0,0,0,0
						c0,0,0,0,0-0.1c0,0,0,0,0,0c0,0,0,0,0,0c0-0.4,1.7-0.7,3.8-0.7c0.1,0,0.1,0,0.2,0C145.6,455.4,147.2,455.7,147.2,456.1z"/>
					<path class="st3" d="M147.2,456.1C147.2,456.1,147.2,456.1,147.2,456.1C147.2,456.1,147.2,456.1,147.2,456.1z"/>
					<path class="st3" d="M147.2,456.1C147.2,456.1,147.2,456.1,147.2,456.1C147.2,456.1,147.2,456.1,147.2,456.1z"/>
					<path class="st3" d="M147.2,456.2C147.2,456.2,147.2,456.2,147.2,456.2C147.2,456.2,147.2,456.2,147.2,456.2z"/>
					<path class="st3" d="M147.1,456.2C147.1,456.2,147.1,456.2,147.1,456.2C147.1,456.2,147.1,456.2,147.1,456.2
						c-0.1,0-0.1,0-0.1,0H147.1z"/>
					<path class="st3" d="M147.1,456.2C147.1,456.2,147.1,456.2,147.1,456.2C147.1,456.2,147.1,456.2,147.1,456.2z"/>
					<path class="st1" d="M147,456.2C147.1,456.2,147.1,456.2,147,456.2c-0.4,0.3-1.9,0.5-3.6,0.5c-1.8,0-3.3-0.2-3.7-0.5
						c0,0,0,0,0.1,0H147z"/>
					<path class="st1" d="M147,456.2h-7.3c0.5-0.3,1.9-0.5,3.6-0.5C145.1,455.7,146.6,455.9,147,456.2z"/>
					<path class="st3" d="M143.6,455.2l0,0.2c-0.1,0-0.1,0-0.2,0c-2.1,0-3.8,0.3-3.8,0.7c0,0,0,0,0,0c0,0,0,0,0,0c0,0,0,0,0,0.1
						c0,0,0,0,0,0c0,0,0,0,0,0h-0.9c0-0.5,2.1-1,4.6-1C143.5,455.2,143.5,455.2,143.6,455.2z"/>
					<path class="st3" d="M139.7,456.2h0.1C139.8,456.2,139.7,456.2,139.7,456.2C139.7,456.2,139.7,456.2,139.7,456.2
						C139.7,456.2,139.7,456.2,139.7,456.2z"/>
					<path class="st3" d="M139.7,456.2C139.7,456.2,139.7,456.2,139.7,456.2C139.7,456.2,139.7,456.2,139.7,456.2z"/>
					<path class="st3" d="M139.6,456.2C139.6,456.2,139.7,456.2,139.6,456.2C139.7,456.2,139.6,456.2,139.6,456.2z"/>
					<path class="st3" d="M139.6,456.1C139.6,456.1,139.6,456.1,139.6,456.1C139.6,456.1,139.6,456.1,139.6,456.1z"/>
					<path class="st3" d="M139.6,456.1C139.6,456.1,139.6,456.1,139.6,456.1C139.6,456.1,139.6,456.1,139.6,456.1z"/>
				</g>
			</g>
		</g>
		<g>
			<g id="XMLID_00000152965422572993456130000002611133040908845725_">
				<g>
					<path class="st1" d="M148.1,454.5v1.2c0,0.1-0.1,0.2-0.2,0.3c0,0-0.1,0.1-0.1,0.1c-0.1,0.1-0.2,0.1-0.3,0.2c0,0-0.1,0-0.1,0
						c-0.2,0.1-0.3,0.1-0.6,0.2c0,0-0.1,0-0.1,0c-0.2,0-0.5,0.1-0.7,0.1c0,0-0.1,0-0.1,0c-0.2,0-0.4,0.1-0.7,0.1c0,0-0.1,0-0.1,0
						c-0.2,0-0.3,0-0.5,0c0,0-0.1,0-0.1,0c-0.2,0-0.4,0-0.6,0c0,0-0.1,0-0.1,0h-0.1c-0.2,0-0.4,0-0.6,0c0,0-0.1,0-0.1,0
						c-0.2,0-0.4,0-0.6,0c0,0-0.1,0-0.1,0c-0.1,0-0.3,0-0.4,0c0,0-0.1,0-0.1,0c-0.2,0-0.3,0-0.5-0.1c0,0-0.1,0-0.1,0
						c-0.1,0-0.2,0-0.4-0.1c0,0-0.1,0-0.1,0c-0.1,0-0.3-0.1-0.4-0.1c0,0-0.1,0-0.1,0c-0.1,0-0.3-0.1-0.4-0.1c0,0-0.1,0-0.1-0.1
						c-0.1-0.1-0.2-0.1-0.3-0.2c-0.1,0-0.1-0.1-0.1-0.1c-0.1-0.1-0.1-0.2-0.1-0.3c0-0.4,0-1.2,0-1.2c0,0.5,2.1,1,4.6,1
						C146,455.5,148.1,455,148.1,454.5z"/>
					<path class="st3" d="M148.1,454.5L148.1,454.5c0,0.5-2.1,1-4.6,1c-2.6,0-4.6-0.4-4.6-1v0h0.9h0c0,0,0,0,0,0c0,0,0,0,0,0
						c0.4,0.3,1.9,0.5,3.7,0.5c1.8,0,3.3-0.2,3.7-0.5c0,0,0,0,0,0c0,0,0,0,0,0h0H148.1z"/>
					<path class="st3" d="M148.1,454.5h-0.9c0,0,0,0,0,0c0,0,0,0,0,0c0,0,0,0,0-0.1c0,0,0,0,0,0c0,0,0,0,0,0c0-0.4-1.6-0.7-3.6-0.7
						l0-0.2C146.1,453.5,148,453.9,148.1,454.5z"/>
					<path class="st3" d="M147.2,454.3C147.2,454.4,147.2,454.4,147.2,454.3C147.2,454.4,147.2,454.4,147.2,454.3c0,0.1,0,0.1,0,0.1
						c0,0,0,0,0,0c0,0,0,0,0,0h0H147c-0.5-0.3-1.9-0.5-3.6-0.5c-1.7,0-3.2,0.2-3.6,0.5h-0.1h0c0,0,0,0,0,0c0,0,0,0,0,0
						c0,0,0,0,0-0.1c0,0,0,0,0,0c0,0,0,0,0,0c0-0.4,1.7-0.7,3.8-0.7c0.1,0,0.1,0,0.2,0C145.6,453.7,147.2,454,147.2,454.3z"/>
					<path class="st3" d="M147.2,454.4C147.2,454.4,147.2,454.4,147.2,454.4C147.2,454.4,147.2,454.4,147.2,454.4z"/>
					<path class="st3" d="M147.2,454.4C147.2,454.4,147.2,454.4,147.2,454.4C147.2,454.4,147.2,454.4,147.2,454.4z"/>
					<path class="st3" d="M147.2,454.5C147.2,454.5,147.2,454.5,147.2,454.5C147.2,454.5,147.2,454.5,147.2,454.5z"/>
					<path class="st3" d="M147.1,454.5C147.1,454.5,147.1,454.5,147.1,454.5C147.1,454.5,147.1,454.5,147.1,454.5
						c-0.1,0-0.1,0-0.1,0H147.1z"/>
					<path class="st3" d="M147.1,454.5C147.1,454.5,147.1,454.5,147.1,454.5C147.1,454.5,147.1,454.5,147.1,454.5z"/>
					<path class="st1" d="M147,454.5C147.1,454.5,147.1,454.5,147,454.5c-0.4,0.3-1.9,0.5-3.6,0.5c-1.8,0-3.3-0.2-3.7-0.5
						c0,0,0,0,0.1,0H147z"/>
					<path class="st1" d="M147,454.5h-7.3c0.5-0.3,1.9-0.5,3.6-0.5C145.1,454,146.6,454.2,147,454.5z"/>
					<path class="st3" d="M143.6,453.5l0,0.2c-0.1,0-0.1,0-0.2,0c-2.1,0-3.8,0.3-3.8,0.7c0,0,0,0,0,0c0,0,0,0,0,0c0,0,0,0,0,0.1
						c0,0,0,0,0,0c0,0,0,0,0,0h-0.9c0-0.5,2.1-1,4.6-1C143.5,453.5,143.5,453.5,143.6,453.5z"/>
					<path class="st3" d="M139.7,454.5h0.1C139.8,454.5,139.7,454.5,139.7,454.5C139.7,454.5,139.7,454.5,139.7,454.5
						C139.7,454.5,139.7,454.5,139.7,454.5z"/>
					<path class="st3" d="M139.7,454.5C139.7,454.5,139.7,454.5,139.7,454.5C139.7,454.5,139.7,454.5,139.7,454.5z"/>
					<path class="st3" d="M139.6,454.4C139.6,454.5,139.7,454.5,139.6,454.4C139.7,454.5,139.6,454.5,139.6,454.4z"/>
					<path class="st3" d="M139.6,454.4C139.6,454.4,139.6,454.4,139.6,454.4C139.6,454.4,139.6,454.4,139.6,454.4z"/>
					<path class="st3" d="M139.6,454.3C139.6,454.4,139.6,454.4,139.6,454.3C139.6,454.4,139.6,454.4,139.6,454.3z"/>
				</g>
			</g>
		</g>
		<g>
			<g id="XMLID_00000092453893946140003730000009005551956468700039_">
				<g>
					<path class="st1" d="M147.7,451.9l0.4,1.2c0,0.1,0,0.2-0.1,0.4c0,0-0.1,0.1-0.1,0.1c-0.1,0.1-0.2,0.1-0.3,0.2
						c0,0-0.1,0-0.1,0.1c-0.1,0.1-0.3,0.2-0.5,0.3c0,0-0.1,0-0.1,0.1c-0.2,0.1-0.4,0.2-0.7,0.3c0,0-0.1,0-0.1,0
						c-0.2,0.1-0.4,0.1-0.6,0.2c0,0-0.1,0-0.1,0c-0.1,0-0.3,0.1-0.5,0.1c0,0-0.1,0-0.1,0c-0.2,0-0.4,0.1-0.6,0.1c0,0-0.1,0-0.1,0
						l-0.1,0c-0.2,0-0.4,0.1-0.6,0.1c0,0-0.1,0-0.1,0c-0.2,0-0.4,0.1-0.6,0.1c0,0-0.1,0-0.1,0c-0.1,0-0.3,0-0.4,0c0,0-0.1,0-0.1,0
						c-0.2,0-0.3,0-0.5,0c0,0-0.1,0-0.1,0c-0.1,0-0.3,0-0.4,0c0,0-0.1,0-0.1,0c-0.2,0-0.3,0-0.4,0c0,0-0.1,0-0.1,0
						c-0.1,0-0.3,0-0.4-0.1c-0.1,0-0.1,0-0.1,0c-0.1,0-0.2-0.1-0.3-0.1c-0.1,0-0.1-0.1-0.2-0.1c-0.1-0.1-0.2-0.1-0.2-0.2
						c-0.1-0.3-0.4-1.2-0.4-1.2c0.2,0.5,2.3,0.6,4.8,0.1C146,453.2,147.9,452.4,147.7,451.9z"/>
					<path class="st3" d="M147.7,451.9L147.7,451.9c0.2,0.5-1.7,1.3-4.2,1.8c-2.5,0.5-4.6,0.5-4.8-0.1l0,0l0.9-0.2c0,0,0,0,0,0
						c0,0,0,0,0,0l0,0c0.5,0.2,2,0.1,3.7-0.2s3.1-0.8,3.4-1.2c0,0,0,0,0,0c0,0,0,0,0,0l0,0L147.7,451.9z"/>
					<path class="st3" d="M147.7,451.9l-0.9,0.2c0,0,0,0,0,0c0,0,0,0,0,0c0,0,0,0,0-0.1c0,0,0,0,0,0c0,0,0,0,0,0
						c-0.1-0.4-1.8-0.3-3.7,0l0-0.2C145.5,451.3,147.6,451.4,147.7,451.9z"/>
					<path class="st3" d="M146.9,451.9C146.9,451.9,146.9,451.9,146.9,451.9C146.9,452,146.9,452,146.9,451.9c0,0.1,0,0.1,0,0.1
						c0,0,0,0,0,0c0,0,0,0,0,0l0,0l-0.1,0c-0.6-0.2-2-0.1-3.7,0.2c-1.7,0.3-3,0.8-3.4,1.1l-0.1,0c0,0,0,0,0,0c0,0,0,0,0,0
						c0,0,0,0-0.1-0.1c0,0,0,0,0,0c0,0,0,0,0,0c-0.1-0.4,1.5-1,3.5-1.4c0.1,0,0.1,0,0.2,0C145.1,451.6,146.8,451.6,146.9,451.9z"/>
					<path class="st3" d="M146.9,451.9C146.9,451.9,146.9,451.9,146.9,451.9C146.9,451.9,146.9,451.9,146.9,451.9z"/>
					<path class="st3" d="M146.9,452C146.9,452,146.9,452,146.9,452C146.9,452,146.9,452,146.9,452z"/>
					<path class="st3" d="M146.8,452.1C146.9,452,146.9,452,146.8,452.1C146.9,452,146.9,452,146.8,452.1z"/>
					<path class="st3" d="M146.8,452.1C146.8,452.1,146.8,452.1,146.8,452.1C146.8,452.1,146.8,452.1,146.8,452.1
						c-0.1,0-0.1,0-0.1,0L146.8,452.1z"/>
					<path class="st3" d="M146.8,452.1C146.8,452.1,146.8,452.1,146.8,452.1C146.8,452.1,146.8,452.1,146.8,452.1z"/>
					<path class="st1" d="M146.7,452.1C146.8,452.1,146.8,452.1,146.7,452.1c-0.3,0.4-1.6,0.9-3.4,1.2s-3.2,0.4-3.7,0.2c0,0,0,0,0,0
						L146.7,452.1z"/>
					<path class="st1" d="M146.7,452.1l-7.1,1.4c0.4-0.4,1.7-0.8,3.4-1.1C144.7,452,146.2,451.9,146.7,452.1z"/>
					<path class="st3" d="M143.1,451.8l0,0.2c-0.1,0-0.1,0-0.2,0c-2,0.4-3.6,1-3.5,1.4c0,0,0,0,0,0c0,0,0,0,0,0c0,0,0,0,0.1,0.1
						c0,0,0,0,0,0c0,0,0,0,0,0l-0.9,0.2c-0.2-0.5,1.7-1.3,4.2-1.8C143,451.8,143,451.8,143.1,451.8z"/>
					<path class="st3" d="M139.6,453.5l0.1,0C139.7,453.5,139.6,453.5,139.6,453.5C139.6,453.5,139.6,453.5,139.6,453.5
						C139.6,453.5,139.6,453.5,139.6,453.5z"/>
					<path class="st3" d="M139.6,453.5L139.6,453.5C139.6,453.5,139.6,453.5,139.6,453.5C139.6,453.5,139.6,453.5,139.6,453.5z"/>
					<path class="st3" d="M139.6,453.5C139.6,453.5,139.6,453.5,139.6,453.5C139.6,453.5,139.6,453.5,139.6,453.5z"/>
					<path class="st3" d="M139.5,453.5C139.5,453.5,139.6,453.5,139.5,453.5C139.6,453.5,139.5,453.5,139.5,453.5z"/>
					<path class="st3" d="M139.5,453.4C139.5,453.4,139.5,453.4,139.5,453.4C139.5,453.4,139.5,453.4,139.5,453.4z"/>
					<path class="st3" d="M139.5,453.4C139.5,453.4,139.5,453.4,139.5,453.4C139.5,453.4,139.5,453.4,139.5,453.4z"/>
				</g>
			</g>
		</g>
		<g>
			<g id="XMLID_00000117664860948335099010000017408939821804800920_">
				<g>
					<path class="st1" d="M148.1,449.7v1.2c0,0.1-0.1,0.2-0.2,0.3c0,0-0.1,0.1-0.1,0.1c-0.1,0.1-0.2,0.1-0.3,0.2c0,0-0.1,0-0.1,0
						c-0.2,0.1-0.3,0.1-0.6,0.2c0,0-0.1,0-0.1,0c-0.2,0-0.5,0.1-0.7,0.1c0,0-0.1,0-0.1,0c-0.2,0-0.4,0.1-0.7,0.1c0,0-0.1,0-0.1,0
						c-0.2,0-0.3,0-0.5,0c0,0-0.1,0-0.1,0c-0.2,0-0.4,0-0.6,0c0,0-0.1,0-0.1,0h-0.1c-0.2,0-0.4,0-0.6,0c0,0-0.1,0-0.1,0
						c-0.2,0-0.4,0-0.6,0c0,0-0.1,0-0.1,0c-0.1,0-0.3,0-0.4,0c0,0-0.1,0-0.1,0c-0.2,0-0.3,0-0.5-0.1c0,0-0.1,0-0.1,0
						c-0.1,0-0.2,0-0.4-0.1c0,0-0.1,0-0.1,0c-0.1,0-0.3-0.1-0.4-0.1c0,0-0.1,0-0.1,0c-0.1,0-0.3-0.1-0.4-0.1c0,0-0.1,0-0.1-0.1
						c-0.1-0.1-0.2-0.1-0.3-0.2c-0.1,0-0.1-0.1-0.1-0.1c-0.1-0.1-0.1-0.2-0.1-0.3c0-0.4,0-1.2,0-1.2c0,0.5,2.1,1,4.6,1
						C146,450.7,148.1,450.2,148.1,449.7z"/>
					<path class="st3" d="M148.1,449.7L148.1,449.7c0,0.5-2.1,1-4.6,1c-2.6,0-4.6-0.4-4.6-1v0h0.9h0c0,0,0,0,0,0c0,0,0,0,0,0
						c0.4,0.3,1.9,0.5,3.7,0.5c1.8,0,3.3-0.2,3.7-0.5c0,0,0,0,0,0c0,0,0,0,0,0h0H148.1z"/>
					<path class="st3" d="M148.1,449.7h-0.9c0,0,0,0,0,0c0,0,0,0,0,0c0,0,0,0,0-0.1c0,0,0,0,0,0c0,0,0,0,0,0c0-0.4-1.6-0.7-3.6-0.7
						l0-0.2C146.1,448.7,148,449.2,148.1,449.7z"/>
					<path class="st3" d="M147.2,449.6C147.2,449.6,147.2,449.6,147.2,449.6C147.2,449.6,147.2,449.6,147.2,449.6c0,0.1,0,0.1,0,0.1
						c0,0,0,0,0,0c0,0,0,0,0,0h0H147c-0.5-0.3-1.9-0.5-3.6-0.5c-1.7,0-3.2,0.2-3.6,0.5h-0.1h0c0,0,0,0,0,0c0,0,0,0,0,0
						c0,0,0,0,0-0.1c0,0,0,0,0,0c0,0,0,0,0,0c0-0.4,1.7-0.7,3.8-0.7c0.1,0,0.1,0,0.2,0C145.6,448.9,147.2,449.2,147.2,449.6z"/>
					<path class="st3" d="M147.2,449.6C147.2,449.6,147.2,449.6,147.2,449.6C147.2,449.6,147.2,449.6,147.2,449.6z"/>
					<path class="st3" d="M147.2,449.6C147.2,449.6,147.2,449.6,147.2,449.6C147.2,449.6,147.2,449.6,147.2,449.6z"/>
					<path class="st3" d="M147.2,449.7C147.2,449.7,147.2,449.7,147.2,449.7C147.2,449.7,147.2,449.7,147.2,449.7z"/>
					<path class="st3" d="M147.1,449.7C147.1,449.7,147.1,449.7,147.1,449.7C147.1,449.7,147.1,449.7,147.1,449.7
						c-0.1,0-0.1,0-0.1,0H147.1z"/>
					<path class="st3" d="M147.1,449.7C147.1,449.7,147.1,449.7,147.1,449.7C147.1,449.7,147.1,449.7,147.1,449.7z"/>
					<path class="st1" d="M147,449.7C147.1,449.7,147.1,449.7,147,449.7c-0.4,0.3-1.9,0.5-3.6,0.5c-1.8,0-3.3-0.2-3.7-0.5
						c0,0,0,0,0.1,0H147z"/>
					<path class="st1" d="M147,449.7h-7.3c0.5-0.3,1.9-0.5,3.6-0.5C145.1,449.2,146.6,449.4,147,449.7z"/>
					<path class="st3" d="M143.6,448.7l0,0.2c-0.1,0-0.1,0-0.2,0c-2.1,0-3.8,0.3-3.8,0.7c0,0,0,0,0,0c0,0,0,0,0,0c0,0,0,0,0,0.1
						c0,0,0,0,0,0c0,0,0,0,0,0h-0.9c0-0.5,2.1-1,4.6-1C143.5,448.7,143.5,448.7,143.6,448.7z"/>
					<path class="st3" d="M139.7,449.7h0.1C139.8,449.7,139.7,449.7,139.7,449.7C139.7,449.7,139.7,449.7,139.7,449.7
						C139.7,449.7,139.7,449.7,139.7,449.7z"/>
					<path class="st3" d="M139.7,449.7C139.7,449.7,139.7,449.7,139.7,449.7C139.7,449.7,139.7,449.7,139.7,449.7z"/>
					<path class="st3" d="M139.6,449.7C139.6,449.7,139.7,449.7,139.6,449.7C139.7,449.7,139.6,449.7,139.6,449.7z"/>
					<path class="st3" d="M139.6,449.6C139.6,449.6,139.6,449.6,139.6,449.6C139.6,449.6,139.6,449.6,139.6,449.6z"/>
					<path class="st3" d="M139.6,449.6C139.6,449.6,139.6,449.6,139.6,449.6C139.6,449.6,139.6,449.6,139.6,449.6z"/>
				</g>
			</g>
		</g>
		<g>
			<g id="XMLID_00000023266790263365800160000001025306917334489782_">
				<g>
					<path class="st1" d="M148.1,446.6v1.2c0,0.1-0.1,0.2-0.2,0.3c0,0-0.1,0.1-0.1,0.1c-0.1,0.1-0.2,0.1-0.3,0.2c0,0-0.1,0-0.1,0
						c-0.2,0.1-0.3,0.1-0.6,0.2c0,0-0.1,0-0.1,0c-0.2,0-0.5,0.1-0.7,0.1c0,0-0.1,0-0.1,0c-0.2,0-0.4,0.1-0.7,0.1c0,0-0.1,0-0.1,0
						c-0.2,0-0.3,0-0.5,0c0,0-0.1,0-0.1,0c-0.2,0-0.4,0-0.6,0c0,0-0.1,0-0.1,0h-0.1c-0.2,0-0.4,0-0.6,0c0,0-0.1,0-0.1,0
						c-0.2,0-0.4,0-0.6,0c0,0-0.1,0-0.1,0c-0.1,0-0.3,0-0.4,0c0,0-0.1,0-0.1,0c-0.2,0-0.3,0-0.5-0.1c0,0-0.1,0-0.1,0
						c-0.1,0-0.2,0-0.4-0.1c0,0-0.1,0-0.1,0c-0.1,0-0.3-0.1-0.4-0.1c0,0-0.1,0-0.1,0c-0.1,0-0.3-0.1-0.4-0.1c0,0-0.1,0-0.1-0.1
						c-0.1-0.1-0.2-0.1-0.3-0.2c-0.1,0-0.1-0.1-0.1-0.1c-0.1-0.1-0.1-0.2-0.1-0.3c0-0.4,0-1.2,0-1.2c0,0.5,2.1,1,4.6,1
						C146,447.6,148.1,447.2,148.1,446.6z"/>
					<path class="st3" d="M148.1,446.6L148.1,446.6c0,0.5-2.1,1-4.6,1c-2.6,0-4.6-0.4-4.6-1v0h0.9h0c0,0,0,0,0,0c0,0,0,0,0,0
						c0.4,0.3,1.9,0.5,3.7,0.5c1.8,0,3.3-0.2,3.7-0.5c0,0,0,0,0,0c0,0,0,0,0,0h0H148.1z"/>
					<path class="st3" d="M148.1,446.6h-0.9c0,0,0,0,0,0c0,0,0,0,0,0c0,0,0,0,0-0.1c0,0,0,0,0,0c0,0,0,0,0,0c0-0.4-1.6-0.7-3.6-0.7
						l0-0.2C146.1,445.7,148,446.1,148.1,446.6z"/>
					<path class="st3" d="M147.2,446.5C147.2,446.5,147.2,446.5,147.2,446.5C147.2,446.5,147.2,446.5,147.2,446.5c0,0.1,0,0.1,0,0.1
						c0,0,0,0,0,0c0,0,0,0,0,0h0H147c-0.5-0.3-1.9-0.5-3.6-0.5c-1.7,0-3.2,0.2-3.6,0.5h-0.1h0c0,0,0,0,0,0c0,0,0,0,0,0
						c0,0,0,0,0-0.1c0,0,0,0,0,0c0,0,0,0,0,0c0-0.4,1.7-0.7,3.8-0.7c0.1,0,0.1,0,0.2,0C145.6,445.9,147.2,446.1,147.2,446.5z"/>
					<path class="st3" d="M147.2,446.5C147.2,446.5,147.2,446.5,147.2,446.5C147.2,446.5,147.2,446.5,147.2,446.5z"/>
					<path class="st3" d="M147.2,446.5C147.2,446.5,147.2,446.5,147.2,446.5C147.2,446.5,147.2,446.5,147.2,446.5z"/>
					<path class="st3" d="M147.2,446.6C147.2,446.6,147.2,446.6,147.2,446.6C147.2,446.6,147.2,446.6,147.2,446.6z"/>
					<path class="st3" d="M147.1,446.6C147.1,446.6,147.1,446.6,147.1,446.6C147.1,446.7,147.1,446.7,147.1,446.6
						c-0.1,0-0.1,0-0.1,0H147.1z"/>
					<path class="st3" d="M147.1,446.7C147.1,446.6,147.1,446.6,147.1,446.7C147.1,446.6,147.1,446.6,147.1,446.7z"/>
					<path class="st1" d="M147,446.6C147.1,446.6,147.1,446.7,147,446.6c-0.4,0.3-1.9,0.5-3.6,0.5c-1.8,0-3.3-0.2-3.7-0.5
						c0,0,0,0,0.1,0H147z"/>
					<path class="st1" d="M147,446.6h-7.3c0.5-0.3,1.9-0.5,3.6-0.5C145.1,446.2,146.6,446.4,147,446.6z"/>
					<path class="st3" d="M143.6,445.7l0,0.2c-0.1,0-0.1,0-0.2,0c-2.1,0-3.8,0.3-3.8,0.7c0,0,0,0,0,0c0,0,0,0,0,0c0,0,0,0,0,0.1
						c0,0,0,0,0,0c0,0,0,0,0,0h-0.9c0-0.5,2.1-1,4.6-1C143.5,445.7,143.5,445.7,143.6,445.7z"/>
					<path class="st3" d="M139.7,446.6h0.1C139.8,446.6,139.7,446.7,139.7,446.6C139.7,446.7,139.7,446.7,139.7,446.6
						C139.7,446.6,139.7,446.6,139.7,446.6z"/>
					<path class="st3" d="M139.7,446.6C139.7,446.6,139.7,446.6,139.7,446.6C139.7,446.6,139.7,446.6,139.7,446.6z"/>
					<path class="st3" d="M139.6,446.6C139.6,446.6,139.7,446.6,139.6,446.6C139.7,446.6,139.6,446.6,139.6,446.6z"/>
					<path class="st3" d="M139.6,446.5C139.6,446.5,139.6,446.5,139.6,446.5C139.6,446.5,139.6,446.5,139.6,446.5z"/>
					<path class="st3" d="M139.6,446.5C139.6,446.5,139.6,446.5,139.6,446.5C139.6,446.5,139.6,446.5,139.6,446.5z"/>
				</g>
			</g>
		</g>
		<g>
			<g>
				<g id="XMLID_00000160160512810415648460000009247916485013375616_">
					<g>
						<path class="st1" d="M142.7,463.9c0,0.1,0,0.1,0,0.2c0,0.1,0,0.1,0,0.2c0,0.1,0,0.1,0,0.2c0,0.1,0,0.3-0.1,0.4
							c0,0.1,0,0.1,0,0.2c-0.1,0.2-0.1,0.5-0.2,0.7c0,0.1-0.1,0.1-0.1,0.2c-0.1,0.1-0.2,0.3-0.2,0.4c0,0.1-0.1,0.1-0.1,0.2
							c-0.1,0.1-0.2,0.3-0.3,0.4c-0.1,0.1-0.1,0.1-0.2,0.2c-0.2,0.1-0.3,0.2-0.5,0.4c-0.1,0.1-0.2,0.1-0.3,0.2
							c-0.4,0.2-0.7,0.3-1.1,0.3c1.7-0.4,3-1.9,3-3.8c0-1.8-1.2-3.3-2.9-3.7c0.4,0.1,0.8,0.2,1.1,0.4c0.1,0.1,0.2,0.1,0.3,0.2
							c0.2,0.1,0.3,0.2,0.5,0.4c0.1,0.1,0.1,0.1,0.2,0.2c0.2,0.2,0.4,0.4,0.5,0.7c0,0.1,0.1,0.1,0.1,0.2c0.1,0.2,0.2,0.5,0.3,0.7
							c0,0.1,0,0.1,0,0.2c0,0.2,0.1,0.4,0.1,0.6C142.7,463.7,142.7,463.8,142.7,463.9z"/>
						<path class="st3" d="M139.5,460.3c1.7,0.4,2.9,1.9,2.9,3.7c0,1.9-1.3,3.4-3,3.8c-0.2,0-0.3,0-0.5,0H138v-0.6
							c0.2,0,0.3,0,0.5,0c0.1,0,0.1,0,0.2,0c0.1,0,0.1,0,0.2,0c0,0,0.1,0,0.1,0c0,0,0.1,0,0.1,0c0,0,0.1,0,0.1,0c0,0,0.1,0,0.1,0
							c0,0,0,0,0.1,0c0,0,0.1,0,0.1,0c0.1,0,0.1,0,0.2-0.1c0.1,0,0.1,0,0.1-0.1c0.4-0.2,0.7-0.4,0.9-0.7c0,0,0.1-0.1,0.1-0.1
							c0,0,0,0,0,0c0,0,0,0,0,0c0.5-0.6,0.8-1.3,0.8-2.1c0-1.8-1.4-3.2-3.2-3.2c-0.2,0-0.4,0-0.5,0v-0.6c0,0,0.3,0,0.9,0
							C139.1,460.3,139.3,460.3,139.5,460.3C139.5,460.3,139.5,460.3,139.5,460.3z"/>
						<path class="st1" d="M141.7,464c0,0.8-0.3,1.6-0.8,2.1c0,0,0,0,0,0c-0.6,0.5-1.3,0.8-2.1,0.8c-0.3,0-0.5,0-0.8-0.1v-6
							c0.2,0,0.3,0,0.5,0C140.3,460.8,141.7,462.3,141.7,464z"/>
						<path class="st1" d="M140.9,466.2C140.9,466.2,140.9,466.2,140.9,466.2c-0.1,0.1-0.1,0.1-0.1,0.1c-0.3,0.3-0.6,0.5-0.9,0.7
							c0,0-0.1,0-0.1,0.1c-0.1,0-0.1,0-0.2,0.1c0,0-0.1,0-0.1,0c0,0,0,0-0.1,0c0,0-0.1,0-0.1,0c0,0-0.1,0-0.1,0c0,0-0.1,0-0.1,0
							c0,0-0.1,0-0.1,0c-0.1,0-0.1,0-0.2,0c-0.1,0-0.1,0-0.2,0c-0.2,0-0.4,0-0.5,0v-0.3c0.3,0.1,0.5,0.1,0.8,0.1
							C139.6,467,140.4,466.7,140.9,466.2z"/>
						<path class="st4" d="M140.8,466.3c0,0,0.1-0.1,0.1-0.1C140.9,466.2,140.8,466.3,140.8,466.3z"/>
						<path class="st5" d="M139.7,467c0.1,0,0.1,0,0.1-0.1C139.8,467,139.8,467,139.7,467z"/>
						<path class="st5" d="M139.6,467.1c0.1,0,0.1,0,0.2-0.1C139.7,467,139.6,467.1,139.6,467.1z"/>
						<path class="st5" d="M139.5,467.1c0,0,0.1,0,0.1,0C139.5,467.1,139.5,467.1,139.5,467.1z"/>
						<path class="st5" d="M139.3,467.2c0,0,0.1,0,0.1,0C139.4,467.1,139.3,467.1,139.3,467.2z"/>
						<path class="st4" d="M139.2,467.2C139.2,467.2,139.3,467.2,139.2,467.2C139.3,467.2,139.2,467.2,139.2,467.2z"/>
						<path class="st4" d="M139,467.2c0,0,0.1,0,0.1,0C139.1,467.2,139.1,467.2,139,467.2z"/>
						<path class="st3" d="M139.5,460.3c-0.2,0-0.4-0.1-0.6-0.1c-0.6,0-0.9,0-0.9,0v0.6c-0.6,0.1-1.2,0.4-1.6,0.8c0,0,0,0,0,0
							c0,0,0,0,0,0c-0.2,0.2-0.4,0.4-0.5,0.6c0,0,0,0.1-0.1,0.1c-0.1,0.1-0.1,0.2-0.2,0.4c0,0,0,0.1-0.1,0.1c0,0.1,0,0.1-0.1,0.2
							c0,0,0,0.1,0,0.1c0,0,0,0,0,0c0,0,0,0.1,0,0.1c0,0,0,0.1,0,0.1c0,0,0,0.1,0,0.1c0,0,0,0.1,0,0.2c0,0.1,0,0.1,0,0.2
							c0,0.1,0,0.1,0,0.2c0,1.6,1.2,2.9,2.7,3.2v0.6h0.9c0.2,0,0.3,0,0.5,0c-0.3,0.1-0.5,0.1-0.8,0.1c-2.1,0-3.9-1.7-3.9-3.9
							c0-2.1,1.7-3.9,3.9-3.9C138.9,460.2,139.2,460.2,139.5,460.3z"/>
						<path class="st5" d="M138.7,467.2c0.1,0,0.1,0,0.2,0C138.8,467.2,138.8,467.2,138.7,467.2z"/>
						<path class="st5" d="M138.5,467.2c0.1,0,0.1,0,0.2,0C138.7,467.2,138.6,467.2,138.5,467.2z"/>
						<path class="st1" d="M138,466.9v0.3c-1.5-0.3-2.7-1.6-2.7-3.2c0-0.1,0-0.1,0-0.2c0-0.1,0-0.1,0-0.2c0-0.1,0-0.1,0-0.2
							c0,0,0-0.1,0-0.1c0,0,0-0.1,0-0.1c0,0,0-0.1,0-0.1c0,0,0,0,0,0c0,0,0-0.1,0-0.1c0-0.1,0-0.1,0.1-0.2c0,0,0-0.1,0.1-0.1
							c0.1-0.1,0.1-0.3,0.2-0.4c0,0,0-0.1,0.1-0.1c0.1-0.2,0.3-0.4,0.5-0.6c0,0,0,0,0,0c-0.5,0.6-0.8,1.3-0.8,2.1
							C135.6,465.3,136.6,466.5,138,466.9z"/>
						<path class="st1" d="M138,460.9v6c-1.4-0.4-2.4-1.6-2.4-3.1c0-0.8,0.3-1.6,0.8-2.1C136.9,461.3,137.4,461,138,460.9z"/>
						<path class="st4" d="M136.4,461.6C136.4,461.7,136.4,461.7,136.4,461.6C136.4,461.7,136.4,461.7,136.4,461.6
							C136.4,461.7,136.4,461.7,136.4,461.6z"/>
						<path class="st4" d="M135.9,462.3C135.9,462.3,135.9,462.3,135.9,462.3C135.9,462.3,135.9,462.3,135.9,462.3z"/>
						<path class="st5" d="M135.6,462.7c0,0,0,0.1-0.1,0.1C135.6,462.8,135.6,462.8,135.6,462.7z"/>
						<path class="st5" d="M135.6,462.9c0,0.1,0,0.1-0.1,0.2C135.5,463,135.5,462.9,135.6,462.9z"/>
						<path class="st5" d="M135.5,463c0,0,0,0.1,0,0.1C135.5,463.1,135.5,463.1,135.5,463z"/>
						<path class="st5" d="M135.5,463.2c0,0,0,0.1,0,0.1C135.4,463.3,135.4,463.2,135.5,463.2z"/>
						<path class="st4" d="M135.4,463.3C135.4,463.3,135.4,463.4,135.4,463.3C135.4,463.4,135.4,463.3,135.4,463.3z"/>
						<path class="st4" d="M135.4,463.4c0,0,0,0.1,0,0.1C135.4,463.5,135.4,463.4,135.4,463.4z"/>
						<path class="st5" d="M135.4,463.7c0,0.1,0,0.1,0,0.2C135.4,463.8,135.4,463.7,135.4,463.7z"/>
						<path class="st5" d="M135.3,463.9c0,0.1,0,0.1,0,0.2C135.3,464,135.3,463.9,135.3,463.9z"/>
					</g>
				</g>
			</g>
			<g>
				<path class="st3" d="M139.2,463.6c0,0.7-0.5,1.1-1.3,1.1h-0.6v0.8h-0.7v-2.9h1.3C138.7,462.6,139.2,463,139.2,463.6z
					 M138.5,463.6c0-0.3-0.2-0.5-0.6-0.5h-0.6v1h0.6C138.3,464.2,138.5,464,138.5,463.6z"/>
				<path class="st3" d="M139.7,462.6h0.7v2.9h-0.7V462.6z"/>
			</g>
		</g>
	</g>
</g>
</svg>
