<?xml version="1.0" encoding="UTF-8"?><svg id="Layer_2" xmlns="http://www.w3.org/2000/svg" viewBox="0 0 1824.82 1078.18"><defs><style>.cls-1{fill:#fff;}</style></defs><g id="Layer_1-2"><g><path class="cls-1" d="m1626.16,302.56c-35.47,0-69.08,11.07-96.84,30.54-27.76,19.41-49.67,47.17-61.83,80.55l-185.67,471.94s0,0,0,0c-.18.46-.35.93-.52,1.39l-.06.06-25.33,64.44c-3.94,10.82-5.78,21.75-5.78,32.41,0,50,40.47,94.21,94.45,94.21,70.99,0,134.39-44.39,158.67-111.09l180.57-459.01s0-.01,0-.02l31-78.81c3.93-10.82,5.77-21.75,5.76-32.41-.02-50-40.45-94.21-94.43-94.21Z"/><path class="cls-1" d="m1373.67,306.79c13.13-36.11,19.63-69.96,19.64-101.02.04-125.64-106.06-205.77-308.87-205.77H491.31c-25.61,0-50.42,9.27-69.77,26.08-25.44,22.14-36.8,51-36.8,79.39,0,54.47,41.9,107.27,106.57,107.27h539c62.64,0,95.86,22.7,95.85,61.29,0,7.47-1.25,15.53-3.77,24.13-.69,2.43-1.51,4.87-2.43,7.36-20.51,56.21-79.51,94.17-157.74,94.17h-305.23s0,0,0,0h-355.82c-40.57,0-46.76,15.65-63.92,57.95L48.27,935.39c-8.81,24.17-33.32,85.19-47,119.15C.4,1056.7,0,1058.9,0,1061.04c.02,9.06,7.33,17.14,17.21,17.14,37.21-.06,104.6-.06,131.03-.06h25.38c44.68,0,84.61-27.99,99.91-70.01l114.34-278.98c6.69-17.36,13.74-35.61,21.29-54.25-7.55,18.64-14.6,36.89-21.29,54.25l20.69-50.48c15.24-42.01,55.23-70,99.91-70h353.33c254.17,0,446.05-121,511.88-301.87Z"/><path class="cls-1" d="m1768.84,12.69h0c-14.84-8.05-31.93-12.69-50.47-12.69h-26.66c-44.68,0-84.61,27.99-99.91,70.01-4.46,12.2-6.54,24.54-6.53,36.57,0,19.56,5.52,38.34,15.28,54.53,10.61,17.56,26.14,32.05,45.03,41.15,13.79,6.66,29.38,10.49,46.13,10.49h26.66c44.74,0,84.67-27.99,99.97-70,4.4-12.17,6.49-24.46,6.49-36.45,0-39.23-22.08-75.28-55.98-93.59Z"/></g></g></svg>