<svg xmlns="http://www.w3.org/2000/svg" width="22.769" height="22.769" viewBox="0 0 22.769 22.769">
  <g id="Profile" transform="translate(-73.83 -73.825)">
    <g id="Profile-2" data-name="Profile" transform="translate(73.83 73.825)">
      <path id="Path_5972" data-name="Path 5972" d="M85.214,73.825A11.384,11.384,0,1,0,96.6,85.209,11.384,11.384,0,0,0,85.214,73.825Zm0,4.489a3.44,3.44,0,1,1-3.44,3.44,3.44,3.44,0,0,1,3.44-3.44Zm.032,13.043H80.194c0-3.39,1.845-4.6,3.055-5.681a4.1,4.1,0,0,0,3.93,0c1.21,1.083,3.055,2.29,3.055,5.681Z" transform="translate(-73.83 -73.825)"/>
    </g>
  </g>
</svg>
