<svg id="Group_5817" data-name="Group 5817" xmlns="http://www.w3.org/2000/svg" width="254.524" height="228.825" viewBox="0 0 254.524 228.825">
  <g id="freepik--background-complete--inject-7" transform="translate(215.958 29.189)">
    <path id="Path_633" data-name="Path 633" d="M251.09,33.578a11.877,11.877,0,0,1-3.779,0A11.877,11.877,0,0,1,251.09,33.578Z" transform="translate(-247.311 -33.427)" fill="#fafafa"/>
  </g>
  <g id="freepik--Floor--inject-7" transform="translate(2.547 225.948)">
    <path id="Path_644" data-name="Path 644" d="M253.284,258.9c0,.081-56.054.151-125.178.151S2.917,258.983,2.917,258.9s56.037-.151,125.189-.151S253.284,258.838,253.284,258.9Z" transform="translate(-2.917 -258.751)" fill="#263238"/>
  </g>
  <g id="freepik--Graphics--inject-7" transform="translate(86.401)">
    <rect id="Rectangle_244" data-name="Rectangle 244" width="109.67" height="100.451" transform="translate(2.537 6.044)" fill="#fafafa"/>
    <path id="Path_645" data-name="Path 645" d="M211.769,107.622H101.518V6.6H211.769Zm-109.67-.581H211.188V7.182H102.1Z" transform="translate(-99.271 -0.837)" fill="#263238"/>
    <rect id="Rectangle_245" data-name="Rectangle 245" width="114.193" height="6.403" fill="#263238"/>
    <path id="Path_646" data-name="Path 646" d="M102.136,7.333,211.313,18.05l-.055-10.717Z" transform="translate(-99.35 -0.93)" fill="#e0e0e0"/>
    <rect id="Rectangle_246" data-name="Rectangle 246" width="3.681" height="41.099" transform="translate(19.594 39.909)" fill="#008083"/>
    <rect id="Rectangle_247" data-name="Rectangle 247" width="3.681" height="27.142" transform="translate(26.701 53.866)" fill="#008083"/>
    <rect id="Rectangle_248" data-name="Rectangle 248" width="3.681" height="36.199" transform="translate(33.807 45.017)" fill="#008083"/>
    <rect id="Rectangle_249" data-name="Rectangle 249" width="3.681" height="39.508" transform="translate(40.907 41.494)" fill="#008083"/>
    <rect id="Rectangle_250" data-name="Rectangle 250" width="3.681" height="26.306" transform="translate(48.013 54.701)" fill="#008083"/>
    <rect id="Rectangle_251" data-name="Rectangle 251" width="3.681" height="21.144" transform="translate(55.12 59.863)" fill="#008083"/>
    <rect id="Rectangle_252" data-name="Rectangle 252" width="3.681" height="36.878" transform="translate(62.22 44.129)" fill="#008083"/>
    <rect id="Rectangle_253" data-name="Rectangle 253" width="3.681" height="30.23" transform="translate(69.326 50.777)" fill="#008083"/>
    <rect id="Rectangle_254" data-name="Rectangle 254" width="3.681" height="35.543" transform="translate(76.432 45.464)" fill="#008083"/>
    <rect id="Rectangle_255" data-name="Rectangle 255" width="3.681" height="24.215" transform="translate(83.533 56.792)" fill="#008083"/>
    <rect id="Rectangle_256" data-name="Rectangle 256" width="3.681" height="28.825" transform="translate(90.639 52.182)" fill="#008083"/>
    <path id="Path_647" data-name="Path 647" d="M194.132,56.287a.961.961,0,0,1-.238-.041l-.691-.14a10.463,10.463,0,0,0-1.126-.18,13.645,13.645,0,0,0-1.545-.127,17.8,17.8,0,0,0-4.233.366,18.662,18.662,0,0,0-5.225,1.986,21.486,21.486,0,0,0-5.312,4.233,39.949,39.949,0,0,0-4.482,6.409,38.637,38.637,0,0,1-5.033,7.112,13.164,13.164,0,0,1-3.709,2.775,7.955,7.955,0,0,1-2.288.7,7.388,7.388,0,0,1-2.421-.087,9.785,9.785,0,0,1-4.221-2.212,19.626,19.626,0,0,1-3.13-3.406A73.49,73.49,0,0,1,146,66.2a30.979,30.979,0,0,0-4.476-6.386,12.027,12.027,0,0,0-2.769-2.177,11.488,11.488,0,0,0-1.5-.726,11.789,11.789,0,0,0-1.527-.453,11.025,11.025,0,0,0-5.544.157,12.472,12.472,0,0,0-3.808,1.829,14.15,14.15,0,0,0-2,1.794l-.465.524c-.1.122-.162.18-.169.175a1.1,1.1,0,0,1,.145-.191l.447-.546a12.792,12.792,0,0,1,1.974-1.846,12.412,12.412,0,0,1,3.832-1.9,11.188,11.188,0,0,1,5.643-.2,11.647,11.647,0,0,1,5.922,3.391,30.913,30.913,0,0,1,4.541,6.451,73.343,73.343,0,0,0,4.476,7.431,19.379,19.379,0,0,0,3.082,3.362,9.7,9.7,0,0,0,4.064,2.148,7.048,7.048,0,0,0,4.525-.581,12.941,12.941,0,0,0,3.623-2.707,38.591,38.591,0,0,0,5-7.054,40.315,40.315,0,0,1,4.535-6.451,21.531,21.531,0,0,1,5.4-4.25,18.632,18.632,0,0,1,5.312-1.968,17.532,17.532,0,0,1,4.273-.313,13.285,13.285,0,0,1,1.556.157,9.583,9.583,0,0,1,1.12.209l.685.169A1.443,1.443,0,0,1,194.132,56.287Z" transform="translate(-102.088 -7.059)" fill="#263238"/>
    <path id="Path_648" data-name="Path 648" d="M116.727,88.446c-.087,0-.157-11.722-.157-26.172s.07-26.178.157-26.178.151,11.722.151,26.178S116.806,88.446,116.727,88.446Z" transform="translate(-101.179 -4.576)" fill="#263238"/>
    <path id="Path_649" data-name="Path 649" d="M197.36,96.024c0,.081-17.457.151-38.985.151s-38.985-.07-38.985-.151,17.452-.151,38.985-.151S197.36,95.948,197.36,96.024Z" transform="translate(-101.537 -12.154)" fill="#263238"/>
    <path id="Path_650" data-name="Path 650" d="M126.6,99.725a24.687,24.687,0,0,1-5.458,0A24.686,24.686,0,0,1,126.6,99.725Z" transform="translate(-101.759 -12.624)" fill="#263238"/>
    <path id="Path_651" data-name="Path 651" d="M136.827,99.924a35.288,35.288,0,0,1-6.514,0A35.138,35.138,0,0,1,136.827,99.924Z" transform="translate(-102.922 -12.649)" fill="#263238"/>
    <path id="Path_652" data-name="Path 652" d="M145.669,99.924a35.411,35.411,0,0,1-6.526,0A35.414,35.414,0,0,1,145.669,99.924Z" transform="translate(-104.041 -12.649)" fill="#263238"/>
    <path id="Path_653" data-name="Path 653" d="M154.518,99.924a35.411,35.411,0,0,1-6.526,0A35.414,35.414,0,0,1,154.518,99.924Z" transform="translate(-105.163 -12.649)" fill="#263238"/>
    <path id="Path_654" data-name="Path 654" d="M163.367,99.924a35.411,35.411,0,0,1-6.526,0A35.414,35.414,0,0,1,163.367,99.924Z" transform="translate(-106.285 -12.649)" fill="#263238"/>
    <path id="Path_655" data-name="Path 655" d="M172.216,99.927a35.414,35.414,0,0,1-6.526,0A35.262,35.262,0,0,1,172.216,99.927Z" transform="translate(-107.407 -12.649)" fill="#263238"/>
    <path id="Path_656" data-name="Path 656" d="M181.065,99.927a35.325,35.325,0,0,1-6.532,0A35.328,35.328,0,0,1,181.065,99.927Z" transform="translate(-108.528 -12.649)" fill="#263238"/>
    <path id="Path_657" data-name="Path 657" d="M189.914,99.927a35.325,35.325,0,0,1-6.532,0A35.328,35.328,0,0,1,189.914,99.927Z" transform="translate(-109.65 -12.649)" fill="#263238"/>
    <path id="Path_658" data-name="Path 658" d="M198.753,99.927a35.259,35.259,0,0,1-6.526,0A35.262,35.262,0,0,1,198.753,99.927Z" transform="translate(-110.771 -12.649)" fill="#263238"/>
    <path id="Path_659" data-name="Path 659" d="M207.607,99.927a35.259,35.259,0,0,1-6.526,0A35.262,35.262,0,0,1,207.607,99.927Z" transform="translate(-111.893 -12.649)" fill="#263238"/>
    <path id="Path_660" data-name="Path 660" d="M150.032,68.017c0-.041.331.07.437.524a1.1,1.1,0,0,1-.081.786.689.689,0,0,1-.395.331.713.713,0,0,1-.546-.064.923.923,0,0,1-.471-.865.939.939,0,0,1,.377-.691.58.58,0,0,1,.517-.127c.122.035.169.1.157.11a.613.613,0,0,0-.54.18.785.785,0,0,0-.232.54.668.668,0,0,0,.331.581.406.406,0,0,0,.563-.111h0l.017-.027a1.038,1.038,0,0,0,.11-.581C150.225,68.221,150.009,68.074,150.032,68.017Z" transform="translate(-105.288 -8.607)" fill="#263238"/>
    <path id="Path_661" data-name="Path 661" d="M190.777,56.719a.33.33,0,0,1,.238,0,.9.9,0,0,1,.482.418,1.159,1.159,0,0,1,.116.947.992.992,0,0,1-.923.737.794.794,0,0,1-.581-.307,1.278,1.278,0,0,1-.25-.524,1.223,1.223,0,0,1,.151-.94c.331-.471.743-.447.732-.412a1.273,1.273,0,0,0-.546.517,1.06,1.06,0,0,0-.087.726c.075.279.29.581.581.581a.748.748,0,0,0,.651-.524,1.05,1.05,0,0,0-.046-.761A1.011,1.011,0,0,0,190.777,56.719Z" transform="translate(-110.466 -7.178)" fill="#263238"/>
    <path id="Path_662" data-name="Path 662" d="M191.558,34.335c-.087,0-.151-.2-.151-.437s.064-.437.151-.437.151.191.151.437S191.639,34.335,191.558,34.335Z" transform="translate(-110.667 -4.242)" fill="#263238"/>
    <path id="Path_663" data-name="Path 663" d="M191.558,38.556c-.087,0-.151-.43-.151-.952s.064-.961.151-.961.151.43.151.961S191.639,38.556,191.558,38.556Z" transform="translate(-110.667 -4.646)" fill="#263238"/>
    <path id="Path_664" data-name="Path 664" d="M191.558,42.931c-.087,0-.151-.424-.151-.952s.064-.961.151-.961.151.43.151.961S191.639,42.931,191.558,42.931Z" transform="translate(-110.667 -5.2)" fill="#263238"/>
    <path id="Path_665" data-name="Path 665" d="M191.558,47.312c-.087,0-.151-.43-.151-.961s.064-.952.151-.952.151.424.151.952S191.639,47.312,191.558,47.312Z" transform="translate(-110.667 -5.756)" fill="#263238"/>
    <path id="Path_666" data-name="Path 666" d="M191.558,51.687c-.087,0-.151-.43-.151-.952s.064-.961.151-.961.151.43.151.961S191.639,51.687,191.558,51.687Z" transform="translate(-110.667 -6.31)" fill="#263238"/>
    <path id="Path_667" data-name="Path 667" d="M191.558,55.023c-.087,0-.151-.191-.151-.437s.064-.437.151-.437.151.2.151.437S191.639,55.023,191.558,55.023Z" transform="translate(-110.667 -6.865)" fill="#263238"/>
    <path id="Path_668" data-name="Path 668" d="M217.645,26.014c0,.087-6.032.151-13.481.151s-13.481-.064-13.481-.151,6.032-.151,13.481-.151S217.645,25.933,217.645,26.014Z" transform="translate(-110.575 -3.279)" fill="#263238"/>
    <path id="Path_669" data-name="Path 669" d="M208.5,21.693c0,.081-3.884.151-8.674.151s-8.674-.07-8.674-.151,3.884-.151,8.674-.151S208.5,21.612,208.5,21.693Z" transform="translate(-110.634 -2.731)" fill="#263238"/>
    <g id="Group_26" data-name="Group 26" transform="translate(19.594 39.909)" opacity="0.3">
      <rect id="Rectangle_257" data-name="Rectangle 257" width="3.681" height="41.099" fill="#fff"/>
    </g>
    <g id="Group_27" data-name="Group 27" transform="translate(26.701 53.866)" opacity="0.3">
      <rect id="Rectangle_258" data-name="Rectangle 258" width="3.681" height="27.142" fill="#fff"/>
    </g>
    <g id="Group_28" data-name="Group 28" transform="translate(33.807 45.017)" opacity="0.3">
      <rect id="Rectangle_259" data-name="Rectangle 259" width="3.681" height="36.199" fill="#fff"/>
    </g>
    <g id="Group_29" data-name="Group 29" transform="translate(40.907 41.494)" opacity="0.3">
      <rect id="Rectangle_260" data-name="Rectangle 260" width="3.681" height="39.508" fill="#fff"/>
    </g>
    <g id="Group_30" data-name="Group 30" transform="translate(48.013 54.701)" opacity="0.3">
      <rect id="Rectangle_261" data-name="Rectangle 261" width="3.681" height="26.306" fill="#fff"/>
    </g>
    <g id="Group_31" data-name="Group 31" transform="translate(55.12 59.863)" opacity="0.3">
      <rect id="Rectangle_262" data-name="Rectangle 262" width="3.681" height="21.144" fill="#fff"/>
    </g>
    <g id="Group_32" data-name="Group 32" transform="translate(62.22 44.129)" opacity="0.3">
      <rect id="Rectangle_263" data-name="Rectangle 263" width="3.681" height="36.878" fill="#fff"/>
    </g>
    <g id="Group_33" data-name="Group 33" transform="translate(69.326 50.777)" opacity="0.3">
      <rect id="Rectangle_264" data-name="Rectangle 264" width="3.681" height="30.23" fill="#fff"/>
    </g>
    <g id="Group_34" data-name="Group 34" transform="translate(76.432 45.464)" opacity="0.3">
      <rect id="Rectangle_265" data-name="Rectangle 265" width="3.681" height="35.543" fill="#fff"/>
    </g>
    <g id="Group_35" data-name="Group 35" transform="translate(83.533 56.792)" opacity="0.3">
      <rect id="Rectangle_266" data-name="Rectangle 266" width="3.681" height="24.215" fill="#fff"/>
    </g>
    <g id="Group_36" data-name="Group 36" transform="translate(90.639 52.182)" opacity="0.3">
      <rect id="Rectangle_267" data-name="Rectangle 267" width="3.681" height="28.825" fill="#fff"/>
    </g>
  </g>
  <g id="freepik--character-3--inject-7" transform="translate(158.876 70.614)">
    <rect id="Rectangle_268" data-name="Rectangle 268" width="4.018" height="48.136" transform="translate(62.915 99.918)" fill="#455a64"/>
    <path id="Path_670" data-name="Path 670" d="M223.74,196.878h57.476a6.235,6.235,0,0,0-6.234-6.236H229.975a6.235,6.235,0,0,0-6.236,6.234h0Z" transform="translate(-187.241 -94.783)" fill="#455a64"/>
    <path id="Path_671" data-name="Path 671" d="M251.823,197.907a42.972,42.972,0,0,0,7.048,0A41.116,41.116,0,0,0,251.823,197.907Z" transform="translate(-190.801 -95.685)" fill="#263238"/>
    <path id="Path_672" data-name="Path 672" d="M236.166,252.889h.581a17.1,17.1,0,0,1,34.19,0h.581a17.667,17.667,0,0,0-35.328,0Z" transform="translate(-188.816 -100.476)" fill="#455a64"/>
    <path id="Path_673" data-name="Path 673" d="M273.258,256.024a2.648,2.648,0,1,0,2.648-2.648h0A2.653,2.653,0,0,0,273.258,256.024Z" transform="translate(-193.518 -102.736)" fill="#263238"/>
    <path id="Path_674" data-name="Path 674" d="M233.307,255.615a2.65,2.65,0,1,0,0-.006Z" transform="translate(-188.454 -102.684)" fill="#455a64"/>
    <path id="Path_675" data-name="Path 675" d="M236.359,250.392c0,.081,7.684.151,17.168.151s17.168-.07,17.168-.151-7.684-.145-17.168-.145S236.359,250.311,236.359,250.392Z" transform="translate(-188.84 -102.34)" fill="#455a64"/>
    <path id="Path_676" data-name="Path 676" d="M286.292,140.17v35.414A8.418,8.418,0,0,1,277.875,184H250.587l3.709-43.851a3.755,3.755,0,0,1,3.751-3.755h24.511a3.755,3.755,0,0,1,3.733,3.768Z" transform="translate(-190.644 -87.906)" fill="#455a64"/>
    <path id="Path_677" data-name="Path 677" d="M280.419,184.013a.416.416,0,0,1,.064-.1l.2-.29c.186-.25.441-.627.754-1.126a18.584,18.584,0,0,0,2.021-4.522,18.172,18.172,0,0,0,.679-3.35,34.44,34.44,0,0,0,.1-3.936v-9.057c0-6.416.035-12.225.046-16.459,0-2.084.029-3.779.041-4.987,0-.581,0-1.022.029-1.353a3.107,3.107,0,0,1,.029-.476,2.868,2.868,0,0,1,0,.476c0,.331,0,.786.029,1.353,0,1.208,0,2.9.041,4.987,0,4.238.029,10.042.046,16.459v9.057a34.836,34.836,0,0,1-.14,3.959,18.331,18.331,0,0,1-2.85,7.9,9.672,9.672,0,0,1-.8,1.1A2.246,2.246,0,0,1,280.419,184.013Z" transform="translate(-194.426 -88.154)" fill="#263238"/>
    <path id="Path_678" data-name="Path 678" d="M263.392,190.655a5.4,5.4,0,0,1,.873-.046l2.363-.029h7.808c1.527,0,2.979,0,4.3.052a13.679,13.679,0,0,1,3.483.383,5.412,5.412,0,0,1,2.107,1.1,3.347,3.347,0,0,1,.458.458.717.717,0,0,1,.14.18,7.627,7.627,0,0,0-.668-.552,5.75,5.75,0,0,0-2.091-1,14.862,14.862,0,0,0-3.483-.313l-4.3-.029c-3.048,0-5.806-.052-7.8-.093l-2.363-.064A4.835,4.835,0,0,1,263.392,190.655Z" transform="translate(-192.268 -94.775)" fill="#263238"/>
    <path id="Path_679" data-name="Path 679" d="M233.866,97.761a23.238,23.238,0,0,0-1.561,7.617c0,1.2.221,2.5-.372,3.542a11.251,11.251,0,0,1-1.712,1.823,5.376,5.376,0,0,0-.952,5.806,3.626,3.626,0,0,0,1.376,1.637,5.219,5.219,0,0,0,2.4.581,40.449,40.449,0,0,0,8.29-.377,5.266,5.266,0,0,0,3.536-1.572,5.185,5.185,0,0,0,.737-3.406,32.447,32.447,0,0,0-3.257-12.987" transform="translate(-187.883 -83.008)" fill="#263238"/>
    <path id="Path_680" data-name="Path 680" d="M254.6,94.53a2.049,2.049,0,1,1-.267,3.8,3.3,3.3,0,0,1,3.231,1.98,17.04,17.04,0,0,1,1.08,3.9,5.237,5.237,0,0,0,2.043,3.379c1.155.7,2.659.7,3.367,1.771s.093,2.635.4,3.936,1.5,2.154,2.549,2.969,2.131,1.9,2.073,3.231a3.026,3.026,0,0,1-1.817,2.45,7.893,7.893,0,0,1-3.117.581,45.874,45.874,0,0,1-15.589-2.008,4.234,4.234,0,0,1-2.154-1.2c-.8-.987-.611-2.421-.383-3.668a83.036,83.036,0,0,1,2.769-11.768,27.887,27.887,0,0,1,5.98-10.4" transform="translate(-190.039 -82.466)" fill="#263238"/>
    <path id="Path_681" data-name="Path 681" d="M256.708,135.424h6.2l-2.2-11.06c-1.626-9.046-14.311-9.667-14.311-9.667l-9.955-.134s-7.379-.993-11.931,4.139c-.934,1.057-1.916,2.148-2.9,3.222l-10.8,11.3-1.161-14.172L200.4,120.5l1.289,17.795a7.3,7.3,0,0,0,4.89,6.311c2,.633,4.035.075,6.067-.934,5.388-2.683,15.484-11.228,16.256-11.885a12.932,12.932,0,0,0-1.4,5.173c0,2.95,3.025,5.152,3.025,5.152l.975,8.941-3.124,14.485,32.512-1.31a32.351,32.351,0,0,0-4.79-13.678Zm-27.741-3.706a.891.891,0,0,1-.1-.215l.349-.25a4.055,4.055,0,0,0-.244.465Z" transform="translate(-184.282 -85.129)" fill="#008083"/>
    <path id="Path_682" data-name="Path 682" d="M246.572,166.061a57.265,57.265,0,0,1-5.26,3.193c-2.322,1.1-2.415.894-2.5.581-.244-.772,3.977-2.084,2.9-2.322s-4.958,2.194-5.173,1.376c-.285-1.068,4.157-2.358,4.529-2.5s.169-.668-.157-.524c-.471.2-5.423,2.206-5.713,1.161-.162-.581.917-.743.917-.743s4.79-1.539,4.645-2.032-3,.313-3.93.656-1.475.035-1.3-.493c.122-.36,2.969-1.469,3.9-1.788s3.518-1.161,1.892-1.742a4.432,4.432,0,0,1-2.729-2.172c-.076-.477.581-.743.952-.36a6.487,6.487,0,0,0,1.5.917,4.087,4.087,0,0,0,1.347.4c.406.052.767.081,1.092.1l3.454.256,1.742,4.575Z" transform="translate(-188.691 -90.667)" fill="#ffbe9d"/>
    <path id="Path_683" data-name="Path 683" d="M262.965,119.435a12.193,12.193,0,0,1,4.093,6.12c.767,2.514,2.969,11.031,4.586,17.336a8.129,8.129,0,0,1-5.312,9.713l-18.294,9.867-2.99-7.733L261.1,144.212l-3.878-14.369a10.235,10.235,0,0,1-.116-6.543C257.9,121.171,259.589,119.029,262.965,119.435Z" transform="translate(-189.942 -85.75)" fill="#008083"/>
    <path id="Path_684" data-name="Path 684" d="M200.974,120.016l-1.109-3.553c-.517-2.543,1.492-2.955,1.829-3.332a5.288,5.288,0,0,1,1.794-1.445l-.162-1.028a23.939,23.939,0,0,1-.581-3.332c0-.611,1.12-.656,1.278-.064.36,1.341.993,3.617,1.33,4.459.447,1.1,1.434,3.989,2.473,2.2a9.009,9.009,0,0,0,1.109-3.406.672.672,0,0,1,1.243.507l-.007.017c-.1.511-.169,1.411-.488,2.635-.145.546-.447,1.214-.581,1.746-.18.633-.256,2.99-.355,3.483Z" transform="translate(-184.203 -84.159)" fill="#ffbe9d"/>
    <path id="Path_685" data-name="Path 685" d="M201.61,114.828a8.7,8.7,0,0,1,.279,1.048,7.762,7.762,0,0,0,.406,1.085,2.135,2.135,0,0,1,.226.708.744.744,0,0,1-.418.767.893.893,0,0,1-.842-.169,1.963,1.963,0,0,1-.511-.546,3.18,3.18,0,0,1-.441-1.161,2.821,2.821,0,0,1-.07-1.1,6.593,6.593,0,0,1,.279,1.048,3.283,3.283,0,0,0,.465,1.028,1.8,1.8,0,0,0,.447.465.652.652,0,0,0,.581.127.458.458,0,0,0,.232-.471,2.056,2.056,0,0,0-.186-.611,6,6,0,0,1-.36-1.161A2.556,2.556,0,0,1,201.61,114.828Z" transform="translate(-184.258 -85.172)" fill="#eb996e"/>
    <path id="Path_686" data-name="Path 686" d="M203.4,113.478a6.974,6.974,0,0,1,.524,1.347c.151.458.313.961.493,1.492.081.285.191.581.267.9a1.026,1.026,0,0,1,0,.581.853.853,0,0,1-.4.453,1.064,1.064,0,0,1-1.092-.058,1.75,1.75,0,0,1-.644-.754,11.344,11.344,0,0,1-.471-1.515,6.774,6.774,0,0,1-.313-1.416,7.027,7.027,0,0,1,.517,1.353c.157.418.279.952.517,1.451a1.567,1.567,0,0,0,.552.633.772.772,0,0,0,.786.041.581.581,0,0,0,.279-.691c-.058-.285-.169-.581-.244-.873l-.437-1.51A6.909,6.909,0,0,1,203.4,113.478Z" transform="translate(-184.455 -85.001)" fill="#eb996e"/>
    <path id="Path_687" data-name="Path 687" d="M210.761,139.2a5.77,5.77,0,0,1,.581-1.742,5.675,5.675,0,0,1,.853-1.631,5.772,5.772,0,0,1-.581,1.746A5.661,5.661,0,0,1,210.761,139.2Z" transform="translate(-185.595 -87.834)" fill="#263238"/>
    <path id="Path_688" data-name="Path 688" d="M226.263,136.276a10.039,10.039,0,0,1-1.631-.383l-1.742-.493a9.85,9.85,0,0,1-2.084-.836,4.615,4.615,0,0,1-1.659-1.55,3.317,3.317,0,0,1-.493-1.782,11.05,11.05,0,0,0-.041-1.214,2.954,2.954,0,0,1-.064-.437,1.246,1.246,0,0,1,.18.418,6.468,6.468,0,0,1,.14,1.223,3.207,3.207,0,0,0,.511,1.649,4.571,4.571,0,0,0,1.579,1.434,11.216,11.216,0,0,0,2.015.836l1.742.552A9.33,9.33,0,0,1,226.263,136.276Z" transform="translate(-186.582 -87.042)" fill="#e0e0e0"/>
    <path id="Path_689" data-name="Path 689" d="M257.873,161.959c-.052,0,0-.524-.145-1.33a8.126,8.126,0,0,0-1.283-2.9c-.349-.524-.708-1-1.048-1.446a8.525,8.525,0,0,0-.918-1.1,1.39,1.39,0,0,0-.836-.372c-.221,0-.342.035-.349,0s.1-.11.349-.134a1.427,1.427,0,0,1,.969.325,7.334,7.334,0,0,1,1,1.1c.349.43.72.912,1.08,1.446a7.348,7.348,0,0,1,1.237,3.042A2.764,2.764,0,0,1,257.873,161.959Z" transform="translate(-190.988 -90.223)" fill="#e0e0e0"/>
    <path id="Path_690" data-name="Path 690" d="M264.114,126.359a2.479,2.479,0,0,1-.453-.128l-1.278-.406a15.565,15.565,0,0,0-4.807-.842,7.614,7.614,0,0,0-3.24.761,15.647,15.647,0,0,0-3.2,2.176,36.729,36.729,0,0,1-3.391,2.694,8.986,8.986,0,0,1-4.389,1.585,5.1,5.1,0,0,1-2.358-.471,6.083,6.083,0,0,1-1.863-1.4c-1.039-1.115-1.776-2.374-2.613-3.454a9.981,9.981,0,0,0-5.951-3.814,10.539,10.539,0,0,0-4.848.07c-1.12.3-1.69.621-1.7.581a7.031,7.031,0,0,1,1.672-.691,10.224,10.224,0,0,1,4.923-.169,10.446,10.446,0,0,1,3.2,1.223,9.807,9.807,0,0,1,2.9,2.62c.853,1.1,1.6,2.352,2.607,3.426a5.11,5.11,0,0,0,3.994,1.742,8.7,8.7,0,0,0,4.238-1.533,38,38,0,0,0,3.378-2.659,15.7,15.7,0,0,1,3.263-2.189,7.841,7.841,0,0,1,3.344-.749,14.944,14.944,0,0,1,4.848.947c.552.186.975.349,1.265.458A2.42,2.42,0,0,1,264.114,126.359Z" transform="translate(-187.277 -86.161)" fill="#e0e0e0"/>
    <path id="Path_691" data-name="Path 691" d="M257.97,143.874a6.234,6.234,0,0,0-1.048-.238,5.8,5.8,0,0,0-2.821.651,33.256,33.256,0,0,1-4.035,1.746,16.66,16.66,0,0,1-5.353.786,16.085,16.085,0,0,1-5.318-1.01,16.446,16.446,0,0,1-3.9-2.078,15.189,15.189,0,0,1-2.235-1.945,7.433,7.433,0,0,1-.524-.611,1.261,1.261,0,0,1-.169-.232s.279.279.786.761a18.525,18.525,0,0,0,2.27,1.876,16.929,16.929,0,0,0,3.873,1.991,16.025,16.025,0,0,0,5.225.961,16.644,16.644,0,0,0,5.26-.737,36.165,36.165,0,0,0,4.035-1.7,5.77,5.77,0,0,1,2.9-.581A2.423,2.423,0,0,1,257.97,143.874Z" transform="translate(-188.36 -88.482)" fill="#e0e0e0"/>
    <path id="Path_692" data-name="Path 692" d="M272.782,141.5a1.115,1.115,0,0,1-.145.441,5.215,5.215,0,0,1-.644,1.074,5.915,5.915,0,0,1-3.443,2.218,10.076,10.076,0,0,1-4.116-.1,7.338,7.338,0,0,1-1.643-.441,13.739,13.739,0,0,1,1.677.232,11.18,11.18,0,0,0,4.012,0,6.1,6.1,0,0,0,3.35-2.056A12.385,12.385,0,0,0,272.782,141.5Z" transform="translate(-192.191 -88.553)" fill="#e0e0e0"/>
    <path id="Path_693" data-name="Path 693" d="M256.882,129.947a1.412,1.412,0,0,1,.081.279c.052.2.116.476.2.818l.761,3.124c.668,2.683,1.649,6.514,2.9,11.107v.087l-.075.052-13.527,9.33-2.142,1.475.052-.18c1.068,2.676,2.09,5.225,3.042,7.641l-.191-.075c5.609-2.769,10.335-5.3,13.661-7.129l3.878-2.148,1.033-.581a1.847,1.847,0,0,1,.366-.18,3.137,3.137,0,0,1-.342.221l-.993.621c-.888.524-2.189,1.289-3.838,2.223-3.3,1.87-8.018,4.436-13.622,7.229l-.134.07-.058-.145-3.056-7.635-.055-.111.1-.07,2.137-1.469,13.556-9.289-.052.14c-1.208-4.6-2.154-8.441-2.775-11.135-.313-1.353-.546-2.415-.7-3.144-.07-.349-.122-.621-.162-.83A1.532,1.532,0,0,1,256.882,129.947Z" transform="translate(-189.914 -87.089)" fill="#263238"/>
    <path id="Path_694" data-name="Path 694" d="M267.423,148.849a14.555,14.555,0,0,0-2.119-.987,6.552,6.552,0,0,0-1.6-.307c-.424,0-.685,0-.7-.046s.25-.14.691-.169a4.724,4.724,0,0,1,1.7.232A3.683,3.683,0,0,1,267.423,148.849Z" transform="translate(-192.218 -89.293)" fill="#263238"/>
    <path id="Path_695" data-name="Path 695" d="M189.37,220.023l2.4-4.987,9.371,4.441-3.443,7.335-.581-.238c-2.653-1.085-13.411-5.69-14.892-7.036C180.556,218.043,189.37,220.023,189.37,220.023Z" transform="translate(-181.951 -97.876)" fill="#008083"/>
    <g id="Group_37" data-name="Group 37" transform="translate(12.393 125.727)" opacity="0.5">
      <path id="Path_696" data-name="Path 696" d="M196.134,226.369a3.638,3.638,0,0,1,2.142-1.429,3.48,3.48,0,0,1,2.514.355l-1.236,2.624Z" transform="translate(-196.134 -224.846)" fill="#fff"/>
    </g>
    <g id="Group_38" data-name="Group 38" transform="translate(0 121.116)" opacity="0.4">
      <path id="Path_697" data-name="Path 697" d="M184.988,219.77s-3.17-.524-3.042.1,10.833,5.69,15.745,7.51l.087-.221-12.534-5.806S185.521,220.051,184.988,219.77Z" transform="translate(-181.942 -219.566)" fill="#fff"/>
    </g>
    <path id="Path_698" data-name="Path 698" d="M197.935,227.256a.711.711,0,0,1-.169-.058l-.476-.191-1.742-.732c-1.463-.627-3.483-1.527-5.676-2.566s-4.163-2.021-5.579-2.752l-1.672-.873-.447-.244-.157-.093a.569.569,0,0,1,.169.07l.458.226,1.69.842c1.422.708,3.4,1.677,5.6,2.717s4.2,1.945,5.649,2.6l1.742.767.465.215Z" transform="translate(-181.951 -98.473)" fill="#263238"/>
    <path id="Path_699" data-name="Path 699" d="M185.62,221.527a4.071,4.071,0,0,0,.064-.961,4.3,4.3,0,0,0-.267-.923A1.671,1.671,0,0,1,185.62,221.527Z" transform="translate(-182.382 -98.46)" fill="#263238"/>
    <path id="Path_700" data-name="Path 700" d="M188.982,221.354a2.065,2.065,0,1,1,0-.517A1.078,1.078,0,0,1,188.982,221.354Z" transform="translate(-182.313 -98.382)" fill="#263238"/>
    <path id="Path_701" data-name="Path 701" d="M190.613,221.5a1.591,1.591,0,0,1-.226-.377c-.093-.221-.14-.412-.11-.424s.134.151.226.377S190.645,221.5,190.613,221.5Z" transform="translate(-182.997 -98.594)" fill="#263238"/>
    <path id="Path_702" data-name="Path 702" d="M191.55,220.827a1.238,1.238,0,0,1-.517-.175,1.307,1.307,0,0,1-.471-.279c0-.035.25.041.524.169S191.562,220.789,191.55,220.827Z" transform="translate(-183.035 -98.551)" fill="#263238"/>
    <path id="Path_703" data-name="Path 703" d="M192.051,220.224a1.12,1.12,0,0,1-.621-.1,1.069,1.069,0,0,1-.528-.337,3.823,3.823,0,0,1,.581.221A2.759,2.759,0,0,1,192.051,220.224Z" transform="translate(-183.078 -98.477)" fill="#263238"/>
    <path id="Path_704" data-name="Path 704" d="M189.438,220.361a1.707,1.707,0,0,1-.581-.285,4.175,4.175,0,0,1-.581-.447,2.01,2.01,0,0,1-.3-.325.341.341,0,0,1-.058-.256.263.263,0,0,1,.2-.2,1.213,1.213,0,0,1,1.214.969,1.147,1.147,0,0,1,0,.493c0,.116-.052.175-.058.169a2.047,2.047,0,0,0-.035-.644,1.239,1.239,0,0,0-.355-.581,1.036,1.036,0,0,0-.743-.29c-.128,0-.145.151-.07.267a2.167,2.167,0,0,0,.272.307,4.365,4.365,0,0,0,.546.453C189.217,220.233,189.444,220.344,189.438,220.361Z" transform="translate(-182.699 -98.359)" fill="#263238"/>
    <path id="Path_705" data-name="Path 705" d="M189.488,220.4a.649.649,0,0,1,.127-.453,1.071,1.071,0,0,1,.377-.36.65.65,0,0,1,.644-.07.262.262,0,0,1,.052.366h0a.738.738,0,0,1-.226.221,2.055,2.055,0,0,1-.458.226.873.873,0,0,1-.458.081s.169-.052.424-.162a2.193,2.193,0,0,0,.424-.244c.145-.087.307-.29.169-.389a.611.611,0,0,0-.517.07,1.1,1.1,0,0,0-.355.313A2.527,2.527,0,0,0,189.488,220.4Z" transform="translate(-182.898 -98.437)" fill="#263238"/>
    <path id="Path_706" data-name="Path 706" d="M200.79,225.213a4.059,4.059,0,0,0-.7-.3,3.368,3.368,0,0,0-1.806-.093,3.312,3.312,0,0,0-1.579.888,7.431,7.431,0,0,0-.493.581.7.7,0,0,1,.093-.186,2.551,2.551,0,0,1,.337-.458,3.154,3.154,0,0,1,1.614-.947,3.211,3.211,0,0,1,1.863.127,2.738,2.738,0,0,1,.511.262A1.392,1.392,0,0,0,200.79,225.213Z" transform="translate(-183.751 -99.09)" fill="#263238"/>
    <path id="Path_707" data-name="Path 707" d="M202.166,220.288a19.446,19.446,0,0,1-.83,1.962,18.931,18.931,0,0,1-.947,1.91,19.445,19.445,0,0,1,.83-1.962A16.522,16.522,0,0,1,202.166,220.288Z" transform="translate(-184.28 -98.542)" fill="#263238"/>
    <path id="Path_708" data-name="Path 708" d="M194.877,224.757a5.973,5.973,0,0,1-1.434-.511,5.825,5.825,0,0,1-1.318-.761c0-.029.581.3,1.37.644A8.821,8.821,0,0,1,194.877,224.757Z" transform="translate(-183.233 -98.947)" fill="#263238"/>
    <path id="Path_709" data-name="Path 709" d="M197.3,225.9c0,.035-.11.1-.238.221s-.221.215-.256.2,0-.169.175-.3S197.3,225.869,197.3,225.9Z" transform="translate(-183.825 -99.251)" fill="#263238"/>
    <path id="Path_710" data-name="Path 710" d="M198.565,225.286c0,.035-.1.1-.238.157s-.272.07-.285.035.1-.1.238-.157S198.554,225.257,198.565,225.286Z" transform="translate(-183.983 -99.173)" fill="#263238"/>
    <path id="Path_711" data-name="Path 711" d="M199.895,225.351c0,.029-.145,0-.3-.046a.635.635,0,0,0-.313,0,.384.384,0,0,1,.325-.1C199.8,225.224,199.918,225.329,199.895,225.351Z" transform="translate(-184.14 -99.164)" fill="#263238"/>
    <path id="Path_712" data-name="Path 712" d="M200.852,225.536c0,.035-.081.058-.169.046s-.169-.041-.162-.07.075-.058.169-.052S200.852,225.5,200.852,225.536Z" transform="translate(-184.297 -99.197)" fill="#263238"/>
    <path id="Path_713" data-name="Path 713" d="M221.369,254.482l-.11-5.533,10.363-.279.25,8.093-.638.058c-2.856.238-14.515,1-16.465.471C212.614,256.706,221.369,254.482,221.369,254.482Z" transform="translate(-186.06 -102.14)" fill="#008083"/>
    <g id="Group_39" data-name="Group 39" transform="translate(42.053 151.581)" opacity="0.5">
      <path id="Path_714" data-name="Path 714" d="M230.1,257.522a3.578,3.578,0,0,1,1.26-2.247,3.482,3.482,0,0,1,2.4-.818l.081,2.9Z" transform="translate(-230.1 -254.454)" fill="#fff"/>
    </g>
    <g id="Group_40" data-name="Group 40" transform="translate(28.336 153.58)" opacity="0.4">
      <path id="Path_715" data-name="Path 715" d="M217.091,256.743s-3.056.975-2.665,1.475,12.233.175,17.417-.43v-.232l-13.8.5S217.7,256.754,217.091,256.743Z" transform="translate(-214.391 -256.743)" fill="#fff"/>
    </g>
    <path id="Path_716" data-name="Path 716" d="M232.011,257.667h-.175l-.511.041-1.881.134c-1.591.1-3.792.215-6.218.285s-4.645.081-6.223.07l-1.887-.029H214.6a.691.691,0,0,1-.18,0H217c1.591,0,3.792-.041,6.218-.11s4.645-.162,6.218-.244l1.881-.093h.517A.818.818,0,0,1,232.011,257.667Z" transform="translate(-186.06 -103.28)" fill="#263238"/>
    <path id="Path_717" data-name="Path 717" d="M218.436,258.2a4.324,4.324,0,0,0-.377-.888,4.667,4.667,0,0,0-.662-.708A1.69,1.69,0,0,1,218.436,258.2Z" transform="translate(-186.437 -103.145)" fill="#263238"/>
    <path id="Path_718" data-name="Path 718" d="M221.981,256.434a2.2,2.2,0,0,1-.337-.389c-.157-.232-.262-.441-.232-.458s.18.157.337.389A1.769,1.769,0,0,1,221.981,256.434Z" transform="translate(-186.945 -103.016)" fill="#263238"/>
    <path id="Path_719" data-name="Path 719" d="M222.889,255.943a1.718,1.718,0,0,1-.372-.238c-.186-.157-.313-.3-.29-.325s.191.075.372.232S222.909,255.914,222.889,255.943Z" transform="translate(-187.048 -102.99)" fill="#263238"/>
    <path id="Path_720" data-name="Path 720" d="M223.4,254.854a1.252,1.252,0,0,1-.54.081,1.214,1.214,0,0,1-.54-.041A2.215,2.215,0,0,1,223.4,254.854Z" transform="translate(-187.061 -102.918)" fill="#263238"/>
    <path id="Path_721" data-name="Path 721" d="M223.571,254.09a1.048,1.048,0,0,1-.581.191,1.156,1.156,0,0,1-.627-.064,3.193,3.193,0,0,1,.611-.064A3.423,3.423,0,0,1,223.571,254.09Z" transform="translate(-187.066 -102.827)" fill="#263238"/>
    <path id="Path_722" data-name="Path 722" d="M221.32,255.4a2,2,0,0,1-.668,0,3.752,3.752,0,0,1-.708-.134,1.784,1.784,0,0,1-.412-.157.358.358,0,0,1-.175-.2.262.262,0,0,1,.1-.267,1.222,1.222,0,0,1,1.515.313,1.074,1.074,0,0,1,.232.441.416.416,0,0,1,0,.18,1.852,1.852,0,0,0-.32-.581,1.25,1.25,0,0,0-.581-.355,1.038,1.038,0,0,0-.786.075c-.1.081-.064.2.058.273a2.167,2.167,0,0,0,.377.151,4.445,4.445,0,0,0,.691.157A3.182,3.182,0,0,0,221.32,255.4Z" transform="translate(-186.684 -102.878)" fill="#263238"/>
    <path id="Path_723" data-name="Path 723" d="M221.385,255.39a.65.65,0,0,1-.093-.465,1.114,1.114,0,0,1,.169-.487.692.692,0,0,1,.546-.36.267.267,0,0,1,.215.3.731.731,0,0,1-.1.3,2.058,2.058,0,0,1-.3.412.977.977,0,0,1-.377.279q.162-.161.307-.337a2.312,2.312,0,0,0,.267-.406c.087-.145.145-.4,0-.424s-.331.157-.43.3a1.062,1.062,0,0,0-.18.437A2.1,2.1,0,0,0,221.385,255.39Z" transform="translate(-186.929 -102.825)" fill="#263238"/>
    <path id="Path_724" data-name="Path 724" d="M233.714,254.409s-.3,0-.767.046a3.346,3.346,0,0,0-1.659.737,3.409,3.409,0,0,0-1,1.5c-.145.447-.151.749-.175.743a.758.758,0,0,1,0-.209,2.675,2.675,0,0,1,.1-.581,3.144,3.144,0,0,1,2.729-2.322,2.58,2.58,0,0,1,.581,0A.839.839,0,0,1,233.714,254.409Z" transform="translate(-188.047 -102.855)" fill="#263238"/>
    <path id="Path_725" data-name="Path 725" d="M232.864,249.542a18.984,18.984,0,0,1,.151,2.125,18.555,18.555,0,0,1,0,2.137,17.57,17.57,0,0,1-.151-2.131A18.456,18.456,0,0,1,232.864,249.542Z" transform="translate(-188.393 -102.25)" fill="#263238"/>
    <path id="Path_726" data-name="Path 726" d="M228.134,256.856a5.993,5.993,0,0,1-1.51.191,5.838,5.838,0,0,1-1.515-.081c0-.035.679,0,1.51-.046A12.193,12.193,0,0,1,228.134,256.856Z" transform="translate(-187.414 -103.177)" fill="#263238"/>
    <path id="Path_727" data-name="Path 727" d="M230.859,256.782s-.052.145-.116.3-.1.3-.134.29-.058-.162,0-.342S230.837,256.753,230.859,256.782Z" transform="translate(-188.107 -103.168)" fill="#263238"/>
    <path id="Path_728" data-name="Path 728" d="M231.688,255.664c.029,0-.035.134-.14.244s-.209.186-.238.162.041-.134.145-.25S231.665,255.642,231.688,255.664Z" transform="translate(-188.2 -103.026)" fill="#263238"/>
    <path id="Path_729" data-name="Path 729" d="M232.9,255.126c0,.035-.145.035-.3.093s-.256.145-.285.122.052-.169.244-.238S232.913,255.091,232.9,255.126Z" transform="translate(-188.328 -102.951)" fill="#263238"/>
    <path id="Path_730" data-name="Path 730" d="M233.827,254.859c0,.029-.041.087-.127.122s-.162.035-.18,0,.046-.087.134-.122A.269.269,0,0,1,233.827,254.859Z" transform="translate(-188.48 -102.922)" fill="#263238"/>
    <path id="Path_731" data-name="Path 731" d="M231.711,137.351a8.615,8.615,0,0,1,.395-1.5c.134-.453.3-1,.511-1.6.1-.3.221-.611.355-.929.07-.175.162-.32.209-.465a1.416,1.416,0,0,0,.058-.476,7.761,7.761,0,0,0-.157-1.022c-.064-.331-.122-.656-.18-.969-.1-.581-.2-1.161-.285-1.649a7.021,7.021,0,0,1-.186-1.533,7.96,7.96,0,0,1,.406,1.492c.11.5.226,1.048.355,1.631.064.313.127.638.2.969a6.381,6.381,0,0,1,.169,1.074,1.656,1.656,0,0,1-.075.581,5.046,5.046,0,0,1-.226.488c-.134.313-.25.611-.36.912-.209.581-.4,1.085-.581,1.572A7.031,7.031,0,0,1,231.711,137.351Z" transform="translate(-188.251 -86.742)" fill="#263238"/>
    <g id="Group_41" data-name="Group 41" transform="translate(66.439 41.233)" opacity="0.3">
      <path id="Path_732" data-name="Path 732" d="M258.026,128.085c.406,6.166,1.028,13.092,1.161,19.269a12.719,12.719,0,0,0,3.2-2.288C262.375,145.067,259.432,134.735,258.026,128.085Z" transform="translate(-258.026 -128.085)"/>
    </g>
    <path id="Path_733" data-name="Path 733" d="M259.672,168.748s-42.509-8.907-46.63-6.967-23.091,48.86-23.091,48.86l12.8,4.7,17.382-38.9s31.3,11.809,36.507,10.729S259.672,168.748,259.672,168.748Z" transform="translate(-182.957 -91.089)" fill="#263238"/>
    <path id="Path_734" data-name="Path 734" d="M244.065,172.664c-.651.215-25.243,10.322-26.973,13.573s2.549,57.2,2.549,57.2h13.986l-.873-47.95,27.287-6.915Z" transform="translate(-186.346 -92.504)" fill="#263238"/>
    <path id="Path_735" data-name="Path 735" d="M260.959,189.358a1.723,1.723,0,0,1-.4-.052l-1.161-.2c-.993-.18-2.427-.465-4.191-.836-3.53-.749-8.389-1.875-13.684-3.391-2.648-.767-5.144-1.572-7.4-2.322s-4.267-1.545-5.927-2.258c-.836-.337-1.579-.673-2.235-.969s-1.214-.552-1.659-.786l-1.039-.524a1.682,1.682,0,0,1-.355-.2,2.3,2.3,0,0,1,.383.145l1.063.471c.453.209,1.022.453,1.684.732s1.4.581,2.247.923c1.666.685,3.687,1.405,5.934,2.189s4.755,1.55,7.4,2.322c5.289,1.515,10.129,2.67,13.649,3.483l4.163.94,1.135.262A1.709,1.709,0,0,1,260.959,189.358Z" transform="translate(-187.135 -93.157)" fill="#455a64"/>
    <path id="Path_736" data-name="Path 736" d="M217.04,199.971a3.549,3.549,0,0,1-.128-.807c-.064-.581-.145-1.324-.238-2.212s-.191-2.067-.3-3.286a14.6,14.6,0,0,1,0-4.064,6.323,6.323,0,0,1,2.038-3.518,10.8,10.8,0,0,1,2.794-1.8,22.106,22.106,0,0,1,2.078-.818,3.518,3.518,0,0,1,.786-.226c0,.058-1.08.437-2.764,1.248a11.18,11.18,0,0,0-2.694,1.811,6.134,6.134,0,0,0-1.927,3.362,15.512,15.512,0,0,0,0,3.983c.093,1.223.169,2.322.238,3.292s.1,1.631.134,2.218A4,4,0,0,1,217.04,199.971Z" transform="translate(-186.289 -93.845)" fill="#455a64"/>
    <path id="Path_737" data-name="Path 737" d="M231.206,197.091a10.206,10.206,0,0,1,3.313,1.457,5.208,5.208,0,0,1-1.746-.576A5.131,5.131,0,0,1,231.206,197.091Z" transform="translate(-188.187 -95.601)" fill="#263238"/>
    <path id="Path_738" data-name="Path 738" d="M232.615,195.4a19.123,19.123,0,0,1,1.115,1.579,18.056,18.056,0,0,1,1.214,1.5,5.081,5.081,0,0,1-2.322-3.082Z" transform="translate(-188.366 -95.386)" fill="#263238"/>
    <path id="Path_739" data-name="Path 739" d="M238.3,197.936a.483.483,0,0,1-.215.221,1.627,1.627,0,0,1-.813.191,9.913,9.913,0,0,0-1.161.029.818.818,0,0,0-.7.894,21.954,21.954,0,0,1-.175,3.733,21.794,21.794,0,0,1-.145-3.75,1.309,1.309,0,0,1,.267-.8,1.081,1.081,0,0,1,.7-.372,7.135,7.135,0,0,1,1.214.035A1.951,1.951,0,0,0,238.3,197.936Z" transform="translate(-188.676 -95.708)" fill="#263238"/>
    <path id="Path_740" data-name="Path 740" d="M235.246,84.79c-2.125.691-4.592,2.1-3.367,8.749.534,2.9,1.223,5.91,3.181,8.128a1.08,1.08,0,0,0,1.921.1,17.85,17.85,0,0,0,4.732-8.546c.6-3.246-.3-6.9-2.85-8.987" transform="translate(-188.231 -81.293)" fill="#263238"/>
    <path id="Path_741" data-name="Path 741" d="M239.678,113.38c-.07-3.056-.2-6.34-.2-6.34a5.614,5.614,0,0,1-4.853-5.342c-.209-4.761-.25-13.075-.25-13.075l9.092-6.729,6.389,8.784.157,22.544a5.166,5.166,0,0,1-5.107,5.225h-.059A5.161,5.161,0,0,1,239.678,113.38Z" transform="translate(-188.588 -80.997)" fill="#ffbe9d"/>
    <path id="Path_742" data-name="Path 742" d="M240.215,110.393a11.35,11.35,0,0,0,6.166-2.021s-1.446,3.483-6.085,3.187Z" transform="translate(-189.329 -84.353)" fill="#eb996e"/>
    <path id="Path_743" data-name="Path 743" d="M240.673,104.113a.569.569,0,0,1,.267-.76h0a.562.562,0,0,1,.3-.053.874.874,0,0,1,.888-.772.988.988,0,0,1,.9.807,1.162,1.162,0,0,1-.5,1.126,1.37,1.37,0,0,1-1.254.093.977.977,0,0,1-.633-.749" transform="translate(-189.38 -83.612)" fill="#eb996e"/>
    <path id="Path_744" data-name="Path 744" d="M235.468,96.116a.657.657,0,0,0,.633.656.627.627,0,0,0,.673-.577h0a.657.657,0,0,0-.633-.656.627.627,0,0,0-.673.577Z" transform="translate(-188.728 -82.726)" fill="#263238"/>
    <path id="Path_745" data-name="Path 745" d="M235.506,95.487c.081.081.581-.285,1.278-.279s1.214.349,1.289.267-.046-.191-.267-.36a1.805,1.805,0,0,0-1.033-.32,1.749,1.749,0,0,0-1.016.331C235.535,95.3,235.465,95.447,235.506,95.487Z" transform="translate(-188.731 -82.632)" fill="#263238"/>
    <path id="Path_746" data-name="Path 746" d="M243.539,96.189a.656.656,0,0,0,.627.662.627.627,0,0,0,.673-.577h0a.651.651,0,0,0-.627-.656A.626.626,0,0,0,243.539,96.189Z" transform="translate(-189.751 -82.736)" fill="#263238"/>
    <path id="Path_747" data-name="Path 747" d="M243.4,95.633c.081.087.581-.279,1.278-.279s1.214.355,1.289.267-.041-.191-.267-.355a1.805,1.805,0,0,0-1.033-.32,1.659,1.659,0,0,0-1.016.331C243.438,95.442,243.346,95.6,243.4,95.633Z" transform="translate(-189.731 -82.651)" fill="#263238"/>
    <path id="Path_748" data-name="Path 748" d="M240.227,100.841a5.188,5.188,0,0,0-1.161-.2c-.18,0-.349-.052-.383-.175a.93.93,0,0,1,.122-.534l.528-1.364a22.748,22.748,0,0,0,1.19-3.571,24.364,24.364,0,0,0-1.475,3.483c-.175.482-.342.934-.5,1.376a1.015,1.015,0,0,0-.093.7.438.438,0,0,0,.3.262,1.217,1.217,0,0,0,.3.041A4.327,4.327,0,0,0,240.227,100.841Z" transform="translate(-189.102 -82.657)" fill="#263238"/>
    <path id="Path_749" data-name="Path 749" d="M242.53,102.249c-.116,0-.116.754-.767,1.295s-1.463.458-1.469.581.18.151.524.157a1.892,1.892,0,0,0,1.223-.424,1.642,1.642,0,0,0,.581-1.085C242.664,102.435,242.582,102.243,242.53,102.249Z" transform="translate(-189.339 -83.577)" fill="#263238"/>
    <path id="Path_750" data-name="Path 750" d="M243.04,93.89c.07.191.772.1,1.6.2s1.484.32,1.6.151c.046-.081-.064-.262-.337-.447a2.811,2.811,0,0,0-2.433-.267C243.162,93.628,243.011,93.778,243.04,93.89Z" transform="translate(-189.687 -82.451)" fill="#263238"/>
    <path id="Path_751" data-name="Path 751" d="M235.8,93.157c.122.157.581,0,1.161,0s1.074.11,1.161-.058-.029-.238-.244-.389a1.74,1.74,0,0,0-1.91.058C235.809,92.913,235.745,93.076,235.8,93.157Z" transform="translate(-188.767 -82.335)" fill="#263238"/>
    <path id="Path_752" data-name="Path 752" d="M245.746,91.9a3.621,3.621,0,0,0,2.322-.824c.418,1.12.412,2.363.8,3.483s.767,12.058,1.951,11.885c1.085-.169,2.387-11.129,2.665-12.192a9.736,9.736,0,0,0-2.148-8.505c-2.322-2.758-6.189-5.114-9.78-4.859a8.09,8.09,0,0,0-4.459,1.572s-1.939,1.5-1.782,3.406c.226,2.659,4.1,4.371,6.775,4.29l.377.372A4.642,4.642,0,0,0,245.746,91.9Z" transform="translate(-188.706 -80.866)" fill="#263238"/>
    <path id="Path_753" data-name="Path 753" d="M234.327,91.732a3.966,3.966,0,0,0,1.324-2.131,11.5,11.5,0,0,0,.307-2.525c0-.25,0-.581-.262-.627s-.424.175-.534.383a8.191,8.191,0,0,0-.842,5.144l-.1.087" transform="translate(-188.569 -81.573)" fill="#263238"/>
  </g>
  <g id="freepik--character-2--inject-7" transform="translate(90.139 38.385)">
    <path id="Path_754" data-name="Path 754" d="M157.337,255.439l.035-5.69-10.659-.128-.14,8.325.662.052c2.938.2,14.961.8,16.935.232C166.366,257.594,157.337,255.439,157.337,255.439Z" transform="translate(-108.721 -70.031)" fill="#008083"/>
    <g id="Group_42" data-name="Group 42" transform="translate(37.861 184.776)" opacity="0.4">
      <path id="Path_755" data-name="Path 755" d="M150.44,258.665a3.71,3.71,0,0,0-1.33-2.293,3.623,3.623,0,0,0-2.485-.807l-.041,2.984Z" transform="translate(-146.584 -255.56)"/>
    </g>
    <g id="Group_43" data-name="Group 43" transform="translate(37.848 186.616)" opacity="0.4">
      <path id="Path_756" data-name="Path 756" d="M161.745,257.667s3.165.961,2.764,1.475-12.574.366-17.94-.175v-.238l14.2.3S161.124,257.691,161.745,257.667Z" transform="translate(-146.569 -257.667)"/>
    </g>
    <path id="Path_757" data-name="Path 757" d="M146.4,258.85a.886.886,0,0,0,.18,0l.524.041,1.939.1c1.631.081,3.9.162,6.386.2s4.767,0,6.386,0l1.939-.052h-8.325c-2.49,0-4.761-.1-6.386-.157l-1.939-.07h-.524Z" transform="translate(-108.699 -71.201)" fill="#263238"/>
    <path id="Path_758" data-name="Path 758" d="M162.843,259.177a4.425,4.425,0,0,1,.377-.918,3.853,3.853,0,0,1,.668-.732,1.43,1.43,0,0,0-.778.662A1.459,1.459,0,0,0,162.843,259.177Z" transform="translate(-110.783 -71.034)" fill="#263238"/>
    <path id="Path_759" data-name="Path 759" d="M159.267,257.393a1.457,1.457,0,0,0,.342-.406c.162-.244.262-.458.232-.476s-.186.162-.342.406A1.294,1.294,0,0,0,159.267,257.393Z" transform="translate(-110.33 -70.905)" fill="#263238"/>
    <path id="Path_760" data-name="Path 760" d="M158.282,256.923a1.576,1.576,0,0,0,.377-.244c.186-.162.32-.32.3-.342s-.191.081-.377.244S158.242,256.894,158.282,256.923Z" transform="translate(-110.205 -70.882)" fill="#263238"/>
    <path id="Path_761" data-name="Path 761" d="M157.672,255.84a2.479,2.479,0,0,0,1.115,0,1.238,1.238,0,0,0-.552-.075A1.342,1.342,0,0,0,157.672,255.84Z" transform="translate(-110.128 -70.81)" fill="#263238"/>
    <path id="Path_762" data-name="Path 762" d="M157.472,255.034a1.587,1.587,0,0,0,1.26.11,4.045,4.045,0,0,0-.633-.052A3.432,3.432,0,0,0,157.472,255.034Z" transform="translate(-110.103 -70.717)" fill="#263238"/>
    <path id="Path_763" data-name="Path 763" d="M159.693,256.351a1.846,1.846,0,0,0,.685,0,3.947,3.947,0,0,0,.732-.151,2.066,2.066,0,0,0,.418-.169.369.369,0,0,0,.175-.209.277.277,0,0,0-.1-.279,1.26,1.26,0,0,0-1.693.555,1.232,1.232,0,0,0-.1.251.416.416,0,0,0,0,.18,2.229,2.229,0,0,1,.32-.581,1.28,1.28,0,0,1,.581-.371,1.063,1.063,0,0,1,.818.07c.1.081.064.209-.058.279a2.413,2.413,0,0,1-.389.157,4.192,4.192,0,0,1-.708.175C159.954,256.33,159.693,256.33,159.693,256.351Z" transform="translate(-110.384 -70.765)" fill="#263238"/>
    <path id="Path_764" data-name="Path 764" d="M159.769,256.331a.682.682,0,0,0,.081-.471,1.061,1.061,0,0,0-.18-.5.68.68,0,0,0-.581-.355.267.267,0,0,0-.216.31h0a.86.86,0,0,0,.11.307,2.288,2.288,0,0,0,.32.418c.209.209.377.3.389.279s-.134-.122-.325-.342a2.847,2.847,0,0,1-.279-.412c-.093-.145-.151-.406,0-.437s.349.157.447.3a1.1,1.1,0,0,1,.191.447A2.751,2.751,0,0,1,159.769,256.331Z" transform="translate(-110.28 -70.713)" fill="#263238"/>
    <path id="Path_765" data-name="Path 765" d="M146.7,255.515c0,.029.3,0,.786.041a3.338,3.338,0,0,1,2.764,2.258c.157.458.169.767.2.767a.682.682,0,0,0,0-.215,2.526,2.526,0,0,0-.11-.581,3.324,3.324,0,0,0-1.057-1.609,3.365,3.365,0,0,0-1.782-.719,2.58,2.58,0,0,0-.581,0A.777.777,0,0,0,146.7,255.515Z" transform="translate(-108.737 -70.769)" fill="#263238"/>
    <path id="Path_766" data-name="Path 766" d="M148,250.473a17.8,17.8,0,0,0-.122,2.189,17.276,17.276,0,0,0,0,2.189,18.894,18.894,0,0,0,.116-2.189A18.13,18.13,0,0,0,148,250.473Z" transform="translate(-108.882 -70.139)" fill="#263238"/>
    <path id="Path_767" data-name="Path 767" d="M152.552,257.939a5.9,5.9,0,0,0,1.55.175,5.784,5.784,0,0,0,1.561-.1c0-.035-.7,0-1.556,0S152.552,257.9,152.552,257.939Z" transform="translate(-109.479 -71.085)" fill="#263238"/>
    <path id="Path_768" data-name="Path 768" d="M150.159,257.906a2.139,2.139,0,0,0,.122.314c.07.162.1.3.145.3s.059-.169,0-.349S150.183,257.883,150.159,257.906Z" transform="translate(-109.176 -71.081)" fill="#263238"/>
    <path id="Path_769" data-name="Path 769" d="M149.268,256.775a.7.7,0,0,0,.151.25c.11.116.221.186.244.157s-.041-.134-.151-.25S149.3,256.753,149.268,256.775Z" transform="translate(-109.063 -70.938)" fill="#263238"/>
    <path id="Path_770" data-name="Path 770" d="M147.985,256.236c0,.035.151.041.307.093s.267.145.3.122-.064-.175-.256-.244S147.973,256.19,147.985,256.236Z" transform="translate(-108.9 -70.862)" fill="#263238"/>
    <path id="Path_771" data-name="Path 771" d="M147.067,255.988c0,.035.052.087.14.122s.169.041.18,0-.046-.087-.134-.122S147.084,255.953,147.067,255.988Z" transform="translate(-108.784 -70.835)" fill="#263238"/>
    <path id="Path_772" data-name="Path 772" d="M110.442,255.439l-.035-5.69,10.659-.128.14,8.325-.662.052c-2.938.2-14.961.8-16.935.232C101.408,257.594,110.442,255.439,110.442,255.439Z" transform="translate(-103.231 -70.031)" fill="#008083"/>
    <g id="Group_44" data-name="Group 44" transform="translate(14.108 184.776)" opacity="0.4">
      <path id="Path_773" data-name="Path 773" d="M119.382,258.665a3.71,3.71,0,0,1,1.33-2.293,3.623,3.623,0,0,1,2.485-.807l.041,2.984Z" transform="translate(-119.382 -255.56)"/>
    </g>
    <g id="Group_45" data-name="Group 45" transform="translate(0 186.616)" opacity="0.4">
      <path id="Path_774" data-name="Path 774" d="M106.025,257.667s-3.165.961-2.764,1.475,12.574.366,17.94-.175v-.238l-14.2.3S106.646,257.691,106.025,257.667Z" transform="translate(-103.226 -257.667)"/>
    </g>
    <path id="Path_775" data-name="Path 775" d="M121.456,258.85a.886.886,0,0,1-.18,0l-.524.041-1.939.1c-1.631.081-3.9.162-6.386.2s-4.766,0-6.386,0l-1.939-.052h8.33c2.49,0,4.761-.1,6.386-.157l1.939-.07h.524Z" transform="translate(-103.337 -71.201)" fill="#263238"/>
    <path id="Path_776" data-name="Path 776" d="M107.383,259.177a4.524,4.524,0,0,0-.372-.918,4.085,4.085,0,0,0-.673-.732,1.43,1.43,0,0,1,.778.662A1.459,1.459,0,0,1,107.383,259.177Z" transform="translate(-103.62 -71.034)" fill="#263238"/>
    <path id="Path_777" data-name="Path 777" d="M111.027,257.393a1.457,1.457,0,0,1-.342-.406c-.162-.244-.262-.458-.232-.476s.186.162.342.406A1.294,1.294,0,0,1,111.027,257.393Z" transform="translate(-104.141 -70.905)" fill="#263238"/>
    <path id="Path_778" data-name="Path 778" d="M112,256.923a1.576,1.576,0,0,1-.377-.244c-.186-.162-.32-.32-.3-.342s.191.081.377.244S112.021,256.894,112,256.923Z" transform="translate(-104.253 -70.882)" fill="#263238"/>
    <path id="Path_779" data-name="Path 779" d="M112.546,255.84a2.479,2.479,0,0,1-1.115,0,1.266,1.266,0,0,1,.581-.075A1.28,1.28,0,0,1,112.546,255.84Z" transform="translate(-104.266 -70.809)" fill="#263238"/>
    <path id="Path_780" data-name="Path 780" d="M112.724,255.034a1.587,1.587,0,0,1-1.26.11,4.045,4.045,0,0,1,.633-.052A3.432,3.432,0,0,1,112.724,255.034Z" transform="translate(-104.27 -70.717)" fill="#263238"/>
    <path id="Path_781" data-name="Path 781" d="M110.393,256.351a1.846,1.846,0,0,1-.685,0,3.947,3.947,0,0,1-.732-.151,2.066,2.066,0,0,1-.418-.169.369.369,0,0,1-.175-.209.279.279,0,0,1,.1-.279,1.26,1.26,0,0,1,1.693.555,1.231,1.231,0,0,1,.1.251.417.417,0,0,1,0,.18,2.229,2.229,0,0,0-.32-.581,1.28,1.28,0,0,0-.581-.371,1.063,1.063,0,0,0-.818.07c-.1.081-.064.209.058.279a2.413,2.413,0,0,0,.389.157,4.191,4.191,0,0,0,.708.175C110.116,256.33,110.393,256.33,110.393,256.351Z" transform="translate(-103.879 -70.765)" fill="#263238"/>
    <path id="Path_782" data-name="Path 782" d="M110.466,256.331a.682.682,0,0,1-.081-.471,1.061,1.061,0,0,1,.18-.5.68.68,0,0,1,.581-.355.267.267,0,0,1,.216.31h0a.86.86,0,0,1-.11.307,2.289,2.289,0,0,1-.32.418c-.209.209-.377.3-.389.279s.14-.122.325-.342a2.442,2.442,0,0,0,.279-.412c.093-.145.151-.406,0-.437s-.349.157-.447.3a1.164,1.164,0,0,0-.191.447A2.749,2.749,0,0,0,110.466,256.331Z" transform="translate(-104.132 -70.713)" fill="#263238"/>
    <path id="Path_783" data-name="Path 783" d="M123.119,255.515c0,.029-.3,0-.786.041a3.338,3.338,0,0,0-2.764,2.258c-.157.458-.169.767-.2.767a.682.682,0,0,1,0-.215,2.526,2.526,0,0,1,.11-.581,3.324,3.324,0,0,1,1.057-1.609,3.365,3.365,0,0,1,1.782-.719,2.58,2.58,0,0,1,.581,0A.777.777,0,0,1,123.119,255.515Z" transform="translate(-105.272 -70.769)" fill="#263238"/>
    <path id="Path_784" data-name="Path 784" d="M122.331,250.473a17.8,17.8,0,0,1,.122,2.189,17.274,17.274,0,0,1,0,2.189,19.091,19.091,0,0,1-.116-2.189A18.13,18.13,0,0,1,122.331,250.473Z" transform="translate(-105.644 -70.139)" fill="#263238"/>
    <path id="Path_785" data-name="Path 785" d="M117.375,257.939a5.9,5.9,0,0,1-1.55.175,5.784,5.784,0,0,1-1.561-.1c0-.035.7,0,1.556,0S117.375,257.9,117.375,257.939Z" transform="translate(-104.625 -71.085)" fill="#263238"/>
    <path id="Path_786" data-name="Path 786" d="M120.176,257.906c.029.029-.052.151-.122.314s-.1.3-.145.3-.058-.169,0-.349S120.153,257.883,120.176,257.906Z" transform="translate(-105.336 -71.081)" fill="#263238"/>
    <path id="Path_787" data-name="Path 787" d="M121.053,256.775a.7.7,0,0,1-.151.25c-.11.116-.221.186-.244.157s.041-.134.151-.25S121.028,256.753,121.053,256.775Z" transform="translate(-105.435 -70.938)" fill="#263238"/>
    <path id="Path_788" data-name="Path 788" d="M122.306,256.236c0,.035-.151.041-.307.093s-.267.145-.3.122.064-.175.256-.244S122.318,256.19,122.306,256.236Z" transform="translate(-105.568 -70.862)" fill="#263238"/>
    <path id="Path_789" data-name="Path 789" d="M123.265,255.988c0,.035-.052.087-.14.122s-.169.041-.18,0,.046-.087.134-.122S123.248,255.953,123.265,255.988Z" transform="translate(-105.726 -70.835)" fill="#263238"/>
    <path id="Path_790" data-name="Path 790" d="M159.527,131.456,155.439,238.3l-16.6.349,2.762-92.584-18.675,93.292H107.136l20.331-107.692Z" transform="translate(-103.722 -55.051)" fill="#263238"/>
    <path id="Path_791" data-name="Path 791" d="M150.382,135.9a10.467,10.467,0,0,1-.191,1.746c-.151,1.08-.389,2.572-.662,4.215a18.618,18.618,0,0,1-.476,2.322,3.276,3.276,0,0,1-1.085,1.626,2.522,2.522,0,0,1-1.2.54,1.045,1.045,0,0,1-.482,0A2.979,2.979,0,0,0,148.8,144.1a21.079,21.079,0,0,0,.441-2.282c.279-1.649.54-3.135.749-4.2A10.913,10.913,0,0,1,150.382,135.9Z" transform="translate(-108.685 -55.614)" fill="#263238"/>
    <path id="Path_792" data-name="Path 792" d="M146.99,136.476c.035.029-.1.2,0,.482a.581.581,0,0,0,.279.36.471.471,0,0,0,.5-.1.457.457,0,0,0,.157-.482.585.585,0,0,0-.32-.32c-.267-.116-.453,0-.476-.041s.151-.244.54-.157a.726.726,0,1,1-.883.754C146.728,136.574,146.978,136.418,146.99,136.476Z" transform="translate(-108.747 -55.652)" fill="#263238"/>
    <path id="Path_793" data-name="Path 793" d="M136.775,137.806a3.144,3.144,0,0,1,.32-2.969c.075.035-.162.668-.244,1.475A13.781,13.781,0,0,1,136.775,137.806Z" transform="translate(-107.449 -55.479)" fill="#263238"/>
    <path id="Path_794" data-name="Path 794" d="M139.064,137.643a3.644,3.644,0,0,1,.215-3.095,12.72,12.72,0,0,1-.162,1.545A11.782,11.782,0,0,1,139.064,137.643Z" transform="translate(-107.738 -55.443)" fill="#263238"/>
    <path id="Path_795" data-name="Path 795" d="M158.749,138.125q.1-1.6.162-3.211a3,3,0,0,1,.221,1.62A3.041,3.041,0,0,1,158.749,138.125Z" transform="translate(-110.265 -55.489)" fill="#263238"/>
    <path id="Path_796" data-name="Path 796" d="M161.227,137.976c-.081-.029.18-.732.238-1.626s-.093-1.626,0-1.649a3.483,3.483,0,0,1-.232,3.275Z" transform="translate(-110.577 -55.462)" fill="#263238"/>
    <path id="Path_797" data-name="Path 797" d="M140.407,76.655l10.253-.818c.064-1.2,0-5.806,0-5.806s4.261-.662,4.314-4.923-.685-14.059-.685-14.059h0a14.821,14.821,0,0,0-14.892,1.87l-.627.487Z" transform="translate(-107.732 -44.704)" fill="#ffbe9d"/>
    <path id="Path_798" data-name="Path 798" d="M151.559,72.639A9.962,9.962,0,0,1,146,71.06s1.31,3.065,5.568,2.683Z" transform="translate(-108.649 -47.394)" fill="#eb996e"/>
    <path id="Path_799" data-name="Path 799" d="M138.93,58.94c-.07-.035-2.932-.873-2.839,2.043A2.193,2.193,0,0,0,139.1,63.12C139.1,63.034,138.93,58.94,138.93,58.94Z" transform="translate(-107.392 -45.84)" fill="#ffbe9d"/>
    <path id="Path_800" data-name="Path 800" d="M138.274,62.182a.614.614,0,0,1-.134.081.5.5,0,0,1-.377,0,1.26,1.26,0,0,1-.621-1.109,1.747,1.747,0,0,1,.122-.732.581.581,0,0,1,.372-.4.255.255,0,0,1,.3.127c.041.081,0,.14.041.145s.058-.052.035-.169a.343.343,0,0,0-.122-.18.36.36,0,0,0-.285-.064.719.719,0,0,0-.517.465,1.743,1.743,0,0,0-.134.848,1.318,1.318,0,0,0,.778,1.236.537.537,0,0,0,.465-.093C138.274,62.255,138.289,62.188,138.274,62.182Z" transform="translate(-107.501 -45.976)" fill="#eb996e"/>
    <path id="Path_801" data-name="Path 801" d="M155.263,58.773a.612.612,0,0,1-.581.611.581.581,0,0,1-.626-.532h0v-.02a.581.581,0,0,1,.545-.611h.036a.581.581,0,0,1,.626.532h0Z" transform="translate(-109.67 -45.766)" fill="#263238"/>
    <path id="Path_802" data-name="Path 802" d="M155.232,57.969c-.075.081-.534-.262-1.161-.262s-1.161.331-1.208.25.041-.18.25-.331a1.658,1.658,0,0,1,.969-.3,1.6,1.6,0,0,1,.947.3C155.232,57.8,155.284,57.969,155.232,57.969Z" transform="translate(-109.517 -45.653)" fill="#263238"/>
    <path id="Path_803" data-name="Path 803" d="M147.916,58.946a.581.581,0,0,1-.545.611h-.036a.58.58,0,0,1-.626-.531v-.016a.581.581,0,0,1,.545-.611h.036a.58.58,0,0,1,.626.531Z" transform="translate(-108.738 -45.789)" fill="#263238"/>
    <path id="Path_804" data-name="Path 804" d="M147.867,58.115c-.075.081-.54-.262-1.2-.262s-1.161.331-1.2.25.041-.18.25-.331a1.641,1.641,0,0,1,.961-.3,1.609,1.609,0,0,1,.952.3C147.833,57.934,147.908,58.08,147.867,58.115Z" transform="translate(-108.58 -45.672)" fill="#263238"/>
    <path id="Path_805" data-name="Path 805" d="M150.88,62.982a4.073,4.073,0,0,1,1.068-.191c.169,0,.325-.052.355-.169a.858.858,0,0,0-.116-.493c-.157-.406-.32-.83-.493-1.271a21.927,21.927,0,0,1-1.109-3.332,21.793,21.793,0,0,1,1.376,3.231c.162.447.325.873.476,1.283a.986.986,0,0,1,.087.656.431.431,0,0,1-.279.244,1.365,1.365,0,0,1-.285.041A4.384,4.384,0,0,1,150.88,62.982Z" transform="translate(-109.23 -45.678)" fill="#263238"/>
    <path id="Path_806" data-name="Path 806" d="M148.71,64.292c.11,0,.11.7.72,1.208s1.364.43,1.37.524-.169.14-.487.145a1.739,1.739,0,0,1-1.161-.395,1.56,1.56,0,0,1-.581-1.016C148.581,64.466,148.663,64.286,148.71,64.292Z" transform="translate(-108.974 -46.536)" fill="#263238"/>
    <path id="Path_807" data-name="Path 807" d="M147.975,55.2c-.064.175-.72.093-1.484.186s-1.4.3-1.492.14.058-.244.313-.418a2.636,2.636,0,0,1,2.27-.25C147.846,54.972,148,55.111,147.975,55.2Z" transform="translate(-108.518 -45.321)" fill="#263238"/>
    <path id="Path_808" data-name="Path 808" d="M154.99,55.8c-.116.151-.581,0-1.109,0s-1,.1-1.109-.058,0-.221.226-.366a1.534,1.534,0,0,1,.9-.244,1.573,1.573,0,0,1,.888.3C154.974,55.572,155.042,55.729,154.99,55.8Z" transform="translate(-109.502 -45.375)" fill="#263238"/>
    <path id="Path_809" data-name="Path 809" d="M156.123,47.566a1.57,1.57,0,0,0-.581-1.405,1.116,1.116,0,0,0-1.446.1,1.309,1.309,0,0,0-.994-1.558c-.042-.01-.087-.017-.127-.022-.7-.041-1.289.482-1.962.668a3.162,3.162,0,0,1-1.992-.232c-.627-.25-1.223-.581-1.858-.836a5.457,5.457,0,0,0-6.965,3.2,2.424,2.424,0,0,0-2.566.975,3.967,3.967,0,0,0-.581,2.794,8.738,8.738,0,0,0,.487,1.91v.162c.046,2.322.307,5.1,1.31,5.114,1.742.029,1.324-3.257,1.324-3.257,2.142-.824,1.347-4.035,1.881-4.517s1.659-1.62,6.131.673a8.708,8.708,0,0,0,5.318.581h.151a4.07,4.07,0,0,0,1.161-.487,2.273,2.273,0,0,0,.947-1.048,1.26,1.26,0,0,0-.244-1.335A2.727,2.727,0,0,0,156.123,47.566Z" transform="translate(-107.507 -43.958)" fill="#263238"/>
    <path id="Path_810" data-name="Path 810" d="M132.8,78.581a28.543,28.543,0,0,1,4.522-.865h0a18.158,18.158,0,0,0,10.932,0c.441.058,1.057.116,1.834.2,4.743.581,6.567,1.572,9.974,4.917l-.372,19.217s1.161,21.865,1.063,25.394H128.309V108.586l-10.682,3.878.975-5.6s4.778-18.579,5.527-21.081C125.012,82.744,128.269,79.448,132.8,78.581Z" transform="translate(-105.052 -48.238)" fill="#008083"/>
    <path id="Path_811" data-name="Path 811" d="M122.5,111.134l15.995-2.276,3.037,5.445L126.665,121a6.385,6.385,0,0,1-2.635.581h0a6.415,6.415,0,0,1-5.938-3.983l-.482-1.161Z" transform="translate(-105.049 -52.186)" fill="#008083"/>
    <path id="Path_812" data-name="Path 812" d="M155.944,105.589l-.349-.256a7.968,7.968,0,0,0-6.293-1.457h0a10.97,10.97,0,0,0-4.9,2.322l-2.74,2.256,2.9,5.225,1.986-2.775s1.846,2.508,2.177,2.247a4.282,4.282,0,0,0,.726-1.057l-1.318-1.852,3.181.633,4.645-2.113-2-2.532,1.986.662Z" transform="translate(-108.099 -51.536)" fill="#ffbe9d"/>
    <path id="Path_813" data-name="Path 813" d="M160.266,79.338a11.8,11.8,0,0,1,6.416,5.887c1.236,2.834,3.056,16.482,3.056,16.482l2.293,4.424a7.459,7.459,0,0,1,.836,3.437v.673a7.428,7.428,0,0,1-1.672,4.708h0a7.461,7.461,0,0,1-5.127,2.729c-2.293.2-5.065.29-5.655-.383a28.833,28.833,0,0,1-2.613-4.4l6.685-3.546-2.9-5.327Z" transform="translate(-110.144 -48.444)" fill="#008083"/>
    <path id="Path_814" data-name="Path 814" d="M128.424,120.484a2.115,2.115,0,0,1,.256-.145l.767-.372,2.868-1.341,9.806-4.476-.064.2L140.176,111l-1.161-2.09.14.075-11.71,1.161-3.483.313-.94.07a1.4,1.4,0,0,1-.331,0,1.371,1.371,0,0,1,.325-.058l.934-.122,3.483-.4,11.7-1.248h.081l.046.081c.377.668.772,1.37,1.161,2.09l1.875,3.356.075.134-.145.064-9.835,4.384-2.9,1.26-.786.331A1.949,1.949,0,0,1,128.424,120.484Z" transform="translate(-105.693 -52.166)" fill="#263238"/>
    <path id="Path_815" data-name="Path 815" d="M132.485,107.795c-.081,0-.151-2.856-.151-6.386s.07-6.386.151-6.386.145,2.856.145,6.386S132.566,107.795,132.485,107.795Z" transform="translate(-106.916 -50.432)" fill="#263238"/>
    <path id="Path_816" data-name="Path 816" d="M163.455,114.561a1.349,1.349,0,0,1,.488-.081,4.617,4.617,0,0,1,1.347.081,1.577,1.577,0,0,1,.848.482,2.235,2.235,0,0,1,.441,1.016,2.4,2.4,0,0,1-.11,1.223,2.272,2.272,0,0,1-.807,1.039,6.113,6.113,0,0,1-2.322.824,10.827,10.827,0,0,1-1.986.191,3.624,3.624,0,0,1-1.8-.313,8.873,8.873,0,0,0,1.8.11,12.757,12.757,0,0,0,1.933-.25,6.16,6.16,0,0,0,2.2-.836,2.01,2.01,0,0,0,.824-1.974,2.039,2.039,0,0,0-.36-.929,1.436,1.436,0,0,0-.714-.43,5.316,5.316,0,0,0-1.295-.169A2.174,2.174,0,0,1,163.455,114.561Z" transform="translate(-110.367 -52.896)" fill="#263238"/>
    <path id="Path_817" data-name="Path 817" d="M166.107,122.941a3.482,3.482,0,0,1-1.161.14,7.4,7.4,0,0,1-2.764-.458,6.422,6.422,0,0,1-1.376-.732,3.356,3.356,0,0,1-.848-.961,2.46,2.46,0,0,1-.406-1.085c.046,0,.2.4.581.975a3.418,3.418,0,0,0,.836.853,6.45,6.45,0,0,0,1.324.679,8.7,8.7,0,0,0,2.659.524A6.48,6.48,0,0,1,166.107,122.941Z" transform="translate(-110.367 -53.579)" fill="#263238"/>
    <path id="Path_818" data-name="Path 818" d="M169.863,107.528a5.555,5.555,0,0,1-.786.947c-.511.581-1.236,1.33-2.049,2.166s-1.556,1.572-2.107,2.1a5.213,5.213,0,0,1-.934.813,5.094,5.094,0,0,1,.786-.961c.517-.581,1.237-1.33,2.049-2.166A28.582,28.582,0,0,1,169.863,107.528Z" transform="translate(-110.929 -52.017)" fill="#263238"/>
    <path id="Path_819" data-name="Path 819" d="M162.36,103.059a46.736,46.736,0,0,1,.017-7.292A43.267,43.267,0,0,1,162.36,103.059Z" transform="translate(-110.706 -50.526)" fill="#263238"/>
    <path id="Path_820" data-name="Path 820" d="M162.112,86.154c0,.081-8.192.145-18.288.145s-18.288-.064-18.288-.145S133.722,86,143.824,86,162.112,86.075,162.112,86.154Z" transform="translate(-106.054 -49.288)" fill="#e0e0e0"/>
    <path id="Path_821" data-name="Path 821" d="M162.9,89.489c0,.081-8.627.151-19.269.151s-19.275-.07-19.275-.151,8.627-.145,19.275-.145S162.9,89.408,162.9,89.489Z" transform="translate(-105.905 -49.712)" fill="#e0e0e0"/>
    <path id="Path_822" data-name="Path 822" d="M160.876,83.113c0,.081-7.518.151-16.79.151s-16.784-.07-16.784-.151,7.51-.145,16.784-.145S160.876,83.032,160.876,83.113Z" transform="translate(-106.278 -48.904)" fill="#e0e0e0"/>
    <path id="Path_823" data-name="Path 823" d="M162.773,133.462c0,.081-7.361.145-16.436.145s-16.431-.064-16.431-.145,7.356-.151,16.431-.151S162.773,133.381,162.773,133.462Z" transform="translate(-106.608 -55.286)" fill="#e0e0e0"/>
    <path id="Path_824" data-name="Path 824" d="M162.551,131.322c0,.081-7.257.145-16.216.145s-16.216-.064-16.216-.145,7.263-.145,16.216-.145S162.551,131.241,162.551,131.322Z" transform="translate(-106.635 -55.015)" fill="#e0e0e0"/>
    <path id="Path_825" data-name="Path 825" d="M162.189,128.55c0,.081-7.234.145-16.155.145s-16.155-.064-16.155-.145,7.234-.145,16.155-.145S162.189,128.469,162.189,128.55Z" transform="translate(-106.605 -54.664)" fill="#e0e0e0"/>
    <path id="Path_826" data-name="Path 826" d="M139.5,116.113a3.058,3.058,0,0,1-.8-.767,7.871,7.871,0,0,1-1.335-2.358,7.7,7.7,0,0,1-.437-2.67,3.008,3.008,0,0,1,.157-1.109,9.963,9.963,0,0,0,2.438,6.9Z" transform="translate(-107.498 -52.23)" fill="#e0e0e0"/>
    <path id="Path_827" data-name="Path 827" d="M137.745,117.045a3.5,3.5,0,0,1-.883-.842,8.381,8.381,0,0,1-1.446-2.584,8.636,8.636,0,0,1-.471-2.9,3.294,3.294,0,0,1,.175-1.214,12.972,12.972,0,0,0,.581,4.064A13.142,13.142,0,0,0,137.745,117.045Z" transform="translate(-107.247 -52.268)" fill="#e0e0e0"/>
    <path id="Path_828" data-name="Path 828" d="M136.073,117.82a3.572,3.572,0,0,1-.993-.848,7.667,7.667,0,0,1-1.914-5.858,3.413,3.413,0,0,1,.307-1.265c.046,0-.064.493-.1,1.283a8.621,8.621,0,0,0,.412,3.025,8.769,8.769,0,0,0,1.451,2.683C135.732,117.459,136.11,117.779,136.073,117.82Z" transform="translate(-107.017 -52.311)" fill="#e0e0e0"/>
    <path id="Path_829" data-name="Path 829" d="M160.1,119.377a3.7,3.7,0,0,0,.493.307,3.492,3.492,0,0,0,1.5.377,12.677,12.677,0,0,0,2.322-.151,3.631,3.631,0,0,0,2.45-1.2,3.486,3.486,0,0,0,.732-2.613,3.724,3.724,0,0,0-1.016-2.015,5.485,5.485,0,0,0-1.788-1.161,1.44,1.44,0,0,1,.581.14,4.207,4.207,0,0,1,1.364.873,3.825,3.825,0,0,1,1.135,2.125,3.683,3.683,0,0,1-.772,2.834,3.135,3.135,0,0,1-1.248.929,5.214,5.214,0,0,1-1.388.349,11.907,11.907,0,0,1-2.392.093,3.353,3.353,0,0,1-1.545-.488A1.281,1.281,0,0,1,160.1,119.377Z" transform="translate(-110.436 -52.702)" fill="#e0e0e0"/>
    <path id="Path_830" data-name="Path 830" d="M166.052,111.869h.175a1.876,1.876,0,0,1,.511.087,3.228,3.228,0,0,1,1.5,1.135,7.549,7.549,0,0,1,1.248,2.49,4.577,4.577,0,0,1,.186,1.659,3.634,3.634,0,0,1-.581,1.7,5.189,5.189,0,0,1-2.758,2,8.267,8.267,0,0,1-2.769.32,15.792,15.792,0,0,1-1.858-.2,2.7,2.7,0,0,1-.668-.151c0-.052.969.1,2.532.14a8.431,8.431,0,0,0,2.683-.366,5.028,5.028,0,0,0,2.6-1.91,3.426,3.426,0,0,0,.581-1.561,4.488,4.488,0,0,0-.157-1.561,7.937,7.937,0,0,0-1.161-2.438,3.27,3.27,0,0,0-1.376-1.161C166.3,111.91,166.046,111.91,166.052,111.869Z" transform="translate(-110.555 -52.568)" fill="#e0e0e0"/>
    <path id="Path_831" data-name="Path 831" d="M150.948,104.972,140.771,117.3l.778.842,16.517-2.514,8.186-12.326-.761-.685Z" transform="translate(-107.986 -51.394)" fill="#263238"/>
    <path id="Path_832" data-name="Path 832" d="M162.5,109.037h0a1.572,1.572,0,0,0-1.469,1,3.379,3.379,0,0,1-1,1.6,3.555,3.555,0,0,1-2.67.395c-.668-.325-3.332-2.729-3.8-2.462s-.865.873-.4,1.4,2.938,2.137,2.468,2.67-5.666-1.817-6.468-1.608-1.271.7-.8,1.022,4,1.655,4.2,2.119c0,0-5.342-1.4-5.539-1.063s-.534.865,0,1.063,5.138,1.405,5.539,1.6a9.549,9.549,0,0,0,2.056.581,21.981,21.981,0,0,1,2.148.679,4.706,4.706,0,0,0,3.318-.087l.54-.221a2.126,2.126,0,0,0,1.318-2.09l-.11-1.765.581-1.5Z" transform="translate(-108.741 -52.209)" fill="#ffbe9d"/>
    <path id="Path_833" data-name="Path 833" d="M166.4,103.472a1.548,1.548,0,0,1-.3.07l-.883.157-3.257.524-4.836.743-2.85.43a5.453,5.453,0,0,0-2.764,1.12,18.949,18.949,0,0,0-2.015,2.322q-.934,1.161-1.806,2.253l-3.071,3.82-2.09,2.549-.581.685a1.285,1.285,0,0,1-.215.226,1.137,1.137,0,0,1,.169-.262l.54-.72,2.015-2.607,3.025-3.842,1.794-2.264a18.158,18.158,0,0,1,2.049-2.358,5.73,5.73,0,0,1,2.9-1.161l2.862-.412,4.842-.679,3.268-.43.888-.1A1.132,1.132,0,0,1,166.4,103.472Z" transform="translate(-108.107 -51.503)" fill="#455a64"/>
    <path id="Path_834" data-name="Path 834" d="M161.057,106.6a1.308,1.308,0,0,0-.458.372.472.472,0,0,0,0,.552.51.51,0,0,0,.685,0,.674.674,0,0,0,.262-.395.475.475,0,0,0-.14-.441.36.36,0,0,0-.447,0" transform="translate(-110.488 -51.9)" fill="#fafafa"/>
  </g>
  <g id="freepik--character-1--inject-7" transform="translate(0 62.654)">
    <rect id="Rectangle_269" data-name="Rectangle 269" width="26.66" height="53.767" transform="translate(5.022 44.422)" fill="#455a64"/>
    <path id="Path_835" data-name="Path 835" d="M6.564,176.266h0A4.163,4.163,0,0,1,2.407,172.1v-45.32a4.163,4.163,0,0,1,4.157-4.163h0a4.162,4.162,0,0,1,4.191,4.134h0V172.1a4.162,4.162,0,0,1-4.163,4.163H6.564Z" transform="translate(-0.305 -78.199)" fill="#455a64"/>
    <path id="Path_836" data-name="Path 836" d="M9.659,125.1a.429.429,0,0,1,0,.134l.041.389c0,.377.07.883.122,1.521.1,1.341.232,3.24.4,5.574.313,4.737.737,11.234,1.208,18.41s.865,13.7,1.1,18.42a14.381,14.381,0,0,1-.691,5.544,7.64,7.64,0,0,1-.673,1.37l-.232.325a.557.557,0,0,1-.087.1,10.131,10.131,0,0,0,.883-1.841,14.743,14.743,0,0,0,.581-5.5c-.3-4.732-.72-11.228-1.161-18.4s-.824-13.678-1.115-18.4c-.127-2.322-.226-4.233-.3-5.579,0-.638-.052-1.161-.07-1.521v-.394A.3.3,0,0,1,9.659,125.1Z" transform="translate(-1.223 -78.513)" fill="#263238"/>
    <rect id="Rectangle_270" data-name="Rectangle 270" width="4.296" height="51.491" transform="translate(29.29 104.865)" fill="#455a64"/>
    <path id="Path_837" data-name="Path 837" d="M61.442,190.871H0A6.677,6.677,0,0,1,6.677,184.2H54.791a6.67,6.67,0,0,1,6.671,6.671Z" transform="translate(0 -86.006)" fill="#455a64"/>
    <path id="Path_838" data-name="Path 838" d="M39.232,191.966a22.643,22.643,0,0,1-3.768.157,22.717,22.717,0,0,1-3.774-.157,22.712,22.712,0,0,1,3.774-.157A22.638,22.638,0,0,1,39.232,191.966Z" transform="translate(-4.018 -86.968)" fill="#263238"/>
    <path id="Path_839" data-name="Path 839" d="M52.051,253.421h-.581a18.288,18.288,0,0,0-36.576,0h-.581a18.892,18.892,0,0,1,37.784,0Z" transform="translate(-1.815 -92.402)" fill="#455a64"/>
    <circle id="Ellipse_22" data-name="Ellipse 22" cx="2.834" cy="2.834" r="2.834" transform="translate(9.922 157.843)" fill="#263238"/>
    <path id="Path_840" data-name="Path 840" d="M59.746,255.495a2.834,2.834,0,1,1-2.834-2.834h0A2.834,2.834,0,0,1,59.746,255.495Z" transform="translate(-6.856 -94.685)" fill="#455a64"/>
    <path id="Path_841" data-name="Path 841" d="M52,250.784c0,.087-8.221.157-18.364.157s-18.338-.07-18.338-.157,8.221-.157,18.364-.157S52,250.7,52,250.784Z" transform="translate(-1.939 -94.427)" fill="#455a64"/>
    <path id="Path_842" data-name="Path 842" d="M25.062,184.064a6.24,6.24,0,0,1-.929.064l-2.532.064c-2.137.046-5.086.081-8.343.1l-4.6.035a15.559,15.559,0,0,0-3.7.331,6.183,6.183,0,0,0-2.241,1.068c-.471.355-.685.611-.708.581s.041-.075.145-.2a4.141,4.141,0,0,1,.487-.487A5.893,5.893,0,0,1,4.9,184.465a14.974,14.974,0,0,1,3.755-.406c1.405-.035,2.969-.041,4.592-.052,3.263,0,6.218-.029,8.354,0l2.532.029A5.121,5.121,0,0,1,25.062,184.064Z" transform="translate(-0.255 -85.979)" fill="#263238"/>
    <path id="Path_843" data-name="Path 843" d="M25.493,114.324h0c3.2,0,5.851-2.09,5.9-11.809,0-1.957-.058-3.652-.058-3.652s4.645-.418,4.958-4.89.081-14.862.081-14.862h0a15.989,15.989,0,0,0-15.98,1.057l-.708.471.228,21.995C19.913,105.719,22.34,114.324,25.493,114.324Z" transform="translate(-2.496 -72.474)" fill="#b78876"/>
    <path id="Path_844" data-name="Path 844" d="M32.188,101.607a10.764,10.764,0,0,1-5.851-2.021s1.2,3.31,5.806,3.181Z" transform="translate(-3.339 -75.279)" fill="#aa6550"/>
    <path id="Path_845" data-name="Path 845" d="M37.353,87.531a.632.632,0,0,1-.611.633.611.611,0,0,1-.66-.554v-.026a.632.632,0,0,1,.611-.633.572.572,0,0,1,.653.475v0A.516.516,0,0,1,37.353,87.531Z" transform="translate(-4.574 -73.676)" fill="#263238"/>
    <path id="Path_846" data-name="Path 846" d="M37.331,86.709c-.075.081-.581-.272-1.254-.267s-1.2.337-1.265.256.041-.186.262-.342a1.807,1.807,0,0,1,1.016-.307,1.734,1.734,0,0,1,1,.32C37.3,86.523,37.37,86.674,37.331,86.709Z" transform="translate(-4.411 -73.562)" fill="#263238"/>
    <path id="Path_847" data-name="Path 847" d="M29.621,87.715a.632.632,0,0,1-.611.633.581.581,0,0,1-.656-.493.587.587,0,0,1-.006-.087.632.632,0,0,1,.611-.633.611.611,0,0,1,.66.554Z" transform="translate(-3.594 -73.7)" fill="#263238"/>
    <path id="Path_848" data-name="Path 848" d="M29.549,86.855c-.081.081-.581-.272-1.254-.272s-1.2.342-1.271.262.046-.186.267-.342a1.778,1.778,0,0,1,1.016-.307,1.739,1.739,0,0,1,1,.313C29.549,86.669,29.611,86.811,29.549,86.855Z" transform="translate(-3.423 -73.581)" fill="#263238"/>
    <path id="Path_849" data-name="Path 849" d="M32.755,91.871a4.437,4.437,0,0,1,1.12-.2c.175,0,.342-.052.372-.175a.908.908,0,0,0-.116-.511c-.169-.418-.342-.853-.524-1.31a21.772,21.772,0,0,1-1.161-3.437,22.543,22.543,0,0,1,1.444,3.338l.5,1.318a.986.986,0,0,1,.093.679.443.443,0,0,1-.29.25.983.983,0,0,1-.3.041A4.7,4.7,0,0,1,32.755,91.871Z" transform="translate(-4.113 -73.587)" fill="#263238"/>
    <path id="Path_850" data-name="Path 850" d="M30.462,93.221c.116,0,.116.726.754,1.248s1.44.437,1.446.54-.18.145-.517.157a1.9,1.9,0,0,1-1.2-.412,1.59,1.59,0,0,1-.581-1.048C30.328,93.4,30.415,93.215,30.462,93.221Z" transform="translate(-3.848 -74.472)" fill="#263238"/>
    <path id="Path_851" data-name="Path 851" d="M29.684,83.849c-.07.18-.761.093-1.572.191s-1.463.307-1.572.145.07-.25.331-.43a2.777,2.777,0,0,1,2.392-.256C29.557,83.613,29.713,83.762,29.684,83.849Z" transform="translate(-3.361 -73.219)" fill="#263238"/>
    <path id="Path_852" data-name="Path 852" d="M37.072,84.465c-.122.157-.581,0-1.161,0s-1.057.1-1.161-.058c-.052-.075,0-.232.238-.377a1.746,1.746,0,0,1,1.881.058C37.062,84.234,37.124,84.389,37.072,84.465Z" transform="translate(-4.403 -73.275)" fill="#263238"/>
    <path id="Path_853" data-name="Path 853" d="M36.261,77.511a4.519,4.519,0,0,0-.7-1.951,1.933,1.933,0,0,0-.238-2.008,1.98,1.98,0,0,0-2.707-.145h-.035a1.056,1.056,0,0,0-.325-1.271,2.435,2.435,0,0,0-1.579-.372,22.583,22.583,0,0,0-5.327,1.527L25,73.355a9.789,9.789,0,0,0-4.255,1.834A9.126,9.126,0,0,0,18.083,79.9a17.017,17.017,0,0,0-.122,6.671c.581-.493,2.525-1.746,2.816-1.048a4.082,4.082,0,0,1,.151,1.254,1.08,1.08,0,0,0,.638,1.01.847.847,0,0,0,.883-.389,1.953,1.953,0,0,0,.285-.975c.11-1.4-.238-2.8,0-4.186a5.138,5.138,0,0,1,5.882-4.262c.066.01.134.023.2.036a10.786,10.786,0,0,0,2.5.511c1.223-.046,2.479-.929,3.588-.4.215.1.437.209.644.331.418.244.627.488.726.267A4,4,0,0,0,36.261,77.511Z" transform="translate(-2.245 -71.75)" fill="#263238"/>
    <path id="Path_854" data-name="Path 854" d="M20.651,86.756c-.087,0-2.9-.389-2.63,2.862s3.53,1.91,3.524,1.817S20.651,86.756,20.651,86.756Z" transform="translate(-2.282 -73.65)" fill="#b78876"/>
    <path id="Path_855" data-name="Path 855" d="M20.561,90.534a.9.9,0,0,1-.145.1.584.584,0,0,1-.437.041,1.4,1.4,0,0,1-.737-1.2,1.811,1.811,0,0,1,.093-.824.669.669,0,0,1,.4-.471.3.3,0,0,1,.355.127c.052.087.035.157.052.162s.07-.064.029-.2a.381.381,0,0,0-.145-.191.434.434,0,0,0-.325-.058.812.812,0,0,0-.581.552A1.913,1.913,0,0,0,19,89.5a1.484,1.484,0,0,0,.961,1.335.626.626,0,0,0,.524-.127C20.561,90.615,20.57,90.54,20.561,90.534Z" transform="translate(-2.407 -73.811)" fill="#aa6550"/>
    <path id="Path_856" data-name="Path 856" d="M54.762,242.051l2.532-3.547-9.742-6.85-4.029,5.475.581.476c2.5,2.113,12.86,10.561,15,11.362C61.458,249.852,54.762,242.051,54.762,242.051Z" transform="translate(-5.518 -92.022)" fill="#008083"/>
    <g id="Group_46" data-name="Group 46" transform="translate(38.14 142.353)" opacity="0.5">
      <path id="Path_857" data-name="Path 857" d="M47.015,240.036a4.061,4.061,0,0,0,.395-2.9,3.524,3.524,0,0,0-1.817-2.363l-1.916,2.62Z" transform="translate(-43.677 -234.77)" fill="#fff"/>
    </g>
    <g id="Group_47" data-name="Group 47" transform="translate(38.004 144.91)" opacity="0.5">
      <path id="Path_858" data-name="Path 858" d="M57.932,246.752s2.212,2.9,1.521,3.106S47.969,241.9,43.522,237.9l.169-.2L56.2,247.312S57.363,246.358,57.932,246.752Z" transform="translate(-43.522 -237.698)" fill="#fff"/>
    </g>
    <path id="Path_859" data-name="Path 859" d="M43.548,237.575l.151.14.447.377,1.659,1.37c1.411,1.161,3.385,2.707,5.6,4.384s4.25,3.152,5.736,4.2l1.742,1.231.487.325a.755.755,0,0,0,.175.1s-.052-.046-.157-.128l-.471-.349-1.742-1.265c-1.469-1.068-3.483-2.549-5.707-4.226s-4.145-3.257-5.6-4.36l-1.69-1.335-.465-.36A.686.686,0,0,0,43.548,237.575Z" transform="translate(-5.521 -92.772)" fill="#263238"/>
    <path id="Path_860" data-name="Path 860" d="M57.909,248.754a2.891,2.891,0,0,1,2-.778,1.573,1.573,0,0,0-1.126.064A1.5,1.5,0,0,0,57.909,248.754Z" transform="translate(-7.341 -94.081)" fill="#263238"/>
    <path id="Path_861" data-name="Path 861" d="M55.915,244.832c0,.041.267,0,.581-.128s.524-.226.517-.262a1.059,1.059,0,0,0-.581.128C56.117,244.7,55.9,244.78,55.915,244.832Z" transform="translate(-7.088 -93.643)" fill="#263238"/>
    <path id="Path_862" data-name="Path 862" d="M55.383,243.735c0,.041.226.058.493.035a.963.963,0,0,0,.487-.1c0-.041-.226-.059-.5-.035S55.377,243.7,55.383,243.735Z" transform="translate(-7.021 -93.539)" fill="#263238"/>
    <path id="Path_863" data-name="Path 863" d="M55.582,242.336a2.644,2.644,0,0,0,.447.437c.272.209.511.355.534.32s-.18-.221-.447-.43A1.448,1.448,0,0,0,55.582,242.336Z" transform="translate(-7.046 -93.376)" fill="#263238"/>
    <path id="Path_864" data-name="Path 864" d="M55.928,241.485a1.334,1.334,0,0,0,.43.581,1.2,1.2,0,0,0,.627.355,6.37,6.37,0,0,0-.534-.458C56.166,241.711,55.958,241.462,55.928,241.485Z" transform="translate(-7.09 -93.268)" fill="#263238"/>
    <path id="Path_865" data-name="Path 865" d="M56.969,244.193a2.251,2.251,0,0,0,.581.453A4.135,4.135,0,0,0,58.3,245a2.148,2.148,0,0,0,.482.134.425.425,0,0,0,.29-.07.3.3,0,0,0,.087-.307,1.4,1.4,0,0,0-1.887-.623h0a1.427,1.427,0,0,0-.232.147c-.1.081-.14.14-.134.151a2.125,2.125,0,0,1,.662-.3,1.376,1.376,0,0,1,.767.064,1.161,1.161,0,0,1,.685.581c.046.145-.075.226-.232.209a2.03,2.03,0,0,1-.447-.116,5.163,5.163,0,0,1-.749-.313C57.213,244.347,56.981,244.193,56.969,244.193Z" transform="translate(-7.215 -93.584)" fill="#263238"/>
    <path id="Path_866" data-name="Path 866" d="M57.1,244.15a.815.815,0,0,0,.383-.36,1.106,1.106,0,0,0,.162-.581.762.762,0,0,0-.272-.685.3.3,0,0,0-.395.134.784.784,0,0,0-.1.342,2.308,2.308,0,0,0,0,.581,1.032,1.032,0,0,0,.169.5,4.365,4.365,0,0,1-.064-.511,3.072,3.072,0,0,1,0-.581c0-.186.127-.458.3-.366s.2.366.209.581a1.324,1.324,0,0,1-.122.517A2.441,2.441,0,0,1,57.1,244.15Z" transform="translate(-7.208 -93.396)" fill="#263238"/>
    <path id="Path_867" data-name="Path 867" d="M45.962,234.83a4.634,4.634,0,0,1,.679.552,3.913,3.913,0,0,1,1.063,1.742,3.75,3.75,0,0,1-.046,2.038c-.157.5-.342.786-.32.8a.707.707,0,0,0,.14-.186,2.751,2.751,0,0,0,.272-.581,3.478,3.478,0,0,0,.087-2.1,3.683,3.683,0,0,0-1.126-1.806,3.364,3.364,0,0,0-.524-.377C46.049,234.857,45.968,234.817,45.962,234.83Z" transform="translate(-5.827 -92.424)" fill="#263238"/>
    <path id="Path_868" data-name="Path 868" d="M49.652,240.793a6.458,6.458,0,0,0,1.278,1.161,6.757,6.757,0,0,0,1.463.934c0-.035-.621-.465-1.376-1.048S49.681,240.764,49.652,240.793Z" transform="translate(-6.295 -93.18)" fill="#263238"/>
    <path id="Path_869" data-name="Path 869" d="M47.511,239.191c-.041,0-.046.162-.087.349s-.1.337-.064.36.157-.11.2-.325S47.548,239.185,47.511,239.191Z" transform="translate(-6.003 -92.977)" fill="#263238"/>
    <path id="Path_870" data-name="Path 870" d="M47.465,237.609c-.041,0-.052.151-.029.32s.075.307.116.3.052-.145,0-.32S47.5,237.609,47.465,237.609Z" transform="translate(-6.012 -92.777)" fill="#263238"/>
    <path id="Path_871" data-name="Path 871" d="M46.66,236.3c0,.041.11.134.215.285s.145.3.186.3.058-.191-.07-.377S46.671,236.251,46.66,236.3Z" transform="translate(-5.915 -92.609)" fill="#263238"/>
    <path id="Path_872" data-name="Path 872" d="M46.007,235.474c-.035,0,0,.11.041.2s.127.145.162.127,0-.11-.041-.2S46.042,235.456,46.007,235.474Z" transform="translate(-5.831 -92.505)" fill="#263238"/>
    <g id="Group_48" data-name="Group 48" transform="translate(40.414 141.035)" opacity="0.3">
      <path id="Path_873" data-name="Path 873" d="M46.281,234.049l9.846,6.787.29-.377-9.574-7.2Z" transform="translate(-46.281 -233.26)"/>
    </g>
    <path id="Path_874" data-name="Path 874" d="M108.765,255.788l-.912-4.157-11.321,2.593,1.324,6.5.714-.087c3.164-.43,16.067-2.4,18.044-3.426C118.819,256.067,108.765,255.788,108.765,255.788Z" transform="translate(-12.238 -94.554)" fill="#008083"/>
    <g id="Group_49" data-name="Group 49" transform="translate(84.974 162.673)" opacity="0.5">
      <path id="Path_875" data-name="Path 875" d="M102.06,260.659a4.01,4.01,0,0,0-1.846-2.177,3.408,3.408,0,0,0-2.9-.215l.644,3.106Z" transform="translate(-97.311 -258.04)" fill="#fff"/>
    </g>
    <g id="Group_50" data-name="Group 50" transform="translate(85.589 161.535)" opacity="0.5">
      <path id="Path_876" data-name="Path 876" d="M113.9,256.737s3.565.307,3.246.934-13.283,3.1-19.1,3.7l-.029-.25,15.153-2.758S113.242,256.888,113.9,256.737Z" transform="translate(-98.015 -256.737)" fill="#fff"/>
    </g>
    <path id="Path_877" data-name="Path 877" d="M97.808,261.257h.2l.581-.075,2.084-.307c1.742-.272,4.174-.679,6.839-1.161s5.065-1.016,6.793-1.405l2.049-.476.581-.14.191-.058a.944.944,0,0,0-.2.029l-.581.116-2.056.437c-1.746.366-4.139.859-6.8,1.364s-5.074.929-6.828,1.223l-2.073.349-.581.1Z" transform="translate(-12.4 -95.315)" fill="#263238"/>
    <path id="Path_878" data-name="Path 878" d="M115.391,258.517a4.3,4.3,0,0,1,.2-1.039,5.133,5.133,0,0,1,.581-.912,1.6,1.6,0,0,0-.685.859A1.5,1.5,0,0,0,115.391,258.517Z" transform="translate(-14.621 -95.18)" fill="#263238"/>
    <path id="Path_879" data-name="Path 879" d="M111.2,257.47a1.35,1.35,0,0,0,.279-.5,1.157,1.157,0,0,0,.145-.54,1.282,1.282,0,0,0-.279.493A1.161,1.161,0,0,0,111.2,257.47Z" transform="translate(-14.097 -95.163)" fill="#263238"/>
    <path id="Path_880" data-name="Path 880" d="M110.04,257.165a1.18,1.18,0,0,0,.349-.337c.162-.209.273-.4.244-.424s-.191.128-.355.337S110.011,257.142,110.04,257.165Z" transform="translate(-13.95 -95.159)" fill="#263238"/>
    <path id="Path_881" data-name="Path 881" d="M109.144,256.159a1.378,1.378,0,0,0,.611-.041,1.333,1.333,0,0,0,.581-.175,1.464,1.464,0,0,0-.581.041A1.447,1.447,0,0,0,109.144,256.159Z" transform="translate(-13.837 -95.099)" fill="#263238"/>
    <path id="Path_882" data-name="Path 882" d="M108.758,255.371a1.7,1.7,0,0,0,1.359-.157,4.043,4.043,0,0,0-.679.081A3.7,3.7,0,0,0,108.758,255.371Z" transform="translate(-13.788 -95.008)" fill="#263238"/>
    <path id="Path_883" data-name="Path 883" d="M111.431,256.234a2.34,2.34,0,0,0,.726-.145,4.7,4.7,0,0,0,.743-.313,2.33,2.33,0,0,0,.412-.267.372.372,0,0,0,.14-.256.291.291,0,0,0-.162-.267,1.381,1.381,0,0,0-1.585.7,1.235,1.235,0,0,0-.145.524v.2a1.872,1.872,0,0,1,.215-.673,1.309,1.309,0,0,1,.546-.517,1.2,1.2,0,0,1,.883-.11c.134.064.11.2,0,.307a2.638,2.638,0,0,1-.377.25,4.746,4.746,0,0,1-.72.331C111.7,256.16,111.425,256.215,111.431,256.234Z" transform="translate(-14.127 -94.973)" fill="#263238"/>
    <path id="Path_884" data-name="Path 884" d="M111.482,256.242a.689.689,0,0,0,0-.511,1.161,1.161,0,0,0-.3-.487.757.757,0,0,0-.679-.25.3.3,0,0,0-.162.371.785.785,0,0,0,.186.3,2.207,2.207,0,0,0,.43.371,1.1,1.1,0,0,0,.471.209,4.665,4.665,0,0,0-.412-.29,2.519,2.519,0,0,1-.389-.371c-.127-.134-.25-.389-.07-.458s.4.093.54.215a1.169,1.169,0,0,1,.29.424A2.055,2.055,0,0,1,111.482,256.242Z" transform="translate(-13.987 -94.98)" fill="#263238"/>
    <path id="Path_885" data-name="Path 885" d="M97.409,258.208c0,.029.32-.093.848-.128a3.789,3.789,0,0,1,1.968.389,3.641,3.641,0,0,1,1.446,1.364c.267.447.342.761.372.754a.8.8,0,0,0-.046-.226,2.494,2.494,0,0,0-.238-.581,3.5,3.5,0,0,0-4.134-1.672A1.153,1.153,0,0,0,97.409,258.208Z" transform="translate(-12.349 -95.355)" fill="#263238"/>
    <path id="Path_886" data-name="Path 886" d="M104.144,259.431a9.778,9.778,0,0,0,3.327-.581c0-.041-.743.145-1.659.313S104.144,259.367,104.144,259.431Z" transform="translate(-13.203 -95.469)" fill="#263238"/>
    <path id="Path_887" data-name="Path 887" d="M101.6,259.967a1.368,1.368,0,0,0,.2.3c.11.151.175.29.215.285s0-.191-.1-.366S101.616,259.938,101.6,259.967Z" transform="translate(-12.88 -95.61)" fill="#263238"/>
    <path id="Path_888" data-name="Path 888" d="M100.394,258.982a.518.518,0,0,0,.209.226c.139.1.273.145.3.11s-.075-.134-.215-.226S100.429,258.948,100.394,258.982Z" transform="translate(-12.728 -95.485)" fill="#263238"/>
    <path id="Path_889" data-name="Path 889" d="M98.938,258.685c0,.041.162,0,.342.035s.313.087.337.058-.1-.169-.32-.191S98.914,258.661,98.938,258.685Z" transform="translate(-12.543 -95.436)" fill="#263238"/>
    <path id="Path_890" data-name="Path 890" d="M97.908,258.638c0,.035.07.081.169.1s.191,0,.2-.035-.07-.081-.169-.1S97.914,258.6,97.908,258.638Z" transform="translate(-12.412 -95.436)" fill="#263238"/>
    <g id="Group_51" data-name="Group 51" transform="translate(84.621 159.131)" opacity="0.3">
      <path id="Path_891" data-name="Path 891" d="M97.113,257.125l11.358-2.683-.087-.458L96.906,256.2Z" transform="translate(-96.906 -253.984)"/>
    </g>
    <path id="Path_892" data-name="Path 892" d="M76.792,140.313a11.063,11.063,0,0,1,2.264-2.159c.32-.1,6-2.473,6.107-2.212s.786,1.561-.372,2.177l-.894.3,3.263.267s3.634,2.683,3.58,3.263-.524.947-.842.679.842,1.846.842,1.846,0,.894-.476.737a4.437,4.437,0,0,1-1.214-1s.685,1.109.476,1.318-1.26.262-1.37,0-.262-.737-.262-.737l-.633.052v.894l-9.632.3Z" transform="translate(-9.735 -79.885)" fill="#aa6550"/>
    <path id="Path_893" data-name="Path 893" d="M33.609,110.514l2.944,3.478L48.31,134.579l22.939,2.27.5,6.636-26.422,2.5-14.743-26.7Z" transform="translate(-3.877 -76.664)" fill="#e0e0e0"/>
    <path id="Path_894" data-name="Path 894" d="M33.039,119.513l-2.276-8.586-.046-2.794-12.773-5.81L15.5,105.378l.3.157c-1.01,1.057-8.424,9.082-8,15.031.4,5.342,11.646,38.98,11.646,38.98l25.62-7.49Z" transform="translate(-0.986 -75.625)" fill="#ebebeb"/>
    <path id="Path_895" data-name="Path 895" d="M33.677,112.309l-.72,3.518,1.876,3.518v2.607L48.256,153.3l3.971,1.335.677-2.69s-11.177-19.083-13.11-24.45S35,114.387,35,114.387Z" transform="translate(-4.178 -76.892)" fill="#008083"/>
    <path id="Path_896" data-name="Path 896" d="M10.445,128.771c0,.337,23.14,22.694,23.14,22.694l31.261-6.12-1-6.671-21.342.581a6.275,6.275,0,0,1-5.614-2.532L22.124,117.565C21.8,117.09,10.445,128.771,10.445,128.771Z" transform="translate(-1.324 -77.556)" fill="#ebebeb"/>
    <path id="Path_897" data-name="Path 897" d="M63.9,138.5s.029.134.075.418.122.714.209,1.265l.786,4.977v.058h-.058l-24.965,4.825-2.056.395a9.439,9.439,0,0,1-2.154.191,8.681,8.681,0,0,1-6.044-2.735c-.524-.581-1.016-1.161-1.533-1.742q-1.544-1.746-3.124-3.588c-4.233-4.866-8.709-10.026-13.353-15.369h0l-.093-.244a10.132,10.132,0,0,1-.754-3.6,6.657,6.657,0,0,1,.894-3.524,7.445,7.445,0,0,1,2.572-2.49,7.988,7.988,0,0,1,3.332-1.144,6.384,6.384,0,0,1,3.406.611,8.835,8.835,0,0,1,2.659,2.107,28.326,28.326,0,0,1,2.015,2.624l1.859,2.613c2.49,3.426,4.952,6.607,7.335,9.527l1.742,2.137a19.461,19.461,0,0,0,1.776,1.968,4.155,4.155,0,0,0,2.282.934,18.141,18.141,0,0,0,2.445.064l15.2-.232,4.116-.052h1.048l-1.085.035-4.134.1-15.142.342a17.64,17.64,0,0,1-2.468-.058,4.415,4.415,0,0,1-2.409-.979,19.082,19.082,0,0,1-1.811-1.991l-1.742-2.137c-2.392-2.9-4.866-6.1-7.361-9.518-.621-.859-1.243-1.742-1.876-2.613a28.642,28.642,0,0,0-2-2.589,8.546,8.546,0,0,0-2.589-2,6.063,6.063,0,0,0-3.251-.581A7.628,7.628,0,0,0,11.964,120a6.305,6.305,0,0,0-.853,3.362,9.862,9.862,0,0,0,.732,3.483c.035.081.064.162.093.238v-.041l13.353,15.374,3.117,3.6c.517.581,1.016,1.161,1.527,1.742a8.383,8.383,0,0,0,5.851,2.659,9.03,9.03,0,0,0,2.1-.18l2.056-.389L64.9,145.151l-.052.07c-.307-2.159-.546-3.82-.708-4.952l-.175-1.289C63.913,138.65,63.9,138.5,63.9,138.5Z" transform="translate(-1.373 -77.38)" fill="#455a64"/>
    <path id="Path_898" data-name="Path 898" d="M31.874,108.606c.029,0-.087.581-.2,1.572a33.216,33.216,0,0,1-.581,4.139l-.035.175L30.9,114.4l-4.541-2.641c-2.63-1.533-5-2.9-6.717-3.954l-2.021-1.223a4.89,4.89,0,0,1-.72-.487,4.985,4.985,0,0,1,.778.383l2.067,1.161c1.742.982,4.134,2.322,6.764,3.873l4.552,2.665-.2.081c.377-1.659.476-3.106.656-4.1.081-.5.157-.888.226-1.161A1.755,1.755,0,0,1,31.874,108.606Z" transform="translate(-2.143 -76.104)" fill="#455a64"/>
    <path id="Path_899" data-name="Path 899" d="M85.031,141.535l-5.579-1.527-4.645,2.322h-2.63l-.418.169.749,5,.662.093a6.394,6.394,0,0,0,2.218.842,7.444,7.444,0,0,0,3.628-.633l2.95-1.631,2.107-.581,1.579.918a6.266,6.266,0,0,1,.157.842c0,.209.581.471.894.471s.418-.737.418-.737l-.366-1.572.737.679h1.841v-1.161Z" transform="translate(-9.097 -80.403)" fill="#b78876"/>
    <path id="Path_900" data-name="Path 900" d="M69.259,183.715l-24.042,42.8,12.848,8.715,21.249-37.714-3.58-13.8Z" transform="translate(-5.732 -85.944)" fill="#263238"/>
    <path id="Path_901" data-name="Path 901" d="M21.06,166.747s-2.758,11.614,4.732,13.992,46.446,3.594,46.446,3.594l14.48,59.8,12.4-1.742L88.425,178.3a10.851,10.851,0,0,0-8.779-8.8c-11.554-2.067-32.484-5.858-32.768-6.282-.395-.581-1.974-3.942-1.974-3.942Z" transform="translate(-2.607 -82.846)" fill="#263238"/>
    <path id="Path_902" data-name="Path 902" d="M82.338,206.1a1.573,1.573,0,0,1-.127-.307c-.075-.209-.175-.511-.285-.912-.232-.786-.517-1.957-.818-3.4s-.651-3.176-1.039-5.074a27.651,27.651,0,0,0-1.806-6.025,4.1,4.1,0,0,0-2.131-2.235,16.132,16.132,0,0,0-2.95-.644c-1.927-.267-3.675-.395-5.144-.487s-2.665-.134-3.483-.169l-.947-.041a1.169,1.169,0,0,1-.331,0,1.171,1.171,0,0,1,.331-.029h.952c.824,0,2.021,0,3.483.07s3.231.169,5.167.424a16.022,16.022,0,0,1,3.015.641,3.812,3.812,0,0,1,.749.377,3.693,3.693,0,0,1,.627.581,6.45,6.45,0,0,1,.923,1.429,27.042,27.042,0,0,1,1.806,6.1c.389,1.916.691,3.64.975,5.086s.528,2.613.72,3.413S82.338,206.09,82.338,206.1Z" transform="translate(-8.022 -86.333)" fill="#455a64"/>
  </g>
  <g id="freepik--Desk--inject-7" transform="translate(61.047 106.196)">
    <path id="Path_903" data-name="Path 903" d="M224.651,151.427,69.927,150.87l-.017,4.6,9.185.029-.321,89.478,3.246.011.32-89.478,127.848.458-.323,89.483,3.246.006.32-89.478,11.205.041Z" transform="translate(-69.91 -125.323)" fill="#455a64"/>
    <path id="Path_904" data-name="Path 904" d="M186.254,122.431l8.586,25.081H233.7l-.285-1.289-15.718-.487-7.24-23.315Z" transform="translate(-84.66 -121.716)" fill="#e0e0e0"/>
    <path id="Path_905" data-name="Path 905" d="M205.549,135.709a1.79,1.79,0,0,1-.987,2.253,1.71,1.71,0,0,1-1.91-1.475,1.778,1.778,0,0,1,.982-2.247A1.718,1.718,0,0,1,205.549,135.709Z" transform="translate(-86.725 -123.213)" fill="#fff"/>
    <path id="Path_906" data-name="Path 906" d="M135.579,121.624l-8.586,25.081H88.134l.285-1.289,15.718-.487,7.24-23.315Z" transform="translate(-72.22 -121.614)" fill="#e0e0e0"/>
    <path id="Path_907" data-name="Path 907" d="M122.725,134.9a1.78,1.78,0,0,0,.987,2.247,1.711,1.711,0,0,0,1.91-1.469,1.793,1.793,0,0,0-.981-2.253A1.721,1.721,0,0,0,122.725,134.9Z" transform="translate(-76.592 -123.11)" fill="#fff"/>
    <circle id="Ellipse_23" data-name="Ellipse 23" cx="4.755" cy="4.755" r="4.755" transform="translate(74.365 11.558)" fill="#455a64"/>
    <rect id="Rectangle_271" data-name="Rectangle 271" width="31.072" height="11.356" transform="translate(63.59 14.441)" fill="#e0e0e0"/>
    <path id="Path_908" data-name="Path 908" d="M154.939,141.716a43.189,43.189,0,0,1-5.065.151,43.19,43.19,0,0,1-5.065-.151,41.723,41.723,0,0,1,5.065-.151A41.723,41.723,0,0,1,154.939,141.716Z" transform="translate(-79.405 -124.141)" fill="#263238"/>
    <path id="Path_909" data-name="Path 909" d="M154.939,143.583a43.189,43.189,0,0,1-5.065.151,43.19,43.19,0,0,1-5.065-.151,41.032,41.032,0,0,1,5.065-.157A41.032,41.032,0,0,1,154.939,143.583Z" transform="translate(-79.405 -124.377)" fill="#263238"/>
    <path id="Path_910" data-name="Path 910" d="M154.939,145.446a41.719,41.719,0,0,1-5.065.151,41.72,41.72,0,0,1-5.065-.151,43.2,43.2,0,0,1,5.065-.151A43.2,43.2,0,0,1,154.939,145.446Z" transform="translate(-79.405 -124.614)" fill="#263238"/>
    <path id="Path_911" data-name="Path 911" d="M154.939,147.314a41.726,41.726,0,0,1-5.065.151,41.726,41.726,0,0,1-5.065-.151,43.193,43.193,0,0,1,5.065-.151A43.193,43.193,0,0,1,154.939,147.314Z" transform="translate(-79.405 -124.851)" fill="#263238"/>
    <path id="Path_912" data-name="Path 912" d="M162.865,149.266a48.331,48.331,0,0,1-.151-5.452,48.44,48.44,0,0,1,.151-5.458,50.142,50.142,0,0,1,.151,5.458A50.024,50.024,0,0,1,162.865,149.266Z" transform="translate(-81.673 -123.737)" fill="#263238"/>
  </g>
</svg>
