<svg id="Group_5816" data-name="Group 5816" xmlns="http://www.w3.org/2000/svg" width="296.78" height="252.085" viewBox="0 0 296.78 252.085">
  <g id="freepik--Shadow--inject-14" transform="translate(0 234.757)">
    <ellipse id="freepik--path--inject-14" cx="148.39" cy="8.664" rx="148.39" ry="8.664" fill="#f5f5f5"/>
  </g>
  <path id="Path_913" data-name="Path 913" d="M278.327.017h-19.9L238.392,229.081h19.9A18.577,18.577,0,0,0,276.467,212.4l17.121-195.71A15.037,15.037,0,0,0,278.327.017Z" transform="translate(-26.426 -0.001)" fill="#008083"/>
  <path id="Path_914" data-name="Path 914" d="M296.979,25.65a1.779,1.779,0,0,1,1.737-1.592,1.439,1.439,0,0,1,1.47,1.407h0a1.272,1.272,0,0,1-.008.184L298.839,41a1.791,1.791,0,0,1-1.745,1.6,1.439,1.439,0,0,1-1.464-1.413A1.468,1.468,0,0,1,295.64,41Z" transform="translate(-32.771 -2.667)" fill="#008083"/>
  <path id="Path_915" data-name="Path 915" d="M296.979,25.65a1.779,1.779,0,0,1,1.737-1.592,1.439,1.439,0,0,1,1.47,1.407h0a1.272,1.272,0,0,1-.008.184L298.839,41a1.791,1.791,0,0,1-1.745,1.6,1.439,1.439,0,0,1-1.464-1.413A1.468,1.468,0,0,1,295.64,41Z" transform="translate(-32.771 -2.667)" fill="#fff" opacity="0.3" style="mix-blend-mode: normal;isolation: isolate"/>
  <path id="Path_916" data-name="Path 916" d="M244.075,229.088H162.184A15.048,15.048,0,0,1,146.962,212.4l17.121-195.71A18.574,18.574,0,0,1,182.221.017h81.891a15.04,15.04,0,0,1,15.222,16.677L262.213,212.4A18.574,18.574,0,0,1,244.075,229.088Z" transform="translate(-16.281 -0.002)" fill="#263238"/>
  <path id="Path_917" data-name="Path 917" d="M264.261,4.321H242.978a3.061,3.061,0,0,0-2.962,2.418l-.146.666a7.546,7.546,0,0,1-7.224,5.908H212.41a6.123,6.123,0,0,1-6.191-5.908V6.739a2.48,2.48,0,0,0-2.533-2.418H182.379A14.3,14.3,0,0,0,168.4,17.169l-17.121,195.71a11.588,11.588,0,0,0,10.254,12.782,11.453,11.453,0,0,0,1.472.068h81.891a14.3,14.3,0,0,0,13.975-12.85L275.99,17.169A11.584,11.584,0,0,0,264.261,4.321Z" transform="translate(-16.761 -0.479)" fill="#008083"/>
  <path id="Path_918" data-name="Path 918" d="M264.261,4.321H242.978a3.061,3.061,0,0,0-2.962,2.418l-.146.666a7.546,7.546,0,0,1-7.224,5.908H212.41a6.123,6.123,0,0,1-6.191-5.908V6.739a2.48,2.48,0,0,0-2.533-2.418H182.379A14.3,14.3,0,0,0,168.4,17.169l-17.121,195.71a11.588,11.588,0,0,0,10.254,12.782,11.453,11.453,0,0,0,1.472.068h81.891a14.3,14.3,0,0,0,13.975-12.85L275.99,17.169A11.584,11.584,0,0,0,264.261,4.321Z" transform="translate(-16.761 -0.479)" fill="#fff" opacity="0.8" style="mix-blend-mode: normal;isolation: isolate"/>
  <g id="Group_53" data-name="Group 53" transform="translate(198.152 4.377)" opacity="0.6">
    <path id="Path_919" data-name="Path 919" d="M226.116,6.554a1.807,1.807,0,0,1-1.768,1.623,1.469,1.469,0,0,1-1.492-1.446h0a1.48,1.48,0,0,1,.008-.178,1.813,1.813,0,0,1,1.768-1.63,1.465,1.465,0,0,1,1.494,1.436,1.408,1.408,0,0,1-.009.194Z" transform="translate(-222.856 -4.923)"/>
    <path id="Path_920" data-name="Path 920" d="M238.74,4.923h-5.579a1.807,1.807,0,0,0-1.768,1.63,1.463,1.463,0,0,0,1.292,1.614,1.4,1.4,0,0,0,.193.008h5.571a1.806,1.806,0,0,0,1.768-1.623,1.462,1.462,0,0,0-1.283-1.621h0A1.757,1.757,0,0,0,238.74,4.923Z" transform="translate(-223.801 -4.923)"/>
  </g>
  <path id="Path_921" data-name="Path 921" d="M180.946,14.177h1.722l.153-1.722H181.1Z" transform="translate(-20.058 -1.381)" fill="#008083"/>
  <path id="Path_922" data-name="Path 922" d="M184.972,12.24l-.153,1.722h1.722l.153-1.722.153-1.722h-1.722Z" transform="translate(-20.487 -1.166)" fill="#008083"/>
  <path id="Path_923" data-name="Path 923" d="M189.144,8.582,189,10.3l-.153,1.722-.153,1.722h1.722l.153-1.722.153-1.722.146-1.722Z" transform="translate(-20.917 -0.951)" fill="#008083"/>
  <path id="Path_924" data-name="Path 924" d="M272.331,8.711l-.115,1.263h-.844L271.15,12.5h.842l-.108,1.263h7.579l.445-5.051Zm3.061,3.823h-2.525l.222-2.525h2.525Z" transform="translate(-30.057 -0.966)" fill="#008083"/>
  <path id="Path_925" data-name="Path 925" d="M259.062,122.85H171.2a4.416,4.416,0,0,1-4.47-4.9l5.3-60.662a5.457,5.457,0,0,1,5.357-4.9H265.23a4.423,4.423,0,0,1,4.495,4.351h0a4.319,4.319,0,0,1-.025.547l-5.312,60.66A5.45,5.45,0,0,1,259.062,122.85Z" transform="translate(-18.48 -5.808)" fill="#fff" opacity="0.5" style="mix-blend-mode: normal;isolation: isolate"/>
  <path id="Path_926" data-name="Path 926" d="M171.2,124.856h87.86a5.457,5.457,0,0,0,5.357-4.9L267.413,85.8l-2.081,3.823-2.074,3.823h-1.778l-1.408-3.823-2.49-11.48L254.6,72.4h-3.49l-1.576-1.913h-5.223l-3.823,3.823-1.408-3.823h-3.46l-2.074,3.823-1.408-3.823-2.25,5.74-1.918,1.914-1.905,1.913h-3.483l-1.913,1.91-2.081,3.823-3.652,1.922L211.6,85.8H208.06l-2.074,3.823-1.579-1.91H202.7l-1.913,1.913-1.913,1.913L197.3,89.631H193.82L192.4,85.807l-2.074,3.823-2.081,3.823-2.074,3.823-3.823,3.823L179.2,97.277l-3.823,3.823-3.823,3.823h-3.49l-1.322,15.034a4.416,4.416,0,0,0,3.905,4.873h0A4.492,4.492,0,0,0,171.2,124.856Z" transform="translate(-18.48 -7.814)" fill="#008083"/>
  <path id="Path_927" data-name="Path 927" d="M171.2,124.856h87.86a5.457,5.457,0,0,0,5.357-4.9L267.413,85.8l-2.081,3.823-2.074,3.823h-1.778l-1.408-3.823-2.49-11.48L254.6,72.4h-3.49l-1.576-1.913h-5.223l-3.823,3.823-1.408-3.823h-3.46l-2.074,3.823-1.408-3.823-2.25,5.74-1.918,1.914-1.905,1.913h-3.483l-1.913,1.91-2.081,3.823-3.652,1.922L211.6,85.8H208.06l-2.074,3.823-1.579-1.91H202.7l-1.913,1.913-1.913,1.913L197.3,89.631H193.82L192.4,85.807l-2.074,3.823-2.081,3.823-2.074,3.823-3.823,3.823L179.2,97.277l-3.823,3.823-3.823,3.823h-3.49l-1.322,15.034a4.416,4.416,0,0,0,3.905,4.873h0A4.492,4.492,0,0,0,171.2,124.856Z" transform="translate(-18.48 -7.814)" fill="#fff" opacity="0.3" style="mix-blend-mode: normal;isolation: isolate"/>
  <path id="Path_928" data-name="Path 928" d="M171.2,127.243h87.86a5.457,5.457,0,0,0,5.357-4.9l2.49-28.416L265,95.841l-1.913,1.913h-3.526l-3.325-1.913-3.153-3.823-1.915,1.913H244.2l-1.913,1.913h-1.745l-1.907,1.913-1.576-1.913h-3.483l-2.418,7.653-3.146-3.823H217.543l-1.9,1.906h-3.49l-1.913,1.913h-3.49l-1.905,1.913h-3.49l-1.576-1.913-3.658,1.913h-3.49l-3.651,1.913-3.658,1.913h-3.482l-3.658,1.913-3.153-3.823-7.309,3.823-.978,11.2a4.416,4.416,0,0,0,3.905,4.873h0A4.507,4.507,0,0,0,171.2,127.243Z" transform="translate(-18.48 -10.2)" fill="#008083"/>
  <path id="Path_929" data-name="Path 929" d="M171.2,127.243h87.86a5.457,5.457,0,0,0,5.357-4.9l2.49-28.416L265,95.841l-1.913,1.913h-3.526l-3.325-1.913-3.153-3.823-1.915,1.913H244.2l-1.913,1.913h-1.745l-1.907,1.913-1.576-1.913h-3.483l-2.418,7.653-3.146-3.823H217.543l-1.9,1.906h-3.49l-1.913,1.913h-3.49l-1.905,1.913h-3.49l-1.576-1.913-3.658,1.913h-3.49l-3.651,1.913-3.658,1.913h-3.482l-3.658,1.913-3.153-3.823-7.309,3.823-.978,11.2a4.416,4.416,0,0,0,3.905,4.873h0A4.507,4.507,0,0,0,171.2,127.243Z" transform="translate(-18.48 -10.2)" fill="#fff" opacity="0.5" style="mix-blend-mode: normal;isolation: isolate"/>
  <path id="Path_930" data-name="Path 930" d="M255.485,169.825H167.62a4.406,4.406,0,0,1-4.5-4.315h0a4.264,4.264,0,0,1,.027-.583L164.2,152.9a5.45,5.45,0,0,1,5.357-4.9H257.4a4.414,4.414,0,0,1,4.5,4.33,4.485,4.485,0,0,1-.026.568l-1.048,12.023A5.449,5.449,0,0,1,255.485,169.825Z" transform="translate(-18.082 -16.406)" fill="#fff" opacity="0.5" style="mix-blend-mode: normal;isolation: isolate"/>
  <path id="Path_931" data-name="Path 931" d="M253.157,196.422H165.31a4.424,4.424,0,0,1-4.478-4.9l1.056-12.023a5.45,5.45,0,0,1,5.357-4.9h87.822a4.416,4.416,0,0,1,4.47,4.9l-1.056,12.023A5.45,5.45,0,0,1,253.157,196.422Z" transform="translate(-17.826 -19.355)" fill="#fff" opacity="0.5" style="mix-blend-mode: normal;isolation: isolate"/>
  <path id="Path_932" data-name="Path 932" d="M250.831,223.026H162.964a4.423,4.423,0,0,1-4.495-4.351h0a4.325,4.325,0,0,1,.025-.547L159.55,206.1a5.45,5.45,0,0,1,5.357-4.9h87.86a4.406,4.406,0,0,1,4.5,4.315h0a4.264,4.264,0,0,1-.027.583l-1.112,12.031A5.458,5.458,0,0,1,250.831,223.026Z" transform="translate(-17.566 -22.303)" fill="#fff" opacity="0.5" style="mix-blend-mode: normal;isolation: isolate"/>
  <path id="Path_933" data-name="Path 933" d="M279.738,37.609h-4.377l.061-.651h4.37Z" transform="translate(-30.524 -4.097)" fill="#263238"/>
  <path id="Path_934" data-name="Path 934" d="M279.361,41.907h-4.37l.053-.651h4.377Z" transform="translate(-30.483 -4.573)" fill="#263238"/>
  <path id="Path_935" data-name="Path 935" d="M279.546,39.762H275.18l.053-.658h4.37Z" transform="translate(-30.504 -4.335)" fill="#263238"/>
  <path id="Path_936" data-name="Path 936" d="M224.922,137.506a1.531,1.531,0,0,1-1.485,1.362,1.226,1.226,0,0,1-1.255-1.193,1.344,1.344,0,0,1,.008-.169,1.531,1.531,0,0,1,1.485-1.37,1.233,1.233,0,0,1,1.255,1.209h0A1.22,1.22,0,0,1,224.922,137.506Z" transform="translate(-24.629 -15.091)" fill="#008083"/>
  <ellipse id="Ellipse_24" data-name="Ellipse 24" cx="1.432" cy="1.309" rx="1.432" ry="1.309" transform="matrix(0.722, -0.692, 0.692, 0.722, 186.037, 122.439)" fill="#fff" opacity="0.5" style="mix-blend-mode: normal;isolation: isolate"/>
  <path id="Path_937" data-name="Path 937" d="M218.758,137.506a1.53,1.53,0,0,1-1.492,1.362,1.232,1.232,0,0,1-1.255-1.21h0a1.243,1.243,0,0,1,.007-.152,1.531,1.531,0,0,1,1.492-1.37,1.245,1.245,0,0,1,1.255,1.225A1.136,1.136,0,0,1,218.758,137.506Z" transform="translate(-23.945 -15.091)" fill="#fff" opacity="0.5" style="mix-blend-mode: normal;isolation: isolate"/>
  <ellipse id="Ellipse_25" data-name="Ellipse 25" cx="1.432" cy="1.309" rx="1.432" ry="1.309" transform="matrix(0.722, -0.692, 0.692, 0.722, 202.461, 122.438)" fill="#fff" opacity="0.5" style="mix-blend-mode: normal;isolation: isolate"/>
  <path id="Path_938" data-name="Path 938" d="M173.611,180.24a6.558,6.558,0,0,0-6.4,5.9A5.308,5.308,0,0,0,171.9,192a5.217,5.217,0,0,0,.667.032,6.559,6.559,0,0,0,6.4-5.893,5.312,5.312,0,0,0-4.688-5.868A5.417,5.417,0,0,0,173.611,180.24Zm-.819,9.146-2.181-3.245,2.365.811,2.51-.811Zm.291-3.245-2.365-.811,2.679-2.839,2.189,2.839Z" transform="translate(-18.532 -19.98)" fill="#008083"/>
  <path id="Path_939" data-name="Path 939" d="M175.943,153.643a6.56,6.56,0,0,0-6.413,5.893,5.358,5.358,0,0,0,4.786,5.873h0a5.323,5.323,0,0,0,.571.028,6.567,6.567,0,0,0,6.413-5.9,5.356,5.356,0,0,0-4.793-5.867A5.438,5.438,0,0,0,175.943,153.643Zm1.822,5.013a1.449,1.449,0,0,1-.314.543,1.629,1.629,0,0,1-.543.382.767.767,0,0,1,.452.405.913.913,0,0,1,0,.658,1.453,1.453,0,0,1-.711.865,2.844,2.844,0,0,1-1.408.306h-2.3l1.286-4.286h2.189a1.765,1.765,0,0,1,1.163.306.764.764,0,0,1,.178.819Z" transform="translate(-18.789 -17.032)" fill="#008083"/>
  <path id="Path_940" data-name="Path 940" d="M176.666,159.006h-.834l-.245.827h.834a.722.722,0,0,0,.766-.421C177.306,159.13,177.083,159.006,176.666,159.006Z" transform="translate(-19.464 -17.626)" fill="#008083"/>
  <path id="Path_941" data-name="Path 941" d="M176.3,160.873h-.987l-.261.872h1.023c.421,0,.681-.146.766-.437S176.718,160.873,176.3,160.873Z" transform="translate(-19.405 -17.833)" fill="#008083"/>
  <path id="Path_942" data-name="Path 942" d="M171.286,206.837a6.573,6.573,0,0,0-6.413,5.9,5.356,5.356,0,0,0,4.79,5.868h0a5.408,5.408,0,0,0,.563.027,6.56,6.56,0,0,0,6.413-5.893,5.357,5.357,0,0,0-5.357-5.9Zm1.071,7.905H169.1l1.286-4.286H171.6l-.995,3.322h2.045Z" transform="translate(-18.273 -22.928)" fill="#008083"/>
  <g id="freepik--Character--inject-14" transform="translate(65.192 14.718)">
    <path id="Path_943" data-name="Path 943" d="M135.7,256.169l2.38,8.714,6.352-.965L143.327,255Z" transform="translate(-80.234 -42.985)" fill="#b97964"/>
    <path id="Path_944" data-name="Path 944" d="M146.393,263.241a.17.17,0,0,1-.146-.1.153.153,0,0,1,.046-.178c.089-.068,2.051-1.753,3.161-1.661a.766.766,0,0,1,.543.261.575.575,0,0,1,.138.643c-.2.39-.987.689-1.768.842A11.413,11.413,0,0,1,146.393,263.241Zm.452-.3c1.2-.076,2.794-.39,3.008-.857.038-.061.061-.161-.089-.322a.392.392,0,0,0-.329-.153.99.99,0,0,0-.3,0,6.969,6.969,0,0,0-2.273,1.334Z" transform="translate(-81.402 -43.683)" fill="#008083"/>
    <path id="Path_945" data-name="Path 945" d="M146.313,263.094a.162.162,0,0,1-.1-.123,4.435,4.435,0,0,1,.52-2.641,1.116,1.116,0,0,1,.766-.413c.421-.038.59.146.643.314.267.689-.987,2.349-1.684,2.832H146.4A.151.151,0,0,1,146.313,263.094Zm1.156-2.877a.836.836,0,0,0-.482.291,3.592,3.592,0,0,0-.467,2.1c.7-.613,1.485-1.875,1.37-2.3,0-.038-.061-.138-.337-.115h-.089Z" transform="translate(-81.398 -43.529)" fill="#008083"/>
    <path id="Path_946" data-name="Path 946" d="M144.562,262.615l-6.888,1.316a.574.574,0,0,0-.459.543l-.178,5.855a.94.94,0,0,0,.9.972.83.83,0,0,0,.2,0c2.49-.52,4.676-1.079,7.776-1.668,3.658-.7,2.809-.089,7.126-.842,2.595-.459,2.51-3.5,1.377-3.429-5.143.322-5.957-1.095-8.242-2.525A2.3,2.3,0,0,0,144.562,262.615Z" transform="translate(-80.383 -43.822)" fill="#263238"/>
    <path id="Path_947" data-name="Path 947" d="M99.968,255.005l-1.041,8.98H92.506l-.253-8.98Z" transform="translate(-75.418 -42.985)" fill="#b97964"/>
    <path id="Path_948" data-name="Path 948" d="M100.376,264.752a.155.155,0,0,1-.13-.175v0h0a.15.15,0,0,1,.074-.108c.1-.053,2.3-1.377,3.405-1.095a.769.769,0,0,1,.482.344.567.567,0,0,1,0,.666,2.765,2.765,0,0,1-1.882.52A11.372,11.372,0,0,1,100.376,264.752Zm.49-.214c1.2.13,2.824.1,3.123-.329.038-.053.076-.146,0-.329a.424.424,0,0,0-.306-.214,1.226,1.226,0,0,0-.291,0,7.2,7.2,0,0,0-2.53.872Z" transform="translate(-76.304 -43.908)" fill="#008083"/>
    <path id="Path_949" data-name="Path 949" d="M100.29,264.556a.145.145,0,0,1-.076-.138,4.3,4.3,0,0,1,.965-2.5,1.1,1.1,0,0,1,.842-.276c.421,0,.558.245.574.421.153.719-1.377,2.143-2.134,2.495a.1.1,0,0,1-.068,0A.161.161,0,0,1,100.29,264.556Zm1.638-2.625a.773.773,0,0,0-.528.2,3.593,3.593,0,0,0-.819,1.99c.766-.49,1.784-1.592,1.737-2.028,0-.046,0-.153-.306-.168Z" transform="translate(-76.301 -43.72)" fill="#008083"/>
    <path id="Path_950" data-name="Path 950" d="M98.5,263.966l-7.024.115a.574.574,0,0,0-.551.452l-1.179,5.732a.943.943,0,0,0,.732,1.111h0l.032.006a.83.83,0,0,0,.2,0c2.533-.089,4.784-.26,7.945-.306,3.719-.061,2.786.405,7.164.4,2.633,0,3.061-3.015,1.952-3.146-5.128-.566-5.691-2.1-7.653-3.9A2.3,2.3,0,0,0,98.5,263.966Z" transform="translate(-75.138 -43.977)" fill="#263238"/>
    <path id="Path_951" data-name="Path 951" d="M109.414,139.588l7.018,25.31.613,1.982a79.666,79.666,0,0,1,3.646,21.2c.089,2.924.344,6.008.711,9.184,2.48,21.222,11.151,45.5,11.151,45.5l8.121-.918-13.5-133.321H106.23S99.985,131.6,109.414,139.588Z" transform="translate(-76.743 -26.747)" fill="#263238"/>
    <path id="Path_952" data-name="Path 952" d="M117.622,168.353l-4.477-15.589,2.805-14.35.322-3.823S119.826,147.735,117.622,168.353Z" transform="translate(-77.734 -29.637)" opacity="0.6" style="mix-blend-mode: normal;isolation: isolate"/>
    <path id="Path_953" data-name="Path 953" d="M117.008,108.523s-5.357,49.693-7.921,71.873S99.9,242.732,99.9,242.732H91.645s-1.768-28.034.421-48.438c.413-3.823.872-7.286,1.385-10.118a61.033,61.033,0,0,0,.88-13.871c-.138-2.947-.3-6.429-.452-10.087-.445-10.508.229-22.5.229-27.514a143.227,143.227,0,0,1,2.357-24.177Z" transform="translate(-75.276 -26.747)" fill="#263238"/>
    <path id="Path_954" data-name="Path 954" d="M115.808,53.082c-3.823-.918-4.822-3.413-4.535-6.031A16.66,16.66,0,0,1,111.6,45.1l-4.8-4.01-3.52-2.924c.949,4.268,2.02,11.618-.889,14.465a100.786,100.786,0,0,0,9.827,4.593C115.808,55.317,115.808,53.082,115.808,53.082Z" transform="translate(-76.541 -18.948)" fill="#b97964"/>
    <path id="Path_955" data-name="Path 955" d="M111.8,45.205a16.661,16.661,0,0,0-.322,1.952v.558c-2.862-.719-6.819-3.2-7.2-6.3a12.791,12.791,0,0,1,.276-2.3l2.495,2.066Z" transform="translate(-76.751 -19.054)" opacity="0.2" style="mix-blend-mode: normal;isolation: isolate"/>
    <path id="Path_956" data-name="Path 956" d="M101.342,31.624s-2.151,1.913-3.613,1.937c0,0,.849,3.229,3.061,2.457S101.342,31.624,101.342,31.624Z" transform="translate(-76.025 -18.223)" fill="#263238"/>
    <path id="Path_957" data-name="Path 957" d="M121.587,26.381s-.889,2.885,2.5,3.207c0,0-1.7,3.46-4.523.857a5.006,5.006,0,0,1-1.576-5.526l2.51,1.033Z" transform="translate(-78.241 -17.48)" fill="#263238"/>
    <path id="Path_958" data-name="Path 958" d="M121.587,26.381s-.889,2.885,2.5,3.207c0,0-1.7,3.46-4.523.857a5.006,5.006,0,0,1-1.576-5.526l2.51,1.033Z" transform="translate(-78.241 -17.48)" opacity="0.5" style="mix-blend-mode: normal;isolation: isolate"/>
    <path id="Path_959" data-name="Path 959" d="M103.709,27.615c-.766,5.755-1.462,9.084.872,12.613a7.545,7.545,0,0,0,13.3-1.186c2.189-4.845,2.97-13.455-2.12-16.9a7.654,7.654,0,0,0-12.054,5.472Z" transform="translate(-76.608 -17.015)" fill="#b97964"/>
    <path id="Path_960" data-name="Path 960" d="M113.15,32.328c-.089.467.089.889.39.957s.613-.261.766-.766a.705.705,0,0,0-.339-.938h0c-.014-.006-.028-.013-.044-.019C113.625,31.494,113.242,31.869,113.15,32.328Z" transform="translate(-77.732 -18.215)" fill="#2e353a"/>
    <path id="Path_961" data-name="Path 961" d="M119.227,33.483c-.089.459.089.9.39.949s.613-.253.766-.766-.089-.9-.382-.957S119.319,33.014,119.227,33.483Z" transform="translate(-78.406 -18.343)" fill="#2e353a"/>
    <path id="Path_962" data-name="Path 962" d="M116.71,33.509a18.117,18.117,0,0,0,1.2,3.823,2.488,2.488,0,0,1-2.013,0Z" transform="translate(-78.039 -18.432)" fill="#a24e3f"/>
    <path id="Path_963" data-name="Path 963" d="M114.681,41.14a4.009,4.009,0,0,1-2.832-1.377.146.146,0,0,1,0-.2.123.123,0,0,1,.172-.015l.005,0h0l.011.011h0a3.889,3.889,0,0,0,3.153,1.3.137.137,0,0,1,.146.115h0a.145.145,0,0,1-.13.146A2.964,2.964,0,0,1,114.681,41.14Z" transform="translate(-77.586 -19.098)" fill="#2e353a"/>
    <path id="Path_964" data-name="Path 964" d="M112.348,29.477a.341.341,0,0,1-.089-.1.268.268,0,0,1,.125-.356h0a2.662,2.662,0,0,1,2.472.076.275.275,0,0,1,.076.375h0a.282.282,0,0,1-.382.089,2.046,2.046,0,0,0-1.956-.061A.266.266,0,0,1,112.348,29.477Z" transform="translate(-77.633 -17.905)" fill="#2e353a"/>
    <path id="Path_965" data-name="Path 965" d="M122.051,30.983a.284.284,0,0,1-.253-.053,2.294,2.294,0,0,0-1.967-.482.283.283,0,0,1-.344-.184h0a.29.29,0,0,1,.178-.344h0a2.811,2.811,0,0,1,2.472.6.284.284,0,0,1,.053.39A.321.321,0,0,1,122.051,30.983Z" transform="translate(-78.436 -18.026)" fill="#2e353a"/>
    <path id="Path_966" data-name="Path 966" d="M103.921,32.111s2.732-1.018,2.947-7.071a10.386,10.386,0,0,0,8.051-.7s6.95,4.4,7.38-1.334a2.48,2.48,0,0,1-2.988-1.393,2.954,2.954,0,0,0,.543-3.7s-2.87,2.036-4.929.322-11.159-3.536-12.176,2.25c0,0-3.49-.276-3.322,3.823s-.375,5.02-1.689,4.737c0,0,1.37,3.536,3.674,1.706,0,0,1.232,3.6-1.929,4.026C99.475,34.805,103.685,39.261,103.921,32.111Z" transform="translate(-76.026 -16.552)" fill="#263238"/>
    <path id="Path_967" data-name="Path 967" d="M103.659,20.845a3.406,3.406,0,0,1-.306-3.3.237.237,0,0,0-.367-.291C101.275,18.735,99.071,21.2,103.659,20.845Z" transform="translate(-76.38 -16.623)" fill="#263238"/>
    <path id="Path_968" data-name="Path 968" d="M101.015,34.738a6.119,6.119,0,0,0,2.25,3.52c1.462,1.071,2.563-.229,2.48-2.058-.068-1.653-.918-4.2-2.533-4.535S100.62,32.978,101.015,34.738Z" transform="translate(-76.38 -18.223)" fill="#b97964"/>
    <path id="Path_969" data-name="Path 969" d="M125.741,56.21v45.918l-30.56.5L90.3,57.671a3.748,3.748,0,0,1,3.872-3.9l27.292-1.141A3.887,3.887,0,0,1,125.741,56.21Z" transform="translate(-75.199 -20.551)" fill="#008083"/>
    <path id="Path_970" data-name="Path 970" d="M125.741,56.21v45.918l-30.56.5L90.3,57.671a3.748,3.748,0,0,1,3.872-3.9l27.292-1.141A3.887,3.887,0,0,1,125.741,56.21Z" transform="translate(-75.199 -20.551)" fill="#fff" opacity="0.5" style="mix-blend-mode: normal;isolation: isolate"/>
    <path id="Path_971" data-name="Path 971" d="M113.2,51.955l-3.823,1.7-6.7-1.392-1.217,2.113,3.98,3.942a1.042,1.042,0,0,0,1.472-.025q.031-.032.059-.067l2.388-3.061,4.2,2.686a1.04,1.04,0,0,0,1.592-.949l-.276-3.75Z" transform="translate(-76.439 -20.477)" fill="#008083"/>
    <path id="Path_972" data-name="Path 972" d="M113.2,51.955l-3.823,1.7-6.7-1.392-1.217,2.113,3.98,3.942a1.042,1.042,0,0,0,1.472-.025q.031-.032.059-.067l2.388-3.061,4.2,2.686a1.04,1.04,0,0,0,1.592-.949l-.276-3.75Z" transform="translate(-76.439 -20.477)" fill="#fff" opacity="0.8" style="mix-blend-mode: normal;isolation: isolate"/>
    <path id="Path_973" data-name="Path 973" d="M144.541,255.685l.382,4.217-8.891,1.745-1.324-4.033Z" transform="translate(-80.124 -43.061)" fill="#263238"/>
    <path id="Path_974" data-name="Path 974" d="M144.541,255.685l.382,4.217-8.891,1.745-1.324-4.033Z" transform="translate(-80.124 -43.061)" fill="#fff" opacity="0.3" style="mix-blend-mode: normal;isolation: isolate"/>
    <path id="Path_975" data-name="Path 975" d="M100.935,257.294l-.711,4.217H90.941l-.253-4.217Z" transform="translate(-75.245 -43.239)" fill="#263238"/>
    <path id="Path_976" data-name="Path 976" d="M100.935,257.294l-.711,4.217H90.941l-.253-4.217Z" transform="translate(-75.245 -43.239)" fill="#fff" opacity="0.3" style="mix-blend-mode: normal;isolation: isolate"/>
    <path id="Path_977" data-name="Path 977" d="M100.245,52.916s7.271,16.784,8.6,22.715c1.286,5.691,1.462,20.059,1.462,27.276,0,2.189-2.3,3.823-4.768,3.3l-12.49-2.4S91.835,86.66,91.123,80.966c-.766-6.375-3.727-22.776-2.5-25.554C90.235,51.76,100.245,52.916,100.245,52.916Z" transform="translate(-74.983 -20.564)" fill="#008083"/>
    <path id="Path_978" data-name="Path 978" d="M90.3,79.521C95.655,71,94.982,63.7,94.982,63.7l-2.48-.766-3.536,5.424C89.326,71.916,89.831,75.918,90.3,79.521Z" transform="translate(-75.054 -21.694)" opacity="0.1" style="mix-blend-mode: normal;isolation: isolate"/>
    <path id="Path_979" data-name="Path 979" d="M92.513,55.709a3.506,3.506,0,0,0-4.691-1.11c-2.388,1.385-5.847,4.669-9.521,12.448-6.712,14.226-6.429,23.725-.429,30.7s15.75,14.412,15.75,14.412l4.286-4.929S83.2,94.224,83.367,86.023c.115-6.636,5.1-14.6,8-18.973C93,64.479,95.531,60.851,92.513,55.709Z" transform="translate(-73.319 -20.717)" fill="#008083"/>
    <path id="Path_980" data-name="Path 980" d="M147.91,64.756l2.3-5.246,5.02-6.888,3.52,2.8-1.615,3.937a2.3,2.3,0,0,1-1.362,1.255l-2.4.88-1.355,4.867Z" transform="translate(-81.588 -20.551)" fill="#b97964"/>
    <path id="Path_981" data-name="Path 981" d="M130.175,54.39c3.379,4.776,6.643,20.159,9.322,20.159,2.036,0,6.313-12.322,6.313-12.322l5.143,2.212s-3.322,20.5-10.279,21.812S127.515,70.493,126.53,63.789C126.165,61.261,126.571,49.3,130.175,54.39Z" transform="translate(-79.206 -20.608)" fill="#008083"/>
    <path id="Path_982" data-name="Path 982" d="M128.291,60.364l-1.822,3.444a4.7,4.7,0,0,0,.068.766c.689,4.737,3.987,14.641,8.319,19.592-3.482-7.416-4.339-21.95-4.339-21.95Z" transform="translate(-79.211 -21.409)" opacity="0.1" style="mix-blend-mode: normal;isolation: isolate"/>
    <path id="Path_983" data-name="Path 983" d="M116.553,52.409s1.018,16.875,1.37,22.577c.356,5.832,1.806,20.174,2.556,27.444.229,2.223,2.8,3.646,5.2,2.885l4.592-1.217-.429-26.534s.13-21.154-.766-23.3C127.5,50.541,116.553,52.409,116.553,52.409Z" transform="translate(-78.112 -20.475)" fill="#008083"/>
    <path id="Path_984" data-name="Path 984" d="M152.927,58.545h-3.1a.582.582,0,0,1-.589-.819l5.829-10.455a1.579,1.579,0,0,1,1.4-.766h3.1a.574.574,0,0,1,.59.819L154.324,57.78A1.591,1.591,0,0,1,152.927,58.545Z" transform="translate(-81.729 -19.872)" fill="#008083"/>
    <path id="Path_985" data-name="Path 985" d="M160.389,46.843a.668.668,0,0,0-.6-.337h-3.1a1.579,1.579,0,0,0-1.4.766l-4.377,7.854Z" transform="translate(-81.921 -19.873)" fill="#fff" opacity="0.2" style="mix-blend-mode: normal;isolation: isolate"/>
    <path id="Path_986" data-name="Path 986" d="M159.569,46.5h-.1a.489.489,0,0,1-.053.168l-5.839,10.455a1.591,1.591,0,0,1-1.4.766h-3a.6.6,0,0,0,.555.651h0a.578.578,0,0,0,.1,0h3.1a1.593,1.593,0,0,0,1.4-.766l5.868-10.455a.573.573,0,0,0-.628-.819Z" transform="translate(-81.728 -19.871)" fill="#008083"/>
    <path id="Path_987" data-name="Path 987" d="M159.569,46.5h-.1a.489.489,0,0,1-.053.168l-5.839,10.455a1.591,1.591,0,0,1-1.4.766h-3a.6.6,0,0,0,.555.651h0a.578.578,0,0,0,.1,0h3.1a1.593,1.593,0,0,0,1.4-.766l5.868-10.455a.573.573,0,0,0-.628-.819Z" transform="translate(-81.728 -19.871)" opacity="0.2" style="mix-blend-mode: normal;isolation: isolate"/>
    <path id="Path_988" data-name="Path 988" d="M159.049,55.205l-1.362-1.53a.766.766,0,0,0-1.082-.03.777.777,0,0,0-.119.145l-1.125,1.8a.768.768,0,0,0-.108.421l.115,5.013,1.929-.314,1.975-3.29A1.888,1.888,0,0,0,159.049,55.205Z" transform="translate(-82.402 -20.641)" fill="#b97964"/>
  </g>
  <g id="freepik--Coins--inject-14" transform="translate(51.981)">
    <circle id="Ellipse_26" data-name="Ellipse 26" cx="8.686" cy="8.686" r="8.686" transform="translate(68.941 11.274)" fill="#008083"/>
    <circle id="Ellipse_27" data-name="Ellipse 27" cx="8.686" cy="8.686" r="8.686" transform="translate(69.982 11.274)" fill="#008083"/>
    <circle id="Ellipse_28" data-name="Ellipse 28" cx="8.686" cy="8.686" r="8.686" transform="translate(69.982 11.274)" fill="#fff" opacity="0.3" style="mix-blend-mode: normal;isolation: isolate"/>
    <circle id="Ellipse_29" data-name="Ellipse 29" cx="6.498" cy="6.498" r="6.498" transform="translate(72.17 13.463)" fill="#fff"/>
    <circle id="Ellipse_30" data-name="Ellipse 30" cx="10.485" cy="10.485" r="10.485" transform="translate(0 27.705)" fill="#008083"/>
    <circle id="Ellipse_31" data-name="Ellipse 31" cx="10.485" cy="10.485" r="10.485" transform="translate(1.255 27.705)" fill="#008083"/>
    <circle id="Ellipse_32" data-name="Ellipse 32" cx="10.485" cy="10.485" r="10.485" transform="translate(1.255 27.705)" fill="#fff" opacity="0.3" style="mix-blend-mode: normal;isolation: isolate"/>
    <circle id="Ellipse_33" data-name="Ellipse 33" cx="7.852" cy="7.852" r="7.852" transform="translate(3.886 30.341)" fill="#fff"/>
    <circle id="Ellipse_34" data-name="Ellipse 34" cx="8.434" cy="8.434" r="8.434" transform="translate(11.113)" fill="#008083"/>
    <circle id="Ellipse_35" data-name="Ellipse 35" cx="8.434" cy="8.434" r="8.434" transform="translate(12.123)" fill="#008083"/>
    <circle id="Ellipse_36" data-name="Ellipse 36" cx="8.434" cy="8.434" r="8.434" transform="translate(12.123)" fill="#fff" opacity="0.3" style="mix-blend-mode: normal;isolation: isolate"/>
    <circle id="Ellipse_37" data-name="Ellipse 37" cx="6.314" cy="6.314" r="6.314" transform="translate(14.248 2.122)" fill="#fff"/>
    <g id="Group_54" data-name="Group 54" transform="translate(8.853 34.341)">
      <path id="Path_989" data-name="Path 989" d="M74.473,39.341H72.1a2.152,2.152,0,0,1,.806,1.467h1.569v.719H72.921c-.145,1.468-1.311,2.4-3.152,2.461,1.123,1.165,2.346,2.634,3.557,4.115H71.944c-1.123-1.352-2.174-2.6-3.525-4.043v-.889h.791c1.553,0,2.388-.648,2.49-1.641H68.419v-.719h3.238c-.2-.834-.965-1.252-2.217-1.252H68.419v-.937h6.059Z" transform="translate(-68.419 -38.622)" fill="#008083"/>
    </g>
    <g id="Group_55" data-name="Group 55" transform="translate(17.995 4.565)">
      <path id="Path_990" data-name="Path 990" d="M83.837,5.744H81.824a1.829,1.829,0,0,1,.683,1.245H83.84V7.6H82.523C82.4,8.844,81.412,9.638,79.85,9.687c.952.988,1.99,2.234,3.014,3.491H81.692c-.952-1.146-1.844-2.21-2.99-3.43V8.992h.67c1.318,0,2.026-.549,2.113-1.392H78.7V6.989h2.747c-.171-.711-.818-1.062-1.88-1.062H78.7V5.134h5.136Z" transform="translate(-78.7 -5.134)" fill="#008083"/>
    </g>
    <g id="Group_56" data-name="Group 56" transform="translate(76.099 16.034)">
      <path id="Path_991" data-name="Path 991" d="M149.187,18.644h-2.014a1.829,1.829,0,0,1,.683,1.245h1.334v.61h-1.32c-.123,1.245-1.111,2.039-2.674,2.089.952.987,1.99,2.234,3.014,3.491h-1.171c-.953-1.147-1.844-2.21-2.991-3.43v-.757h.67c1.319,0,2.027-.549,2.113-1.392h-2.783v-.61h2.746c-.171-.711-.818-1.062-1.88-1.062h-.866v-.794h5.138Z" transform="translate(-144.048 -18.033)" fill="#008083"/>
    </g>
  </g>
  <g id="Axis_Small_Cap_Fund_-_Growth_" data-name="Axis Small Cap Fund - Growth " transform="translate(156.55 39.552)">
    <g id="Axis_Small_Cap_Fund_-_Growth" data-name="Axis Small Cap Fund - Growth">
      <g id="Axis_Small_Cap_Fund_-_Growth-2" data-name="Axis Small Cap Fund - Growth-2" style="mix-blend-mode: normal;isolation: isolate">
        <text id="Axis_Small_Cap_Fund_-_Growth-2-2" data-name="Axis Small Cap Fund - Growth" transform="translate(0 3)" fill="#263238" font-size="4" font-family="MyriadPro-Bold, Myriad Pro" font-weight="700" letter-spacing="-0.001em" style="mix-blend-mode: normal;isolation: isolate"><tspan x="0" y="0">Axis Small Cap Fund - Growth</tspan></text>
      </g>
    </g>
  </g>
  <g id="May_27_2022" data-name="May 27 2022" transform="translate(216.52 52.134)">
    <g id="May_27_2022-2" data-name="May 27 2022-2">
      <g id="May_27_2022-2-2" data-name="May 27 2022-2-2" style="mix-blend-mode: normal;isolation: isolate">
        <text id="May_27_2022-2-2" data-name="May 27, 2022" transform="translate(0 3)" fill="#263238" font-size="4" font-family="MyriadPro-Bold, Myriad Pro" font-weight="700" letter-spacing="-0.001em" style="mix-blend-mode: normal;isolation: isolate"><tspan x="0" y="0">May 27, 2022</tspan></text>
      </g>
    </g>
  </g>
  <g id="Group_57" data-name="Group 57" transform="translate(152.741 105.496)">
    <path id="Path_992" data-name="Path 992" d="M176.141,119.162h-1.708a1.544,1.544,0,0,1,.58,1.055h1.129v.522h-1.119c-.1,1.057-.943,1.729-2.267,1.772.807.838,1.689,1.894,2.557,2.961h-.993c-.807-.973-1.563-1.874-2.537-2.91v-.641h.569c1.119,0,1.719-.467,1.792-1.182h-2.361v-.517h2.33c-.145-.6-.694-.9-1.594-.9h-.735v-.673h4.357Z" transform="translate(-171.783 -118.648)" fill="#263238"/>
  </g>
  <g id="_56.35_" data-name=" 56.35 " transform="translate(159.79 105.363)">
    <g id="_56.35" data-name=" 56.35">
      <g id="_56.35-2" data-name=" 56.35-2" style="mix-blend-mode: normal;isolation: isolate">
        <text id="_56.35-2-2" data-name="56.35" transform="translate(0 5)" fill="#263238" font-size="7" font-family="MyriadPro-Bold, Myriad Pro" font-weight="700" letter-spacing="-0.001em" style="mix-blend-mode: normal;isolation: isolate"><tspan x="0" y="0">56.35</tspan></text>
      </g>
    </g>
  </g>
  <g id="_25.16_" data-name=" 25.16 " transform="translate(221.364 140.24)">
    <g id="_25.16_2" data-name=" 25.16 2">
      <g id="_25.16_2-2" data-name=" 25.16 2-2" style="mix-blend-mode: normal;isolation: isolate">
        <text id="_25.16_2-2" data-name="25.16%" transform="translate(0 3)" fill="#263238" font-size="4" font-family="MyriadPro-Bold, Myriad Pro" font-weight="700" letter-spacing="-0.001em" style="mix-blend-mode: normal;isolation: isolate"><tspan x="0" y="0">25.16%</tspan></text>
      </g>
    </g>
  </g>
  <g id="_0.53_0.95_" data-name=" 0.53 0.95 " transform="translate(183.178 107.999)">
    <g id="_0.53_0.95_2" data-name=" 0.53 0.95 2">
      <g id="_0.53_0.95_2-2" data-name=" 0.53 0.95 2-2" style="mix-blend-mode: normal;isolation: isolate">
        <text id="_0.53_0.95_2-2" data-name="+0.53 (0.95%)" transform="translate(0 2)" fill="#263238" font-size="3" font-family="MyriadPro-Bold, Myriad Pro" font-weight="700" letter-spacing="-0.001em" style="mix-blend-mode: normal;isolation: isolate"><tspan x="0" y="0">+0.53 (0.95%)</tspan></text>
      </g>
    </g>
  </g>
  <g id="Canara_Robeco_Fund_" data-name="Canara Robeco Fund " transform="translate(165.135 140.24)">
    <g id="Canara_Robeco_Fund" data-name="Canara Robeco Fund">
      <g id="Canara_Robeco_Fund-2" data-name="Canara Robeco Fund-2" style="mix-blend-mode: normal;isolation: isolate">
        <text id="Canara_Robeco_Fund-2-2" data-name="Canara Robeco Fund" transform="translate(0 3)" fill="#263238" font-size="4" font-family="MyriadPro-Bold, Myriad Pro" font-weight="700" letter-spacing="-0.001em" style="mix-blend-mode: normal;isolation: isolate"><tspan x="0" y="0">Canara Robeco Fund</tspan></text>
      </g>
    </g>
  </g>
  <g id="_15.67_" data-name=" 15.67 " transform="translate(220.599 163.322)">
    <g id="_15.67_2" data-name=" 15.67 2">
      <g id="_15.67_2-2" data-name=" 15.67 2-2" style="mix-blend-mode: normal;isolation: isolate">
        <text id="_15.67_2-2" data-name="15.67%" transform="translate(0 3)" fill="#263238" font-size="4" font-family="MyriadPro-Bold, Myriad Pro" font-weight="700" letter-spacing="-0.001em" style="mix-blend-mode: normal;isolation: isolate"><tspan x="0" y="0">15.67%</tspan></text>
      </g>
    </g>
  </g>
  <g id="_23.39_" data-name=" 23.39 " transform="translate(216.8 186.87)">
    <g id="_23.39_2" data-name=" 23.39 2">
      <g id="_23.39_2-2" data-name=" 23.39 2-2" style="mix-blend-mode: normal;isolation: isolate">
        <text id="_23.39_2-2" data-name="23.39%" transform="translate(0 3)" fill="#263238" font-size="4" font-family="MyriadPro-Bold, Myriad Pro" font-weight="700" letter-spacing="-0.001em" style="mix-blend-mode: normal;isolation: isolate"><tspan x="0" y="0">23.39%</tspan></text>
      </g>
    </g>
  </g>
  <g id="Nippon_India_Banking" data-name="Nippon India Banking" transform="translate(162.839 163.322)">
    <g id="Nippon_India_Banking-2" data-name="Nippon India Banking-2">
      <g id="Nippon_India_Banking-2-2" data-name="Nippon India Banking-2-2" style="mix-blend-mode: normal;isolation: isolate">
        <text id="Nippon_India_Banking-2-2" data-name="Nippon India Banking" transform="translate(0 3)" fill="#263238" font-size="4" font-family="MyriadPro-Bold, Myriad Pro" font-weight="700" letter-spacing="-0.001em" style="mix-blend-mode: normal;isolation: isolate"><tspan x="0" y="0">Nippon India Banking</tspan></text>
      </g>
    </g>
  </g>
  <g id="Motilal_Oswal" data-name="Motilal Oswal" transform="translate(165.135 186.302)">
    <g id="Motilal_Oswal-2" data-name="Motilal Oswal-2">
      <g id="Motilal_Oswal-2-2" data-name="Motilal Oswal-2-2" style="mix-blend-mode: normal;isolation: isolate">
        <text id="Motilal_Oswal-2-2" data-name="Motilal Oswal" transform="translate(0 3)" fill="#263238" font-size="4" font-family="MyriadPro-Bold, Myriad Pro" font-weight="700" letter-spacing="-0.001em" style="mix-blend-mode: normal;isolation: isolate"><tspan x="0" y="0">Motilal Oswal</tspan></text>
      </g>
    </g>
  </g>
  <circle id="Ellipse_38" data-name="Ellipse 38" cx="3.668" cy="3.668" r="3.668" transform="translate(152.739 139.635)" fill="#008083"/>
  <circle id="Ellipse_39" data-name="Ellipse 39" cx="3.668" cy="3.668" r="3.668" transform="translate(150.848 161.95)" fill="#008083"/>
  <circle id="Ellipse_40" data-name="Ellipse 40" cx="3.668" cy="3.668" r="3.668" transform="translate(149.071 186.462)" fill="#008083"/>
  <path id="Path_993" data-name="Path 993" d="M174.8,161.905a1.858,1.858,0,0,1-.766-.766,2.052,2.052,0,0,1-.2-1.133,2.347,2.347,0,0,1,.4-1.133,2.421,2.421,0,0,1,.9-.766,2.639,2.639,0,0,1,1.194-.283,2.357,2.357,0,0,1,.948.184,1.756,1.756,0,0,1,.689.533l-.558.482a1.367,1.367,0,0,0-1.1-.505,1.69,1.69,0,0,0-.78.168,1.534,1.534,0,0,0-.6.533,1.661,1.661,0,0,0-.261.766,1.446,1.446,0,0,0,.13.766,1.2,1.2,0,0,0,.5.533,1.478,1.478,0,0,0,.766.191,1.629,1.629,0,0,0,1.186-.505l.475.49a2.235,2.235,0,0,1-.766.528,2.559,2.559,0,0,1-.978.184A2.292,2.292,0,0,1,174.8,161.905Z" transform="translate(-19.269 -17.495)" fill="#fff"/>
  <g id="N" transform="translate(153.09 164.446)">
    <g id="N-2">
      <g id="N-2-2" style="mix-blend-mode: normal;isolation: isolate">
        <text id="N-2-2" data-name="N" transform="translate(0 2)" fill="#fff" font-size="3" font-family="MyriadPro-Bold, Myriad Pro" font-weight="700" letter-spacing="-0.001em" style="mix-blend-mode: normal;isolation: isolate"><tspan x="0" y="0">N</tspan></text>
      </g>
    </g>
  </g>
  <g id="M" transform="translate(150.084 187.697)">
    <g id="M-2">
      <g id="M-2-2" style="mix-blend-mode: normal;isolation: isolate">
        <text id="M-2-2" data-name="M" transform="translate(0 3)" fill="#fff" font-size="4" font-family="MyriadPro-Bold, Myriad Pro" font-weight="700" letter-spacing="-0.001em" style="mix-blend-mode: normal;isolation: isolate"><tspan x="0" y="0">M</tspan></text>
      </g>
    </g>
  </g>
</svg>
