<svg xmlns="http://www.w3.org/2000/svg" width="306.227" height="247.046" viewBox="0 0 306.227 247.046">
  <g id="Group_83" data-name="Group 83" transform="translate(0 0)">
    <rect id="Rectangle_13" data-name="Rectangle 13" width="6.862" height="0.197" transform="translate(210.389 226.671)" fill="#ebebeb"/>
    <rect id="Rectangle_16" data-name="Rectangle 16" width="4.999" height="0.197" transform="translate(38.26 218.521)" fill="#ebebeb"/>
    <rect id="Rectangle_17" data-name="Rectangle 17" width="73.978" height="0.197" transform="translate(59.511 221.853)" fill="#ebebeb"/>
    <rect id="Rectangle_19" data-name="Rectangle 19" width="17.689" height="74.989" transform="translate(55.808 101.433)" fill="#e6e6e6"/>
    <rect id="Rectangle_20" data-name="Rectangle 20" width="17.689" height="100.559" transform="translate(85.294 75.864)" fill="#e0e0e0"/>
    <rect id="Rectangle_21" data-name="Rectangle 21" width="17.689" height="74.989" transform="translate(114.781 101.433)" fill="#ebebeb"/>
    <rect id="Rectangle_24" data-name="Rectangle 24" width="17.689" height="49.419" transform="translate(144.268 126.996)" fill="#f5f5f5"/>
    <rect id="Rectangle_26" data-name="Rectangle 26" width="17.689" height="74.989" transform="translate(173.755 101.433)" fill="#f0f0f0"/>
    <ellipse id="freepik--path--inject-87" cx="153.113" cy="8.94" rx="153.113" ry="8.94" transform="translate(0 229.166)" fill="#f5f5f5"/>
    <rect id="Rectangle_36" data-name="Rectangle 36" width="52.135" height="137.192" transform="translate(127.211 101.496)" fill="#008083"/>
    <rect id="Rectangle_37" data-name="Rectangle 37" width="38.876" height="137.192" transform="translate(140.636 101.496)" opacity="0.5" style="mix-blend-mode: normal;isolation: isolate"/>
    <rect id="Rectangle_38" data-name="Rectangle 38" width="52.135" height="90.412" transform="translate(195.322 148.27)" fill="#008083"/>
    <rect id="Rectangle_39" data-name="Rectangle 39" width="38.876" height="90.632" transform="translate(208.581 148.057)" opacity="0.3" style="mix-blend-mode: normal;isolation: isolate"/>
    <rect id="Rectangle_40" data-name="Rectangle 40" width="52.135" height="112.72" transform="translate(58.768 125.961)" fill="#008083"/>
    <rect id="Rectangle_41" data-name="Rectangle 41" width="38.876" height="112.997" transform="translate(72.027 125.685)" opacity="0.4" style="mix-blend-mode: normal;isolation: isolate"/>
    <path id="Path_36" data-name="Path 36" d="M85.292,257.443c-.071,1.682,5.244,3.269,11.845,3.554s12.058-.853,12.129-2.535-5.244-3.261-11.845-3.546S85.363,255.769,85.292,257.443Z" transform="translate(-6.228 -18.612)" fill="#008083"/>
    <rect id="Rectangle_42" data-name="Rectangle 42" width="3.04" height="24.023" transform="translate(79.064 238.822) rotate(-87.57)" fill="#008083"/>
    <path id="Path_37" data-name="Path 37" d="M85.428,254.165c-.071,1.682,5.244,3.269,11.845,3.554s12.058-.853,12.129-2.535-5.244-3.261-11.845-3.546S85.495,252.49,85.428,254.165Z" transform="translate(-6.238 -18.372)" fill="#008083"/>
    <path id="Path_38" data-name="Path 38" d="M85.428,254.165c-.071,1.682,5.244,3.269,11.845,3.554s12.058-.853,12.129-2.535-5.244-3.261-11.845-3.546S85.495,252.49,85.428,254.165Z" transform="translate(-6.238 -18.372)" fill="#fff" opacity="0.4" style="mix-blend-mode: normal;isolation: isolate"/>
    <path id="Path_39" data-name="Path 39" d="M87.081,254.183a.491.491,0,0,0,.1.3c.79-.987,5.191-1.576,10.432-1.351s9.579,1.176,10.266,2.225a.428.428,0,0,0,.126-.292c.047-1.137-4.6-2.274-10.382-2.52S87.128,253.046,87.081,254.183Z" transform="translate(-6.359 -18.438)" fill="#008083"/>
    <path id="Path_40" data-name="Path 40" d="M87.081,254.183a.491.491,0,0,0,.1.3c.79-.987,5.191-1.576,10.432-1.351s9.579,1.176,10.266,2.225a.428.428,0,0,0,.126-.292c.047-1.137-4.6-2.274-10.382-2.52S87.128,253.046,87.081,254.183Z" transform="translate(-6.359 -18.438)" fill="#008083" opacity="0.4" style="mix-blend-mode: normal;isolation: isolate"/>
    <path id="Path_41" data-name="Path 41" d="M87.192,254.529c.718,1.05,5.038,2,10.266,2.219s9.641-.355,10.432-1.342c-.7-1.05-5.022-2-10.266-2.225S88,253.542,87.192,254.529Z" transform="translate(-6.367 -18.485)" fill="#008083" opacity="0.4" style="mix-blend-mode: normal;isolation: isolate"/>
    <path id="Path_42" data-name="Path 42" d="M82.54,252.48c-.071,1.682,5.244,3.269,11.845,3.554s12.059-.853,12.129-2.527-5.244-3.269-11.845-3.554S82.643,250.8,82.54,252.48Z" transform="translate(-6.027 -18.249)" fill="#008083"/>
    <rect id="Rectangle_43" data-name="Rectangle 43" width="3.04" height="24.023" transform="translate(76.545 234.234) rotate(-87.57)" fill="#008083"/>
    <path id="Path_43" data-name="Path 43" d="M82.711,249.2c-.071,1.674,5.244,3.261,11.845,3.546s12.058-.853,12.129-2.527-5.244-3.269-11.845-3.554S82.782,247.523,82.711,249.2Z" transform="translate(-6.04 -18.01)" fill="#008083"/>
    <path id="Path_44" data-name="Path 44" d="M82.711,249.2c-.071,1.674,5.244,3.261,11.845,3.546s12.058-.853,12.129-2.527-5.244-3.269-11.845-3.554S82.782,247.523,82.711,249.2Z" transform="translate(-6.04 -18.01)" fill="#fff" opacity="0.4" style="mix-blend-mode: normal;isolation: isolate"/>
    <path id="Path_45" data-name="Path 45" d="M84.363,249.217a.454.454,0,0,0,.1.3c.79-.987,5.191-1.576,10.432-1.342s9.579,1.169,10.266,2.219a.5.5,0,0,0,.126-.285c.047-1.137-4.6-2.282-10.382-2.527S84.41,248.079,84.363,249.217Z" transform="translate(-6.16 -18.076)" fill="#008083"/>
    <path id="Path_46" data-name="Path 46" d="M84.363,249.217a.454.454,0,0,0,.1.3c.79-.987,5.191-1.576,10.432-1.342s9.579,1.169,10.266,2.219a.5.5,0,0,0,.126-.285c.047-1.137-4.6-2.282-10.382-2.527S84.41,248.079,84.363,249.217Z" transform="translate(-6.16 -18.076)" fill="#008083" opacity="0.4" style="mix-blend-mode: normal;isolation: isolate"/>
    <path id="Path_47" data-name="Path 47" d="M84.474,249.563c.711,1.05,5.038,2,10.266,2.219s9.641-.355,10.432-1.342c-.7-1.05-5.022-2-10.266-2.219S85.271,248.576,84.474,249.563Z" transform="translate(-6.169 -18.123)" fill="#008083" opacity="0.4" style="mix-blend-mode: normal;isolation: isolate"/>
    <path id="Path_48" data-name="Path 48" d="M82.924,246.5c-.071,1.682,5.244,3.269,11.845,3.554s12.058-.853,12.129-2.535-5.244-3.261-11.845-3.546S82.994,244.822,82.924,246.5Z" transform="translate(-6.055 -17.812)" fill="#008083"/>
    <rect id="Rectangle_44" data-name="Rectangle 44" width="3.04" height="24.023" transform="translate(76.871 228.684) rotate(-87.57)" fill="#008083"/>
    <path id="Path_49" data-name="Path 49" d="M83.06,243.217c-.071,1.682,5.244,3.269,11.845,3.554s12.051-.853,12.122-2.527-5.244-3.269-11.845-3.554S83.131,241.543,83.06,243.217Z" transform="translate(-6.065 -17.573)" fill="#008083"/>
    <path id="Path_50" data-name="Path 50" d="M83.06,243.217c-.071,1.682,5.244,3.269,11.845,3.554s12.051-.853,12.122-2.527-5.244-3.269-11.845-3.554S83.131,241.543,83.06,243.217Z" transform="translate(-6.065 -17.573)" fill="#fff" opacity="0.4" style="mix-blend-mode: normal;isolation: isolate"/>
    <path id="Path_51" data-name="Path 51" d="M84.713,243.237a.491.491,0,0,0,.1.3c.79-.987,5.191-1.576,10.432-1.342s9.579,1.169,10.266,2.219a.41.41,0,0,0,.126-.285c.047-1.137-4.6-2.282-10.382-2.527S84.759,242.1,84.713,243.237Z" transform="translate(-6.186 -17.639)" fill="#008083"/>
    <path id="Path_52" data-name="Path 52" d="M84.713,243.237a.491.491,0,0,0,.1.3c.79-.987,5.191-1.576,10.432-1.342s9.579,1.169,10.266,2.219a.41.41,0,0,0,.126-.285c.047-1.137-4.6-2.282-10.382-2.527S84.759,242.1,84.713,243.237Z" transform="translate(-6.186 -17.639)" fill="#008083" opacity="0.4" style="mix-blend-mode: normal;isolation: isolate"/>
    <path id="Path_53" data-name="Path 53" d="M84.823,243.584c.718,1.05,5.038,2,10.266,2.219s9.641-.355,10.432-1.342c-.7-1.05-5.022-2-10.266-2.219S85.629,242.612,84.823,243.584Z" transform="translate(-6.194 -17.686)" fill="#008083" opacity="0.4" style="mix-blend-mode: normal;isolation: isolate"/>
    <path id="Path_54" data-name="Path 54" d="M80.206,241.538c-.071,1.674,5.244,3.261,11.845,3.546s12.058-.853,12.129-2.527S98.936,239.287,92.335,239,80.277,239.856,80.206,241.538Z" transform="translate(-5.857 -17.45)" fill="#008083"/>
    <rect id="Rectangle_45" data-name="Rectangle 45" width="3.04" height="24.023" transform="translate(74.344 224.065) rotate(-87.57)" fill="#008083"/>
    <path id="Path_55" data-name="Path 55" d="M80.343,238.259c-.071,1.674,5.244,3.261,11.845,3.546s12.058-.853,12.129-2.527-5.244-3.269-11.845-3.554S80.417,236.608,80.343,238.259Z" transform="translate(-5.867 -17.21)" fill="#008083"/>
    <path id="Path_56" data-name="Path 56" d="M80.343,238.259c-.071,1.674,5.244,3.261,11.845,3.546s12.058-.853,12.129-2.527-5.244-3.269-11.845-3.554S80.417,236.608,80.343,238.259Z" transform="translate(-5.867 -17.21)" fill="#fff" opacity="0.4" style="mix-blend-mode: normal;isolation: isolate"/>
    <path id="Path_57" data-name="Path 57" d="M82,238.253a.433.433,0,0,0,.1.3c.79-.987,5.191-1.576,10.432-1.342s9.579,1.169,10.266,2.219a.5.5,0,0,0,.126-.285c.047-1.137-4.6-2.282-10.382-2.527S82.043,237.131,82,238.253Z" transform="translate(-5.988 -17.275)" fill="#008083"/>
    <path id="Path_58" data-name="Path 58" d="M82,238.253a.433.433,0,0,0,.1.3c.79-.987,5.191-1.576,10.432-1.342s9.579,1.169,10.266,2.219a.5.5,0,0,0,.126-.285c.047-1.137-4.6-2.282-10.382-2.527S82.043,237.131,82,238.253Z" transform="translate(-5.988 -17.275)" fill="#008083" opacity="0.4" style="mix-blend-mode: normal;isolation: isolate"/>
    <path id="Path_59" data-name="Path 59" d="M82.106,238.616c.711,1.05,5.038,2,10.266,2.219s9.641-.355,10.432-1.342c-.7-1.05-5.022-2-10.266-2.219S82.9,237.629,82.106,238.616Z" transform="translate(-5.996 -17.323)" fill="#008083" opacity="0.4" style="mix-blend-mode: normal;isolation: isolate"/>
    <path id="Path_60" data-name="Path 60" d="M84.355,237.329C84.284,239,89.6,240.59,96.2,240.875s12.058-.853,12.129-2.527-5.244-3.273-11.845-3.551S84.426,235.646,84.355,237.329Z" transform="translate(-6.16 -17.143)" fill="#008083"/>
    <rect id="Rectangle_46" data-name="Rectangle 46" width="3.04" height="24.023" transform="translate(78.199 220.184) rotate(-87.57)" fill="#008083"/>
    <path id="Path_61" data-name="Path 61" d="M84.5,234.05c-.071,1.674,5.244,3.261,11.846,3.546s12.059-.853,12.129-2.527-5.244-3.269-11.846-3.554S84.571,232.353,84.5,234.05Z" transform="translate(-6.17 -16.903)" fill="#008083"/>
    <path id="Path_62" data-name="Path 62" d="M84.5,234.05c-.071,1.674,5.244,3.261,11.846,3.546s12.059-.853,12.129-2.527-5.244-3.269-11.846-3.554S84.571,232.353,84.5,234.05Z" transform="translate(-6.17 -16.903)" fill="#fff" opacity="0.4" style="mix-blend-mode: normal;isolation: isolate"/>
    <path id="Path_63" data-name="Path 63" d="M86.144,234.062a.531.531,0,0,0,.1.3c.79-.987,5.2-1.576,10.432-1.342s9.587,1.169,10.266,2.219a.461.461,0,0,0,.134-.285c.047-1.137-4.6-2.282-10.382-2.527S86.2,232.924,86.144,234.062Z" transform="translate(-6.291 -16.969)" fill="#008083"/>
    <path id="Path_64" data-name="Path 64" d="M86.144,234.062a.531.531,0,0,0,.1.3c.79-.987,5.2-1.576,10.432-1.342s9.587,1.169,10.266,2.219a.461.461,0,0,0,.134-.285c.047-1.137-4.6-2.282-10.382-2.527S86.2,232.924,86.144,234.062Z" transform="translate(-6.291 -16.969)" fill="#008083" opacity="0.4" style="mix-blend-mode: normal;isolation: isolate"/>
    <path id="Path_65" data-name="Path 65" d="M86.255,234.409c.718,1.05,5.038,2,10.266,2.219s9.65-.355,10.432-1.342c-.7-1.05-5.022-2-10.266-2.219S87.061,233.421,86.255,234.409Z" transform="translate(-6.299 -17.016)" fill="#008083" opacity="0.4" style="mix-blend-mode: normal;isolation: isolate"/>
    <path id="Path_66" data-name="Path 66" d="M81.637,232.363c-.071,1.674,5.244,3.269,11.845,3.546s12.059-.853,12.129-2.527-5.244-3.269-11.845-3.554S81.684,230.65,81.637,232.363Z" transform="translate(-5.961 -16.78)" fill="#008083"/>
    <rect id="Rectangle_47" data-name="Rectangle 47" width="3.04" height="24.023" transform="translate(75.672 215.572) rotate(-87.57)" fill="#008083"/>
    <path id="Path_67" data-name="Path 67" d="M81.774,229.083c-.071,1.674,5.244,3.269,11.845,3.546s12.058-.845,12.129-2.527-5.244-3.269-11.845-3.554S81.845,227.4,81.774,229.083Z" transform="translate(-5.971 -16.54)" fill="#008083"/>
    <path id="Path_68" data-name="Path 68" d="M81.774,229.083c-.071,1.674,5.244,3.269,11.845,3.546s12.058-.845,12.129-2.527-5.244-3.269-11.845-3.554S81.845,227.4,81.774,229.083Z" transform="translate(-5.971 -16.54)" fill="#fff" opacity="0.4" style="mix-blend-mode: normal;isolation: isolate"/>
    <path id="Path_69" data-name="Path 69" d="M83.392,229.094a.465.465,0,0,0,.1.3c.79-.987,5.191-1.576,10.432-1.342s9.579,1.169,10.266,2.225a.444.444,0,0,0,.126-.292c.047-1.137-4.6-2.274-10.382-2.527S83.471,227.957,83.392,229.094Z" transform="translate(-6.09 -16.606)" fill="#008083"/>
    <path id="Path_70" data-name="Path 70" d="M83.392,229.094a.465.465,0,0,0,.1.3c.79-.987,5.191-1.576,10.432-1.342s9.579,1.169,10.266,2.225a.444.444,0,0,0,.126-.292c.047-1.137-4.6-2.274-10.382-2.527S83.471,227.957,83.392,229.094Z" transform="translate(-6.09 -16.606)" fill="#008083" opacity="0.4" style="mix-blend-mode: normal;isolation: isolate"/>
    <path id="Path_71" data-name="Path 71" d="M83.537,229.441c.718,1.05,5.038,2,10.266,2.225s9.641-.355,10.432-1.342c-.7-1.059-5.022-2.006-10.266-2.225S84.343,228.45,83.537,229.441Z" transform="translate(-6.1 -16.653)" fill="#008083" opacity="0.4" style="mix-blend-mode: normal;isolation: isolate"/>
    <path id="Path_72" data-name="Path 72" d="M46.684,255.86c-.079,1.682,5.236,3.269,11.845,3.546s12.051-.845,12.122-2.527-5.236-3.269-11.845-3.546S46.755,254.178,46.684,255.86Z" transform="translate(-3.409 -18.496)" fill="#008083"/>
    <rect id="Rectangle_48" data-name="Rectangle 48" width="3.04" height="24.023" transform="translate(43.268 237.346) rotate(-87.57)" fill="#008083"/>
    <path id="Path_73" data-name="Path 73" d="M46.82,252.58c-.071,1.682,5.244,3.269,11.845,3.554s12.059-.853,12.129-2.535-5.244-3.269-11.845-3.546S46.894,250.894,46.82,252.58Z" transform="translate(-3.419 -18.257)" fill="#008083"/>
    <path id="Path_74" data-name="Path 74" d="M46.82,252.58c-.071,1.682,5.244,3.269,11.845,3.554s12.059-.853,12.129-2.535-5.244-3.269-11.845-3.546S46.894,250.894,46.82,252.58Z" transform="translate(-3.419 -18.257)" fill="#fff" opacity="0.4" style="mix-blend-mode: normal;isolation: isolate"/>
    <path id="Path_75" data-name="Path 75" d="M48.464,252.59a.419.419,0,0,0,.1.3c.79-.987,5.191-1.576,10.432-1.342s9.579,1.176,10.263,2.227a.517.517,0,0,0,.126-.292c.047-1.137-4.6-2.274-10.382-2.52S48.519,251.453,48.464,252.59Z" transform="translate(-3.539 -18.323)" fill="#008083"/>
    <path id="Path_76" data-name="Path 76" d="M48.464,252.59a.419.419,0,0,0,.1.3c.79-.987,5.191-1.576,10.432-1.342s9.579,1.176,10.263,2.227a.517.517,0,0,0,.126-.292c.047-1.137-4.6-2.274-10.382-2.52S48.519,251.453,48.464,252.59Z" transform="translate(-3.539 -18.323)" fill="#008083" opacity="0.4" style="mix-blend-mode: normal;isolation: isolate"/>
    <path id="Path_77" data-name="Path 77" d="M48.583,252.937c.711,1.05,5.038,2.006,10.266,2.225s9.641-.355,10.432-1.342c-.7-1.05-5.022-2.006-10.266-2.225S49.38,251.981,48.583,252.937Z" transform="translate(-3.548 -18.369)" fill="#008083" opacity="0.4" style="mix-blend-mode: normal;isolation: isolate"/>
    <path id="Path_78" data-name="Path 78" d="M57.944,252.766c-.395,1.634,4.525,4.2,10.976,5.733s12,1.453,12.39-.185-4.533-4.2-10.985-5.733S58.331,251.135,57.944,252.766Z" transform="translate(-4.23 -18.364)" fill="#008083"/>
    <rect id="Rectangle_49" data-name="Rectangle 49" width="3.04" height="24.023" transform="translate(53.713 234.417) rotate(-76.62)" fill="#008083"/>
    <path id="Path_79" data-name="Path 79" d="M58.689,249.565c-.395,1.634,4.525,4.2,10.976,5.741s12,1.454,12.39-.185-4.509-4.178-10.969-5.757S59.088,247.934,58.689,249.565Z" transform="translate(-4.284 -18.129)" fill="#008083"/>
    <path id="Path_80" data-name="Path 80" d="M58.689,249.565c-.395,1.634,4.525,4.2,10.976,5.741s12,1.454,12.39-.185-4.509-4.178-10.969-5.757S59.088,247.934,58.689,249.565Z" transform="translate(-4.284 -18.129)" fill="#fff" opacity="0.4" style="mix-blend-mode: normal;isolation: isolate"/>
    <path id="Path_81" data-name="Path 81" d="M60.33,249.87a.453.453,0,0,0,.047.316c.971-.79,5.393-.556,10.5.664s9.184,2.966,9.674,4.13a.463.463,0,0,0,.185-.26c.26-1.106-4.079-3.1-9.721-4.449S60.6,248.765,60.33,249.87Z" transform="translate(-4.405 -18.193)" fill="#008083"/>
    <path id="Path_82" data-name="Path 82" d="M60.33,249.87a.453.453,0,0,0,.047.316c.971-.79,5.393-.556,10.5.664s9.184,2.966,9.674,4.13a.463.463,0,0,0,.185-.26c.26-1.106-4.079-3.1-9.721-4.449S60.6,248.765,60.33,249.87Z" transform="translate(-4.405 -18.193)" fill="#008083" opacity="0.4" style="mix-blend-mode: normal;isolation: isolate"/>
    <path id="Path_83" data-name="Path 83" d="M60.391,250.272c.505,1.169,4.564,2.922,9.674,4.13s9.531,1.483,10.5.664c-.489-1.161-4.556-2.913-9.674-4.13S61.354,249.412,60.391,250.272Z" transform="translate(-4.41 -18.24)" fill="#008083" opacity="0.4" style="mix-blend-mode: normal;isolation: isolate"/>
    <circle id="Ellipse_9" data-name="Ellipse 9" cx="10.819" cy="10.819" r="10.819" transform="translate(73.354 192.943)" fill="#008083"/>
    <circle id="Ellipse_10" data-name="Ellipse 10" cx="10.819" cy="10.819" r="10.819" transform="translate(74.649 192.943)" fill="#008083"/>
    <circle id="Ellipse_11" data-name="Ellipse 11" cx="10.819" cy="10.819" r="10.819" transform="translate(74.649 192.943)" fill="#fff" opacity="0.5" style="mix-blend-mode: normal;isolation: isolate"/>
    <circle id="Ellipse_12" data-name="Ellipse 12" cx="8.102" cy="8.102" r="8.102" transform="translate(77.366 195.66)" fill="#008083"/>
    <path id="Path_84" data-name="Path 84" d="M253.815,258.972c-.063,1.674-5.48,2.843-12.114,2.606s-11.948-1.793-11.893-3.467,5.489-2.85,12.114-2.614S253.878,257.289,253.815,258.972Z" transform="translate(-16.781 -18.655)" fill="#008083"/>
    <rect id="Rectangle_50" data-name="Rectangle 50" width="3.04" height="24.023" transform="translate(213.017 239.428) rotate(-87.95)" fill="#008083"/>
    <path id="Path_85" data-name="Path 85" d="M253.934,255.692c-.063,1.674-5.48,2.843-12.114,2.606s-11.948-1.793-11.893-3.467,5.48-2.85,12.114-2.614S254,254.009,253.934,255.692Z" transform="translate(-16.79 -18.416)" fill="#008083"/>
    <path id="Path_86" data-name="Path 86" d="M253.934,255.692c-.063,1.674-5.48,2.843-12.114,2.606s-11.948-1.793-11.893-3.467,5.48-2.85,12.114-2.614S254,254.009,253.934,255.692Z" transform="translate(-16.79 -18.416)" fill="#fff" opacity="0.4" style="mix-blend-mode: normal;isolation: isolate"/>
    <path id="Path_87" data-name="Path 87" d="M252.532,255.584a.444.444,0,0,1-.126.292c-.718-1.05-5.046-1.974-10.266-2.156s-9.641.418-10.424,1.405a.462.462,0,0,1-.11-.292c.047-1.137,4.738-1.911,10.55-1.706S252.574,254.463,252.532,255.584Z" transform="translate(-16.913 -18.482)" fill="#008083"/>
    <path id="Path_88" data-name="Path 88" d="M252.532,255.584a.444.444,0,0,1-.126.292c-.718-1.05-5.046-1.974-10.266-2.156s-9.641.418-10.424,1.405a.462.462,0,0,1-.11-.292c.047-1.137,4.738-1.911,10.55-1.706S252.574,254.463,252.532,255.584Z" transform="translate(-16.913 -18.482)" fill="#008083" opacity="0.4" style="mix-blend-mode: normal;isolation: isolate"/>
    <path id="Path_89" data-name="Path 89" d="M252.415,255.928c-.79.987-5.18,1.576-10.424,1.405s-9.587-1.106-10.266-2.156c.79-.987,5.164-1.576,10.424-1.405S251.7,254.874,252.415,255.928Z" transform="translate(-16.921 -18.529)" fill="#008083" opacity="0.4" style="mix-blend-mode: normal;isolation: isolate"/>
    <path id="Path_90" data-name="Path 90" d="M256.916,254.236c-.063,1.674-5.48,2.843-12.114,2.606s-11.948-1.793-11.893-3.474,5.489-2.843,12.114-2.606S256.986,252.556,256.916,254.236Z" transform="translate(-17.008 -18.309)" fill="#008083"/>
    <rect id="Rectangle_51" data-name="Rectangle 51" width="3.038" height="24.006" transform="matrix(0.036, -0.999, 0.999, 0.036, 215.916, 235.08)" fill="#008083"/>
    <path id="Path_91" data-name="Path 91" d="M257.035,250.956c-.063,1.674-5.48,2.843-12.114,2.606s-11.958-1.793-11.893-3.474,5.48-2.843,12.114-2.606S257.089,249.313,257.035,250.956Z" transform="translate(-17.017 -18.07)" fill="#008083"/>
    <path id="Path_92" data-name="Path 92" d="M257.035,250.956c-.063,1.674-5.48,2.843-12.114,2.606s-11.958-1.793-11.893-3.474,5.48-2.843,12.114-2.606S257.089,249.313,257.035,250.956Z" transform="translate(-17.017 -18.07)" fill="#fff" opacity="0.4" style="mix-blend-mode: normal;isolation: isolate"/>
    <path id="Path_93" data-name="Path 93" d="M255.638,250.848a.409.409,0,0,1-.126.285c-.718-1.043-5.046-1.966-10.266-2.148s-9.65.418-10.424,1.405a.462.462,0,0,1-.11-.292c.047-1.137,4.738-1.911,10.55-1.706S255.673,249.711,255.638,250.848Z" transform="translate(-17.139 -18.136)" fill="#008083"/>
    <path id="Path_94" data-name="Path 94" d="M255.638,250.848a.409.409,0,0,1-.126.285c-.718-1.043-5.046-1.966-10.266-2.148s-9.65.418-10.424,1.405a.462.462,0,0,1-.11-.292c.047-1.137,4.738-1.911,10.55-1.706S255.673,249.711,255.638,250.848Z" transform="translate(-17.139 -18.136)" fill="#008083" opacity="0.4" style="mix-blend-mode: normal;isolation: isolate"/>
    <path id="Path_95" data-name="Path 95" d="M255.55,251.18c-.79.995-5.18,1.576-10.424,1.414s-9.587-1.106-10.266-2.156c.79-.987,5.164-1.576,10.424-1.405S254.8,250.137,255.55,251.18Z" transform="translate(-17.15 -18.183)" fill="#008083" opacity="0.4" style="mix-blend-mode: normal;isolation: isolate"/>
    <path id="Path_96" data-name="Path 96" d="M257.035,248.239c-.063,1.682-5.489,2.85-12.114,2.614s-11.958-1.793-11.893-3.474,5.48-2.843,12.114-2.606S257.089,246.564,257.035,248.239Z" transform="translate(-17.017 -17.872)" fill="#008083"/>
    <rect id="Rectangle_52" data-name="Rectangle 52" width="3.038" height="24.006" transform="matrix(0.036, -0.999, 0.999, 0.036, 216.018, 229.527)" fill="#008083"/>
    <path id="Path_97" data-name="Path 97" d="M257.155,244.925c-.063,1.682-5.489,2.85-12.114,2.614s-11.958-1.793-11.893-3.474,5.48-2.843,12.106-2.606S257.209,243.282,257.155,244.925Z" transform="translate(-17.025 -17.63)" fill="#008083"/>
    <path id="Path_98" data-name="Path 98" d="M257.155,244.925c-.063,1.682-5.489,2.85-12.114,2.614s-11.958-1.793-11.893-3.474,5.48-2.843,12.106-2.606S257.209,243.282,257.155,244.925Z" transform="translate(-17.025 -17.63)" fill="#fff" opacity="0.4" style="mix-blend-mode: normal;isolation: isolate"/>
    <path id="Path_99" data-name="Path 99" d="M255.752,244.859a.5.5,0,0,1-.126.285c-.727-1.043-5.054-1.966-10.266-2.156s-9.641.419-10.424,1.414a.465.465,0,0,1-.1-.3c0-1.137,4.738-1.9,10.55-1.7S255.792,243.721,255.752,244.859Z" transform="translate(-17.148 -17.699)" fill="#008083"/>
    <path id="Path_100" data-name="Path 100" d="M255.752,244.859a.5.5,0,0,1-.126.285c-.727-1.043-5.054-1.966-10.266-2.156s-9.641.419-10.424,1.414a.465.465,0,0,1-.1-.3c0-1.137,4.738-1.9,10.55-1.7S255.792,243.721,255.752,244.859Z" transform="translate(-17.148 -17.699)" fill="#008083" opacity="0.4" style="mix-blend-mode: normal;isolation: isolate"/>
    <path id="Path_101" data-name="Path 101" d="M255.635,245.189c-.79.995-5.18,1.576-10.424,1.414s-9.587-1.106-10.266-2.156c.79-.995,5.164-1.576,10.424-1.414S254.908,244.147,255.635,245.189Z" transform="translate(-17.157 -17.745)" fill="#008083" opacity="0.4" style="mix-blend-mode: normal;isolation: isolate"/>
    <path id="Path_102" data-name="Path 102" d="M260.136,243.5c-.063,1.682-5.489,2.85-12.114,2.614s-11.958-1.793-11.893-3.474,5.48-2.843,12.114-2.606S260.19,241.827,260.136,243.5Z" transform="translate(-17.243 -17.526)" fill="#008083"/>
    <rect id="Rectangle_53" data-name="Rectangle 53" width="3.04" height="24.023" transform="translate(218.867 225.1) rotate(-87.95)" fill="#008083"/>
    <path id="Path_103" data-name="Path 103" d="M260.247,240.225c-.056,1.682-5.48,2.85-12.106,2.614s-11.958-1.793-11.893-3.474,5.48-2.843,12.106-2.606S260.31,238.548,260.247,240.225Z" transform="translate(-17.252 -17.287)" fill="#008083"/>
    <path id="Path_104" data-name="Path 104" d="M260.247,240.225c-.056,1.682-5.48,2.85-12.106,2.614s-11.958-1.793-11.893-3.474,5.48-2.843,12.106-2.606S260.31,238.548,260.247,240.225Z" transform="translate(-17.252 -17.287)" fill="#fff" opacity="0.4" style="mix-blend-mode: normal;isolation: isolate"/>
    <path id="Path_105" data-name="Path 105" d="M258.852,240.119a.5.5,0,0,1-.126.285c-.727-1.043-5.054-1.966-10.266-2.156s-9.641.419-10.424,1.414a.465.465,0,0,1-.1-.3c.04-1.137,4.738-1.9,10.55-1.7S258.933,238.984,258.852,240.119Z" transform="translate(-17.375 -17.353)" fill="#008083"/>
    <path id="Path_106" data-name="Path 106" d="M258.852,240.119a.5.5,0,0,1-.126.285c-.727-1.043-5.054-1.966-10.266-2.156s-9.641.419-10.424,1.414a.465.465,0,0,1-.1-.3c.04-1.137,4.738-1.9,10.55-1.7S258.933,238.984,258.852,240.119Z" transform="translate(-17.375 -17.353)" fill="#008083" opacity="0.4" style="mix-blend-mode: normal;isolation: isolate"/>
    <path id="Path_107" data-name="Path 107" d="M258.736,240.453c-.79.995-5.18,1.576-10.424,1.414s-9.587-1.106-10.266-2.156c.79-.995,5.164-1.576,10.424-1.414S258.009,239.415,258.736,240.453Z" transform="translate(-17.383 -17.399)" fill="#008083" opacity="0.4" style="mix-blend-mode: normal;isolation: isolate"/>
    <path id="Path_108" data-name="Path 108" d="M159.211,255.4c-.071,1.682,5.236,3.269,11.845,3.554s12.051-.853,12.122-2.535-5.236-3.269-11.845-3.548S159.258,253.724,159.211,255.4Z" transform="translate(-11.626 -18.462)" fill="#008083"/>
    <rect id="Rectangle_54" data-name="Rectangle 54" width="3.04" height="24.023" transform="translate(147.546 236.923) rotate(-87.57)" fill="#008083"/>
    <path id="Path_109" data-name="Path 109" d="M159.322,252.12c-.071,1.682,5.244,3.269,11.845,3.554s12.058-.853,12.129-2.535-5.244-3.269-11.845-3.546S159.394,250.446,159.322,252.12Z" transform="translate(-11.634 -18.223)" fill="#008083"/>
    <path id="Path_110" data-name="Path 110" d="M159.322,252.12c-.071,1.682,5.244,3.269,11.845,3.554s12.058-.853,12.129-2.535-5.244-3.269-11.845-3.546S159.394,250.446,159.322,252.12Z" transform="translate(-11.634 -18.223)" fill="#fff" opacity="0.4" style="mix-blend-mode: normal;isolation: isolate"/>
    <path id="Path_111" data-name="Path 111" d="M160.975,252.138a.417.417,0,0,0,.1.292c.79-.987,5.191-1.576,10.432-1.342s9.579,1.176,10.266,2.225a.517.517,0,0,0,.126-.292c.047-1.137-4.6-2.274-10.382-2.52S161.022,251,160.975,252.138Z" transform="translate(-11.755 -18.289)" fill="#008083"/>
    <path id="Path_112" data-name="Path 112" d="M160.975,252.138a.417.417,0,0,0,.1.292c.79-.987,5.191-1.576,10.432-1.342s9.579,1.176,10.266,2.225a.517.517,0,0,0,.126-.292c.047-1.137-4.6-2.274-10.382-2.52S161.022,251,160.975,252.138Z" transform="translate(-11.755 -18.289)" fill="#008083" opacity="0.4" style="mix-blend-mode: normal;isolation: isolate"/>
    <path id="Path_113" data-name="Path 113" d="M161.085,252.476c.711,1.059,5.038,2.006,10.266,2.225s9.641-.355,10.432-1.342c-.7-1.05-5.022-2-10.266-2.225S161.882,251.489,161.085,252.476Z" transform="translate(-11.763 -18.335)" fill="#008083" opacity="0.4" style="mix-blend-mode: normal;isolation: isolate"/>
    <path id="Path_114" data-name="Path 114" d="M156.46,250.435c-.071,1.682,5.244,3.269,11.846,3.554s12.058-.853,12.13-2.535-5.244-3.269-11.845-3.546S156.531,248.759,156.46,250.435Z" transform="translate(-11.425 -18.1)" fill="#008083"/>
    <rect id="Rectangle_55" data-name="Rectangle 55" width="3.04" height="24.023" transform="translate(145.034 232.343) rotate(-87.57)" fill="#008083"/>
    <path id="Path_115" data-name="Path 115" d="M156.6,247.152c-.071,1.682,5.244,3.269,11.845,3.554s12.058-.853,12.129-2.535-5.244-3.261-11.845-3.546S156.651,245.478,156.6,247.152Z" transform="translate(-11.435 -17.86)" fill="#008083"/>
    <path id="Path_116" data-name="Path 116" d="M156.6,247.152c-.071,1.682,5.244,3.269,11.845,3.554s12.058-.853,12.129-2.535-5.244-3.261-11.845-3.546S156.651,245.478,156.6,247.152Z" transform="translate(-11.435 -17.86)" fill="#fff" opacity="0.4" style="mix-blend-mode: normal;isolation: isolate"/>
    <path id="Path_117" data-name="Path 117" d="M158.248,247.167a.547.547,0,0,0,.1.3c.79-.987,5.2-1.576,10.432-1.351s9.587,1.176,10.266,2.225a.475.475,0,0,0,.134-.292c.047-1.137-4.6-2.274-10.382-2.52S158.3,246.009,158.248,247.167Z" transform="translate(-11.556 -17.926)" fill="#008083"/>
    <path id="Path_118" data-name="Path 118" d="M158.248,247.167a.547.547,0,0,0,.1.3c.79-.987,5.2-1.576,10.432-1.351s9.587,1.176,10.266,2.225a.475.475,0,0,0,.134-.292c.047-1.137-4.6-2.274-10.382-2.52S158.3,246.009,158.248,247.167Z" transform="translate(-11.556 -17.926)" fill="#008083" opacity="0.4" style="mix-blend-mode: normal;isolation: isolate"/>
    <path id="Path_119" data-name="Path 119" d="M158.359,247.518c.718,1.05,5.038,2,10.266,2.219s9.65-.355,10.432-1.342c-.7-1.05-5.022-2-10.266-2.225S159.149,246.531,158.359,247.518Z" transform="translate(-11.564 -17.973)" fill="#008083" opacity="0.4" style="mix-blend-mode: normal;isolation: isolate"/>
    <path id="Path_120" data-name="Path 120" d="M156.818,244.452c-.071,1.682,5.244,3.269,11.845,3.554s12.058-.853,12.129-2.535-5.244-3.269-11.845-3.546S156.894,242.778,156.818,244.452Z" transform="translate(-11.451 -17.663)" fill="#008083"/>
    <rect id="Rectangle_56" data-name="Rectangle 56" width="3.04" height="24.023" transform="translate(145.361 226.786) rotate(-87.57)" fill="#008083"/>
    <path id="Path_121" data-name="Path 121" d="M156.954,241.173c-.071,1.682,5.244,3.269,11.845,3.554s12.058-.853,12.129-2.535-5.244-3.269-11.845-3.546S157.025,239.5,156.954,241.173Z" transform="translate(-11.461 -17.424)" fill="#008083"/>
    <path id="Path_122" data-name="Path 122" d="M156.954,241.173c-.071,1.682,5.244,3.269,11.845,3.554s12.058-.853,12.129-2.535-5.244-3.269-11.845-3.546S157.025,239.5,156.954,241.173Z" transform="translate(-11.461 -17.424)" fill="#fff" opacity="0.4" style="mix-blend-mode: normal;isolation: isolate"/>
    <path id="Path_123" data-name="Path 123" d="M158.606,241.191a.417.417,0,0,0,.1.292c.79-.979,5.191-1.576,10.432-1.342s9.579,1.176,10.266,2.225a.517.517,0,0,0,.126-.292c.047-1.137-4.6-2.274-10.382-2.52S158.653,240.047,158.606,241.191Z" transform="translate(-11.582 -17.49)" fill="#008083"/>
    <path id="Path_124" data-name="Path 124" d="M158.606,241.191a.417.417,0,0,0,.1.292c.79-.979,5.191-1.576,10.432-1.342s9.579,1.176,10.266,2.225a.517.517,0,0,0,.126-.292c.047-1.137-4.6-2.274-10.382-2.52S158.653,240.047,158.606,241.191Z" transform="translate(-11.582 -17.49)" fill="#008083" opacity="0.4" style="mix-blend-mode: normal;isolation: isolate"/>
    <path id="Path_125" data-name="Path 125" d="M158.717,241.529c.711,1.059,5.038,2.006,10.266,2.225s9.641-.355,10.432-1.342c-.7-1.05-5.022-2-10.266-2.225S159.514,240.548,158.717,241.529Z" transform="translate(-11.59 -17.536)" fill="#008083" opacity="0.4" style="mix-blend-mode: normal;isolation: isolate"/>
    <path id="Path_126" data-name="Path 126" d="M154.1,239.486c-.071,1.682,5.244,3.269,11.845,3.554s12.058-.853,12.129-2.535-5.244-3.261-11.845-3.546S154.163,237.811,154.1,239.486Z" transform="translate(-11.253 -17.3)" fill="#008083"/>
    <rect id="Rectangle_57" data-name="Rectangle 57" width="3.04" height="24.023" transform="translate(142.833 222.175) rotate(-87.57)" fill="#008083"/>
    <path id="Path_127" data-name="Path 127" d="M154.236,236.207c-.071,1.682,5.244,3.269,11.845,3.554s12.058-.853,12.129-2.535-5.244-3.261-11.845-3.546S154.307,234.53,154.236,236.207Z" transform="translate(-11.263 -17.061)" fill="#008083"/>
    <path id="Path_128" data-name="Path 128" d="M154.236,236.207c-.071,1.682,5.244,3.269,11.845,3.554s12.058-.853,12.129-2.535-5.244-3.261-11.845-3.546S154.307,234.53,154.236,236.207Z" transform="translate(-11.263 -17.061)" fill="#fff" opacity="0.4" style="mix-blend-mode: normal;isolation: isolate"/>
    <path id="Path_129" data-name="Path 129" d="M155.889,236.221a.479.479,0,0,0,.093.3c.79-.987,5.191-1.576,10.44-1.342s9.579,1.169,10.266,2.219a.491.491,0,0,0,.126-.292c.047-1.129-4.6-2.274-10.382-2.52S155.936,235.088,155.889,236.221Z" transform="translate(-11.384 -17.127)" fill="#008083"/>
    <path id="Path_130" data-name="Path 130" d="M155.889,236.221a.479.479,0,0,0,.093.3c.79-.987,5.191-1.576,10.44-1.342s9.579,1.169,10.266,2.219a.491.491,0,0,0,.126-.292c.047-1.129-4.6-2.274-10.382-2.52S155.936,235.088,155.889,236.221Z" transform="translate(-11.384 -17.127)" fill="#008083" opacity="0.4" style="mix-blend-mode: normal;isolation: isolate"/>
    <path id="Path_131" data-name="Path 131" d="M155.991,236.572c.718,1.05,5.038,2,10.266,2.219s9.65-.355,10.44-1.342c-.7-1.05-5.031-2-10.266-2.219S156.8,235.585,155.991,236.572Z" transform="translate(-11.391 -17.174)" fill="#008083" opacity="0.4" style="mix-blend-mode: normal;isolation: isolate"/>
    <path id="Path_132" data-name="Path 132" d="M158.249,235.277c-.071,1.682,5.244,3.269,11.845,3.554s12.059-.853,12.129-2.535-5.244-3.261-11.845-3.546S158.352,233.6,158.249,235.277Z" transform="translate(-11.556 -16.993)" fill="#008083"/>
    <rect id="Rectangle_58" data-name="Rectangle 58" width="3.04" height="24.023" transform="translate(146.697 218.285) rotate(-87.57)" fill="#008083"/>
    <path id="Path_133" data-name="Path 133" d="M158.359,232c-.071,1.682,5.244,3.269,11.845,3.554s12.058-.853,12.13-2.535-5.244-3.261-11.845-3.546S158.452,230.323,158.359,232Z" transform="translate(-11.564 -16.754)" fill="#008083"/>
    <path id="Path_134" data-name="Path 134" d="M158.359,232c-.071,1.682,5.244,3.269,11.845,3.554s12.058-.853,12.13-2.535-5.244-3.261-11.845-3.546S158.452,230.323,158.359,232Z" transform="translate(-11.564 -16.754)" fill="#fff" opacity="0.4" style="mix-blend-mode: normal;isolation: isolate"/>
    <path id="Path_135" data-name="Path 135" d="M160.063,232.017a.491.491,0,0,0,.1.3c.79-.987,5.191-1.576,10.432-1.342s9.579,1.169,10.266,2.219a.408.408,0,0,0,.126-.292c.047-1.129-4.6-2.274-10.382-2.52S160.063,230.879,160.063,232.017Z" transform="translate(-11.688 -16.82)" fill="#008083"/>
    <path id="Path_136" data-name="Path 136" d="M160.063,232.017a.491.491,0,0,0,.1.3c.79-.987,5.191-1.576,10.432-1.342s9.579,1.169,10.266,2.219a.408.408,0,0,0,.126-.292c.047-1.129-4.6-2.274-10.382-2.52S160.063,230.879,160.063,232.017Z" transform="translate(-11.688 -16.82)" fill="#008083" opacity="0.4" style="mix-blend-mode: normal;isolation: isolate"/>
    <path id="Path_137" data-name="Path 137" d="M160.148,232.364c.718,1.05,5.038,2,10.266,2.219s9.641-.355,10.432-1.342c-.7-1.05-5.022-2-10.266-2.219S160.954,231.376,160.148,232.364Z" transform="translate(-11.695 -16.867)" fill="#008083" opacity="0.4" style="mix-blend-mode: normal;isolation: isolate"/>
    <path id="Path_138" data-name="Path 138" d="M155.531,230.318c-.071,1.674,5.244,3.261,11.845,3.546s12.051-.853,12.129-2.527-5.244-3.269-11.846-3.554S155.6,228.636,155.531,230.318Z" transform="translate(-11.357 -16.63)" fill="#008083"/>
    <rect id="Rectangle_59" data-name="Rectangle 59" width="3.04" height="24.023" transform="translate(144.162 213.674) rotate(-87.57)" fill="#008083"/>
    <path id="Path_139" data-name="Path 139" d="M155.667,227.039c-.071,1.674,5.244,3.261,11.845,3.546s12.058-.853,12.129-2.527S174.4,224.788,167.8,224.5,155.738,225.357,155.667,227.039Z" transform="translate(-11.367 -16.391)" fill="#008083"/>
    <path id="Path_140" data-name="Path 140" d="M155.667,227.039c-.071,1.674,5.244,3.261,11.845,3.546s12.058-.853,12.129-2.527S174.4,224.788,167.8,224.5,155.738,225.357,155.667,227.039Z" transform="translate(-11.367 -16.391)" fill="#fff" opacity="0.4" style="mix-blend-mode: normal;isolation: isolate"/>
    <path id="Path_141" data-name="Path 141" d="M157.32,227.051a.433.433,0,0,0,.1.3c.79-.987,5.191-1.576,10.432-1.342s9.579,1.169,10.266,2.219a.5.5,0,0,0,.126-.285c.047-1.137-4.6-2.282-10.382-2.527S157.367,225.913,157.32,227.051Z" transform="translate(-11.488 -16.457)" fill="#008083"/>
    <path id="Path_142" data-name="Path 142" d="M157.32,227.051a.433.433,0,0,0,.1.3c.79-.987,5.191-1.576,10.432-1.342s9.579,1.169,10.266,2.219a.5.5,0,0,0,.126-.285c.047-1.137-4.6-2.282-10.382-2.527S157.367,225.913,157.32,227.051Z" transform="translate(-11.488 -16.457)" fill="#008083" opacity="0.4" style="mix-blend-mode: normal;isolation: isolate"/>
    <path id="Path_143" data-name="Path 143" d="M157.431,227.4c.711,1.05,5.038,2,10.266,2.219s9.641-.355,10.432-1.342c-.7-1.05-5.022-2-10.266-2.219S158.228,226.425,157.431,227.4Z" transform="translate(-11.496 -16.504)" fill="#008083" opacity="0.4" style="mix-blend-mode: normal;isolation: isolate"/>
    <path id="Path_144" data-name="Path 144" d="M182.238,226.791c.071,1.674-5.244,3.269-11.845,3.546s-12.042-.884-12.154-2.527,5.236-3.269,11.845-3.554S182.16,225.109,182.238,226.791Z" transform="translate(-11.555 -16.373)" fill="#008083"/>
    <rect id="Rectangle_60" data-name="Rectangle 60" width="24.036" height="3.042" transform="matrix(0.999, -0.04, 0.04, 0.999, 145.995, 209.131)" fill="#008083"/>
    <path id="Path_145" data-name="Path 145" d="M182.1,223.516c.071,1.674-5.244,3.269-11.845,3.546s-12.056-.848-12.13-2.526,5.244-3.269,11.845-3.554S182.032,221.83,182.1,223.516Z" transform="translate(-11.547 -16.134)" fill="#008083"/>
    <path id="Path_146" data-name="Path 146" d="M182.1,223.516c.071,1.674-5.244,3.269-11.845,3.546s-12.056-.848-12.13-2.526,5.244-3.269,11.845-3.554S182.032,221.83,182.1,223.516Z" transform="translate(-11.547 -16.134)" fill="#fff" opacity="0.4" style="mix-blend-mode: normal;isolation: isolate"/>
    <path id="Path_147" data-name="Path 147" d="M180.683,223.527a.419.419,0,0,1-.1.3c-.79-.987-5.191-1.576-10.432-1.342s-9.579,1.169-10.266,2.225a.543.543,0,0,1-.126-.292c-.047-1.137,4.6-2.274,10.382-2.52S180.636,222.386,180.683,223.527Z" transform="translate(-11.666 -16.2)" fill="#008083"/>
    <path id="Path_148" data-name="Path 148" d="M180.683,223.527a.419.419,0,0,1-.1.3c-.79-.987-5.191-1.576-10.432-1.342s-9.579,1.169-10.266,2.225a.543.543,0,0,1-.126-.292c-.047-1.137,4.6-2.274,10.382-2.52S180.636,222.386,180.683,223.527Z" transform="translate(-11.666 -16.2)" fill="#008083" opacity="0.4" style="mix-blend-mode: normal;isolation: isolate"/>
    <path id="Path_149" data-name="Path 149" d="M180.581,223.87c-.711,1.05-5.038,2-10.266,2.225s-9.641-.355-10.432-1.342c.7-1.059,5.022-2.006,10.266-2.225S179.792,222.883,180.581,223.87Z" transform="translate(-11.675 -16.246)" fill="#008083" opacity="0.4" style="mix-blend-mode: normal;isolation: isolate"/>
    <path id="Path_150" data-name="Path 150" d="M184.958,221.826c.071,1.682-5.244,3.269-11.845,3.546s-12.058-.845-12.13-2.527,5.244-3.269,11.845-3.546S184.887,220.14,184.958,221.826Z" transform="translate(-11.756 -16.011)" fill="#008083"/>
    <rect id="Rectangle_61" data-name="Rectangle 61" width="24.023" height="3.04" transform="translate(149.074 203.786) rotate(-2.43)" fill="#008083"/>
    <path id="Path_151" data-name="Path 151" d="M184.812,218.589c.071,1.682-5.236,3.269-11.845,3.554s-12.051-.853-12.122-2.535,5.236-3.269,11.846-3.546S184.744,216.867,184.812,218.589Z" transform="translate(-11.745 -15.774)" fill="#008083"/>
    <path id="Path_152" data-name="Path 152" d="M184.812,218.589c.071,1.682-5.236,3.269-11.845,3.554s-12.051-.853-12.122-2.535,5.236-3.269,11.846-3.546S184.744,216.867,184.812,218.589Z" transform="translate(-11.745 -15.774)" fill="#fff" opacity="0.4" style="mix-blend-mode: normal;isolation: isolate"/>
    <path id="Path_153" data-name="Path 153" d="M183.409,218.557a.517.517,0,0,1-.1.3c-.79-.987-5.2-1.576-10.432-1.342s-9.587,1.176-10.266,2.225a.428.428,0,0,1-.126-.292c-.056-1.137,4.6-2.274,10.377-2.52S183.356,217.42,183.409,218.557Z" transform="translate(-11.865 -15.837)" fill="#008083"/>
    <path id="Path_154" data-name="Path 154" d="M183.409,218.557a.517.517,0,0,1-.1.3c-.79-.987-5.2-1.576-10.432-1.342s-9.587,1.176-10.266,2.225a.428.428,0,0,1-.126-.292c-.056-1.137,4.6-2.274,10.377-2.52S183.356,217.42,183.409,218.557Z" transform="translate(-11.865 -15.837)" fill="#008083" opacity="0.4" style="mix-blend-mode: normal;isolation: isolate"/>
    <path id="Path_155" data-name="Path 155" d="M183.316,218.9c-.718,1.05-5.038,2.006-10.266,2.225s-9.65-.355-10.432-1.342c.7-1.05,5.022-2.006,10.266-2.225S182.511,217.908,183.316,218.9Z" transform="translate(-11.875 -15.884)" fill="#008083" opacity="0.4" style="mix-blend-mode: normal;isolation: isolate"/>
    <path id="Path_156" data-name="Path 156" d="M184.579,215.849c.071,1.674-5.236,3.269-11.845,3.546s-12.051-.845-12.122-2.527,5.236-3.269,11.845-3.554S184.528,214.164,184.579,215.849Z" transform="translate(-11.728 -15.574)" fill="#008083"/>
    <rect id="Rectangle_62" data-name="Rectangle 62" width="24.023" height="3.04" transform="translate(148.744 198.253) rotate(-2.43)" fill="#008083"/>
    <path id="Path_157" data-name="Path 157" d="M184.464,212.566c.071,1.682-5.244,3.269-11.846,3.546s-12.058-.845-12.129-2.527,5.244-3.269,11.845-3.546S184.393,210.884,184.464,212.566Z" transform="translate(-11.719 -15.335)" fill="#008083"/>
    <path id="Path_158" data-name="Path 158" d="M184.464,212.566c.071,1.682-5.244,3.269-11.846,3.546s-12.058-.845-12.129-2.527,5.244-3.269,11.845-3.546S184.393,210.884,184.464,212.566Z" transform="translate(-11.719 -15.335)" fill="#fff" opacity="0.4" style="mix-blend-mode: normal;isolation: isolate"/>
    <path id="Path_159" data-name="Path 159" d="M183.056,212.577a.419.419,0,0,1-.1.3c-.79-.987-5.191-1.576-10.432-1.342s-9.579,1.176-10.266,2.225a.542.542,0,0,1-.126-.292c-.047-1.137,4.6-2.274,10.382-2.52S183,211.44,183.056,212.577Z" transform="translate(-11.839 -15.401)" fill="#008083"/>
    <path id="Path_160" data-name="Path 160" d="M183.056,212.577a.419.419,0,0,1-.1.3c-.79-.987-5.191-1.576-10.432-1.342s-9.579,1.176-10.266,2.225a.542.542,0,0,1-.126-.292c-.047-1.137,4.6-2.274,10.382-2.52S183,211.44,183.056,212.577Z" transform="translate(-11.839 -15.401)" fill="#008083" opacity="0.4" style="mix-blend-mode: normal;isolation: isolate"/>
    <path id="Path_161" data-name="Path 161" d="M182.958,212.923c-.711,1.05-5.038,2.006-10.266,2.225s-9.641-.355-10.432-1.342c.7-1.05,5.022-2.006,10.266-2.225S182.161,211.944,182.958,212.923Z" transform="translate(-11.849 -15.447)" fill="#008083" opacity="0.4" style="mix-blend-mode: normal;isolation: isolate"/>
    <path id="Path_162" data-name="Path 162" d="M187.326,210.922c.071,1.682-5.244,3.269-11.845,3.554s-12.058-.853-12.129-2.535,5.244-3.269,11.845-3.546S187.255,209.2,187.326,210.922Z" transform="translate(-11.929 -15.215)" fill="#008083"/>
    <rect id="Rectangle_63" data-name="Rectangle 63" width="24.023" height="3.04" transform="translate(151.247 193.656) rotate(-2.43)" fill="#008083"/>
    <path id="Path_163" data-name="Path 163" d="M187.182,207.6c.071,1.682-5.244,3.269-11.846,3.554s-12.059-.853-12.129-2.535,5.244-3.269,11.845-3.546S187.142,205.94,187.182,207.6Z" transform="translate(-11.918 -14.972)" fill="#008083"/>
    <path id="Path_164" data-name="Path 164" d="M187.182,207.6c.071,1.682-5.244,3.269-11.846,3.554s-12.059-.853-12.129-2.535,5.244-3.269,11.845-3.546S187.142,205.94,187.182,207.6Z" transform="translate(-11.918 -14.972)" fill="#fff" opacity="0.4" style="mix-blend-mode: normal;isolation: isolate"/>
    <path id="Path_165" data-name="Path 165" d="M185.777,207.583a.505.505,0,0,1-.1.292c-.79-.987-5.191-1.576-10.432-1.342s-9.587,1.176-10.266,2.225a.475.475,0,0,1-.134-.292c-.047-1.137,4.6-2.274,10.382-2.52S185.721,206.478,185.777,207.583Z" transform="translate(-12.037 -15.036)" fill="#008083"/>
    <path id="Path_166" data-name="Path 166" d="M185.777,207.583a.505.505,0,0,1-.1.292c-.79-.987-5.191-1.576-10.432-1.342s-9.587,1.176-10.266,2.225a.475.475,0,0,1-.134-.292c-.047-1.137,4.6-2.274,10.382-2.52S185.721,206.478,185.777,207.583Z" transform="translate(-12.037 -15.036)" fill="#008083" opacity="0.4" style="mix-blend-mode: normal;isolation: isolate"/>
    <path id="Path_167" data-name="Path 167" d="M185.693,207.956c-.718,1.059-5.038,2.006-10.266,2.225s-9.65-.355-10.432-1.342c.7-1.05,5.022-2.006,10.266-2.225S184.9,206.968,185.693,207.956Z" transform="translate(-12.049 -15.084)" fill="#008083" opacity="0.4" style="mix-blend-mode: normal;isolation: isolate"/>
    <path id="Path_168" data-name="Path 168" d="M183.171,206.663c.071,1.682-5.244,3.269-11.846,3.554s-12.114-.845-12.114-2.528,5.244-3.269,11.846-3.546S183.1,205,183.171,206.663Z" transform="translate(-11.626 -14.904)" fill="#008083"/>
    <rect id="Rectangle_64" data-name="Rectangle 64" width="24.023" height="3.04" transform="translate(147.421 189.741) rotate(-2.43)" fill="#008083"/>
    <path id="Path_169" data-name="Path 169" d="M183.033,203.391c.071,1.682-5.244,3.269-11.845,3.554s-12.058-.853-12.129-2.535,5.244-3.269,11.846-3.546S182.962,201.685,183.033,203.391Z" transform="translate(-11.615 -14.665)" fill="#008083"/>
    <path id="Path_170" data-name="Path 170" d="M183.033,203.391c.071,1.682-5.244,3.269-11.845,3.554s-12.058-.853-12.129-2.535,5.244-3.269,11.846-3.546S182.962,201.685,183.033,203.391Z" transform="translate(-11.615 -14.665)" fill="#fff" opacity="0.4" style="mix-blend-mode: normal;isolation: isolate"/>
    <path id="Path_171" data-name="Path 171" d="M181.619,203.409a.417.417,0,0,1-.1.292c-.79-.987-5.191-1.576-10.432-1.342s-9.579,1.176-10.266,2.225a.465.465,0,0,1-.126-.292c-.047-1.137,4.6-2.274,10.382-2.52S181.572,202.272,181.619,203.409Z" transform="translate(-11.734 -14.731)" fill="#008083"/>
    <path id="Path_172" data-name="Path 172" d="M181.619,203.409a.417.417,0,0,1-.1.292c-.79-.987-5.191-1.576-10.432-1.342s-9.579,1.176-10.266,2.225a.465.465,0,0,1-.126-.292c-.047-1.137,4.6-2.274,10.382-2.52S181.572,202.272,181.619,203.409Z" transform="translate(-11.734 -14.731)" fill="#008083" opacity="0.4" style="mix-blend-mode: normal;isolation: isolate"/>
    <path id="Path_173" data-name="Path 173" d="M181.527,203.747c-.718,1.059-5.038,2.006-10.266,2.225s-9.641-.355-10.432-1.342c.7-1.05,5.022-2,10.266-2.225S180.722,202.76,181.527,203.747Z" transform="translate(-11.744 -14.777)" fill="#008083" opacity="0.4" style="mix-blend-mode: normal;isolation: isolate"/>
    <path id="Path_174" data-name="Path 174" d="M185.9,201.706c.071,1.682-5.244,3.269-11.845,3.554s-12.051-.853-12.122-2.535,5.236-3.269,11.845-3.546S185.818,200.03,185.9,201.706Z" transform="translate(-11.825 -14.542)" fill="#008083"/>
    <rect id="Rectangle_65" data-name="Rectangle 65" width="24.023" height="3.04" transform="translate(149.933 185.152) rotate(-2.43)" fill="#008083"/>
    <path id="Path_175" data-name="Path 175" d="M185.751,198.424c.071,1.682-5.244,3.269-11.845,3.554s-12.058-.853-12.129-2.535,5.244-3.261,11.846-3.546S185.683,196.75,185.751,198.424Z" transform="translate(-11.813 -14.302)" fill="#008083"/>
    <path id="Path_176" data-name="Path 176" d="M185.751,198.424c.071,1.682-5.244,3.269-11.845,3.554s-12.058-.853-12.129-2.535,5.244-3.261,11.846-3.546S185.683,196.75,185.751,198.424Z" transform="translate(-11.813 -14.302)" fill="#fff" opacity="0.4" style="mix-blend-mode: normal;isolation: isolate"/>
    <path id="Path_177" data-name="Path 177" d="M184.337,198.443a.453.453,0,0,1-.1.3c-.79-.987-5.191-1.576-10.432-1.351s-9.578,1.176-10.266,2.225a.517.517,0,0,1-.126-.292c-.047-1.137,4.6-2.274,10.382-2.52S184.29,197.306,184.337,198.443Z" transform="translate(-11.933 -14.368)" fill="#008083"/>
    <path id="Path_178" data-name="Path 178" d="M184.337,198.443a.453.453,0,0,1-.1.3c-.79-.987-5.191-1.576-10.432-1.351s-9.578,1.176-10.266,2.225a.517.517,0,0,1-.126-.292c-.047-1.137,4.6-2.274,10.382-2.52S184.29,197.306,184.337,198.443Z" transform="translate(-11.933 -14.368)" fill="#008083" opacity="0.4" style="mix-blend-mode: normal;isolation: isolate"/>
    <path id="Path_179" data-name="Path 179" d="M184.244,198.79c-.711,1.05-5.038,2-10.266,2.219s-9.641-.355-10.432-1.342c.7-1.05,5.022-2,10.266-2.225S183.447,197.8,184.244,198.79Z" transform="translate(-11.943 -14.414)" fill="#008083" opacity="0.4" style="mix-blend-mode: normal;isolation: isolate"/>
    <circle id="Ellipse_13" data-name="Ellipse 13" cx="10.819" cy="10.819" r="10.819" transform="translate(149.453 162.772)" fill="#008083"/>
    <circle id="Ellipse_14" data-name="Ellipse 14" cx="10.819" cy="10.819" r="10.819" transform="translate(150.646 163.307)" fill="#008083"/>
    <circle id="Ellipse_15" data-name="Ellipse 15" cx="10.819" cy="10.819" r="10.819" transform="translate(150.646 163.307)" fill="#fff" opacity="0.4" style="mix-blend-mode: normal;isolation: isolate"/>
    <path id="Path_180" data-name="Path 180" d="M180.766,190.752a8.7,8.7,0,1,1,0-.007Z" transform="translate(-11.93 -13.294)" fill="#008083"/>
    <path id="Path_181" data-name="Path 181" d="M283.075,253.568c-.245.987-3.593.995-7.478,0S268.759,251,269,250.023s3.6-.995,7.486,0S283.313,252.605,283.075,253.568Z" transform="translate(-19.643 -18.204)" fill="#008083"/>
    <rect id="Rectangle_66" data-name="Rectangle 66" width="1.84" height="14.506" transform="translate(249.369 231.85) rotate(-75.94)" fill="#008083"/>
    <path id="Path_182" data-name="Path 182" d="M283.561,251.682c-.253.987-3.6.995-7.486,0s-6.831-2.558-6.582-3.546,3.593-.995,7.478,0S283.805,250.667,283.561,251.682Z" transform="translate(-19.678 -18.066)" fill="#008083"/>
    <path id="Path_183" data-name="Path 183" d="M283.561,251.682c-.253.987-3.6.995-7.486,0s-6.831-2.558-6.582-3.546,3.593-.995,7.478,0S283.805,250.667,283.561,251.682Z" transform="translate(-19.678 -18.066)" fill="#fff" opacity="0.4" style="mix-blend-mode: normal;isolation: isolate"/>
    <path id="Path_184" data-name="Path 184" d="M282.752,251.39a.245.245,0,0,1-.11.158c-.292-.711-2.733-1.8-5.8-2.567s-5.747-.963-6.317-.474a.418.418,0,0,1,0-.185c.173-.671,3.059-.529,6.452.316S282.922,250.727,282.752,251.39Z" transform="translate(-19.754 -18.102)" fill="#008083"/>
    <path id="Path_185" data-name="Path 185" d="M282.752,251.39a.245.245,0,0,1-.11.158c-.292-.711-2.733-1.8-5.8-2.567s-5.747-.963-6.317-.474a.418.418,0,0,1,0-.185c.173-.671,3.059-.529,6.452.316S282.922,250.727,282.752,251.39Z" transform="translate(-19.754 -18.102)" fill="#008083" opacity="0.4" style="mix-blend-mode: normal;isolation: isolate"/>
    <path id="Path_186" data-name="Path 186" d="M282.632,251.575c-.592.482-3.254.292-6.317-.474s-5.528-1.863-5.812-2.567c.592-.489,3.254-.3,6.317.474S282.349,250.862,282.632,251.575Z" transform="translate(-19.753 -18.129)" fill="#008083" opacity="0.4" style="mix-blend-mode: normal;isolation: isolate"/>
    <path id="Path_187" data-name="Path 187" d="M290.335,257.277c.047,1.01-3.159,1.974-7.17,2.14s-7.281-.514-7.323-1.524,3.159-1.974,7.17-2.148S290.3,256.232,290.335,257.277Z" transform="translate(-20.143 -18.673)" fill="#008083"/>
    <rect id="Rectangle_67" data-name="Rectangle 67" width="14.506" height="1.84" transform="translate(255.604 237.397) rotate(-2.43)" fill="#008083"/>
    <path id="Path_188" data-name="Path 188" d="M290.249,255.3c.047,1.02-3.159,1.974-7.163,2.148s-7.28-.514-7.329-1.532,3.159-1.974,7.17-2.14S290.21,254.282,290.249,255.3Z" transform="translate(-20.137 -18.53)" fill="#008083"/>
    <path id="Path_189" data-name="Path 189" d="M290.249,255.3c.047,1.02-3.159,1.974-7.163,2.148s-7.28-.514-7.329-1.532,3.159-1.974,7.17-2.14S290.21,254.282,290.249,255.3Z" transform="translate(-20.137 -18.53)" fill="#fff" opacity="0.4" style="mix-blend-mode: normal;isolation: isolate"/>
    <path id="Path_190" data-name="Path 190" d="M289.4,255.344a.232.232,0,0,1-.063.185c-.482-.592-3.159-.947-6.317-.79s-5.788.711-6.211,1.342a.276.276,0,0,1-.071-.173c0-.687,2.772-1.374,6.27-1.524S289.4,254.618,289.4,255.344Z" transform="translate(-20.209 -18.574)" fill="#008083"/>
    <path id="Path_191" data-name="Path 191" d="M289.4,255.344a.232.232,0,0,1-.063.185c-.482-.592-3.159-.947-6.317-.79s-5.788.711-6.211,1.342a.276.276,0,0,1-.071-.173c0-.687,2.772-1.374,6.27-1.524S289.4,254.618,289.4,255.344Z" transform="translate(-20.209 -18.574)" fill="#008083" opacity="0.4" style="mix-blend-mode: normal;isolation: isolate"/>
    <path id="Path_192" data-name="Path 192" d="M289.34,255.511c-.426.632-3.04,1.205-6.211,1.342s-5.82-.213-6.317-.79c.426-.632,3.04-1.205,6.211-1.342S288.858,254.919,289.34,255.511Z" transform="translate(-20.214 -18.598)" fill="#008083" opacity="0.4" style="mix-blend-mode: normal;isolation: isolate"/>
    <circle id="Ellipse_16" data-name="Ellipse 16" cx="10.819" cy="10.819" r="10.819" transform="translate(242.702 218.229)" fill="#008083"/>
    <path id="Path_193" data-name="Path 193" d="M281.776,254.412a10.819,10.819,0,1,1-.879-15.275h0A10.819,10.819,0,0,1,281.776,254.412Z" transform="translate(-19.197 -17.262)" fill="#008083"/>
    <path id="Path_194" data-name="Path 194" d="M281.776,254.412a10.819,10.819,0,1,1-.879-15.275h0A10.819,10.819,0,0,1,281.776,254.412Z" transform="translate(-19.197 -17.262)" fill="#fff" opacity="0.4" style="mix-blend-mode: normal;isolation: isolate"/>
    <path id="Path_195" data-name="Path 195" d="M279.918,252.818a8.1,8.1,0,1,1-.66-11.44v0a8.1,8.1,0,0,1,.662,11.428Z" transform="translate(-19.407 -17.476)" fill="#008083"/>
    <path id="Path_196" data-name="Path 196" d="M130.059,258.36c-.04,1.01,3.159,1.974,7.17,2.14s7.28-.514,7.323-1.524-3.159-1.974-7.163-2.148S130.106,257.341,130.059,258.36Z" transform="translate(-9.497 -18.753)" fill="#008083"/>
    <rect id="Rectangle_68" data-name="Rectangle 68" width="1.84" height="14.506" transform="translate(120.567 239.612) rotate(-87.57)" fill="#008083"/>
    <path id="Path_197" data-name="Path 197" d="M130.144,256.378c-.047,1.02,3.159,1.974,7.17,2.148s7.28-.514,7.323-1.532-3.159-1.974-7.17-2.14S130.183,255.383,130.144,256.378Z" transform="translate(-9.504 -18.609)" fill="#008083"/>
    <path id="Path_198" data-name="Path 198" d="M130.144,256.378c-.047,1.02,3.159,1.974,7.17,2.148s7.28-.514,7.323-1.532-3.159-1.974-7.17-2.14S130.183,255.383,130.144,256.378Z" transform="translate(-9.504 -18.609)" fill="#fff" opacity="0.4" style="mix-blend-mode: normal;isolation: isolate"/>
    <path id="Path_199" data-name="Path 199" d="M131.141,256.385a.3.3,0,0,0,.063.185c.482-.592,3.159-.947,6.317-.79s5.781.711,6.211,1.351a.321.321,0,0,0,.079-.185c0-.687-2.781-1.374-6.27-1.517S131.173,255.7,131.141,256.385Z" transform="translate(-9.576 -18.65)" fill="#008083"/>
    <path id="Path_200" data-name="Path 200" d="M131.141,256.385a.3.3,0,0,0,.063.185c.482-.592,3.159-.947,6.317-.79s5.781.711,6.211,1.351a.321.321,0,0,0,.079-.185c0-.687-2.781-1.374-6.27-1.517S131.173,255.7,131.141,256.385Z" transform="translate(-9.576 -18.65)" fill="#008083" opacity="0.4" style="mix-blend-mode: normal;isolation: isolate"/>
    <path id="Path_201" data-name="Path 201" d="M131.209,256.593c.435.64,3.04,1.205,6.211,1.342s5.828-.213,6.317-.79c-.426-.64-3.032-1.205-6.211-1.351S131.691,256,131.209,256.593Z" transform="translate(-9.581 -18.677)" fill="#008083" opacity="0.4" style="mix-blend-mode: normal;isolation: isolate"/>
    <path id="Path_202" data-name="Path 202" d="M128.415,255.36c0,1.01,3.159,1.974,7.17,2.14s7.281-.514,7.323-1.524-3.159-1.974-7.163-2.148S128.461,254.349,128.415,255.36Z" transform="translate(-9.377 -18.534)" fill="#008083"/>
    <rect id="Rectangle_69" data-name="Rectangle 69" width="1.84" height="14.506" transform="translate(119.028 236.808) rotate(-87.57)" fill="#008083"/>
    <path id="Path_203" data-name="Path 203" d="M128.543,253.378c0,1.02,3.159,1.974,7.17,2.148s7.281-.514,7.323-1.532-3.159-1.974-7.163-2.14S128.543,252.365,128.543,253.378Z" transform="translate(-9.387 -18.389)" fill="#008083"/>
    <path id="Path_204" data-name="Path 204" d="M128.543,253.378c0,1.02,3.159,1.974,7.17,2.148s7.281-.514,7.323-1.532-3.159-1.974-7.163-2.14S128.543,252.365,128.543,253.378Z" transform="translate(-9.387 -18.389)" fill="#fff" opacity="0.4" style="mix-blend-mode: normal;isolation: isolate"/>
    <path id="Path_205" data-name="Path 205" d="M129.5,253.385a.3.3,0,0,0,.063.185c.482-.592,3.159-.94,6.317-.79s5.781.7,6.211,1.342a.321.321,0,0,0,.079-.185c0-.679-2.781-1.374-6.27-1.517S129.529,252.7,129.5,253.385Z" transform="translate(-9.457 -18.431)" fill="#008083"/>
    <path id="Path_206" data-name="Path 206" d="M129.5,253.385a.3.3,0,0,0,.063.185c.482-.592,3.159-.94,6.317-.79s5.781.7,6.211,1.342a.321.321,0,0,0,.079-.185c0-.679-2.781-1.374-6.27-1.517S129.529,252.7,129.5,253.385Z" transform="translate(-9.457 -18.431)" fill="#008083" opacity="0.4" style="mix-blend-mode: normal;isolation: isolate"/>
    <path id="Path_207" data-name="Path 207" d="M129.565,253.594c.435.64,3.04,1.205,6.211,1.342s5.828-.213,6.317-.79c-.426-.64-3.032-1.205-6.211-1.342S130.047,253,129.565,253.594Z" transform="translate(-9.461 -18.458)" fill="#008083" opacity="0.4" style="mix-blend-mode: normal;isolation: isolate"/>
    <path id="Path_208" data-name="Path 208" d="M128.628,251.748c0,1.01,3.159,1.974,7.17,2.14s7.281-.514,7.323-1.524-3.159-1.974-7.163-2.148S128.675,250.737,128.628,251.748Z" transform="translate(-9.393 -18.27)" fill="#008083"/>
    <rect id="Rectangle_70" data-name="Rectangle 70" width="1.84" height="14.506" transform="translate(119.221 233.46) rotate(-87.57)" fill="#008083"/>
    <path id="Path_209" data-name="Path 209" d="M128.713,249.763c0,1.02,3.159,1.974,7.17,2.148s7.281-.514,7.323-1.532-3.159-1.974-7.163-2.14S128.76,248.753,128.713,249.763Z" transform="translate(-9.399 -18.125)" fill="#008083"/>
    <path id="Path_210" data-name="Path 210" d="M128.713,249.763c0,1.02,3.159,1.974,7.17,2.148s7.281-.514,7.323-1.532-3.159-1.974-7.163-2.14S128.76,248.753,128.713,249.763Z" transform="translate(-9.399 -18.125)" fill="#fff" opacity="0.4" style="mix-blend-mode: normal;isolation: isolate"/>
    <path id="Path_211" data-name="Path 211" d="M129.71,249.773a.3.3,0,0,0,.063.185c.482-.592,3.159-.94,6.317-.79s5.781.7,6.211,1.342a.321.321,0,0,0,.079-.185c0-.679-2.781-1.374-6.27-1.517S129.738,249.094,129.71,249.773Z" transform="translate(-9.472 -18.167)" fill="#008083"/>
    <path id="Path_212" data-name="Path 212" d="M129.71,249.773a.3.3,0,0,0,.063.185c.482-.592,3.159-.94,6.317-.79s5.781.7,6.211,1.342a.321.321,0,0,0,.079-.185c0-.679-2.781-1.374-6.27-1.517S129.738,249.094,129.71,249.773Z" transform="translate(-9.472 -18.167)" fill="#008083" opacity="0.4" style="mix-blend-mode: normal;isolation: isolate"/>
    <path id="Path_213" data-name="Path 213" d="M129.778,249.982c.435.64,3.04,1.205,6.211,1.342s5.828-.213,6.317-.79c-.426-.64-3.032-1.205-6.211-1.342S130.262,249.393,129.778,249.982Z" transform="translate(-9.477 -18.195)" fill="#008083" opacity="0.4" style="mix-blend-mode: normal;isolation: isolate"/>
    <path id="Path_214" data-name="Path 214" d="M126.984,248.749c0,1.01,3.159,1.974,7.17,2.14s7.281-.514,7.329-1.524-3.159-1.974-7.17-2.148S127.031,247.713,126.984,248.749Z" transform="translate(-9.273 -18.051)" fill="#008083"/>
    <rect id="Rectangle_71" data-name="Rectangle 71" width="1.84" height="14.506" transform="translate(117.707 230.687) rotate(-87.57)" fill="#008083"/>
    <path id="Path_215" data-name="Path 215" d="M127.069,246.778c-.04,1.02,3.159,1.974,7.17,2.148s7.281-.514,7.323-1.532-3.159-1.966-7.163-2.14S127.116,245.753,127.069,246.778Z" transform="translate(-9.279 -17.907)" fill="#008083"/>
    <path id="Path_216" data-name="Path 216" d="M127.069,246.778c-.04,1.02,3.159,1.974,7.17,2.148s7.281-.514,7.323-1.532-3.159-1.966-7.163-2.14S127.116,245.753,127.069,246.778Z" transform="translate(-9.279 -17.907)" fill="#fff" opacity="0.4" style="mix-blend-mode: normal;isolation: isolate"/>
    <path id="Path_217" data-name="Path 217" d="M128.066,246.774a.3.3,0,0,0,.063.185c.489-.592,3.159-.94,6.317-.79s5.788.7,6.211,1.342a.271.271,0,0,0,.079-.173c0-.687-2.781-1.382-6.27-1.524S128.1,246.1,128.066,246.774Z" transform="translate(-9.352 -17.948)" fill="#008083"/>
    <path id="Path_218" data-name="Path 218" d="M128.066,246.774a.3.3,0,0,0,.063.185c.489-.592,3.159-.94,6.317-.79s5.788.7,6.211,1.342a.271.271,0,0,0,.079-.173c0-.687-2.781-1.382-6.27-1.524S128.1,246.1,128.066,246.774Z" transform="translate(-9.352 -17.948)" fill="#008083" opacity="0.4" style="mix-blend-mode: normal;isolation: isolate"/>
    <path id="Path_219" data-name="Path 219" d="M128.134,246.983c.435.64,3.04,1.205,6.211,1.342s5.828-.213,6.317-.79c-.419-.64-3.032-1.205-6.211-1.342S128.623,246.391,128.134,246.983Z" transform="translate(-9.357 -17.976)" fill="#008083" opacity="0.4" style="mix-blend-mode: normal;isolation: isolate"/>
    <path id="Path_220" data-name="Path 220" d="M129.5,246.21c-.047,1.01,3.159,1.974,7.17,2.14s7.281-.514,7.323-1.524-3.159-1.974-7.17-2.148S129.537,245.16,129.5,246.21Z" transform="translate(-9.457 -17.865)" fill="#008083"/>
    <rect id="Rectangle_72" data-name="Rectangle 72" width="1.84" height="14.506" transform="translate(120.027 228.324) rotate(-87.57)" fill="#008083"/>
    <path id="Path_221" data-name="Path 221" d="M129.582,244.227c-.047,1.02,3.159,1.974,7.163,2.148s7.28-.514,7.329-1.532-3.159-1.974-7.17-2.14S129.621,243.216,129.582,244.227Z" transform="translate(-9.462 -17.721)" fill="#008083"/>
    <path id="Path_222" data-name="Path 222" d="M129.582,244.227c-.047,1.02,3.159,1.974,7.163,2.148s7.28-.514,7.329-1.532-3.159-1.974-7.17-2.14S129.621,243.216,129.582,244.227Z" transform="translate(-9.462 -17.721)" fill="#fff" opacity="0.4" style="mix-blend-mode: normal;isolation: isolate"/>
    <path id="Path_223" data-name="Path 223" d="M130.579,244.27a.232.232,0,0,0,.063.185c.482-.592,3.159-.947,6.317-.79s5.788.711,6.211,1.342a.276.276,0,0,0,.071-.173c0-.687-2.772-1.374-6.27-1.524S130.6,243.552,130.579,244.27Z" transform="translate(-9.535 -17.765)" fill="#008083"/>
    <path id="Path_224" data-name="Path 224" d="M130.579,244.27a.232.232,0,0,0,.063.185c.482-.592,3.159-.947,6.317-.79s5.788.711,6.211,1.342a.276.276,0,0,0,.071-.173c0-.687-2.772-1.374-6.27-1.524S130.6,243.552,130.579,244.27Z" transform="translate(-9.535 -17.765)" fill="#008083" opacity="0.4" style="mix-blend-mode: normal;isolation: isolate"/>
    <path id="Path_225" data-name="Path 225" d="M130.647,244.445c.426.632,3.04,1.205,6.211,1.342s5.82-.213,6.317-.79c-.426-.632-3.04-1.205-6.211-1.342S131.129,243.856,130.647,244.445Z" transform="translate(-9.54 -17.79)" fill="#008083" opacity="0.4" style="mix-blend-mode: normal;isolation: isolate"/>
    <path id="Path_226" data-name="Path 226" d="M118.472,257.962c.245.987,3.6.995,7.486,0s6.831-2.558,6.582-3.546-3.593-.995-7.478,0S118.227,256.985,118.472,257.962Z" transform="translate(-8.65 -18.524)" fill="#008083"/>
    <rect id="Rectangle_73" data-name="Rectangle 73" width="14.506" height="1.84" transform="translate(109.379 237.656) rotate(-14.06)" fill="#008083"/>
    <path id="Path_227" data-name="Path 227" d="M118,256.049c.245.979,3.593.995,7.479,0s6.838-2.558,6.582-3.538-3.593-.995-7.478,0S117.743,255.062,118,256.049Z" transform="translate(-8.616 -18.385)" fill="#008083"/>
    <path id="Path_228" data-name="Path 228" d="M118,256.049c.245.979,3.593.995,7.479,0s6.838-2.558,6.582-3.538-3.593-.995-7.478,0S117.743,255.062,118,256.049Z" transform="translate(-8.616 -18.385)" fill="#fff" opacity="0.4" style="mix-blend-mode: normal;isolation: isolate"/>
    <path id="Path_229" data-name="Path 229" d="M118.941,255.792a.261.261,0,0,0,.11.15c.292-.7,2.733-1.793,5.812-2.567s5.741-.963,6.317-.474a.266.266,0,0,0,0-.185c-.166-.664-3.059-.529-6.443.324S118.775,255.124,118.941,255.792Z" transform="translate(-8.685 -18.424)" fill="#008083"/>
    <path id="Path_230" data-name="Path 230" d="M118.941,255.792a.261.261,0,0,0,.11.15c.292-.7,2.733-1.793,5.812-2.567s5.741-.963,6.317-.474a.266.266,0,0,0,0-.185c-.166-.664-3.059-.529-6.443.324S118.775,255.124,118.941,255.792Z" transform="translate(-8.685 -18.424)" fill="#008083" opacity="0.4" style="mix-blend-mode: normal;isolation: isolate"/>
    <path id="Path_231" data-name="Path 231" d="M119.061,256.014c.592.489,3.261.3,6.317-.474s5.528-1.854,5.812-2.567c-.592-.489-3.254-.292-6.317.474S119.353,255.272,119.061,256.014Z" transform="translate(-8.694 -18.454)" fill="#008083" opacity="0.4" style="mix-blend-mode: normal;isolation: isolate"/>
    <path id="Path_232" data-name="Path 232" d="M111.224,258.36c0,1.01,3.159,1.974,7.17,2.14s7.281-.514,7.323-1.524-3.159-1.974-7.163-2.148S111.271,257.341,111.224,258.36Z" transform="translate(-8.122 -18.753)" fill="#008083"/>
    <rect id="Rectangle_74" data-name="Rectangle 74" width="1.84" height="14.506" transform="translate(103.094 239.589) rotate(-87.57)" fill="#008083"/>
    <path id="Path_233" data-name="Path 233" d="M111.309,256.378c-.04,1.02,3.159,1.974,7.17,2.148s7.281-.514,7.323-1.532-3.159-1.974-7.163-2.14S111.356,255.383,111.309,256.378Z" transform="translate(-8.128 -18.609)" fill="#008083"/>
    <path id="Path_234" data-name="Path 234" d="M111.309,256.378c-.04,1.02,3.159,1.974,7.17,2.148s7.281-.514,7.323-1.532-3.159-1.974-7.163-2.14S111.356,255.383,111.309,256.378Z" transform="translate(-8.128 -18.609)" fill="#fff" opacity="0.4" style="mix-blend-mode: normal;isolation: isolate"/>
    <path id="Path_235" data-name="Path 235" d="M112.306,256.385a.3.3,0,0,0,.063.185c.482-.592,3.159-.947,6.317-.79s5.781.711,6.211,1.351a.321.321,0,0,0,.079-.185c0-.687-2.781-1.374-6.27-1.517S112.353,255.7,112.306,256.385Z" transform="translate(-8.201 -18.65)" fill="#008083"/>
    <path id="Path_236" data-name="Path 236" d="M112.306,256.385a.3.3,0,0,0,.063.185c.482-.592,3.159-.947,6.317-.79s5.781.711,6.211,1.351a.321.321,0,0,0,.079-.185c0-.687-2.781-1.374-6.27-1.517S112.353,255.7,112.306,256.385Z" transform="translate(-8.201 -18.65)" fill="#008083" opacity="0.4" style="mix-blend-mode: normal;isolation: isolate"/>
    <path id="Path_237" data-name="Path 237" d="M112.357,256.593c.435.64,3.04,1.205,6.211,1.342s5.828-.213,6.317-.79c-.426-.64-3.032-1.205-6.211-1.351S112.855,256,112.357,256.593Z" transform="translate(-8.205 -18.677)" fill="#008083" opacity="0.4" style="mix-blend-mode: normal;isolation: isolate"/>
    <path id="Path_238" data-name="Path 238" d="M191.975,258.262c-.047,1.043,3.254,2.029,7.368,2.2s7.486-.529,7.534-1.576-3.261-2.022-7.376-2.2S192.012,257.219,191.975,258.262Z" transform="translate(-14.019 -18.742)" fill="#008083"/>
    <rect id="Rectangle_75" data-name="Rectangle 75" width="1.887" height="14.917" transform="translate(177.94 239.494) rotate(-87.57)" fill="#008083"/>
    <path id="Path_239" data-name="Path 239" d="M192.06,256.226c-.047,1.043,3.254,2.029,7.368,2.2s7.486-.529,7.534-1.576-3.254-2.022-7.376-2.2S192.1,255.183,192.06,256.226Z" transform="translate(-14.025 -18.593)" fill="#008083"/>
    <path id="Path_240" data-name="Path 240" d="M192.06,256.226c-.047,1.043,3.254,2.029,7.368,2.2s7.486-.529,7.534-1.576-3.254-2.022-7.376-2.2S192.1,255.183,192.06,256.226Z" transform="translate(-14.025 -18.593)" fill="#fff" opacity="0.4" style="mix-blend-mode: normal;isolation: isolate"/>
    <path id="Path_241" data-name="Path 241" d="M193.083,256.234a.342.342,0,0,0,.063.185c.5-.616,3.222-.971,6.483-.834s5.947.727,6.38,1.382a.268.268,0,0,0,.079-.185c0-.7-2.85-1.414-6.443-1.576S193.115,255.531,193.083,256.234Z" transform="translate(-14.1 -18.634)" fill="#008083"/>
    <path id="Path_242" data-name="Path 242" d="M193.083,256.234a.342.342,0,0,0,.063.185c.5-.616,3.222-.971,6.483-.834s5.947.727,6.38,1.382a.268.268,0,0,0,.079-.185c0-.7-2.85-1.414-6.443-1.576S193.115,255.531,193.083,256.234Z" transform="translate(-14.1 -18.634)" fill="#008083" opacity="0.4" style="mix-blend-mode: normal;isolation: isolate"/>
    <path id="Path_243" data-name="Path 243" d="M193.151,256.453c.451.649,3.159,1.239,6.389,1.382s5.985-.222,6.476-.834c-.435-.655-3.119-1.24-6.38-1.382S193.649,255.837,193.151,256.453Z" transform="translate(-14.105 -18.664)" fill="#008083" opacity="0.4" style="mix-blend-mode: normal;isolation: isolate"/>
    <path id="Path_244" data-name="Path 244" d="M190.28,255.174c-.04,1.043,3.261,2.029,7.376,2.211s7.486-.529,7.526-1.576-3.254-2.029-7.368-2.211S190.327,254.135,190.28,255.174Z" transform="translate(-13.895 -18.517)" fill="#008083"/>
    <rect id="Rectangle_76" data-name="Rectangle 76" width="1.887" height="14.917" transform="translate(176.383 236.654) rotate(-87.57)" fill="#008083"/>
    <path id="Path_245" data-name="Path 245" d="M190.374,253.142c-.047,1.043,3.254,2.029,7.368,2.211s7.486-.529,7.534-1.576-3.261-2.029-7.376-2.211S190.414,252.1,190.374,253.142Z" transform="translate(-13.902 -18.368)" fill="#008083"/>
    <path id="Path_246" data-name="Path 246" d="M190.374,253.142c-.047,1.043,3.254,2.029,7.368,2.211s7.486-.529,7.534-1.576-3.261-2.029-7.376-2.211S190.414,252.1,190.374,253.142Z" transform="translate(-13.902 -18.368)" fill="#fff" opacity="0.4" style="mix-blend-mode: normal;isolation: isolate"/>
    <path id="Path_247" data-name="Path 247" d="M191.4,253.15a.343.343,0,0,0,.063.185c.5-.616,3.222-.971,6.476-.834s5.954.727,6.389,1.382a.321.321,0,0,0,.079-.185c0-.7-2.859-1.414-6.452-1.576S191.428,252.447,191.4,253.15Z" transform="translate(-13.977 -18.409)" fill="#008083"/>
    <path id="Path_248" data-name="Path 248" d="M191.4,253.15a.343.343,0,0,0,.063.185c.5-.616,3.222-.971,6.476-.834s5.954.727,6.389,1.382a.321.321,0,0,0,.079-.185c0-.7-2.859-1.414-6.452-1.576S191.428,252.447,191.4,253.15Z" transform="translate(-13.977 -18.409)" fill="#008083" opacity="0.4" style="mix-blend-mode: normal;isolation: isolate"/>
    <path id="Path_249" data-name="Path 249" d="M191.464,253.37c.442.649,3.159,1.24,6.38,1.382s5.994-.221,6.483-.834c-.435-.655-3.119-1.239-6.389-1.382S191.961,252.754,191.464,253.37Z" transform="translate(-13.981 -18.439)" fill="#008083" opacity="0.4" style="mix-blend-mode: normal;isolation: isolate"/>
    <path id="Path_250" data-name="Path 250" d="M193.909,252.9c-.047,1.035,3.254,2.022,7.368,2.2s7.486-.529,7.534-1.576-3.261-2.029-7.376-2.2S193.949,251.856,193.909,252.9Z" transform="translate(-14.16 -18.351)" fill="#008083"/>
    <rect id="Rectangle_77" data-name="Rectangle 77" width="1.887" height="14.917" transform="translate(179.733 234.53) rotate(-87.57)" fill="#008083"/>
    <path id="Path_251" data-name="Path 251" d="M193.994,250.858c-.047,1.042,3.254,2.029,7.368,2.211s7.486-.529,7.534-1.576-3.261-2.029-7.376-2.2S194.034,249.824,193.994,250.858Z" transform="translate(-14.166 -18.202)" fill="#008083"/>
    <path id="Path_252" data-name="Path 252" d="M193.994,250.858c-.047,1.042,3.254,2.029,7.368,2.211s7.486-.529,7.534-1.576-3.261-2.029-7.376-2.2S194.034,249.824,193.994,250.858Z" transform="translate(-14.166 -18.202)" fill="#fff" opacity="0.4" style="mix-blend-mode: normal;isolation: isolate"/>
    <path id="Path_253" data-name="Path 253" d="M194.991,250.867a.342.342,0,0,0,.063.185c.5-.616,3.222-.971,6.476-.834s5.954.727,6.389,1.382a.321.321,0,0,0,.079-.185c0-.7-2.859-1.414-6.452-1.576S195.047,250.164,194.991,250.867Z" transform="translate(-14.239 -18.242)" fill="#008083"/>
    <path id="Path_254" data-name="Path 254" d="M194.991,250.867a.342.342,0,0,0,.063.185c.5-.616,3.222-.971,6.476-.834s5.954.727,6.389,1.382a.321.321,0,0,0,.079-.185c0-.7-2.859-1.414-6.452-1.576S195.047,250.164,194.991,250.867Z" transform="translate(-14.239 -18.242)" fill="#008083" opacity="0.4" style="mix-blend-mode: normal;isolation: isolate"/>
    <path id="Path_255" data-name="Path 255" d="M195.085,251.095c.442.655,3.159,1.24,6.38,1.382s5.994-.222,6.483-.834c-.435-.655-3.119-1.239-6.389-1.382S195.583,250.471,195.085,251.095Z" transform="translate(-14.246 -18.273)" fill="#008083" opacity="0.4" style="mix-blend-mode: normal;isolation: isolate"/>
    <path id="Path_256" data-name="Path 256" d="M193.952,249.819c-.047,1.043,3.254,2.029,7.368,2.2s7.486-.529,7.534-1.576-3.261-2.029-7.376-2.2S193.991,248.776,193.952,249.819Z" transform="translate(-14.163 -18.126)" fill="#008083"/>
    <rect id="Rectangle_78" data-name="Rectangle 78" width="1.889" height="14.929" transform="translate(179.506 230.716) rotate(-87.709)" fill="#008083"/>
    <path id="Path_257" data-name="Path 257" d="M194.037,247.783c-.047,1.043,3.254,2.029,7.368,2.2s7.486-.529,7.534-1.576-3.261-2.029-7.376-2.2S194.076,246.74,194.037,247.783Z" transform="translate(-14.169 -17.977)" fill="#008083"/>
    <path id="Path_258" data-name="Path 258" d="M194.037,247.783c-.047,1.043,3.254,2.029,7.368,2.2s7.486-.529,7.534-1.576-3.261-2.029-7.376-2.2S194.076,246.74,194.037,247.783Z" transform="translate(-14.169 -17.977)" fill="#fff" opacity="0.4" style="mix-blend-mode: normal;isolation: isolate"/>
    <path id="Path_259" data-name="Path 259" d="M195.059,247.792a.319.319,0,0,0,.063.185c.5-.616,3.222-.971,6.476-.834s5.954.734,6.389,1.382a.268.268,0,0,0,.079-.185c0-.7-2.85-1.414-6.452-1.576S195.091,247.081,195.059,247.792Z" transform="translate(-14.244 -18.017)" fill="#008083"/>
    <path id="Path_260" data-name="Path 260" d="M195.059,247.792a.319.319,0,0,0,.063.185c.5-.616,3.222-.971,6.476-.834s5.954.734,6.389,1.382a.268.268,0,0,0,.079-.185c0-.7-2.85-1.414-6.452-1.576S195.091,247.081,195.059,247.792Z" transform="translate(-14.244 -18.017)" fill="#008083" opacity="0.4" style="mix-blend-mode: normal;isolation: isolate"/>
    <path id="Path_261" data-name="Path 261" d="M195.127,248c.442.655,3.159,1.239,6.389,1.382s5.985-.222,6.476-.834c-.435-.649-3.119-1.239-6.389-1.382S195.628,247.387,195.127,248Z" transform="translate(-14.249 -18.047)" fill="#008083" opacity="0.4" style="mix-blend-mode: normal;isolation: isolate"/>
    <path id="Path_262" data-name="Path 262" d="M190.646,247.3c-.047,1.043,3.254,2.029,7.368,2.2s7.486-.529,7.534-1.576-3.254-2.029-7.368-2.2S190.725,246.256,190.646,247.3Z" transform="translate(-13.922 -17.942)" fill="#008083"/>
    <rect id="Rectangle_79" data-name="Rectangle 79" width="1.887" height="14.917" transform="translate(176.734 229.372) rotate(-87.56)" fill="#008083"/>
    <path id="Path_263" data-name="Path 263" d="M190.732,245.262c-.047,1.043,3.254,2.029,7.368,2.2s7.486-.529,7.534-1.576-3.254-2.029-7.368-2.2S190.779,244.219,190.732,245.262Z" transform="translate(-13.928 -17.793)" fill="#008083"/>
    <path id="Path_264" data-name="Path 264" d="M190.732,245.262c-.047,1.043,3.254,2.029,7.368,2.2s7.486-.529,7.534-1.576-3.254-2.029-7.368-2.2S190.779,244.219,190.732,245.262Z" transform="translate(-13.928 -17.793)" fill="#fff" opacity="0.4" style="mix-blend-mode: normal;isolation: isolate"/>
    <path id="Path_265" data-name="Path 265" d="M191.754,245.27a.319.319,0,0,0,.063.185c.505-.608,3.23-.971,6.483-.83s5.947.727,6.38,1.374a.252.252,0,0,0,.079-.173c0-.711-2.85-1.414-6.444-1.576S191.786,244.56,191.754,245.27Z" transform="translate(-14.003 -17.834)" fill="#008083"/>
    <path id="Path_266" data-name="Path 266" d="M191.754,245.27a.319.319,0,0,0,.063.185c.505-.608,3.23-.971,6.483-.83s5.947.727,6.38,1.374a.252.252,0,0,0,.079-.173c0-.711-2.85-1.414-6.444-1.576S191.786,244.56,191.754,245.27Z" transform="translate(-14.003 -17.834)" fill="#008083" opacity="0.4" style="mix-blend-mode: normal;isolation: isolate"/>
    <path id="Path_267" data-name="Path 267" d="M191.822,245.482c.451.655,3.159,1.248,6.389,1.382s5.985-.222,6.476-.834c-.435-.649-3.119-1.239-6.38-1.374S192.327,244.874,191.822,245.482Z" transform="translate(-14.008 -17.864)" fill="#008083" opacity="0.4" style="mix-blend-mode: normal;isolation: isolate"/>
    <path id="Path_268" data-name="Path 268" d="M211.4,253.525c-.435.927,2.156,3.048,5.781,4.738s6.918,2.369,7.344,1.421-2.156-3.04-5.781-4.738S211.821,252.608,211.4,253.525Z" transform="translate(-15.433 -18.483)" fill="#008083"/>
    <rect id="Rectangle_80" data-name="Rectangle 80" width="1.84" height="14.506" transform="translate(195.963 235.071) rotate(-64.83)" fill="#008083"/>
    <path id="Path_269" data-name="Path 269" d="M212.238,251.735c-.435.916,2.156,3.04,5.781,4.738s6.918,2.369,7.344,1.421-2.156-3.048-5.781-4.738S212.663,250.811,212.238,251.735Z" transform="translate(-15.495 -18.352)" fill="#008083"/>
    <path id="Path_270" data-name="Path 270" d="M212.238,251.735c-.435.916,2.156,3.04,5.781,4.738s6.918,2.369,7.344,1.421-2.156-3.048-5.781-4.738S212.663,250.811,212.238,251.735Z" transform="translate(-15.495 -18.352)" fill="#fff" opacity="0.4" style="mix-blend-mode: normal;isolation: isolate"/>
    <path id="Path_271" data-name="Path 271" d="M213.17,252.1a.266.266,0,0,0,0,.185c.671-.355,3.254.339,6.118,1.69s5.062,2.89,5.212,3.64a.279.279,0,0,0,.134-.134c.292-.624-2.029-2.369-5.191-3.83S213.462,251.484,213.17,252.1Z" transform="translate(-15.565 -18.393)" fill="#008083"/>
    <path id="Path_272" data-name="Path 272" d="M213.17,252.1a.266.266,0,0,0,0,.185c.671-.355,3.254.339,6.118,1.69s5.062,2.89,5.212,3.64a.279.279,0,0,0,.134-.134c.292-.624-2.029-2.369-5.191-3.83S213.462,251.484,213.17,252.1Z" transform="translate(-15.565 -18.393)" fill="#008083" opacity="0.4" style="mix-blend-mode: normal;isolation: isolate"/>
    <path id="Path_273" data-name="Path 273" d="M213.162,252.315c.15.79,2.369,2.291,5.2,3.64s5.457,2.053,6.128,1.69c-.15-.75-2.369-2.29-5.212-3.64S213.833,251.959,213.162,252.315Z" transform="translate(-15.566 -18.418)" fill="#008083" opacity="0.4" style="mix-blend-mode: normal;isolation: isolate"/>
    <path id="Path_274" data-name="Path 274" d="M203.178,256.953c-.04,1.01,3.159,1.966,7.17,2.14s7.281-.514,7.329-1.524-3.159-1.974-7.17-2.148S203.225,255.935,203.178,256.953Z" transform="translate(-14.837 -18.65)" fill="#008083"/>
    <rect id="Rectangle_81" data-name="Rectangle 81" width="1.84" height="14.506" transform="translate(188.332 238.276) rotate(-87.57)" fill="#008083"/>
    <path id="Path_275" data-name="Path 275" d="M203.263,254.968c0,1.01,3.159,1.974,7.17,2.148s7.28-.521,7.323-1.532-3.159-1.974-7.163-2.14S203.31,253.958,203.263,254.968Z" transform="translate(-14.843 -18.506)" fill="#008083"/>
    <path id="Path_276" data-name="Path 276" d="M203.263,254.968c0,1.01,3.159,1.974,7.17,2.148s7.28-.521,7.323-1.532-3.159-1.974-7.163-2.14S203.31,253.958,203.263,254.968Z" transform="translate(-14.843 -18.506)" fill="#fff" opacity="0.4" style="mix-blend-mode: normal;isolation: isolate"/>
    <path id="Path_277" data-name="Path 277" d="M204.259,254.979a.3.3,0,0,0,.063.185c.489-.6,3.159-.947,6.317-.79s5.788.711,6.211,1.342a.252.252,0,0,0,.079-.173c0-.687-2.781-1.374-6.27-1.524S204.291,254.292,204.259,254.979Z" transform="translate(-14.916 -18.547)" fill="#008083"/>
    <path id="Path_278" data-name="Path 278" d="M204.259,254.979a.3.3,0,0,0,.063.185c.489-.6,3.159-.947,6.317-.79s5.788.711,6.211,1.342a.252.252,0,0,0,.079-.173c0-.687-2.781-1.374-6.27-1.524S204.291,254.292,204.259,254.979Z" transform="translate(-14.916 -18.547)" fill="#008083" opacity="0.4" style="mix-blend-mode: normal;isolation: isolate"/>
    <path id="Path_279" data-name="Path 279" d="M204.362,255.188c.435.632,3.04,1.205,6.211,1.342s5.828-.213,6.317-.79c-.419-.631-3.032-1.205-6.211-1.342S204.82,254.556,204.362,255.188Z" transform="translate(-14.923 -18.575)" fill="#008083" opacity="0.4" style="mix-blend-mode: normal;isolation: isolate"/>
    <path id="Path_280" data-name="Path 280" d="M65.443,38.189v4.738a14.223,14.223,0,0,1,8.094,3.357l3.372-3.372A18.955,18.955,0,0,0,65.443,38.189Z" transform="translate(-4.779 -2.789)" fill="#008083"/>
    <path id="Path_281" data-name="Path 281" d="M61.543,73.015a14.252,14.252,0,0,1-13.07-13.07H43.736A19.015,19.015,0,0,0,61.543,77.784Z" transform="translate(-3.194 -4.377)" fill="#008083"/>
    <path id="Path_282" data-name="Path 282" d="M48.488,56.055a14.27,14.27,0,0,1,13.054-13.07V38.248A19.024,19.024,0,0,0,43.7,56.087Z" transform="translate(-3.191 -2.793)" fill="#008083"/>
    <path id="Path_283" data-name="Path 283" d="M48.488,56.055a14.27,14.27,0,0,1,13.054-13.07V38.248A19.024,19.024,0,0,0,43.7,56.087Z" transform="translate(-3.191 -2.793)" opacity="0.2" style="mix-blend-mode: normal;isolation: isolate"/>
    <path id="Path_284" data-name="Path 284" d="M78.536,45.1l-3.372,3.372a14.262,14.262,0,0,1-9.721,23.462V76.67A19.023,19.023,0,0,0,78.535,45.08Z" transform="translate(-4.779 -3.292)" fill="#008083"/>
    <g id="Group_8" data-name="Group 8" transform="translate(60.664 35.4)" opacity="0.8">
      <path id="Path_285" data-name="Path 285" d="M65.443,38.189v4.738a14.223,14.223,0,0,1,8.094,3.357l3.372-3.372A18.955,18.955,0,0,0,65.443,38.189Z" transform="translate(-65.443 -38.189)" fill="#fff"/>
    </g>
    <g id="Group_9" data-name="Group 9" transform="translate(40.542 55.568)" opacity="0.6">
      <path id="Path_286" data-name="Path 286" d="M61.543,73.015a14.252,14.252,0,0,1-13.07-13.07H43.736A19.015,19.015,0,0,0,61.543,77.784Z" transform="translate(-43.736 -59.945)" fill="#fff"/>
    </g>
    <g id="Group_10" data-name="Group 10" transform="translate(40.509 35.455)" opacity="0.7">
      <path id="Path_287" data-name="Path 287" d="M48.488,56.055a14.27,14.27,0,0,1,13.054-13.07V38.248A19.024,19.024,0,0,0,43.7,56.087Z" transform="translate(-43.7 -38.248)" fill="#fff"/>
    </g>
    <path id="Path_288" data-name="Path 288" d="M78.536,45.1l-3.372,3.372a14.262,14.262,0,0,1-9.721,23.462V76.67A19.023,19.023,0,0,0,78.535,45.08Z" transform="translate(-4.779 -3.292)" fill="#fff" opacity="0.5" style="mix-blend-mode: normal;isolation: isolate"/>
    <path id="Path_289" data-name="Path 289" d="M101.538,30.866l6.041,8.2,34.81-14.452,33.933,12.066L207.064,16.8l2.2,2.922,7.3-11.958L200.2,6.487,202.713,9.8,171.946,29.488,138.519,17.623Z" transform="translate(-7.415 -0.474)" fill="#008083"/>
    <g id="Group_11" data-name="Group 11" transform="translate(94.123 6.013)" opacity="0.5">
      <path id="Path_290" data-name="Path 290" d="M101.538,30.866l6.041,8.2,34.81-14.452,33.933,12.066L207.064,16.8l2.2,2.922,7.3-11.958L200.2,6.487,202.713,9.8,171.946,29.488,138.519,17.623Z" transform="translate(-101.538 -6.487)" fill="#fff"/>
    </g>
    <path id="Path_291" data-name="Path 291" d="M254.872,38.291a7.66,7.66,0,1,0,7.66,7.66,7.659,7.659,0,0,0-7.66-7.66Zm0,11.495a3.83,3.83,0,1,1,3.824-3.839h0v.008a3.838,3.838,0,0,1-3.822,3.825Z" transform="translate(-18.052 -2.796)" fill="#008083"/>
    <path id="Path_292" data-name="Path 292" d="M275.7,62.536a7.66,7.66,0,1,0,7.652,7.668V70.2A7.662,7.662,0,0,0,275.7,62.536Zm0,11.482a3.83,3.83,0,1,1,3.822-3.839h0V70.2A3.829,3.829,0,0,1,275.7,74.018Z" transform="translate(-19.572 -4.567)" fill="#008083"/>
    <path id="Path_293" data-name="Path 293" d="M258.167,76.086h-5.094l17.7-37.795h5.094Z" transform="translate(-18.48 -2.796)" fill="#008083"/>
    <g id="Group_12" data-name="Group 12" transform="translate(229.16 35.495)" opacity="0.5">
      <path id="Path_294" data-name="Path 294" d="M254.872,38.291a7.66,7.66,0,1,0,7.66,7.66,7.659,7.659,0,0,0-7.66-7.66Zm0,11.495a3.83,3.83,0,1,1,3.824-3.839h0v.008a3.838,3.838,0,0,1-3.822,3.825Z" transform="translate(-247.212 -38.291)" fill="#fff"/>
      <path id="Path_295" data-name="Path 295" d="M275.7,62.536a7.66,7.66,0,1,0,7.652,7.668V70.2A7.662,7.662,0,0,0,275.7,62.536Zm0,11.482a3.83,3.83,0,1,1,3.822-3.839h0V70.2A3.829,3.829,0,0,1,275.7,74.018Z" transform="translate(-248.732 -40.061)" fill="#fff"/>
      <path id="Path_296" data-name="Path 296" d="M258.167,76.086h-5.094l17.7-37.795h5.094Z" transform="translate(-247.64 -38.291)" fill="#fff"/>
    </g>
    <g id="freepik--Character--inject-2--inject-87" transform="translate(119.898 5.097)">
      <path id="Path_297" data-name="Path 297" d="M160.915,41.8c.2.979.4,1.832.632,2.724s.474,1.73.734,2.63c.514,1.73,1.106,3.451,1.761,5.191a42.86,42.86,0,0,0,5.33,10.2A19.441,19.441,0,0,0,171.552,65a12.323,12.323,0,0,0,3.009,2.125,13.415,13.415,0,0,0,6.815,1.319,19.032,19.032,0,0,0,5.978-1.405,25.683,25.683,0,0,0,2.621-1.248,13.287,13.287,0,0,0,1.232-.79c.395-.292.79-.537,1.232-.861l-2.109-3.719-1.106.292-1.161.278c-.79.173-1.576.324-2.369.426a16.322,16.322,0,0,1-4.3.087,7.059,7.059,0,0,1-3.206-1.153,7.32,7.32,0,0,1-1.137-1.01,14.539,14.539,0,0,1-1.153-1.576,27.955,27.955,0,0,1-2.093-3.948c-.649-1.429-1.216-2.938-1.753-4.486s-1.02-3.159-1.5-4.738l-.679-2.369c-.213-.79-.451-1.627-.616-2.317Z" transform="translate(-131.648 -8.011)" fill="#ff8b7b"/>
      <path id="Path_298" data-name="Path 298" d="M160.017,36.584c3.586-4.556,9.019-2.89,12.075,4.357A70.921,70.921,0,0,1,176.1,52.889l-12.746,4.477C160.012,50.522,156.339,41.251,160.017,36.584Z" transform="translate(-131.471 -7.584)" fill="#008083"/>
      <path id="Path_299" data-name="Path 299" d="M160.017,36.584c3.586-4.556,9.019-2.89,12.075,4.357A70.921,70.921,0,0,1,176.1,52.889l-12.746,4.477C160.012,50.522,156.339,41.251,160.017,36.584Z" transform="translate(-131.471 -7.584)" opacity="0.1" style="mix-blend-mode: normal;isolation: isolate"/>
      <path id="Path_300" data-name="Path 300" d="M165.552,44.994c-1.043-.711-3.2,3.435-4.194,8.316.7,1.706,1.453,3.337,2.2,4.856l7.668-2.688C169.973,50.888,167.913,46.577,165.552,44.994Z" transform="translate(-131.681 -8.377)" opacity="0.3" style="mix-blend-mode: normal;isolation: isolate"/>
      <path id="Path_301" data-name="Path 301" d="M193.172,59.9l2.787-1.524.979,6.223s-4.659,2.812-5.994.489l.142-1.576A5.112,5.112,0,0,1,193.172,59.9Z" transform="translate(-133.841 -9.36)" fill="#ff8b7b"/>
      <path id="Path_302" data-name="Path 302" d="M199.851,58.047l2.44,5.006-4.982,1.532-.979-6.231Z" transform="translate(-134.235 -9.336)" fill="#ff8b7b"/>
      <path id="Path_303" data-name="Path 303" d="M158.38,32.314l-6.507-.94-8.126.711a5.655,5.655,0,0,0-5.07,4.612,144.509,144.509,0,0,0-1.618,17.918c-.285,6.752.463,16.718,1.576,25.72l27.149-3.285c.26-23.691,2.053-31.027,2.274-37.305a5.631,5.631,0,0,0-3.949-5.575Z" transform="translate(-129.902 -7.388)" fill="#008083"/>
      <path id="Path_304" data-name="Path 304" d="M168.94,158.047l5.781,1.6,5.173-13.575-5.765-1.6Z" transform="translate(-132.235 -15.648)" fill="#ff8b7b"/>
      <path id="Path_305" data-name="Path 305" d="M177.14,158.719a3.016,3.016,0,0,0-1.854-1.129l-5.947-1.153a.544.544,0,0,0-.64.363l-1.824,5.426a1.2,1.2,0,0,0,.727,1.517h.063c2.2.869,3.68.568,7.107,1.232,2.109.411,6.546,1.816,9.476,1.7s2.962-3.059,1.714-3.277A15.118,15.118,0,0,1,177.14,158.719Z" transform="translate(-132.079 -16.52)" fill="#263238"/>
      <g id="Group_13" data-name="Group 13" transform="translate(39.217 128.836)" opacity="0.2">
        <path id="Path_306" data-name="Path 306" d="M180.091,146.084l-2.756,7.221-5.686-1.824,2.669-7Z" transform="translate(-171.649 -144.484)"/>
      </g>
      <path id="Path_307" data-name="Path 307" d="M192.955,102.438a39.884,39.884,0,0,1-1.169,6.365c-1.524,5.891-4.13,11.893-6.317,17.744-4.233,11.561-7.944,21.606-7.944,21.606l-7.9-2.733s7.107-33.451,11.9-36.87H152.14a12.315,12.315,0,0,1-1.643-.11c5.062-.655,12.951-3.775,20.271-6.894,6.468-2.764,12.514-5.528,15.794-6.57h0C190.57,96.69,193.267,99.067,192.955,102.438Z" transform="translate(-130.888 -12.033)" fill="#263238"/>
      <path id="Path_308" data-name="Path 308" d="M192.955,102.438a39.884,39.884,0,0,1-1.169,6.365c-1.524,5.891-4.13,11.893-6.317,17.744-4.233,11.561-7.944,21.606-7.944,21.606l-7.9-2.733s7.107-33.451,11.9-36.87H152.14a12.315,12.315,0,0,1-1.643-.11c5.062-.655,12.951-3.775,20.271-6.894,6.468-2.764,12.514-5.528,15.794-6.57h0C190.57,96.69,193.267,99.067,192.955,102.438Z" transform="translate(-130.888 -12.033)" opacity="0.1" style="mix-blend-mode: normal;isolation: isolate"/>
      <path id="Path_309" data-name="Path 309" d="M185.929,94.258c-3.285,1.066-9.334,3.806-15.794,6.57-7.323,3.119-15.21,6.239-20.271,6.894-8.528-1.137-11.735-11.3-2.819-23.02,5.788,0,11.609,5.528,11.609,5.528S176.153,90.144,185.929,94.258Z" transform="translate(-130.247 -11.283)" opacity="0.6" style="mix-blend-mode: normal;isolation: isolate"/>
      <path id="Path_310" data-name="Path 310" d="M211.992,145.255h6.46l-6.767-16.222-4.391,7.446Z" transform="translate(-135.035 -14.52)" fill="#ff8b7b"/>
      <path id="Path_311" data-name="Path 311" d="M217.942,144.742l-7.589-1.73a.521.521,0,0,0-.632.339l-2.116,5.84a1.169,1.169,0,0,0,.79,1.445h.04c2.661.556,3.948.7,7.3,1.445,2.053.474,7.249,1.832,10.085,2.48s3.577-2.132,2.448-2.661c-5.054-2.369-7.8-4.58-9.27-6.489A1.811,1.811,0,0,0,217.942,144.742Z" transform="translate(-135.055 -15.539)" fill="#263238"/>
      <g id="Group_14" data-name="Group 14" transform="translate(72.258 114.515)" opacity="0.2">
        <path id="Path_312" data-name="Path 312" d="M211.684,129.035l2.882,6.91-5.82,3.244-1.453-2.709Z" transform="translate(-207.293 -129.035)"/>
      </g>
      <path id="Path_313" data-name="Path 313" d="M209.522,129.951l-7.107,4.3s-5.933-12.453-11.6-26.5a39.886,39.886,0,0,0,1.169-6.365c.308-3.372-2.369-5.747-6.38-7.423h0c-3.285,1.066-9.334,3.806-15.794,6.57-7.323,3.119-15.21,6.239-20.271,6.894a14.209,14.209,0,0,1-1.753.126c-9.733,0-13.085-8.528-9.16-23,5.788,0,15.7-.624,15.7-.624s19.126-4.6,32.891-3.032a15.533,15.533,0,0,1,13.424,12.437C204.179,110.9,209.522,129.951,209.522,129.951Z" transform="translate(-129.904 -10.981)" fill="#263238"/>
      <path id="Path_314" data-name="Path 314" d="M209.522,129.951l-7.107,4.3s-5.933-12.453-11.6-26.5a39.886,39.886,0,0,0,1.169-6.365c.308-3.372-2.369-5.747-6.38-7.423h0c-3.285,1.066-9.334,3.806-15.794,6.57-7.323,3.119-15.21,6.239-20.271,6.894a14.209,14.209,0,0,1-1.753.126c-9.733,0-13.085-8.528-9.16-23,5.788,0,15.7-.624,15.7-.624s19.126-4.6,32.891-3.032a15.533,15.533,0,0,1,13.424,12.437C204.179,110.9,209.522,129.951,209.522,129.951Z" transform="translate(-129.904 -10.981)" fill="#263238"/>
      <path id="Path_315" data-name="Path 315" d="M158.38,32.314l-6.507-.94-8.126.711a5.655,5.655,0,0,0-5.07,4.612,144.509,144.509,0,0,0-1.618,17.918c-.285,6.752.463,16.718,1.576,25.72l27.149-3.285c.26-23.691,2.053-31.027,2.274-37.305a5.631,5.631,0,0,0-3.949-5.575Z" transform="translate(-129.902 -7.388)" fill="#008083"/>
      <path id="Path_316" data-name="Path 316" d="M138.643,82.429l-.7,2.2c-.087.166.1.348.395.355l27.1-1.619c.222,0,.411-.1.426-.245l.292-2.211c0-.158-.173-.292-.411-.3l-26.668,1.634A.463.463,0,0,0,138.643,82.429Z" transform="translate(-129.969 -10.984)" fill="#263238"/>
      <path id="Path_317" data-name="Path 317" d="M138.643,82.429l-.7,2.2c-.087.166.1.348.395.355l27.1-1.619c.222,0,.411-.1.426-.245l.292-2.211c0-.158-.173-.292-.411-.3l-26.668,1.634A.463.463,0,0,0,138.643,82.429Z" transform="translate(-129.969 -10.984)" opacity="0.1" style="mix-blend-mode: normal;isolation: isolate"/>
      <path id="Path_318" data-name="Path 318" d="M141.276,34.726c5.41-.947,5.141,11.348,2.677,20.342-.711,2.606-3.79,1.517-4.833.834C135.7,53.726,134.545,38.659,141.276,34.726Z" transform="translate(-129.857 -7.629)" opacity="0.3" style="mix-blend-mode: normal;isolation: isolate"/>
      <path id="Path_319" data-name="Path 319" d="M140.209,54.139c.2,5.314-1.483,8.1,1.351,9.879s19.584,7.329,19.995,6.633c-.79,1.279-1.576,2.369-2.369,3.664q-7.24-1.09-14.49-2.013c-3.53-.442-9.223-1.351-11.988-3.593-2.511-2.022-2.061-10.9-1.634-17.295C133.291,50.1,140.209,54.139,140.209,54.139Z" transform="translate(-129.445 -8.832)" fill="#ff8b7b"/>
      <path id="Path_320" data-name="Path 320" d="M138.666,32.374c5.528-1.634,7.668,2.819,5.978,10.475a69.892,69.892,0,0,1-3.661,12.071l-11.64-3.674C130.6,43.737,132.961,34.042,138.666,32.374Z" transform="translate(-129.343 -7.437)" fill="#008083"/>
      <path id="Path_321" data-name="Path 321" d="M148.134,32.12a4.737,4.737,0,0,0,.845,3.337,14.207,14.207,0,0,0,2.369,2.583c1.1,1,2.41,2.085,3.893,1.887,1.366-.185,2.148-.869,2.7-2.5,1.169,1.887,1.224,2.827,2.511,2.946a2.89,2.89,0,0,0,2.14-1.129,4.675,4.675,0,0,0,1.682-3.159c.308-2.369-1.627-4.6-3.885-5.441a28.429,28.429,0,0,0-7.107-1.405C151.175,29.028,148.522,29.683,148.134,32.12Z" transform="translate(-130.713 -7.23)" fill="#008083"/>
      <path id="Path_322" data-name="Path 322" d="M148.134,32.12a4.737,4.737,0,0,0,.845,3.337,14.207,14.207,0,0,0,2.369,2.583c1.1,1,2.41,2.085,3.893,1.887,1.366-.185,2.148-.869,2.7-2.5,1.169,1.887,1.224,2.827,2.511,2.946a2.89,2.89,0,0,0,2.14-1.129,4.675,4.675,0,0,0,1.682-3.159c.308-2.369-1.627-4.6-3.885-5.441a28.429,28.429,0,0,0-7.107-1.405C151.175,29.028,148.522,29.683,148.134,32.12Z" transform="translate(-130.713 -7.23)" opacity="0.3" style="mix-blend-mode: normal;isolation: isolate"/>
      <path id="Path_323" data-name="Path 323" d="M154.034,19.992l2.946,3.4,4,4.627a5.176,5.176,0,0,0-.79,1.643,2.835,2.835,0,0,0,1.112,3.546c.608.285.927,3.483-3.1,3.159A8.353,8.353,0,0,1,152.13,33.6c-.734-.987-.932-1.517-.173-2.6C154.106,27.945,154.279,23.514,154.034,19.992Z" transform="translate(-130.959 -6.557)" fill="#ff8b7b"/>
      <path id="Path_324" data-name="Path 324" d="M160.473,27.158l-2.527-3.337a1.39,1.39,0,0,1-.093.316,8.783,8.783,0,0,0-.253,1.437c-.15,1.658,1.405,3.783,2.922,4.691l.119-.332a6.245,6.245,0,0,1,.79-1.576.29.29,0,0,1,.071-.071Z" transform="translate(-131.406 -6.837)" opacity="0.2" style="mix-blend-mode: normal;isolation: isolate"/>
      <path id="Path_325" data-name="Path 325" d="M154.5,12.672c-.458,5.489-.963,8.687,1.39,11.8,3.561,4.738,10.653,3.048,12.722-2.225,1.863-4.738,2.251-12.928-2.787-15.794a7.645,7.645,0,0,0-10.382,2.993A7.56,7.56,0,0,0,154.5,12.672Z" transform="translate(-131.152 -5.499)" fill="#ff8b7b"/>
      <path id="Path_326" data-name="Path 326" d="M153.409,17.612l2.369,1.02h0a2.034,2.034,0,0,0,.916-2.156c-.237-3.348,5.8-7.439,5.8-7.439s-6.389-2.1-8.308-2.417c-.671-.11-3.088,1.643-3.459,2.369a6.32,6.32,0,0,0,.79,6.609A14.211,14.211,0,0,0,153.409,17.612Z" transform="translate(-130.862 -5.58)" fill="#263238"/>
      <path id="Path_327" data-name="Path 327" d="M151.484,17.219a5.044,5.044,0,0,0,1.576,3.206c1.169,1.074,2.6-.093,2.772-1.658.142-1.39-.556-3.42-1.982-3.885S151.35,15.687,151.484,17.219Z" transform="translate(-130.959 -6.177)" fill="#ff8b7b"/>
      <path id="Path_328" data-name="Path 328" d="M163.418,16.734c-.087.451.079.869.371.932s.568-.245.687-.7a.728.728,0,0,0-.379-.932C163.8,15.975,163.465,16.28,163.418,16.734Z" transform="translate(-131.83 -6.268)" fill="#263238"/>
      <path id="Path_329" data-name="Path 329" d="M168.879,17.937c-.087.458.079.877.379.94s.592-.253.679-.7-.087-.869-.379-.927S168.965,17.482,168.879,17.937Z" transform="translate(-132.228 -6.357)" fill="#263238"/>
      <path id="Path_330" data-name="Path 330" d="M166.987,17.965a15.131,15.131,0,0,0,.966,3.759,2.195,2.195,0,0,1-1.872-.185Z" transform="translate(-132.026 -6.409)" fill="#ff5652"/>
      <path id="Path_331" data-name="Path 331" d="M164.519,24.38a3.9,3.9,0,0,1-2.282-2.093.135.135,0,0,1,.071-.173.151.151,0,0,1,.185.079,3.75,3.75,0,0,0,2.6,2.085.133.133,0,0,1,.119.146h0a.142.142,0,0,1-.158.119h0A2.953,2.953,0,0,1,164.519,24.38Z" transform="translate(-131.744 -6.711)" fill="#263238"/>
      <path id="Path_332" data-name="Path 332" d="M162.656,14.743a.185.185,0,0,1-.11-.071.268.268,0,0,1,0-.379h0a2.575,2.575,0,0,1,2.369-.577.269.269,0,0,1,.185.33h0a.268.268,0,0,1-.339.166,2.092,2.092,0,0,0-1.847.463A.246.246,0,0,1,162.656,14.743Z" transform="translate(-131.762 -6.093)" fill="#263238"/>
      <path id="Path_333" data-name="Path 333" d="M169.5,14.812a.255.255,0,0,1,0-.134.269.269,0,0,1,.328-.185h0a2.6,2.6,0,0,1,1.816,1.576.278.278,0,0,1-.185.339.269.269,0,0,1-.332-.185,2.07,2.07,0,0,0-1.441-1.26A.259.259,0,0,1,169.5,14.812Z" transform="translate(-132.275 -6.155)" fill="#263238"/>
    </g>
    <path id="Path_334" data-name="Path 334" d="M171.147,80.227l34.651.1a2.48,2.48,0,0,0,2.424-2.211l1.572-17.547a2.014,2.014,0,0,0-1.789-2.215h0a2.087,2.087,0,0,0-.241-.011l-34.651-.1a2.488,2.488,0,0,0-2.424,2.219L169.113,78a2.014,2.014,0,0,0,1.789,2.215h0A1.964,1.964,0,0,0,171.147,80.227Z" transform="translate(-12.348 -4.253)" fill="#008083"/>
    <path id="Path_335" data-name="Path 335" d="M171.147,80.227l34.651.1a2.48,2.48,0,0,0,2.424-2.211l1.572-17.547a2.014,2.014,0,0,0-1.789-2.215h0a2.087,2.087,0,0,0-.241-.011l-34.651-.1a2.488,2.488,0,0,0-2.424,2.219L169.113,78a2.014,2.014,0,0,0,1.789,2.215h0A1.964,1.964,0,0,0,171.147,80.227Z" transform="translate(-12.348 -4.253)" opacity="0.3" style="mix-blend-mode: normal;isolation: isolate"/>
    <path id="Path_336" data-name="Path 336" d="M172.247,80.151l34.651.1a2.48,2.48,0,0,0,2.421-2.219L210.895,60.5a2.006,2.006,0,0,0-1.772-2.215h0a2.234,2.234,0,0,0-.249-.012l-34.651-.1a2.5,2.5,0,0,0-2.424,2.219l-1.576,17.539a2.006,2.006,0,0,0,1.772,2.215h0A2.285,2.285,0,0,0,172.247,80.151Z" transform="translate(-12.429 -4.247)" fill="#008083"/>
    <path id="Path_337" data-name="Path 337" d="M172.247,80.151l34.651.1a2.48,2.48,0,0,0,2.421-2.219L210.895,60.5a2.006,2.006,0,0,0-1.772-2.215h0a2.234,2.234,0,0,0-.249-.012l-34.651-.1a2.5,2.5,0,0,0-2.424,2.219l-1.576,17.539a2.006,2.006,0,0,0,1.772,2.215h0A2.285,2.285,0,0,0,172.247,80.151Z" transform="translate(-12.429 -4.247)" fill="#fff" opacity="0.2" style="mix-blend-mode: normal;isolation: isolate"/>
    <path id="Path_338" data-name="Path 338" d="M194.432,70.166a2.305,2.305,0,1,1,0-.006Z" transform="translate(-13.861 -4.955)" fill="#fff"/>
    <path id="Path_339" data-name="Path 339" d="M207.342,81.956c0,1.05-.624,1.9-1.382,1.9h0l-35.766-.142c-.387,0-.7-.426-.7-.947s.316-.963.7-.963Z" transform="translate(-12.377 -5.974)" fill="#008083"/>
    <path id="Path_340" data-name="Path 340" d="M207.342,81.956c0,1.05-.624,1.9-1.382,1.9h0l-35.766-.142c-.387,0-.7-.426-.7-.947s.316-.963.7-.963Z" transform="translate(-12.377 -5.974)" opacity="0.3" style="mix-blend-mode: normal;isolation: isolate"/>
    <path id="Path_341" data-name="Path 341" d="M168.526,83.725H151.311a1.658,1.658,0,0,1-1.658-1.658h0a.253.253,0,0,1,.244-.26h18.632a.957.957,0,0,1,.956.956h0v.007h0a.957.957,0,0,1-.956.956Z" transform="translate(-10.928 -5.974)" fill="#008083"/>
    <path id="Path_342" data-name="Path 342" d="M159.663,69.472l2.859-.834-.26,7.036s-6.211,1.461-6.594-1.4l.79-1.54C157.144,71.407,158.091,69.859,159.663,69.472Z" transform="translate(-11.367 -5.012)" fill="#ff8b7b"/>
    <path id="Path_343" data-name="Path 343" d="M167.321,70.585l-.845,3.95-3.7,1.129.26-7.028Z" transform="translate(-11.887 -5.012)" fill="#ff8b7b"/>
    <path id="Path_344" data-name="Path 344" d="M168.9,148.376l11.846,4.019,2.424-4.9-13.1-4.162Z" transform="translate(-12.334 -10.467)" fill="#008083"/>
    <path id="Path_345" data-name="Path 345" d="M205.368,138.65l10.922-6.1-2.006-5.078-11.865,6.934Z" transform="translate(-14.781 -9.309)" fill="#008083"/>
    <path id="Path_346" data-name="Path 346" d="M170.173,12.215a2.517,2.517,0,0,0,2.093-2.835,4.219,4.219,0,0,0-1.835-2.63c.521-1.576-.185-3.506-2.14-4.841a5.451,5.451,0,0,0-4.738-.348c0-1.429-2.63-2.369-4.32-.584a3.791,3.791,0,0,0-4.525.4A1.576,1.576,0,0,0,154.2,2.9a3.734,3.734,0,0,0-3.064,5.8c.529.79,1.784.79,2.733.584a3.8,3.8,0,0,0,2.44,1.793c3.119,1.035,7.407.063,8.166,0a3.158,3.158,0,0,1,2.188.435,1.655,1.655,0,0,1-1.239.687,4.675,4.675,0,0,1-1.405-.071,4.924,4.924,0,0,0,3.586.734,16.776,16.776,0,0,1,1.643-.718A9.068,9.068,0,0,1,170.173,12.215Z" transform="translate(-10.991 0)" fill="#263238"/>
    <path id="Path_347" data-name="Path 347" d="M277.169,244.785h-2.264a2.055,2.055,0,0,1,.768,1.4h1.5v.686h-1.483c-.137,1.4-1.25,2.292-3.006,2.347,1.071,1.112,2.237,2.512,3.391,3.926h-1.316c-1.07-1.29-2.072-2.484-3.362-3.857v-.85h.755c1.483,0,2.279-.617,2.375-1.566h-3.129v-.686h3.088c-.192-.8-.92-1.194-2.113-1.194h-.974V244.1h5.777Z" transform="translate(-19.818 -17.825)" fill="#fff"/>
    <path id="Path_348" data-name="Path 348" d="M176.665,183.926H174.4a2.055,2.055,0,0,1,.768,1.4h1.5v.686h-1.483c-.137,1.4-1.25,2.291-3.006,2.347,1.071,1.112,2.237,2.511,3.391,3.926H174.25c-1.07-1.29-2.072-2.484-3.362-3.857v-.851h.755c1.483,0,2.279-.617,2.375-1.565h-3.129v-.686h3.088c-.193-.8-.92-1.194-2.114-1.194h-.974v-.893h5.777Z" transform="translate(-12.479 -13.381)" fill="#fff"/>
    <path id="Path_349" data-name="Path 349" d="M95.033,215.889H92.769a2.055,2.055,0,0,1,.768,1.4h1.5v.686H93.55c-.137,1.4-1.25,2.292-3.006,2.347,1.071,1.112,2.237,2.512,3.391,3.926H92.615c-1.07-1.29-2.072-2.484-3.362-3.857v-.851h.755c1.483,0,2.279-.617,2.375-1.565H89.254v-.686h3.088c-.193-.8-.92-1.194-2.114-1.194h-.974V215.2h5.777Z" transform="translate(-6.518 -15.715)" fill="#fff"/>
  </g>
</svg>
