<svg xmlns="http://www.w3.org/2000/svg" width="389.611" height="260.539" viewBox="0 0 389.611 260.539">
  <g id="Group_25" data-name="Group 25" transform="translate(0 -0.001)">
    <g id="freepik--background-complete--inject-2" transform="translate(0 95.689)">
      <rect id="Rectangle_209" data-name="Rectangle 209" width="389.611" height="0.195" transform="translate(0 129.663)" fill="#ebebeb"/>
      <rect id="Rectangle_210" data-name="Rectangle 210" width="25.808" height="0.195" transform="translate(324.764 142.2)" fill="#ebebeb"/>
      <rect id="Rectangle_211" data-name="Rectangle 211" width="6.771" height="0.195" transform="translate(251.323 144.319)" fill="#ebebeb"/>
      <rect id="Rectangle_212" data-name="Rectangle 212" width="14.953" height="0.195" transform="translate(309.032 134.968)" fill="#ebebeb"/>
      <rect id="Rectangle_213" data-name="Rectangle 213" width="33.654" height="0.195" transform="translate(40.878 136.278)" fill="#ebebeb"/>
      <rect id="Rectangle_214" data-name="Rectangle 214" width="4.932" height="0.195" transform="translate(81.476 136.278)" fill="#ebebeb"/>
      <rect id="Rectangle_215" data-name="Rectangle 215" width="72.998" height="0.195" transform="translate(102.444 139.566)" fill="#ebebeb"/>
      <rect id="Rectangle_221" data-name="Rectangle 221" width="42.694" height="129.663" transform="translate(170.992)" fill="#f0f0f0"/>
      <rect id="Rectangle_222" data-name="Rectangle 222" width="38.002" height="38.002" transform="translate(173.338 3.787)" fill="#f5f5f5"/>
      <rect id="Rectangle_223" data-name="Rectangle 223" width="38.002" height="38.002" transform="translate(173.338 45.203)" fill="#f5f5f5"/>
      <rect id="Rectangle_224" data-name="Rectangle 224" width="38.002" height="38.002" transform="translate(173.338 86.618)" fill="#f5f5f5"/>
      <path id="Path_563" data-name="Path 563" d="M209.246,103.55H192.392a3.9,3.9,0,0,0,3.857,3.935h9.024a3.943,3.943,0,0,0,3.974-3.911h0Z" transform="translate(-8.496 -100.262)" fill="#e6e6e6"/>
      <path id="Path_564" data-name="Path 564" d="M209.246,146.879H192.392a3.943,3.943,0,0,0,3.935,3.94h8.946a3.95,3.95,0,0,0,3.974-3.927h0Z" transform="translate(-8.496 -102.175)" fill="#e6e6e6"/>
      <path id="Path_565" data-name="Path 565" d="M209.246,190.208H192.392a3.943,3.943,0,0,0,3.935,3.943h8.946a3.95,3.95,0,0,0,3.974-3.927h0Z" transform="translate(-8.496 -104.089)" fill="#e6e6e6"/>
      <rect id="Rectangle_225" data-name="Rectangle 225" width="21.328" height="129.663" transform="translate(213.678)" fill="#f5f5f5"/>
      <rect id="Rectangle_226" data-name="Rectangle 226" width="11.836" height="97.621" transform="translate(327.655 28.854)" fill="#f0f0f0"/>
      <rect id="Rectangle_227" data-name="Rectangle 227" width="113.657" height="3.187" transform="translate(224.198 126.475)" fill="#f0f0f0"/>
      <rect id="Rectangle_228" data-name="Rectangle 228" width="105.101" height="97.621" transform="translate(222.554 28.854)" fill="#fafafa"/>
      <path id="Path_566" data-name="Path 566" d="M253.823,188.928h63.946a11.385,11.385,0,0,0,0-22.769H253.823a11.385,11.385,0,1,0,0,22.769Zm63.958-22.005a10.621,10.621,0,0,1,0,21.242H253.823a10.621,10.621,0,0,1,0-21.242Z" transform="translate(-10.706 -103.027)" fill="#f0f0f0"/>
      <path id="Path_567" data-name="Path 567" d="M253.823,218.561h63.946a11.385,11.385,0,0,0,0-22.769H253.823a11.385,11.385,0,1,0,0,22.769Zm63.946-22.005a10.621,10.621,0,0,1,.574,21.234q-.287.009-.574,0H253.823a10.621,10.621,0,0,1-.765-21.229l.191,0h0q.287-.009.574,0Z" transform="translate(-10.706 -104.335)" fill="#f0f0f0"/>
      <path id="Path_568" data-name="Path 568" d="M277.611,175.281H296.9a2.384,2.384,0,0,0,2.376-2.376h0a2.39,2.39,0,0,0-2.376-2.376H277.611a2.39,2.39,0,0,0-2.376,2.376h0A2.39,2.39,0,0,0,277.611,175.281Z" transform="translate(-12.154 -103.22)" fill="#ebebeb"/>
      <path id="Path_569" data-name="Path 569" d="M253.823,159.3h63.946a11.385,11.385,0,0,0,0-22.769H253.823a11.385,11.385,0,1,0,0,22.769Zm63.946-22.005a10.621,10.621,0,0,1,0,21.242H253.823a10.621,10.621,0,0,1,0-21.242Z" transform="translate(-10.706 -101.718)" fill="#f0f0f0"/>
      <path id="Path_570" data-name="Path 570" d="M277.611,145.65H296.9a2.384,2.384,0,0,0,2.376-2.376h0a2.376,2.376,0,0,0-2.376-2.338H277.611a2.376,2.376,0,0,0-2.376,2.338h0A2.39,2.39,0,0,0,277.611,145.65Z" transform="translate(-12.154 -101.913)" fill="#ebebeb"/>
      <path id="Path_571" data-name="Path 571" d="M277.611,204.91H296.9a2.376,2.376,0,0,0,2.376-2.338h0a2.383,2.383,0,0,0-2.376-2.338H277.611a2.383,2.383,0,0,0-2.376,2.338h0A2.376,2.376,0,0,0,277.611,204.91Z" transform="translate(-12.154 -104.531)" fill="#ebebeb"/>
      <rect id="Rectangle_229" data-name="Rectangle 229" width="107.26" height="4.964" transform="translate(220.387 23.89)" fill="#f0f0f0"/>
      <rect id="Rectangle_230" data-name="Rectangle 230" width="14.159" height="4.964" transform="translate(327.655 23.899)" fill="#e6e6e6"/>
      <path id="Path_574" data-name="Path 574" d="M321.205,106.093s-.779,18.179-30.53,18.179-30.53-18.179-30.53-18.179Z" transform="translate(-11.488 -100.374)" fill="#f0f0f0"/>
    </g>
    <g id="freepik--Shadow--inject-2" transform="translate(43.722 242.899)">
      <ellipse id="freepik--path--inject-2" cx="151.083" cy="8.82" rx="151.083" ry="8.82" fill="#f5f5f5"/>
    </g>
    <g id="freepik--Hourglass--inject-2" transform="translate(177.564 85.497)">
      <g id="Group_23" data-name="Group 23" transform="translate(4.268 4.519)" opacity="0.2">
        <path id="Path_575" data-name="Path 575" d="M289.489,252.289l-49.628-91.73-49.629,91.73Z" transform="translate(-190.232 -97.106)" fill="#008083"/>
        <path id="Path_576" data-name="Path 576" d="M289.489,94.175,239.861,185.9,190.232,94.175Z" transform="translate(-190.232 -94.175)" fill="#008083"/>
      </g>
      <path id="Path_577" data-name="Path 577" d="M250.782,150.291l-7.264,13.418a2.081,2.081,0,0,1-3.663,0l-7.264-13.418a7.955,7.955,0,0,1,7.013-11.735h4.2a7.956,7.956,0,0,1,6.978,11.735Z" transform="translate(-187.792 -91.616)" fill="#008083"/>
      <path id="Path_578" data-name="Path 578" d="M241.805,232.294l22.558,9.272a2.081,2.081,0,0,1-.779,4H218.491a2.081,2.081,0,0,1-.779-4l22.5-9.272A2.066,2.066,0,0,1,241.805,232.294Z" transform="translate(-187.122 -95.748)" fill="#008083"/>
      <circle id="Ellipse_17" data-name="Ellipse 17" cx="2.89" cy="2.89" r="2.89" transform="translate(51.006 113.12)" fill="#008083"/>
      <circle id="Ellipse_18" data-name="Ellipse 18" cx="1.488" cy="1.488" r="1.488" transform="translate(52.409 84.327)" fill="#008083"/>
      <circle id="Ellipse_19" data-name="Ellipse 19" cx="1.691" cy="1.691" r="1.691" transform="translate(52.206 98.517)" fill="#008083"/>
      <path id="Path_579" data-name="Path 579" d="M289.044,251.79H190.286a4.533,4.533,0,0,0-4.519,4.527h0a4.534,4.534,0,0,0,4.519,4.519h98.757a4.534,4.534,0,0,0,4.519-4.519h0A4.533,4.533,0,0,0,289.044,251.79Z" transform="translate(-185.767 -96.616)" fill="#008083"/>
      <path id="Path_580" data-name="Path 580" d="M289.044,89.447H190.286a4.534,4.534,0,0,0-4.519,4.519h0a4.534,4.534,0,0,0,4.519,4.519h98.757a4.534,4.534,0,0,0,4.519-4.519h0A4.534,4.534,0,0,0,289.044,89.447Z" transform="translate(-185.767 -89.447)" fill="#008083"/>
    </g>
    <g id="freepik--Character--inject-2" transform="translate(128.197 11.502)">
      <path id="Path_581" data-name="Path 581" d="M158.412,254.06l-5.493-1.785,3.413-12.958,5.493,1.785Z" transform="translate(-134.95 -22.07)" fill="#ff8b7b"/>
      <path id="Path_582" data-name="Path 582" d="M152.232,252.1l6.172,2.007a.42.42,0,0,1,.287.507l-1.286,4.987a1.021,1.021,0,0,1-1.278.662c-2.135-.732-3.117-1.192-5.836-2.073-1.676-.546-7.176-1.963-9.483-2.712s-1.5-3.008-.46-2.9c4.675.491,8.884.272,10.832-.444A1.634,1.634,0,0,1,152.232,252.1Z" transform="translate(-134.35 -22.632)" fill="#263238"/>
      <path id="Path_583" data-name="Path 583" d="M161.9,241.109l-5.493-1.792-1.761,6.691,5.5,1.785Z" transform="translate(-135.027 -22.07)" opacity="0.2" style="mix-blend-mode: normal;isolation: isolate"/>
      <path id="Path_584" data-name="Path 584" d="M176.827,103.955s-9.857,45.623-12.175,62.023c-2.532,17.961-12.044,71.9-12.044,71.9l10.2,2.821s14.135-52.309,18.265-69.776c4.481-18.958,16.364-67.013,16.364-67.013Z" transform="translate(-134.936 -16.091)" fill="#008083"/>
      <path id="Path_585" data-name="Path 585" d="M190.477,119.5c-3.9,8.837-5.821,28.052-4.309,36.9,2.759-11.337,6.078-24.818,8.642-35.189C193.937,118.2,192.5,114.891,190.477,119.5Z" transform="translate(-136.396 -16.679)" opacity="0.3" style="mix-blend-mode: normal;isolation: isolate"/>
      <path id="Path_586" data-name="Path 586" d="M163.044,246.887,152.12,243.88l.218-4.449,12.3,4.247Z" transform="translate(-134.915 -22.076)" fill="#263238"/>
      <path id="Path_587" data-name="Path 587" d="M150.421,252.374a7.5,7.5,0,0,0,1.558.28.141.141,0,0,0,.148-.135h0a.138.138,0,0,0-.023-.084c-.141-.179-1.348-1.745-2.1-1.7a.506.506,0,0,0-.421.265.779.779,0,0,0-.062.779A1.559,1.559,0,0,0,150.421,252.374Zm1.243,0c-1.044-.124-1.761-.39-1.933-.725a.478.478,0,0,1,.054-.491.25.25,0,0,1,.2-.133c.405-.047,1.169.717,1.676,1.325Z" transform="translate(-134.797 -22.575)" fill="#263238"/>
      <path id="Path_588" data-name="Path 588" d="M152.007,252.606h.062a.14.14,0,0,0,.1-.086c0-.062.662-1.6.28-2.338a.664.664,0,0,0-.483-.351.514.514,0,0,0-.593.234,2.989,2.989,0,0,0,.573,2.478Zm0-2.47a.393.393,0,0,1,.242.2,2.993,2.993,0,0,1-.21,1.862,2.745,2.745,0,0,1-.4-1.972c0-.07.109-.148.3-.109Z" transform="translate(-134.879 -22.534)" fill="#263238"/>
      <path id="Path_589" data-name="Path 589" d="M186.913,58.315c-.3.7-.546,1.231-.818,1.824s-.574,1.137-.86,1.7c-.574,1.13-1.184,2.229-1.816,3.327a64.215,64.215,0,0,1-4.206,6.374,48.379,48.379,0,0,1-5.182,5.915,30.014,30.014,0,0,1-6.764,5l-.191.1a4.022,4.022,0,0,1-1,.358,11.068,11.068,0,0,1-5.353-.21,15.541,15.541,0,0,1-4.083-1.9A26.488,26.488,0,0,1,151,75.693a46.887,46.887,0,0,1-4.11-5.7,51.225,51.225,0,0,1-3.218-6.117,2.524,2.524,0,0,1,4.262-2.61l.078.1c1.286,1.558,2.676,3.218,4.083,4.729a53.287,53.287,0,0,0,4.348,4.27,21.4,21.4,0,0,0,4.472,3.117,6.585,6.585,0,0,0,1.925.639,2.136,2.136,0,0,0,1.122-.1l-1.192.46a23.3,23.3,0,0,0,4.371-3.823,48.162,48.162,0,0,0,3.9-5c1.231-1.792,2.4-3.67,3.5-5.6.561-.956,1.1-1.933,1.6-2.922l.779-1.473c.242-.478.507-1.021.694-1.4l.047-.109A5.066,5.066,0,0,1,186.9,58.31Z" transform="translate(-134.533 -13.768)" fill="#263238"/>
      <path id="Path_590" data-name="Path 590" d="M175.53,69.441c2.447-6.5,7.647-6.608,9.9-4.885-.163.3-.335.608-.507.912a66.161,66.161,0,0,1-4.015,6.163,50.916,50.916,0,0,1-4.9,5.75c-.561.553-1.137,1.1-1.738,1.625A24.936,24.936,0,0,1,175.53,69.441Z" transform="translate(-135.891 -14.311)" opacity="0.3" style="mix-blend-mode: normal;isolation: isolate"/>
      <path id="Path_591" data-name="Path 591" d="M143.246,64.642l-5.066.191,1.263-5.416a26.158,26.158,0,0,1,5.162.779,2.052,2.052,0,0,1,1.1,3.117h0A3.052,3.052,0,0,1,143.246,64.642Z" transform="translate(-134.299 -14.126)" fill="#ff8b7b"/>
      <path id="Path_592" data-name="Path 592" d="M146.222,60.061a4.89,4.89,0,0,0-1.676-.86c-.421,2.213-3.117,5.945-3.117,5.945h2.116a1.854,1.854,0,0,0,1.426-.662l1.481-1.777a1.847,1.847,0,0,0-.184-2.6A.193.193,0,0,0,146.222,60.061Z" transform="translate(-134.443 -14.117)" fill="#008083"/>
      <path id="Path_593" data-name="Path 593" d="M134.12,62.294l1.415-3.823,3.709.9-1.263,5.408Z" transform="translate(-134.12 -14.084)" fill="#ff8b7b"/>
      <path id="Path_594" data-name="Path 594" d="M200.472,256.764H194.7l-.2-13.382h5.774Z" transform="translate(-136.786 -22.25)" fill="#ff8b7b"/>
      <path id="Path_595" data-name="Path 595" d="M193.832,256.681h6.491a.413.413,0,0,1,.428.4h0l.312,5.135a1.029,1.029,0,0,1-1.013,1.029c-2.26-.039-3.335-.171-6.234-.171-1.753,0-7.621.18-10.044.18s-2.338-2.4-1.332-2.618c4.613-.966,8.727-2.338,10.356-3.592A1.612,1.612,0,0,1,193.832,256.681Z" transform="translate(-136.224 -22.837)" fill="#263238"/>
      <path id="Path_596" data-name="Path 596" d="M200.277,243.393h-5.782l.109,6.9h5.774Z" transform="translate(-136.786 -22.25)" opacity="0.2" style="mix-blend-mode: normal;isolation: isolate"/>
      <path id="Path_597" data-name="Path 597" d="M189.665,103.957s-2.205,50.189-1.27,66.733c1.028,18.109,3.179,71.774,3.179,71.774h10.58s2.665-52.208,3.3-70.13c.694-19.481,3.834-68.377,3.834-68.377Z" transform="translate(-136.507 -16.093)" fill="#008083"/>
      <path id="Path_598" data-name="Path 598" d="M202.68,248.666H191.251l-.873-4.254,12.617.631Z" transform="translate(-136.604 -22.295)" fill="#263238"/>
      <path id="Path_599" data-name="Path 599" d="M192.186,257.661a7.579,7.579,0,0,0,1.558-.2.159.159,0,0,0,.1-.109.148.148,0,0,0-.054-.133c-.191-.133-1.824-1.243-2.532-.966a.513.513,0,0,0-.312.374.779.779,0,0,0,.171.732A1.554,1.554,0,0,0,192.186,257.661Zm1.169-.4c-1.036.2-1.792.171-2.065-.1a.5.5,0,0,1-.1-.483.235.235,0,0,1,.148-.191c.382-.138,1.338.346,2.007.774Z" transform="translate(-136.628 -22.816)" fill="#263238"/>
      <path id="Path_600" data-name="Path 600" d="M193.763,257.4a.1.1,0,0,0,.062,0,.138.138,0,0,0,.07-.109c0-.07.133-1.73-.452-2.294a.679.679,0,0,0-.574-.191.515.515,0,0,0-.483.405c-.141.631.725,1.839,1.3,2.182A.121.121,0,0,0,193.763,257.4Zm-.779-2.338a.389.389,0,0,1,.287.117,2.986,2.986,0,0,1,.382,1.839c-.5-.428-1.075-1.348-.989-1.761,0-.078.062-.171.257-.191Z" transform="translate(-136.692 -22.754)" fill="#263238"/>
      <path id="Path_601" data-name="Path 601" d="M211.667,54.986a3.678,3.678,0,0,0-2.979-4.264h0l-.138-.022h-.062c-1.862-.272-4.2-.553-6.491-.662a115.255,115.255,0,0,0-13.129,0c-2.018.191-3.99.522-5.564.826h-.062a5.518,5.518,0,0,0-4.2,3.849c-1.886,6.351-4.138,19.317-1.192,46.847h30.9c.218-2.759-.4-11.735.054-23.167A182.989,182.989,0,0,1,211.667,54.986Z" transform="translate(-135.988 -13.704)" fill="#263238"/>
      <path id="Path_602" data-name="Path 602" d="M212.738,56.97c-.639,3.693-1.426,8.719-1.972,14.026,0,0-2.821-5.532-3.335-10.262S210.977,55.644,212.738,56.97Z" transform="translate(-137.355 -13.989)" opacity="0.3" style="mix-blend-mode: normal;isolation: isolate"/>
      <g id="Group_24" data-name="Group 24" transform="translate(52.587 36.14)" opacity="0.2">
        <path id="Path_603" data-name="Path 603" d="M191.287,57.509a.3.3,0,0,1-.133-.553l9.631-5a.293.293,0,0,1,.265.522h0l-9.631,4.979A.377.377,0,0,1,191.287,57.509Z" transform="translate(-189.219 -49.935)" fill="#fff"/>
        <path id="Path_604" data-name="Path 604" d="M195.665,57.971a.259.259,0,0,1-.2-.086l-5.283-5.244a.306.306,0,0,1,0-.413.3.3,0,0,1,.413,0l5.275,5.257a.3.3,0,0,1,0,.413A.278.278,0,0,1,195.665,57.971Z" transform="translate(-189.179 -49.945)" fill="#fff"/>
        <path id="Path_605" data-name="Path 605" d="M202.579,50.03a115.121,115.121,0,0,0-13.122,0h-.218a3.118,3.118,0,0,0,.335,2.39c.732,1.169,2.267,1.824,4.574,1.948h.86c6.234,0,8.642-3.787,8.743-3.95l.218-.351Z" transform="translate(-189.136 -49.843)" fill="#fff"/>
      </g>
      <path id="Path_606" data-name="Path 606" d="M190.119,49.312c3.819-.9,4.492-3.265,4.231-5.859a15.538,15.538,0,0,0-.3-1.933l4.784-3.974,3.515-2.914c-.974,4.232-2.072,11.937.779,14.758,0,0-2.338,3.9-8.907,3.553C188.708,52.639,190.119,49.312,190.119,49.312Z" transform="translate(-136.586 -13.032)" fill="#ff8b7b"/>
      <path id="Path_607" data-name="Path 607" d="M194.234,41.654a15.717,15.717,0,0,1,.3,1.933c1.785-.358,4.168-2.26,4.418-4.083a8.375,8.375,0,0,0,.062-1.824Z" transform="translate(-136.775 -13.166)" opacity="0.2" style="mix-blend-mode: normal;isolation: isolate"/>
      <path id="Path_608" data-name="Path 608" d="M191.444,20.625c-2.6,1.558-2.182,5.455-2.883,8.244,1.652.163,4.254-2.772,4.254-2.772l1.558-4.465Z" transform="translate(-136.524 -12.413)" fill="#263238"/>
      <path id="Path_609" data-name="Path 609" d="M205.206,28.371c-1.659,5.5-2.338,8.794-5.859,11.1a7.472,7.472,0,0,1-11.626-6.319c0-5.244,2.7-13.364,8.712-14.486a7.56,7.56,0,0,1,8.774,9.709Z" transform="translate(-136.487 -12.319)" fill="#ff8b7b"/>
      <path id="Path_610" data-name="Path 610" d="M200.111,32.752c3.9-4.519-.974-6.748,3.008-9.888-4.481.21-11.86-.109-13.176-3.179s2.735-7.231,6.109-7.621c3.9-.452,3.059,4.371,3.059,4.371s14.911-.927,10.177,5.455c3.584-.218,2.6,5.579-3.639,10.473A23.928,23.928,0,0,1,200.111,32.752Z" transform="translate(-136.574 -12.034)" fill="#263238"/>
      <path id="Path_611" data-name="Path 611" d="M209.251,22.271s3.07-.912,2.969-3.345C213.327,19.693,213.443,22.014,209.251,22.271Z" transform="translate(-137.438 -12.338)" fill="#263238"/>
      <path id="Path_612" data-name="Path 612" d="M206.724,34.661a6.162,6.162,0,0,1-3.545,2.158c-1.769.319-2.182-1.317-1.3-2.914.779-1.434,2.676-3.327,4.262-2.93S207.854,33.267,206.724,34.661Z" transform="translate(-137.092 -12.868)" fill="#ff8b7b"/>
      <path id="Path_613" data-name="Path 613" d="M196.677,28.635c-.109.452-.437.779-.74.709s-.452-.478-.343-.927.437-.779.732-.717S196.786,28.179,196.677,28.635Z" transform="translate(-136.833 -12.725)" fill="#263238"/>
      <path id="Path_614" data-name="Path 614" d="M191.272,27.552c-.109.452-.437.779-.732.717s-.46-.478-.351-.927.437-.779.732-.717S191.381,27.1,191.272,27.552Z" transform="translate(-136.595 -12.678)" fill="#263238"/>
      <path id="Path_615" data-name="Path 615" d="M192.843,28.174a17.287,17.287,0,0,1-3.117,3.441,2.664,2.664,0,0,0,2.089.85Z" transform="translate(-136.576 -12.746)" fill="#ff5652"/>
      <path id="Path_616" data-name="Path 616" d="M193.547,34.274a4,4,0,0,0,3-.966.123.123,0,0,0,.011-.174h0l-.011-.011a.141.141,0,0,0-.191,0,3.81,3.81,0,0,1-3.288.818.133.133,0,0,0-.155.105h0a.14.14,0,0,0,.109.163Z" transform="translate(-136.716 -12.963)" fill="#263238"/>
      <path id="Path_617" data-name="Path 617" d="M198.725,27.265a.211.211,0,0,0,.133,0,.266.266,0,0,0,.137-.349v-.01a2.617,2.617,0,0,0-1.925-1.558.281.281,0,0,0-.312.234.273.273,0,0,0,.238.3h0a2.1,2.1,0,0,1,1.5,1.231A.279.279,0,0,0,198.725,27.265Z" transform="translate(-136.886 -12.622)" fill="#263238"/>
      <path id="Path_618" data-name="Path 618" d="M189.978,24.3a.248.248,0,0,0,.249-.047,2.253,2.253,0,0,1,1.963-.46.275.275,0,1,0,.171-.522h0a2.838,2.838,0,0,0-2.47.553.274.274,0,0,0-.047.382A.235.235,0,0,0,189.978,24.3Z" transform="translate(-136.578 -12.526)" fill="#263238"/>
      <path id="Path_619" data-name="Path 619" d="M213.165,52.8l.647.88.584.826c.39.553.741,1.107,1.107,1.659.709,1.115,1.379,2.244,2.026,3.382a74.63,74.63,0,0,1,3.522,7.013c.546,1.184,1.013,2.415,1.512,3.624s.92,2.462,1.3,3.728a69.2,69.2,0,0,1,2.024,7.659l.062.3a4.071,4.071,0,0,1-.553,3.07,22.275,22.275,0,0,1-3.545,4.2,18.326,18.326,0,0,1-4.675,3.117,16.813,16.813,0,0,1-5.345,1.481,15.942,15.942,0,0,1-2.727.047,8.985,8.985,0,0,1-1.356-.156l-.685-.133-.779-.191a.358.358,0,0,1-.265-.428l1.077-4.516c0-.039.2-.047.327-.078l.428-.086c.3-.062.584-.133.88-.21a12.436,12.436,0,0,0,1.691-.593,12.066,12.066,0,0,0,2.954-1.738,14.934,14.934,0,0,0,4.1-5.337l-.491,3.366c-.669-2.205-1.379-4.387-2.237-6.546s-1.792-4.278-2.813-6.366-2.111-4.153-3.288-6.163c-.574-1.006-1.184-1.995-1.792-2.976l-.927-1.449-.46-.7-.428-.623-.156-.234a5.06,5.06,0,0,1,8.283-5.813Z" transform="translate(-137.206 -13.742)" fill="#263238"/>
      <path id="Path_620" data-name="Path 620" d="M202.734,94.646l-1.676,2.743,7.27-.287s1.912-4.894-.694-5.665l-1.013.272A6.667,6.667,0,0,0,202.734,94.646Z" transform="translate(-137.076 -15.54)" fill="#ff8b7b"/>
      <path id="Path_621" data-name="Path 621" d="M205.88,90.76a4.869,4.869,0,0,0-1.325,1.332c1.98,1.075,4.738,4.738,4.738,4.738l.639-2.007a1.856,1.856,0,0,0-.21-1.558l-1.205-1.948a1.854,1.854,0,0,0-2.551-.607A.479.479,0,0,0,205.88,90.76Z" transform="translate(-137.23 -15.496)" fill="#008083"/>
      <path id="Path_622" data-name="Path 622" d="M201.7,101.874l5.992-.53.638-3.982-7.27.287Z" transform="translate(-137.076 -15.802)" fill="#ff8b7b"/>
    </g>
    <g id="freepik--Clock--inject-2" transform="translate(107.111 0.001)">
      <path id="Path_623" data-name="Path 623" d="M124.76,2.447l-.4-.669A27.548,27.548,0,0,1,127.923,0l.3.725A25.8,25.8,0,0,0,124.76,2.447Z" transform="translate(-112.603 -0.001)" fill="#008083"/>
      <path id="Path_624" data-name="Path 624" d="M112.839,16.355l-.779-.265a27.128,27.128,0,0,1,9.6-12.748l.46.631A26.256,26.256,0,0,0,112.839,16.355Z" transform="translate(-112.06 -0.149)" fill="#008083"/>
      <circle id="Ellipse_20" data-name="Ellipse 20" cx="23.985" cy="23.985" r="23.985" transform="translate(1.527 1.097)" fill="#008083"/>
      <path id="Path_625" data-name="Path 625" d="M157.859,25.316A20.033,20.033,0,1,1,152.622,11.8a.047.047,0,0,1,.039,0A19.994,19.994,0,0,1,157.859,25.316Z" transform="translate(-112.313 -0.234)" fill="#fff" opacity="0.6" style="mix-blend-mode: normal;isolation: isolate"/>
      <path id="Path_626" data-name="Path 626" d="M157.911,25.37a20.033,20.033,0,0,1-33.624,14.72,20.033,20.033,0,0,1,28.388-28.231.047.047,0,0,1,.039,0A19.994,19.994,0,0,1,157.911,25.37Z" transform="translate(-112.367 -0.288)" fill="#fff"/>
      <path id="Path_627" data-name="Path 627" d="M138.246,26.905a1.16,1.16,0,0,1-.826-.343l-9.773-9.772a1.169,1.169,0,0,1,1.593-1.71c.02.018.04.038.058.058l8.946,8.946,5.162-5.162a1.169,1.169,0,0,1,1.652,1.652l-5.992,5.992A1.181,1.181,0,0,1,138.246,26.905Z" transform="translate(-112.733 -0.654)" fill="#263238"/>
    </g>
  </g>
</svg>
