<svg xmlns="http://www.w3.org/2000/svg" width="323.085" height="194.439" viewBox="0 0 323.085 194.439">
  <g id="Group_5827" data-name="Group 5827" transform="translate(-689.614 -452.112)">
    <g id="Group_5819" data-name="Group 5819" transform="translate(689.614 477.246)" opacity="0.42">
      <g id="Group_5818" data-name="Group 5818" transform="translate(0 20.724)">
        <path id="Path_5463" data-name="Path 5463" d="M989.054,736.388,875.189,842.3l-58.62-55.52c-10.974,10.745-27.923,27.328-44.974,43.97-11.652,11.374-21.086,20.563-28.732,28l-53.249-.062c14.768-13.979,74.231-72.075,114.29-111.337l12.249-12,59.259,56.124,87-80.921Z" transform="translate(-689.614 -710.55)" fill="#d5e5fb"/>
      </g>
      <path id="Path_5464" data-name="Path 5464" d="M2147.483,601.739l53.663,56.467,10.732-64.447Z" transform="translate(-1888.793 -593.759)" fill="#d5e5fb"/>
    </g>
    <g id="Group_5822" data-name="Group 5822" transform="translate(816.724 452.112)">
      <g id="man" transform="translate(0 0)">
        <path id="Path_5465" data-name="Path 5465" d="M1647.349,616.784l-7.8,14.8-4-1.455,1.3,3.949-7.82,23.558S1624.7,627.7,1647.349,616.784Z" transform="translate(-1589.173 -587.564)" fill="#054947"/>
        <path id="Path_5466" data-name="Path 5466" d="M1616.648,690.524s-8.625,31.8-9.456,62.14c0,0,7.154,2.494,18.393.519C1636.881,751.2,1616.648,690.524,1616.648,690.524Z" transform="translate(-1571.483 -648.219)" fill="#054947"/>
        <path id="Path_5467" data-name="Path 5467" d="M1409.817,911.8c2.314-.043,5.574.243,6.651-.935a3.255,3.255,0,0,1,2.66-1.139l-.291-1.526-.349-1.823s-.131-.166-.606-.16a8.989,8.989,0,0,1-2.478-.214c-1.949-.7-9.705,3.951-9.444,5.24C1406.058,911.727,1408.831,911.822,1409.817,911.8Z" transform="translate(-1405.953 -825.406)" fill="#e2915a"/>
        <path id="Path_5468" data-name="Path 5468" d="M1499.815,687.01s-13.1,27.063-17.157,29.968-18.508,9.186-18.508,9.186a3.685,3.685,0,0,0-.028,2.218,2.758,2.758,0,0,0,1.087,1.76s20.209-1.8,24.907-4.729,15.058-14.581,15.058-14.581Z" transform="translate(-1453.677 -645.329)" fill="#054947"/>
        <g id="Group_5820" data-name="Group 5820" transform="translate(39.484 88.298)">
          <path id="Path_5469" data-name="Path 5469" d="M1881.72,1469.17h7.755a4.7,4.7,0,0,0,2.121-3.553c.379-2.5,3.179-3.861,3.785-5.9s-2.5-4.918-2.5-4.918l-.519-.669-.54-.694-5.147,1.212s-.128,1.226-.2,2.787a35.62,35.62,0,0,0-.023,3.57c.151,2.724-.762,5.658-3.183,6.189C1881.476,1467.581,1881.556,1468.643,1881.72,1469.17Z" transform="translate(-1836.716 -1364.052)" fill="#054947"/>
          <path id="Path_5470" data-name="Path 5470" d="M1628.466,1500.092H1646.2c.853-1.041.538-4.882.409-6.136-.027-.252-.045-.4-.045-.4s-6.056-4.844-6.888-1.135c-.025.117-.056.23-.09.342-1.048,3.469-5.748,5.046-8.463,5.485A3.075,3.075,0,0,0,1628.466,1500.092Z" transform="translate(-1628.466 -1394.974)" fill="#054947"/>
          <path id="Path_5471" data-name="Path 5471" d="M1647.509,976.9s.92,11.473,2,25.263c1.469,18.734,3.235,41.745,3.41,46.1.3,7.57,1.515,19.678,1.515,19.678s2.874,2.877,8.628,1.664a198.078,198.078,0,0,0,6.591-35.574c.023-.3.046-.6.068-.9,1.362-18.618,3.48-57.822,3.48-57.822Z" transform="translate(-1644.13 -970.774)" fill="#06514d"/>
          <path id="Path_5472" data-name="Path 5472" d="M1647.509,976.9s.92,11.473,2,25.263l20.143,31.873c.023-.3.046-.6.068-.9,1.362-18.618,3.48-57.822,3.48-57.822Z" transform="translate(-1644.13 -970.774)" fill="#044745"/>
          <path id="Path_5473" data-name="Path 5473" d="M1671.174,957.218s16.575,41.549,27.473,61.075,14.3,24.975,14.3,24.975,6.244-2.5,6.812-4.2c0,0-4.168-37.7-11.466-46.885-4.124-5.192-8.969-20.775-9.2-26.224s-1.476-16.234-1.476-16.234Z" transform="translate(-1663.596 -949.725)" fill="#06514d"/>
        </g>
        <path id="Path_5474" data-name="Path 5474" d="M1694.426,570.534c6.477,2.044,17.684-3.472,17.684-3.472s-5.972-4.482-5.659-13.8l-5.008,4.036-3.4,2.741a40.779,40.779,0,0,0,.386,4.448c.068.516.148,1.074.241,1.67a1.2,1.2,0,0,1-.544,1.208A15.316,15.316,0,0,0,1694.426,570.534Z" transform="translate(-1643.238 -535.314)" fill="#ffb27d"/>
        <path id="Path_5475" data-name="Path 5475" d="M1643.4,682.948a1.05,1.05,0,0,0,.681.259c2.432-.033,9.525,1.318,15.526.7a44.71,44.71,0,0,0,14.346-4.14c.639-.286,2.108-1.071,2.075-1.784-.021-.782-.1-1.915-.2-3.343a178.814,178.814,0,0,1-.355-23.35c.1-1.834.158-3.653.165-5.444.05-13.349-2.6-25.09-7.916-29.064a44.005,44.005,0,0,1-6.275,2.9c-2.515.8-3.811.642-5.115-.223a15.905,15.905,0,0,0-3.626,2.446c-2.513,2.74-4.476,6.377-5.773,11.6a99.4,99.4,0,0,0-2.494,19.224C1644.284,656.492,1643.241,682.818,1643.4,682.948Z" transform="translate(-1601.255 -587.564)" fill="#fff"/>
        <path id="Path_5476" data-name="Path 5476" d="M1701.688,638.84l-7.129-22.056s-17.117,6.455-17.909,30.625c-.312,5.508-1.633,28.078.757,46.783,0,0,13.336,5.2,29.684-5.057Z" transform="translate(-1628.086 -587.564)" fill="#005f60"/>
        <path id="Path_5477" data-name="Path 5477" d="M1714.8,578.3a40.749,40.749,0,0,0,.386,4.448c3.769-.647,8.045-6.739,8.045-6.739a12.012,12.012,0,0,0-5.029-.45Z" transform="translate(-1659.996 -553.571)" fill="#ed975d"/>
        <path id="Path_5478" data-name="Path 5478" d="M1688.438,501.015s11.666,1.938,12.761-5.345,3.338-11.938-4.064-13.484-9.27,1.016-10.227,3.358S1685.432,500.323,1688.438,501.015Z" transform="translate(-1636.441 -476.462)" fill="#ffb27d"/>
        <g id="Group_5821" data-name="Group 5821" transform="translate(71.401 94.027)">
          <path id="Path_5479" data-name="Path 5479" d="M1840.124,1021.105l-23.818,3.394a5.709,5.709,0,0,1-6.439-4.833l-1.471-10.322a5.71,5.71,0,0,1,4.833-6.439l23.818-3.394a5.71,5.71,0,0,1,6.44,4.833l1.471,10.322A5.71,5.71,0,0,1,1840.124,1021.105Z" transform="translate(-1808.339 -996.359)" fill="#054947"/>
          <path id="Path_5480" data-name="Path 5480" d="M1826.084,994.542l1.488,10.441a5.725,5.725,0,0,0,3.364,4.423,5.627,5.627,0,0,0,1.856.469h0a5.6,5.6,0,0,0,1.24-.039l23.776-3.389a5.73,5.73,0,0,0,4.851-6.463l-1.487-10.442a5.733,5.733,0,0,0-6.464-4.851l-8.187,1.167-.317-2.228a1.887,1.887,0,0,0-2.132-1.6l-.9.128-4.98.71-1.237.177a1.886,1.886,0,0,0-1.6,2.132l.317,2.228-4.743.675c-.188.027-.37.063-.55.107a0,0,0,0,1,0,0h0a5.735,5.735,0,0,0-3.946,3.447h0A5.667,5.667,0,0,0,1826.084,994.542Zm19.271-8.519-8.508,1.213-.317-2.228a.705.705,0,0,1,.6-.8l2.136-.3,3.919-.56,1.058-.15a.724.724,0,0,1,.212,0,.707.707,0,0,1,.585.6Z" transform="translate(-1822.889 -982.011)" fill="#005f60"/>
        </g>
        <path id="Path_5481" data-name="Path 5481" d="M1885.4,940.717a8.273,8.273,0,0,1,1.3,2.332c.336,4.513-1.726,5.137,3.612,7.643,0,0,2.279.869,2.318-.9s-1.581-1.8-1.285-4.275c.342-2.857.307-2.884-1.568-4.376l-1.241-2.052Z" transform="translate(-1800.321 -852.678)" fill="#ffb27d"/>
        <path id="Path_5482" data-name="Path 5482" d="M1770.448,676.88a18.3,18.3,0,0,1-4.191.233s-5.971-18.444-6.739-20.128-17.734-21.626-17.734-21.626l6.882-18.575s4.036,2.362,8.3,9.725c5.271,9.095,11.066,23.741,12.1,26.121,3.079,7.117,4.147,23.075,4.147,23.075A7.688,7.688,0,0,1,1770.448,676.88Z" transform="translate(-1682.193 -587.564)" fill="#005f60"/>
        <path id="Path_5483" data-name="Path 5483" d="M1687.146,470.618s-1.2-.2-1-1.849.191-3.8-1.15-3.4-1.407,1.475-1.958.848-.561-3.268-4.55-3.451-5.61,1.2-7.465.389-1.953-3.623-1.953-3.623a3.193,3.193,0,0,0,1.325,1.321s-3.095-4.233.488-7.135,7.236-1,9.31-.877c4.569.277,7.52.551,9.012,3.553S1690.078,467.728,1687.146,470.618Z" transform="translate(-1622.378 -452.112)" fill="#005f60"/>
        <path id="Path_5484" data-name="Path 5484" d="M1887.8,959.448s-1.2,1.255-1.281,1.778c-.244,1.677-.8,2.4-.523,2.584.583.379,1.356-.862,1.724-1.976A5.091,5.091,0,0,0,1887.8,959.448Z" transform="translate(-1800.749 -869.424)" fill="#ffb27d"/>
        <path id="Path_5485" data-name="Path 5485" d="M1694.105,616.784l-7.8,14.8-4-1.455,1.3,3.949-7.82,23.558S1671.458,627.7,1694.105,616.784Z" transform="translate(-1627.632 -587.564)" fill="#054947"/>
      </g>
      <path id="Path_5486" data-name="Path 5486" d="M1694.426,566.5a1.935,1.935,0,0,0,1.59,1.233,2.884,2.884,0,0,0,2.012-1.071A9.015,9.015,0,0,0,1694.426,566.5Z" transform="translate(-1643.238 -546.084)" fill="#fff"/>
    </g>
    <g id="Group_5826" data-name="Group 5826" transform="translate(760.806 452.131)">
      <g id="Group_5823" data-name="Group 5823" transform="translate(33.681 103.196)">
        <path id="Path_5487" data-name="Path 5487" d="M1307.677,1070.757l23.686-5.488a5.771,5.771,0,0,0,4.307-6.9l-2.378-10.265a5.771,5.771,0,0,0-6.9-4.307l-23.686,5.488a5.771,5.771,0,0,0-4.306,6.9l2.378,10.265A5.771,5.771,0,0,0,1307.677,1070.757Z" transform="translate(-1295.122 -1041.897)" fill="#06514d"/>
        <path id="Path_5488" data-name="Path 5488" d="M1314.292,1038.1h0a5.8,5.8,0,0,0-4.976-1.809h0a0,0,0,0,1,0,0c-.185.025-.37.057-.557.1l-4.716,1.094-.514-2.215a1.906,1.906,0,0,0-2.286-1.426l-1.23.284-4.952,1.147-.893.207a1.908,1.908,0,0,0-1.426,2.286l.514,2.215-8.141,1.886a5.793,5.793,0,0,0-4.323,6.929l2.407,10.384a5.791,5.791,0,0,0,6.928,4.321l23.644-5.477a5.641,5.641,0,0,0,1.183-.415h0a5.679,5.679,0,0,0,1.578-1.118,5.787,5.787,0,0,0,1.557-5.4l-2.405-10.383A5.726,5.726,0,0,0,1314.292,1038.1Zm-20.393-.6a.713.713,0,0,1,.335-.774.739.739,0,0,1,.2-.08l1.052-.244,3.9-.9,2.125-.492a.711.711,0,0,1,.853.531l.514,2.215-8.461,1.959Z" transform="translate(-1280.636 -1033.791)" fill="#044745"/>
      </g>
      <path id="Path_5489" data-name="Path 5489" d="M1354.432,980.5s-.715,2.537-.47,3.346c1.664,5.478,4.541,9.062-3.193,8.137,0,0,.32-.317-1.161-3.1-1.708-3.215-1.679-3.262-.148-5.879l.528-2.989Z" transform="translate(-1302.629 -886.361)" fill="#ffb27d"/>
      <path id="Path_5490" data-name="Path 5490" d="M1397.889,910.621c-2.335-.142-5.181-.753-6.219-1.987a5.746,5.746,0,0,0-2.35-1.776l.358-1.529.43-1.826s.14-.162.619-.136c0,0,1.831.414,2.511-.111s1.923-.205,2.688.3c.974.647,2.288.542,2.256.859,0,0-1.93.949-1.75,1.109,1.767,1.569,6.423,2.193,6.121,3.419C1402.434,909.429,1398.884,910.682,1397.889,910.621Z" transform="translate(-1336.355 -823.001)" fill="#ffb27d"/>
      <path id="Path_5491" data-name="Path 5491" d="M1192.489,575.87l-.007,1.269s.346,3.97-4.542,4.549-8.9.5-8.764-2.558a64.693,64.693,0,0,0,1.262-8.016,13.788,13.788,0,0,0-.174-2.377l9.472-.189,2.79.456Z" transform="translate(-1163.495 -547.906)" fill="#ffb27d"/>
      <path id="Path_5492" data-name="Path 5492" d="M1197.584,569l-.036,6.866a8.011,8.011,0,0,1-3.414.753c-4.353,0-7.167-3.192-8.638-5.509a13.788,13.788,0,0,0-.174-2.377l9.472-.189Z" transform="translate(-1168.554 -547.906)" fill="#e2915a"/>
      <path id="Path_5493" data-name="Path 5493" d="M1174.058,491.974c1.1,5.915,8.731,5.72,12.029,5.349.928-.1,1.512-.222,1.512-.222,1.047-.28,1.63-1.928,1.9-4.087.538-4.273-.142-10.546-.863-12.15-1.087-2.414-3.133-5.025-10.818-3.141S1172.648,484.4,1174.058,491.974Z" transform="translate(-1158.016 -472.667)" fill="#ffb27d"/>
      <path id="Path_5494" data-name="Path 5494" d="M1146.04,1517.189h10.814a26.153,26.153,0,0,0-.863-3.882,11.008,11.008,0,0,0-.613-1.558c-1.052-2.1-7.732-.764-7.732-.764a5.147,5.147,0,0,0-1.1,2.563A21.525,21.525,0,0,0,1146.04,1517.189Z" transform="translate(-1136.242 -1322.77)" fill="#054947"/>
      <path id="Path_5495" data-name="Path 5495" d="M1330.185,1493.372c.03,1.471.215,2.864.748,3.413h21.391c-.271-.774-1.042-1.938-3.238-2.294-2.5-.4-6.385-1.605-8.656-4.006a6.443,6.443,0,0,1-1.676-3.035c-1.006-4.481-8.321,1.373-8.321,1.373A36.184,36.184,0,0,0,1330.185,1493.372Z" transform="translate(-1287.708 -1302.366)" fill="#054947"/>
      <path id="Path_5496" data-name="Path 5496" d="M1200.181,1002.782a33.716,33.716,0,0,1,.537,3.951c.68,13.264,11.165,43.592,13.041,44.3,2.9,1.1,7.472-1.233,9.863-1.994a2.051,2.051,0,0,0,1.439-2.329c-5.192-23.871-7.1-58.245-7.8-78.6a92.325,92.325,0,0,0-2.11-17.331s-25.573-6.823-25.725,1.808C1189.3,960.228,1197.9,990.182,1200.181,1002.782Z" transform="translate(-1171.932 -860.21)" fill="#005f60"/>
      <path id="Path_5497" data-name="Path 5497" d="M1200.181,1002.782l17.084-34.669a92.325,92.325,0,0,0-2.11-17.331s-25.573-6.823-25.725,1.808C1189.3,960.228,1197.9,990.182,1200.181,1002.782Z" transform="translate(-1171.932 -860.21)" fill="#054947"/>
      <path id="Path_5498" data-name="Path 5498" d="M1149.113,958.561l-13.519,97.983s-5.937,1.431-10.555.286c0,0-3.958-52.111-3.628-64.71s-2.841-33.711.724-36.039S1149.113,958.561,1149.113,958.561Z" transform="translate(-1115.174 -866.15)" fill="#005f60"/>
      <path id="Path_5499" data-name="Path 5499" d="M1174.11,461.343c-2.112.665-6.577-.014-8.444,1.5s-.088,4-2.222,4.889l-.008,0a1.054,1.054,0,0,1-1.226-.307c-.591-.738-1.408-1.473-2.156-1.168-.613.251-.644,1.043-.374,1.813a2.143,2.143,0,0,1-.229,1.937,1.057,1.057,0,0,0-.232.78c.177.976.662,2.246.84,2.9l.049.681a35.058,35.058,0,0,1-5.08-7.124c-1.033-2.234-1.012-10.584,4.041-13.025a.169.169,0,0,1-.048-.054c-.109-.2-.414-.151-.414-.151a2.279,2.279,0,0,1,1.109-.072c-.015-.01.013-.042.073-.088a1.783,1.783,0,0,1,.683-1.012,1.983,1.983,0,0,0-.324.8c1.328-.7,5.412-2.249,8.651-.84a26.989,26.989,0,0,0,5.563,1.723,2.32,2.32,0,0,1,1.878,2.363C1176.181,458.485,1175.622,460.792,1174.11,461.343Z" transform="translate(-1143.192 -452.221)" fill="#054947"/>
      <path id="Path_5500" data-name="Path 5500" d="M1172.693,637.778l3.113,66.784s25.978.424,25.236-5.454-9.364-59.285-9.364-59.285" transform="translate(-1158.166 -604.852)" fill="#e9f3fe"/>
      <path id="Path_5501" data-name="Path 5501" d="M1116.146,668.1s-1.319,17.837-3.852,29.036c0,0-15.16.8-18.758-5.049,0,0,2.848-24.1,2.848-28.984,0-1.718-.132-4.054-.342-6.664-.315-3.955-.8-8.536-1.269-12.526-.645-5.557-1.237-9.974-1.237-9.974l12.5-10.157Z" transform="translate(-1093.056 -593.34)" fill="#055654"/>
      <path id="Path_5502" data-name="Path 5502" d="M1285.033,689.826A11.665,11.665,0,0,1,1277.75,691c-1.621,3.976-5.445,5.327-5.445,4.967,0-.044-.858-7.509-1.872-16.306-.1-.879-.2-1.771-.305-2.669-.008-.077-.019-.154-.027-.231-.17-1.474-.341-2.964-.513-4.448-1.22-10.595-2.392-20.751-2.392-20.751-2.658-16.273-4.909-27.028-4.909-27.028,5.672.59,9.5,2.61,11.025,5.256,4.526,7.845,7.8,27.469,9.724,42.158,0,.037.008.075.015.112.331,2.536.622,4.923.869,7.075.017.135.031.268.046.4C1284.671,685.692,1285.033,689.826,1285.033,689.826Z" transform="translate(-1231.861 -593.961)" fill="#055654"/>
      <path id="Path_5503" data-name="Path 5503" d="M1253.253,624.544" transform="translate(-1224.431 -593.966)" fill="#005f60"/>
      <path id="Path_5504" data-name="Path 5504" d="M1242.262,563.234s.247.763,2.172.484c0,0,1.617-.234,1.5-1.084A5.245,5.245,0,0,0,1242.262,563.234Z" transform="translate(-1215.39 -542.955)" fill="#fff"/>
      <g id="Group_5825" data-name="Group 5825" transform="translate(13.79 28.083)">
        <path id="Path_5505" data-name="Path 5505" d="M1168.542,616.3c-.031-.637,2.987-1.518,2.987-1.518s3.455,4.791,9.148,4.874c0,0-1.622,3.157-3.534,3.975C1177.143,623.626,1168.73,620.08,1168.542,616.3Z" transform="translate(-1168.542 -614.016)" fill="#d9e9f9"/>
        <path id="Path_5506" data-name="Path 5506" d="M1236.933,624.208s3.016-1.788,3.026-3.726c0,0,1.948-.244,2.8.7,0,0,.715,3.322-.233,5.251C1242.524,626.434,1238.181,625.772,1236.933,624.208Z" transform="translate(-1224.797 -618.685)" fill="#d9e9f9"/>
        <path id="Path_5507" data-name="Path 5507" d="M1224.6,635.448l4.089-.98a.62.62,0,0,1,.52.713,5.205,5.205,0,0,1-1.655,2.768C1227.051,638.1,1223.634,636.8,1224.6,635.448Z" transform="translate(-1214.513 -630.212)" fill="#ba4c43"/>
        <path id="Path_5508" data-name="Path 5508" d="M1171.226,612.436c-.032-.637,2.012-1.951,2.012-1.951s3.954,4.622,9.647,4.7c0,0-1.622,3.157-3.534,3.975C1179.351,619.166,1171.414,616.221,1171.226,612.436Z" transform="translate(-1170.75 -610.486)" fill="#e9f3fe"/>
        <path id="Path_5509" data-name="Path 5509" d="M1236.933,620.52s3.05-1.617,3.061-3.555a9.745,9.745,0,0,1,2.692,1.755,5.6,5.6,0,0,1-.161,4.026S1238.181,622.084,1236.933,620.52Z" transform="translate(-1224.797 -615.815)" fill="#e9f3fe"/>
        <g id="Group_5824" data-name="Group 5824" transform="translate(11.176 6.516)">
          <path id="Path_5510" data-name="Path 5510" d="M1239.962,701.4a8.676,8.676,0,0,1-2.057,5.022l-1.832,2.068a.935.935,0,0,1-1.552-.134l-2.212-3.469a5.33,5.33,0,0,1-.761-3.3c.236-2.647.676-7.748,1.037-12.67.293-3.988.535-7.862.573-10.217.122-7.521-.863-31.487-.863-31.487l1.47.077a110.728,110.728,0,0,1,5.353,21.908c.442,3.112.774,6.427.921,9.861C1240.038,679.053,1240.673,692.74,1239.962,701.4Z" transform="translate(-1231.527 -647.207)" fill="#c65447"/>
          <path id="Path_5511" data-name="Path 5511" d="M1239.962,803.307a8.675,8.675,0,0,1-2.057,5.021l-1.832,2.068a.935.935,0,0,1-1.552-.134l-2.212-3.469a5.33,5.33,0,0,1-.761-3.3c.236-2.647.676-7.748,1.037-12.67,4.118-5.645,5.84-13.4,6.532-19.719.442,3.112.774,6.427.921,9.862C1240.038,780.965,1240.673,794.652,1239.962,803.307Z" transform="translate(-1231.527 -749.118)" fill="#ba4c43"/>
        </g>
      </g>
      <path id="Path_5512" data-name="Path 5512" d="M1160.853,610.486s8.1,33.911,6.808,46.685c0,0-2.977-13.651-10.141-24.832,0,0,2.615-2.3,2.472-3.147a8.952,8.952,0,0,0-3.823-.188s.208-14.617,1.382-16.162A8.553,8.553,0,0,1,1160.853,610.486Z" transform="translate(-1144.574 -582.403)" fill="#054947"/>
      <path id="Path_5513" data-name="Path 5513" d="M1253.673,616.965c-1.214.1,8.024,33.137,8.708,43.727,0,0-.812-18.9-.732-24.344,0,0-3.362-1.78-3.362-2.4s3.587-2.313,3.587-2.313-2.272-11.638-3.511-12.921S1253.673,616.965,1253.673,616.965Z" transform="translate(-1224.686 -587.732)" fill="#054947"/>
      <path id="Path_5514" data-name="Path 5514" d="M1347.974,1006.681a3.6,3.6,0,0,0-.2,2.665c.357,1.906.16,2.958.653,2.629a11.449,11.449,0,0,0,1.512-2.618Z" transform="translate(-1302.078 -908.295)" fill="#ffb27d"/>
      <path id="Path_5515" data-name="Path 5515" d="M1120.892,737.476c-9.426-1.407-15.729-10.216-19.114-16.886-.315-3.955-.8-8.536-1.269-12.526l2.205-6.292Z" transform="translate(-1098.791 -657.49)" fill="#054947"/>
      <path id="Path_5516" data-name="Path 5516" d="M1320.188,911a31.8,31.8,0,0,1-13.531.127c-.1-.879-.2-1.771-.305-2.669-.009-.077-.019-.154-.027-.231q.293-1.147.588-2.295c3.373,1.208,10.911,3.853,13.23,4.668C1320.159,910.738,1320.174,910.871,1320.188,911Z" transform="translate(-1268.085 -825.426)" fill="#054947"/>
      <path id="Path_5517" data-name="Path 5517" d="M1103.8,623.766s-8.283,1.046-12.063,6.323,4.338,34.018,21.188,43.222c8.105,4.427,31.493,5.424,31.493,5.424s1.286.129,1.8-2.459a10.358,10.358,0,0,0,0-2.441s-26.622-9.982-28.962-11.9S1103.8,623.766,1103.8,623.766Z" transform="translate(-1090.824 -593.326)" fill="#055654"/>
    </g>
  </g>
</svg>
