<svg xmlns="http://www.w3.org/2000/svg" width="47.097" height="42.442" viewBox="0 0 47.097 42.442">
  <path id="Path_5631" data-name="Path 5631" d="M-293.719,196.435h3.539v19.81h2.974V200.51h3.487v15.756h3.017V192.334h3.38v27.383h-43.135V177.275h3.336v23.562c1.082-.764,1.853-1.294,2.609-1.845,5.95-4.338,11.913-8.657,17.827-13.044a2.059,2.059,0,0,1,2.436-.222c1.681.8,3.4,1.538,5.137,2.211a1.644,1.644,0,0,0,1.4-.118c3.188-2.826,6.322-5.715,9.549-8.66l-1.682-1.86h6.485v6.5l-2.29-2.172c-3.5,3.177-7.005,6.292-10.42,9.5-1.016.955-1.826,1.339-3.178.587a29.2,29.2,0,0,0-4.855-2.047,2.48,2.48,0,0,0-1.956.228q-10.075,7.238-20.056,14.607c-.393.289-.911.767-.919,1.165-.072,3.507-.042,7.017-.042,10.6h3.986v-9.676h3.449v9.63h3.053V202.545h3.445v13.7h2.974V198.43h3.495v17.809h2.954Z" transform="translate(320.456 -177.275)" fill="#008083"/>
</svg>
