<svg xmlns="http://www.w3.org/2000/svg" width="53.009" height="53.032" viewBox="0 0 53.009 53.032">
  <g id="Group_6037" data-name="Group 6037" transform="translate(-19.474 -717.491)">
    <path id="Path_5642" data-name="Path 5642" d="M-1491.816,211.455c.481.015.962.042,1.444.043,2.053,0,4.106,0,6.2,0V197.825h-1.615v-5.118h3.385c0-.973,0-1.882,0-2.791a3.505,3.505,0,0,1,2.9-3.837c.879-.248,1.754-.509,2.638-.739a.535.535,0,0,0,.472-.6,2.117,2.117,0,0,0-.594-1.716,3.951,3.951,0,0,1-1.066-2.421,9.557,9.557,0,0,1,.22-4.1,4.922,4.922,0,0,1,3.9-3.387,4.864,4.864,0,0,1,4.788,1.683,4.846,4.846,0,0,1,1.261,3.41,22.583,22.583,0,0,1-.129,2.733,4.47,4.47,0,0,1-1.315,2.474,2.783,2.783,0,0,0-.206,1.716.688.688,0,0,0,.352.176c.91.263,1.819.533,2.736.773a3.57,3.57,0,0,1,2.851,3.186h.8c1.191,0,2.382.005,3.573-.006a.823.823,0,0,0,.522-.129c1.491-1.459,2.964-2.936,4.4-4.363a18.649,18.649,0,0,1-1.868-1.41,4.639,4.639,0,0,1-1.4-3.192,8.105,8.105,0,0,1,.69-4.631,5.15,5.15,0,0,1,8.26-.768,5.19,5.19,0,0,1,1.274,3.463,21.7,21.7,0,0,1-.071,2.43,4.885,4.885,0,0,1-1.582,2.958c1.557.876,1.776,2.3,1.638,3.907h3.385a4.133,4.133,0,0,1,.053.443c0,3.5.023,7.008,0,10.512a5.868,5.868,0,0,1-3.811,5.737,12.135,12.135,0,0,1-1.206.376c.047.554.09,1.131.147,1.707.156,1.562.337,3.122.467,4.686.034.406.161.516.555.514,2.779-.015,5.558-.008,8.337-.008h.633v1.716h-53.009Zm9.444-10.223V211.5c.625,0,1.225.018,1.822-.015.121-.007.272-.184.342-.318.467-.9.926-1.811,1.365-2.728a.565.565,0,0,1,.6-.364q6.964.014,13.928,0a.563.563,0,0,1,.592.371c.429.9.88,1.795,1.341,2.682.077.148.238.347.371.356.6.039,1.2.017,1.81.017V201.216h-17.9v-1.7h17.895v-1.678h-22.15v1.712h2.493v1.677Zm1.7-8.566h12.092a2.566,2.566,0,0,1,.6-2.617,3.031,3.031,0,0,1,2.566-.777,1.5,1.5,0,0,0-1.222-1.447c-1.02-.312-2.045-.613-3.078-.876a.906.906,0,0,0-.605.2,11.141,11.141,0,0,1-1.375.98,3.4,3.4,0,0,1-3.945-.947.767.767,0,0,0-.592-.237c-1.051.266-2.091.576-3.129.888a1.631,1.631,0,0,0-1.3,1.552C-1480.708,190.461-1480.676,191.544-1480.676,192.666Zm22.241,6.87h.549q2.95,0,5.9,0a2.645,2.645,0,0,0,2.941-2.943q0-4.787,0-9.575v-.333a14.57,14.57,0,0,1-1.137,1.485q-2.547,2.612-5.16,5.159a1.622,1.622,0,0,0-.556,1.347c.046,1.027.013,2.058.013,3.141h-2.551Zm2.568-20.481c0,.308-.024.706,0,1.1a3.4,3.4,0,0,0,3.088,3.1,3.25,3.25,0,0,0,3.509-2.36,11.015,11.015,0,0,0,.147-3.173,3.248,3.248,0,0,0-2.561-2.9,3.432,3.432,0,0,0-3.559,1.333A4.144,4.144,0,0,0-1455.866,179.055Zm-20.523.033c0,.291-.018.653,0,1.014a3.383,3.383,0,0,0,3.082,3.152,3.259,3.259,0,0,0,3.513-2.357,10.967,10.967,0,0,0,.132-3.223,3.071,3.071,0,0,0-2.354-2.775,3.258,3.258,0,0,0-3.524.978A3.942,3.942,0,0,0-1476.389,179.087Zm-7.713,16.994h26.447v-1.655H-1484.1Zm36.757-6.783c0,.257,0,.461,0,.666-.01,2.45.029,4.9-.046,7.349a4.086,4.086,0,0,1-3.877,3.874c-2.189.076-4.382.034-6.573.044h-.59v1.7c.109.009.191.022.274.022,2.726,0,5.453.007,8.179-.006a4.368,4.368,0,0,0,1.123-.151,4.263,4.263,0,0,0,3.229-4.33c.009-2.916,0-5.832,0-8.748,0-.133-.017-.266-.028-.421Zm-14.344,3.4c1.38,0,2.76.016,4.139-.015a1.215,1.215,0,0,0,.753-.317c1.857-1.826,3.693-3.674,5.534-5.516a2.757,2.757,0,0,0,.274-.308.955.955,0,0,0-.068-1.27.947.947,0,0,0-1.23-.064,3.552,3.552,0,0,0-.422.378q-2.527,2.522-5.047,5.051a1.035,1.035,0,0,1-.811.339c-2.4-.013-4.8-.009-7.193,0-.221,0-.506-.03-.65.088-.241.2-.539.5-.542.766s.289.575.527.776c.141.12.427.09.649.091C-1464.415,192.7-1463.052,192.695-1461.689,192.695Zm7.594,11.993h-4.33v6.771h5C-1453.646,209.19-1453.868,206.967-1454.095,204.687Zm-24.33,6.766h14.277c-.25-.5-.453-.96-.7-1.389a.6.6,0,0,0-.428-.258q-6.008-.021-12.015,0a.54.54,0,0,0-.4.208C-1477.954,210.459-1478.166,210.929-1478.425,211.454Zm28.433.043c-.234-2.332-.459-4.572-.684-6.8h-1.692c.042.452.079.862.12,1.271.172,1.733.341,3.466.529,5.2.013.12.174.312.277.32C-1450.983,211.517-1450.52,211.5-1449.993,211.5Zm-24.667-26.792a1.423,1.423,0,0,0,.8,1.725,1.576,1.576,0,0,0,1.837-.062,1.346,1.346,0,0,0,.667-1.653A5.392,5.392,0,0,1-1474.659,184.7Z" transform="translate(1511.29 557.308)" fill="#008083"/>
    <path id="Path_5643" data-name="Path 5643" d="M-1279.49,52.974q.016,3.131.031,6.263c0,.74,0,1.48,0,2.3h-.643c-2.33,0-4.661.011-6.99-.01a1.583,1.583,0,0,0-1.113.415c-1.884,1.592-3.785,3.165-5.761,4.813V61.547H-1300V52.974Zm-18.735,1.74v5.112h5.971V63.1c1.261-1.048,2.416-2.027,3.6-2.972a1.443,1.443,0,0,1,.823-.3c2.036-.025,4.072-.013,6.108-.013h.535v-5.1Z" transform="translate(1339.98 664.517)" fill="#f78104"/>
  </g>
</svg>
