<svg xmlns="http://www.w3.org/2000/svg" width="52.001" height="51.988" viewBox="0 0 52.001 51.988">
  <g id="Group_6036" data-name="Group 6036" transform="translate(-16.511 -589.5)">
    <path id="Path_5633" data-name="Path 5633" d="M-942.035,115.688h-3.246a2.954,2.954,0,0,1,1.1,2.007h2.144v.984h-2.125c-.2,2.007-1.79,3.286-4.309,3.364,1.535,1.594,3.207,3.6,4.86,5.627H-945.5c-1.535-1.849-2.971-3.561-4.82-5.528v-1.22h1.082c2.125,0,3.266-.885,3.4-2.243h-4.485v-.984h4.427c-.276-1.141-1.318-1.712-3.03-1.712h-1.4V114.7h8.283Z" transform="translate(973.905 499.437)" fill="#f78104"/>
    <path id="Path_5634" data-name="Path 5634" d="M-984.279-54.2a5.8,5.8,0,0,1,1.327,3.98c-.03,3.718-.01,7.436-.01,11.155,0,.144.006.289,0,.433a.874.874,0,0,1-.891.89.855.855,0,0,1-.832-.89c-.018-.83-.006-1.661-.006-2.491,0-1.443,0-2.886,0-4.412-.372,0-.725.007-1.077,0a26.654,26.654,0,0,1-3.293-.111,5.127,5.127,0,0,1-4.281-5.519,5.2,5.2,0,0,1,5.136-4.762q18.167-.012,36.334,0a5.18,5.18,0,0,1,5.3,5.37q.008,17.788,0,35.576v.68c.28.085.552.158.817.25a5.2,5.2,0,0,1,3.481,5.5,5.348,5.348,0,0,1-5,4.6c-.234.011-.469.009-.7.009h-31.135a5.223,5.223,0,0,1-5.585-5.579c0-.975,0-1.949,0-2.924,0-.637.34-1.024.866-1.023s.859.389.863,1.027c.007,1.065,0,2.13,0,3.195a3.489,3.489,0,0,0,2.169,3.322,3.478,3.478,0,0,0,3.753-.775,3.464,3.464,0,0,0,.7-3.854,2.59,2.59,0,0,1,2.566-3.784q12.373,0,24.746,0h.722v-.6q0-17.761,0-35.521a3.471,3.471,0,0,0-3.7-3.737q-15.811,0-31.623,0Zm8.658,48.52h24.283c1.3,0,2.6.02,3.9-.008a3.55,3.55,0,0,0,3.461-3.683,3.468,3.468,0,0,0-3.6-3.239q-13.077-.006-26.155,0a2.6,2.6,0,0,0-.378.012.834.834,0,0,0-.7,1.192A5.251,5.251,0,0,1-975.621-5.678ZM-984.7-47.283c0-1.212.016-2.364,0-3.515a3.461,3.461,0,0,0-3.38-3.4,3.476,3.476,0,0,0-3.538,3.181,3.424,3.424,0,0,0,3.083,3.714C-987.284-47.205-986.02-47.283-984.7-47.283Z" transform="translate(1010.734 645.433)" fill="#008083"/>
    <path id="Path_5635" data-name="Path 5635" d="M-988.023,76.106A11.275,11.275,0,0,1-976.8,87.348a11.289,11.289,0,0,1-11.192,11.28,11.279,11.279,0,0,1-11.332-11.138A11.264,11.264,0,0,1-988.023,76.106Zm-.015,20.787a9.539,9.539,0,0,0,9.507-9.564A9.552,9.552,0,0,0-988,77.836a9.538,9.538,0,0,0-9.587,9.484A9.533,9.533,0,0,0-988.038,96.893Z" transform="translate(1015.833 532.462)" fill="#008083"/>
    <path id="Path_5636" data-name="Path 5636" d="M-773.853,12.937c.62-.824,1.19-1.59,1.767-2.35.418-.55.9-.67,1.335-.343s.46.821.047,1.378c-.677.912-1.36,1.819-2.076,2.776l1.868,2.494c.119.159.247.312.351.48a.846.846,0,0,1-.213,1.2.839.839,0,0,1-1.2-.212c-.567-.723-1.108-1.467-1.661-2.2-.063-.083-.133-.161-.244-.294l-1.572,2.094c-.108.144-.21.295-.329.429a.853.853,0,0,1-1.206.167.844.844,0,0,1-.135-1.246c.551-.759,1.122-1.5,1.684-2.253.151-.2.3-.4.485-.653l-1.8-2.406c-.13-.173-.267-.342-.386-.522A.849.849,0,0,1-777,10.261a.84.84,0,0,1,1.24.175c.546.695,1.065,1.41,1.6,2.116C-774.08,12.664-773.988,12.771-773.853,12.937Z" transform="translate(825.896 588.968)" fill="#f78104"/>
    <path id="Path_5637" data-name="Path 5637" d="M-824.233,18.236c-.239.233-.445.588-.727.664-.263.071-.614-.136-.909-.261-.091-.038-.135-.205-.184-.32-.459-1.076-.458-1.076-1.614-1.076a.374.374,0,0,1-.054,0c-.954-.137-1.688.009-1.9,1.166a.774.774,0,0,1-1.083.505.849.849,0,0,1-.486-1.152c.779-2.109,1.573-4.213,2.36-6.319.075-.2.09-.461.228-.6.224-.22.527-.5.8-.5a1.016,1.016,0,0,1,.785.492c.905,2.31,1.756,4.642,2.62,6.969a2.225,2.225,0,0,1,.069.314Zm-4.253-2.762h1.366l-.687-1.809Z" transform="translate(872.038 588.722)" fill="#f78104"/>
    <path id="Path_5638" data-name="Path 5638" d="M-823.022,148.06h6.931a2.686,2.686,0,0,1,.486.013.818.818,0,0,1,.748.853.82.82,0,0,1-.749.853,2.658,2.658,0,0,1-.486.013h-13.97a3.964,3.964,0,0,1-.433-.007.862.862,0,0,1-.808-.86.86.86,0,0,1,.809-.858,4.075,4.075,0,0,1,.433-.007Z" transform="translate(872.076 470.901)" fill="#008083"/>
    <path id="Path_5639" data-name="Path 5639" d="M-823.087,185.8h-6.931a4.047,4.047,0,0,1-.487-.009.85.85,0,0,1-.783-.879.836.836,0,0,1,.773-.834,2.713,2.713,0,0,1,.433-.01h14.024c.126,0,.253-.006.379,0a.865.865,0,0,1,.841.883.858.858,0,0,1-.831.837c-.323.023-.649.008-.974.008Z" transform="translate(872.065 440.097)" fill="#008083"/>
    <path id="Path_5640" data-name="Path 5640" d="M-868.975,11.8c0,1.892,0,3.709,0,5.527,0,.18.009.361,0,.54a.866.866,0,0,1-.864.86.846.846,0,0,1-.856-.863c-.021-.865-.008-1.73-.008-2.595,0-1.133,0-2.265,0-3.469-.549,0-1.064.006-1.58,0-.634-.009-1.02-.346-1.016-.872s.387-.855,1.029-.857q2.433-.008,4.866,0c.637,0,1.024.336,1.027.86s-.387.861-1.019.869C-867.9,11.809-868.4,11.8-868.975,11.8Z" transform="translate(908.012 588.962)" fill="#f78104"/>
    <path id="Path_5641" data-name="Path 5641" d="M-831.991,113.812c-1.406,0-2.812,0-4.218,0-.69,0-1.084-.31-1.1-.846-.013-.556.393-.884,1.111-.885q4.218,0,8.436,0c.7,0,1.077.3,1.087.846.011.568-.378.884-1.1.886Q-829.882,113.815-831.991,113.812Z" transform="translate(877.212 501.683)" fill="#008083"/>
  </g>
</svg>
