<svg xmlns="http://www.w3.org/2000/svg" width="6.039" height="9.45" viewBox="0 0 6.039 9.45">
  <g id="Group_4401" data-name="Group 4401" transform="translate(-364.461 -874)">
    <path id="Icon_ionic-ios-arrow-back" data-name="Icon ionic-ios-arrow-back" d="M317.982,380.317l2.289,2.291a.433.433,0,0,0,.611-.613l-2.595-2.595a.432.432,0,0,0-.6-.013L315.079,382a.433.433,0,0,0,.611.613Z" transform="translate(49.5 494.725)" fill="#4a73fb"/>
    <path id="Icon_ionic-ios-arrow-back-2" data-name="Icon ionic-ios-arrow-back" d="M317.982,381.683l2.289-2.291a.433.433,0,0,1,.611.613l-2.6,2.595a.432.432,0,0,1-.6.013L315.079,380a.433.433,0,0,1,.611-.613Z" transform="translate(49.5 500.725)" fill="#4a73fb"/>
  </g>
</svg>
