<svg id="Group_5822" data-name="Group 5822" xmlns="http://www.w3.org/2000/svg" width="113.237" height="13.686" viewBox="0 0 113.237 13.686">
  <path id="Path_5676" data-name="Path 5676" d="M184.324,3.324a15.546,15.546,0,0,1,2.065,3.612V0H180.5a12.194,12.194,0,0,1,3.828,3.327" transform="translate(-172.702 0.004)" fill="#058fcf"/>
  <path id="Path_5677" data-name="Path 5677" d="M3.125,17.117A7.734,7.734,0,0,0,0,17.782V30.064H13.084c-.1-7.163-4.53-12.947-9.959-12.947" transform="translate(0 -16.378)" fill="#058fcf"/>
  <path id="Path_5678" data-name="Path 5678" d="M498.063,29.085l7.311-8.851h-7.081V18.3h9.913v1.611L500.9,28.767h7.311V30.7H498.063V29.085" transform="translate(-476.557 -17.514)" fill="#058fcf"/>
  <path id="Path_5679" data-name="Path 5679" d="M796.1,18.3h9.17v1.965h-7.01v3.186h6.214v1.965h-6.214v3.31h7.1V30.7H796.1V18.3" transform="translate(-761.723 -17.514)" fill="#058fcf"/>
  <path id="Path_5680" data-name="Path 5680" d="M1076.127,24.447a2.878,2.878,0,0,0,1.864-.56,1.852,1.852,0,0,0,.693-1.52v-.035a1.83,1.83,0,0,0-.675-1.538,3.033,3.033,0,0,0-1.9-.524h-3.178v4.178Zm-5.356-6.142h5.523a6.056,6.056,0,0,1,2.071.328,4.161,4.161,0,0,1,1.5.912,3.59,3.59,0,0,1,.762,1.186,4.021,4.021,0,0,1,.265,1.487v.035a4.014,4.014,0,0,1-.221,1.372,3.586,3.586,0,0,1-.611,1.08,3.656,3.656,0,0,1-.929.8,4.593,4.593,0,0,1-1.195.5l3.345,4.691h-2.567l-3.054-4.319h-2.735V30.7h-2.16V18.3h0" transform="translate(-1024.536 -17.514)" fill="#058fcf"/>
  <path id="Path_5681" data-name="Path 5681" d="M1360.977,24.195a4.053,4.053,0,0,0,1.683-.345,4,4,0,0,0,1.313-.938,4.366,4.366,0,0,0,.855-1.39,4.667,4.667,0,0,0,.308-1.7v-.036a4.742,4.742,0,0,0-.308-1.708,4.262,4.262,0,0,0-.864-1.4,4.185,4.185,0,0,0-1.331-.947,4.248,4.248,0,0,0-3.375-.009,3.986,3.986,0,0,0-1.313.938,4.349,4.349,0,0,0-.855,1.389,4.669,4.669,0,0,0-.308,1.7v.036a4.737,4.737,0,0,0,.308,1.708,4.245,4.245,0,0,0,.865,1.4,4.167,4.167,0,0,0,1.331.947A4.025,4.025,0,0,0,1360.977,24.195Zm-.035,2a6.627,6.627,0,0,1-2.62-.5,6.216,6.216,0,0,1-2.036-1.372,6.284,6.284,0,0,1-1.327-2.026,6.412,6.412,0,0,1-.478-2.47v-.035a6.412,6.412,0,0,1,.478-2.469,6.241,6.241,0,0,1,1.346-2.036,6.458,6.458,0,0,1,4.673-1.9,6.626,6.626,0,0,1,2.62.5,6.226,6.226,0,0,1,2.036,1.372,6.3,6.3,0,0,1,1.327,2.027,6.407,6.407,0,0,1,.479,2.469v.036a6.406,6.406,0,0,1-.479,2.469,6.249,6.249,0,0,1-1.345,2.036,6.458,6.458,0,0,1-4.673,1.9" transform="translate(-1295.995 -12.801)" fill="#058fcf"/>
  <path id="Path_5682" data-name="Path 5682" d="M1720.263,28.731a4.827,4.827,0,0,0,1.77-.311,3.87,3.87,0,0,0,1.354-.871,3.954,3.954,0,0,0,.867-1.334,4.48,4.48,0,0,0,.311-1.68V24.5a4.549,4.549,0,0,0-.311-1.689,3.849,3.849,0,0,0-2.221-2.222,4.708,4.708,0,0,0-1.77-.32h-2.443v8.461h2.443Zm-4.6-10.426h4.621a7.327,7.327,0,0,1,2.664.469,6.283,6.283,0,0,1,2.088,1.3,5.8,5.8,0,0,1,1.354,1.956,6.152,6.152,0,0,1,.478,2.434V24.5a6.214,6.214,0,0,1-.478,2.443,5.772,5.772,0,0,1-1.354,1.965,6.392,6.392,0,0,1-2.088,1.31,7.205,7.205,0,0,1-2.664.478h-4.621V18.3" transform="translate(-1641.58 -17.514)" fill="#058fcf"/>
  <path id="Path_5683" data-name="Path 5683" d="M2036.26,18.3h2.16v5.151h5.948V18.3h2.16V30.7h-2.16V25.474h-5.948V30.7h-2.16V18.3" transform="translate(-1948.338 -17.514)" fill="#058fcf"/>
  <path id="Path_5684" data-name="Path 5684" d="M2331.8,23.813l-2.142-4.957-2.124,4.957Zm-3.116-7.559h2.018l5.452,12.48h-2.3l-1.258-2.991h-5.859l-1.275,2.991h-2.23l5.453-12.48" transform="translate(-2222.916 -15.552)" fill="#058fcf"/>
</svg>
