<?xml version="1.0" encoding="utf-8"?>
<!-- Generator: Adobe Illustrator 23.0.5, SVG Export Plug-In . SVG Version: 6.00 Build 0)  -->
<svg version="1.1" id="Layer_1" xmlns="http://www.w3.org/2000/svg" xmlns:xlink="http://www.w3.org/1999/xlink" x="0px" y="0px"
	 viewBox="0 0 1080 1080" style="enable-background:new 0 0 1080 1080;" xml:space="preserve">
<style type="text/css">
	.st0{fill:#008083;}
</style>
<g id="Group_6056" transform="translate(0)">
	<g id="Group_5227" transform="translate(0)">
		<g id="Group_5227-2">
			<path id="Path_4962_1_" class="st0" d="M505.7,661.7c-2.4,15.4-42.3,243.1-243.8,341.8c-105.6,51.7-207.1,44.3-256.1,37.1V827
				c0,0,271.2,18.5,281.3-176.9c5-205.5-6.7-424.5-6.7-424.5l227.4-0.2c0,137.9,0,275.7,0,413.6"/>
			<path id="Path_4961" class="st0" d="M0,259.1h801.5L1080,41.9H203C203,41.9-2.5,67.1,0,259.1z"/>
			<path id="Path_4963" class="st0" d="M1075.5,37.4v219.9c-114.7,14-214,86.2-262.8,190.9C736.4,623.4,934,854.7,1075.5,823.3
				v219.4C865.1,1035,680,901.5,606.1,704.3C462.4,358.5,815,32.9,1075.5,37.4z"/>
		</g>
	</g>
</g>
</svg>
